<svg xmlns="http://www.w3.org/2000/svg" xmlns:xlink="http://www.w3.org/1999/xlink" version="1.1">
  <symbol id="menuopen" viewBox="0 0 31 30">
    <title>Open menu</title>
    <path d="M8.594 8.015l-6.73.013c-.47 0-.85.407-.852.908 0 .5.38.906.85.905l5.198-.01c.104.28.22.58.344.91l-5.545.01c-.47 0-.86.41-.86.91s.38.91.85.91l6.24-.01.345.9-6.596.01c-.47 0-.85.41-.85.91s.38.906.846.905l8.99-.016c1.338-.004 2.457-.95 2.837-2.243L29.313 13c.59 0 .946-.698.63-1.227l-.716-1.19c-.14-.225-.375-.362-.63-.362l-14.93.03C13.305 8.946 12.19 8 10.855 8l-2.26.005v.01M29.32 23.55c.532 0 .895-.578.69-1.1l-1.565-2.505c-.824-1.352-2.83-1.947-4.03-1.945l-9.136.022c-1.35.002-2.53.967-2.88 2.354l-.11.43-10.55.018c-.59 0-.95.696-.63 1.224l.72 1.19c.13.226.37.363.62.362l26.86-.05" fill-rule="evenodd"/>
  </symbol>
  <symbol id="ustwologo" viewBox="0 0 83 32">
    <title>ustwo logo</title>
    <path d="M30.074 8.777c-.554-.368-1.372-.81-1.584-.89-.89-.342-1.538-.234-2.153.194-.355.23-.707.61-1.127 1.1l-9.577 10.63.984-3.72 1.757-4.98h-.014l.01-.02c.515-1.62.13-1.94-1.357-2.96L16.857 8c-.988-.673-1.468-.305-1.81.707l-.798 1.695-8.37 7.324 2.43-6.94c.24-.766.19-1.167-.53-1.67L6.11 7.97c-.62-.424-1.14-.35-1.833.04L2.23 9.19c-.634.357-.785.72-.265 1.08l1.998 1.368-3.317 9.748c-.243.77-.248 1.318.295 1.692l1.9 1.294v.002c.77.526 1.02.295 1.44-.11l7.95-7.43L11 20.057v.004c-.755 2.36-.626 2.61.973 3.71.204.14 1.1.79 1.317.85.776.22 1.263-.2 1.933-1.02l11.23-12.82-.072 10.01-1.69-.73c-.62-.27-1.36-.58-1.38.44v1.71c0 .76.41 1.66 1.25 2l1.13.48c.89.39 1.3.49 2.19 0 .06-.03 1.89-1.08 1.93-1.1.86-.48 1.06-.91 1.11-1.61l.02-.87.1-10.02c0-1.33-.33-1.87-.95-2.28zm49.733-.866c-.892 0-1.498.43-1.498.43l-1.55.93c-.64.36-.79.72-.27 1.08l2 1.37c.18.16.14 2.21-.46 4.09-.66 2.07-1.25 2.9-2.41 4.34-.96 1.19-2.72 2.46-3.95 1.82-1.2-.63-.86-2.91.51-6.18.56-1.35 1.41-2.72 2.08-4.06.45-1.36.39-1.837-.58-2.585L72.31 8.1c-.95-.626-2.24-.563-3.31.516l-8.96 9.47 1.51-4.93.408-1.034c.515-1.624-.04-1.94-1.527-2.96l-.15-.11c-.984-.67-1.47-.3-1.81.708l-8.43 7.95 2.188-6.712c.427-1.32-.66-2.036-1.903-2.89-1.242-.852-1.863-.307-2.89.9l-9.568 10.8L41.59 8.12c.377-1.186.134-1.606-.538-2.098l-1.447-.785H63.44c.544-.003.61-.327.326-.89l-.898-1.837c-.31-.616-.648-.93-1.293-.93H16.15c-.543.004-.608.336-.327.9l.9 1.838c.31.616.648.92 1.292.92h19.917l-4.71 14.807c-.752 2.36-.623 2.61.976 3.71 1.6 1.1 2.01 1.353 3.25-.174l10.845-12.63L44.84 21.3c-.33 1.12-.24 1.526.28 1.88l1.63 1.115c.69.47.99.57 1.87-.26l8.57-8.21-2.203 5.48c-.442 1.4-.253 1.58 1 2.44l.787.54c.75.49 1.25.61 1.983-.23l11.1-12.035c-.65 1.258-1.42 2.5-1.86 3.85-1.036 3.127-1.38 8.01 2.792 8.873.56.117 1.1.213 1.68.193 5.95-.21 9.18-6.26 9.86-11.06.43-3.05-.21-4.39-.9-5.2-.47-.552-.83-.746-1.62-.746z" fill-rule="evenodd"/>
  </symbol>
  <symbol id="HarveyShape1" viewBox="0 0 419 456">
    <path d="M419.4 100.602s0-.2.2-.2v-1.8s0-.2-.2-.2c0 0 0-.2-.198-.2 0 0 0-.2-.2-.2l-.2-.2-.2-.2-.2-.198-.198-.2h-.2s-.2 0-.2-.2H270l-57.8-96v-.2s0-.2-.2-.2c0 0 0-.2-.2-.2 0 0-.2 0-.2-.2l-.2-.2h-3.598s-.2 0-.2.2c0 0-.2 0-.2.2 0 0 0 .2-.198.2 0 0 0 .2-.2.2v.2l-57.6 96H1.802c-.2 0-.2 0-.2.2h-.2l-.2.2-.2.198-.2.2-.2.2-.2.2s0 .2-.198.2c0 0 0 .2-.2.2v1.798c0 .2 0 .2.2.4v.2l73.4 124.8-49.6 83.8v2.998s0 .2.2.2l.197.198s0 .2.2.2l.2.2.205.203h.2c.198 0 .398.195.398.195h99.2l82.4 141.6c0 .2.2.4.4.4l.2.2c.2.2.4.2.6.4.2 0 .4.2.6.2h2c.2 0 .4-.2.6-.2.2-.2.4-.2.604-.4l.198-.2c.202-.2.202-.2.4-.4l82-141.6h99.6c.2 0 .4-.2.4-.2h.2l.2-.2.2-.2s0-.198.2-.198l.2-.2s0-.2.2-.2V309.6L346.4 225.8l73.003-125.2c0 .2 0 0 0 0zm-102 161.8L215.202 102.2H411.6l-94.2 160.2zm-27 46.6c-.198.2-.398.398-.398.8l-80.2 138.2-103-176.8h205.6L290.4 309zM8 102.202h196.4L102.202 262.4l-94.2-160.2zM206.8 208l-96.2 52 96.2-150.6V208zm3 5.2l96 52h-192l96-52zm3-5.2v-98.6L309 260l-96.2-52zm0-195.6l50.4 83.8h-50.4V12.4zm-6 84h-50.4l50.4-84v84zM98 267.002l-63.4 35.8L77 231.2 98 267zm-60.4 40.8l63-35.6 20.602 35.6h-83.6zm281-35.6l63.4 35.8h-84l20.6-35.8zm66.4 30.6L321.6 267l21-35.8 42.4 71.6z"/>
  </symbol>
  <symbol id="HarveyShape2" viewBox="0 0 400 413">
    <path d="M400.1 217c0-.2 0-.2 0 0v-.6l-21-111.2v-.2c0-.2 0-.2-.2-.4v-.4s0-.2-.2-.2l-.2-.2-.2-.2h-.2l-86.6-77.2s-.2 0-.2-.2c-.2 0-.2-.2-.4-.2h-.4L204.5.2c-.2 0-.4 0-.6-.2h-1.2L94.5 33.2s-.2 0-.2.2h-.2s-.2 0-.2.2c0 0-.2 0-.2.2l-.2.2-.2.2-71.4 86.4-.2.2-.2.2v.2c0 .2 0 .2-.2.4L-.1 215.4v1.6l36.8 101.2c0 .2.2.2.2.4s.2.2.2.4c0 0 0 .2.2.2l74.4 74.2.2.2h.2c.2 0 .2.2.4.2h.4l89.2 19h1.2L305.5 385h.2s.2 0 .2-.2c0 0 .2 0 .2-.2 0 0 .2 0 .2-.2h.2l.2-.2.2-.2 73.6-78.4c.2-.2.2-.2.2-.4s.2-.4.2-.4v-.4l18-87.4v-.2c1.2.4 1.2.4 1.2.2zM228.7 395l-83.8-54.4 112.4-13.8 76.6 6.6L228.7 395zM162.1 28.4l85 66.2-118.2 17.6-73.8-12.8 107-71zm90.2 293l-111 13.6 53.4-110.2 124-1-66.4 97.6zM130.5 118l118.6-17.6-58 118.4-123.8-2.2 63.2-98.6zm67.2 100.8L255.9 100l96.6 20.6-30.2 97.2-124.6 1zM48.1 104.2l75.8 13.2-63.4 99-53.6-3 40.2-108.2 1-1zm16.4 118.4l123.8 2.2-53.6 110.4-85.6-22.6 15.4-90zM259.7 321l66.2-97.6 66.4-3.4-50.8 108-81.8-7zm68.8-103.4l30.4-97.2 15.2-9.6 19.6 103.6-65.2 3.2zm27.2-102.4l-97-20.6 31.6-61.2 81 72.2-15.6 9.6zM253.3 92l-85.6-67 36-19.4 81.6 24.6-32 61.8zm-92.4-70c-.2 0-.2.2 0 0l-.2.2L59.9 89l37.2-50.4 77.8-24-14 7.4zm-134 102l10.6-9.8-21.8 58.6L26.9 124zm31.6 98.4l-15.6 90.2-1.8.8-34.2-94 51.6 3zm-12.6 95.4l86.4 22.8-19.4 45.8-68.2-68 1.2-.6zm91.8 25.2l86 55.8-20.8 8.6-84.8-18 19.6-46.4zm95.4 56.4l99.2-58.4-28.8 39.2-70.4 19.2zm112.4-66l7.8-6-16.2 17.4 8.4-11.4zm30.8-30.6l-25.2 19 38-81-12.8 62z"/>
  </symbol>
  <symbol id="HarveyShape3" viewBox="0 0 324 378">
    <path d="M323.8 375.2c0-.2 0-.2 0 0l-3-228.4v-1.4s0-.2-.2-.2v-.2L233.8 18.6l-.2-.2-.2-.2-.2-.2h-.4l-.2-.2h-.4s-.2 0-.2-.2h-.6L3 0H1.4s-.2 0-.2.2c0 0-.2 0-.2.2C1 .4.8.4.8.6L.6.8.4 1v.2s0 .2-.2.2c0 0 0 .2-.2.2v1.2l3.6 202.6v1.4l88.6 150c.2.2.2.4.4.4l.2.2.4.4h.2s.2 0 .4.2h1l225.6 19.8h1.4s.2 0 .2-.2c.2 0 .2-.2.4-.2 0 0 .2 0 .2-.2 0 0 .2-.2.2-.4l.2-.2v-1c.8-.2.8-.4.8-.4zM170.4 263.6L12 204.2 142.4 74.4l28 189.2zM148.2 73l164.2 74.4-136.2 114.8-28-189.2zM315 153l2.8 216.2-139-101.4L315 153zM151.2 67.8l79-43.6 79.4 115.4-158.4-71.8zm-6.8-3L19 7.2l201.8 15.2-76.4 42.4zm-5 4.2L9.4 198.2 5.8 7.6 139.4 69zM169 269.2l-73.2 81-82.2-139.4L169 269.2zm5.4 2.8l136 99.2-209.2-18.4 73.2-80.8z"/>
  </symbol>
  <symbol id="HarveyShape4" viewBox="0 0 309 440">
    <path fill="FF0" d="M309.15 272.38L158.4 1.4s0-.2-.2-.2L158 1l-.2-.2-.2-.2-.2-.2-.2-.2s-.2 0-.2-.2h-3.4s-.2 0-.2.2c0 0-.2 0-.2.2l-.2.2-.2.2-.2.2-.2.2s0 .2-.2.2L.2 271s0 .2-.2.2v1.4l16.8 51.8c0 .2.2.4.2.6l52.2 87.4c.2.2.2.4.4.6l.2.2.2.2 26.4 19.8h.2c.2.2.4.2.6.2 0 0 .2 0 .2.2.2 0 .6.2.8.2h110.2s.6 0 .8-.2c0 0 .2 0 .2-.2.2 0 .4-.2.4-.2.4-.2.8-.4 1.2-.8l25.6-19 .2-.2.2-.2c.2-.2.2-.4.4-.6l52.8-87c.2-.2.2-.4.2-.6m-4-1L234.2 410l-16.4 12.2 38.6-79.2 41.8-54-11.8 34.8zM75 409.6L23.4 323 12 288.2l41.4 54.2 38 79.6L75 409.6zm178-72.2L158 278l.8-263.6 144 258.8-49.8 64.2zm-101-59.6l-95.4 59-49.4-64.6 145.4-258-.6 263.6zm-50.8 150.6l-41.4-86.6L155 283l94.8 59.4-42 86H101.2z"/>
  </symbol>
  <symbol id="MonumentAward1" viewBox="0 0 222 76">
    <path d="M203.85.138c2.27 2.818 4.61 5.5 6.882 8.25-1.17 3.37-2.477 6.738-3.647 10.107-2.27-2.75-4.68-5.43-6.814-8.25 1.04-3.37 2.41-6.67 3.58-10.107m-14.59 12.444c3.44-.687 6.95-1.17 10.33-1.925 2.34 2.75 4.61 5.57 6.95 8.32-3.51.48-7.02 1.168-10.46 1.787-2.34-2.612-4.47-5.43-6.88-8.044v-.138h.07m19.47 10.038c2.34-2.68 4.54-5.5 6.88-8.18 1.1 3.368 2.34 6.737 3.58 10.106-2.27 2.68-4.61 5.432-6.81 8.182-1.24-3.3-2.34-6.738-3.64-10.107m-11.08-1.58c3.44.55 6.88 1.31 10.33 1.79 1.52 3.37 2.41 6.88 3.86 10.25-3.51-.82-7.09-1.24-10.6-1.99-1.17-3.37-2.41-6.67-3.58-10.04m4.96 11c3.24 1.52 6.2 3.51 9.29 5.3-.07 3.58-.07 7.15 0 10.73-3.03-1.92-6.26-3.57-9.29-5.57.14-3.5.07-7.01 0-10.45m9.98 5.23c3.03-1.85 6.2-3.57 9.23-5.43v10.79c-3.09 1.79-6.26 3.51-9.29 5.43.14-3.57.07-7.22.07-10.79m-12.45 16.7c1.31-3.37 2.41-6.74 3.65-10.04 2.34 2.68 4.55 5.5 6.89 8.18-1.31 3.3-2.41 6.74-3.715 10.04-2.27-2.82-4.54-5.5-6.81-8.18m11.22-1.72c3.51-.41 10.323-1.44 10.254-1.51-1.1 3.23-2.34 6.46-3.51 9.76-3.51.76-7.09 1.24-10.6 2 1.45-3.37 2.55-6.88 3.856-10.25m-17.5 11.48c2.34-2.68 4.547-5.5 6.887-8.18 1.31 3.3 2.41 6.67 3.72 10.04-2.34 2.68-4.54 5.5-6.88 8.18-1.17-3.37-2.41-6.74-3.72-10.04m11.08 2.2c3.51.62 7.02 1.31 10.53 1.86-2.34 2.68-4.61 5.43-6.88 8.18h-.41c-3.37-.62-6.74-1.24-10.18-1.79 2.41-2.68 4.68-5.43 6.95-8.25M18.1.14c-2.27 2.82-4.61 5.5-6.882 8.25 1.17 3.37 2.478 6.74 3.648 10.11 2.27-2.75 4.68-5.43 6.813-8.25C20.57 6.88 19.27 3.58 18.1.142m14.59 12.44c-3.44-.686-6.95-1.17-10.33-1.924-2.34 2.75-4.61 5.57-6.95 8.32 3.51.48 7.02 1.168 10.46 1.787 2.34-2.612 4.47-5.43 6.88-8.044v-.14h-.07M13.14 22.62c-2.34-2.68-4.54-5.5-6.88-8.18-1.1 3.368-2.34 6.737-3.58 10.106 2.27 2.68 4.61 5.432 6.814 8.182 1.24-3.3 2.41-6.738 3.648-10.107m11.15-1.58c-3.44.55-6.883 1.31-10.324 1.79-1.51 3.37-2.406 6.88-3.85 10.25 3.51-.82 7.087-1.24 10.597-1.99 1.17-3.37 2.41-6.67 3.58-10.04m-4.956 11c-3.24 1.52-6.2 3.51-9.29 5.3.07 3.58.07 7.15 0 10.73 3.02-1.92 6.26-3.57 9.29-5.57-.14-3.5-.14-7.01 0-10.45M9.29 37.27c-3.03-1.86-6.195-3.58-9.22-5.432V42.63c3.096 1.786 6.262 3.505 9.29 5.43-.07-3.575-.07-7.22-.07-10.794m12.527 16.707c-1.308-3.37-2.41-6.738-3.648-10.038-2.34 2.68-4.55 5.5-6.89 8.182 1.3 3.3 2.41 6.738 3.71 10.038 2.2-2.82 4.54-5.5 6.81-8.182m-11.21-1.72C7.09 51.843.27 50.81.34 50.743c1.1 3.23 2.34 6.463 3.51 9.763 3.51.756 7.09 1.238 10.6 1.994-1.516-3.37-2.55-6.878-3.855-10.247M28.01 63.737c-2.34-2.682-4.542-5.5-6.882-8.182-1.307 3.3-2.408 6.67-3.716 10.038 2.34 2.68 4.542 5.5 6.882 8.182 1.24-3.37 2.478-6.738 3.716-10.038M17 65.937c-3.51.62-7.02 1.306-10.53 1.856 2.34 2.682 4.61 5.432 6.88 8.182h.414c3.373-.62 6.745-1.237 10.186-1.788-2.41-2.68-4.68-5.43-6.95-8.25m61.526-46.273h4.198v.963H77.08v-.963l3.373-3.3c.688-.688 1.032-1.1 1.032-1.857 0-.962-.62-1.512-1.514-1.512-.96 0-1.65.55-1.65 1.65h-1.24c0-1.65 1.24-2.68 2.83-2.68s2.69.96 2.69 2.474c0 1.1-.62 1.85-1.3 2.54l-2.75 2.68m8.81 1.17c-2.34 0-2.96-1.86-2.96-4.4 0-2.55.62-4.4 2.96-4.4s2.96 1.85 2.96 4.4c0 2.54-.62 4.4-2.96 4.4zm1.72-2.75v-3.3c0-1.1-.76-1.79-1.72-1.79-1.03 0-1.72.62-1.72 1.78v3.3c0 1.1.76 1.79 1.72 1.79.96-.07 1.72-.69 1.72-1.79zm3.3 1.58h2.2v-5.5h-2.2v-.96h2.2v-.96h1.11v7.42h2v.96h-5.3v-.97m10.46.96v-2.06h-3.72v-.96l3.72-5.43h1.1v5.43h1.24v.96h-1.24v2.06h-1.1zm-2.54-3.02h2.62v-3.78l-2.62 3.78zm13.97.96h-3.3l-.68 2.06h-1.24l2.89-8.39h1.31l2.89 8.38h-1.17l-.69-2.06zm-2.96-.97H114l-1.31-4.06h-.07l-1.31 4.05zm7.57-.21v3.23h-1.17v-8.39h3.17c1.04 0 1.59.2 2.07.61.42.41.62 1.17.62 1.92s-.2 1.51-.69 1.99c-.48.48-1.1.68-1.92.68h-2.07v-.07zm2.48-1.03c.55 0 .97-.42.97-.97v-1.23c0-.55-.34-.9-.96-.9h-2.48v3.09h2.47zm4.96 1.03v3.23h-1.17v-8.39h3.17c1.04 0 1.59.2 2.07.61.41.41.62 1.17.62 1.92s-.21 1.51-.69 1.99-1.1.68-1.92.68h-2.07v-.07zm2.48-1.03c.55 0 .96-.42.96-.97v-1.23c0-.55-.34-.9-.96-.9h-2.48v3.09h2.48zm3.85-4.13h1.17v7.36h3.79v1.03h-5.02v-8.39h.07m6.33 0h5.58v1.03h-4.4v2.55H144v1.03h-3.85v2.68h4.405v1.1h-5.574v-8.39M67.45 36.37v5.02h-2.69V27.36h5.718c2.96 0 4.404 1.377 4.404 4.47 0 2.957-1.72 4.47-4.404 4.47h-3.03v.07zm3.306-2.27c.96 0 1.305-.48 1.305-1.373v-1.79c0-.965-.34-1.31-1.3-1.31h-3.31v4.47h3.31zm13.006 4.265h-4.82l-.895 2.955h-2.89L79.97 27.3h2.83l4.75 14.025h-2.89l-.89-2.956zm-2.41-7.77l-1.72 5.5H83l-1.653-5.5zm13.146-3.23c4.406 0 6.264 2.335 6.264 7.01 0 4.67-1.79 7.01-6.265 7.01H89.75V27.37h4.747zm-2.063 2.27v9.485h2.07c2.21 0 3.44-.894 3.44-2.75v-4.057c0-1.856-1.23-2.75-3.44-2.75h-2.07v.07zm15.69 4.74c0-4.47 2-7.36 6.13-7.36 2.96 0 5.1 1.72 5.3 4.47h-2.68c-.14-1.51-1.1-2.2-2.75-2.2-1.79 0-3.03 1.1-3.03 2.89v4.27c0 1.72 1.38 2.957 3.1 2.957 1.79 0 3.03-.895 3.03-2.82v-.62h-2.89V33.7h5.58v7.633h-2.48l-.07-1.306c-.69 1.03-1.86 1.58-3.37 1.58-3.99.07-5.85-2.954-5.85-7.217m21.958 3.985h-4.816l-.894 2.958h-2.89l4.82-14.024h2.82l4.75 14.02H131l-.898-2.96zm-2.34-7.77l-1.72 5.5h3.37l-1.652-5.5zm15.555 7.77l2.686-11h4.405v14.02h-2.62v-11.14h-.07l-2.89 11.14h-3.17l-2.89-11.138h-.07V41.39h-2.55V27.366h4.4l2.75 11m10.53-11h9.63v2.27h-6.95v3.436h6.05v2.268h-6.06v3.782h6.95v2.27h-9.633V27.364M55.61 63.668c-3.99 0-6.26-2.544-6.26-7.288 0-4.813 2.27-7.288 6.262-7.288 3.99 0 6.262 2.475 6.262 7.288 0 4.744-2.27 7.288-6.26 7.288zm3.374-5.157v-4.33c0-1.85-1.515-2.88-3.373-2.88s-3.37 1.03-3.37 2.89v4.33c0 1.86 1.52 2.89 3.37 2.89 1.86 0 3.38-1.03 3.38-2.89zm5.78-9.14h8.947v2.27h-6.26v3.44h5.78v2.27h-5.78v6.05h-2.69V49.37m14.39 0h10.87v2.27h-4.06v11.756h-2.68v-11.76h-4.13v-2.27m21.27 8.045h-5.58v5.99h-2.68V49.37h2.69v5.776h5.57V49.37h2.69v14.025h-2.68V57.41m6.13-8.043h9.64v2.27h-6.95v3.436h6.06v2.27h-6.05v3.78h6.95v2.27h-9.63V49.367m15.56 0h3.03l3.03 5.844 3.03-5.84h2.96l-4.68 8.53v5.5h-2.69v-5.5l-4.68-8.52m14.04 0h9.638v2.27h-6.95v3.44h6.057v2.27h-6.05v3.78h6.95v2.27h-9.635V49.37m19.82 11h-4.813l-.893 2.956h-2.89l4.8-14.026h2.8l4.743 14.025h-2.89l-.895-2.956zm-2.41-7.77l-1.72 5.5h3.377l-1.65-5.5zm11.08 5.432v5.364H162v-14.03h5.715c2.96 0 4.404 1.376 4.404 4.33 0 2.2-1.1 3.578-3.03 4.06l3.23 5.637h-2.96l-2.96-5.363h-1.72zm3.37-2.27c.9 0 1.24-.48 1.24-1.373v-1.45c0-.97-.34-1.31-1.24-1.31h-3.37v4.19H168v-.07zM58.56 27.248h2.71v2.328h-2.71v-2.328zm.043 3.566h2.62V41.51H58.6V30.812z" fill="#333"/>
  </symbol>
  <symbol id="MonumentAward2" viewBox="0 0 223 77">
    <path d="M204.75.55c2.275 2.84 4.606 5.51 6.88 8.235-1.194 3.35-2.502 6.76-3.64 10.11-2.273-2.726-4.66-5.453-6.82-8.236 1.022-3.41 2.387-6.71 3.58-10.11m-14.61 12.43c3.468-.69 6.936-1.2 10.347-1.93 2.33 2.72 4.605 5.56 6.936 8.34-3.525.45-7.05 1.19-10.46 1.82-2.332-2.62-4.493-5.46-6.88-8.07v-.12h.057v-.06m19.5 10.05c2.33-2.67 4.548-5.51 6.88-8.18 1.08 3.35 2.33 6.76 3.58 10.11-2.273 2.67-4.604 5.45-6.82 8.18-1.252-3.3-2.332-6.76-3.64-10.11m-11.086-1.59c3.468.57 6.88 1.3 10.347 1.81 1.54 3.35 2.39 6.87 3.87 10.28-3.52-.85-7.1-1.25-10.63-1.99-1.19-3.41-2.44-6.7-3.58-10.11m4.95 11.02c3.24 1.53 6.2 3.52 9.33 5.28-.05 3.57-.05 7.15 0 10.73-3.01-1.93-6.25-3.58-9.32-5.57.12-3.52.06-6.99 0-10.45m10.01 5.22c3.02-1.88 6.2-3.58 9.21-5.45V43c-3.12 1.82-6.25 3.523-9.32 5.454.17-3.578.11-7.213.11-10.79M201 54.45c1.31-3.35 2.39-6.76 3.64-10.054 2.33 2.67 4.548 5.51 6.88 8.18-1.308 3.294-2.39 6.758-3.696 10.053-2.27-2.84-4.546-5.51-6.82-8.18m11.256-1.76c3.525-.4 10.347-1.42 10.29-1.54-1.08 3.24-2.33 6.47-3.524 9.77-3.523.74-7.105 1.25-10.63 1.99 1.42-3.3 2.56-6.82 3.866-10.23m-17.51 11.53c2.33-2.67 4.547-5.51 6.88-8.18 1.305 3.29 2.386 6.7 3.693 10.05-2.332 2.67-4.55 5.51-6.88 8.18-1.137-3.41-2.39-6.76-3.695-10.06m11.086 2.21c3.527.63 7.05 1.31 10.52 1.87-2.33 2.67-4.605 5.45-6.88 8.17h-.4c-3.352-.63-6.763-1.25-10.174-1.82 2.388-2.67 4.662-5.45 6.936-8.24M18.73.55c-2.274 2.84-4.605 5.51-6.88 8.235 1.195 3.35 2.503 6.76 3.64 10.11 2.274-2.726 4.662-5.453 6.822-8.236-1.08-3.41-2.388-6.71-3.582-10.11m14.61 12.43c-3.47-.69-6.937-1.2-10.348-1.93-2.33 2.72-4.605 5.56-6.936 8.34 3.525.45 7.05 1.19 10.46 1.82 2.332-2.62 4.493-5.46 6.88-8.07v-.12h-.056v-.06M13.782 23.04c-2.33-2.668-4.548-5.508-6.88-8.178-1.08 3.35-2.33 6.76-3.58 10.11 2.273 2.67 4.604 5.453 6.822 8.18 1.25-3.295 2.387-6.76 3.638-10.11m11.143-1.592c-3.468.57-6.88 1.307-10.347 1.818-1.535 3.352-2.388 6.873-3.866 10.28 3.525-.85 7.107-1.25 10.632-1.987 1.193-3.4 2.444-6.7 3.58-10.11M19.98 32.47c-3.242 1.533-6.198 3.52-9.325 5.282.057 3.578.057 7.157 0 10.735 3.013-1.93 6.254-3.578 9.324-5.566-.12-3.52-.12-6.98 0-10.45M9.91 37.7C6.9 35.824 3.717 34.12.702 32.247v10.79c3.128 1.82 6.255 3.523 9.325 5.454-.115-3.58-.115-7.21-.115-10.79M22.48 54.45c-1.307-3.35-2.387-6.758-3.638-10.053-2.33 2.67-4.548 5.51-6.88 8.18 1.308 3.294 2.39 6.758 3.696 10.053 2.218-2.84 4.55-5.51 6.823-8.18m-11.25-1.76C7.7 52.292.88 51.27.94 51.156c1.08 3.238 2.33 6.475 3.52 9.77 3.525.738 7.107 1.25 10.632 1.988-1.535-3.295-2.56-6.816-3.866-10.224M28.68 64.22c-2.33-2.67-4.55-5.51-6.88-8.18-1.307 3.295-2.387 6.703-3.695 10.054 2.33 2.67 4.548 5.51 6.88 8.18 1.193-3.41 2.444-6.76 3.695-10.054m-11.03 2.215c-3.525.625-7.05 1.307-10.518 1.874 2.33 2.67 4.605 5.45 6.88 8.17h.398c3.354-.63 6.765-1.25 10.176-1.82-2.388-2.67-4.662-5.46-6.936-8.24m52.93-28.34c2.558 0 3.64 1.36 3.64 4.2s-1.082 4.2-3.64 4.2h-2.786v-8.4h2.786zm-1.535 1.08v6.36h1.592c1.592 0 2.33-.68 2.33-1.93v-2.5c0-1.25-.738-1.93-2.33-1.93h-1.592zm7.107-1.08h5.57v1.02H77.29v2.55h3.865v1.02H77.29v2.67h4.433v1.08h-5.57v-8.35m8.36 2.1c0 .85.4 1.08 1.367 1.36l1.367.34c1.42.4 2.274 1.02 2.274 2.39 0 1.53-1.42 2.38-3.18 2.38-1.7 0-3.18-.86-3.29-2.62h1.19c.12 1.19.97 1.59 2.05 1.59s1.99-.45 1.99-1.36c0-.68-.4-1.08-1.31-1.36l-1.65-.46c-1.36-.4-2.04-1.08-2.04-2.33s1.2-2.22 2.9-2.22c1.6 0 2.9.74 3.02 2.5H88c-.06-1.08-.97-1.42-1.88-1.42-.97-.06-1.594.39-1.594 1.19m6.71-2.1h1.195v8.41h-1.2v-8.4zm6.65-.17c1.65 0 2.9.97 3.016 2.56h-1.2c-.113-.97-.852-1.59-1.99-1.59-1.25 0-2.16.85-2.16 2.04v2.61c0 1.19.967 2.04 2.218 2.04 1.308 0 2.047-.68 2.047-2.048v-.454h-1.88v-1.02h3.127v4.49h-1.08l-.054-.91c-.4.63-1.08 1.08-2.16 1.08-2.16 0-3.36-1.643-3.36-4.31-.12-2.84 1.02-4.49 3.47-4.49m10.34 7.213v-7h1.19v8.4h-1.65l-3.58-6.987h-.06v7.043h-1.19v-8.46h1.65l3.638 7.04m10.63-.68h-3.296l-.68 2.045h-1.25l2.9-8.41h1.31l2.9 8.4h-1.254l-.62-2.05zm-2.955-.965h2.67l-1.31-4.09h-.055l-1.306 4.09zm12.96 1.7l1.706-7.1h1.25l-2.22 8.41h-1.54l-1.59-6.76h-.06l-1.59 6.76h-1.42l-2.16-8.41h1.25l1.65 7.1h.05l1.65-7.1h1.3l1.7 7.1m8.64-.74h-3.3l-.68 2.04h-1.25l2.9-8.41h1.31l2.9 8.4h-1.25l-.63-2.05zm-3.07-.97h2.67l-1.31-4.09h-.06l-1.304 4.09zm7.62-.46v3.52h-1.19v-8.46h3.18c.91 0 1.59.22 1.99.62.4.39.62 1.02.62 1.81s-.23 1.36-.63 1.82c-.34.34-.74.56-1.37.62l2.05 3.58h-1.37l-1.99-3.58H142V43zm2.44-1.08c.62 0 .96-.4.96-.97V40c0-.57-.34-.91-.968-.91h-2.39v2.84h2.387zm6.82-3.86c2.56 0 3.64 1.36 3.64 4.2s-1.08 4.2-3.64 4.2h-2.73v-8.4h2.73zm-1.54 1.08v6.36h1.596c1.59 0 2.33-.68 2.33-1.93v-2.5c0-1.25-.74-1.93-2.33-1.93h-1.594zM79.1 60.06l1.706-7.1h1.25l-2.216 8.41h-1.42l-1.593-6.76h-.057l-1.592 6.76h-1.42l-2.216-8.406h1.25l1.65 7.1h.056l1.65-7.1h1.31l1.65 7.1m4.6-7.1h1.197v8.405h-1.2v-8.4zm8.7 7.042v-7.04h1.195v8.406H91.96l-3.526-7.044h-.056v7.042H87.18v-8.407h1.648l3.582 7.043m8.64 0v-7.04h1.195v8.407h-1.65L97.07 54.33h-.052v7.043H95.82v-8.407h1.65l3.58 7.043m3.355-7.05h5.572v1.02h-4.434v2.55h3.866v1.02h-3.87v2.67h4.43v1.02h-5.57v-8.29m8.7 4.88v3.57h-1.2v-8.46h3.18c.91 0 1.59.22 1.99.62.4.39.62 1.02.62 1.81 0 .74-.23 1.37-.63 1.82-.34.34-.74.57-1.37.63l2.04 3.58h-1.36l-1.99-3.58h-1.3zm2.39-1.03c.62 0 .96-.4.96-.97v-.96c0-.57-.34-.91-.97-.91h-2.38v2.84h2.39zm8.47 3.58h4.21v.96h-5.63v-.96l3.35-3.3c.68-.68 1.02-1.08 1.02-1.88 0-.96-.63-1.53-1.54-1.53-.97 0-1.65.57-1.65 1.65h-1.19c0-1.65 1.25-2.67 2.84-2.67s2.67.96 2.67 2.5c0 1.08-.63 1.87-1.31 2.55l-2.79 2.67m8.82 1.19c-2.33 0-2.96-1.88-2.96-4.43 0-2.56.62-4.43 2.95-4.43s2.95 1.87 2.95 4.43c0 2.55-.57 4.43-2.96 4.43zm1.76-2.79V55.5c0-1.08-.74-1.82-1.71-1.82-1.03 0-1.71.628-1.71 1.82v3.3c0 1.08.74 1.82 1.7 1.82 1.02 0 1.7-.685 1.7-1.82zm3.3 1.59h2.21v-5.51h-2.22v-.96h2.22v-.968h1.08v7.44h1.99v.97h-5.29v-.96m10.52.965V59.3h-3.7v-.97l3.69-5.457h1.08v5.46h1.25v.964h-1.25v2.05h-1.08zm-2.61-2.96h2.61v-3.8l-2.62 3.81zM89.85 27.87h-4.83l-.91 2.953h-2.9l4.832-14.03h2.843l4.775 14.03h-2.9l-.91-2.954zm-2.387-7.84l-1.705 5.51h3.354l-1.65-5.51zm11.087 5.738v4.998h-2.672V16.793h5.742c2.956 0 4.434 1.364 4.434 4.488 0 2.96-1.705 4.49-4.434 4.49h-3.07zm3.297-2.272c.967 0 1.308-.455 1.308-1.363v-1.818c0-.966-.34-1.306-1.308-1.306H98.55v4.48h3.297zm9.323 2.272v4.998h-2.67V16.793h5.74c2.957 0 4.436 1.364 4.436 4.488 0 2.96-1.706 4.49-4.435 4.49h-3.07zm3.355-2.272c.967 0 1.308-.455 1.308-1.363v-1.818c0-.966-.34-1.306-1.308-1.306h-3.297v4.48h3.297zm6.595-6.703h2.672V28.55h5.97v2.273h-8.642v-14.03m10.69 0h9.664v2.272h-6.937v3.408h6.027v2.272h-6.083v3.806h6.94v2.28h-9.66V16.8h.06" fill="#333"/>
  </symbol>
  <symbol id="MonumentAward3" viewBox="0 0 223 77">
    <path d="M204.045.227c2.274 2.84 4.605 5.51 6.88 8.236-1.195 3.35-2.503 6.76-3.64 10.11-2.274-2.726-4.662-5.453-6.822-8.236 1.023-3.408 2.388-6.702 3.582-10.11m-14.61 12.44c3.467-.683 6.935-1.194 10.346-1.93 2.34 2.724 4.61 5.564 6.94 8.347-3.52.455-7.05 1.193-10.46 1.818-2.33-2.613-4.49-5.453-6.88-8.066v-.113h.06v-.057m19.5 10.054c2.33-2.67 4.55-5.51 6.88-8.18 1.08 3.35 2.33 6.76 3.58 10.11-2.27 2.67-4.6 5.453-6.82 8.18-1.25-3.295-2.33-6.76-3.64-10.11m-11.08-1.59c3.47.567 6.88 1.305 10.35 1.816 1.54 3.352 2.39 6.873 3.87 10.28-3.52-.85-7.1-1.25-10.63-1.987-1.19-3.41-2.44-6.71-3.58-10.11m4.94 11.01c3.24 1.53 6.2 3.52 9.33 5.28-.05 3.57-.05 7.15 0 10.73-3.01-1.93-6.25-3.58-9.32-5.57.11-3.53.06-6.99 0-10.46m10.01 5.22c3.02-1.88 6.2-3.58 9.21-5.45v10.8c-3.12 1.81-6.25 3.52-9.32 5.45.17-3.58.11-7.21.11-10.79m-12.54 16.77c1.31-3.36 2.39-6.76 3.64-10.06 2.33 2.67 4.55 5.51 6.88 8.18-1.3 3.29-2.38 6.76-3.69 10.05-2.27-2.84-4.55-5.51-6.82-8.18m11.26-1.76c3.53-.4 10.35-1.42 10.29-1.54-1.08 3.24-2.33 6.47-3.52 9.77-3.52.74-7.11 1.25-10.63 1.99 1.42-3.3 2.56-6.82 3.87-10.23m-17.51 11.53c2.33-2.67 4.55-5.51 6.88-8.18 1.3 3.3 2.38 6.71 3.69 10.06-2.33 2.67-4.55 5.51-6.88 8.18-1.14-3.41-2.39-6.76-3.69-10.05m11.08 2.22c3.52.63 7.05 1.31 10.51 1.88-2.33 2.67-4.61 5.46-6.88 8.18h-.4c-3.36-.62-6.77-1.25-10.18-1.81 2.38-2.67 4.66-5.457 6.93-8.24M18.02.23c-2.272 2.84-4.603 5.51-6.88 8.24 1.197 3.35 2.5 6.76 3.64 10.11 2.276-2.73 4.66-5.457 6.82-8.24-1.08-3.408-2.384-6.7-3.58-10.11m14.61 12.44c-3.47-.68-6.933-1.194-10.344-1.93-2.33 2.724-4.61 5.564-6.94 8.35 3.524.452 7.05 1.19 10.46 1.815 2.33-2.613 4.492-5.453 6.88-8.066v-.12h-.057v-.06M13.07 22.72c-2.33-2.67-4.545-5.51-6.88-8.18-1.08 3.35-2.33 6.76-3.58 10.11 2.276 2.67 4.607 5.453 6.825 8.18 1.25-3.295 2.386-6.76 3.637-10.11m11.144-1.59c-3.47.567-6.88 1.305-10.348 1.816-1.535 3.352-2.388 6.873-3.866 10.28 3.525-.85 7.107-1.25 10.632-1.987 1.192-3.41 2.443-6.71 3.58-10.11M19.27 32.14c-3.24 1.53-6.197 3.52-9.324 5.28.05 3.57.05 7.15 0 10.73 3.01-1.93 6.25-3.58 9.32-5.57-.12-3.53-.12-6.99 0-10.46M9.21 37.37C6.194 35.5 3.01 33.796 0 31.92v10.792c3.127 1.818 6.254 3.522 9.324 5.453-.114-3.578-.114-7.213-.114-10.792M21.775 54.13c-1.308-3.352-2.388-6.76-3.64-10.055-2.33 2.67-4.547 5.51-6.878 8.18 1.307 3.294 2.388 6.758 3.695 10.053 2.218-2.84 4.55-5.51 6.823-8.18m-11.257-1.76C6.993 51.97.17 50.948.228 50.834c1.08 3.238 2.33 6.475 3.524 9.77 3.525.738 7.107 1.25 10.632 1.988-1.535-3.295-2.56-6.816-3.866-10.224m17.454 11.53c-2.33-2.67-4.55-5.51-6.88-8.18-1.307 3.295-2.387 6.703-3.695 10.054 2.33 2.67 4.548 5.51 6.88 8.18 1.193-3.41 2.444-6.76 3.695-10.054m-11.03 2.215c-3.525.625-7.05 1.307-10.518 1.874 2.33 2.67 4.605 5.453 6.88 8.18h.398c3.354-.625 6.765-1.25 10.176-1.818-2.388-2.67-4.662-5.46-6.936-8.24m66.404-15.56c0 .85-.227 1.42-.625 1.81-.45.4-1.19.62-2.16.62h-3.35v-8.4h3.3c.85 0 1.42.05 1.94.39.46.34.74.91.74 1.59 0 .96-.45 1.7-1.31 1.99.97.34 1.48.96 1.48 1.98zm-4.89-4.89v2.5h2.616c.625 0 .91-.34.91-.91v-.74c0-.57-.34-.85-.91-.85h-2.615zm3.696 4.31c0-.57-.34-.85-.966-.85h-2.73v2.72h2.673c.62 0 1.02-.29 1.02-.91v-.97zm7.39.96h-3.296l-.683 2.04h-1.25l2.9-8.41h1.307l2.9 8.4h-1.25l-.627-2.04zm-2.955-.97h2.672l-1.31-4.09h-.06l-1.31 4.09zm6.423-5.45h5.175v1.02h-3.98v2.56H97.9v1.02h-3.695v3.8H93.01v-8.4m6.028 0h6.197v1.02h-2.56v7.38h-1.193v-7.27h-2.558v-1.08h.114v-.06m11.37 6.41h-3.297l-.68 2.04h-1.25l2.9-8.41h1.31l2.9 8.4h-1.25l-.62-2.05zm-3.07-.97h2.672l-1.307-4.09h-.057l-1.308 4.09zM117.8 52h4.206v.968h-5.628V52l3.354-3.293c.682-.683 1.023-1.08 1.023-1.875 0-.97-.625-1.54-1.535-1.54-.966 0-1.648.57-1.648 1.64h-1.25c0-1.65 1.25-2.67 2.84-2.67 1.593 0 2.674.962 2.674 2.5 0 1.08-.626 1.87-1.308 2.552l-2.73 2.67m8.87 1.136c-2.33 0-2.956-1.874-2.956-4.43 0-2.556.625-4.43 2.956-4.43 2.33 0 2.956 1.874 2.956 4.43 0 2.556-.625 4.43-2.956 4.43zm1.706-2.726v-3.29c0-1.08-.74-1.82-1.706-1.82-1.023 0-1.706.624-1.706 1.82v3.29c0 1.08.74 1.818 1.706 1.818.967-.05 1.706-.68 1.706-1.81zm3.296 1.59h2.218V46.5h-2.217v-.966h2.22v-.965h1.08v7.44h1.99v.97h-5.28v-.97m7.11-2.73l.34-4.77h4.89v.96h-3.86l-.22 2.61c.4-.57 1.08-.86 1.82-.86 1.65 0 2.73 1.19 2.73 2.89 0 1.81-1.19 2.95-2.95 2.95-1.7 0-2.73-.91-2.9-2.56h1.2c.12 1.02.74 1.53 1.71 1.53 1.03 0 1.71-.57 1.71-1.42V49.6c0-.91-.68-1.364-1.7-1.364-.74 0-1.3.34-1.59 1.02h-1.14M56.63 33.1c0 3.01-1.82 4.09-4.49 4.09h-6.03V23.17h5.97c2.558 0 4.263.966 4.263 3.58 0 1.59-.85 2.668-2.16 3.18 1.48.454 2.447 1.533 2.447 3.18zm-7.9-7.667v3.35h3.636c.91 0 1.196-.397 1.196-1.25V26.47c0-.738-.34-1.08-1.2-1.08h-3.64v.058zm5.06 6.815c0-.85-.4-1.19-1.25-1.19h-3.87v3.86h3.81c.91 0 1.308-.34 1.308-1.25v-1.42zm5.74-9.088h9.665v2.273h-6.93V28.9h6.08v2.272h-6.08v3.805h6.93v2.273h-9.66V23.17m14.836 3.52c0 1.08.69 1.59 1.99 1.93l2.39.628c2.39.63 3.64 1.82 3.64 4.15 0 2.62-2.21 4.15-5.45 4.15-3.12 0-5.45-1.25-5.74-4.48h2.68c.23 1.65 1.31 2.27 2.96 2.27 1.59 0 2.73-.68 2.73-1.93 0-.96-.62-1.53-1.88-1.87l-2.73-.74c-2.28-.62-3.36-1.99-3.36-4.09 0-2.27 1.99-3.86 5.12-3.86 2.9 0 4.95 1.31 5.23 4.2h-2.67c-.11-1.59-1.31-1.98-2.61-1.98-1.42 0-2.27.68-2.27 1.65m9.21-3.52h10.9v2.27h-4.1v11.75h-2.68V25.45h-4.1v-2.27h-.05m28.2 9.94c0 3.01-1.82 4.09-4.49 4.09h-6.08V23.18h5.97c2.56 0 4.27.964 4.27 3.58 0 1.59-.85 2.666-2.16 3.18 1.54.452 2.51 1.53 2.51 3.18zm-7.96-7.67v3.35h3.64c.91 0 1.19-.396 1.19-1.25v-1.08c0-.738-.34-1.08-1.19-1.08h-3.64v.058zm5.18 6.816c0-.85-.4-1.19-1.25-1.19h-3.864v3.86h3.81c.91 0 1.308-.34 1.308-1.25v-1.42zm8.36-.45v5.455h-2.672V23.18h5.743c2.955 0 4.433 1.363 4.433 4.316 0 2.218-1.08 3.58-3.02 4.09l3.24 5.626h-2.96l-2.96-5.395h-1.82zm3.468-2.213c.91 0 1.25-.454 1.25-1.363v-1.42c0-.967-.34-1.31-1.25-1.31h-3.353v4.205h3.353V29.6zm6.994-6.42h2.673v14.03h-2.675V23.18zm4.776 0h10.91v2.27h-4.094v11.76h-2.67V25.45h-4.09v-2.27h-.05m13.02 0h2.68v14.03h-2.68V23.18zm8.42 3.52c0 1.08.68 1.59 1.99 1.93l2.39.626c2.39.63 3.64 1.82 3.64 4.15 0 2.613-2.21 4.147-5.45 4.147-3.13 0-5.46-1.25-5.74-4.49h2.68c.23 1.648 1.31 2.27 2.95 2.27 1.59 0 2.73-.68 2.73-1.93 0-.965-.62-1.533-1.87-1.874l-2.73-.74c-2.27-.63-3.35-1.99-3.35-4.09 0-2.27 1.99-3.86 5.12-3.86 2.9 0 4.95 1.3 5.23 4.2h-2.67c-.11-1.59-1.31-1.99-2.614-1.99-1.36 0-2.27.68-2.27 1.64m18.99 4.48h-5.57v6.08h-2.67V23.17h2.67v5.793h5.58v-5.8h2.67V37.2h-2.67v-6.02" fill="#333"/>
  </symbol>
  <symbol id="facebook" viewBox="0 0 32 32">
    <path fill-rule="evenodd" clip-rule="evenodd" d="M19.4 16h-2.2v8h-3.3v-8h-1.6v-2.8h1.6v-1.8c0-1.3.6-3.4 3.4-3.4h2.5v2.7H18c-.3 0-.7.1-.7.8v1.7h2.5l-.4 2.8zM0 32h32V0H0v32z"/>
  </symbol>
  <symbol id="linkedin" viewBox="0 0 32 32">
    <path fill-rule="evenodd" clip-rule="evenodd" d="M24 23.6h-3.4v-5.5c0-1.4-.5-2.3-1.7-2.3-.9 0-1.5.6-1.8 1.3-.1.2-.1.5-.1.8v5.8h-3.4V13.4H17v1.5c.5-.7 1.3-1.7 3.1-1.7 2.3 0 3.9 1.5 3.9 4.6v5.8zM9.9 11.9c-1.2 0-1.9-.8-1.9-1.8s.8-1.8 1.9-1.8c1.2 0 1.9.8 1.9 1.8.1 1-.7 1.8-1.9 1.8zm-1.7 1.4h3.4v10.3H8.2V13.3zM0 32h32V0H0v32z"/>
  </symbol>
  <symbol id="twitter" viewBox="0 0 32 32">
    <path fill-rule="evenodd" clip-rule="evenodd" d="M22.4 12.7v.4c0 4.3-3.3 9.3-9.3 9.3-1.9 0-3.6-.5-5-1.5h.8c1.5 0 3-.5 4.1-1.4-1.4 0-2.6-1-3.1-2.3.2 0 .4.1.6.1.3 0 .6 0 .9-.1-1.5-.3-2.6-1.6-2.6-3.2.4.2.9.4 1.5.4-.9-.6-1.5-1.6-1.5-2.7 0-.6.2-1.2.4-1.7 1.6 2 4 3.3 6.8 3.4-.1-.2-.1-.5-.1-.7 0-1.8 1.5-3.3 3.3-3.3.9 0 1.8.4 2.4 1 .7-.1 1.4-.4 2.1-.8-.2.8-.8 1.4-1.4 1.8.7-.1 1.3-.3 1.9-.5-.6.8-1.2 1.4-1.8 1.8zM0 32h32V0H0v32z"/>
  </symbol>
  <symbol id="quotemark" viewBox="0 0 194 139">
    <path fill-rule="evenodd" d="M156 66.367l36-66h-33l-37.5 66v72h72v-72H156zm-121.5 0l36-66h-33l-37.5 66v72h72v-72H34.5z" />
  </symbol>
  <symbol id="dicelogo" viewBox="0 0 181 181">
    <path d="M160.506 70.16c-2.886.486-18.48 3.115-21.778 3.627-3.637.564-4.703 5.24-4.703 5.24l13.358-2.375s8.91-1.49 11.468-1.91c2.56-.422.46 3.355.46 3.355s-7.16 2.063-10.09 2.913c-2.93.85-11.74 3.593-15.48 4.88-3.73 1.29-3.61 1.902-5.75 4.52-2.14 2.62-2.47 5.046-2.35 5.545.12.5 4.78-.594 8.74-1.41 3.96-.814 10.59-2.55 10.59-2.55 4.17-1.08 12.21-2.868 12.52-2.89.31-.02.8-.175 1.61.795s-.35 3.978-.35 3.978c-.43-.493-2.47-.29-2.47-.29-2.532.203-7.03 2.083-10.81 3.657-3.78 1.574-10.652 3.308-12.603 3.87-1.95.562-5.186 1.99-7.373 2.954-2.186.96-3.975 2.13-3.975 2.13-1.713 2.06-5.04 3.87-5.04 3.87s-5.444-5.83-5.94-6.63c-.494-.8 1.59-1.73 3.074-2.57 1.483-.85 1.65-1.06 2.262-1.84.616-.78 1.8-3.82 2.54-5.34.735-1.52 1.824-4.28 1.96-4.93.13-.64-.49-4.55-.34-5.59.15-1.044 4.426-1.86 4.426-1.86l3.2-4.22-2.97-1.735s-.423-1.32-.884-3.085c-.46-1.764.596-2.033.596-2.033.415-.4 1.34-.665 2.057-.85.72-.186 9.54-1.265 11.498-1.477 1.45-.155 12.63-1.223 18.56-1.79L90.345 0 0 90.347l29.718 29.718L44.016 88.64c-1.778-2.334-15.365 7.592-16.745 8.524-1.38.93-1.23 1.335-1.23 1.335 1.13 2.39 2.83 1.29 2.83 1.29.56 4.9-5.22 1.44-5.22 1.44-3.05-4.25-4.54-4.13 3.44-10.68s17.69-9.04 18.61-9.42c.93-.38 1.71-.9 1.71-.9s1.19-3.34 1.537-4.2c.346-.86.63-1.36 1.384-1.15.753.21 2.61 2.99 3.527 3.45.918.46 9.23-.19 10.52-.2 1.29-.01 2.11.03 2.838.77.73.74 4.12 3.567 6.16 8.205 2.04 4.635-6.32 13.883-11.79 19.38-5.47 5.496-22.79 15.973-24.13 16.695-1.28.69-1.75 1.52-2.185 2.38l55.1 55.11 90.34-90.34-20.19-20.19zm-89.418 51.756s-4.07-.604-2.865-5.788c1.204-5.184 4.545-19.458 10.422-32.798 5.877-13.34 5.537-11.835 6.652-12.518 1.116-.683 1.706-1.385 2.627-.12.92 1.267 2.357 4.682 2.678 4.79.32.107-.596 1.07-.596 1.07s-2.607 4.827-3.152 5.883c-.546 1.055-7.048 13.596-10.323 25.168-3.27 11.572-5.44 14.313-5.44 14.313zm15.27-17c-2.703-3.21-.852-9.128-.852-9.128 8.772-18.713 20.968-24.28 22.708-25.498 1.74-1.217 3.222-.284 3.222-.284 4.586 3.873 2.985 6.03 1.51 6.843-1.473.81 1.606-1.36-7.1 3.25-8.708 4.61-14.83 16.32-15.353 19.01-.525 2.69-.52 3.36 1.76 3.08 2.284-.28 13.4-6.92 15.41-7.73 2.01-.82 2.963 1.86 3.767 1.59.805-.28 7.63-5.28 7.63-5.28-7.212 8.36-21.817 15.28-25.034 16.64-3.217 1.36-4.966.7-7.67-2.51zm-17.69-19.574c-.408-1.26-1.68-1.377-1.68-1.377-2.66-.762-10.714-.076-11.643.058-.93.133-2.818 1.465-3.646 2.078-.83.62-2.67 5.14-2.67 5.14l-9.79 24.12 7.7-4.59c11.78-7.91 19.2-17.47 21.02-20.05 1.82-2.58 1.1-4.11.69-5.37z" fill-rule="evenodd" />
  </symbol>
  <symbol id="search" viewBox="0 0 300 300">
    <path d="M261.3,38.6c-49-49-128.6-49-177.6,0C60.1,62.3,47,93.9,47,127.4c0,29.6,10.1,57.5,28.8,80L1.9,281.3l16.8,16.8l73.9-73.9 c23.1,19.2,51.6,28.7,80,28.7c32.2,0,64.3-12.2,88.8-36.7c23.7-23.7,36.8-55.2,36.8-88.8S285,62.3,261.3,38.6z M244.6,199.4 c-39.7,39.7-104.3,39.7-144.1,0c-19.2-19.2-29.8-44.8-29.8-72c0-27.2,10.6-52.8,29.8-72c19.9-19.9,45.9-29.8,72-29.8 c26.1,0,52.2,9.9,72,29.8c19.2,19.2,29.8,44.8,29.8,72C274.4,154.6,263.8,180.2,244.6,199.4z" />
  </symbol>
  <symbol id="locationpin" viewBox="-195 151 208 300">
    <path d="M-91 304.5c-28.4 0-51.4-23.1-51.4-51.6s23-51.6 51.4-51.6 51.4 23.1 51.4 51.6-23 51.6-51.4 51.6zm0-150.5c-56.4 0-102 45.9-102 102.4C-193 340.7-91 448-91 448S11 340.7 11 256.4C11 199.9-34.7 154-91 154z"/>
  </symbol>
</svg>
