<svg xmlns="http://www.w3.org/2000/svg" xmlns:xlink="http://www.w3.org/1999/xlink" version="1.1">
  <symbol id="menuopen" viewBox="0 0 31 30">
    <title>Open menu</title>
    <path d="M8.594 8.015l-6.73.013c-.47 0-.85.407-.852.908 0 .5.38.906.85.905l5.198-.01c.104.28.22.58.344.91l-5.545.01c-.47 0-.86.41-.86.91s.38.91.85.91l6.24-.01.345.9-6.596.01c-.47 0-.85.41-.85.91s.38.906.846.905l8.99-.016c1.338-.004 2.457-.95 2.837-2.243L29.313 13c.59 0 .946-.698.63-1.227l-.716-1.19c-.14-.225-.375-.362-.63-.362l-14.93.03C13.305 8.946 12.19 8 10.855 8l-2.26.005v.01M29.32 23.55c.532 0 .895-.578.69-1.1l-1.565-2.505c-.824-1.352-2.83-1.947-4.03-1.945l-9.136.022c-1.35.002-2.53.967-2.88 2.354l-.11.43-10.55.018c-.59 0-.95.696-.63 1.224l.72 1.19c.13.226.37.363.62.362l26.86-.05" fill-rule="evenodd"/>
  </symbol>
  <symbol id="ustwologo" viewBox="0 0 83 32">
    <title>ustwo logo</title>
    <path d="M30.074 8.777c-.554-.368-1.372-.81-1.584-.89-.89-.342-1.538-.234-2.153.194-.355.23-.707.61-1.127 1.1l-9.577 10.63.984-3.72 1.757-4.98h-.014l.01-.02c.515-1.62.13-1.94-1.357-2.96L16.857 8c-.988-.673-1.468-.305-1.81.707l-.798 1.695-8.37 7.324 2.43-6.94c.24-.766.19-1.167-.53-1.67L6.11 7.97c-.62-.424-1.14-.35-1.833.04L2.23 9.19c-.634.357-.785.72-.265 1.08l1.998 1.368-3.317 9.748c-.243.77-.248 1.318.295 1.692l1.9 1.294v.002c.77.526 1.02.295 1.44-.11l7.95-7.43L11 20.057v.004c-.755 2.36-.626 2.61.973 3.71.204.14 1.1.79 1.317.85.776.22 1.263-.2 1.933-1.02l11.23-12.82-.072 10.01-1.69-.73c-.62-.27-1.36-.58-1.38.44v1.71c0 .76.41 1.66 1.25 2l1.13.48c.89.39 1.3.49 2.19 0 .06-.03 1.89-1.08 1.93-1.1.86-.48 1.06-.91 1.11-1.61l.02-.87.1-10.02c0-1.33-.33-1.87-.95-2.28zm49.733-.866c-.892 0-1.498.43-1.498.43l-1.55.93c-.64.36-.79.72-.27 1.08l2 1.37c.18.16.14 2.21-.46 4.09-.66 2.07-1.25 2.9-2.41 4.34-.96 1.19-2.72 2.46-3.95 1.82-1.2-.63-.86-2.91.51-6.18.56-1.35 1.41-2.72 2.08-4.06.45-1.36.39-1.837-.58-2.585L72.31 8.1c-.95-.626-2.24-.563-3.31.516l-8.96 9.47 1.51-4.93.408-1.034c.515-1.624-.04-1.94-1.527-2.96l-.15-.11c-.984-.67-1.47-.3-1.81.708l-8.43 7.95 2.188-6.712c.427-1.32-.66-2.036-1.903-2.89-1.242-.852-1.863-.307-2.89.9l-9.568 10.8L41.59 8.12c.377-1.186.134-1.606-.538-2.098l-1.447-.785H63.44c.544-.003.61-.327.326-.89l-.898-1.837c-.31-.616-.648-.93-1.293-.93H16.15c-.543.004-.608.336-.327.9l.9 1.838c.31.616.648.92 1.292.92h19.917l-4.71 14.807c-.752 2.36-.623 2.61.976 3.71 1.6 1.1 2.01 1.353 3.25-.174l10.845-12.63L44.84 21.3c-.33 1.12-.24 1.526.28 1.88l1.63 1.115c.69.47.99.57 1.87-.26l8.57-8.21-2.203 5.48c-.442 1.4-.253 1.58 1 2.44l.787.54c.75.49 1.25.61 1.983-.23l11.1-12.035c-.65 1.258-1.42 2.5-1.86 3.85-1.036 3.127-1.38 8.01 2.792 8.873.56.117 1.1.213 1.68.193 5.95-.21 9.18-6.26 9.86-11.06.43-3.05-.21-4.39-.9-5.2-.47-.552-.83-.746-1.62-.746z" fill-rule="evenodd"/>
  </symbol>
  <symbol id="HarveyShape1" viewBox="0 0 419 456">
    <path d="M419.4 100.602s0-.2.2-.2v-1.8s0-.2-.2-.2c0 0 0-.2-.198-.2 0 0 0-.2-.2-.2l-.2-.2-.2-.2-.2-.198-.198-.2h-.2s-.2 0-.2-.2H270l-57.8-96v-.2s0-.2-.2-.2c0 0 0-.2-.2-.2 0 0-.2 0-.2-.2l-.2-.2h-3.598s-.2 0-.2.2c0 0-.2 0-.2.2 0 0 0 .2-.198.2 0 0 0 .2-.2.2v.2l-57.6 96H1.802c-.2 0-.2 0-.2.2h-.2l-.2.2-.2.198-.2.2-.2.2-.2.2s0 .2-.198.2c0 0 0 .2-.2.2v1.798c0 .2 0 .2.2.4v.2l73.4 124.8-49.6 83.8v2.998s0 .2.2.2l.197.198s0 .2.2.2l.2.2.205.203h.2c.198 0 .398.195.398.195h99.2l82.4 141.6c0 .2.2.4.4.4l.2.2c.2.2.4.2.6.4.2 0 .4.2.6.2h2c.2 0 .4-.2.6-.2.2-.2.4-.2.604-.4l.198-.2c.202-.2.202-.2.4-.4l82-141.6h99.6c.2 0 .4-.2.4-.2h.2l.2-.2.2-.2s0-.198.2-.198l.2-.2s0-.2.2-.2V309.6L346.4 225.8l73.003-125.2c0 .2 0 0 0 0zm-102 161.8L215.202 102.2H411.6l-94.2 160.2zm-27 46.6c-.198.2-.398.398-.398.8l-80.2 138.2-103-176.8h205.6L290.4 309zM8 102.202h196.4L102.202 262.4l-94.2-160.2zM206.8 208l-96.2 52 96.2-150.6V208zm3 5.2l96 52h-192l96-52zm3-5.2v-98.6L309 260l-96.2-52zm0-195.6l50.4 83.8h-50.4V12.4zm-6 84h-50.4l50.4-84v84zM98 267.002l-63.4 35.8L77 231.2 98 267zm-60.4 40.8l63-35.6 20.602 35.6h-83.6zm281-35.6l63.4 35.8h-84l20.6-35.8zm66.4 30.6L321.6 267l21-35.8 42.4 71.6z"/>
  </symbol>
  <symbol id="HarveyShape2" viewBox="0 0 400 413">
    <path d="M400.1 217c0-.2 0-.2 0 0v-.6l-21-111.2v-.2c0-.2 0-.2-.2-.4v-.4s0-.2-.2-.2l-.2-.2-.2-.2h-.2l-86.6-77.2s-.2 0-.2-.2c-.2 0-.2-.2-.4-.2h-.4L204.5.2c-.2 0-.4 0-.6-.2h-1.2L94.5 33.2s-.2 0-.2.2h-.2s-.2 0-.2.2c0 0-.2 0-.2.2l-.2.2-.2.2-71.4 86.4-.2.2-.2.2v.2c0 .2 0 .2-.2.4L-.1 215.4v1.6l36.8 101.2c0 .2.2.2.2.4s.2.2.2.4c0 0 0 .2.2.2l74.4 74.2.2.2h.2c.2 0 .2.2.4.2h.4l89.2 19h1.2L305.5 385h.2s.2 0 .2-.2c0 0 .2 0 .2-.2 0 0 .2 0 .2-.2h.2l.2-.2.2-.2 73.6-78.4c.2-.2.2-.2.2-.4s.2-.4.2-.4v-.4l18-87.4v-.2c1.2.4 1.2.4 1.2.2zM228.7 395l-83.8-54.4 112.4-13.8 76.6 6.6L228.7 395zM162.1 28.4l85 66.2-118.2 17.6-73.8-12.8 107-71zm90.2 293l-111 13.6 53.4-110.2 124-1-66.4 97.6zM130.5 118l118.6-17.6-58 118.4-123.8-2.2 63.2-98.6zm67.2 100.8L255.9 100l96.6 20.6-30.2 97.2-124.6 1zM48.1 104.2l75.8 13.2-63.4 99-53.6-3 40.2-108.2 1-1zm16.4 118.4l123.8 2.2-53.6 110.4-85.6-22.6 15.4-90zM259.7 321l66.2-97.6 66.4-3.4-50.8 108-81.8-7zm68.8-103.4l30.4-97.2 15.2-9.6 19.6 103.6-65.2 3.2zm27.2-102.4l-97-20.6 31.6-61.2 81 72.2-15.6 9.6zM253.3 92l-85.6-67 36-19.4 81.6 24.6-32 61.8zm-92.4-70c-.2 0-.2.2 0 0l-.2.2L59.9 89l37.2-50.4 77.8-24-14 7.4zm-134 102l10.6-9.8-21.8 58.6L26.9 124zm31.6 98.4l-15.6 90.2-1.8.8-34.2-94 51.6 3zm-12.6 95.4l86.4 22.8-19.4 45.8-68.2-68 1.2-.6zm91.8 25.2l86 55.8-20.8 8.6-84.8-18 19.6-46.4zm95.4 56.4l99.2-58.4-28.8 39.2-70.4 19.2zm112.4-66l7.8-6-16.2 17.4 8.4-11.4zm30.8-30.6l-25.2 19 38-81-12.8 62z"/>
  </symbol>
  <symbol id="HarveyShape3" viewBox="0 0 324 378">
    <path d="M323.8 375.2c0-.2 0-.2 0 0l-3-228.4v-1.4s0-.2-.2-.2v-.2L233.8 18.6l-.2-.2-.2-.2-.2-.2h-.4l-.2-.2h-.4s-.2 0-.2-.2h-.6L3 0H1.4s-.2 0-.2.2c0 0-.2 0-.2.2C1 .4.8.4.8.6L.6.8.4 1v.2s0 .2-.2.2c0 0 0 .2-.2.2v1.2l3.6 202.6v1.4l88.6 150c.2.2.2.4.4.4l.2.2.4.4h.2s.2 0 .4.2h1l225.6 19.8h1.4s.2 0 .2-.2c.2 0 .2-.2.4-.2 0 0 .2 0 .2-.2 0 0 .2-.2.2-.4l.2-.2v-1c.8-.2.8-.4.8-.4zM170.4 263.6L12 204.2 142.4 74.4l28 189.2zM148.2 73l164.2 74.4-136.2 114.8-28-189.2zM315 153l2.8 216.2-139-101.4L315 153zM151.2 67.8l79-43.6 79.4 115.4-158.4-71.8zm-6.8-3L19 7.2l201.8 15.2-76.4 42.4zm-5 4.2L9.4 198.2 5.8 7.6 139.4 69zM169 269.2l-73.2 81-82.2-139.4L169 269.2zm5.4 2.8l136 99.2-209.2-18.4 73.2-80.8z"/>
  </symbol>
  <symbol id="HarveyShape4" viewBox="0 0 309 440">
    <path fill="FF0" d="M309.15 272.38L158.4 1.4s0-.2-.2-.2L158 1l-.2-.2-.2-.2-.2-.2-.2-.2s-.2 0-.2-.2h-3.4s-.2 0-.2.2c0 0-.2 0-.2.2l-.2.2-.2.2-.2.2-.2.2s0 .2-.2.2L.2 271s0 .2-.2.2v1.4l16.8 51.8c0 .2.2.4.2.6l52.2 87.4c.2.2.2.4.4.6l.2.2.2.2 26.4 19.8h.2c.2.2.4.2.6.2 0 0 .2 0 .2.2.2 0 .6.2.8.2h110.2s.6 0 .8-.2c0 0 .2 0 .2-.2.2 0 .4-.2.4-.2.4-.2.8-.4 1.2-.8l25.6-19 .2-.2.2-.2c.2-.2.2-.4.4-.6l52.8-87c.2-.2.2-.4.2-.6m-4-1L234.2 410l-16.4 12.2 38.6-79.2 41.8-54-11.8 34.8zM75 409.6L23.4 323 12 288.2l41.4 54.2 38 79.6L75 409.6zm178-72.2L158 278l.8-263.6 144 258.8-49.8 64.2zm-101-59.6l-95.4 59-49.4-64.6 145.4-258-.6 263.6zm-50.8 150.6l-41.4-86.6L155 283l94.8 59.4-42 86H101.2z"/>
  </symbol>
  <symbol id="MonumentAward1" viewBox="0 0 330 118">
    <path d="M300.2 3.2c3.3 4.1 6.7 8 10 12-1.7 4.9-3.6 9.8-5.3 14.7-3.3-4-6.8-7.9-9.9-12 1.5-4.9 3.5-9.7 5.2-14.7zM279 21.3c5-1 10.1-1.7 15-2.8 3.4 4 6.7 8.1 10.1 12.1-5.1.7-10.2 1.7-15.2 2.6-3.4-3.8-6.5-7.9-10-11.7v-.2zm28.3 14.6c3.4-3.9 6.6-8 10-11.9 1.6 4.9 3.4 9.8 5.2 14.7-3.3 3.9-6.7 7.9-9.9 11.9-1.8-4.8-3.4-9.8-5.3-14.7zm-16.1-2.3c5 .8 10 1.9 15 2.6 2.2 4.9 3.5 10 5.6 14.9-5.1-1.2-10.3-1.8-15.4-2.9-1.7-4.9-3.5-9.7-5.2-14.6zm7.2 16c4.7 2.2 9 5.1 13.5 7.7-.1 5.2-.1 10.4 0 15.6-4.4-2.8-9.1-5.2-13.5-8.1.2-5.1.1-10.2 0-15.2zm14.5 7.6c4.4-2.7 9-5.2 13.4-7.9V65c-4.5 2.6-9.1 5.1-13.5 7.9.2-5.2.1-10.5.1-15.7zm-18.1 24.3c1.9-4.9 3.5-9.8 5.3-14.6 3.4 3.9 6.6 8 10 11.9-1.9 4.8-3.5 9.8-5.4 14.6-3.3-4.1-6.6-8-9.9-11.9zm16.3-2.5c5.1-.6 15-2.1 14.9-2.2-1.6 4.7-3.4 9.4-5.1 14.2-5.1 1.1-10.3 1.8-15.4 2.9 2.1-4.9 3.7-10 5.6-14.9zm-25.4 16.7c3.4-3.9 6.6-8 10-11.9 1.9 4.8 3.5 9.7 5.4 14.6-3.4 3.9-6.6 8-10 11.9-1.7-4.9-3.5-9.8-5.4-14.6zm16.1 3.2c5.1.9 10.2 1.9 15.3 2.7-3.4 3.9-6.7 7.9-10 11.9h-.6c-4.9-.9-9.8-1.8-14.8-2.6 3.5-3.9 6.8-7.9 10.1-12zM30.3 3.2c-3.3 4.1-6.7 8-10 12 1.7 4.9 3.6 9.8 5.3 14.7 3.3-4 6.8-7.9 9.9-12C33.9 13 32 8.2 30.3 3.2zm21.2 18.1c-5-1-10.1-1.7-15-2.8-3.4 4-6.7 8.1-10.1 12.1 5.1.7 10.2 1.7 15.2 2.6 3.4-3.8 6.5-7.9 10-11.7v-.2zM23.1 35.9c-3.4-3.9-6.6-8-10-11.9-1.6 4.9-3.4 9.8-5.2 14.7 3.3 3.9 6.7 7.9 9.9 11.9 1.8-4.8 3.5-9.8 5.3-14.7zm16.2-2.3c-5 .8-10 1.9-15 2.6-2.2 4.9-3.5 10-5.6 14.9 5.1-1.2 10.3-1.8 15.4-2.9 1.7-4.9 3.5-9.7 5.2-14.6zm-7.2 16c-4.7 2.2-9 5.1-13.5 7.7.1 5.2.1 10.4 0 15.6 4.4-2.8 9.1-5.2 13.5-8.1-.2-5.1-.2-10.2 0-15.2zm-14.6 7.6c-4.4-2.7-9-5.2-13.4-7.9V65c4.5 2.6 9.1 5.1 13.5 7.9-.1-5.2-.1-10.5-.1-15.7zm18.2 24.3c-1.9-4.9-3.5-9.8-5.3-14.6-3.4 3.9-6.6 8-10 11.9 1.9 4.8 3.5 9.8 5.4 14.6 3.2-4.1 6.6-8 9.9-11.9zM19.4 79c-5.1-.6-15-2.1-14.9-2.2 1.6 4.7 3.4 9.4 5.1 14.2 5.1 1.1 10.3 1.8 15.4 2.9-2.2-4.9-3.7-10-5.6-14.9zm25.3 16.7c-3.4-3.9-6.6-8-10-11.9-1.9 4.8-3.5 9.7-5.4 14.6 3.4 3.9 6.6 8 10 11.9 1.8-4.9 3.6-9.8 5.4-14.6zm-16 3.2c-5.1.9-10.2 1.9-15.3 2.7 3.4 3.9 6.7 7.9 10 11.9h.6c4.9-.9 9.8-1.8 14.8-2.6-3.5-3.9-6.8-7.9-10.1-12z" fill="#F8F8F8"/>
    <path d="M118.1 31.6h6.1V33H116v-1.4l4.9-4.8c1-1 1.5-1.6 1.5-2.7 0-1.4-.9-2.2-2.2-2.2-1.4 0-2.4.8-2.4 2.4H116c0-2.4 1.8-3.9 4.1-3.9s3.9 1.4 3.9 3.6c0 1.6-.9 2.7-1.9 3.7l-4 3.9zm12.8 1.7c-3.4 0-4.3-2.7-4.3-6.4s.9-6.4 4.3-6.4 4.3 2.7 4.3 6.4-.9 6.4-4.3 6.4zm2.5-4v-4.8c0-1.6-1.1-2.6-2.5-2.6-1.5 0-2.5.9-2.5 2.6v4.8c0 1.6 1.1 2.6 2.5 2.6 1.4-.1 2.5-1 2.5-2.6zm4.8 2.3h3.2v-8h-3.2v-1.4h3.2v-1.4h1.6v10.8h2.9V33h-7.7v-1.4zm15.2 1.4v-3H148v-1.4l5.4-7.9h1.6v7.9h1.8V30H155v3h-1.6zm-3.7-4.4h3.8v-5.5l-3.8 5.5zM170 30h-4.8l-1 3h-1.8l4.2-12.2h1.9l4.2 12.2H171l-1-3zm-4.3-1.4h3.9l-1.9-5.9h-.1l-1.9 5.9zm11-.3V33H175V20.8h4.6c1.5 0 2.3.3 3 .9.6.6.9 1.7.9 2.8 0 1.1-.3 2.2-1 2.9-.7.7-1.6 1-2.8 1h-3zm3.6-1.5c.8 0 1.4-.6 1.4-1.4v-1.8c0-.8-.5-1.3-1.4-1.3h-3.6v4.5h3.6zm7.2 1.5V33h-1.7V20.8h4.6c1.5 0 2.3.3 3 .9.6.6.9 1.7.9 2.8 0 1.1-.3 2.2-1 2.9-.7.7-1.6 1-2.8 1h-3zm3.6-1.5c.8 0 1.4-.6 1.4-1.4v-1.8c0-.8-.5-1.3-1.4-1.3h-3.6v4.5h3.6zm5.6-6h1.7v10.7h5.5V33h-7.3V20.8zm9.2 0h8.1v1.5h-6.4V26h5.6v1.5h-5.6v3.9h6.4V33h-8.1V20.8zm-116.8 22H93v20.4h-3.9V42.8zM102 55.9v7.3h-3.9V42.8h8.3c4.3 0 6.4 2 6.4 6.5 0 4.3-2.5 6.5-6.4 6.5H102zm4.8-3.3c1.4 0 1.9-.7 1.9-2V48c0-1.4-.5-1.9-1.9-1.9H102v6.5h4.8zm18.9 6.2h-7l-1.3 4.3h-4.2l7-20.4h4.1l6.9 20.4H127l-1.3-4.3zm-3.5-11.3l-2.5 8h4.9l-2.4-8zm19.1-4.7c6.4 0 9.1 3.4 9.1 10.2s-2.6 10.2-9.1 10.2h-6.9V42.8h6.9zm-3 3.3v13.8h3c3.2 0 5-1.3 5-4V50c0-2.7-1.8-4-5-4h-3zm22.8 6.9c0-6.5 2.9-10.7 8.9-10.7 4.3 0 7.4 2.5 7.7 6.5h-3.9c-.2-2.2-1.6-3.2-4-3.2-2.6 0-4.4 1.6-4.4 4.2V56c0 2.5 2 4.3 4.5 4.3 2.6 0 4.4-1.3 4.4-4.1v-.9h-4.2V52h8.1v11.1h-3.6l-.1-1.9c-1 1.5-2.7 2.3-4.9 2.3-5.8.1-8.5-4.3-8.5-10.5zm31.9 5.8h-7l-1.3 4.3h-4.2l7-20.4h4.1l6.9 20.4h-4.2l-1.3-4.3zm-3.4-11.3l-2.5 8h4.9l-2.4-8zm22.6 11.3l3.9-16h6.4v20.4h-3.8V47h-.1l-4.2 16.2h-4.6L205.6 47h-.1v16.2h-3.7V42.8h6.4l4 16zm15.3-16h14v3.3h-10.1v5h8.8v3.3h-8.8v5.5h10.1v3.3h-14V42.8zM84.8 95.6c-5.8 0-9.1-3.7-9.1-10.6 0-7 3.3-10.6 9.1-10.6S93.9 78 93.9 85c0 6.9-3.3 10.6-9.1 10.6zm4.9-7.5v-6.3c0-2.7-2.2-4.2-4.9-4.2s-4.9 1.5-4.9 4.2v6.3c0 2.7 2.2 4.2 4.9 4.2s4.9-1.5 4.9-4.2zm8.4-13.3h13v3.3H102v5h8.4v3.3H102v8.8h-3.9V74.8zm20.9 0h15.8v3.3h-5.9v17.1H125V78.1h-6v-3.3zm30.9 11.7h-8.1v8.7h-3.9V74.8h3.9v8.4h8.1v-8.4h3.9v20.4h-3.9v-8.7zm8.9-11.7h14v3.3h-10.1v5h8.8v3.3h-8.8v5.5h10.1v3.3h-14V74.8zm22.6 0h4.4l4.4 8.5 4.4-8.5h4.3l-6.8 12.4v8h-3.9v-8l-6.8-12.4zm20.4 0h14v3.3h-10.1v5h8.8v3.3h-8.8v5.5h10.1v3.3h-14V74.8zm28.8 16h-7l-1.3 4.3h-4.2l7-20.4h4.1l6.9 20.4h-4.2l-1.3-4.3zm-3.5-11.3l-2.5 8h4.9l-2.4-8zm16.1 7.9v7.8h-3.9V74.8h8.3c4.3 0 6.4 2 6.4 6.3 0 3.2-1.6 5.2-4.4 5.9l4.7 8.2H250l-4.3-7.8h-2.5zm4.9-3.3c1.3 0 1.8-.7 1.8-2V80c0-1.4-.5-1.9-1.8-1.9h-4.9v6.1h4.9z" fill="#333"/>
  </symbol>
  <symbol id="MonumentAward2" viewBox="0 0 400 200">
    <path d="M363.9 32.4c4 5 8.1 9.7 12.1 14.5-2.1 5.9-4.4 11.9-6.4 17.8-4-4.8-8.2-9.6-12-14.5 1.8-6 4.2-11.8 6.3-17.8zm-25.7 21.9c6.1-1.2 12.2-2.1 18.2-3.4 4.1 4.8 8.1 9.8 12.2 14.7-6.2.8-12.4 2.1-18.4 3.2-4.1-4.6-7.9-9.6-12.1-14.2v-.2h.1zM372.5 72c4.1-4.7 8-9.7 12.1-14.4 1.9 5.9 4.1 11.9 6.3 17.8-4 4.7-8.1 9.6-12 14.4-2.2-5.8-4.1-11.9-6.4-17.8zM353 69.2c6.1 1 12.1 2.3 18.2 3.2 2.7 5.9 4.2 12.1 6.8 18.1-6.2-1.5-12.5-2.2-18.7-3.5-2.1-6-4.3-11.8-6.3-17.8zm8.7 19.4c5.7 2.7 10.9 6.2 16.4 9.3-.1 6.3-.1 12.6 0 18.9-5.3-3.4-11-6.3-16.4-9.8.2-6.2.1-12.3 0-18.4zm17.6 9.2c5.3-3.3 10.9-6.3 16.2-9.6v19c-5.5 3.2-11 6.2-16.4 9.6.3-6.3.2-12.7.2-19zm-22 29.5c2.3-5.9 4.2-11.9 6.4-17.7 4.1 4.7 8 9.7 12.1 14.4-2.3 5.8-4.2 11.9-6.5 17.7-4-5-8-9.7-12-14.4zm19.8-3.1c6.2-.7 18.2-2.5 18.1-2.7-1.9 5.7-4.1 11.4-6.2 17.2-6.2 1.3-12.5 2.2-18.7 3.5 2.5-5.8 4.5-12 6.8-18zm-30.8 20.3c4.1-4.7 8-9.7 12.1-14.4 2.3 5.8 4.2 11.8 6.5 17.7-4.1 4.7-8 9.7-12.1 14.4-2-6-4.2-11.9-6.5-17.7zm19.5 3.9c6.2 1.1 12.4 2.3 18.5 3.3-4.1 4.7-8.1 9.6-12.1 14.4h-.7c-5.9-1.1-11.9-2.2-17.9-3.2 4.2-4.7 8.2-9.6 12.2-14.5zM36.7 32.4c-4 5-8.1 9.7-12.1 14.5 2.1 5.9 4.4 11.9 6.4 17.8 4-4.8 8.2-9.6 12-14.5-1.9-6-4.2-11.8-6.3-17.8zm25.7 21.9c-6.1-1.2-12.2-2.1-18.2-3.4-4.1 4.8-8.1 9.8-12.2 14.7 6.2.8 12.4 2.1 18.4 3.2 4.1-4.6 7.9-9.6 12.1-14.2v-.2h-.1zM28 72c-4.1-4.7-8-9.7-12.1-14.4-1.9 5.9-4.1 11.9-6.3 17.8 4 4.7 8.1 9.6 12 14.4C23.8 84 25.8 77.9 28 72zm19.6-2.8c-6.1 1-12.1 2.3-18.2 3.2-2.7 5.9-4.2 12.1-6.8 18.1 6.2-1.5 12.5-2.2 18.7-3.5 2.1-6 4.3-11.8 6.3-17.8zm-8.7 19.4c-5.7 2.7-10.9 6.2-16.4 9.3.1 6.3.1 12.6 0 18.9 5.3-3.4 11-6.3 16.4-9.8-.2-6.2-.2-12.3 0-18.4zm-17.7 9.2c-5.3-3.3-10.9-6.3-16.2-9.6v19c5.5 3.2 11 6.2 16.4 9.6-.2-6.3-.2-12.7-.2-19zm22.1 29.5c-2.3-5.9-4.2-11.9-6.4-17.7-4.1 4.7-8 9.7-12.1 14.4 2.3 5.8 4.2 11.9 6.5 17.7 3.9-5 8-9.7 12-14.4zm-19.8-3.1c-6.2-.7-18.2-2.5-18.1-2.7 1.9 5.7 4.1 11.4 6.2 17.2 6.2 1.3 12.5 2.2 18.7 3.5-2.7-5.8-4.5-12-6.8-18zm30.7 20.3c-4.1-4.7-8-9.7-12.1-14.4-2.3 5.8-4.2 11.8-6.5 17.7 4.1 4.7 8 9.7 12.1 14.4 2.1-6 4.3-11.9 6.5-17.7zm-19.4 3.9c-6.2 1.1-12.4 2.3-18.5 3.3 4.1 4.7 8.1 9.6 12.1 14.4h.7C35 165 41 163.9 47 162.9c-4.2-4.7-8.2-9.6-12.2-14.5z" fill="#F8F8F8"/>
    <path d="M127.9 98.5c4.5 0 6.4 2.4 6.4 7.4s-1.9 7.4-6.4 7.4H123V98.5h4.9zm-2.7 1.9v11.2h2.8c2.8 0 4.1-1.2 4.1-3.4v-4.4c0-2.2-1.3-3.4-4.1-3.4h-2.8zm12.5-1.9h9.8v1.8h-7.8v4.5h6.8v1.8h-6.8v4.7h7.8v1.9h-9.8V98.5zm14.7 3.7c0 1.5.7 1.9 2.4 2.4l2.4.6c2.5.7 4 1.8 4 4.2 0 2.7-2.5 4.2-5.6 4.2-3 0-5.6-1.5-5.8-4.6h2.1c.2 2.1 1.7 2.8 3.6 2.8 1.9 0 3.5-.8 3.5-2.4 0-1.2-.7-1.9-2.3-2.4l-2.9-.8c-2.4-.7-3.6-1.9-3.6-4.1s2.1-3.9 5.1-3.9c2.8 0 5.1 1.3 5.3 4.4h-2.1c-.1-1.9-1.7-2.5-3.3-2.5-1.7-.1-2.8.7-2.8 2.1zm11.8-3.7h2.1v14.8h-2.1V98.5zm11.7-.3c2.9 0 5.1 1.7 5.3 4.5h-2.1c-.2-1.7-1.5-2.8-3.5-2.8-2.2 0-3.8 1.5-3.8 3.6v4.6c0 2.1 1.7 3.6 3.9 3.6 2.3 0 3.6-1.2 3.6-3.6v-.8H176v-1.8h5.5v7.9h-1.9l-.1-1.6c-.7 1.1-1.9 1.9-3.8 1.9-3.8 0-5.9-2.9-5.9-7.6-.2-5 1.8-7.9 6.1-7.9zm18.2 12.7V98.5h2.1v14.8h-2.9L187 101h-.1v12.4h-2.1V98.5h2.9l6.4 12.4zm18.7-1.2H207l-1.2 3.6h-2.2l5.1-14.8h2.3l5.1 14.8h-2.2l-1.1-3.6zm-5.2-1.7h4.7l-2.3-7.2h-.1l-2.3 7.2zm22.8 3l3-12.5h2.2l-3.9 14.8H229l-2.8-11.9h-.1l-2.8 11.9h-2.5L217 98.5h2.2l2.9 12.5h.1l2.9-12.5h2.3l3 12.5zm15.2-1.3h-5.8l-1.2 3.6h-2.2l5.1-14.8h2.3l5.1 14.8h-2.2l-1.1-3.6zm-5.4-1.7h4.7l-2.3-7.2h-.1l-2.3 7.2zm13.4-.8v6.2h-2.1V98.5h5.6c1.6 0 2.8.4 3.5 1.1.7.7 1.1 1.8 1.1 3.2s-.4 2.4-1.1 3.2c-.6.6-1.3 1-2.4 1.1l3.6 6.3h-2.4l-3.5-6.3h-2.3v.1zm4.3-1.9c1.1 0 1.7-.7 1.7-1.7v-1.7c0-1-.6-1.6-1.7-1.6h-4.2v5h4.2zm12-6.8c4.5 0 6.4 2.4 6.4 7.4s-1.9 7.4-6.4 7.4h-4.8V98.5h4.8zm-2.7 1.9v11.2h2.8c2.8 0 4.1-1.2 4.1-3.4v-4.4c0-2.2-1.3-3.4-4.1-3.4h-2.8zm-124.3 36.8l3-12.5h2.2l-3.9 14.8h-2.5l-2.8-11.9h-.1l-2.8 11.9h-2.5l-3.9-14.8h2.2l2.9 12.5h.1l2.9-12.5h2.3l2.9 12.5zm8.1-12.5h2.1v14.8H151v-14.8zm15.3 12.4v-12.4h2.1v14.8h-2.9l-6.2-12.4h-.1v12.4h-2.1v-14.8h2.9l6.3 12.4zm15.2 0v-12.4h2.1v14.8h-2.9l-6.2-12.4h-.1v12.4h-2.1v-14.8h2.9l6.3 12.4zm5.9-12.4h9.8v1.8h-7.8v4.5h6.8v1.8h-6.8v4.7h7.8v1.8h-9.8v-14.6zm15.3 8.6v6.3h-2.1v-14.9h5.6c1.6 0 2.8.4 3.5 1.1.7.7 1.1 1.8 1.1 3.2 0 1.3-.4 2.4-1.1 3.2-.6.6-1.3 1-2.4 1.1l3.6 6.3h-2.4l-3.5-6.3h-2.3zm4.2-1.8c1.1 0 1.7-.7 1.7-1.7v-1.7c0-1-.6-1.6-1.7-1.6h-4.2v5h4.2zm14.9 6.3h7.4v1.7h-9.9v-1.7l5.9-5.8c1.2-1.2 1.8-1.9 1.8-3.3 0-1.7-1.1-2.7-2.7-2.7-1.7 0-2.9 1-2.9 2.9h-2.1c0-2.9 2.2-4.7 5-4.7s4.7 1.7 4.7 4.4c0 1.9-1.1 3.3-2.3 4.5l-4.9 4.7zm15.5 2.1c-4.1 0-5.2-3.3-5.2-7.8s1.1-7.8 5.2-7.8 5.2 3.3 5.2 7.8-1 7.8-5.2 7.8zm3.1-4.9v-5.8c0-1.9-1.3-3.2-3-3.2-1.8 0-3 1.1-3 3.2v5.8c0 1.9 1.3 3.2 3 3.2 1.8 0 3-1.2 3-3.2zm5.8 2.8h3.9v-9.7h-3.9v-1.7h3.9v-1.7h1.9v13.1h3.5v1.7h-9.3v-1.7zm18.5 1.7v-3.6h-6.5v-1.7l6.5-9.6h1.9v9.6h2.2v1.7h-2.2v3.6h-1.9zm-4.6-5.2h4.6v-6.7l-4.6 6.7zm-98.3-53.8h-8.5l-1.6 5.2h-5.1l8.5-24.7h5l8.4 24.7h-5.1l-1.6-5.2zm-4.2-13.8l-3 9.7h5.9l-2.9-9.7zm19.5 10.1v8.8h-4.7V61h10.1c5.2 0 7.8 2.4 7.8 7.9 0 5.2-3 7.9-7.8 7.9h-5.3zm5.8-4c1.7 0 2.3-.8 2.3-2.4v-3.2c0-1.7-.6-2.3-2.3-2.3h-5.8v7.9h5.8zm16.4 4v8.8h-4.7V61h10.1c5.2 0 7.8 2.4 7.8 7.9 0 5.2-3 7.9-7.8 7.9h-5.3zm5.9-4c1.7 0 2.3-.8 2.3-2.4v-3.2c0-1.7-.6-2.3-2.3-2.3h-5.8v7.9h5.8zM216.8 61h4.7v20.7H232v4h-15.2V61zm18.8 0h17v4h-12.2v6H251v4h-10.7v6.7h12.2v4h-17V61z" fill="#333"/>
  </symbol>
  <symbol id="MonumentAward3" viewBox="0 0 400 200">
    <path d="M363.9 32.4c4 5 8.1 9.7 12.1 14.5-2.1 5.9-4.4 11.9-6.4 17.8-4-4.8-8.2-9.6-12-14.5 1.8-6 4.2-11.8 6.3-17.8zm-25.7 21.9c6.1-1.2 12.2-2.1 18.2-3.4 4.1 4.8 8.1 9.8 12.2 14.7-6.2.8-12.4 2.1-18.4 3.2-4.1-4.6-7.9-9.6-12.1-14.2v-.2h.1zM372.5 72c4.1-4.7 8-9.7 12.1-14.4 1.9 5.9 4.1 11.9 6.3 17.8-4 4.7-8.1 9.6-12 14.4-2.2-5.8-4.1-11.9-6.4-17.8zM353 69.2c6.1 1 12.1 2.3 18.2 3.2 2.7 5.9 4.2 12.1 6.8 18.1-6.2-1.5-12.5-2.2-18.7-3.5-2.1-6-4.3-11.8-6.3-17.8zm8.7 19.4c5.7 2.7 10.9 6.2 16.4 9.3-.1 6.3-.1 12.6 0 18.9-5.3-3.4-11-6.3-16.4-9.8.2-6.2.1-12.3 0-18.4zm17.6 9.2c5.3-3.3 10.9-6.3 16.2-9.6v19c-5.5 3.2-11 6.2-16.4 9.6.3-6.3.2-12.7.2-19zm-22 29.5c2.3-5.9 4.2-11.9 6.4-17.7 4.1 4.7 8 9.7 12.1 14.4-2.3 5.8-4.2 11.9-6.5 17.7-4-5-8-9.7-12-14.4zm19.8-3.1c6.2-.7 18.2-2.5 18.1-2.7-1.9 5.7-4.1 11.4-6.2 17.2-6.2 1.3-12.5 2.2-18.7 3.5 2.5-5.8 4.5-12 6.8-18zm-30.8 20.3c4.1-4.7 8-9.7 12.1-14.4 2.3 5.8 4.2 11.8 6.5 17.7-4.1 4.7-8 9.7-12.1 14.4-2-6-4.2-11.9-6.5-17.7zm19.5 3.9c6.2 1.1 12.4 2.3 18.5 3.3-4.1 4.7-8.1 9.6-12.1 14.4h-.7c-5.9-1.1-11.9-2.2-17.9-3.2 4.2-4.7 8.2-9.6 12.2-14.5zM36.7 32.4c-4 5-8.1 9.7-12.1 14.5 2.1 5.9 4.4 11.9 6.4 17.8 4-4.8 8.2-9.6 12-14.5-1.9-6-4.2-11.8-6.3-17.8zm25.7 21.9c-6.1-1.2-12.2-2.1-18.2-3.4-4.1 4.8-8.1 9.8-12.2 14.7 6.2.8 12.4 2.1 18.4 3.2 4.1-4.6 7.9-9.6 12.1-14.2v-.2h-.1zM28 72c-4.1-4.7-8-9.7-12.1-14.4-1.9 5.9-4.1 11.9-6.3 17.8 4 4.7 8.1 9.6 12 14.4C23.8 84 25.8 77.9 28 72zm19.6-2.8c-6.1 1-12.1 2.3-18.2 3.2-2.7 5.9-4.2 12.1-6.8 18.1 6.2-1.5 12.5-2.2 18.7-3.5 2.1-6 4.3-11.8 6.3-17.8zm-8.7 19.4c-5.7 2.7-10.9 6.2-16.4 9.3.1 6.3.1 12.6 0 18.9 5.3-3.4 11-6.3 16.4-9.8-.2-6.2-.2-12.3 0-18.4zm-17.7 9.2c-5.3-3.3-10.9-6.3-16.2-9.6v19c5.5 3.2 11 6.2 16.4 9.6-.2-6.3-.2-12.7-.2-19zm22.1 29.5c-2.3-5.9-4.2-11.9-6.4-17.7-4.1 4.7-8 9.7-12.1 14.4 2.3 5.8 4.2 11.9 6.5 17.7 3.9-5 8-9.7 12-14.4zm-19.8-3.1c-6.2-.7-18.2-2.5-18.1-2.7 1.9 5.7 4.1 11.4 6.2 17.2 6.2 1.3 12.5 2.2 18.7 3.5-2.7-5.8-4.5-12-6.8-18zm30.7 20.3c-4.1-4.7-8-9.7-12.1-14.4-2.3 5.8-4.2 11.8-6.5 17.7 4.1 4.7 8 9.7 12.1 14.4 2.1-6 4.3-11.9 6.5-17.7zm-19.4 3.9c-6.2 1.1-12.4 2.3-18.5 3.3 4.1 4.7 8.1 9.6 12.1 14.4h.7C35 165 41 163.9 47 162.9c-4.2-4.7-8.2-9.6-12.2-14.5z" fill="#F8F8F8"/>
    <path d="M151.6 121c0 1.5-.4 2.5-1.1 3.2-.8.7-2.1 1.1-3.8 1.1h-5.9v-14.8h5.8c1.5 0 2.5.1 3.4.7.8.6 1.3 1.6 1.3 2.8 0 1.7-.8 3-2.3 3.5 1.7.6 2.6 1.7 2.6 3.5zm-8.6-8.6v4.4h4.6c1.1 0 1.6-.6 1.6-1.6v-1.3c0-1-.6-1.5-1.6-1.5H143zm6.5 7.6c0-1-.6-1.5-1.7-1.5H143v4.8h4.7c1.1 0 1.8-.5 1.8-1.6V120zm13 1.7h-5.8l-1.2 3.6h-2.2l5.1-14.8h2.3l5.1 14.8h-2.2l-1.1-3.6zm-5.2-1.7h4.7l-2.3-7.2h-.1l-2.3 7.2zm11.3-9.6h9.1v1.8h-7v4.5h6.5v1.8h-6.5v6.7h-2.1v-14.8zm10.6 0h10.9v1.8h-4.5v13h-2.1v-12.8H179v-1.9h.2zm20 11.3h-5.8l-1.2 3.6H190l5.1-14.8h2.3l5.1 14.8h-2.2l-1.1-3.6zm-5.4-1.7h4.7l-2.3-7.2h-.1l-2.3 7.2zm18.4 3.6h7.4v1.7h-9.9v-1.7l5.9-5.8c1.2-1.2 1.8-1.9 1.8-3.3 0-1.7-1.1-2.7-2.7-2.7-1.7 0-2.9 1-2.9 2.9h-2.2c0-2.9 2.2-4.7 5-4.7s4.7 1.7 4.7 4.4c0 1.9-1.1 3.3-2.3 4.5l-4.8 4.7zm15.6 2c-4.1 0-5.2-3.3-5.2-7.8s1.1-7.8 5.2-7.8 5.2 3.3 5.2 7.8-1.1 7.8-5.2 7.8zm3-4.8V115c0-1.9-1.3-3.2-3-3.2-1.8 0-3 1.1-3 3.2v5.8c0 1.9 1.3 3.2 3 3.2 1.7-.1 3-1.2 3-3.2zm5.8 2.8h3.9v-9.7h-3.9v-1.7h3.9v-1.7h1.9v13.1h3.5v1.7h-9.3v-1.7zm12.5-4.8l.6-8.4h8.6v1.7h-6.8l-.4 4.6c.7-1 1.9-1.5 3.2-1.5 2.9 0 4.8 2.1 4.8 5.1 0 3.2-2.1 5.2-5.2 5.2-3 0-4.8-1.6-5.1-4.5h2.1c.2 1.8 1.3 2.7 3 2.7 1.8 0 3-1 3-2.5v-1.8c0-1.6-1.2-2.4-3-2.4-1.3 0-2.3.6-2.8 1.8h-2zM104.6 90.3c0 5.3-3.2 7.2-7.9 7.2H86.1V72.8h10.5c4.5 0 7.5 1.7 7.5 6.3 0 2.8-1.5 4.7-3.8 5.6 2.6.8 4.3 2.7 4.3 5.6zM90.7 76.8v5.9h6.4c1.6 0 2.1-.7 2.1-2.2v-1.9c0-1.3-.6-1.9-2.1-1.9h-6.4v.1zm8.9 12c0-1.5-.7-2.1-2.2-2.1h-6.8v6.8h6.7c1.6 0 2.3-.6 2.3-2.2v-2.5zm10.1-16h17v4h-12.2v6.1h10.7v4h-10.7v6.7h12.2v4h-17V72.8zm26.1 6.2c0 1.9 1.2 2.8 3.5 3.4l4.2 1.1c4.2 1.1 6.4 3.2 6.4 7.3 0 4.6-3.9 7.3-9.6 7.3-5.5 0-9.6-2.2-10.1-7.9h4.7c.4 2.9 2.3 4 5.2 4 2.8 0 4.8-1.2 4.8-3.4 0-1.7-1.1-2.7-3.3-3.3l-4.8-1.3c-4-1.1-5.9-3.5-5.9-7.2 0-4 3.5-6.8 9-6.8 5.1 0 8.7 2.3 9.2 7.4h-4.7c-.2-2.8-2.3-3.5-4.6-3.5-2.5 0-4 1.2-4 2.9zm16.2-6.2h19.2v4H164v20.7h-4.7V76.8h-7.2v-4h-.1zm49.6 17.5c0 5.3-3.2 7.2-7.9 7.2H183V72.8h10.5c4.5 0 7.5 1.7 7.5 6.3 0 2.8-1.5 4.7-3.8 5.6 2.7.8 4.4 2.7 4.4 5.6zm-14-13.5v5.9h6.4c1.6 0 2.1-.7 2.1-2.2v-1.9c0-1.3-.6-1.9-2.1-1.9h-6.4v.1zm9.1 12c0-1.5-.7-2.1-2.2-2.1h-6.8v6.8h6.7c1.6 0 2.3-.6 2.3-2.2v-2.5zm14.7-.8v9.6h-4.7V72.8h10.1c5.2 0 7.8 2.4 7.8 7.6 0 3.9-1.9 6.3-5.3 7.2l5.7 9.9h-5.2l-5.2-9.5h-3zm6.1-3.9c1.6 0 2.2-.8 2.2-2.4v-2.5c0-1.7-.6-2.3-2.2-2.3h-5.9v7.4h5.9v-.2zm12.3-11.3h4.7v24.7h-4.7V72.8zm8.4 0h19.2v4h-7.2v20.7h-4.7V76.8h-7.2v-4h-.1zm22.9 0h4.7v24.7h-4.7V72.8zm14.8 6.2c0 1.9 1.2 2.8 3.5 3.4l4.2 1.1c4.2 1.1 6.4 3.2 6.4 7.3 0 4.6-3.9 7.3-9.6 7.3-5.5 0-9.6-2.2-10.1-7.9h4.7c.4 2.9 2.3 4 5.2 4 2.8 0 4.8-1.2 4.8-3.4 0-1.7-1.1-2.7-3.3-3.3l-4.8-1.3c-4-1.1-5.9-3.5-5.9-7.2 0-4 3.5-6.8 9-6.8 5.1 0 8.7 2.3 9.2 7.4h-4.7c-.2-2.8-2.3-3.5-4.6-3.5-2.4 0-4 1.2-4 2.9zm33.4 7.9h-9.8v10.7h-4.7V72.8h4.7V83h9.8V72.8h4.7v24.7h-4.7V86.9z" fill="#333"/>
  </symbol>
  <symbol id="facebook" viewBox="0 0 32 32">
    <path fill-rule="evenodd" clip-rule="evenodd" d="M19.4 16h-2.2v8h-3.3v-8h-1.6v-2.8h1.6v-1.8c0-1.3.6-3.4 3.4-3.4h2.5v2.7H18c-.3 0-.7.1-.7.8v1.7h2.5l-.4 2.8zM0 32h32V0H0v32z"/>
  </symbol>
  <symbol id="linkedin" viewBox="0 0 32 32">
    <path fill-rule="evenodd" clip-rule="evenodd" d="M24 23.6h-3.4v-5.5c0-1.4-.5-2.3-1.7-2.3-.9 0-1.5.6-1.8 1.3-.1.2-.1.5-.1.8v5.8h-3.4V13.4H17v1.5c.5-.7 1.3-1.7 3.1-1.7 2.3 0 3.9 1.5 3.9 4.6v5.8zM9.9 11.9c-1.2 0-1.9-.8-1.9-1.8s.8-1.8 1.9-1.8c1.2 0 1.9.8 1.9 1.8.1 1-.7 1.8-1.9 1.8zm-1.7 1.4h3.4v10.3H8.2V13.3zM0 32h32V0H0v32z"/>
  </symbol>
  <symbol id="twitter" viewBox="0 0 32 32">
    <path fill-rule="evenodd" clip-rule="evenodd" d="M22.4 12.7v.4c0 4.3-3.3 9.3-9.3 9.3-1.9 0-3.6-.5-5-1.5h.8c1.5 0 3-.5 4.1-1.4-1.4 0-2.6-1-3.1-2.3.2 0 .4.1.6.1.3 0 .6 0 .9-.1-1.5-.3-2.6-1.6-2.6-3.2.4.2.9.4 1.5.4-.9-.6-1.5-1.6-1.5-2.7 0-.6.2-1.2.4-1.7 1.6 2 4 3.3 6.8 3.4-.1-.2-.1-.5-.1-.7 0-1.8 1.5-3.3 3.3-3.3.9 0 1.8.4 2.4 1 .7-.1 1.4-.4 2.1-.8-.2.8-.8 1.4-1.4 1.8.7-.1 1.3-.3 1.9-.5-.6.8-1.2 1.4-1.8 1.8zM0 32h32V0H0v32z"/>
  </symbol>
  <symbol id="quotemark" viewBox="0 0 194 139">
    <path fill-rule="evenodd" d="M156 66.367l36-66h-33l-37.5 66v72h72v-72H156zm-121.5 0l36-66h-33l-37.5 66v72h72v-72H34.5z" />
  </symbol>
  <symbol id="dicelogo" viewBox="0 0 181 181">
    <path d="M160.506 70.16c-2.886.486-18.48 3.115-21.778 3.627-3.637.564-4.703 5.24-4.703 5.24l13.358-2.375s8.91-1.49 11.468-1.91c2.56-.422.46 3.355.46 3.355s-7.16 2.063-10.09 2.913c-2.93.85-11.74 3.593-15.48 4.88-3.73 1.29-3.61 1.902-5.75 4.52-2.14 2.62-2.47 5.046-2.35 5.545.12.5 4.78-.594 8.74-1.41 3.96-.814 10.59-2.55 10.59-2.55 4.17-1.08 12.21-2.868 12.52-2.89.31-.02.8-.175 1.61.795s-.35 3.978-.35 3.978c-.43-.493-2.47-.29-2.47-.29-2.532.203-7.03 2.083-10.81 3.657-3.78 1.574-10.652 3.308-12.603 3.87-1.95.562-5.186 1.99-7.373 2.954-2.186.96-3.975 2.13-3.975 2.13-1.713 2.06-5.04 3.87-5.04 3.87s-5.444-5.83-5.94-6.63c-.494-.8 1.59-1.73 3.074-2.57 1.483-.85 1.65-1.06 2.262-1.84.616-.78 1.8-3.82 2.54-5.34.735-1.52 1.824-4.28 1.96-4.93.13-.64-.49-4.55-.34-5.59.15-1.044 4.426-1.86 4.426-1.86l3.2-4.22-2.97-1.735s-.423-1.32-.884-3.085c-.46-1.764.596-2.033.596-2.033.415-.4 1.34-.665 2.057-.85.72-.186 9.54-1.265 11.498-1.477 1.45-.155 12.63-1.223 18.56-1.79L90.345 0 0 90.347l29.718 29.718L44.016 88.64c-1.778-2.334-15.365 7.592-16.745 8.524-1.38.93-1.23 1.335-1.23 1.335 1.13 2.39 2.83 1.29 2.83 1.29.56 4.9-5.22 1.44-5.22 1.44-3.05-4.25-4.54-4.13 3.44-10.68s17.69-9.04 18.61-9.42c.93-.38 1.71-.9 1.71-.9s1.19-3.34 1.537-4.2c.346-.86.63-1.36 1.384-1.15.753.21 2.61 2.99 3.527 3.45.918.46 9.23-.19 10.52-.2 1.29-.01 2.11.03 2.838.77.73.74 4.12 3.567 6.16 8.205 2.04 4.635-6.32 13.883-11.79 19.38-5.47 5.496-22.79 15.973-24.13 16.695-1.28.69-1.75 1.52-2.185 2.38l55.1 55.11 90.34-90.34-20.19-20.19zm-89.418 51.756s-4.07-.604-2.865-5.788c1.204-5.184 4.545-19.458 10.422-32.798 5.877-13.34 5.537-11.835 6.652-12.518 1.116-.683 1.706-1.385 2.627-.12.92 1.267 2.357 4.682 2.678 4.79.32.107-.596 1.07-.596 1.07s-2.607 4.827-3.152 5.883c-.546 1.055-7.048 13.596-10.323 25.168-3.27 11.572-5.44 14.313-5.44 14.313zm15.27-17c-2.703-3.21-.852-9.128-.852-9.128 8.772-18.713 20.968-24.28 22.708-25.498 1.74-1.217 3.222-.284 3.222-.284 4.586 3.873 2.985 6.03 1.51 6.843-1.473.81 1.606-1.36-7.1 3.25-8.708 4.61-14.83 16.32-15.353 19.01-.525 2.69-.52 3.36 1.76 3.08 2.284-.28 13.4-6.92 15.41-7.73 2.01-.82 2.963 1.86 3.767 1.59.805-.28 7.63-5.28 7.63-5.28-7.212 8.36-21.817 15.28-25.034 16.64-3.217 1.36-4.966.7-7.67-2.51zm-17.69-19.574c-.408-1.26-1.68-1.377-1.68-1.377-2.66-.762-10.714-.076-11.643.058-.93.133-2.818 1.465-3.646 2.078-.83.62-2.67 5.14-2.67 5.14l-9.79 24.12 7.7-4.59c11.78-7.91 19.2-17.47 21.02-20.05 1.82-2.58 1.1-4.11.69-5.37z" fill-rule="evenodd" />
  </symbol>
</svg>
