<?xml version="1.0" encoding="UTF-8"?>
<svg width="160px" height="160px" viewBox="0 0 160 160" version="1.1" xmlns="http://www.w3.org/2000/svg" xmlns:xlink="http://www.w3.org/1999/xlink">
    <!-- Generator: Sketch 42 (36781) - http://www.bohemiancoding.com/sketch -->
    <title>logo-harvey-nichols</title>
    <desc>Created with Sketch.</desc>
    <defs></defs>
    <g id="**Symbols**" stroke="none" stroke-width="1" fill="none" fill-rule="evenodd">
        <g id="logo-harvey-nichols" fill="#000000">
            <g id="Group-13" transform="translate(12.000000, 55.000000)">
                <g id="Group-12">
                    <polygon id="path208" transform="translate(6.988896, 10.302063) scale(1, -1) translate(-6.988896, -10.302063) " points="11.7711477 12.0521378 11.7711477 19.5940584 13.8524666 19.5940584 13.8524666 1.01006718 11.7711477 1.01006718 11.7711477 10.1292878 2.20664347 10.1292878 2.20664347 1.01006718 0.125324604 1.01006718 0.125324604 19.5940584 2.20664347 19.5940584 2.20664347 12.0521378"></polygon>
                    <path d="M32.9413689,14.7647056 L29.7447442,7.32082021 L36.0638351,7.32082021 L32.9413689,14.7647056 Z M28.9026541,5.39797018 L26.647648,0.123478988 L24.3682477,0.123478988 L32.9911332,19.5946408 L41.3905672,0.123478988 L39.0857969,0.123478988 L36.8815309,5.39797018 L28.9026541,5.39797018 Z" id="path212" transform="translate(32.879407, 9.859060) scale(1, -1) translate(-32.879407, -9.859060) "></path>
                    <path d="M55.0323917,10.9924834 L55.6764004,10.9924834 C58.030935,10.9924834 60.4088882,11.4360687 60.4088882,14.3198584 C60.4088882,17.3764232 58.1548579,17.6714996 55.6520061,17.6714996 L55.0323917,17.6714996 L55.0323917,10.9924834 Z M55.0323917,1.01035838 L52.9510729,1.01035838 L52.9510729,19.5943496 L55.6520061,19.5943496 C59.1950295,19.5943496 62.4902071,18.6576761 62.4902071,14.4673966 C62.4902071,11.6088437 60.682104,9.58795843 57.8074836,9.34141431 L63.7538301,1.01035838 L61.2021898,1.01035838 L55.5524775,9.16863929 L55.0323917,9.16863929 L55.0323917,1.01035838 L55.0323917,1.01035838 Z" id="path224" transform="translate(58.352451, 10.302354) scale(1, -1) translate(-58.352451, -10.302354) "></path>
                    <polygon id="path228" transform="translate(81.756569, 10.856690) scale(1, -1) translate(-81.756569, -10.856690) " points="81.7565689 6.53100544 87.0833011 20.7034099 89.3383071 20.7034099 81.7565689 1.00997012 74.1748307 20.7034099 76.428861 20.7034099"></polygon>
                    <polygon id="path232" transform="translate(105.743124, 10.302063) scale(1, -1) translate(-105.743124, -10.302063) " points="100.899398 19.5940584 110.58685 19.5940584 110.58685 17.6712084 102.980717 17.6712084 102.980717 12.1501731 110.364374 12.1501731 110.364374 10.2273231 102.980717 10.2273231 102.980717 2.93194657 110.58685 2.93194657 110.58685 1.01006718 100.899398 1.01006718"></polygon>
                    <polygon id="path236" transform="translate(128.348091, 10.435273) scale(1, -1) translate(-128.348091, -10.435273) " points="121.187398 19.7272686 123.589745 19.7272686 128.348579 11.4457156 133.105461 19.7272686 135.508784 19.7272686 129.38875 9.12878324 129.38875 1.14327734 127.307431 1.14327734 127.307431 9.12878324 121.187398 19.7272686"></polygon>
                </g>
                <g id="Group-11" transform="translate(0.000000, 29.725211)">
                    <polygon id="path240" transform="translate(8.857670, 10.327008) scale(1, -1) translate(-8.857670, -10.327008) " points="0.531906293 20.4328908 15.1021141 5.24907306 15.1021141 19.6437555 17.183433 19.6437555 17.183433 0.221125991 2.61420093 15.379707 2.61420093 1.05976427 0.531906293 1.05976427 0.531906293 20.4328908"></polygon>
                    <polygon id="path242" transform="translate(27.119413, 10.302548) scale(1, -1) translate(-27.119413, -10.302548) " points="28.1600725 1.01055251 26.0787537 1.01055251 26.0787537 19.5945438 28.1600725 19.5945438"></polygon>
                    <path d="M51.1535232,15.5277305 C49.6664487,17.0555275 47.6104999,17.9922011 45.4550224,17.9922011 C41.2923847,17.9922011 37.9230485,14.3940158 37.9230485,10.3017716 C37.9230485,6.21146872 41.3158032,2.61231279 45.5047867,2.61231279 C47.6104999,2.61231279 49.6664487,3.59848928 51.1535232,5.07678337 L51.1535232,2.51330688 C49.5425258,1.35435537 47.5607356,0.68946276 45.5789453,0.68946276 C40.3000259,0.68946276 35.8397781,4.95351131 35.8397781,10.2280025 C35.8397781,15.5519967 40.2268431,19.9150511 45.5789453,19.9150511 C47.6592884,19.9150511 49.4937373,19.322957 51.1535232,18.091207 L51.1535232,15.5277305" id="path246" transform="translate(43.496651, 10.302257) scale(1, -1) translate(-43.496651, -10.302257) "></path>
                    <polygon id="path250" transform="translate(66.590411, 10.302063) scale(1, -1) translate(-66.590411, -10.302063) " points="71.3726627 12.0521378 71.3726627 19.5940584 73.4539815 19.5940584 73.4539815 1.01006718 71.3726627 1.01006718 71.3726627 10.1292878 61.8071827 10.1292878 61.8071827 1.01006718 59.7268396 1.01006718 59.7268396 19.5940584 61.8071827 19.5940584 61.8071827 12.0521378"></polygon>
                    <path d="M83.4135753,10.302354 C83.4135753,6.11207456 86.8336516,2.61289518 91.0704479,2.61289518 C95.3072442,2.61289518 98.7273204,6.11207456 98.7273204,10.302354 C98.7273204,14.5168996 95.3570085,17.9918128 91.0704479,17.9918128 C86.784863,17.9918128 83.4135753,14.5168996 83.4135753,10.302354 M100.807664,10.2780878 C100.807664,4.9288569 96.39718,0.690045148 91.0704479,0.690045148 C85.7427399,0.690045148 81.3322565,4.9288569 81.3322565,10.2780878 C81.3322565,15.6011114 85.7427399,19.9146629 91.0704479,19.9146629 C96.39718,19.9146629 100.807664,15.6011114 100.807664,10.2780878" id="path254" transform="translate(91.069960, 10.302354) scale(1, -1) translate(-91.069960, -10.302354) "></path>
                    <polygon id="path258" transform="translate(112.205543, 10.302257) scale(1, -1) translate(-112.205543, -10.302257) " points="110.669192 2.93262602 115.823213 2.93262602 115.823213 1.00977599 108.587873 1.00977599 108.587873 19.5947379 110.669192 19.5947379 110.669192 2.93262602"></polygon>
                    <path d="M131.697098,16.4251304 C130.953561,17.7063833 130.061706,18.4460157 128.475103,18.4460157 C126.815317,18.4460157 125.378007,17.262798 125.378007,15.5622259 C125.378007,13.9606598 127.037793,13.2210274 128.302392,12.6541701 L129.540645,12.1115789 C131.969338,11.0516333 134.025287,9.84414945 134.025287,6.88659062 C134.025287,3.63298472 131.400464,1.14327734 128.152123,1.14327734 C125.154555,1.14327734 122.924919,3.06612737 122.330675,5.94894644 L124.361254,6.51580379 C124.635445,4.61916121 126.09715,3.06612737 128.103334,3.06612737 C130.11147,3.06612737 131.944944,4.59392441 131.944944,6.68954946 C131.944944,8.85797296 130.235393,9.59760533 128.500473,10.38577 L127.359797,10.8788583 C125.180901,11.8650347 123.296688,12.9744833 123.296688,15.635995 C123.296688,18.5197848 125.749775,20.3688657 128.524867,20.3688657 C130.606186,20.3688657 132.366476,19.3089201 133.356884,17.485076 L131.697098,16.4251304" id="path262" transform="translate(128.177981, 10.756072) scale(1, -1) translate(-128.177981, -10.756072) "></path>
                </g>
            </g>
        </g>
    </g>
</svg>