<?xml version="1.0" encoding="UTF-8"?>
<svg width="160px" height="160px" viewBox="0 0 160 160" version="1.1" xmlns="http://www.w3.org/2000/svg" xmlns:xlink="http://www.w3.org/1999/xlink">
    <!-- Generator: Sketch 42 (36781) - http://www.bohemiancoding.com/sketch -->
    <title>logo-nbc</title>
    <desc>Created with Sketch.</desc>
    <defs></defs>
    <g id="**Symbols**" stroke="none" stroke-width="1" fill="none" fill-rule="evenodd">
        <g id="logo-nbc" fill="#000000">
            <g id="g4" transform="translate(33.000000, 33.000000)">
                <path d="M11.2966738,15.2139052 C7.42098887,18.7013481 6.01042081,26.603295 12.9969136,31.2226228 L40.8685005,50.2304358 L27.3543043,19.4543516 C24.5225663,12.1918627 16.7756423,10.6081757 11.2966738,15.2139052" id="path3115"></path>
                <path d="M35.2886428,0.25055364 C30.7582039,0.342171894 23.9553637,5.70515432 26.9828952,13.8943644 L40.9596428,46.6612334 L45.8712378,12.196792 C47.0078659,3.63311997 40.4881995,-0.320063203 35.2886428,0.25055364" id="path3117"></path>
                <path d="M48.0528388,10.8825205 L50.6956233,10.8825205 C50.6956233,10.8825205 52.1070464,10.8825205 52.2990779,11.5442457 C51.259064,12.3885275 48.4278389,12.4942539 48.803694,17.0041157 L53.2469236,46.656814 L67.1285959,13.803766 C69.9680289,6.46835647 64.0078701,0.342171894 58.7209331,0.154855909 C58.474182,0.137178175 58.226234,0.122900006 57.9700779,0.122900006 C53.2245227,0.122730028 47.7865939,3.55085052 48.0528388,10.8825205" id="path3119"></path>
                <path d="M66.5697723,19.7332858 L53.4396391,50.1400074 L81.30336,31.0319072 C87.7262412,26.5033478 86.6901603,19.2632961 83.0949131,15.6847449 C81.5877308,14.0004308 78.8202883,12.6992476 75.888516,12.6992476 C72.4251089,12.6987377 68.7183706,14.5248136 66.5697723,19.7332858" id="path3121"></path>
                <path d="M78.1836602,35.3585325 L52.0162461,53.5269932 L84.2354743,53.5269932 C90.8455991,53.5269932 95.0935481,46.7518318 93.2052098,40.5348789 C91.9405036,36.6272499 88.1985396,33.5596532 83.8553442,33.5552337 C82.0271974,33.5560836 80.0884145,34.1034134 78.1836602,35.3585325" id="path3123"></path>
                <path d="M10.5458186,53.5269932 L42.2896705,53.5269932 L16.1159295,35.3585325 C10.0694163,31.4966277 3.26999605,33.7563179 0.815481084,40.1648363 C-1.26505978,47.5010958 3.92970894,53.5269932 10.5458186,53.5269932" id="path3125"></path>
                <path d="M45.7005811,78.3851162 L51.5894334,78.3851162 C52.9430589,78.4697653 55.3426833,79.6446547 55.3426833,82.427028 C55.3426833,85.3372249 52.8522586,86.5114343 51.5029081,86.6440173 L45.7005811,86.6440173 L45.7005811,78.3851162 M45.6108068,65.4292072 L50.4579352,65.4292072 C52.1147413,65.5181058 54.0738732,66.7351498 54.0738732,68.9946701 C54.0738732,71.211016 52.5926826,72.6881266 50.6763005,72.9514228 L45.6108068,72.9514228 L45.6108068,65.4292072 M38.9839242,60.0376685 L38.9839242,92.0301168 L54.6002071,92.0301168 C58.3067743,92.0301168 62.7128972,88.3373402 62.7128972,83.5119989 C62.7128972,78.4704452 59.3994559,75.9943727 57.3030121,74.993881 C57.3030121,74.993881 61.1417614,72.7773651 60.9711047,67.9945183 C60.796515,61.5608432 54.8175464,60.0376685 52.7677853,60.0376685 L38.9839242,60.0376685" id="path3127"></path>
                <polygon id="polygon3129" points="15.0316269 92.0301168 15.0316269 73.6034592 35.2727399 93.2471608 35.2727399 60.0376685 28.4710967 60.0376685 28.4710967 77.9929765 8.22519563 58.7366553 8.22519563 92.0301168"></polygon>
                <path d="M63.8064337,75.6873921 C63.9770904,85.8046649 71.2900197,93.3686952 80.6911848,93.3686952 C82.9201525,93.3686952 85.2684773,92.9493589 87.6684437,92.0301168 L87.6684437,85.5114525 C85.7664254,86.6667944 83.6499748,87.223813 81.5762739,87.223813 C75.887148,87.223813 70.5191576,83.0391195 70.7412849,75.4276654 C71.124664,69.2533769 76.2096515,64.9899835 81.689817,64.9899835 C83.6966575,64.9899835 85.7607825,65.5646799 87.6684437,66.8201389 L87.6684437,60.4762122 C85.4440929,59.5799172 83.2330801,59.1791085 81.1032916,59.1791085 C71.7257243,59.1789386 63.9864953,67.0419605 63.8064337,75.6873921" id="path3131"></path>
            </g>
        </g>
    </g>
</svg>