<svg width="160" height="160" viewBox="0 0 160 160" xmlns="http://www.w3.org/2000/svg"><title>B54A7F84-F778-421A-99BA-BC6F79089CC1</title><path d="M16.832 82.658h7.848l-3.911-9.51-3.937 9.51zM14.147 89.1H12L19.874 71h1.79l7.874 18.1H27.39l-1.994-4.755h-9.254L14.147 89.1zm30.943-3.375L51.2 71h2.812v18.1h-1.84V73.454h-.052L45.575 89.1h-.971l-6.545-15.646h-.05V89.1h-1.842V71h2.813l6.11 14.725zm20.383-3.067h7.849l-3.912-9.51-3.937 9.51zM62.79 89.1h-2.147L68.516 71h1.79l7.873 18.1h-2.147l-1.994-4.755h-9.255L62.79 89.1zm23.86-1.687h8.437V89.1H84.81V71h1.84v16.413zm16.959 1.687h-1.84V71h1.84v18.1zm11.461-6.442h7.849l-3.912-9.51-3.937 9.51zm-2.684 6.442h-2.147l7.874-18.1h1.79l7.873 18.1h-2.147l-1.994-4.755h-9.255l-1.994 4.755zm22.02-18.1h1.84v7.848h9.869V71h1.84v18.1h-1.84v-8.564h-9.868V89.1h-1.84V71z" fill="#FFF" fill-rule="evenodd"/></svg>