<svg width="160" height="160" viewBox="0 0 160 160" xmlns="http://www.w3.org/2000/svg"><title>A4944133-174E-4FA1-BE0E-61AAE3CDAB68</title><path d="M76.465 97.244s-.212 0-.635-.035c-.424-.035-1.059-.035-1.87-.105-1.624-.141-4.024-.493-6.953-1.372a33.403 33.403 0 0 1-9.777-4.82c-3.388-2.428-6.812-5.84-9.423-10.202a33.65 33.65 0 0 1-3.212-7.142c-1.059-3.342-1.412-6.79-1.482-10.273-.036-2.146.247-4.362.74-6.438.318-1.407.707-2.85 1.236-4.222.247-.703.53-1.372.812-2.075.317-.669.6-1.337.988-2.006 2.788-5.277 7.13-9.815 12.388-12.735a30.228 30.228 0 0 1 8.365-3.201 30.988 30.988 0 0 1 4.412-.634c.74-.035 1.482-.07 2.223-.07 3.635.07 7.235.633 10.659 1.97 1.306.528 2.611 1.126 3.811 1.83 1.2.703 2.365 1.477 3.46 2.321 4.34 3.413 7.446 7.986 9.034 12.7l.565 1.76c.494 1.618.706 3.588.847 5.312.318 4.257-.6 8.865-2.54 12.7-.883 1.794-1.977 3.377-3.107 4.785a24.485 24.485 0 0 1-7.553 6.086 23.09 23.09 0 0 1-6.847 2.252c-1.94.316-3.458.28-4.517.246-.53 0-.918-.07-1.165-.07-.282-.036-.388-.036-.388-.036L76.57 111s.318-.035.882-.07c.6-.07 1.448-.106 2.577-.247 2.223-.281 5.541-.809 9.53-2.18 3.987-1.338 8.646-3.449 13.27-6.861a47.649 47.649 0 0 0 12.705-13.967c6.742-11.328 8.083-25.576 4.095-38.1-3.142-9.886-10.342-18.47-19.27-23.677a42.402 42.402 0 0 0-11.577-4.714c-5.047-1.267-10.2-1.442-15.353-.88-1.024.106-2.012.317-3.035.493-1.977.422-3.918.95-5.824 1.618a41.476 41.476 0 0 0-10.447 5.63c-6.847 5.1-11.647 12.277-14.329 20.298-.706 2.569-1.235 5.066-1.482 7.705-.918 9.112 1.87 18.786 7.305 26.14 3.283 4.397 7.13 7.633 10.871 9.85a37.506 37.506 0 0 0 5.47 2.709c1.73.668 3.389 1.23 4.906 1.583 3 .738 5.436.95 7.094 1.02.812.07 1.447.035 1.87.035h.636v-.14z" fill="#FFF" fill-rule="evenodd"/></svg>