<svg width="160" height="160" viewBox="0 0 160 160" xmlns="http://www.w3.org/2000/svg"><title>9267750A-9FF3-4AD0-9290-5350E62DE96E</title><g fill="#FFF" fill-rule="evenodd"><path d="M50.587 78.147v14.156H44.27V78.787c0-1.694-.33-2.964-.932-3.81-.632-.847-1.538-1.271-2.677-1.271-1.353 0-2.406.574-3.127 1.754-.72 1.179-1.082 2.843-1.082 5.02v11.853h-6.317V78.42c0-1.482-.3-2.631-.932-3.448-.63-.817-1.503-1.21-2.677-1.21-1.353 0-2.375.575-3.127 1.754-.722 1.18-1.082 2.843-1.082 5.02v11.857H16V69.255h5.955v2.632h.089a8.687 8.687 0 0 1 2.797-2.42c1.024-.516 2.227-.756 3.576-.756 1.595 0 2.978.331 4.121.994 1.143.663 2.045 1.663 2.677 2.964.902-1.3 1.926-2.269 3.068-2.964 1.143-.663 2.557-.994 4.241-.994 2.497 0 4.452.816 5.894 2.42 1.443 1.603 2.169 3.932 2.169 7.016zM71.069 70.83c1.654 1.547 2.466 3.81 2.466 6.835v8.348c0 2.602.21 4.72.632 6.292h-5.685a13.274 13.274 0 0 1-.33-3.086h-.09c-1.684 2.42-4.176 3.63-7.458 3.63-2.376 0-4.27-.663-5.685-1.966-1.413-1.327-2.135-2.995-2.135-5.021 0-1.966.692-3.536 2.045-4.778 1.354-1.21 3.64-2.057 6.828-2.571a63.42 63.42 0 0 1 5.714-.635v-.817c0-1.391-.33-2.42-.989-3.086-.66-.663-1.564-.994-2.767-.994-1.172 0-2.075.303-2.737.937-.663.634-.99 1.482-1.053 2.57h-6.14c.12-2.328 1.022-4.234 2.706-5.716 1.685-1.482 4.09-2.21 7.219-2.21 3.338-.033 5.804.754 7.459 2.268zm-8.211 11.4c-1.319.243-2.286.605-2.857 1.09-.572.483-.873 1.178-.873 2.086 0 .877.301 1.572.873 2.117.571.545 1.413.787 2.496.787a6.542 6.542 0 0 0 2.016-.332c.632-.242 1.172-.544 1.594-.968.5-.48.863-1.085 1.053-1.754.18-.635.27-1.547.27-2.66v-.878c-1.775.15-3.31.302-4.572.513zM86.828 97.565c-.963 1.21-2.075 2.088-3.399 2.632-1.318.513-2.978.786-4.933.786a13.965 13.965 0 0 1-3.278-.362v-5.084c.66.242 1.472.363 2.436.363 1.264 0 2.286-.332 3.038-1.029.782-.663 1.143-1.573 1.143-2.692a5.45 5.45 0 0 0-.211-1.452c-.15-.545-.421-1.452-.873-2.722l-6.494-18.75h6.767l2.346 7.713a148.962 148.962 0 0 1 2.527 9.679h.09c.903-3.72 1.775-6.957 2.647-9.679l2.464-7.713h6.497l-8.21 23.2c-.748 2.176-1.594 3.87-2.557 5.11zM113.565 92.303l-7.669-10.798h-.09v10.798h-6.317V60h6.316v18.566h.09l7.399-9.316h7.127L111.7 79.867l9.656 12.436zM124.422 90.427c-1.504-1.603-2.256-3.962-2.256-7.017V69.255h6.317v13.52c0 1.695.36 2.964 1.052 3.81.693.847 1.685 1.272 2.948 1.272 1.353 0 2.436-.545 3.278-1.604.812-1.058 1.233-2.631 1.233-4.658v-12.34h6.316v23.048h-5.894v-2.907h-.09a8.536 8.536 0 0 1-2.887 2.511 8.147 8.147 0 0 1-3.846.937c-2.592.004-4.666-.783-6.17-2.417z"/></g></svg>