<?xml version="1.0" encoding="UTF-8"?>
<svg width="160px" height="160px" viewBox="0 0 160 160" version="1.1" xmlns="http://www.w3.org/2000/svg" xmlns:xlink="http://www.w3.org/1999/xlink">
    <!-- Generator: Sketch 42 (36781) - http://www.bohemiancoding.com/sketch -->
    <title>logo-ford</title>
    <desc>Created with Sketch.</desc>
    <defs></defs>
    <g id="**Symbols**" stroke="none" stroke-width="1" fill="none" fill-rule="evenodd">
        <g id="logo-ford" fill="#000000">
            <g id="Group" transform="translate(17.000000, 56.000000)">
                <path d="M105.268665,40.7647838 C93.775251,45.437801 79.8540452,47.7899694 63.5687592,47.8408216 C47.2612247,47.8630485 33.301758,45.6280759 21.7480033,41.1520691 C10.19408,36.6600656 4.39192015,31.2571 4.36646912,25.0192821 C4.32197196,18.7684986 10.067162,13.254399 21.5605758,8.46721684 C33.066631,3.65157766 47.0100854,1.24199003 63.3811632,1.19753643 C79.730161,1.14365326 93.6926616,3.45153643 105.246585,8.07370137 C116.797137,12.6482134 122.580419,18.1240897 122.548732,24.3715055 C122.548732,30.6093234 116.774889,36.0761069 105.268665,40.7647838 M108.33189,7.34678385 C95.9358915,2.51817904 80.9344497,0.118189347 63.3781293,0.169041581 C45.7867506,0.216694502 30.8169962,2.73724777 18.4718999,7.76252612 C6.12056735,12.768777 -0.0535819955,18.5177735 0.000353954673,25.0541378 C0.0290074282,31.5586773 6.25726128,37.1967082 18.6625298,41.8884162 C31.0647645,46.5550347 46.0631724,48.888344 63.5687592,48.8659488 C81.0711436,48.8184643 96.015447,46.3551619 108.360543,41.4790725 C120.715247,36.5809247 126.917881,30.8794127 126.917881,24.3715055 C126.943164,17.8415399 120.743732,12.1433955 108.33189,7.34678385" id="Fill-1"></path>
                <path d="M90.2257767,34.8316247 L90.5372568,35.3775285 C90.9090778,35.4634048 91.2205579,35.4634048 91.5414768,35.3775285 C92.1039276,34.9966419 92.6026666,34.5871299 93.1174178,34.1489924 C93.4828339,33.8918687 93.8450475,33.5744632 94.1978223,33.1999753 L95.0114124,32.2794151 L95.6594866,31.3841127 C95.9264695,30.9968275 96.2062623,30.6538275 96.5175738,30.3650474 L96.9654108,29.9048515 L97.3057129,30.0030199 L97.5915734,30.2254564 L97.8395103,30.6221711 C97.2261574,31.7267759 96.4857179,32.7205835 95.6594866,33.6761677 C94.6744813,34.8316247 93.5399723,35.8631505 92.2945575,36.7520543 C91.4745625,37.2950955 90.5691127,37.574446 89.6410773,37.5173636 C88.9292913,37.5173636 88.2523951,37.2663017 87.6550545,36.7870784 C87.3469453,36.5299546 87.1148522,36.1933533 86.8955689,35.7459546 L85.3353029,36.8855835 C84.6838578,37.1331093 84.0072987,37.2663017 83.3588875,37.2663017 C82.3420263,37.352178 81.4588251,37.0346041 80.6674836,36.4442467 C79.9270441,36.0283361 79.4790386,35.3775285 79.2599238,34.463367 C79.0278307,33.5109821 78.9356339,32.5426007 79.0278307,31.4696522 C78.1508658,31.8507072 77.3278369,32.1554838 76.5081791,32.4095766 C75.8628017,32.6096179 75.1511843,32.6096179 74.4426007,32.4095766 C73.7626706,32.3331299 73.139879,32.0697759 72.5455722,31.6983189 L72.0338549,31.3174323 L71.5636008,30.6221711 L71.3572958,29.7682914 L70.8486124,30.7206763 C69.6284801,33.0443876 68.3860992,35.4029546 67.0511844,37.771288 L63.6958626,37.7965457 C65.3323131,34.7395182 66.8544867,31.6983189 68.363682,28.6032364 C68.6974107,27.9810543 68.9168626,27.2857931 69.0119247,26.5684735 L69.0119247,25.806532 L68.4177865,25.6224873 C67.9600051,25.9366935 67.5313829,26.2857553 67.0896138,26.6540131 C66.2569775,27.4698378 65.5006944,28.3302845 64.7857059,29.2666729 C63.7499671,30.5556591 62.70125,31.8507072 61.649499,33.0698137 C60.7152272,34.3044117 59.7364582,35.4379787 58.6752684,36.4698412 C58.11602,36.980721 57.4962623,37.352178 56.8957192,37.6409581 C56.244274,37.8980818 55.6531697,38.0410405 55.0335805,38.0821265 C54.4043839,38.0821265 53.7817608,37.9805904 53.1716104,37.7330646 L52.2054826,37.1932227 L51.5478012,36.5299546 L50.9472581,35.6220234 L50.556391,34.7110612 L50.0510785,35.0887485 L49.5681832,35.6220234 L48.9802814,36.0283361 L48.4559228,36.2187794 L47.8966744,36.3807656 L47.0864553,35.9456591 C46.9084667,35.4950612 46.9688075,35.1173739 47.3087726,34.7395182 C47.8966744,34.1077381 48.4559228,33.485556 49.027981,32.7902948 C49.5681832,32.0349203 50.0510785,31.2158962 50.419697,30.3650474 C50.7564596,29.7398344 51.0552985,29.1141162 51.3507664,28.5523842 C51.7257898,27.7904426 52.1769977,27.1366041 52.6789392,26.6033292 C53.2796508,25.9047003 53.956547,25.3173739 54.7222689,24.8064942 C55.5420954,24.2698515 56.3905753,23.7556041 57.2929911,23.3208344 L58.1382686,23.0349168 L58.4209267,23.0349168 C58.7578578,23.168446 59.0214698,23.3844838 59.1136666,23.7556041 L59.1391176,24.2444254 L58.961129,24.679532 L58.697517,25.0888756 L58.2972111,25.3714254 L58.1382686,25.4573017 C57.0895515,26.438312 56.1013437,27.5142914 55.1734769,28.6729478 C54.5473142,29.43169 54.1535817,30.3045973 53.956547,31.2793773 C53.7817608,31.910989 53.8134482,32.5141436 54.0357654,33.1332948 C54.188303,33.6157175 54.4043839,34.0221986 54.7222689,34.3333739 C55.2498299,34.5554735 55.7357591,34.6219856 56.244274,34.4889615 C56.9275751,34.1808172 57.4708112,33.8918687 57.8045399,33.5744632 L58.4209267,32.9839375 C58.6498174,32.6096179 58.9358465,32.1969065 59.1391176,31.7808275 C59.4123369,31.3460577 59.6157766,30.8728962 59.7364582,30.4000715 C59.9240542,29.8634289 60.0669845,29.2666729 60.1305278,28.6348928 C60.2068809,28.0095113 60.3211577,27.419154 60.410152,26.8126316 C60.435603,25.9905766 60.4863365,25.2192055 60.6071867,24.4320062 L60.8645623,23.9431849 L61.2839144,23.5461333 L61.6144406,23.5461333 L61.9259207,23.5461333 L62.3707238,23.7556041 L62.70125,24.1082021 L62.8441803,24.6510749 L62.9267697,25.4064495 L62.9458158,26.3462055 L62.9458158,27.1366041 L62.9458158,28.0095113 C64.3757927,26.5684735 65.862908,25.2192055 67.4010939,23.9177588 C67.9600051,23.476422 68.5227931,23.168446 69.1516525,23.0349168 C69.7144405,22.9778344 70.2291917,23.1017656 70.7373695,23.3208344 C71.0678957,23.5779581 71.3031913,23.8541093 71.4746065,24.2444254 C71.6972608,24.6510749 71.8910932,25.0888756 72.0085724,25.5303808 C72.4312954,25.0191643 72.9140222,24.5746282 73.4036595,24.1428893 L74.1312891,23.5779581 C74.5314265,23.3844838 74.8653237,23.3019753 75.2052888,23.3208344 C75.8311143,23.3019753 76.3999701,23.3844838 76.9624209,23.5461333 C77.4104264,23.7335457 77.7535939,24.0477519 78.0682764,24.4890887 C78.2875598,24.8667759 78.3797565,25.273257 78.3797565,25.7779065 C78.3797565,26.3462055 78.2336238,26.8126316 77.9572021,27.2541368 L77.1596242,28.1714976 C76.9052825,28.2255491 76.558744,28.2255491 76.1966989,28.1332742 L75.3099582,27.641422 L74.9829715,26.7205251 L74.9829715,26.2542674 L74.4997391,26.1523945 L74.1597741,26.1523945 C73.8769474,26.5304186 73.6831151,26.9081058 73.5149024,27.2857931 C73.3401162,27.6953052 73.2860117,28.1332742 73.3401162,28.5523842 C73.5149024,29.2476454 73.8452601,29.7078412 74.3315264,29.9301093 C74.9829715,30.3650474 75.72004,30.4441883 76.5081791,30.1870646 C77.353288,30.0030199 78.1508658,29.6443601 78.885069,29.0826282 C79.3998202,28.7650543 79.8383869,28.3871986 80.2990336,27.9810543 C80.724622,27.603367 81.1537499,27.1936866 81.5382121,26.7779443 C82.3706797,26.0192021 83.2318009,25.3173739 84.2041649,24.6510749 L84.8780272,24.1683155 C85.0558473,24.0477519 85.3894074,23.9177588 85.834379,23.7556041 C86.2982282,23.5461333 86.8608476,23.476422 87.4581882,23.5461333 C88.0841824,23.5461333 88.5862923,23.6666969 88.9292913,23.8256522 C89.2979098,24.0794082 89.606356,24.3653258 89.8413145,24.679532 C90.1750432,24.9873395 90.4260139,25.3173739 90.6483311,25.6859684 L96.3363827,16.3369031 L100.13044,16.3209065 L90.2862861,33.0698137 L90.1177362,33.8918687 L90.1177362,34.463367 L90.2257767,34.8316247 Z M42.2404787,33.9267244 C41.2490686,34.9966419 40.146584,35.8631505 38.9834216,36.5649787 C37.8807685,37.1932227 36.8608734,37.6409581 35.8724971,37.9171093 C34.852602,38.2316522 33.7752314,38.1395457 32.6408909,37.7330646 C31.4907068,37.2950955 30.635822,36.8441608 30.184614,36.4028241 C29.6985163,35.9456591 29.2473083,35.3458722 28.7991343,34.5554735 C28.3479264,33.7650749 28.1192042,32.701556 28.1763426,31.3460577 C28.2589321,30.0030199 28.579851,28.6032364 29.1647189,27.2857931 C29.5014815,26.5684735 29.9368458,25.873044 30.4992966,25.2444632 C31.1507417,24.5746282 31.8020183,23.8921643 32.4725096,23.2001024 L33.0191168,22.8858962 L33.7752314,22.9429787 L34.2296417,23.2001024 L34.5158394,23.6096144 C34.6269137,23.8256522 34.5697753,24.1428893 34.3663357,24.5746282 C33.7752314,25.2444632 33.1874981,25.9047003 32.5899889,26.5304186 C32.3041283,26.8446247 32.0529891,27.1526007 31.8242669,27.5398859 C31.6051521,27.8508928 31.4049149,28.1937244 31.2618161,28.5747794 L31.0934348,29.5556213 L31.2045091,30.4952089 C31.3572153,31.155446 31.5446427,31.6983189 31.8242669,32.1334254 C32.110296,32.5426007 32.3929541,32.8537759 32.7076367,33.0698137 C33.6355035,33.5109821 34.6269137,33.5744632 35.6818672,33.2284323 C36.7179431,32.917257 37.7791329,32.3524942 38.8118378,31.5967828 C39.8669598,30.8094151 40.9091035,29.7398344 41.989508,28.3871986 C42.7808496,27.3777313 43.5624152,26.3462055 44.2804375,25.2444632 C45.0336868,24.1428893 45.7645189,23.0349168 46.4859122,21.9335113 C46.1425762,22.1018962 45.8058136,22.2605148 45.4053392,22.384446 L44.4744384,22.7587656 L43.5116817,23.0349168 L42.6028609,23.3208344 L42.1039534,23.3208344 L41.8369704,23.0349168 L42.2723347,22.1369203 C43.1969991,21.6797553 44.1090223,21.2540784 45.0082357,20.841367 C45.491131,20.6192674 45.9425075,20.4510509 46.4031543,20.3400852 C46.9369516,20.206556 47.4709175,20.0829615 47.9920736,19.9620612 C49.3106391,18.3208137 50.6104955,16.8065285 51.948107,15.3338344 C53.4195472,13.7212124 54.9223376,12.1591058 56.4731647,10.5783086 C54.9223376,10.2417072 53.3622402,9.88304742 51.8051768,9.60992715 C50.419697,9.38782749 49.027981,9.30211959 47.6647498,9.38782749 C46.4031543,9.45130859 45.1575709,9.67037732 43.9342361,10.1211436 C42.7808496,10.6101333 41.674994,11.2735698 40.6262769,12.0893945 C39.9748317,12.6322674 39.4663169,13.3529546 39.0692134,14.2354598 C38.9008321,14.5750921 38.8755497,15.0162605 38.9294856,15.4924529 C38.9834216,15.9051643 39.1327567,16.2764529 39.4125495,16.5019203 C39.803248,16.8796076 40.2640633,17.0638206 40.7439247,17.0638206 C41.277722,17.0638206 41.7894394,16.9020027 42.2404787,16.5970577 C43.4004388,15.7782021 44.5347792,14.924154 45.6374323,14.0098241 L46.285675,14.0098241 C46.4602927,14.2925423 46.4031543,14.6416041 46.1998831,15.0827725 C45.6628833,16.124233 45.0082357,17.1306694 44.3026861,18.0446625 C43.6959067,18.8544254 42.9713109,19.5176935 42.1831718,20.0829615 C41.3921674,20.6192674 40.5691385,20.841367 39.6952076,20.8669615 C38.8118378,20.9334735 37.9601555,20.6893155 37.1944335,20.1176488 C36.5780467,19.6161986 36.1268388,18.9525938 35.8376073,18.1020818 C35.6405725,17.1621574 35.6405725,16.2447966 35.8376073,15.3338344 C36.0791392,14.2354598 36.5016936,13.1909684 37.1467339,12.286068 C38.0204963,11.1434082 39.0533697,10.2100509 40.1973175,9.41965223 C41.3031731,8.80050103 42.4725719,8.29265223 43.6959067,7.91159725 C45.0623402,7.59099244 46.4602927,7.40071753 47.8966744,7.34666598 C49.5681832,7.25775876 51.2110386,7.30541168 52.9142347,7.56590309 C54.6078236,7.81965911 56.3238295,8.09564192 58.0555106,8.47686529 C60.1591813,8.82592715 62.2532445,9.08305086 64.3757927,9.25463505 C67.9064063,9.48633265 71.4144342,9.51782062 74.8968425,9.38782749 C76.7589812,9.30211959 78.6371321,9.19418488 80.5277557,9.04499588 L81.3730332,9.23560756 L81.7160321,9.60992715 C81.801824,9.80053883 81.7160321,10.1211436 81.3730332,10.5181952 C80.6135476,11.3336832 79.7301779,11.9370062 78.79894,12.3781746 C77.5344791,13.0608069 76.1966989,13.4797485 74.8332992,13.6036797 C73.0857745,13.803721 71.2745378,13.803721 69.4316138,13.5720234 C67.2199028,13.2544495 64.9955505,12.854367 62.70125,12.3180612 C61.4524642,11.9370062 60.1718225,11.5593189 58.8723032,11.1434082 L58.0904005,11.7751883 C57.0386494,12.816312 55.9868984,13.9178859 55.0050956,15.0162605 C53.8356967,16.5019203 52.7139975,18.0096385 51.6367955,19.5527175 C52.3517839,19.4828378 53.0858185,19.4193567 53.7817608,19.3590749 C54.1535817,19.3590749 54.5157954,19.3590749 54.8619967,19.4193567 C55.2498299,19.4193567 55.5928289,19.4511814 55.9393673,19.5176935 C55.9868984,18.7939753 56.0760613,18.0446625 56.196743,17.2606625 L56.4475451,16.5019203 C56.641546,16.0922399 56.8670657,15.7782021 57.0895515,15.4924529 L57.8045399,15.0162605 L58.0555106,14.9908344 L58.6498174,15.0162605 L59.301094,15.2669856 L59.9240542,15.8351162 L60.1305278,16.3717588 L60.0669845,17.1306694 C59.7905627,17.9749512 59.4123369,18.6954701 58.9358465,19.3590749 C58.7356093,19.7399615 58.4209267,20.0225113 58.0332621,20.2385491 L58.11602,20.6478928 L58.3415397,20.841367 L58.48447,21.222422 L58.3415397,21.4667485 L58.11602,21.752666 L57.6648121,21.7747244 L57.3629393,21.6607278 L57.0386494,21.371611 L56.7812738,20.9050165 L56.536708,20.5271608 C56.0536441,20.5271608 55.5420954,20.5271608 55.0590315,20.5461883 C54.5473142,20.6192674 54.0135168,20.6893155 53.4733146,20.6893155 C52.9968242,20.7398309 52.5488187,20.809879 52.0657548,20.8669615 C51.5478012,20.9334735 51.0392863,20.9619306 50.556391,20.9619306 C48.7800442,24.2444254 46.9084667,27.4444117 44.8653055,30.6061746 C44.0803689,31.8507072 43.2256526,32.9522811 42.2404787,33.9267244 L42.2404787,33.9267244 Z M114.559992,13.9178859 C112.56453,12.5687863 110.464062,11.400532 108.255554,10.4257519 C105.770792,9.35280344 103.18726,8.37179313 100.527543,7.52448041 C97.4740942,6.58489278 94.3726085,5.73404399 91.2205579,5.05141168 C89.205713,4.60704399 87.2038465,4.19753196 85.1638878,3.84830172 C81.8908183,3.5054701 78.6371321,3.22292027 75.3386117,3.00082062 C71.5000575,2.78478282 67.5915552,2.62313333 63.6640067,2.56571409 C61.7924292,2.56571409 59.8986032,2.59114021 58.0332621,2.65782062 C56.0187543,2.78478282 54.0357654,2.96882749 52.030865,3.1624701 C48.4368767,3.56575189 44.811201,4.00388935 41.1951326,4.60704399 C37.9126244,5.17231203 34.6587697,5.86117457 31.4049149,6.67699931 C28.5195101,7.47379656 25.6851759,8.34030515 22.860112,9.41965223 C20.4228812,10.3562089 18.0716109,11.4988687 15.8408537,12.7846557 C13.9406228,13.8608034 12.1929294,15.1241952 10.5215892,16.5970577 C9.27583729,17.7178275 8.14469929,18.9845869 7.1532891,20.4352227 C6.70511507,21.1208859 6.39060106,21.8127794 6.16187892,22.5684907 C5.99653152,23.3019753 5.93939312,24.0477519 5.93939312,24.7652399 C5.93939312,25.4889581 6.025185,26.1842192 6.1841275,26.8794804 C6.39060106,27.6604495 6.73376854,28.3871986 7.18177403,28.9809237 C8.19863524,30.4635526 9.36483161,31.7587691 10.6360345,32.8537759 C12.3105772,34.3333739 14.0869241,35.5555113 15.9805816,36.6094323 C18.2207775,37.8980818 20.594465,38.9299443 23.0286618,39.7774254 C25.862996,40.8503739 28.7165449,41.7583052 31.5795325,42.4821918 C34.852602,43.3013842 38.1349416,43.9521918 41.3921674,44.4630715 C45.0336868,45.0535973 48.6689698,45.5009959 52.2627896,45.8503945 C54.2646561,45.9995835 56.244274,46.1327759 58.2240605,46.1996247 C64.0580763,46.3552124 69.8351222,46.1518034 75.5707048,45.6218962 C78.8309645,45.3518069 82.1101017,44.996178 85.3673274,44.5299203 C87.3976788,44.2059478 89.4410086,43.8060337 91.4174241,43.3013842 C94.5634069,42.606123 97.6487118,41.7583052 100.696093,40.7522055 C103.330359,39.9298137 105.898047,38.9299443 108.395618,37.7330646 C110.597722,36.7013704 112.697853,35.4379787 114.684045,34.0221986 C116.206218,32.9522811 117.588327,31.6538653 118.811493,30.1205526 C119.803072,28.9524667 120.483339,27.568343 120.880443,26.0192021 C121.2108,24.679532 121.185349,23.3019753 120.816899,21.9048859 C120.454349,20.3651746 119.739697,18.9845869 118.760928,17.7494838 C117.505738,16.2764529 116.117055,14.9908344 114.559992,13.9178859 L114.559992,13.9178859 Z" id="Fill-3"></path>
                <path d="M87.2960264,26.7205756 C87.0546631,26.5969811 86.7431829,26.5683557 86.3172575,26.6160086 C85.923188,26.5969811 85.5294555,26.7779948 85.106564,27.1620808 L84.5570915,27.6478711 L84.4455115,27.7524381 L84.185102,28.0890395 C83.5051719,28.9525172 82.9840158,29.8858746 82.577305,30.8633488 C82.3229633,31.5015275 82.1387383,32.1679948 82.0305293,32.8284003 L82.2149228,33.5617165 C82.4502184,33.9267749 82.7711373,34.1682388 83.1301485,34.2793729 C83.5051719,34.3649124 83.8769928,34.3649124 84.2171264,34.2793729 L85.0558305,33.8632938 C85.7072756,33.1047199 86.3172575,32.2794656 86.8702695,31.4190189 C87.343726,30.7016993 87.6804886,29.945988 87.8583087,29.2030739 C88.0811316,28.4443316 88.0491071,27.8064897 87.8583087,27.2858436 L87.2960264,26.7205756 Z" id="Fill-5"></path>
                <path d="M59.0787767,17.3113632 C59.351996,16.0227137 56.4922108,15.0447344 57.3310834,19.0635763 C57.3310834,19.0635763 58.802355,18.5973186 59.0787767,17.3113632" id="Fill-7"></path>
            </g>
        </g>
    </g>
</svg>