<svg width="160" height="160" viewBox="0 0 160 160" xmlns="http://www.w3.org/2000/svg" xmlns:xlink="http://www.w3.org/1999/xlink"><title>21F544CD-E02B-406E-AA3E-D89F42263D42</title><defs><path id="a" d="M.068 8.18h113.327V.263H.068v7.919z"/><path id="c" d="M0 61.642h113.429V0H0z"/></defs><g transform="translate(23 49)" fill="none" fill-rule="evenodd"><g transform="translate(0 53.461)"><mask id="b" fill="#fff"><use xlink:href="#a"/></mask><path d="M.068 8.143V.263h113.324c0 2.517.017 4.948-.03 7.379-.004.192-.445.538-.683.538-7.16.006-14.32-.034-21.479-.043-7.375-.008-14.75.012-22.126.013-7.34.001-14.679-.006-22.018-.008-7.376-.001-14.751 0-22.127.001H.068" fill="#FFF" mask="url(#b)"/></g><mask id="d" fill="#fff"><use xlink:href="#c"/></mask><path fill="#FFF" mask="url(#d)" d="M.059 7.756h113.28V0H.058zM72.399 27.63c1.486 0 2.903.029 4.319-.014a7.375 7.375 0 0 0 1.891-.297c1.085-.328 1.637-1.173 1.664-2.359.028-1.229-.508-2.286-1.65-2.441-2.049-.278-4.134-.28-6.224-.4v5.51zm-.023 11.517c2.165 0 4.204.107 6.224-.037 1.399-.1 2.245-1.22 2.305-2.552.066-1.483-.62-2.731-2.026-2.864-2.14-.202-4.315-.053-6.503-.053v5.506zm-7.504 6.63V15.743c2.328 0 4.604-.021 6.88.006 2.682.032 5.364.062 8.041.19.913.042 1.843.29 2.714.593 4.609 1.601 6.61 6.815 4.172 11.053-.6 1.042-1.628 1.839-2.496 2.79-.037-.03.077.098.22.173 3.233 1.705 4.342 4.494 4.039 7.983-.277 3.194-2.26 5.67-5.49 6.572-1.497.418-3.096.616-4.654.645-4.432.084-8.867.03-13.426.03zM31.505 29.468c2.118 0 4.114.122 6.088-.036 1.858-.148 3.18-1.546 3.57-3.362.465-2.164-.418-3.44-2.628-3.593-1.637-.113-3.284-.075-4.927-.063-.22.001-.593.212-.634.387-.518 2.217-.988 4.445-1.47 6.667m9.446 5.583l4.728 10.717H43.51c-1.825.001-3.653-.046-5.477.026-.79.032-1.13-.26-1.41-.953-1.094-2.726-2.31-5.404-3.347-8.15-.548-1.452-1.65-.746-2.526-.879-.926-.14-.746.727-.852 1.193-.606 2.654-1.134 5.326-1.734 7.982-.067.296-.418.747-.646.752-2.354.056-4.711.035-7.224.035.428-2.052.823-3.97 1.23-5.885 1.628-7.675 3.271-15.346 4.876-23.026.176-.843.463-1.152 1.397-1.135 4.006.074 8.015-.01 12.022.07 1.416.027 2.876.18 4.23.576 3.527 1.033 5.43 4.086 5.052 7.759-.536 5.206-3.106 8.903-8.151 10.918M99.682 33.9c0 1.544.006 2.975-.003 4.405-.005.747.53.627.98.627 3.545.002 7.09-.011 10.634 0 2.565.008 2.072-.242 2.116 2.085.025 1.326-.008 2.654.008 3.98.006.524-.153.787-.733.786-6.833-.012-13.666-.007-20.587-.007V15.744h7.006c4.294.001 8.587.01 12.881-.002 1.427-.005 1.428-.03 1.43 1.38 0 1.47-.035 2.942.013 4.41.026.798-.234 1.043-1.046 1.035-3.973-.04-7.947-.015-11.92-.01-.208.001-.416.043-.772.081 0 1.378-.034 2.728.038 4.073.01.188.539.497.83.5 3.508.033 7.017.058 10.524-.008.97-.018 1.244.268 1.2 1.205a51.31 51.31 0 0 0-.004 4.41c.031.819-.28 1.046-1.056 1.039-3.437-.03-6.874-.013-10.31-.009-.353 0-.705.03-1.23.052M7.508 45.776V22.564H4.03c-1.074 0-2.15.04-3.22-.027-.28-.017-.766-.359-.771-.562-.058-2.032-.036-4.067-.036-6.166H22.82c-.193.952-.363 1.807-.541 2.66-.213 1.017-.464 2.028-.642 3.052-.13.742-.406 1.108-1.256 1.051-1.32-.088-2.65.013-3.972-.053-.847-.042-1.099.234-1.095 1.09.033 6.922.02 13.844.018 20.767 0 1.382-.002 1.392-1.412 1.397-2.103.009-4.206.003-6.411.003M52.586 45.694h7.704V15.866h-7.704z"/></g></svg>