<?xml version="1.0" encoding="UTF-8"?>
<svg width="160px" height="160px" viewBox="0 0 160 160" version="1.1" xmlns="http://www.w3.org/2000/svg" xmlns:xlink="http://www.w3.org/1999/xlink">
    <!-- Generator: Sketch 42 (36781) - http://www.bohemiancoding.com/sketch -->
    <title>logo-bmw-group</title>
    <desc>Created with Sketch.</desc>
    <defs>
        <polygon id="path-1" points="0.11376622 64.5819396 131.049361 64.5819396 131.049361 0.436628163 0.11376622 0.436628163"></polygon>
    </defs>
    <g id="**Symbols**" stroke="none" stroke-width="1" fill="none" fill-rule="evenodd">
        <g id="logo-bmw-group">
            <g id="BMW_Group" transform="translate(14.000000, 47.000000)">
                <g id="svg2">
                    <g id="g3717" transform="translate(0.143732, 0.107383)">
                        <g id="g103-Clipped">
                            <mask id="mask-2" fill="white">
                                <use xlink:href="#path-1"></use>
                            </mask>
                            <g id="path67"></g>
                            <g id="g103" mask="url(#mask-2)" fill="#000000">
                                <g transform="translate(3.515060, 1.363085)">
                                    <path d="M108.94182,36.8471931 L114.491937,36.8471931 C115.840866,36.8471931 116.905383,37.1885161 117.677362,37.8630481 C118.457466,38.5375802 118.847518,39.4965342 118.847518,40.7237032 C118.847518,41.9670999 118.424961,42.9748411 117.579849,43.7225019 C116.76724,44.4376657 115.718974,44.7871233 114.426928,44.7871233 L108.94182,44.7871233 L108.94182,36.8471931 Z M108.94182,58.8303392 L108.94182,49.2812853 L115.003878,49.2812853 C117.896764,49.2812853 120.220825,48.5336036 121.967934,47.0382612 C123.796303,45.46979 124.706424,43.3730651 124.706424,40.7399517 C124.706424,38.1474909 123.918194,36.0995115 122.325482,34.5879205 C120.740895,33.1007128 118.5306,32.3611658 115.710848,32.3611658 L103.27794,32.3611658 L103.27794,58.8303392 L108.94182,58.8303392 Z M78.1520877,48.5092413 C78.1520877,51.8493629 79.0297048,54.4662278 80.7930646,56.3760427 C82.6864417,58.432136 85.514319,59.4642395 89.2766966,59.4642395 C92.9334334,59.4642395 95.6963021,58.5133994 97.5734281,56.619833 C99.491184,54.6856556 100.450063,51.9875274 100.450063,48.5092413 L100.450063,32.3611658 L94.7292996,32.3611658 L94.7292996,48.8911959 C94.7292996,52.7758407 92.9253079,54.7181527 89.325452,54.7181527 C85.6930939,54.7181527 83.872851,52.7758407 83.872851,48.8911959 L83.872851,32.3611658 L78.1520877,32.3611658 L78.1520877,48.5092413 Z M68.3682823,38.9764151 C69.6034471,40.6017873 70.2210295,42.8122935 70.2210295,45.6160683 C70.2210295,48.6717681 69.4734297,51.0204387 67.9863558,52.6620594 C66.7593165,54.0273721 65.1340997,54.7181527 63.135084,54.7181527 C60.9004103,54.7181527 59.1533017,53.8810938 57.8937581,52.2150899 C56.6829721,50.5978315 56.0735152,48.4035739 56.0735152,45.6160683 C56.0735152,42.8122935 56.6829721,40.6017873 57.8937581,38.9764151 C59.1614272,37.2941626 60.8841571,36.4571038 63.0700753,36.4571038 C65.3210001,36.4571038 67.0924855,37.2941626 68.3682823,38.9764151 L68.3682823,38.9764151 Z M53.6438176,35.4331141 C51.3766396,37.871162 50.2471133,41.2763193 50.2471133,45.624203 C50.2471133,50.3865384 51.6041699,53.9786057 54.3101555,56.4166744 C56.5610803,58.4483845 59.5027238,59.4642395 63.135084,59.4642395 C67.1818729,59.4642395 70.3510468,58.2289567 72.634476,55.7583909 C74.9097796,53.3122083 76.0474314,49.9395688 76.0474314,45.624203 C76.0474314,41.3007025 74.9097796,37.8955452 72.634476,35.4331141 C70.3591724,32.9544137 67.2306305,31.7272654 63.2407226,31.7272654 C59.1289229,31.7272654 55.9272467,32.9625483 53.6438176,35.4331141 L53.6438176,35.4331141 Z M32.9629316,36.8471931 L38.4805433,36.8471931 C40.0001216,36.8471931 41.1296478,37.1153665 41.8772476,37.6598688 C42.6329729,38.2043711 43.0067717,39.1064449 43.0067717,40.3661109 C43.0067717,42.8204281 41.4953211,44.0475764 38.4805433,44.0475764 L32.9629316,44.0475764 L32.9629316,36.8471931 Z M32.9629316,58.8303392 L32.9629316,48.5092413 L38.6511906,48.5092413 L43.4699601,58.8303392 L49.88144,58.8303392 L44.2094322,47.566515 C47.3135974,46.1280528 48.86568,43.7631544 48.86568,40.4717575 C48.86568,38.1556047 48.2724743,36.3351878 47.0860671,34.9861445 C45.5664888,33.2307425 43.1855466,32.3611658 39.951364,32.3611658 L27.2584215,32.3611658 L27.2584215,58.8303392 L32.9629316,58.8303392 Z M21.8789526,35.0186416 C19.9855755,32.8243839 17.0601852,31.7272654 13.1027816,31.7272654 C9.0559927,31.7272654 5.89494644,32.9950454 3.60338964,35.530626 C1.35246481,38.0255749 0.231064146,41.4632502 0.231064146,45.8517447 C0.231064146,50.7197475 1.57999517,54.3524465 4.29410628,56.7417489 C6.34187951,58.5540311 8.98285846,59.4642395 12.2332922,59.4642395 C15.7600117,59.4642395 18.4172418,58.3589864 20.1968547,56.1566149 L20.7981839,58.8303392 L24.4549229,58.8303392 L24.4549229,44.827755 L14.6304855,44.827755 L14.6304855,48.9724593 L18.8804281,48.9724593 L18.8804281,50.1914937 C18.8804281,51.5486717 18.3034756,52.6620594 17.1495726,53.5153877 C16.0525507,54.3199287 14.6548642,54.7181527 12.9646387,54.7181527 C10.7624694,54.7181527 9.06411826,53.9623572 7.877711,52.4507663 C6.66692288,50.9310407 6.05746812,48.736783 6.05746812,45.8679932 C6.05746812,42.9179609 6.63441855,40.6261705 7.78832355,38.9926844 C8.99098402,37.3022973 10.6893351,36.4571038 12.89963,36.4571038 C15.9712909,36.4571038 18.0109365,38.0580928 19.018571,41.2763193 L24.3817866,39.9679077 C23.8129617,37.928063 22.9759745,36.270173 21.8789526,35.0186416 L21.8789526,35.0186416 Z" id="path105"></path>
                                    <path d="M69.4978064,26.6235863 L74.4222145,7.93181636 L79.0865859,26.6235863 L85.2867887,26.6235863 L91.7145218,0.146278297 L85.8881199,0.146278297 L81.8900865,19.2444069 L77.3719836,0.146278297 L71.7081013,0.146278297 L67.0356044,19.2444069 L63.1432096,0.146278297 L57.1705371,0.146278297 L63.2407226,26.6235863 L69.4978064,26.6235863 Z M31.7602711,26.6402301 L31.7602711,7.77777789 L38.0336081,26.6402301 L42.7142327,26.6402301 L48.9550654,7.77777789 L48.9550654,26.6402301 L54.3751641,26.6402301 L54.3751641,0.171035967 L46.8829155,0.171035967 L40.5039378,19.8299154 L34.0437023,0.171035967 L26.3808044,0.171035967 L26.3808044,26.6402301 L31.7602711,26.6402301 Z M6.79694023,4.65706325 L12.8264958,4.65706325 C14.0047775,4.65706325 14.8986478,4.79520689 15.5243558,5.07153577 C16.5401158,5.51850532 17.0439341,6.36369887 17.0439341,7.60711641 C17.0439341,8.63921995 16.710763,9.39501543 16.0525507,9.87450283 C15.4105896,10.3539902 14.3379464,10.5896666 12.8264958,10.5896666 L6.79694023,10.5896666 L6.79694023,4.65706325 Z M6.79694023,15.0513107 L12.7614871,15.0513107 C14.3379464,15.0513107 15.5162302,15.2545733 16.2963343,15.652714 C17.3120943,16.1728331 17.8159105,17.1561703 17.8159105,18.578384 C17.8159105,19.7730352 17.4989948,20.6344772 16.8570336,21.1708449 C16.0769295,21.8209937 14.7117473,22.1460682 12.7614871,22.1460682 L6.79694023,22.1460682 L6.79694023,15.0513107 Z M12.6558485,26.6402301 C19.93682,26.6402301 23.5773058,23.9827336 23.5773058,18.6840306 C23.5773058,15.7339774 22.1633661,13.6941327 19.3273632,12.5644964 C21.6026668,11.467378 22.7403186,9.57381157 22.7403186,6.89195264 C22.7403186,4.53516814 21.8058184,2.7716315 19.9449456,1.59322884 C18.4578717,0.642388705 16.4426028,0.171035967 13.8910134,0.171035967 L1.17368992,0.171035967 L1.17368992,26.6402301 L12.6558485,26.6402301 Z" id="path107"></path>
                                </g>
                            </g>
                        </g>
                    </g>
                </g>
            </g>
        </g>
    </g>
</svg>