<?xml version="1.0" encoding="UTF-8"?>
<svg width="160px" height="160px" viewBox="0 0 160 160" version="1.1" xmlns="http://www.w3.org/2000/svg" xmlns:xlink="http://www.w3.org/1999/xlink">
    <!-- Generator: Sketch 42 (36781) - http://www.bohemiancoding.com/sketch -->
    <title>logo-sky</title>
    <desc>Created with Sketch.</desc>
    <defs></defs>
    <g id="**Symbols**" stroke="none" stroke-width="1" fill="none" fill-rule="evenodd">
        <g id="logo-sky" fill="#221E1F">
            <g id="SKY_Basic_Logo" transform="translate(20.000000, 44.000000)">
                <g id="svg2">
                    <g id="layer1" transform="translate(0.247437, 0.333604)">
                        <path d="M51.4968845,51.2347649 C51.4968845,54.955257 50.0399362,57.0672348 42.8124337,57.0672348 C41.8623822,57.0672348 41.0366612,57.0101457 40.2141332,56.8960067 L40.2141332,7.69184042 C40.2141332,3.957973 41.4797769,0.0563481081 48.7710215,0.0563481081 C49.7243439,0.0563481081 50.6106142,0.140226849 51.4968845,0.3417542 L51.4968845,51.2347649 Z M36.028086,43.783954 C36.028086,50.7009202 31.5264465,55.7610544 22.3956092,56.7515684 C15.7387459,57.4668189 6.10100777,56.6306831 1.53882689,56.1102528 C1.34752226,55.3614703 1.22003781,54.431317 1.22003781,53.6825696 C1.22003781,47.6386677 4.45275868,46.2418975 7.56123095,46.2418975 C10.7302096,46.2418975 15.7387459,46.8194169 19.4816774,46.8194169 C23.5369653,46.8194169 24.805841,45.4361 24.805841,44.1063276 C24.805841,42.3671013 23.1575919,41.6451436 19.9886133,41.044075 L11.2371065,39.3618988 C4.00960405,37.9684081 0.142423904,32.9688335 0.142423904,27.6500829 C0.142423904,21.1629612 4.70784453,15.7469604 13.7111195,14.7631887 C20.4954672,14.0144023 28.8005836,14.850538 33.3660042,15.4044653 C33.554073,16.183512 33.6178542,16.9389627 33.6178542,17.7180094 C33.6178542,23.7685796 30.4488365,25.0747248 27.3403604,25.0747248 C25.0608879,25.0747248 21.3817765,24.6382122 17.1989652,24.6382122 C12.9491757,24.6382122 11.1733642,25.8168041 11.1733642,27.2371234 C11.1733642,28.744835 12.8853945,29.3491441 15.4869349,29.8360386 L23.8557895,31.370575 C32.3521715,32.931827 36.028086,37.7971411 36.028086,43.783954 L36.028086,43.783954 Z M81.8032932,70.279782 C82.7566196,70.7800869 84.6567225,71.3509381 87.1307355,71.4146953 C91.3135079,71.4953765 93.5962163,69.9104582 95.3082505,66.1195408 L117.880299,15.8040494 C116.993838,15.3139184 114.89935,14.7564815 113.18732,14.73636 C110.333933,14.6726028 106.402972,15.2501222 103.932191,21.1798461 L96.6409463,38.4250384 L82.3102291,15.1056838 C81.3601815,14.8202777 79.1412114,14.4206936 77.4929624,14.4206936 C72.4206449,14.4206936 69.5672585,16.2708574 66.6501298,19.4505285 L52.7657991,34.7013487 L63.9242629,52.3126321 C66.0189064,55.5327373 68.7447694,57.1747056 73.1188854,57.1747056 C76.036014,57.1747056 78.4430489,56.5098369 79.5843661,55.9591112 L66.143194,35.6449553 L75.6534047,25.4944305 L91.3135079,50.1167327 L81.8032932,70.279782 Z" id="path5944"></path>
                    </g>
                </g>
            </g>
        </g>
    </g>
</svg>