<svg width="160" height="160" viewBox="0 0 160 160" xmlns="http://www.w3.org/2000/svg"><title>07AAF036-50AC-4013-AEA5-0AFB042B34E7</title><g fill="#FFF" fill-rule="evenodd"><path d="M34.874 85.71c.775-.817 1.442-1.507 2.002-2.067l1.485-1.486c.43-.43.84-.808 1.227-1.13.388-.324.775-.657 1.163-1.002.86-.732 1.57-1.249 2.13-1.55.56-.301 1.099-.453 1.615-.453.732 0 1.389.27 1.97.808.58.539.871 1.153.871 1.84 0 .518-.14 1.046-.42 1.584-.28.539-.786 1.281-1.517 2.228-3.358 4.393-5.037 7.235-5.037 8.527 0 .56.28.84.84.84.43 0 .904-.182 1.42-.549.517-.365 1.184-1 2.003-1.905.43-.474.957-1.12 1.581-1.938a57.65 57.65 0 0 0 1.647-2.262c.473-.688.872-1.162 1.195-1.42.323-.26.699-.389 1.13-.389a1.5 1.5 0 0 1 1.098.453c.3.302.452.668.452 1.098 0 .819-.377 1.906-1.13 3.262-.754 1.357-1.734 2.745-2.938 4.166-1.507 1.81-3.046 3.21-4.617 4.2-1.572.99-3.002 1.486-4.294 1.486-1.206 0-2.196-.399-2.97-1.195-.776-.797-1.163-1.82-1.163-3.069 0-.646.053-1.259.161-1.84.107-.583.268-1.184.485-1.81.214-.624.516-1.291.904-2.002.387-.71.881-1.496 1.485-2.358.042-.085.15-.258.323-.516-1.12.862-2.228 1.948-3.325 3.262-1.098 1.314-2.207 3.003-3.326 5.071-.818 1.379-1.442 2.293-1.873 2.745-.43.453-.968.679-1.614.679-.69 0-1.26-.247-1.711-.743-.453-.495-.679-1.108-.679-1.84 0-.474.054-.938.162-1.39.107-.452.333-1.066.678-1.841.215-.603.494-1.26.84-1.97.344-.71.645-1.26.904-1.647l1.227-2.132c.085-.086.215-.3.387-.646-.862.69-1.7 1.475-2.518 2.358a47.862 47.862 0 0 0-2.357 2.745 26.565 26.565 0 0 0-2.002 2.875 23.512 23.512 0 0 0-1.453 2.81c-.517 1.205-.979 2.012-1.389 2.422-.408.409-.936.613-1.582.613s-1.183-.258-1.614-.774c-.43-.517-.646-1.184-.646-2.004 0-1.635.797-4.457 2.389-8.462a57.871 57.871 0 0 1 2.938-6.33c1.054-1.939 2.098-3.596 3.131-4.975.602-.775 1.12-1.324 1.55-1.647.43-.323.904-.484 1.42-.484.56 0 1.044.194 1.454.581.408.388.613.863.613 1.422 0 .43-.096.883-.29 1.356-.194.475-.657 1.292-1.389 2.455-.129.216-.323.549-.58 1.001-.26.452-.582 1.024-.97 1.712l-.71 1.422a139.936 139.936 0 0 1 3.39-3.94c.969-1.077 1.818-1.939 2.55-2.584.732-.646 1.389-1.12 1.97-1.422.581-.3 1.108-.452 1.581-.452.603 0 1.12.205 1.55.614.43.41.646.915.646 1.517 0 .388-.087.82-.258 1.292-.173.475-.54 1.206-1.098 2.197l-1.356 2.455-.517.97.776-.842z"/><path d="M51.081 97.985c-1.205 0-2.206-.474-3.003-1.422-.796-.946-1.194-2.174-1.194-3.682 0-1.637.387-3.445 1.162-5.427a23.524 23.524 0 0 1 3.164-5.62c1.507-2.023 3.067-3.562 4.682-4.618 1.614-1.055 3.175-1.583 4.681-1.583 1.378 0 2.497.43 3.358 1.292.862.862 1.292 2.024 1.292 3.488 0 .517-.055.98-.161 1.39-.108.41-.27.893-.485 1.453.43.345.71.625.84.84.129.216.194.452.194.71 0 .216-.043.431-.129.646-.087.216-.302.517-.646.905-.646.862-1.162 1.68-1.55 2.455-.387.775-.582 1.4-.582 1.873 0 .69.367 1.035 1.1 1.035.645 0 1.387-.389 2.226-1.164.841-.775 1.884-2.024 3.133-3.746.775-1.034 1.507-1.55 2.195-1.55.473 0 .85.15 1.13.451.28.302.42.69.42 1.163 0 .733-.346 1.68-1.033 2.843-.689 1.163-1.638 2.37-2.842 3.618-2.799 2.929-5.467 4.392-8.007 4.392-.947 0-1.743-.333-2.39-1-.645-.668-.968-1.476-.968-2.424v-.581c-2.067 2.84-4.263 4.263-6.587 4.263zm6.2-9.11c-.13-.387-.194-.624-.194-.71 0-.259.108-.495.323-.711l1.032-1.098c.517-.517.979-1.163 1.389-1.939.408-.775.613-1.377.613-1.809 0-.688-.346-1.033-1.033-1.033-.56 0-1.238.312-2.034.936-.797.625-1.561 1.454-2.292 2.487-.69.992-1.26 2.025-1.711 3.1-.452 1.078-.678 1.918-.678 2.52 0 .733.323 1.1.968 1.1.474 0 .947-.173 1.421-.518.473-.344 1.076-.97 1.808-1.874.043-.084.171-.235.387-.45z"/><path d="M79.752 86.744a25.887 25.887 0 0 0-4.585 4.038c-1.42 1.573-2.518 3.155-3.293 4.748l-1.421 2.97c-.344.69-.71 1.174-1.098 1.455-.387.279-.882.42-1.485.42-.688 0-1.248-.205-1.68-.614-.43-.41-.645-.958-.645-1.647 0-.56.14-1.346.42-2.358.28-1.012.657-2.132 1.13-3.359a55.868 55.868 0 0 1 1.646-3.811 46.316 46.316 0 0 1 1.97-3.715 46.865 46.865 0 0 1 1.904-3.003c.667-.97 1.26-1.712 1.776-2.229.86-.904 1.744-1.357 2.648-1.357.602 0 1.119.194 1.55.582.429.387.645.84.645 1.356 0 .432-.097.82-.29 1.163-.194.346-.658.948-1.389 1.81a18.074 18.074 0 0 0-1.679 2.26c-.516.819-.904 1.53-1.162 2.133l.453-.517c1.162-1.335 2.26-2.455 3.293-3.36a70.58 70.58 0 0 1 3.486-2.842c1.205-.86 2.11-1.463 2.713-1.809.602-.344 1.14-.517 1.614-.517.517 0 .98.216 1.388.646.409.431.614.905.614 1.422 0 .517-.152.98-.453 1.389-.301.41-.84.872-1.614 1.389-.733.56-1.324 1.076-1.776 1.55-.452.475-.678.84-.678 1.099 0 .345.215.516.646.516.3 0 .742-.171 1.324-.516.581-.345 1.237-.818 1.969-1.422.603-.473 1.033-.785 1.292-.937a1.53 1.53 0 0 1 .775-.226c.473 0 .86.162 1.162.485.3.323.452.722.452 1.195 0 .69-.29 1.433-.871 2.228-.582.798-1.41 1.562-2.487 2.294-2.109 1.464-4.068 2.196-5.876 2.196-.947 0-1.734-.247-2.357-.743-.625-.495-.936-1.13-.936-1.905 0-.778.301-1.596.905-2.457z"/><path d="M100.738 90.093c-1.723 2.886-3.552 5.146-5.49 6.783-1.937 1.637-3.767 2.455-5.488 2.455-1.205 0-2.206-.462-3.003-1.39-.796-.925-1.195-2.077-1.195-3.455 0-.99.184-2.12.55-3.391.366-1.27.893-2.638 1.582-4.102l2.195-4.522c.344-.602.646-1.216.904-1.841.258-.624.516-1.238.775-1.84.344-.905.72-1.529 1.13-1.874.408-.345.914-.517 1.517-.517.602 0 1.119.216 1.55.646.429.43.645.99.645 1.68 0 .603-.14 1.378-.42 2.325-.28.948-.657 1.852-1.13 2.713l-1.678 3.295A20.802 20.802 0 0 0 91.89 89.9c-.345.948-.517 1.659-.517 2.132 0 .259.075.484.226.679.15.193.333.29.55.29.43 0 .914-.258 1.452-.775.538-.516 1.237-1.334 2.1-2.455a35.461 35.461 0 0 0 1.485-2.035 9.87 9.87 0 0 0 .904-1.647c-.087-.473-.13-.84-.13-1.098v-.776c0-.904.13-1.797.388-2.68.259-.882.603-1.657 1.033-2.326a6.804 6.804 0 0 1 1.453-1.647c.538-.43 1.087-.646 1.647-.646.602 0 1.075.28 1.42.84.345.56.517 1.27.517 2.131 0 .948-.13 1.95-.388 3.004-.258 1.056-.625 1.993-1.098 2.81.215.043.43.064.646.064.775 0 1.592-.344 2.453-1.033.43-.344.775-.614 1.034-.808.258-.194.462-.344.613-.452.15-.107.28-.172.388-.194.107-.021.246-.032.42-.032.387 0 .742.161 1.065.484.323.323.484.7.484 1.13 0 .647-.216 1.304-.646 1.97a7.89 7.89 0 0 1-1.678 1.842 9.246 9.246 0 0 1-2.26 1.357c-.819.345-1.615.517-2.39.517-.388 0-.754-.033-1.098-.097a7.974 7.974 0 0 1-1.225-.356z"/><path d="M108.68 90.555c-.173.302-.29.55-.355.743-.065.194-.097.42-.097.678 0 .733.226 1.282.679 1.647.452.367 1.065.55 1.84.55 1.162 0 2.528-.517 4.1-1.55a16.315 16.315 0 0 0 4.101-3.876l1.356-1.81c.517-.645 1.055-.968 1.615-.968.473 0 .872.172 1.195.516.323.346.484.798.484 1.357 0 .775-.313 1.691-.936 2.746-.625 1.055-1.497 2.164-2.616 3.326-1.637 1.723-3.402 3.069-5.295 4.038-1.894.97-3.68 1.453-5.36 1.453-1.894 0-3.432-.613-4.616-1.84-1.184-1.228-1.776-2.81-1.776-4.749 0-1.851.41-3.747 1.227-5.685a21.887 21.887 0 0 1 3.164-5.297c1.292-1.592 2.722-2.896 4.294-3.908 1.571-1.011 3.11-1.518 4.618-1.518 1.248 0 2.26.41 3.035 1.228.775.818 1.162 1.873 1.162 3.165 0 1.25-.29 2.477-.871 3.682a12.105 12.105 0 0 1-2.26 3.23 11.302 11.302 0 0 1-3.197 2.293c-1.205.582-2.432.873-3.681.873-.345 0-.635-.033-.871-.097-.24-.066-.552-.14-.94-.227zm1.937-4.586c.171.043.312.075.42.096.107.023.247.033.42.033.473 0 .957-.107 1.453-.323a5.047 5.047 0 0 0 1.356-.872 5.179 5.179 0 0 0 1-1.195c.259-.43.388-.861.388-1.292 0-.517-.216-.775-.646-.775-.474 0-1.152.43-2.033 1.292a14.593 14.593 0 0 0-2.358 3.036z"/><path d="M124.888 91.201a.725.725 0 0 0-.065.323v.258c0 .475.183.904.55 1.293.364.387.784.581 1.258.581 1.507 0 3.766-1.916 6.78-5.75l1.099-1.291c.774-.947 1.485-1.422 2.131-1.422.43 0 .774.152 1.033.452.258.302.387.69.387 1.163 0 .388-.118.873-.354 1.454a12.76 12.76 0 0 1-1.001 1.905c-.43.69-.937 1.411-1.517 2.165a29.321 29.321 0 0 1-1.841 2.163c-3.187 3.317-6.135 4.974-8.847 4.974-1.636 0-2.948-.537-3.939-1.615-.99-1.076-1.485-2.54-1.485-4.392 0-1.378.216-2.831.646-4.36.43-1.529 1.161-3.434 2.195-5.718a57.338 57.338 0 0 1 2.648-5.264 110.217 110.217 0 0 1 3.228-5.362 69.999 69.999 0 0 1 3.39-4.845c1.14-1.486 2.206-2.723 3.197-3.714 1.377-1.378 2.593-2.38 3.648-3.004 1.054-.623 2.034-.937 2.938-.937.817 0 1.462.302 1.936.905.474.604.711 1.4.711 2.39 0 .992-.172 2.132-.516 3.424a28.482 28.482 0 0 1-1.453 4.07 46.95 46.95 0 0 1-2.228 4.393 46.508 46.508 0 0 1-2.906 4.457 48.586 48.586 0 0 1-5.198 5.943c-1.83 1.765-3.971 3.552-6.425 5.361zm1.937-6.33a57.36 57.36 0 0 0 3.616-3.683 40.393 40.393 0 0 0 3.1-4.005 38.835 38.835 0 0 0 1.937-2.939 40.077 40.077 0 0 0 1.582-2.907c.452-.925.817-1.744 1.098-2.455.28-.71.42-1.26.42-1.647s-.152-.581-.452-.581c-.431 0-1.077.528-1.938 1.583-.862 1.055-1.873 2.551-3.035 4.49a38.934 38.934 0 0 0-1.356 2.26c-.43.776-1.034 1.896-1.808 3.36-.474.861-.872 1.604-1.195 2.228-.323.624-.603 1.174-.84 1.647-.237.475-.441.927-.613 1.357l-.516 1.291z"/></g></svg>