<?xml version="1.0" encoding="UTF-8"?>
<svg width="160px" height="160px" viewBox="0 0 160 160" version="1.1" xmlns="http://www.w3.org/2000/svg" xmlns:xlink="http://www.w3.org/1999/xlink">
    <!-- Generator: Sketch 42 (36781) - http://www.bohemiancoding.com/sketch -->
    <title>logo-google</title>
    <desc>Created with Sketch.</desc>
    <defs></defs>
    <g id="**Symbols**" stroke="none" stroke-width="1" fill="none" fill-rule="evenodd">
        <g id="logo-google" fill="#000000">
            <g id="Group-3" transform="translate(15.000000, 59.000000)">
                <path d="M31.9269602,15.1237577 L16.6636483,15.1237577 L16.6636483,19.6255613 L27.5267084,19.6255613 C26.9966176,25.9380999 21.7578419,28.6302197 16.8129493,28.6302197 C10.4863339,28.6302197 4.96573442,23.6398239 4.96573442,16.6452535 C4.96573442,9.83150694 10.2283669,4.5839365 16.8268439,4.5839365 C21.9176294,4.5839365 24.9175449,7.83745119 24.9175449,7.83745119 L28.0615182,4.57342348 C28.0615182,4.57342348 24.0260643,0.0695172985 16.6661388,0.0695172985 C7.29399181,0.0693858858 0.0436499105,7.9993516 0.0436499105,16.5648289 C0.0436499105,24.9580243 6.86391566,33.1422735 16.9049681,33.1422735 C25.7362756,33.1422735 32.2007881,27.0771849 32.2007881,18.1084021 C32.2007881,16.2161911 31.9266981,15.122575 31.9266981,15.122575 L31.9269602,15.1237577" id="Fill-1"></path>
                <path d="M44.8472027,11.8636724 C38.6379046,11.8636724 34.1881042,16.7302775 34.1881042,22.4061218 C34.1881042,28.1659388 38.5042022,33.1229558 44.9200836,33.1229558 C50.7281433,33.1229558 55.4865079,28.6725346 55.4865079,22.5299125 C55.4865079,15.4894791 49.9514895,11.8636724 44.8472027,11.8636724 Z M44.9089417,16.0389155 C47.9623382,16.0389155 50.855816,18.5138101 50.855816,22.5017902 C50.855816,26.4051405 47.9746598,28.9504724 44.8949161,28.9504724 C41.5109338,28.9504724 38.841342,26.2333842 38.841342,22.4707768 C38.841342,18.7888568 41.4777704,16.0389155 44.9089417,16.0389155 L44.9089417,16.0389155 Z" id="Fill-2"></path>
                <path d="M67.8978946,11.8636724 C61.6887276,11.8636724 57.2389273,16.7302775 57.2389273,22.4061218 C57.2389273,28.1659388 61.5550252,33.1229558 67.9709066,33.1229558 C73.7789663,33.1229558 78.5373309,28.6725346 78.5373309,22.5299125 C78.5373309,15.4894791 73.0023125,11.8636724 67.8978946,11.8636724 Z M67.9597648,16.0389155 C71.0131612,16.0389155 73.906639,18.5138101 73.906639,22.5017902 C73.906639,26.4051405 71.0254828,28.9504724 67.9457391,28.9504724 C64.5617569,28.9504724 61.892165,26.2333842 61.892165,22.4707768 C61.892165,18.7888568 64.5285934,16.0389155 67.9597648,16.0389155 L67.9597648,16.0389155 Z" id="Fill-3"></path>
                <path d="M90.6359588,11.8748424 C84.9365651,11.8748424 80.4567472,16.879168 80.4567472,22.4960081 C80.4567472,28.8942278 85.6504312,33.137017 90.5376482,33.137017 C93.5595853,33.137017 95.1663739,31.9344597 96.3526552,30.5541011 L96.3526552,32.6501331 C96.3526552,36.3175977 94.1316219,38.5136347 90.7790991,38.5136347 C87.5403543,38.5136347 85.9158698,36.0994526 85.3513048,34.7294756 L81.2763956,36.4373146 C82.7220858,39.5017265 85.632211,42.6974196 90.8127868,42.6974196 C96.4794103,42.6974196 100.798261,39.1191842 100.798261,31.6147327 L100.798261,12.2510769 L96.3529174,12.2510769 L96.3529174,14.3146499 C94.9858756,12.8378344 93.1166632,11.8751053 90.6359588,11.8751053 L90.6359588,11.8748424 Z M91.0484701,16.0416751 C93.8427198,16.0416751 96.7119477,18.4336484 96.7119477,22.518611 C96.7119477,26.6705941 93.8487495,28.9588828 90.9866,28.9588828 C87.9482778,28.9588828 85.1211269,26.4855651 85.1211269,22.5580348 C85.1211269,18.4770146 88.0573371,16.0416751 91.048339,16.0416751 L91.0484701,16.0416751 L91.0484701,16.0416751 Z" id="Fill-4"></path>
                <path d="M120.170825,11.8494798 C114.794808,11.8494798 110.280909,16.1376064 110.280909,22.4651261 C110.280909,29.1604698 115.312184,33.1312348 120.687284,33.1312348 C125.173262,33.1312348 127.926615,30.6707956 129.569844,28.4663481 L125.904562,26.0214156 C124.95344,27.5012535 123.363298,28.9475813 120.709699,28.9475813 C117.728921,28.9475813 116.358471,27.3110994 115.509329,25.7259999 L129.726354,19.8119044 L128.988238,18.0787028 C127.614905,14.6845766 124.411027,11.8501368 120.17135,11.8501368 L120.170825,11.8494798 Z M120.356042,15.9375963 C122.293286,15.9375963 123.687461,16.9701056 124.279553,18.2081443 L114.785239,22.1865312 C114.375874,19.1064812 117.286523,15.9375963 120.356042,15.9375963 L120.356042,15.9375963 Z" id="Fill-5"></path>
                <polygon id="Fill-6" points="103.765144 32.5001912 108.119911 32.5001912 108.119911 1.16878422 103.765144 1.16878422"></polygon>
            </g>
        </g>
    </g>
</svg>