<?xml version="1.0" encoding="UTF-8"?>
<svg width="160px" height="160px" viewBox="0 0 160 160" version="1.1" xmlns="http://www.w3.org/2000/svg" xmlns:xlink="http://www.w3.org/1999/xlink">
    <!-- Generator: Sketch 42 (36781) - http://www.bohemiancoding.com/sketch -->
    <title>logo-foursquare</title>
    <desc>Created with Sketch.</desc>
    <defs></defs>
    <g id="**Symbols**" stroke="none" stroke-width="1" fill="none" fill-rule="evenodd">
        <g id="logo-foursquare">
            <g id="Group-14" transform="translate(16.000000, 50.000000)">
                <path d="M3.89968872,4.54827586 C3.70522149,5.05103448 3.73142629,5.60344828 3.71625509,6.13241379 C3.7645271,13.2041379 3.68384388,20.2765517 3.7576311,27.3462069 C5.64506665,25.1489655 7.48354059,22.9124138 9.31167052,20.6648276 C9.75094581,20.1648276 10.1936691,19.4986207 10.9363684,19.4875862 C12.7493272,19.3586207 14.5726299,19.5731034 16.3855886,19.422069 C16.7848671,19.417931 17.1738016,19.2034483 17.2675872,18.7931034 C17.6365233,17.5565517 17.8247841,16.2724138 18.0709713,15.0082759 C18.1826866,14.4862069 18.1695842,13.6406897 17.4530896,13.6186207 C15.3022268,13.4117241 13.1244696,13.7303448 10.9756756,13.4903448 C9.83783542,13.2910345 9.78128821,11.8917241 9.92334584,10.9848276 C9.96472185,10.257931 10.6901812,9.83655172 11.3597829,9.86206897 C13.5527113,9.79862069 15.7477085,9.89517241 17.9427057,9.85172414 C18.3792226,9.81655172 18.9667619,9.82758621 19.1784692,9.35172414 C19.5432676,8.51448276 19.604642,7.58689655 19.8053157,6.70413793 C19.9211685,5.97241379 20.1701141,5.22758621 20.0259877,4.48275862 C19.6963588,3.90827586 18.9405571,3.98758621 18.375085,3.94344828 C14.070601,3.96344828 9.76335861,3.95241379 5.45956421,3.94827586 C4.90857371,3.97862069 4.17759757,3.96344828 3.89968872,4.54827586 Z M2.26878442,0.328965517 C2.60255088,0.263448276 2.94114454,0.245517241 3.27973821,0.234482759 C9.1827153,0.239310345 15.0856924,0.254482759 20.9866007,0.228275862 C21.9651433,0.215172414 23.1340155,0.313793103 23.7318988,1.20689655 C24.4945965,2.37103448 24.1318669,3.83655172 23.8870588,5.10551724 C22.8457626,10.1331034 21.9065273,15.1827586 20.8686791,20.2103448 C20.6749014,21.0165517 20.4845718,21.8924138 19.8708277,22.4951724 C19.4212084,22.9475862 18.7743635,23.1241379 18.154413,23.1572414 C16.326283,23.2510345 14.4967739,23.0958621 12.6707127,23.1896552 C12.2073015,23.1634483 11.8797414,23.5103448 11.6004533,23.8275862 C9.06893128,26.8262069 6.43327959,29.7358621 3.89761992,32.7296552 C3.55075106,33.117931 3.20526139,33.5310345 2.73978131,33.7841379 C1.96742916,34.1689655 0.908203368,33.9896552 0.386176072,33.2758621 C0.05378881,32.8262069 0.0344800064,32.2427586 0.0103440019,31.7075862 C0.0234464043,23.0393103 0.0144816027,14.3703448 0.0172400032,5.70206897 C0.0303424056,4.6337931 -0.070339213,3.55241379 0.104129619,2.49310345 C0.294459255,1.41862069 1.18542262,0.508275862 2.26878442,0.328965517 L2.26878442,0.328965517 Z" id="Fill-10" fill="#111111"></path>
                <path d="M16.6890127,47.7062069 C14.9463932,48.2896552 14.2388634,50.4537931 14.7622699,52.1096552 C15.1146556,53.6096552 16.7110799,54.7434483 18.244061,54.2889655 C20.2838982,53.7531034 21.0045303,51.1310345 20.1611493,49.3613793 C19.6398116,48.0255172 18.0689025,47.2034483 16.6890127,47.7062069 Z M16.0490638,44.0648276 C18.433701,43.5868966 21.0590087,44.3117241 22.7712858,46.0662069 C25.3000495,48.5455172 25.3855599,52.9744828 23.0678139,55.6186207 C20.589391,58.5158621 15.7890845,58.7951724 12.8693176,56.4165517 C9.99989145,54.1648276 9.55854737,49.562069 11.7535446,46.7041379 C12.8017368,45.3427586 14.3712667,44.4103448 16.0490638,44.0648276 L16.0490638,44.0648276 Z" id="Fill-12" fill="#000000"></path>
                <path d="M53.2433363,45.3910345 C54.7018405,43.96 56.9271801,43.7089655 58.8559917,44.0668966 C60.1972639,44.2986207 61.4654386,44.8931034 62.4508772,45.8413793 C61.8019634,46.7731034 61.1033985,47.6689655 60.3365632,48.5082759 C59.3497454,47.9075862 58.2505228,47.257931 57.0451018,47.4372414 C56.7354713,47.4724138 56.3051608,47.7275862 56.3665352,48.082069 C56.3506744,48.5751724 56.8878729,48.7517241 57.2574986,48.9158621 C58.7318637,49.4813793 60.41104,49.7813793 61.5378466,50.98 C62.9860069,52.4324138 62.8832564,55.0206897 61.475093,56.4668966 C60.1820927,57.8406897 58.1615644,58.1524138 56.3623976,57.9717241 C54.6280533,57.7972414 52.7909586,57.2158621 51.5903648,55.8924138 C52.0248128,54.797931 52.9309474,53.9855172 53.5950323,53.0351724 C54.7218389,53.6944828 55.8624375,54.5517241 57.2250874,54.5551724 C57.7374603,54.5903448 58.3953388,54.1668966 58.2532812,53.5944828 C58.1788044,53.1972414 57.7402187,53.0744828 57.4271402,52.9193103 C56.0058744,52.3468966 54.3639365,52.1117241 53.2385091,50.98 C51.7255264,49.5317241 51.7041488,46.8275862 53.2433363,45.3910345" id="Fill-13" fill="#000000"></path>
                <path d="M69.7537425,47.6972414 C67.9780222,48.2737931 67.2966973,50.4737931 67.818035,52.137931 C68.1876606,53.6248276 69.7868433,54.7606897 71.3149972,54.2868966 C73.4527576,53.7034483 74.1168425,50.8510345 73.0714087,49.0751724 C72.470767,47.9006897 71.013642,47.2648276 69.7537425,47.6972414 Z M65.0127416,46.4544828 C66.8622492,44.2310345 70.0937154,43.3834483 72.8286695,44.262069 C74.7588602,44.8558621 76.4559662,46.2772414 77.2310767,48.1627586 C77.8793008,49.6937931 77.9337792,51.4517241 77.5000208,53.0503448 C77.1814255,54.2496552 76.4014877,55.2393103 75.7222316,56.2503448 C76.4732062,56.2324138 77.2221119,56.1524138 77.9627424,56.0165517 C77.7558624,57.357931 77.4717471,58.6813793 77.1565999,60 C75.6760284,59.9393103 74.1561497,59.662069 72.8983191,58.837931 C72.3066422,58.4827586 71.7584101,57.9103448 71.0088147,57.997931 C69.1462048,58.0737931 67.2332541,57.5537931 65.807161,56.322069 C62.9439413,53.9613793 62.5991412,49.2524138 65.0127416,46.4544828 L65.0127416,46.4544828 Z" id="Fill-14" fill="#000000"></path>
                <path d="M0.0558576103,44.1813793 C3.38662623,44.1241379 6.72153244,44.0958621 10.0495427,44.1965517 C9.93162104,45.3517241 9.69164019,46.4896552 9.40131854,47.6124138 C7.5821534,47.6593103 5.76298827,47.6227586 3.94382313,47.637931 C3.95485673,48.2910345 3.95485673,48.9448276 3.94175433,49.6 C5.62506824,49.6151724 7.30700295,49.5737931 8.98824806,49.6324138 C8.81998563,50.7917241 8.58000479,51.9386207 8.30485434,53.0765517 C6.85255647,53.1027586 5.4002586,53.1006897 3.95002953,53.0958621 C3.94175433,54.6862069 3.97209674,56.2765517 3.91761833,57.8662069 C2.63151409,57.9255172 1.34265145,57.9234483 0.0558576103,57.8572414 C-0.011033602,53.2993103 -0.00965440179,48.7393103 0.0558576103,44.1813793" id="Fill-16" fill="#000000"></path>
                <path d="M26.2454913,44.1675862 C27.5343539,44.12 28.8273541,44.122069 30.1162168,44.1827586 C30.2162088,46.8675862 30.1093208,49.5558621 30.165868,52.24 C30.2162088,52.86 30.2203464,53.6117241 30.7423737,54.042069 C31.3147418,54.3827586 32.0767499,54.3889655 32.6794605,54.1206897 C33.3325118,53.7496552 33.371819,52.9062069 33.4180222,52.24 C33.4793966,49.5558621 33.3676814,46.8696552 33.4676734,44.1827586 C34.756536,44.122069 36.0474675,44.117931 37.3377093,44.1696552 C37.3928773,47.1489655 37.3487429,50.1282759 37.3659829,53.1075862 C37.4080485,54.4813793 36.863954,55.8875862 35.7743858,56.7544828 C34.2365775,58.0151724 32.0898523,58.2006897 30.1941416,57.8689655 C28.7528773,57.6241379 27.3964339,56.7503448 26.7240737,55.4289655 C26.2130801,54.5206897 26.1999777,53.4524138 26.2130801,52.4386207 C26.2482497,49.6827586 26.1917025,46.9241379 26.2454913,44.1675862" id="Fill-18" fill="#000000"></path>
                <path d="M43.037944,47.6317241 C43.0420816,48.4351724 43.0420816,49.2393103 43.037944,50.0427586 C44.046829,50.0062069 45.1081236,50.1627586 46.0756325,49.7986207 C46.8514327,49.462069 46.8072983,48.2344828 46.0452901,47.9048276 C45.1019172,47.4937931 44.0357954,47.6710345 43.037944,47.6317241 Z M39.1485992,44.1813793 C40.954662,44.1 42.7607247,44.1613793 44.5667875,44.1324138 C45.6170484,44.1303448 46.7073062,44.0972414 47.6982616,44.497931 C48.8843739,44.9455172 49.9173948,45.857931 50.3821853,47.0531034 C50.8324942,48.2193103 50.7711198,49.5668966 50.2642637,50.7048276 C49.860158,51.5937931 49.0395339,52.1744828 48.2616649,52.7186207 C49.1677995,54.4634483 50.2711597,56.0951724 51.1531583,57.8537931 C49.7008604,57.9365517 48.2485625,57.9131034 46.7962647,57.8751724 C45.9466773,56.3703448 45.1412244,54.8434483 44.3199106,53.3234483 C43.8937377,53.3186207 43.4682544,53.3151724 43.04484,53.3110345 C43.0317376,54.8262069 43.0682864,56.3413793 43.0007056,57.8572414 C41.7166701,57.9296552 40.4326347,57.9255172 39.1485992,57.8572414 C39.0823976,53.2993103 39.0823976,48.7393103 39.1485992,44.1813793 L39.1485992,44.1813793 Z" id="Fill-19" fill="#000000"></path>
                <path d="M79.3343571,44.1875862 C80.6163237,44.1131034 81.9003592,44.117931 83.1850842,44.1848276 C83.2892138,46.9413793 83.1712922,49.702069 83.2368042,52.4606897 C83.2650778,53.117931 83.394033,53.9875862 84.1367324,54.202069 C84.7546141,54.3655172 85.5304142,54.38 86.0324431,53.9262069 C86.4737872,53.4006897 86.4537888,52.6662069 86.4972336,52.02 C86.5324032,49.4103448 86.444824,46.7972414 86.5365408,44.1848276 C87.8212659,44.1158621 89.1094389,44.1158621 90.3941639,44.1827586 C90.4741576,47.157931 90.4114039,50.1344828 90.4327815,53.1096552 C90.4741576,54.4834483 89.9197191,55.8813793 88.8384261,56.7524138 C87.298549,58.0262069 85.1414798,58.1986207 83.2416314,57.8689655 C81.6445175,57.597931 80.1618772,56.5186207 79.5833027,54.9813793 C79.1922995,53.9641379 79.2971187,52.8517241 79.2881539,51.7862069 C79.3233235,49.2524138 79.2405715,46.7186207 79.3343571,44.1875862" id="Fill-20" fill="#000000"></path>
                <path d="M97.5135957,47.9875862 C97.0288068,49.2241379 96.6902131,50.5124138 96.3123122,51.7841379 C97.1184548,51.7841379 97.9239077,51.7813793 98.7321191,51.7772414 C98.3411158,50.5082759 98.0004533,49.2241379 97.5135957,47.9875862 Z M95.0627568,44.1765517 C96.7095219,44.117931 98.356287,44.12 100.002363,44.1765517 C101.365702,48.7393103 102.80076,53.282069 104.04135,57.88 C102.678011,57.8468966 101.287088,58.0655172 99.9437465,57.7834483 C99.6313577,57.0434483 99.4327528,56.2634483 99.2058744,55.4951724 C98.118375,55.5255172 97.026738,55.4137931 95.945445,55.5448276 C95.3813521,56.1634483 95.6006449,57.3034483 94.9648336,57.8406897 C93.6628685,58.0082759 92.3415947,57.8689655 91.0334233,57.877931 C91.4982137,55.8634483 92.1822971,53.9089655 92.7457004,51.9213793 C93.5215005,49.34 94.2593727,46.7489655 95.0627568,44.1765517 L95.0627568,44.1765517 Z" id="Fill-21" fill="#000000"></path>
                <path d="M109.210593,47.6317241 C109.214731,48.4351724 109.214731,49.2393103 109.210593,50.0427586 C110.219478,50.0062069 111.280773,50.1627586 112.248282,49.7986207 C113.023392,49.462069 112.979947,48.2344828 112.21725,47.9048276 C111.273877,47.4937931 110.208444,47.6710345 109.210593,47.6317241 Z M105.3178,44.1786207 C107.124553,44.102069 108.933374,44.1613793 110.741505,44.1324138 C111.789698,44.1303448 112.879266,44.0972414 113.870911,44.497931 C115.056333,44.9455172 116.091423,45.857931 116.554834,47.0544828 C117.005143,48.2193103 116.943769,49.5668966 116.436223,50.7048276 C116.032807,51.5937931 115.211493,52.1744828 114.434314,52.7186207 C115.341138,54.4634483 116.443119,56.0951724 117.325118,57.8537931 C115.873509,57.9365517 114.421212,57.9131034 112.968914,57.8751724 C112.119326,56.3703448 111.313184,54.8434483 110.49187,53.3234483 C110.066387,53.3186207 109.640904,53.3151724 109.216799,53.3110345 C109.203697,54.8262069 109.240935,56.3413793 109.173355,57.8572414 C107.88863,57.9275862 106.603215,57.9275862 105.320559,57.8572414 C105.253667,53.2993103 105.257115,48.7372414 105.3178,44.1786207 L105.3178,44.1786207 Z" id="Fill-22" fill="#000000"></path>
                <path d="M118.66639,44.1917241 C121.955093,44.0806897 125.246554,44.1655172 128.538016,44.1462069 C128.522845,45.3255172 128.18632,46.4565517 127.92634,47.5972414 C126.129243,47.6751724 124.332145,47.6165517 122.534357,47.6406897 L122.534357,49.1606897 C124.216292,49.1786207 125.897537,49.1365517 127.58154,49.1958621 C127.42638,50.3558621 127.16847,51.4958621 126.878838,52.6289655 C125.427919,52.6751724 123.97769,52.6613793 122.530219,52.6593103 C122.538495,53.2406897 122.538495,53.822069 122.530219,54.4048276 C124.502476,54.4310345 126.476111,54.3558621 128.446299,54.4524138 C128.34148,55.6144828 128.081501,56.7572414 127.769112,57.882069 C124.727285,57.9034483 121.682701,57.9406897 118.642944,57.862069 C118.555364,55.3268966 118.625014,52.7910345 118.603636,50.2572414 C118.627083,48.2344828 118.537435,46.2124138 118.66639,44.1917241" id="Fill-23" fill="#000000"></path>
            </g>
        </g>
    </g>
</svg>