<?xml version="1.0" encoding="UTF-8"?>
<svg width="160px" height="160px" viewBox="0 0 160 160" version="1.1" xmlns="http://www.w3.org/2000/svg" xmlns:xlink="http://www.w3.org/1999/xlink">
    <!-- Generator: Sketch 42 (36781) - http://www.bohemiancoding.com/sketch -->
    <title>logo-sony</title>
    <desc>Created with Sketch.</desc>
    <defs></defs>
    <g id="**Symbols**" stroke="none" stroke-width="1" fill="none" fill-rule="evenodd">
        <g id="logo-sony" fill="#000000">
            <g id="Sony_logo" transform="translate(8.000000, 67.000000)">
                <g id="svg4256">
                    <path d="M51.6572691,25.6831616 C46.4046586,25.6831616 41.5288153,24.0984141 38.2741767,21.1594545 C35.8152912,18.9390505 34.633745,15.9230505 34.633745,12.8188788 C34.633745,9.75249495 35.866245,6.71569697 38.2738855,4.5070101 C41.2964659,1.73560606 46.6329317,0 51.6572691,0 C57.2173494,0 61.66751,1.4089899 65.0694779,4.51462626 C67.4899297,6.72448485 68.6601205,9.74780808 68.6601205,12.8191717 C68.6601205,15.7962121 67.4183032,18.9665859 65.0694779,21.1594545 C61.9016064,24.1174545 56.9232731,25.6831616 51.6572691,25.6831616 L51.6572691,22.2957273 C54.4451707,22.2957273 57.0312952,21.327303 58.8373896,19.5193434 C60.6309639,17.7236869 61.4666064,15.5164646 61.4666064,12.8188788 C61.4666064,10.2346566 60.5651606,7.81857576 58.8373896,6.10493939 C57.0554618,4.33916162 54.4076104,3.34554545 51.6572691,3.34554545 C48.8984839,3.34554545 46.2488855,4.32890909 44.465502,6.10493939 C42.7470482,7.8179899 41.8432731,10.241101 41.8432731,12.8188788 C41.8432731,15.3887475 42.7575301,17.8103939 44.465502,19.5196364 C46.2503414,21.3059192 48.8906225,22.2960202 51.6572691,22.2960202 L51.6572691,25.6834545 L51.6572691,25.6831616 Z M13.2660442,0.0123030303 C10.4563052,0.0123030303 7.26426707,0.541040404 4.55206827,1.75962626 C2.0489257,2.88330303 -2.34293452e-14,4.70063636 -2.34293452e-14,7.71341414 C-0.00116465863,10.4268182 1.71292169,12.0159596 1.66633534,11.9720202 C2.39541165,12.6472222 3.56909639,13.7969697 6.63768072,14.4721717 C8.00906627,14.7738889 10.9410944,15.237303 13.8608936,15.5442929 C16.7591466,15.8518687 19.6113956,16.1442121 20.7731426,16.4400707 C21.6961345,16.6764646 23.2465863,16.9983939 23.2465863,18.7483535 C23.2465863,20.4912828 21.6131526,21.0232424 21.3292671,21.1386566 C21.0456727,21.2514343 19.0861345,22.156 15.5636245,22.156 C12.9629418,22.156 9.83641566,21.3691919 8.69679719,20.9590909 C7.38306225,20.4886465 6.00497992,19.8664646 4.71948795,18.286697 C4.39978916,17.8950505 3.89549197,16.8179495 3.89549197,15.7513939 L0.70753012,15.7513939 L0.70753012,24.7384646 L4.25100402,24.7384646 L4.25100402,23.5242727 C4.25100402,23.3860101 4.42279116,22.8174343 5.01764056,23.0878081 C5.75778112,23.4261414 7.93045181,24.2964343 10.2021185,24.7736162 C12.0646988,25.1655556 13.265753,25.4464747 15.5813855,25.4464747 C19.3595382,25.4464747 21.389247,24.8272222 22.7923695,24.4241515 C24.114257,24.0433434 25.7476908,23.3596465 27.0745281,22.2951414 C27.7931225,21.7195354 29.3689056,20.2440505 29.3689056,17.565798 C29.3689056,14.9950505 27.9975201,13.3994646 27.5150602,12.9140808 C26.8579016,12.2526465 26.0551606,11.7400202 25.2186446,11.3448586 C24.4898594,10.9997879 23.339759,10.5852929 22.3987149,10.3535859 C20.572239,9.90247475 16.4423594,9.34590909 14.4673896,9.13792929 C12.3963353,8.92028283 8.80365462,8.62090909 7.36879518,8.17419192 C6.93379518,8.03856566 6.04690763,7.61352525 6.04690763,6.57772727 C6.04690763,5.8410101 6.4525,5.21648485 7.25407631,4.71176768 C8.52646586,3.90972727 11.0965763,3.41116162 13.7755823,3.41116162 C16.9428715,3.39944444 19.6250803,4.1279596 21.3313052,4.89543434 C21.9115964,5.15614141 22.5905924,5.53050505 23.1298293,5.97341414 C23.7383635,6.47256566 24.5926406,7.50982828 24.9015663,8.95660606 L27.7637149,8.95660606 L27.7637149,1.13363636 L24.5678916,1.13363636 L24.5678916,2.04288889 C24.5678916,2.33640404 24.2665361,2.71779798 23.6967269,2.40260606 C22.2665261,1.64772727 18.2228313,0.019040404 13.2654618,0.0123030303 L13.2660442,0.0123030303 Z M83.3010442,1.43388889 L98.8905823,15.5882323 L98.7304418,6.05836364 C98.7147189,4.80872727 98.4858635,4.2870202 97.1424297,4.2870202 L94.2112751,4.2870202 L94.2112751,1.43623232 L107.540793,1.43623232 L107.540793,4.2870202 L104.681556,4.2870202 C103.311335,4.2870202 103.224859,4.72787879 103.208263,6.05836364 L103.44993,24.2677273 L98.8850502,24.2677273 L80.9289257,8.14489899 L80.9327108,19.587303 C80.9484337,20.8310808 81.0063755,21.4169394 82.2802209,21.4169394 L85.4815763,21.4169394 L85.4815763,24.2665556 L72.3908133,24.2665556 L72.3908133,21.4172323 L75.4509538,21.4172323 C76.5940663,21.4172323 76.5486446,20.320798 76.5486446,19.5225657 L76.5486446,6.16674747 C76.5486446,5.30465657 76.4283936,4.28907071 74.6336546,4.28907071 L72.1506024,4.28907071 L72.1506024,1.43388889 L83.3010442,1.43388889 Z M122.77249,21.4116667 C122.897691,21.4116667 123.453815,21.3955556 123.561546,21.3624545 C123.869307,21.2657879 124.078072,21.0449192 124.174739,20.8146768 C124.215502,20.7180101 124.235884,20.2903333 124.235884,20.1974747 L124.238213,15.6922222 C124.238213,15.5838384 124.230351,15.5369697 124.0475,15.295596 C123.846596,15.0319596 115.881787,5.95115152 115.517249,5.55130303 C115.064488,5.05478788 114.269608,4.28731313 113.061857,4.28731313 L110.292008,4.28731313 L110.292008,1.43535354 L125.923765,1.43535354 L125.923765,4.28379798 L124.039347,4.28379798 C123.603474,4.28379798 123.313765,4.69975758 123.686165,5.162 C123.686165,5.162 128.945472,11.4913232 128.995261,11.5575253 C129.044177,11.624899 129.086104,11.6410101 129.153072,11.5794949 C129.218876,11.5165152 134.544277,5.22 134.586205,5.17020202 C134.839518,4.8649697 134.667731,4.2870202 134.121797,4.2870202 L132.188755,4.2870202 L132.188755,1.43535354 L145,1.43535354 L145,4.2870202 L142.137851,4.2870202 C141.099558,4.2870202 140.677078,4.48035354 139.895884,5.36880808 C139.538624,5.77539394 131.488795,15.0193636 131.269839,15.2698182 C131.15512,15.4007576 131.16502,15.5832525 131.16502,15.6916364 L131.16502,20.196303 C131.16502,20.287697 131.185402,20.7159596 131.226165,20.8120404 C131.323122,21.0434545 131.533052,21.2643232 131.840522,21.3598182 C131.948253,21.3932121 132.496807,21.4096162 132.621717,21.4096162 L135.549378,21.4096162 L135.549378,24.2609899 L119.998273,24.2609899 L119.998273,21.4093232 L122.773072,21.4116667 L122.77249,21.4116667 Z" id="path4258"></path>
                </g>
            </g>
        </g>
    </g>
</svg>