<?xml version="1.0" encoding="UTF-8"?>
<svg width="160px" height="160px" viewBox="0 0 160 160" version="1.1" xmlns="http://www.w3.org/2000/svg" xmlns:xlink="http://www.w3.org/1999/xlink">
    <!-- Generator: Sketch 42 (36781) - http://www.bohemiancoding.com/sketch -->
    <title>logo-coop</title>
    <desc>Created with Sketch.</desc>
    <defs></defs>
    <g id="**Symbols**" stroke="none" stroke-width="1" fill="none" fill-rule="evenodd">
        <g id="logo-coop" fill="#000000">
            <path d="M81.0851345,110.727513 C81.0941611,102.4374 81.1150623,95.5184429 81.131578,95.3520443 C81.1480918,95.1856527 81.1906903,94.7188763 81.226237,94.3147689 C81.393928,92.4080964 81.7379588,90.4303397 82.2298831,88.544919 C82.4816146,87.5801013 82.628518,87.1253706 82.902524,86.4628328 C84.1161533,83.5282824 86.242737,81.2447389 89.105024,79.8025494 C89.9767007,79.3633467 90.5652662,79.1373792 91.8187579,78.7606543 C94.4646747,77.9654414 96.862922,77.5299387 99.8568564,77.3009928 C100.742748,77.2332434 103.551804,77.2330174 104.48802,77.3001235 C107.723655,77.5337516 110.924611,78.1730136 113.728606,79.1455528 C115.009064,79.5896707 116.408392,80.3654034 117.555289,81.2669105 C118.022553,81.6341944 119.141497,82.7463999 119.528644,83.2283828 C120.230156,84.1017424 120.928636,85.262817 121.374675,86.2969906 C121.918389,87.5576341 122.494109,89.8063449 122.83607,92.0050061 L122.947444,92.7211283 C123.425447,95.8037602 123.389727,98.7279237 122.94657,102.180289 L122.815779,103.001471 C122.475905,105.135474 121.934551,107.268356 121.422287,108.491691 C120.480724,110.740245 118.92648,112.686824 116.962782,114.076871 C115.48004,115.126468 114.093109,115.726302 111.553919,116.416123 C108.801416,117.163912 106.143745,117.552646 103.07317,117.656602 L102.224065,117.685359 L100.06696,111.791276 C98.8805492,108.549532 97.9128436,105.893553 97.9165032,105.889088 C97.9201769,105.884654 98.0890802,105.939563 98.2918701,106.01116 C99.8959998,106.577567 102.814238,106.684859 105.096374,106.261341 C106.208415,106.054975 107.217907,105.57366 108.010513,104.871918 C109.178032,103.838249 109.743292,102.756163 110.159545,100.75798 C110.43618,99.4300634 110.507989,98.6492746 110.487866,97.188396 C110.468205,95.7615434 110.36667,94.9408918 110.050949,93.6571986 C109.656638,92.0540039 109.150577,91.1092314 108.209171,90.2188328 C107.328207,89.3855966 106.3488,88.8921594 105.09731,88.6510376 C104.061402,88.4514545 103.433613,88.3966879 102.182873,88.3968356 C100.912832,88.3968356 100.194413,88.4592177 99.2214713,88.6533987 C97.3143681,89.0340235 95.789379,90.1476008 94.9538438,91.7696932 C94.3650947,92.9127029 93.9420266,94.8008516 93.83656,96.756202 C93.8256615,96.9582522 93.8156762,103.575755 93.8143642,111.461752 L93.8124399,125.800003 L87.4405994,125.800003 L81.0687483,125.800003 L81.0851572,110.72708 L81.0851345,110.727513 Z M55.7629598,117.646378 C52.3008169,117.498677 49.1073856,116.933624 46.0005478,115.919035 C45.0772213,115.617501 44.6772654,115.454811 43.9350077,115.078788 C40.8045773,113.49298 38.489699,110.775671 37.4207014,107.431994 C37.2256956,106.822049 36.8317256,105.226898 36.6574725,104.341779 C36.357104,102.816008 36.1085867,100.90819 36.0327409,99.5458995 C35.9894354,98.7679168 35.9890334,96.1336312 36.0318671,95.3689964 C36.2126387,92.1600094 37.0007709,88.2792974 37.8873629,86.2326629 C39.1712452,83.2689062 41.5299271,80.8863205 44.5000764,79.5529167 C45.1467321,79.2626128 45.6915549,79.0671383 46.7178149,78.7572413 C53.7478377,76.6343726 61.2567017,76.730539 68.2855196,79.0334497 C70.421723,79.7333586 72.4305614,81.0186584 73.877547,82.6113619 C75.0268737,83.8764269 75.9574965,85.4067571 76.5265584,86.9673959 C77.1516835,88.6817896 77.8587097,92.202661 78.0063374,94.3363773 C78.0219591,94.5622057 78.0425472,94.7955886 78.0520899,94.8550184 C78.127744,95.3261623 78.1582212,97.8757464 78.1029715,99.1121771 C77.9572121,102.374157 77.191406,106.382892 76.3113061,108.490884 C75.8767745,109.531658 75.1001592,110.832599 74.3891305,111.710761 C73.221175,113.153279 71.5739938,114.437781 69.8518931,115.249008 C68.0364611,116.104187 64.6180346,116.991035 61.6766945,117.369893 C59.783154,117.613795 57.5002641,117.720515 55.7627149,117.646378 L55.7629598,117.646378 Z M58.5574227,106.460706 C60.7266381,106.251552 61.9283315,105.788145 63.0689884,104.720935 C63.9891869,103.859979 64.5242502,102.882959 64.9108969,101.357597 C65.5576317,98.8062252 65.558872,96.1104772 64.914483,93.5621971 C64.537596,92.071721 64.059768,91.164631 63.2028767,90.3129753 C61.8152203,88.9337851 60.0608931,88.3923985 57.0022643,88.399468 C54.5558696,88.4051187 53.0936536,88.7351044 51.8403718,89.5643625 C51.087209,90.0626993 50.3613089,90.8284729 49.9512785,91.557197 C49.4436795,92.459337 49.0571892,93.8187862 48.8232558,95.5249299 C48.7232057,96.2545912 48.702584,98.1825765 48.7862764,98.9825151 C48.9536616,100.582514 49.3428518,102.150683 49.7943877,103.04453 C50.3938316,104.231189 51.2950335,105.125035 52.4930301,105.721187 C53.3556974,106.150463 54.1457869,106.328282 55.9368749,106.496269 C56.3728655,106.537167 57.9924263,106.515184 58.5574087,106.460706 L58.5574227,106.460706 Z M55.7194692,74.4129573 C55.277013,74.3943291 54.748662,74.3662251 54.5453717,74.3505144 C54.0809122,74.3146124 53.2973327,74.2405064 53.1538461,74.2189242 C53.0940609,74.2099352 52.9277244,74.1902916 52.7842291,74.1753007 C52.6407249,74.1602959 52.4743972,74.1411269 52.4146031,74.132677 C52.354809,74.1242444 52.2111737,74.1043817 52.0954042,74.088558 C51.9796344,74.072736 51.8524441,74.0538365 51.8127475,74.0465497 C51.7730594,74.0392473 51.5351151,74.0004782 51.2839939,73.9603547 C49.2485566,73.6351573 46.3790952,72.8861445 44.9569078,72.3087951 C43.8426733,71.8564707 42.6108258,71.1369268 41.6737807,70.391075 C41.0744503,69.9140335 40.0895909,68.927731 39.644792,68.3590923 C38.5421358,66.94947 37.8041421,65.5213673 37.3271437,63.874177 C36.6441296,61.515639 36.1723041,58.7621825 36.0334399,56.324519 C35.9898897,55.5599711 35.9885703,52.9176615 36.0313428,52.1754157 C36.1487814,50.1388883 36.4854651,47.8935644 36.9775453,45.8653165 C37.3642103,44.2715176 37.6323094,43.5003697 38.1962159,42.359895 C39.7136648,39.290976 42.3698143,36.9800222 45.6743846,35.8535908 C48.3216826,34.9511987 51.3008319,34.3475691 54.3931468,34.0870019 C55.3078925,34.0099262 57.848579,33.9838199 58.8938613,34.0407565 C62.0395395,34.2121138 65.1338813,34.7821434 68.1126995,35.7390048 C69.6983404,36.2483527 71.1773408,37.0280567 72.4119238,38.0054763 C72.92903,38.414864 74.0404588,39.5153004 74.435504,40.0090263 C75.3659957,41.1719682 76.1683003,42.6385688 76.6380813,44.035311 C77.0329604,45.2093526 77.5221225,47.3975817 77.7621106,49.0635845 C77.978472,50.5654977 78.0841065,51.7887716 78.1381247,53.4179857 L78.1621275,54.1419162 L71.7940865,54.1419162 L65.4260543,54.1419162 L65.4023576,54.0446736 C65.3893249,53.9911849 65.3777512,53.7739629 65.3766316,53.5619431 C65.3697217,52.2529 64.996748,50.2874759 64.5213743,49.0551519 C64.1402241,48.0670586 63.3600173,47.0830842 62.4378963,46.4275098 C61.5278948,45.7805523 60.6496037,45.4745308 59.0677992,45.2532699 C58.3741433,45.156236 55.9508435,45.1421057 55.2411093,45.2309505 C54.5273622,45.3202908 53.6869953,45.4837354 53.3060184,45.6072929 C51.650579,46.1442076 50.2974394,47.3826708 49.6289915,48.9727072 C49.3163898,49.7162744 49.0050462,50.9905092 48.8427379,52.190544 C48.7219701,53.083495 48.6939561,54.8804708 48.7870682,55.7626629 C48.9529591,57.3345666 49.3514553,58.9505789 49.7833918,59.8030518 C50.6178879,61.4500351 52.2145904,62.6488791 54.0399844,62.9989935 C55.9573091,63.3667381 58.2519774,63.3659575 60.0892798,62.9969071 C61.2858267,62.7565764 62.3235588,62.2127139 63.1721494,61.3812165 C64.1726238,60.4008968 64.6818299,59.3365345 65.0743404,57.4051796 C65.146788,57.048726 65.2094042,56.7544006 65.213503,56.7511266 C65.2287048,56.7389906 77.132941,62.2686437 77.169212,62.3046935 C77.2158375,62.3510363 76.9104709,63.5565759 76.6586851,64.3201605 C75.6812094,67.2846022 73.6539083,69.8100761 70.9609707,71.4179878 C70.1213455,71.9193118 69.2936387,72.2935434 68.3035029,72.6195058 C66.3369025,73.2669241 64.0591259,73.8016063 62.0682691,74.0831455 C61.6550498,74.141586 60.8389394,74.2387329 60.568035,74.2617374 C60.4006152,74.2759598 60.1951505,74.2946524 60.1114388,74.3032953 C59.9401232,74.3209847 59.3830758,74.3599276 58.8938613,74.3884037 C58.1521192,74.4315855 56.4709551,74.444577 55.7194429,74.4129295 L55.7194692,74.4129573 Z M101.592633,74.4394113 C101.582662,74.4307006 101.183153,74.41109 100.704817,74.3958226 C100.226473,74.380557 99.7666196,74.3598424 99.6829097,74.3497772 C99.5992068,74.3397102 99.3595336,74.3190147 99.1503025,74.3037822 C98.9410715,74.2885513 98.7160403,74.269591 98.6502262,74.2616366 C98.5844122,74.2537256 98.4033614,74.2349044 98.2479037,74.2198978 C98.001212,74.1960744 97.5486009,74.138625 97.2042623,74.0874296 C97.1444695,74.0785275 97.0074918,74.0594559 96.8998666,74.0450301 C95.2355224,73.8218862 92.6615546,73.2008177 90.8276057,72.5798883 C88.8497955,71.9102376 87.3304953,70.9815219 85.8394348,69.5307172 C84.0954182,67.8337885 82.9898953,65.923383 82.3133918,63.437492 C81.7475102,61.3580816 81.4150899,59.4358374 81.1804933,56.886375 C81.0696859,55.6821029 81.068743,52.5446713 81.1789189,51.608747 C81.1897998,51.5163066 81.2201703,51.1975616 81.2464106,50.900423 C81.4437058,48.6661728 82.0561341,45.5922516 82.6357516,43.9269269 C83.5275424,41.3646904 85.1908369,39.1410601 87.3766379,37.5888973 C88.777759,36.5939344 90.1025438,36.0049915 92.4209087,35.3464214 C97.7275804,33.8389671 103.46839,33.5907845 108.880023,34.6348581 C111.00602,35.0450369 113.277017,35.684499 114.553769,36.2324699 C117.717902,37.5904778 120.213411,40.1590883 121.508427,43.3908468 C121.991087,44.5953188 122.5143,46.7216787 122.835876,48.7856479 L122.947451,49.5017718 C123.372311,52.6724312 123.407455,55.3677097 122.946577,58.9609327 L122.818862,59.7604976 C122.559788,61.3824944 122.125685,63.2591 121.754094,64.3634119 C121.106801,66.2870887 120.078015,67.956661 118.663735,69.378588 C117.356741,70.6926611 115.951462,71.6284967 114.255339,72.314345 C112.804263,72.9011007 109.997296,73.633316 107.944663,73.9605199 C107.693533,74.0005477 107.456793,74.0390386 107.418565,74.0460386 C107.380345,74.0530802 107.24529,74.0718753 107.118441,74.0878816 C106.991592,74.1038949 106.852736,74.1236967 106.809868,74.1318946 C106.76699,74.1401533 106.598741,74.160129 106.435969,74.1763961 C106.273206,74.1926527 106.10763,74.211959 106.068047,74.2192893 C105.994211,74.2329553 105.230946,74.3053974 104.726764,74.3465989 C103.993638,74.4065051 101.634485,74.4763652 101.59221,74.4394113 L101.592633,74.4394113 Z M103.827252,63.1924025 C104.680466,63.1093145 105.539838,62.948231 106.015063,62.7823279 C107.547935,62.2471676 108.83173,61.1033164 109.506294,59.6716441 C109.84829,58.9458028 110.228193,57.4437157 110.407505,56.1084185 C110.502208,55.4030988 110.517402,53.2849889 110.432923,52.5643931 C110.271384,51.1865401 109.931127,49.7363875 109.576696,48.9151813 C109.266453,48.1963572 108.694473,47.3925709 108.128845,46.8805384 C107.535561,46.3434603 106.692598,45.8568908 105.923026,45.6072929 C105.542049,45.4837354 104.701689,45.3202908 103.987935,45.2309505 C103.373009,45.1539792 100.89867,45.1536053 100.335192,45.2300812 C98.6534066,45.4592965 97.8793261,45.7071922 96.9647552,46.3094413 C96.0442593,46.9155885 95.3527341,47.6995295 94.8786812,48.674282 C94.4380409,49.5803392 94.056532,51.1436799 93.8925112,52.7153401 C93.8247466,53.3646952 93.826538,55.1521969 93.8955726,55.7839478 C94.0189525,56.9127578 94.3096665,58.2752392 94.6056391,59.111878 C95.3155132,61.1184863 97.0095228,62.570063 99.1393393,62.9967506 C100.567827,63.2829286 102.197183,63.3508171 103.827247,63.1920791 L103.827252,63.1924025 Z" id="path3053"></path>
        </g>
    </g>
</svg>