<?xml version="1.0" encoding="UTF-8"?>
<svg width="160px" height="160px" viewBox="0 0 160 160" version="1.1" xmlns="http://www.w3.org/2000/svg" xmlns:xlink="http://www.w3.org/1999/xlink">
    <!-- Generator: Sketch 42 (36781) - http://www.bohemiancoding.com/sketch -->
    <title>logo-Ikea</title>
    <desc>Created with Sketch.</desc>
    <defs></defs>
    <g id="**Symbols**" stroke="none" stroke-width="1" fill="none" fill-rule="evenodd">
        <g id="logo-Ikea" fill="#000000">
            <g id="Group-7" transform="translate(19.000000, 58.000000)">
                <path d="M60.8194058,42.1873386 C28.0252144,42.1873386 1.43605384,33.1992126 1.43605384,22.1212598 C1.43605384,11.0422677 28.0252144,2.06072441 60.8194058,2.06072441 C93.6146281,2.06072441 120.206881,11.0419213 120.206881,22.1212598 C120.206881,33.1999055 93.6149718,42.1873386 60.8194058,42.1873386 L60.8194058,42.1873386 Z M0,44 L121.647059,44 L121.647059,0 L0,0 L0,44 Z" id="Fill-1"></path>
                <path d="M58.9668654,28.5528819 L58.5617188,28.239685 L53.1501429,19.5207559 L57.6404314,13.0828976 L47.3210495,13.0711181 C47.3210495,13.0711181 47.4918365,13.3579843 47.4918365,13.5339843 C47.4918365,13.8135748 47.4141748,14.0075906 47.4141748,14.0075906 L43.6585796,18.9619213 L43.664765,13.8509921 L43.7541103,13.3947087 L43.92799,13.1653543 L33.5591246,13.1653543 L33.7285371,13.3805039 L33.8189133,13.7934803 L33.8230369,28.0550236 L33.7336916,28.5206614 L33.5629046,28.756252 L43.9276464,28.756252 L43.7496431,28.5206614 L43.6561741,28.0862047 L43.6417414,22.6433701 L46.9200266,27.8537323 C46.9200266,27.8537323 47.0516391,28.2126614 46.9729465,28.5823307 C46.960232,28.6339528 46.9100611,28.6990866 46.8588594,28.7559055 L59.427681,28.7559055 L58.9668654,28.5528819 Z" id="Fill-3"></path>
                <path d="M46.7344633,28.9099055 C46.7344633,28.9099055 46.8134045,28.8408859 46.8906201,28.7559055 L46.7344633,28.7559055 L46.7344633,28.9099055 Z" id="Fill-5"></path>
                <polygon id="Fill-7" points="27.9008182 13.3947087 28.0733234 13.1653543 17.7058325 13.1653543 17.8271359 13.3884724 17.8690595 13.8087244 17.8690595 28.0858583 17.8319468 28.5823307 17.7099561 28.8795906 28.0691997 28.9076535 27.9008182 28.6152441 27.8090675 28.128126 27.8131911 13.8509921"></polygon>
                <polygon id="Fill-9" points="79.5021947 24.1459528 78.9740266 24.2519685 71.476238 24.2519685 71.476238 22.8072441 77.2187351 22.8006614 77.6671798 22.8897008 77.9702665 23.0684724 77.9785138 18.6611969 77.6898598 18.8316535 77.2187351 18.9182677 71.476238 18.9404409 71.476238 17.6692913 78.9327903 17.6692913 79.425564 17.7042835 79.7200598 17.8303937 79.7059708 13.0458268 61.6025517 13.0115276 61.7778059 13.3129449 61.8544367 13.8087244 61.8544367 28.0865512 61.7819295 28.5844094 61.6156098 28.8816693 79.7791652 28.9173543 79.7619834 23.9439685"></polygon>
                <path d="M93.2634324,22.519685 L94.4823084,19.7556535 L95.7049644,22.519685 L93.2634324,22.519685 Z M108.168977,28.3224882 L102.035079,13.8347087 C102.035079,13.8347087 101.958448,13.5516535 101.990062,13.3344252 C102.020302,13.1116535 102.164973,13.0326614 102.164973,13.0326614 L88.1154251,13.0285039 C88.1154251,13.0285039 88.2590648,13.1116535 88.2889611,13.3292283 C88.3219501,13.5516535 88.2449757,13.8308976 88.2449757,13.8308976 L83.0289285,27.9788031 C83.0289285,27.9788031 83.0557321,27.9614803 82.9169033,28.2580472 C82.7468036,28.6332598 82.4389059,28.7559055 82.4389059,28.7559055 L91.3861502,28.7559055 C91.3861502,28.7559055 91.2043669,28.4984882 91.2043669,28.1936063 C91.2043669,28.0370079 91.2792795,28.0193386 91.2792795,28.0193386 L92.0689545,25.984252 L96.8984114,25.984252 L97.6190156,28.019685 C97.6190156,28.019685 97.6739973,28.2265197 97.6915228,28.3869291 C97.7090482,28.5376378 97.5389485,28.8993386 97.5389485,28.8993386 L108.63426,28.879937 L108.364162,28.6308346 L108.168977,28.3224882 Z" id="Fill-11"></path>
            </g>
        </g>
    </g>
</svg>