<?xml version="1.0" encoding="UTF-8"?>
<svg width="160px" height="160px" viewBox="0 0 160 160" version="1.1" xmlns="http://www.w3.org/2000/svg" xmlns:xlink="http://www.w3.org/1999/xlink">
    <!-- Generator: Sketch 42 (36781) - http://www.bohemiancoding.com/sketch -->
    <title>logo-adidas</title>
    <desc>Created with Sketch.</desc>
    <defs></defs>
    <g id="**Symbols**" stroke="none" stroke-width="1" fill="none" fill-rule="evenodd">
        <g id="logo-adidas" fill="#000000">
            <g id="Group-3" transform="translate(25.000000, 44.000000)">
                <g id="Group-4">
                    <path d="M109.243037,59.0834591 L104.452678,59.0834591 C104.303703,58.2942368 104.072958,57.738377 103.757629,57.4257469 C103.245322,56.9167569 102.371338,56.6544503 101.163817,56.6544503 C99.9746686,56.6544503 99.1493496,56.8503169 98.687694,57.2450103 C98.3399212,57.5407014 98.1578412,57.9503602 98.1578412,58.4595146 C98.1578412,59.1804879 99.1668955,59.7560824 101.163817,60.1991257 C103.444782,60.6908478 105.080854,61.1179389 106.087425,61.4623089 C106.352104,61.5609822 106.582849,61.6430456 106.748707,61.7246155 C108.781878,62.6768133 109.78845,64.1230355 109.78845,66.0586776 C109.78845,68.4217397 108.797604,70.1453985 106.831305,71.228174 C106.582849,71.3605607 106.352104,71.4748573 106.087425,71.5899762 C104.816176,72.1318573 103.329741,72.4097872 101.661226,72.4097872 C99.1668955,72.4097872 97.1506077,71.9665795 95.6146801,71.0964451 C94.6483318,70.5382829 93.9263018,69.8370443 93.4452796,68.9914138 C92.9642573,68.1457832 92.7237462,67.1587209 92.7237462,66.0257865 L97.7448506,66.0257865 C97.7448506,66.8791464 98.059518,67.5529209 98.6701481,68.0115875 C99.282599,68.4883442 100.322938,68.7350275 101.791993,68.7350275 C102.89937,68.7350275 103.724524,68.503803 104.270598,68.0451364 C104.700969,67.6833342 104.898112,67.2888053 104.898112,66.8299742 C104.898112,66.0586776 103.908921,65.4524944 101.940967,65.0249099 C99.0010371,64.4009655 97.1506077,63.8919755 96.391003,63.5301732 C94.376536,62.5954078 93.3850276,61.1519812 93.3850276,59.1475967 C93.3850276,57.5407014 93.8973346,56.1783514 94.9540607,55.0626849 C96.2759616,53.6672793 98.2573231,52.9773882 100.884738,52.9773882 C103.048179,52.9773882 104.782905,53.2898538 106.088088,53.8965304 C106.203129,53.9450448 106.303273,53.9953682 106.402589,54.0618083 C107.343612,54.5691537 108.053724,55.2434215 108.529284,56.0813227 C109.004347,56.9167569 109.243037,57.9192781 109.243037,59.0834591" id="Fill-1"></path>
                    <path d="M107.079596,46.9699907 C107.179078,47.1023775 107.227908,47.2495652 107.227908,47.4131985 C107.227908,47.6424496 107.145972,47.840783 106.979452,48.003594 C106.814918,48.1688718 106.600394,48.2683675 106.336378,48.2833329 C106.45142,48.3318473 106.533521,48.3826641 106.600394,48.4468018 L107.06205,49.0552874 L107.425548,49.6613061 L106.830643,49.6613061 L106.549081,49.169584 C106.369484,48.858763 106.220675,48.6277029 106.087425,48.5132418 C106.0717,48.4976185 106.05432,48.4796929 106.021049,48.4640696 L105.626266,48.349773 L105.328483,48.349773 L105.328483,49.6613061 L104.831735,49.6613061 L104.831735,46.5771064 L105.905345,46.5771064 C105.972384,46.5771064 106.038595,46.5927297 106.087425,46.5927297 C106.351441,46.5927297 106.549081,46.6262786 106.68233,46.6746285 C106.846865,46.7249519 106.979452,46.8219807 107.079596,46.9699907 Z M106.68233,47.4635219 C106.68233,47.3646841 106.666771,47.2826208 106.61612,47.2166741 C106.567289,47.1352686 106.50025,47.0842874 106.402589,47.0538631 C106.336378,47.035773 106.236234,47.0203141 106.087425,47.0028819 L105.328483,47.0028819 L105.328483,47.9221885 L105.939113,47.9221885 L106.087425,47.9221885 C106.303273,47.9065652 106.45142,47.8736741 106.533521,47.7916108 C106.6335,47.7083962 106.68233,47.5934418 106.68233,47.4635219 L106.68233,47.4635219 Z" id="Fill-2"></path>
                    <path d="M108.963296,48.0874663 C108.963296,48.5635652 108.845772,49.0396641 108.581756,49.4984951 C108.33512,49.9571617 107.986851,50.3033407 107.525692,50.5477217 C107.06205,50.8123307 106.600394,50.9267917 106.103151,50.9267917 L106.087425,50.9267917 C105.592499,50.9267917 105.129519,50.8123307 104.667863,50.5477217 C104.203725,50.3026829 103.857773,49.9571617 103.609317,49.4984951 C103.345301,49.0396641 103.230259,48.5635652 103.230259,48.0874663 C103.230259,47.5778185 103.345301,47.1023775 103.609317,46.6417374 C103.873333,46.1830708 104.221767,45.8391942 104.683589,45.5920175 C105.147065,45.3451697 105.608224,45.2308731 106.087425,45.2152498 L106.103151,45.2152498 C106.582849,45.2152498 107.04649,45.3458275 107.507649,45.5920175 C107.971788,45.8391942 108.33512,46.1830708 108.581756,46.6417374 C108.845772,47.1023775 108.963296,47.5778185 108.963296,48.0874663 Z M108.484095,48.0874663 C108.484095,47.6598819 108.383951,47.2669975 108.169428,46.8885852 C107.95358,46.5111597 107.657121,46.215962 107.277235,46.0021697 C106.897516,45.8058098 106.50025,45.6906909 106.103151,45.6906909 L106.087425,45.6906909 C105.690822,45.6906909 105.295377,45.8058098 104.916154,46.0021697 C104.534614,46.215962 104.237493,46.5111597 104.022307,46.8885852 C103.808942,47.2669975 103.693239,47.6598819 103.693239,48.0874663 C103.693239,48.4976185 103.808942,48.8900095 104.022307,49.2690796 C104.221767,49.6289084 104.519054,49.9260796 104.898112,50.137405 C105.277831,50.3518551 105.675097,50.4506929 106.087425,50.4506929 L106.103151,50.4506929 C106.517796,50.4506929 106.913241,50.3511972 107.294781,50.137405 C107.674004,49.9260796 107.971788,49.6289084 108.169428,49.2690796 C108.383951,48.8900095 108.484095,48.4976185 108.484095,48.0874663 L108.484095,48.0874663 Z" id="Fill-3"></path>
                    <polyline id="Fill-4" points="80.8615649 24.8962708 94.4253666 47.3490608 72.6363489 47.3490608 59.6849981 25.8973119 49.8730377 9.66538273 59.6849981 3.80583079 65.8623106 0.113474343 80.8615649 24.8962708"></polyline>
                    <path d="M86.1979988,63.9577577 L86.1979988,61.9227845 C85.7187973,59.4607202 83.5222503,57.5887224 80.9122162,57.5887224 L80.8615649,57.5887224 C77.9055788,57.6066481 75.5094059,60.0027657 75.5094059,62.9391199 C75.5094059,65.8777765 77.9055788,68.2738941 80.8615649,68.3067852 L80.9122162,68.3067852 C83.5222503,68.3067852 85.7187973,66.419822 86.1979988,63.9577577 Z M90.7086171,62.9391199 L90.7086171,72.1474806 L86.1979988,72.1474806 L86.1979988,71.1293362 C84.6777963,72.1145895 82.8604723,72.6893617 80.9122162,72.6893617 L80.8615649,72.6893617 C75.4763004,72.6564706 71.0982695,68.2895174 71.0982695,62.9391199 C71.0982695,57.5892158 75.4763004,53.2240716 80.8615649,53.1911805 L80.9122162,53.1911805 C82.8604723,53.1911805 84.6777963,53.7666105 86.1979988,54.749397 L86.1979988,53.6827382 L90.7086171,53.6827382 L90.7086171,62.9391199 L90.7086171,62.9391199 Z" id="Fill-5"></path>
                    <path d="M65.021101,63.9577577 L65.021101,61.9227845 C64.5418995,59.4607202 62.3432007,57.5887224 59.7338287,57.5887224 L59.6849981,57.5887224 C56.7273567,57.6066481 54.3328391,60.0027657 54.3328391,62.9391199 C54.3328391,65.8777765 56.7273567,68.2738941 59.6849981,68.3067852 L59.7338287,68.3067852 C62.3432007,68.3067852 64.5418995,66.419822 65.021101,63.9577577 Z M69.5298985,62.9391199 L69.5298985,72.1474806 L65.021101,72.1474806 L65.021101,71.1293362 C63.4836836,72.1145895 61.68374,72.6893617 59.7338287,72.6893617 L59.6849981,72.6893617 C54.2997337,72.6564706 49.9220338,68.2895174 49.9220338,62.9391199 C49.9220338,57.5892158 54.2997337,53.2240716 59.6849981,53.1911805 L59.7338287,53.1911805 C61.6840711,53.1911805 63.4836836,53.7666105 65.021101,54.749397 L65.021101,47.3490608 L69.5298985,47.3490608 L69.5298985,62.9391199 L69.5298985,62.9391199 Z" id="Fill-6"></path>
                    <polyline id="Fill-7" points="59.6849981 38.5173034 65.0035551 47.3490608 43.230097 47.3490608 31.1393225 27.3586641 30.6112905 26.4878718 31.1393225 26.1770508 46.6179438 16.9183667 59.6849981 38.5173034"></polyline>
                    <polygon id="Fill-8" points="43.2476429 72.1474806 48.1535403 72.1474806 48.1535403 53.1905227 43.2476429 53.1905227"></polygon>
                    <polygon id="Fill-9" points="43.2476429 51.7293349 48.1535403 51.7293349 48.1535403 47.4460896 43.2476429 47.4460896"></polygon>
                    <path d="M36.491316,63.9577577 L36.491316,61.9227845 C36.0121145,59.4607202 33.815402,57.5887224 31.1883186,57.5887224 L31.1393225,57.5887224 C28.1816811,57.6066481 25.7874946,60.0027657 25.7874946,62.9391199 C25.7874946,65.8777765 28.1816811,68.2738941 31.1393225,68.3067852 L31.1883186,68.3067852 C33.815402,68.3067852 36.0121145,66.419822 36.491316,63.9577577 Z M41.0001135,62.9391199 L41.0001135,72.1474806 L36.491316,72.1474806 L36.491316,71.1293362 C34.9557194,72.1145895 33.138561,72.6893617 31.1883186,72.6893617 L31.1393225,72.6893617 C25.7542236,72.6564706 21.3763582,68.2895174 21.3763582,62.9391199 C21.3763582,57.5892158 25.7542236,53.2240716 31.1393225,53.1911805 L31.1883186,53.1911805 C33.138561,53.1911805 34.9557194,53.7666105 36.491316,54.749397 L36.491316,47.3490608 L41.0001135,47.3490608 L41.0001135,62.9391199 L41.0001135,62.9391199 Z" id="Fill-10"></path>
                    <polyline id="Fill-11" points="31.1393225 39.9618811 35.5992895 47.3490608 13.8102718 47.3490608 11.3649374 43.2945732 27.3719217 33.7426648 31.1393225 39.9618811"></polyline>
                    <path d="M15.0992327,63.9577577 L15.0992327,61.9227845 C14.6200313,59.4607202 12.4231532,57.5887224 9.79623535,57.5887224 L9.74541847,57.5887224 C6.80532297,57.6066481 4.41097089,60.0027657 4.41097089,62.9391199 C4.41097089,65.8777765 6.80532297,68.2738941 9.74541847,68.3067852 L9.79623535,68.3067852 C12.4231532,68.3067852 14.6200313,66.419822 15.0992327,63.9577577 Z M19.6080303,62.9391199 L19.6080303,72.1474806 L15.0992327,72.1474806 L15.0992327,71.1293362 C13.5616499,72.1145895 11.7444914,72.6893617 9.79623535,72.6893617 L9.74541847,72.6893617 C4.37769991,72.6564706 0,68.2895174 0,62.9391199 C0,57.5892158 4.37769991,53.2240716 9.74541847,53.1911805 L9.79623535,53.1911805 C11.7444914,53.1911805 13.5616499,53.7666105 15.0992327,54.749397 L15.0992327,53.6827382 L19.6080303,53.6827382 L19.6080303,62.9391199 L19.6080303,62.9391199 Z" id="Fill-13"></path>
                </g>
            </g>
        </g>
    </g>
</svg>