<?xml version="1.0" encoding="UTF-8"?>
<svg width="160px" height="160px" viewBox="0 0 160 160" version="1.1" xmlns="http://www.w3.org/2000/svg" xmlns:xlink="http://www.w3.org/1999/xlink">
    <!-- Generator: Sketch 42 (36781) - http://www.bohemiancoding.com/sketch -->
    <title>logo-android</title>
    <desc>Created with Sketch.</desc>
    <defs></defs>
    <g id="**Symbols**" stroke="none" stroke-width="1" fill="none" fill-rule="evenodd">
        <g id="logo-android" fill="#000000">
            <g id="android-logo" transform="translate(41.000000, 34.000000)">
                <g id="Capa_1">
                    <g id="Group">
                        <path d="M5.7859572,29.7490469 C4.20045119,29.7490469 2.85520865,30.3008809 1.74939765,31.4045487 C0.643586659,32.5082166 0.0905147731,33.8325848 0.0905147731,35.3783177 L0.0905147731,59.1113285 C0.0905147731,60.6957545 0.643420271,62.0372274 1.74939765,63.1410614 C2.85520865,64.2447292 4.20045119,64.7967292 5.7859572,64.7967292 C7.37029851,64.7967292 8.70738806,64.2448953 9.79606115,63.1410614 C10.8825712,62.0373935 11.4273237,60.6957545 11.4273237,59.1113285 L11.4273237,35.3783177 C11.4273237,33.8324188 10.8744182,32.5082166 9.76844083,31.4045487 C8.66246345,30.3008809 7.33469159,29.7490469 5.7859572,29.7490469 Z" id="Shape"></path>
                        <path d="M51.5754508,8.44390614 L55.5018619,1.21476534 C55.759596,0.736166065 55.6679165,0.369162455 55.2259915,0.111097473 C54.7462965,-0.111429603 54.3777482,0.00132851986 54.1201805,0.441400722 L50.1388616,7.72833213 C46.6355738,6.18243321 42.9302917,5.4080722 39.0230152,5.4080722 C35.1149067,5.4080722 31.4092918,6.18259928 27.9073351,7.72833213 L23.9258498,0.441400722 C23.6671173,0.00132851986 23.2985691,-0.110433213 22.8200388,0.111097473 C22.3771154,0.37032491 22.285436,0.736166065 22.5441684,1.21476534 L26.4707459,8.44390614 C22.4892606,10.4703971 19.3182486,13.2926715 16.9588745,16.9168736 C14.5995005,20.5430686 13.4193143,24.5057112 13.4193143,28.8117762 L64.5711426,28.8117762 C64.5711426,24.5067076 63.3907901,20.5438989 61.0315824,16.9168736 C58.672042,13.2926715 55.5193325,10.4703971 51.5754508,8.44390614 Z M28.8747118,18.9588087 C28.450091,19.3836029 27.942942,19.5950036 27.3534313,19.5950036 C26.7627559,19.5950036 26.2659229,19.3836029 25.8606031,18.9588087 C25.4552833,18.5360072 25.2526234,18.0318339 25.2526234,17.4414729 C25.2526234,16.8531047 25.4552833,16.347935 25.8606031,15.9241372 C26.2659229,15.5013357 26.7639206,15.289935 27.3534313,15.289935 C27.942942,15.289935 28.450091,15.5013357 28.8747118,15.9241372 C29.2983342,16.3489314 29.5111438,16.8531047 29.5111438,17.4414729 C29.5099791,18.0308375 29.2973359,18.5360072 28.8747118,18.9588087 Z M52.1832642,18.9588087 C51.7771124,19.3836029 51.2791148,19.5950036 50.6906023,19.5950036 C50.0997605,19.5950036 49.5927779,19.3836029 49.1689891,18.9588087 C48.7445347,18.5360072 48.5327235,18.0318339 48.5327235,17.4414729 C48.5327235,16.8531047 48.7445347,16.347935 49.1689891,15.9241372 C49.5927779,15.5013357 50.0997605,15.289935 50.6906023,15.289935 C51.2801131,15.289935 51.776946,15.5013357 52.1832642,15.9241372 C52.5889168,16.3489314 52.7912439,16.8531047 52.7912439,17.4414729 C52.7912439,18.0308375 52.5887504,18.5360072 52.1832642,18.9588087 Z" id="Shape"></path>
                        <path d="M13.6389457,67.5558989 C13.6389457,69.2500939 14.2284564,70.684231 15.4076443,71.8611336 C16.5878305,73.0380361 18.0247525,73.6264043 19.7210726,73.6264043 L23.8135383,73.6264043 L23.8696109,86.1566715 C23.8696109,87.7389386 24.4225164,89.0825704 25.5283274,90.1864043 C26.6341384,91.2902383 27.9620766,91.8420722 29.5098127,91.8420722 C31.0943204,91.8420722 32.4403948,91.2902383 33.5463722,90.1864043 C34.6523496,89.0825704 35.2052551,87.7391047 35.2052551,86.1566715 L35.2052551,73.6275668 L42.8364491,73.6275668 L42.8364491,86.1566715 C42.8364491,87.7389386 43.3891882,89.0825704 44.4951656,90.1864043 C45.601143,91.2902383 46.9460528,91.8420722 48.5317252,91.8420722 C50.1162329,91.8420722 51.4623073,91.2902383 52.5682847,90.1864043 C53.6742621,89.0825704 54.2270012,87.7391047 54.2270012,86.1566715 L54.2270012,73.6275668 L58.3747076,73.6275668 C60.0334241,73.6275668 61.4518771,73.0390325 62.633228,71.86213 C63.8122495,70.6852274 64.402093,69.2510903 64.402093,67.5570614 L64.402093,30.7967509 L13.6389457,30.7967509 L13.6389457,67.5558989 Z" id="Shape"></path>
                        <path d="M72.2579101,29.7490469 C70.7090093,29.7490469 69.3822358,30.2927437 68.2762584,31.377148 C67.1704474,32.4635451 66.6175419,33.7980433 66.6175419,35.3783177 L66.6175419,59.1113285 C66.6175419,60.6957545 67.170281,62.0372274 68.2762584,63.1410614 C69.3822358,64.2448953 70.7100076,64.7967292 72.2579101,64.7967292 C73.8424178,64.7967292 75.1884922,64.2448953 76.2944696,63.1410614 C77.400447,62.0372274 77.9531861,60.6957545 77.9531861,59.1113285 L77.9531861,35.3783177 C77.9531861,33.7978773 77.400447,32.4635451 76.2944696,31.377148 C75.1884922,30.2927437 73.8424178,29.7490469 72.2579101,29.7490469 Z" id="Shape"></path>
                    </g>
                </g>
            </g>
        </g>
    </g>
</svg>