<svg width="160" height="160" viewBox="0 0 160 160" xmlns="http://www.w3.org/2000/svg"><title>DE47E571-42CD-47A7-9695-343E7E7FFE8F</title><g fill="#FFF" fill-rule="evenodd"><path d="M38.414 98.776h-7.31V88.724h-11.88v10.052h-7.31V69.534h7.31v11.88h11.88v-11.88h7.31v29.242M86.845 76.845c0 12.299-9.367 21.93-21.931 21.93-12.504 0-21.931-9.631-21.931-21.93 0-12.298 9.427-21.931 21.93-21.931 12.565 0 21.932 9.633 21.932 21.93zm-7.31 0c0-7.962-6.09-14.62-14.621-14.62-8.532 0-14.62 6.658-14.62 14.62 0 7.962 6.088 14.62 14.62 14.62 8.53 0 14.62-6.658 14.62-14.62zM118.828 91.466c0 8.273-6.168 14.62-14.621 14.62-8.412 0-14.62-6.347-14.62-14.62s6.208-14.621 14.62-14.621c8.453 0 14.62 6.348 14.62 14.62zm-7.31 0c0-4.017-3.008-7.31-7.311-7.31-4.305 0-7.31 3.293-7.31 7.31 0 4.016 3.005 7.31 7.31 7.31 4.303 0 7.31-3.294 7.31-7.31zM135.847 69.534c7.417 0 12.222 4.377 12.222 10.966 0 6.849-4.427 10.966-12.222 10.966h-5.14v7.31h-7.31V69.534h12.45zm0 15.535c3.143 0 4.912-1.684 4.912-4.569 0-2.627-1.769-4.569-4.912-4.569h-5.14v9.138h5.14z"/></g></svg>