<?xml version="1.0" encoding="utf-8"?>
<!-- Generator: Adobe Illustrator 17.0.0, SVG Export Plug-In . SVG Version: 6.00 Build 0)  -->
<!DOCTYPE svg PUBLIC "-//W3C//DTD SVG 1.1//EN" "http://www.w3.org/Graphics/SVG/1.1/DTD/svg11.dtd">
<svg version="1.1" id="Logo" xmlns="http://www.w3.org/2000/svg" xmlns:xlink="http://www.w3.org/1999/xlink" x="0px" y="0px"
	 width="480.043px" height="136.154px" viewBox="0 0 480.043 136.154" style="enable-background:new 0 0 480.043 136.154;"
	 xml:space="preserve">
<g>
	<path style="fill:#333333;" d="M173.263,41.87c-3.242-2.146-8.039-4.708-9.275-5.18c-5.215-1.989-9.006-1.366-12.614,1.132
		c-2.074,1.289-4.136,3.494-6.595,6.356c0,0.004-0.004,0.004-0.004,0.008L88.69,106.002l5.767-21.676l10.279-28.967
		c0-0.004,0.009-0.008,0.004-0.009l-0.081-0.013l0.049-0.138c0-0.004,0.004-0.004,0.004-0.009
		c3.022-9.455,0.772-11.285-7.937-17.214l-0.914-0.623c-5.783-3.921-8.598-1.778-10.596,4.097l-4.682,9.857L31.581,93.892
		L45.797,53.54c1.425-4.451,1.157-6.777-3.046-9.704h-0.002l-9.799-6.663c-3.627-2.461-6.684-2.034-10.752,0.23l-11.999,6.868
		c-3.708,2.073-4.599,4.187-1.552,6.263c0.002,0.002,0.002,0.004,0.006,0.004l11.701,7.955L0.928,115.161
		c-1.432,4.482-1.457,7.671,1.728,9.84l11.068,7.527c0.004,0.004,0.006,0.004,0.006,0.004c4.5,3.061,5.938,1.713,8.443-0.631
		c0.002-0.004,0.002-0.004,0.004-0.004L68.71,88.699l-7.217,18.745l-0.006,0.02c-4.4,13.707-3.654,15.147,5.711,21.543
		c1.204,0.823,6.46,4.6,7.711,4.946c4.549,1.26,7.405-1.166,11.328-5.953c0.002-0.004,0.004-0.008,0.008-0.008l65.795-74.498
		l-0.423,58.178l-9.896-4.274c-3.655-1.614-7.968-3.364-8.115,2.517v9.932c0,4.407,2.384,9.612,7.279,11.638l6.627,2.76
		c5.167,2.229,7.579,2.85,12.805-0.008c0.327-0.176,11.09-6.264,11.304-6.388c5.004-2.828,6.178-5.289,6.485-9.408l0.136-5.073
		v-0.004l0.574-58.252C178.829,47.377,176.843,44.24,173.263,41.87z"/>
	<path style="fill:#333333;" d="M473.982,41.172c-2.743-3.218-4.858-4.34-9.474-4.34c-5.214,0-8.776,2.465-8.776,2.465l-9.03,5.403
		c-3.708,2.073-4.599,4.186-1.552,6.263c0.002,0.002,0.002,0.004,0.006,0.004l11.701,7.955c1.101,0.887,0.576,13.331-3.399,24.053
		c-4.125,11.125-7,16.25-13.5,23.875c-5.763,6.76-15,13.25-21.5,9.75c-6.958-3.746-6.69-14.737,1.5-33.75
		c3.5-8.125,9.333-17.458,12.833-23.458s1.68-11.239-4.028-15.587l-8.043-6.038c-5.569-3.637-13.08-3.268-19.392,3.001
		l-52.444,55.104l8.848-28.657l2.375-6.026c0-0.004,0.004-0.004,0.004-0.009c3.021-9.455-0.229-11.285-8.938-17.214l-0.914-0.623
		c-5.783-3.921-8.598-1.778-10.596,4.097l-0.112,0.237L290.309,93.69l12.803-39.038c0.004-0.004,0.004-0.01,0.004-0.017
		c2.457-7.662-3.899-11.824-11.187-16.782c-7.287-4.956-10.918-1.786-16.938,5.218c0,0.004-0.004,0.004-0.004,0.008l-56.083,62.816
		l21.801-67.881c2.203-6.887,0.785-9.335-3.158-12.191l-8.47-4.568c0,0,139.588,0,139.59,0c3.178-0.016,3.56-1.902,1.908-5.17
		l-5.266-10.688c-1.816-3.578-3.795-5.409-7.571-5.397l-266.017,0c-0.003-0.001-0.004,0-0.006,0
		c-3.178,0.016-3.56,1.955-1.908,5.223l5.266,10.688c1.816,3.578,3.795,5.356,7.571,5.344l116.631,0l-27.569,86.083
		c-0.002,0.008-0.004,0.012-0.006,0.019c-4.4,13.707-3.653,15.148,5.711,21.543c9.368,6.399,11.766,7.87,19.04-1.007
		c0.002-0.004,0.004-0.008,0.008-0.008l63.498-73.414l-20.222,60.165c-1.974,6.508-1.435,8.877,1.602,10.939
		c3.368,2.297,5.51,3.751,9.528,6.483c3.995,2.717,5.769,3.288,10.894-1.542l50.198-47.762l-12.9,31.838
		c-2.597,8.134-1.498,9.182,5.841,14.172c0.012,0.008,0.023,0.016,0.035,0.027l4.583,3.112c4.398,2.824,7.318,3.536,11.609-1.354
		c0.004-0.004,65.008-69.97,65.008-69.97c-3.797,7.312-8.296,14.553-10.902,22.384c-6.049,18.176-8.054,46.576,16.376,51.591
		c3.309,0.679,7.1,1.194,9.874,1.118c34.872-1.227,53.75-36.375,57.737-64.279C481.752,53.663,478.008,45.894,473.982,41.172z"/>
</g>
</svg>
