<svg width="160" height="160" viewBox="0 0 160 160" xmlns="http://www.w3.org/2000/svg"><title>A9246D79-9590-4113-AB37-1A5CA1F19B98</title><g fill="#1A1A1A" fill-rule="evenodd"><path d="M40.391 85.248c-1.87-2.155-4.761-3.232-8.672-3.232-3.999 0-7.122 1.245-9.387 3.735C20.108 88.2 19 91.577 19 95.887c0 4.781 1.333 8.349 4.015 10.695 2.023 1.78 4.633 2.674 7.845 2.674 3.485 0 6.11-1.086 7.87-3.248l.593 2.625h3.614V94.882h-9.708v4.07h4.2v1.197c0 1.333-.57 2.427-1.711 3.265-1.084.79-2.465 1.18-4.135 1.18-2.176 0-3.855-.741-5.027-2.226-1.196-1.492-1.799-3.647-1.799-6.465 0-2.897.57-5.148 1.71-6.752 1.189-1.66 2.867-2.49 5.051-2.49 3.036 0 5.051 1.572 6.047 4.733l5.3-1.285c-.563-2.004-1.39-3.632-2.474-4.86zm10.953 23.385V98.497h5.62l4.762 10.136h6.336l-5.605-11.062c3.068-1.412 4.601-3.735 4.601-6.967 0-2.275-.586-4.063-1.758-5.388-1.502-1.724-3.855-2.578-7.05-2.578H45.707v25.995h5.637zm0-21.59h5.452c1.502 0 2.618.264 3.357.799.746.535 1.116 1.42 1.116 2.658 0 2.41-1.494 3.615-4.473 3.615h-5.452v-7.071zm20.436-1.388c-2.24 2.394-3.357 5.739-3.357 10.009 0 4.677 1.341 8.205 4.015 10.599 2.224 1.995 5.131 2.993 8.72 2.993 4 0 7.13-1.213 9.387-3.64 2.249-2.402 3.373-5.714 3.373-9.952 0-4.246-1.124-7.59-3.373-10.009-2.248-2.434-5.34-3.64-9.282-3.64-4.063 0-7.227 1.214-9.483 3.64zm14.55 3.48c1.22 1.596 1.83 3.767 1.83 6.52 0 3.002-.738 5.308-2.208 6.92-1.212 1.341-2.818 2.02-4.794 2.02-2.208 0-3.934-.822-5.179-2.458-1.196-1.589-1.798-3.744-1.798-6.481 0-2.754.602-4.925 1.798-6.521 1.253-1.652 2.955-2.474 5.115-2.474 2.224 0 3.975.822 5.236 2.474zm9.667 9.362c0 3.28.868 5.85 2.61 7.726 1.871 2.02 4.665 3.033 8.383 3.033 3.614 0 6.344-.934 8.199-2.794 1.895-1.9 2.842-4.549 2.842-7.965V82.638h-5.653v16.234c0 3.815-1.782 5.723-5.34 5.723-3.589 0-5.388-1.908-5.388-5.723V82.638h-5.653v15.859zm30.425 10.136v-9.378h5.99c2.859 0 5.156-.734 6.882-2.203 1.807-1.54 2.706-3.6 2.706-6.185 0-2.546-.779-4.557-2.353-6.042-1.566-1.46-3.75-2.187-6.536-2.187h-12.286v25.995h5.597zm0-21.59h5.485c1.333 0 2.384.336 3.147.999.771.662 1.157 1.604 1.157 2.809 0 1.221-.418 2.21-1.253 2.945-.803.702-1.839 1.046-3.116 1.046h-5.42v-7.798zM31.278 77.02c7.194 0 10.792-2.61 10.792-7.814 0-2.897-1.398-4.9-4.2-6.01 2.248-1.078 3.373-2.937 3.373-5.571 0-2.315-.924-4.047-2.763-5.204-1.47-.934-3.46-1.397-5.982-1.397H19.931V77.02h11.347zm-5.79-11.382h5.894c1.558 0 2.722.2 3.493.59 1.004.512 1.501 1.477 1.501 2.874 0 1.173-.313 2.02-.947 2.546-.771.639-2.12.958-4.047.958h-5.894v-6.968zm0-10.208h5.958c1.165 0 2.048.136 2.666.407 1.004.44 1.502 1.27 1.502 2.49 0 1.014-.33 1.756-.98 2.227-.634.471-1.694.702-3.188.702h-5.958V55.43zm24.668 21.59V58.495l6.198 18.525h4.626l6.166-18.525V77.02h5.356V51.024H65.1l-6.303 19.307-6.384-19.307H44.84V77.02h5.316zm37.29-.017l4.866-18.357 4.609 18.357h6.127L109.399 51h-5.757l-3.95 18.756L95.226 51H89.63l-4.617 18.756L81.166 51h-5.901l5.998 26.003h6.183z"/></g></svg>