<svg width="160" height="160" viewBox="0 0 160 160" xmlns="http://www.w3.org/2000/svg"><title>C0C43749-6E62-4A24-9BDA-66FD89C19926</title><g fill="none" fill-rule="evenodd"><path d="M79.82 100.187c-32.795 0-59.384-8.988-59.384-20.066 0-11.079 26.59-20.06 59.383-20.06 32.796 0 59.388 8.98 59.388 20.06 0 11.079-26.592 20.066-59.388 20.066zM19 102h121.647V58H19v44z" fill="#1A1A1A"/><path d="M77.967 86.553l-.405-.313-5.412-8.72 4.49-6.437-10.319-.012s.17.287.17.463c0 .28-.077.474-.077.474l-3.755 4.954.006-5.111.09-.456.173-.23H52.559l.17.216.09.412.004 14.262-.09.466-.17.235h10.365l-.178-.235-.094-.435-.014-5.443 3.278 5.21s.132.36.053.73a.492.492 0 0 1-.114.173h12.569l-.461-.203z" fill="#1A1A1A"/><path d="M65.734 86.91s.08-.07.157-.154h-.157v.154z" fill="#000"/><path fill="#1A1A1A" d="M46.9 71.395l.173-.23H36.706l.121.223.042.42v14.278l-.037.496-.122.298 10.36.028-.17-.293-.09-.487.003-14.277zM98.502 82.146l-.528.106h-7.498v-1.445l5.743-.006.448.089.303.178.009-4.407-.29.17-.47.087-5.743.022v-1.27h7.457l.493.034.294.126-.014-4.784-18.103-.034.175.3.076.497v14.278l-.072.497-.166.298 18.163.035-.017-4.973zM112.263 80.52l1.22-2.764 1.222 2.764h-2.442zm14.906 5.802l-6.134-14.487s-.077-.283-.045-.5c.03-.223.175-.302.175-.302l-14.05-.004s.144.083.174.3c.033.223-.044.502-.044.502l-5.216 14.148s.027-.018-.112.279a.988.988 0 0 1-.478.498h8.947s-.182-.258-.182-.562c0-.157.075-.175.075-.175l.79-2.035h4.83l.72 2.036s.055.207.073.367c.017.15-.153.512-.153.512l11.095-.02-.27-.248-.195-.309z"/></g></svg>