<svg width="160" height="160" viewBox="0 0 160 160" xmlns="http://www.w3.org/2000/svg"><title>DFD38AC1-D9E2-4C65-AA99-A39BEAA6194B</title><g fill="#1A1A1A" fill-rule="evenodd"><path d="M44.297 48.214c-3.876 3.487-5.287 11.39 1.7 16.009L73.869 83.23 60.354 52.454c-2.831-7.262-10.578-8.846-16.057-4.24M68.289 33.25c-4.53.092-11.334 5.455-8.306 13.644L73.96 79.661l4.911-34.464c1.137-8.564-5.383-12.517-10.582-11.946M81.053 43.883h2.643s1.411 0 1.603.661c-1.04.845-3.871.95-3.495 5.46l4.443 29.653 13.882-32.853c2.839-7.336-3.121-13.462-8.408-13.65a10.426 10.426 0 0 0-.75-.031c-4.746 0-10.184 3.428-9.918 10.76M99.57 52.733L86.44 83.14l27.863-19.108c6.423-4.529 5.387-11.769 1.792-15.347-1.507-1.685-4.275-2.986-7.206-2.986-3.464 0-7.17 1.826-9.32 7.034M111.184 68.359L85.016 86.527h32.22c6.61 0 10.858-6.775 8.97-12.992-1.265-3.908-5.007-6.975-9.35-6.98-1.829.001-3.768.548-5.672 1.804M43.546 86.527H75.29L49.116 68.359c-6.047-3.862-12.846-1.603-15.3 4.806-2.081 7.336 3.114 13.362 9.73 13.362M78.7 111.385h5.89c1.353.085 3.753 1.26 3.753 4.042 0 2.91-2.49 4.084-3.84 4.217H78.7v-8.259m-.09-12.956h4.847c1.657.09 3.616 1.306 3.616 3.566 0 2.216-1.481 3.693-3.398 3.956h-5.065V98.43m-6.627-5.391v31.992H87.6c3.707 0 8.113-3.693 8.113-8.518 0-5.042-3.314-7.518-5.41-8.518 0 0 3.839-2.217 3.668-7-.174-6.433-6.153-7.956-8.203-7.956H71.984M48.032 125.03v-18.427l20.24 19.644v-33.21h-6.8v17.956L41.224 91.737v33.293zM96.806 108.687c.171 10.118 7.484 17.682 16.885 17.682 2.23 0 4.577-.42 6.977-1.339v-6.519a11.734 11.734 0 0 1-6.092 1.713c-5.689 0-11.057-4.185-10.835-11.796.384-6.175 5.469-10.438 10.949-10.438 2.007 0 4.07.575 5.978 1.83v-6.344c-2.224-.896-4.435-1.297-6.565-1.297-9.377 0-17.117 7.863-17.297 16.508"/></g></svg>