<svg width="160" height="160" viewBox="0 0 160 160" xmlns="http://www.w3.org/2000/svg"><title>76A3C71B-5FAB-4692-A595-F3588A0D78D1</title><g fill="#1A1A1A" fill-rule="evenodd"><path d="M134.243 103.083h-4.79c-.15-.789-.38-1.345-.695-1.657-.513-.51-1.387-.772-2.594-.772-1.19 0-2.015.196-2.476.591-.348.296-.53.705-.53 1.215 0 .72 1.009 1.296 3.006 1.74 2.28.49 3.917.918 4.923 1.262.265.099.496.181.662.263 2.033.952 3.04 2.398 3.04 4.334 0 2.363-.991 4.086-2.958 5.17-.248.132-.479.246-.744.361-1.27.542-2.757.82-4.426.82-2.494 0-4.51-.443-6.046-1.314-.967-.558-1.689-1.259-2.17-2.105-.48-.845-.721-1.832-.721-2.965h5.02c0 .853.316 1.527.926 1.986.613.476 1.653.723 3.122.723 1.107 0 1.933-.231 2.479-.69.43-.362.627-.756.627-1.215 0-.771-.99-1.378-2.957-1.805-2.94-.624-4.79-1.133-5.55-1.495-2.014-.935-3.006-2.378-3.006-4.382 0-1.607.512-2.97 1.57-4.085 1.321-1.396 3.302-2.086 5.93-2.086 2.163 0 3.898.313 5.203.92.115.048.215.098.315.165.94.507 1.65 1.181 2.126 2.02.475.835.714 1.837.714 3.001M132.08 90.97c.1.132.148.28.148.443 0 .23-.082.428-.249.59a.956.956 0 0 1-.643.28c.115.049.198.1.264.164l.462.608.364.606h-.595l-.282-.491c-.18-.311-.328-.542-.462-.657-.015-.015-.033-.033-.066-.049l-.395-.114h-.298v1.311h-.496v-3.084h1.073c.067 0 .134.016.182.016.264 0 .462.033.595.082.165.05.297.147.398.295zm-.398.494a.389.389 0 0 0-.066-.247.356.356 0 0 0-.213-.163 2.368 2.368 0 0 0-.316-.051h-.759v.92h.759c.216-.016.364-.05.447-.131a.413.413 0 0 0 .148-.328z"/><path d="M133.963 92.087c0 .477-.117.953-.381 1.411a2.493 2.493 0 0 1-1.056 1.05c-.464.264-.926.379-1.423.379h-.016c-.495 0-.957-.115-1.42-.38a2.496 2.496 0 0 1-1.058-1.049 2.79 2.79 0 0 1-.379-1.41c0-.51.115-.986.38-1.446a2.652 2.652 0 0 1 1.074-1.05 3.138 3.138 0 0 1 1.403-.377h.016c.48 0 .943.13 1.405.377.464.247.827.591 1.074 1.05.264.46.381.936.381 1.445zm-.479 0c0-.427-.1-.82-.315-1.198a2.319 2.319 0 0 0-.892-.887 2.567 2.567 0 0 0-1.174-.311h-.016c-.396 0-.792.115-1.17.311a2.308 2.308 0 0 0-.895.887c-.213.378-.329.77-.329 1.198 0 .41.116.803.33 1.182.199.36.496.657.875.868.38.215.777.314 1.19.314h.015c.415 0 .81-.1 1.192-.314.379-.21.677-.508.874-.868.215-.379.315-.771.315-1.182zM105.862 68.896l13.563 22.453H97.636L84.685 69.897l-9.812-16.232 9.812-5.86 6.177-3.692 15 24.783M111.198 107.958v-2.035c-.48-2.462-2.676-4.334-5.286-4.334h-.05c-2.956.018-5.353 2.414-5.353 5.35 0 2.939 2.397 5.335 5.353 5.368h.05c2.61 0 4.807-1.887 5.286-4.35zm4.51-1.019v9.208h-4.51v-1.018a9.693 9.693 0 0 1-5.286 1.56h-.05c-5.386-.033-9.764-4.4-9.764-9.75s4.378-9.715 9.764-9.748h.05c1.948 0 3.766.576 5.286 1.558v-1.066h4.51v9.256zM90.021 107.958v-2.035c-.48-2.462-2.678-4.334-5.287-4.334h-.049c-2.958.018-5.352 2.414-5.352 5.35 0 2.939 2.394 5.335 5.352 5.368h.049c2.61 0 4.808-1.887 5.287-4.35zm4.509-1.019v9.208H90.02v-1.018a9.738 9.738 0 0 1-5.287 1.56h-.049c-5.385-.033-9.763-4.4-9.763-9.75s4.378-9.715 9.763-9.748h.049c1.95 0 3.75.576 5.287 1.558v-7.4h4.509v15.59zM84.685 82.517l5.319 8.832H68.23L56.14 71.36l-.529-.871.528-.31 15.479-9.26 13.067 21.6M68.248 116.147h4.906V97.191h-4.906zM68.248 95.73h4.906v-4.284h-4.906zM61.491 107.958v-2.035c-.479-2.462-2.676-4.334-5.303-4.334h-.049c-2.957.018-5.352 2.414-5.352 5.35 0 2.939 2.395 5.335 5.352 5.368h.05a5.413 5.413 0 0 0 5.302-4.35zm4.51-1.019v9.208h-4.51v-1.018a9.785 9.785 0 0 1-5.303 1.56h-.049c-5.385-.033-9.763-4.4-9.763-9.75s4.378-9.715 9.763-9.748h.05c1.95 0 3.767.576 5.302 1.558v-7.4h4.51v15.59zM56.14 83.962l4.46 7.387H38.81l-2.445-4.054 16.007-9.552 3.767 6.219M40.1 107.958v-2.035c-.48-2.462-2.677-4.334-5.304-4.334h-.05c-2.94.018-5.335 2.414-5.335 5.35 0 2.939 2.394 5.335 5.334 5.368h.051a5.413 5.413 0 0 0 5.303-4.35zm4.508-1.019v9.208h-4.509v-1.018a9.795 9.795 0 0 1-5.303 1.56h-.05c-5.368-.033-9.746-4.4-9.746-9.75s4.378-9.715 9.745-9.748h.051c1.948 0 3.766.576 5.303 1.558v-1.066h4.509v9.256z"/></g></svg>