<svg width="160" height="160" viewBox="0 0 160 160" xmlns="http://www.w3.org/2000/svg"><title>8F15FE4A-4BD6-4D35-BDAE-006CAF7C9E34</title><g fill="none" fill-rule="evenodd"><path d="M122.269 96.765c-11.494 4.673-25.415 7.025-41.7 7.076-16.308.022-30.267-2.213-41.821-6.689-11.554-4.492-17.356-9.895-17.382-16.133-.044-6.25 5.701-11.765 17.195-16.552 11.506-4.815 25.45-7.225 41.82-7.27 16.35-.053 30.312 2.255 41.866 6.877 11.55 4.574 17.333 10.05 17.302 16.298 0 6.237-5.774 11.704-17.28 16.393m3.063-33.418c-12.396-4.829-27.398-7.229-44.954-7.178-17.591.048-32.561 2.568-44.906 7.594C23.12 68.769 16.946 74.518 17 81.054c.029 6.505 6.257 12.143 18.663 16.834 12.402 4.667 27.4 7 44.906 6.978 17.502-.048 32.446-2.51 44.792-7.387 12.354-4.898 18.557-10.6 18.557-17.107.025-6.53-6.174-12.229-18.586-17.025" fill="#1A1A1A"/><path d="M107.226 90.832l.311.546c.372.085.684.085 1.004 0 .563-.381 1.062-.79 1.576-1.229a7.15 7.15 0 0 0 1.08-.949l.814-.92.648-.896a6.09 6.09 0 0 1 .859-1.019l.447-.46.34.098.287.222.248.397c-.614 1.105-1.354 2.099-2.18 3.054a18.671 18.671 0 0 1-3.365 3.076c-.82.543-1.726.822-2.654.765-.712 0-1.389-.25-1.986-.73-.308-.257-.54-.594-.76-1.041l-1.56 1.14a5.613 5.613 0 0 1-1.976.38c-1.017.086-1.9-.231-2.692-.822-.74-.416-1.188-1.066-1.407-1.98a9.092 9.092 0 0 1-.232-2.994c-.877.38-1.7.685-2.52.94-.645.2-1.357.2-2.065 0-.68-.077-1.303-.34-1.897-.712l-.512-.38-.47-.696-.207-.854-.508.953c-1.22 2.323-2.463 4.682-3.798 7.05l-3.355.026c1.636-3.057 3.158-6.099 4.668-9.194a5.98 5.98 0 0 0 .648-2.035v-.761l-.594-.185a17.96 17.96 0 0 0-1.328 1.032 24.11 24.11 0 0 0-2.304 2.613 142.578 142.578 0 0 1-3.137 3.803 29.741 29.741 0 0 1-2.974 3.4c-.559.51-1.179.882-1.78 1.171-.65.257-1.242.4-1.861.441-.63 0-1.252-.101-1.862-.349l-.967-.54-.657-.663-.6-.908-.392-.91-.505.377-.483.533-.588.406-.524.19-.56.163-.81-.435c-.178-.45-.117-.829.223-1.206a41.802 41.802 0 0 0 1.719-1.95 13.31 13.31 0 0 0 1.392-2.425c.336-.625.635-1.25.93-1.813a7.969 7.969 0 0 1 1.329-1.949 9.92 9.92 0 0 1 2.043-1.797c.82-.536 1.669-1.05 2.571-1.485l.845-.286h.283c.337.133.6.35.693.72l.025.49-.178.435-.263.409-.4.282-.16.086a30.51 30.51 0 0 0-2.965 3.216c-.626.759-1.02 1.632-1.216 2.606a2.964 2.964 0 0 0 .079 1.854c.152.483.368.89.686 1.2.528.222 1.014.289 1.522.156.684-.308 1.227-.597 1.56-.915l.617-.59c.229-.374.515-.787.718-1.203.273-.435.477-.908.597-1.38a7.71 7.71 0 0 0 .395-1.766c.076-.625.19-1.216.28-1.822.025-.822.075-1.594.196-2.381l.258-.489.419-.397h.642l.445.21.33.352.143.543.083.755.019.94V84.01a69.333 69.333 0 0 1 4.455-4.092c.559-.442 1.122-.75 1.75-.883.563-.057 1.078.067 1.586.286.33.257.566.533.738.923.222.407.416.845.534 1.286.422-.51.905-.955 1.395-1.387l.727-.565c.4-.194.734-.276 1.074-.257a5.625 5.625 0 0 1 1.757.225c.448.188.792.502 1.106.943.22.378.312.784.312 1.289a2.67 2.67 0 0 1-.423 1.476l-.797.917c-.255.055-.601.055-.963-.038l-.887-.492-.327-.92v-.467l-.483-.102h-.34a5.712 5.712 0 0 0-.645 1.134c-.175.41-.229.847-.175 1.266.175.696.505 1.156.992 1.378.651.435 1.388.514 2.176.257a5.954 5.954 0 0 0 2.377-1.104c.515-.318.953-.696 1.414-1.102.426-.378.855-.787 1.24-1.203a24.332 24.332 0 0 1 2.665-2.127l.674-.483c.178-.12.511-.25.956-.412.464-.21 1.027-.28 1.624-.21.626 0 1.128.12 1.471.28.369.253.677.54.912.854.334.307.585.637.807 1.006l5.688-9.35 3.794-.015-9.844 16.749-.168.822v.571l.108.369zm-47.986-.905a14.928 14.928 0 0 1-3.257 2.638c-1.102.628-2.122 1.076-3.11 1.352-1.02.315-2.098.223-3.232-.184-1.15-.438-2.005-.889-2.456-1.33-.486-.457-.938-1.057-1.386-1.848-.451-.79-.68-1.853-.623-3.209a11.87 11.87 0 0 1 .989-4.06 8.392 8.392 0 0 1 1.334-2.042c.652-.67 1.303-1.352 1.974-2.044l.546-.314.756.057.455.257.286.41c.11.216.054.533-.15.965-.59.67-1.179 1.33-1.776 1.955a5.982 5.982 0 0 0-.766 1.01c-.219.31-.42.654-.562 1.035l-.169.98.112.94c.152.66.34 1.203.62 1.638.285.41.568.72.883.937.928.441 1.919.504 2.974.158 1.036-.31 2.097-.876 3.13-1.631 1.055-.788 2.097-1.857 3.178-3.21.79-1.01 1.572-2.04 2.29-3.143.754-1.101 1.485-2.21 2.206-3.31-.343.168-.68.327-1.08.45l-.932.375-.962.276-.91.286h-.498l-.267-.286.435-.898a104.3 104.3 0 0 1 2.736-1.296c.483-.222.935-.39 1.395-.5.534-.134 1.068-.258 1.59-.379a99.66 99.66 0 0 1 3.955-4.628 180.804 180.804 0 0 1 4.525-4.756c-1.55-.336-3.11-.695-4.668-.968a18.774 18.774 0 0 0-4.14-.222c-1.262.063-2.507.282-3.73.733a14.829 14.829 0 0 0-3.309 1.968c-.651.543-1.16 1.264-1.557 2.146-.168.34-.193.781-.14 1.257.054.413.204.784.484 1.01.39.378.851.562 1.33.562.535 0 1.046-.162 1.497-.467a54.935 54.935 0 0 0 3.397-2.587h.649c.174.283.117.632-.086 1.073a19.614 19.614 0 0 1-1.897 2.962c-.607.81-1.332 1.473-2.12 2.038-.79.536-1.614.758-2.488.784-.883.066-1.735-.178-2.5-.75-.617-.5-1.068-1.164-1.357-2.015a6.556 6.556 0 0 1 0-2.768c.241-1.099.664-2.143 1.309-3.048.873-1.143 1.906-2.076 3.05-2.866a18.296 18.296 0 0 1 3.499-1.508c1.366-.321 2.764-.511 4.2-.565 1.672-.09 3.315-.042 5.018.219 1.694.254 3.41.53 5.142.91 2.103.35 4.197.607 6.32.779 3.53.231 7.038.263 10.52.133 1.863-.086 3.741-.194 5.632-.343l.845.19.343.375c.086.19 0 .511-.343.908a8.394 8.394 0 0 1-2.574 1.86c-1.265.683-2.602 1.102-3.966 1.226-1.747.2-3.558.2-5.401-.032a78.178 78.178 0 0 1-6.73-1.254c-1.25-.381-2.53-.759-3.83-1.175l-.782.632a74.066 74.066 0 0 0-3.085 3.241 98.323 98.323 0 0 0-3.368 4.537c.715-.07 1.449-.134 2.145-.194.372 0 .734 0 1.08.06.388 0 .73.032 1.077.099.048-.724.137-1.473.258-2.257l.25-.76c.195-.409.42-.723.643-1.009l.715-.476.25-.025.595.025.651.251.623.568.207.537-.064.759a8.046 8.046 0 0 1-1.131 2.228c-.2.381-.515.664-.903.88l.083.409.226.193.142.381-.142.245-.226.286-.451.022-.302-.114-.324-.29-.258-.466-.244-.378c-.483 0-.995 0-1.478.02-.512.072-1.045.142-1.586.142-.476.05-.924.12-1.407.178-.518.066-1.027.095-1.51.095a143.624 143.624 0 0 1-5.69 9.644c-.786 1.245-1.64 2.346-2.626 3.32zm72.32-20.01a40.282 40.282 0 0 0-6.304-3.491 83.327 83.327 0 0 0-7.728-2.902c-3.054-.94-6.155-1.79-9.307-2.473a129.44 129.44 0 0 0-6.057-1.203 264.72 264.72 0 0 0-9.825-.847 281.164 281.164 0 0 0-11.675-.435c-1.872 0-3.765.025-5.63.092-2.015.127-3.998.31-6.003.504-3.594.404-7.22.842-10.836 1.445a132.991 132.991 0 0 0-9.79 2.07c-2.885.797-5.72 1.663-8.545 2.743a50.049 50.049 0 0 0-7.02 3.365 31.407 31.407 0 0 0-5.318 3.812 21.34 21.34 0 0 0-3.369 3.838 8.114 8.114 0 0 0-.991 2.133c-.165.734-.223 1.48-.223 2.197a9.4 9.4 0 0 0 .245 2.114c.207.781.55 1.508.998 2.102a20.124 20.124 0 0 0 3.454 3.873 30.077 30.077 0 0 0 5.345 3.755c2.24 1.29 4.613 2.32 7.048 3.168a78.582 78.582 0 0 0 8.55 2.705c3.274.82 6.556 1.47 9.813 1.981a171.74 171.74 0 0 0 10.87 1.387c2.003.15 3.982.283 5.962.35 5.834.155 11.611-.048 17.347-.578 3.26-.27 6.54-.626 9.796-1.092a67.684 67.684 0 0 0 6.05-1.229 94.778 94.778 0 0 0 9.28-2.549 57.281 57.281 0 0 0 7.699-3.019c2.202-1.032 4.302-2.295 6.288-3.71a19.932 19.932 0 0 0 4.127-3.902c.992-1.169 1.672-2.553 2.07-4.102.33-1.34.304-2.717-.064-4.114-.363-1.54-1.077-2.92-2.056-4.156-1.255-1.473-2.644-2.758-4.201-3.831z" fill="#1A1A1A"/><path d="M104.296 82.72c-.241-.123-.553-.152-.979-.104-.394-.019-.788.162-1.21.546l-.55.486-.111.104-.26.337a11.73 11.73 0 0 0-1.609 2.774 9.478 9.478 0 0 0-.546 1.965l.184.734c.235.365.556.606.915.717.375.086.747.086 1.087 0l.839-.416a22.127 22.127 0 0 0 1.814-2.444c.474-.717.81-1.473.988-2.216.223-.759.191-1.397 0-1.917l-.562-.565z" fill="#1A1A1A"/><path d="M76.079 73.311c.273-1.288-2.587-2.266-1.748 1.753 0 0 1.471-.467 1.748-1.753" fill="#000"/></g></svg>