<svg width="160" height="160" viewBox="0 0 160 160" xmlns="http://www.w3.org/2000/svg"><title>D12B6196-0077-42CD-966D-31FCDCD4921F</title><path d="M71.744 95.568c0 3.72-1.457 5.833-8.684 5.833-.95 0-1.776-.057-2.598-.171V52.025c0-3.733 1.265-7.635 8.556-7.635.954 0 1.84.084 2.726.285v50.893zm-15.468-7.45c0 6.917-4.502 11.977-13.633 12.967-6.657.715-16.295-.12-20.857-.641a10.571 10.571 0 0 1-.319-2.428c0-6.044 3.233-7.44 6.342-7.44 3.169 0 8.177.577 11.92.577 4.055 0 5.324-1.383 5.324-2.713 0-1.74-1.648-2.461-4.817-3.062l-8.751-1.682c-7.228-1.394-11.095-6.394-11.095-11.712 0-6.487 4.565-11.903 13.569-12.887 6.784-.749 15.089.087 19.654.641a9.69 9.69 0 0 1 .252 2.314c0 6.05-3.169 7.356-6.277 7.356-2.28 0-5.959-.436-10.142-.436-4.25 0-6.025 1.178-6.025 2.599 0 1.507 1.712 2.112 4.313 2.599l8.37 1.534c8.496 1.561 12.172 6.427 12.172 12.414zm45.775 26.495c.953.5 2.853 1.072 5.327 1.135 4.183.081 6.466-1.504 8.178-5.295l22.572-50.315c-.887-.49-2.981-1.048-4.693-1.068-2.854-.064-6.785.514-9.255 6.443l-7.292 17.246-14.33-23.32c-.95-.285-3.17-.685-4.818-.685-5.072 0-7.925 1.85-10.842 5.03L73.013 79.035l11.159 17.611c2.094 3.22 4.82 4.862 9.194 4.862 2.917 0 5.324-.665 6.466-1.215L86.39 79.979l9.51-10.151 15.66 24.622-9.51 20.163z" fill="#1A1A1A" fill-rule="evenodd"/></svg>