<svg width="160" height="160" viewBox="0 0 160 160" xmlns="http://www.w3.org/2000/svg"><title>8CD289AE-2280-455D-BCCC-13CF49B35545</title><path d="M60.445 49.466c-.471 1.217-.408 2.555-.444 3.836.117 17.128-.079 34.258.1 51.38 4.571-5.321 9.024-10.738 13.452-16.182 1.064-1.21 2.136-2.824 3.935-2.851 4.39-.313 8.807.207 13.198-.159.967-.01 1.909-.53 2.136-1.523.894-2.995 1.35-6.105 1.946-9.167.27-1.265.239-3.312-1.497-3.366-5.209-.501-10.484.27-15.688-.31-2.756-.483-2.893-3.872-2.549-6.069.1-1.76 1.858-2.781 3.48-2.72 5.31-.153 10.627.08 15.943-.024 1.058-.086 2.48-.059 2.993-1.211.884-2.028 1.033-4.275 1.519-6.413.28-1.772.883-3.576.534-5.38-.798-1.391-2.629-1.2-3.998-1.306-10.426.048-20.858.021-31.282.011-1.335.074-3.105.037-3.778 1.454zm-3.95-10.22c.808-.158 1.628-.202 2.448-.228 14.297.011 28.595.048 42.887-.015 2.37-.032 5.2.207 6.649 2.37 1.847 2.82.969 6.369.376 9.442-2.522 12.177-4.797 24.407-7.311 36.584-.47 1.953-.93 4.074-2.417 5.534-1.089 1.096-2.655 1.524-4.157 1.604-4.428.227-8.859-.149-13.282.078-1.122-.063-1.915.777-2.592 1.545-6.131 7.263-12.515 14.31-18.656 21.561-.84.94-1.677 1.941-2.804 2.554-1.871.932-4.436.498-5.7-1.23-.806-1.09-.853-2.503-.911-3.8.032-20.994.01-41.99.017-62.985.031-2.587-.213-5.206.21-7.772.461-2.602 2.619-4.807 5.243-5.242z" fill="#1A1A1A" fill-rule="evenodd"/></svg>