<?xml version="1.0" encoding="UTF-8"?>
<svg width="88px" height="76px" viewBox="0 0 88 76" version="1.1" xmlns="http://www.w3.org/2000/svg" xmlns:xlink="http://www.w3.org/1999/xlink">
    <!-- Generator: Sketch 45.2 (43514) - http://www.bohemiancoding.com/sketch -->
    <title>logo_coop</title>
    <desc>Created with Sketch.</desc>
    <defs>
        <polygon id="path-1" points="43.4880816 74.25 0.0329481132 74.25 0.0329481132 0.0066 43.4880816 0.0066 86.9432151 0.0066 86.9432151 74.25 43.4880816 74.25"></polygon>
    </defs>
    <g id="02c-Expertise-Page-Template" stroke="none" stroke-width="1" fill="none" fill-rule="evenodd">
        <g id="Community-Page-Template-v1" transform="translate(-131.000000, -6954.000000)">
            <g id="Client-Logos" transform="translate(0.000000, 6505.000000)">
                <g id="Group-7" transform="translate(120.000000, 171.000000)">
                    <g id="Group-3" transform="translate(0.000000, 88.000000)">
                        <g id="logo-nissan" transform="translate(0.000000, 173.000000)">
                            <g id="nissan-seeklogo.com" transform="translate(11.687500, 17.875000)">
                                <g id="Group-3">
                                    <mask id="mask-2" fill="white">
                                        <use xlink:href="#path-1"></use>
                                    </mask>
                                    <g id="Clip-2"></g>
                                    <path d="M74.6313204,41.14825 L70.1690476,41.14825 L66.5996686,34.8436 L66.5996686,41.14825 L63.7738188,41.14825 L63.7738188,31.84115 L68.6819894,31.84115 L71.8049214,38.2965 L71.8049214,31.84115 L74.6313204,31.84115 L74.6313204,41.14825 Z M43.4920586,65.19315 C31.3556211,65.19315 20.9412716,58.13885 16.4822936,48.081 C29.2019127,49.03855 43.8649214,49.1029 43.8649214,49.1029 C54.1837213,49.27065 63.4015051,48.78995 70.4414186,48.2086 C65.9494925,58.1977 55.5757791,65.19315 43.4920586,65.19315 Z M15.1380106,34.99375 L15.1380106,41.14825 L12.3121608,41.14825 L12.3121608,31.84115 L17.0715157,31.84115 L20.4926281,38.4461 L20.4926281,31.84115 L22.8720311,31.84115 L22.8720311,41.14825 L18.559123,41.14825 L15.1380106,34.99375 Z M24.9543518,41.14825 L28.2266486,41.14825 L28.2266486,31.84115 L24.9543518,31.84115 L24.9543518,41.14825 Z M32.0936588,37.6959 C32.0936588,37.6959 30.3089693,37.5452 30.0113381,35.29405 L30.0113381,34.8436 C30.0113381,34.8436 29.8625224,32.44175 32.390741,31.84115 L39.0841502,31.84115 L39.0841502,34.243 L32.9860035,34.243 L32.9860035,35.59435 L38.0429898,35.59435 C38.0429898,35.59435 39.8276792,36.1944 39.8276792,37.9962 L39.8276792,38.4461 C39.8276792,38.4461 39.9764949,40.3975 38.1918054,41.14825 L30.1601537,41.14825 L30.1601537,38.89655 L37.150645,38.89655 L37.150645,37.6959 L32.0936588,37.6959 Z M42.8023447,37.6959 C42.8023447,37.6959 41.0176553,37.5452 40.720024,35.29405 L40.720024,34.8436 C40.720024,34.8436 40.5712083,32.44175 43.099976,31.84115 L49.7928361,31.84115 L49.7928361,34.243 L43.6946895,34.243 L43.6946895,35.59435 L48.7516757,35.59435 C48.7516757,35.59435 50.5363652,36.1944 50.5363652,37.9962 L50.5363652,38.4461 C50.5363652,38.4461 50.6851808,40.3975 48.9004914,41.14825 L40.8688396,41.14825 L40.8688396,38.89655 L47.859331,38.89655 L47.859331,37.6959 L42.8023447,37.6959 Z M63.0302897,41.14825 L60.0550751,41.14825 L59.1627303,39.49715 L54.4033754,39.49715 L53.6598463,41.14825 L50.6851808,41.14825 L54.8498223,31.84115 L58.5680169,31.84115 L63.0302897,41.14825 Z M43.4920586,9.064 C55.603785,9.064 65.9989147,16.09025 70.4732685,26.1151 C49.1723133,24.31715 26.6665554,25.09705 16.7541156,25.5992 C21.3520248,15.8521 31.5901018,9.064 43.4920586,9.064 Z M86.8078447,30.58275 C86.7611682,27.82615 84.6513907,27.77335 84.6513907,27.77335 C83.4103451,27.58085 82.1517272,27.40155 80.8804792,27.2316 C76.351761,11.53735 61.3345601,0.0066 43.4920586,0.0066 C25.7906847,0.0066 10.8695825,11.35585 6.21456329,26.8609 C5.18438561,27.06165 4.23877476,27.25635 3.26680542,27.4615 C0.526071541,27.96035 0.341012972,29.8936 0.341012972,30.01845 C-0.281706368,32.5127 0.0911564465,40.8078 0.341012972,43.61445 C0.527169811,46.6081 2.95599489,46.35895 3.07900118,46.4211 C3.98507429,46.61635 4.99987618,46.79675 6.08551651,46.96395 C10.5928184,62.69065 25.6259442,74.25 43.4920586,74.25 C61.293375,74.25 76.2831191,62.7726 80.8475311,47.13225 C83.1841014,46.83415 84.4828062,46.6246 84.4828062,46.6246 C86.6897807,46.4343 86.7370063,43.79595 86.7370063,43.7723 C87.1406207,39.92285 86.8314575,30.58275 86.8078447,30.58275 L86.8078447,30.58275 Z" id="Fill-1" fill="#161616" mask="url(#mask-2)"></path>
                                </g>
                                <polyline id="Fill-4" fill="#161616" points="56.7833274 34.39315 55.4445358 37.0953 58.12157 37.0953 56.7833274 34.39315"></polyline>
                            </g>
                        </g>
                    </g>
                </g>
            </g>
        </g>
    </g>
</svg>