<?xml version="1.0" encoding="UTF-8"?>
<svg width="101px" height="14px" viewBox="0 0 101 14" version="1.1" xmlns="http://www.w3.org/2000/svg" xmlns:xlink="http://www.w3.org/1999/xlink">
    <!-- Generator: Sketch 45.2 (43514) - http://www.bohemiancoding.com/sketch -->
    <title>logo_nbc</title>
    <desc>Created with Sketch.</desc>
    <defs></defs>
    <g id="02c-Expertise-Page-Template" stroke="none" stroke-width="1" fill="none" fill-rule="evenodd">
        <g id="Community-Page-Template-v1" transform="translate(-561.000000, -6985.000000)" fill-rule="nonzero" fill="#000000">
            <g id="Client-Logos" transform="translate(0.000000, 6505.000000)">
                <g id="Group-7" transform="translate(120.000000, 171.000000)">
                    <g id="Group-3" transform="translate(0.000000, 88.000000)">
                        <g id="logo-skanetrafiken" transform="translate(436.000000, 173.000000)">
                            <path d="M9.20014589,61.7650077 C7.68301337,61.7650077 6.55397267,61.3454193 5.49999708,60.4847782 L6.38750172,59.0926242 C7.18360054,59.8806934 8.01544458,60.2103337 9.18125198,60.2103337 C9.8660297,60.2103337 11.1789033,59.6435576 11.198308,58.6163073 C11.2534578,56.7493697 9.44117125,56.4028644 8.38668512,55.8345549 C6.88742524,55.028087 5.74000122,54.2395064 5.74000122,52.2821095 C5.74000122,50.3763306 7.81271769,49.0961011 9.77309194,49.0961011 C11.16052,49.0961011 12.307944,49.6812758 12.9927218,50.3047809 L12.1047065,51.603409 C11.6231663,51.1081824 11.0308157,50.5966017 9.79147521,50.5776921 C8.86669329,50.5613379 7.86735699,51.0182342 7.83110107,52.1911391 C7.77492986,53.5832929 9.05205819,53.9839716 10.5145515,54.6069655 C12.1598563,55.3209299 13.3813242,56.6394897 13.3624303,58.2687799 C13.3435364,60.3375905 11.568527,61.7486529 9.20014589,61.7650077" id="path3"></path>
                            <polyline id="polyline5" points="20.5308941 61.4552994 17.8857422 56.6578882 16.8302346 57.6278985 16.8302346 61.4552994 15.1282479 61.4552994 15.1282479 48.5461901 16.8302346 48.5461901 16.8302346 55.959767 20.3644231 52.3352608 22.2144975 52.3352608 19.1240614 55.4323431 22.5653121 61.4552994"></polyline>
                            <path d="M28.7272908,61.4552994 L28.5960539,60.5215754 C27.8019985,61.1803434 26.9875153,61.6745481 25.8594969,61.6745481 C24.3413431,61.6745481 23.3991984,60.4295824 23.3991984,59.0742258 C23.3991984,57.2077992 25.0828026,56.2909402 27.0804533,56.0517595 L28.596565,55.8693077 L28.596565,54.8257034 C28.596565,53.8930011 28.0797903,53.4335495 27.1733913,53.4335495 C25.9892005,53.4335495 25.2119963,53.8735805 24.6753061,54.368807 L23.8250783,53.3425791 C24.7309662,52.6281037 25.9519238,52.1528088 27.4690565,52.1528088 C29.2455977,52.1528088 30.2806793,52.9761421 30.2806793,54.6258752 L30.2806793,61.4552994 L28.7272908,61.4552994 L28.7272908,61.4552994 Z M28.5960539,57.0054156 L27.7085494,57.1163177 C26.5064863,57.2609505 25.1190583,57.6652066 25.1190583,58.8365784 C25.1190583,59.8065886 25.6552375,60.3743866 26.5437631,60.3575214 C27.449651,60.3375905 28.596565,59.6435576 28.596565,59.0926243 L28.596565,57.0054156 L28.5960539,57.0054156 Z M27.0988367,51.3120992 C26.2292045,51.3120992 25.5076604,50.5771811 25.5076604,49.6976301 C25.5076604,48.839033 26.2292045,48.1250686 27.0988367,48.1250686 C27.9863412,48.1250686 28.7078864,48.839033 28.7078864,49.6976301 C28.7084359,50.5771811 27.9868523,51.3120992 27.0988367,51.3120992 L27.0988367,51.3120992 Z M27.1172201,48.692356 C26.5437631,48.692356 26.0816274,49.1502744 26.0816274,49.7180729 C26.0816274,50.3042698 26.5437631,50.7790536 27.1172201,50.7790536 C27.7085494,50.7790536 28.1528127,50.3042698 28.1528127,49.7180729 C28.1528127,49.1497634 27.7085494,48.692356 27.1172201,48.692356 L27.1172201,48.692356 Z" id="path7"></path>
                            <path d="M37.6105077,61.4552994 L37.6105077,55.0633508 C37.6105077,54.2752813 37.4067594,53.5991361 36.202142,53.5991361 C34.9265465,53.5991361 33.9828708,54.2962352 33.9828708,54.6805596 L33.9828708,61.4552994 L32.2813942,61.4552994 L32.2813942,52.3347497 L33.8163992,52.3347497 L33.9655084,53.3599554 C34.9633122,52.6112384 35.6664739,52.190117 36.9798584,52.1717185 C38.3499241,52.1528088 39.3109621,52.997096 39.3109621,54.1664234 L39.3109621,61.4552994" id="path9"></path>
                            <path d="M42.6868502,57.2982585 C42.7062546,58.7266984 43.4089053,60.2839281 44.8713979,60.2839281 C45.9243529,60.2839281 46.7572183,59.8244757 47.367441,59.0931353 L48.4050758,59.9737083 C47.5339125,60.9984034 46.4242763,61.6382624 44.9061225,61.6382624 C42.2063311,61.6382624 40.8929467,59.2955187 40.8929467,56.6216023 C40.8929467,54.2599493 42.5025063,52.1333882 44.8887602,52.1333882 C48.0706017,52.1333882 48.75538,55.2478469 48.5715473,57.2987695 L42.6868502,57.2987695 M44.8887602,53.3425791 C43.5003112,53.3425791 42.7062546,54.7173565 42.7062546,56.1636838 L46.9788389,56.1636838 C47.0360312,54.7710189 46.3696362,53.3425791 44.8887602,53.3425791" id="path11"></path>
                            <path d="M52.8436205,61.5830666 C51.5675139,61.5830666 50.9746524,60.4648462 50.9746524,59.3292491 L50.9746524,53.4913004 L49.5136909,53.4913004 L49.5136909,52.938323 C50.1438291,52.5560429 50.4762611,52.2810873 50.9746524,51.7311764 C51.4745759,51.163889 51.716112,50.8158506 52.0490539,50.1381722 L52.6592766,50.1381722 L52.6592766,52.3352608 L54.7682498,52.3352608 L54.7682498,53.4918115 L52.6592766,53.4918115 L52.6592766,58.9648568 C52.6592766,59.5510542 52.8431094,60.1188522 53.5100144,60.2466194 C54.0472157,60.3381009 54.4725846,60.2839281 54.9531036,60.1536045 L54.9531036,61.2360507 C54.3234754,61.492607 53.7878073,61.5830666 52.8436205,61.5830666" id="path13"></path>
                            <path d="M59.4166702,54.1306486 C58.9918113,54.3131005 58.5291646,54.6601168 58.5291646,55.101681 L58.5291646,61.4552994 L56.8276891,61.4552994 L56.8276891,52.3347497 L58.3458429,52.3347497 L58.4918878,53.5434295 C58.8253409,53.0308266 59.1419416,52.7563821 59.6965041,52.4829599 C60.1938744,52.2248697 60.5834987,52.1165229 61.1569546,52.1165229 L61.1569546,53.9119108 C60.4900496,53.8735805 60.0294461,53.8735805 59.4166702,54.1306486" id="path15"></path>
                            <path d="M67.1320365,61.4552994 L67.0038639,60.5215754 C66.2077652,61.179833 65.3937942,61.6745481 64.2642425,61.6745481 C62.7465998,61.6745481 61.8034341,60.4295824 61.8034341,59.0737146 C61.8034341,57.2072882 63.4880594,56.2909402 65.4862211,56.0512484 L67.0043749,55.8693077 L67.0043749,54.8257034 C67.0043749,53.8924901 66.485047,53.4330385 65.578137,53.4330385 C64.3944573,53.4330385 63.6172531,53.8730695 63.0810728,54.368296 L62.229824,53.3425791 C63.1377551,52.6281037 64.3571805,52.1528088 65.8748232,52.1528088 C67.6508544,52.1528088 68.685936,52.9761421 68.685936,54.6258752 L68.685936,61.4552994 L67.1320365,61.4552994 L67.1320365,61.4552994 Z M67.0038639,57.0054156 L66.1148272,57.1158067 C64.9122541,57.2609505 63.5253361,57.6646956 63.5253361,58.8360672 C63.5253361,59.8065886 64.0615153,60.3743866 64.9485098,60.3575214 C65.8569509,60.337079 67.0038639,59.6435576 67.0038639,59.0926243 L67.0038639,57.0054156 L67.0038639,57.0054156 Z" id="path17"></path>
                            <path d="M75.4382221,49.7175618 L75.4382221,48.6197841 C75.0868967,48.5262584 74.1993922,48.3632271 73.3471224,48.6545368 C72.2936574,49.0214849 71.5716023,49.7717352 71.5716023,50.8700239 L71.5716023,52.3347497 L70.1857064,52.3347497 L70.1857064,53.5434295 L71.5716023,53.5434295 L71.5716023,61.4552994 L73.2562276,61.4552994 L73.2562276,53.5434295 L75.1614513,53.5434295 L75.1614513,52.3347497 L73.2562276,52.3347497 L73.2562276,50.7785424 C73.2562276,50.2833159 73.5896795,49.9368107 74.0523262,49.7553809 C74.5874844,49.5325546 75.1992392,49.6255693 75.4382221,49.7175618" id="path19"></path>
                            <path d="M77.8295823,50.906821 C77.3122965,50.906821 76.8853955,50.5061424 76.8853955,49.9746299 C76.8853955,49.4625381 77.3291478,49.0409055 77.8484768,49.0572598 C78.3667826,49.0771915 78.7548747,49.4788922 78.7548747,49.9746299 C78.7554242,50.4867217 78.3667826,50.906821 77.8295823,50.906821 L77.8295823,50.906821 Z M76.9788446,52.3352608 L78.6624478,52.3352608 L78.6624478,61.4558109 L76.9788446,61.4558109 L76.9788446,52.3352608 Z" id="path21"></path>
                            <polyline id="polyline23" points="86.2833449 61.4552994 83.6387036 56.6578882 82.5826854 57.6278985 82.5826854 61.4552994 80.8812093 61.4552994 80.8812093 48.5461901 82.5826854 48.5461901 82.5826854 55.959767 86.1158526 52.3352608 87.9654164 52.3352608 84.8770228 55.4323431 88.3182735 61.4552994"></polyline>
                            <path d="M90.404778,57.2982585 C90.4231603,58.7266984 91.1278542,60.2839281 92.5877935,60.2839281 C93.6422796,60.2839281 94.474635,59.8244757 95.0858799,59.0931353 L96.1235146,59.9737083 C95.2523503,60.9984034 94.1432252,61.6382624 92.6250714,61.6382624 C89.9242589,61.6382624 88.6108745,59.2955187 88.6108745,56.6216023 C88.6108745,54.2599493 90.2209441,52.1333882 92.6077091,52.1333882 C95.7885295,52.1333882 96.4733078,55.2478469 96.2894751,57.2987695 L90.404778,57.2987695 M92.6082201,53.3425791 C91.21977,53.3425791 90.4236713,54.7173565 90.4236713,56.1636838 L94.6993199,56.1636838 C94.7519157,54.7710189 94.088075,53.3425791 92.6082201,53.3425791" id="path33"></path>
                            <path d="M103.485002,61.4552994 L103.485002,55.0633508 C103.485002,54.2752813 103.282276,53.5991361 102.080212,53.5991361 C100.803084,53.5991361 99.8604297,54.2962352 99.8604297,54.6805596 L99.8604297,61.4552994 L98.1579321,61.4552994 L98.1579321,52.3347497 L99.6929371,52.3347497 L99.8400042,53.3599554 C100.839851,52.6112384 101.54148,52.190117 102.855885,52.1717185 C104.22493,52.1528088 105.1875,52.997096 105.1875,54.1664234 L105.1875,61.4552994" id="path35"></path>
                        </g>
                    </g>
                </g>
            </g>
        </g>
    </g>
</svg>