<svg width="160" height="160" viewBox="0 0 160 160" xmlns="http://www.w3.org/2000/svg"><title>A08548FE-8B1F-464B-AF14-D91641D20FBB</title><path d="M59.657 92.683c-5.252 0-10.128-1.585-13.383-4.524-2.459-2.22-3.64-5.236-3.64-8.34 0-3.067 1.232-6.103 3.64-8.312C49.296 68.736 54.633 67 59.657 67c5.56 0 10.01 1.409 13.412 4.515 2.42 2.21 3.591 5.233 3.591 8.304 0 2.977-1.242 6.148-3.59 8.34-3.168 2.958-8.147 4.524-13.413 4.524v-3.387c2.788 0 5.374-.969 7.18-2.777 1.794-1.795 2.63-4.003 2.63-6.7 0-2.584-.902-5-2.63-6.714-1.782-1.766-4.43-2.76-7.18-2.76-2.759 0-5.408.984-7.191 2.76-1.719 1.713-2.623 4.136-2.623 6.714 0 2.57.915 4.991 2.623 6.7 1.784 1.787 4.425 2.777 7.191 2.777v3.387zm-38.391-25.67c-2.81 0-6.002.528-8.714 1.747C10.05 69.883 8 71.7 8 74.713c-.001 2.714 1.713 4.303 1.666 4.259.73.675 1.903 1.825 4.972 2.5 1.371.302 4.303.765 7.223 1.072 2.898.308 5.75.6 6.912.896.923.236 2.474.558 2.474 2.308 0 1.743-1.634 2.275-1.918 2.39-.283.113-2.243 1.018-5.765 1.018-2.601 0-5.728-.787-6.867-1.197-1.314-.47-2.692-1.093-3.978-2.672-.32-.392-.824-1.47-.824-2.536H8.708v8.987h3.543v-1.214c0-.138.172-.707.767-.436.74.338 2.912 1.208 5.184 1.686 1.863.392 3.064.672 5.38.672 3.778 0 5.807-.619 7.21-1.022 1.322-.38 2.956-1.064 4.283-2.129.718-.575 2.294-2.05 2.294-4.73 0-2.57-1.371-4.166-1.854-4.65-.657-.662-1.46-1.175-2.296-1.57a16.8 16.8 0 0 0-2.82-.991c-1.827-.452-5.957-1.008-7.932-1.216-2.07-.218-5.663-.517-7.098-.964-.435-.135-1.322-.56-1.322-1.596 0-.737.405-1.362 1.207-1.866 1.272-.802 3.843-1.3 6.522-1.3 3.167-.013 5.85.716 7.555 1.483.58.261 1.26.636 1.799 1.078.608.5 1.463 1.537 1.772 2.984h2.862v-7.823h-3.196v.909c0 .293-.301.675-.871.36-1.43-.755-5.474-2.384-10.432-2.39h.001zm70.035 1.42l15.59 14.155-.16-9.53c-.016-1.25-.245-1.771-1.589-1.771h-2.93v-2.85h13.329v2.85h-2.86c-1.37 0-1.456.44-1.473 1.771l.242 18.21h-4.565L88.93 75.145l.004 11.442c.015 1.244.073 1.83 1.347 1.83h3.202v2.85H80.39v-2.85h3.06c1.143 0 1.098-1.096 1.098-1.894V73.167c0-.862-.12-1.878-1.915-1.878H80.15v-2.855H91.3zm39.471 19.979c.126 0 .682-.016.79-.05a.98.98 0 0 0 .613-.547c.04-.097.06-.525.06-.618l.003-4.505c0-.108-.008-.155-.19-.396-.201-.264-8.166-9.345-8.53-9.745-.454-.496-1.248-1.264-2.456-1.264h-2.77v-2.852h15.632v2.849h-1.885c-.436 0-.725.416-.353.878 0 0 5.26 6.33 5.31 6.396.048.067.09.083.157.021.066-.062 5.391-6.359 5.433-6.409a.549.549 0 0 0-.464-.883h-1.933v-2.852H153v2.852h-2.862c-1.038 0-1.46.193-2.242 1.082-.357.406-8.407 9.65-8.626 9.9-.115.132-.105.314-.105.423v4.504c0 .092.02.52.061.616a.977.977 0 0 0 .615.548c.107.033.656.05.78.05h2.928v2.851H128v-2.852l2.774.003z" fill="#1A1A1A" fill-rule="evenodd"/></svg>