<?xml version="1.0" encoding="UTF-8"?>
<svg width="96px" height="26px" viewBox="0 0 96 26" version="1.1" xmlns="http://www.w3.org/2000/svg" xmlns:xlink="http://www.w3.org/1999/xlink">
    <!-- Generator: Sketch 45.2 (43514) - http://www.bohemiancoding.com/sketch -->
    <title>logo_sony</title>
    <desc>Created with Sketch.</desc>
    <defs></defs>
    <g id="02c-Expertise-Page-Template" stroke="none" stroke-width="1" fill="none" fill-rule="evenodd">
        <g id="Community-Page-Template-v1" transform="translate(-999.000000, -6806.000000)" fill="#000000">
            <g id="Client-Logos" transform="translate(0.000000, 6505.000000)">
                <g id="Group-7" transform="translate(120.000000, 171.000000)">
                    <g id="Group-3" transform="translate(0.000000, 88.000000)">
                        <g id="logo-wayfindr" transform="translate(872.000000, 0.000000)">
                            <path d="M102.713212,48.739054 L101.97825,50.9443559 C101.805803,50.9279725 101.63075,50.9154693 101.447878,50.9154693 C100.837581,50.9154693 100.308947,51.0249799 99.8602375,51.2457256 C99.4154375,51.4703517 99.0444812,51.7652542 98.7460656,52.1390561 C98.4532969,52.5137203 98.2317656,52.9444333 98.0888562,53.4333506 C97.9463812,53.9218369 97.8747094,54.434036 97.8747094,54.9660678 L97.8747094,61.604393 L95.3505562,61.604393 L95.3505562,51.6885106 L95.3505562,50.3825752 L95.3505562,48.9679915 L97.6336312,48.9679915 C97.6683812,49.2891939 97.6948781,49.6573909 97.7139906,50.0756006 C97.7322344,50.4929481 97.7413562,50.8331208 97.7413562,51.0999989 L97.8208469,51.0999989 C98.1783375,50.3523951 98.7021937,49.7561229 99.3906781,49.304715 C100.0809,48.8485646 100.856694,48.622214 101.715019,48.622214 C102.107694,48.622214 102.443466,48.6657595 102.713212,48.739054 L102.713212,48.739054 Z M60.4841437,42.625 C61.1552531,42.625 61.8980344,42.8366917 62.2620406,42.9906102 L61.5870219,45.0169873 C61.4949344,44.9949989 61.0640344,44.7841695 60.5549469,44.7841695 C60.0727906,44.7841695 59.7526562,44.8673803 59.45815,45.0359576 C59.162775,45.2032415 58.9369,45.4304544 58.773575,45.7154407 C58.6128562,46.0004269 58.5046969,46.3255095 58.4508344,46.6893951 C58.3978406,47.0519873 58.3696062,47.4296695 58.3696062,47.8207172 L58.3696062,48.9679915 L61.5687781,48.9679915 L60.8859406,51.0206684 L58.3696062,51.0206684 L58.3696062,61.604393 L55.8467562,61.604393 L55.8467562,51.0206684 L54.1835344,51.0206684 L48.8263875,64.5344481 C48.6092,65.0686356 48.3750719,65.5437564 48.1248719,65.9606727 C47.8751062,66.380607 47.5797312,66.7345763 47.2396156,67.0286165 C46.8986312,67.3209322 46.5011781,67.5481451 46.0442156,67.7085307 C45.5885562,67.8684852 45.0442844,67.9473845 44.4205219,67.9473845 C44.1525125,67.9473845 43.8779875,67.9366059 43.6025937,67.9072881 C42.8485187,67.8258019 42.5852875,67.6520508 42.2959937,67.5809121 L42.9962062,65.4993485 C43.4266719,65.6403326 43.8480156,65.7606218 44.2593687,65.7606218 C44.9200531,65.7606218 45.4143719,65.5799725 45.7362437,65.2152246 C46.0589844,64.851339 46.3534906,64.3318104 46.6223687,63.6566388 L47.4237906,61.604393 L41.9732531,48.9679915 L44.7906094,48.9679915 L48.7386437,58.8847362 L48.7942437,58.8847362 L52.310075,48.9679915 L53.1249625,48.9679915 L54.9940781,48.9679915 L55.8467562,48.9679915 L55.8467562,47.8207172 C55.8467562,47.0739756 55.9305906,46.3871631 56.1013,45.7563994 C56.2724437,45.1234799 56.507875,44.5379862 56.8927312,44.0749375 C57.2762844,43.6123199 57.7697344,43.2492966 58.3687375,42.9832807 C58.9677406,42.7172648 59.4242687,42.625 60.4841437,42.625 L60.4841437,42.625 Z M63.8931187,48.9679915 L65.4047437,48.9679915 L65.4047437,50.3834375 L65.4047437,51.6885106 L65.4047437,61.604393 L62.8992687,61.604393 L62.8944906,48.9679915 L63.8931187,48.9679915 Z M78.6471,51.7652542 C78.8351844,52.3886886 78.9290094,53.0565307 78.9290094,53.7653316 L78.9290094,61.604393 L76.4061594,61.604393 L76.4061594,54.5905413 C76.4061594,54.0774799 76.3661969,53.5881314 76.2819281,53.1263761 C76.2046094,52.6637585 76.0560531,52.2558962 75.8406031,51.9010646 C75.627325,51.5436462 75.3302125,51.2629714 74.9553469,51.0486928 C74.5800469,50.8331208 74.0965875,50.7270593 73.5058375,50.7270593 C72.5037344,50.7270593 71.6858062,51.1064661 71.0477094,51.8605371 C70.4130875,52.6167638 70.0946906,53.623054 70.0946906,54.885875 L70.0946906,61.604393 L67.5692344,61.604393 L67.5692344,51.6885106 C67.5692344,51.3500625 67.5666281,50.3942161 67.5666281,50.3942161 L67.5692344,48.9679915 L69.8540469,48.9679915 C69.8887969,49.2891939 69.9152937,49.6483369 69.9335375,50.0475763 C69.9509125,50.4485403 69.9591656,50.7813835 69.9591656,51.0486928 L70.043,51.0486928 C70.2015469,50.7119693 70.4204719,50.3950784 70.6993406,50.1010381 C70.9747344,49.8069979 71.2926969,49.5508983 71.6523594,49.3279968 C72.0094156,49.1072511 72.4042625,48.9326377 72.8329906,48.8088994 C73.2634562,48.6838676 73.7108625,48.622214 74.1760781,48.622214 C74.99835,48.622214 75.7059469,48.7614735 76.2966969,49.0339566 C76.8891844,49.3098888 77.3800281,49.6785169 77.774875,50.1398411 C78.1692875,50.6024587 78.4603187,51.1452691 78.6471,51.7652542 L78.6471,51.7652542 Z M24.9361969,48.9679915 L27.6258469,48.9679915 L23.3807,61.604393 L20.7483875,61.604393 L17.6082906,52.1144809 L17.5526906,52.1144809 L14.4382219,61.604393 L11.8067781,61.604393 L7.5625,48.9679915 L10.3025375,48.9679915 L13.1763625,58.6169958 L13.2289219,58.6169958 L16.2634656,48.9679915 L18.9861281,48.9679915 L22.0093781,58.6169958 L22.0632406,58.6169958 L24.9361969,48.9679915 Z M90.7353219,57.0230561 C90.5394187,57.5706091 90.2622875,58.0547839 89.9082719,58.4721314 C89.5507812,58.8903411 89.12075,59.2197352 88.6220875,59.467643 C88.1195156,59.7164131 87.5635156,59.8405826 86.95235,59.8405826 C86.288625,59.8405826 85.7113406,59.7112394 85.2200625,59.4538464 C84.7287844,59.1986091 84.3122187,58.8567119 83.9729719,58.4324661 C83.6319875,58.0060646 83.376575,57.5201653 83.2080375,56.9691631 C83.0390656,56.4224725 82.9552312,55.8550869 82.9552312,55.2691621 C82.9552312,54.6849619 83.0390656,54.1184386 83.2080375,53.5687299 C83.376575,53.01859 83.6319875,52.5326907 83.9729719,52.1045646 C84.3122187,51.6829057 84.7287844,51.3444576 85.2200625,51.0956875 C85.7113406,50.8486419 86.288625,50.7236102 86.95235,50.7236102 C87.5635156,50.7236102 88.1195156,50.8486419 88.6220875,51.0956875 C89.12075,51.3444576 89.5507812,51.6829057 89.9082719,52.1045646 C90.2622875,52.5326907 90.5394187,53.01859 90.7353219,53.5687299 C90.9286187,54.1184386 91.0263531,54.6927225 91.0263531,55.2945996 C91.0263531,55.8990636 90.9286187,56.4737786 90.7353219,57.0230561 L90.7353219,57.0230561 Z M90.8738875,50.8585583 L90.8248031,50.8585583 C90.3978125,50.2359862 89.8218312,49.7082659 89.0903437,49.2702235 C88.3592906,48.8369237 87.5022687,48.6196271 86.5184094,48.6196271 C85.6175156,48.6196271 84.7961125,48.7894979 84.0494219,49.1262214 C83.3009937,49.4629449 82.6598562,49.9346165 82.125575,50.5373559 C81.5895562,51.1418199 81.1782031,51.8493273 80.8893437,52.6603093 C80.6022219,53.4648242 80.4588781,54.3318549 80.4588781,55.2557966 C80.4588781,56.1806006 80.6022219,57.0502182 80.8893437,57.8668051 C81.1782031,58.6877034 81.58695,59.3960731 82.1138469,60.0005371 C82.6381375,60.6062945 83.2753656,61.0792595 84.0220562,61.4258994 C84.7713531,61.7716769 85.6105656,61.945428 86.5449062,61.945428 C87.41105,61.945428 88.2363625,61.7462394 89.026925,61.3452754 C89.8161844,60.9481917 90.4416844,60.365285 90.9003844,59.5995731 L90.9507719,59.5995731 L90.9507719,61.604393 L93.2681625,61.604393 L93.2681625,42.9906102 L90.8738875,42.9906102 L90.8738875,50.8585583 Z M38.1264281,57.0243496 C37.9313937,57.5714714 37.6568687,58.0547839 37.3024187,58.4721314 C36.9466656,58.8903411 36.5175031,59.2205975 36.0197094,59.4685053 C35.5197437,59.7164131 34.9646125,59.8414449 34.35475,59.8414449 C33.6953687,59.8414449 33.121125,59.7121017 32.6294125,59.4538464 C32.1390031,59.1999025 31.724175,58.8567119 31.3849281,58.4333284 C31.0469844,58.0069269 30.7933094,57.5210275 30.6226,56.9691631 C30.4540625,56.4233347 30.3719656,55.8550869 30.3719656,55.2691621 C30.3719656,54.6858242 30.4540625,54.1193008 30.6226,53.5700233 C30.7933094,53.0194523 31.0469844,52.533553 31.3849281,52.1054269 C31.724175,51.683768 32.1390031,51.3453199 32.6294125,51.0965498 C33.121125,50.8486419 33.6953687,50.7244725 34.35475,50.7244725 C34.9646125,50.7244725 35.5197437,50.8486419 36.0197094,51.0965498 C36.5175031,51.3453199 36.9466656,51.683768 37.3024187,52.1054269 C37.6568687,52.533553 37.9313937,53.0194523 38.1264281,53.5700233 C38.319725,54.1193008 38.4165906,54.6940159 38.4165906,55.2954619 C38.4165906,55.8990636 38.319725,56.475072 38.1264281,57.0243496 L38.1264281,57.0243496 Z M38.2662969,50.8585583 L38.2167781,50.8585583 C37.7910906,50.2368485 37.2168469,49.7091282 36.4884,49.2710858 C35.75865,48.837786 34.9033656,48.6196271 33.9234156,48.6196271 C33.0273,48.6196271 32.2054625,48.7907913 31.4613781,49.1270837 C30.7168594,49.4638072 30.0765906,49.9354788 29.5449156,50.5382182 C29.0119375,51.1426822 28.6005844,51.8493273 28.3134625,52.6611716 C28.0250375,53.4656864 27.8821281,54.3327172 27.8821281,55.2566589 C27.8821281,56.1806006 28.0250375,57.0510805 28.3134625,57.8668051 C28.6005844,58.6877034 29.0080281,59.3969354 29.5331875,60.0013994 C30.0557406,60.6062945 30.6921,61.0801218 31.4344469,61.4258994 C32.1820062,61.7716769 33.0181781,61.9462903 33.9499125,61.9462903 C34.8125812,61.9462903 35.6383281,61.7462394 36.4245469,61.3461377 C37.2103312,60.949054 37.8319219,60.3661472 38.2897531,59.6008665 L38.3410094,59.6008665 L38.3410094,61.604393 L40.6523187,61.604393 L40.6523187,48.9679915 L38.2662969,48.9679915 L38.2662969,50.8585583 Z" id="Fill-1"></path>
                        </g>
                    </g>
                </g>
            </g>
        </g>
    </g>
</svg>