<svg width="160" height="160" viewBox="0 0 160 160" xmlns="http://www.w3.org/2000/svg"><title>C91EB9D0-3DEF-4738-8F87-603D8320AD17</title><path d="M81.085 110.728c.01-8.29.03-15.21.047-15.376.016-.166.059-.633.094-1.037a35.447 35.447 0 0 1 1.004-5.77c.252-.965.399-1.42.673-2.082 1.213-2.935 3.34-5.218 6.202-6.66.872-.44 1.46-.666 2.714-1.042 2.646-.796 5.044-1.231 8.038-1.46.886-.068 3.695-.068 4.631 0 3.236.233 6.437.872 9.24 1.845 1.281.444 2.68 1.22 3.827 2.12.468.368 1.586 1.48 1.974 1.962a14.22 14.22 0 0 1 1.846 3.069c.543 1.26 1.12 3.51 1.461 5.708l.111.716c.478 3.083.443 6.007 0 9.46l-.131.82c-.34 2.134-.881 4.267-1.394 5.49a13.01 13.01 0 0 1-4.46 5.586c-1.482 1.05-2.869 1.65-5.408 2.34-2.753.747-5.41 1.136-8.48 1.24l-.85.028-2.157-5.894a1099.765 1099.765 0 0 1-2.15-5.902c.003-.004.172.05.375.122 1.604.567 4.522.674 6.804.25 1.112-.206 2.122-.687 2.915-1.39 1.167-1.033 1.732-2.115 2.149-4.113.276-1.328.348-2.109.328-3.57-.02-1.426-.121-2.247-.437-3.53-.394-1.604-.9-2.549-1.842-3.44-.88-.832-1.86-1.326-3.112-1.567-1.036-.2-1.663-.254-2.914-.254-1.27 0-1.989.062-2.962.256-1.907.381-3.432 1.495-4.267 3.117-.589 1.143-1.012 3.03-1.117 4.986-.011.202-.021 6.82-.023 14.706l-.002 14.338H81.07l.016-15.073zm-25.322 6.918c-3.462-.147-6.656-.712-9.762-1.727-.924-.301-1.324-.464-2.066-.84a12.924 12.924 0 0 1-6.514-7.647c-.195-.61-.59-2.205-.764-3.09-.3-1.526-.548-3.434-.624-4.796-.044-.778-.044-3.412-.001-4.177.18-3.209.969-7.09 1.855-9.136a12.996 12.996 0 0 1 6.613-6.68c.647-.29 1.192-.486 2.218-.796 7.03-2.123 14.539-2.026 21.568.276 2.136.7 4.145 1.986 5.592 3.578a13.464 13.464 0 0 1 2.649 4.356c.625 1.715 1.332 5.236 1.48 7.37.015.225.036.459.045.518.076.471.106 3.02.051 4.257-.146 3.262-.912 7.27-1.792 9.379a14.674 14.674 0 0 1-1.922 3.22c-1.168 1.442-2.815 2.727-4.537 3.538-1.816.855-5.234 1.742-8.175 2.12-1.894.245-4.177.352-5.914.277zm2.794-11.185c2.17-.21 3.371-.673 4.512-1.74.92-.861 1.455-1.838 1.842-3.363a15.93 15.93 0 0 0 .003-7.796c-.376-1.49-.854-2.397-1.711-3.249-1.388-1.38-3.142-1.92-6.2-1.914-2.447.006-3.91.336-5.163 1.165-.753.499-1.479 1.264-1.889 1.993-.507.902-.894 2.262-1.128 3.968-.1.73-.12 2.658-.037 3.458.168 1.6.557 3.168 1.008 4.062.6 1.186 1.501 2.08 2.699 2.676.863.43 1.653.607 3.444.775.436.041 2.055.02 2.62-.035zM55.72 74.413c-.442-.019-.97-.047-1.174-.062a39.592 39.592 0 0 1-1.76-.176 14.565 14.565 0 0 1-.69-.086 9.532 9.532 0 0 1-.282-.042c-.04-.008-.278-.047-.529-.087-2.035-.325-4.905-1.074-6.327-1.651a14.12 14.12 0 0 1-3.283-1.918c-.6-.477-1.584-1.463-2.03-2.032-1.102-1.41-1.84-2.838-2.317-4.485a35.68 35.68 0 0 1-1.294-7.55c-.043-.764-.044-3.406-.002-4.149.118-2.036.454-4.281.947-6.31.386-1.593.654-2.365 1.218-3.505 1.518-3.069 4.174-5.38 7.478-6.506 2.648-.903 5.627-1.506 8.72-1.767.914-.077 3.455-.103 4.5-.046 3.146.171 6.24.741 9.219 1.698 1.585.51 3.064 1.29 4.299 2.266.517.41 1.628 1.51 2.024 2.004a13.693 13.693 0 0 1 2.202 4.026c.395 1.174.884 3.363 1.124 5.029a36.89 36.89 0 0 1 .376 4.354l.024.724H65.426l-.024-.097a3.606 3.606 0 0 1-.025-.483c-.007-1.31-.38-3.275-.856-4.507-.38-.988-1.161-1.972-2.083-2.627-.91-.647-1.788-.953-3.37-1.175-.694-.097-3.117-.11-3.827-.022-.714.09-1.554.253-1.935.376a6.01 6.01 0 0 0-3.677 3.366c-.313.743-.624 2.018-.786 3.218-.121.892-.149 2.69-.056 3.572.166 1.572.564 3.188.996 4.04A6.093 6.093 0 0 0 54.04 63c1.917.368 4.212.367 6.05-.002a6.022 6.022 0 0 0 3.082-1.616c1-.98 1.51-2.044 1.902-3.976.073-.356.135-.65.14-.654.015-.012 11.919 5.518 11.955 5.554.047.046-.259 1.252-.51 2.015a13.037 13.037 0 0 1-5.698 7.098c-.84.501-1.667.876-2.657 1.202a37.865 37.865 0 0 1-6.236 1.463 41.218 41.218 0 0 1-1.957.22c-.17.018-.728.057-1.217.085-.742.044-2.423.057-3.175.025zm45.874.026c-.01-.008-.41-.028-.888-.043a25.434 25.434 0 0 1-1.022-.046c-.084-.01-.323-.031-.533-.046-.209-.015-.434-.034-.5-.042a24.18 24.18 0 0 0-.402-.042c-.247-.024-.7-.081-1.044-.133l-.304-.042c-1.664-.223-4.238-.844-6.072-1.465-1.978-.67-3.498-1.598-4.989-3.05-1.744-1.696-2.85-3.607-3.526-6.093-.565-2.079-.898-4.001-1.133-6.55-.11-1.205-.111-4.342-.001-5.278.01-.093.041-.411.067-.709.198-2.234.81-5.308 1.39-6.973a13.031 13.031 0 0 1 4.74-6.338c1.402-.995 2.727-1.584 5.045-2.243a35.906 35.906 0 0 1 16.459-.711c2.126.41 4.397 1.05 5.674 1.597a13.043 13.043 0 0 1 6.954 7.159c.483 1.204 1.006 3.33 1.328 5.395l.111.716c.425 3.17.46 5.866 0 9.459l-.128.8c-.26 1.621-.693 3.498-1.065 4.602a12.797 12.797 0 0 1-3.09 5.016 12.799 12.799 0 0 1-4.409 2.935c-1.45.587-4.258 1.32-6.31 1.647l-.526.085a8.67 8.67 0 0 1-.3.042 7.536 7.536 0 0 0-.31.044 7.168 7.168 0 0 1-.373.044 7.945 7.945 0 0 0-.368.043c-.074.014-.837.086-1.341.128-.733.06-3.093.13-3.135.092zm2.234-11.247c.853-.083 1.713-.244 2.188-.41 1.533-.535 2.817-1.679 3.491-3.11.342-.726.722-2.228.902-3.564.094-.705.11-2.823.025-3.544-.162-1.377-.502-2.828-.856-3.649-.31-.719-.883-1.522-1.448-2.034a6.477 6.477 0 0 0-2.206-1.274c-.381-.123-1.221-.287-1.935-.376-.615-.077-3.09-.077-3.653 0-1.682.228-2.456.476-3.37 1.078a5.837 5.837 0 0 0-2.086 2.365c-.441.906-.822 2.47-.986 4.041-.068.65-.066 2.437.003 3.069.123 1.129.414 2.491.71 3.328.71 2.006 2.404 3.458 4.533 3.885 1.429.286 3.058.354 4.688.195z" fill="#1A1A1A" fill-rule="evenodd"/></svg>