<?xml version="1.0" encoding="UTF-8"?>
<svg width="103px" height="51px" viewBox="0 0 103 51" version="1.1" xmlns="http://www.w3.org/2000/svg" xmlns:xlink="http://www.w3.org/1999/xlink">
    <!-- Generator: Sketch 45.2 (43514) - http://www.bohemiancoding.com/sketch -->
    <title>logo_sky</title>
    <desc>Created with Sketch.</desc>
    <defs></defs>
    <g id="02c-Expertise-Page-Template" stroke="none" stroke-width="1" fill="none" fill-rule="evenodd">
        <g id="Community-Page-Template-v1" transform="translate(-1214.000000, -6967.000000)" fill="#000000">
            <g id="Client-Logos" transform="translate(0.000000, 6505.000000)">
                <g id="Group-7" transform="translate(120.000000, 171.000000)">
                    <g id="Group-3" transform="translate(0.000000, 88.000000)">
                        <g id="logo-university-washington" transform="translate(1090.000000, 173.000000)">
                            <g id="Group-2" transform="translate(4.125000, 29.562500)">
                                <path d="M9.97077409,31.0217458 C9.97077409,32.3913694 11.1302064,33.4363076 12.557464,33.4363076 C13.914904,33.4363076 15.258037,32.4342416 15.258037,31.0217458 L15.258037,25.6415716 L15.9642263,24.9224621 L13.7878586,24.9224621 L14.5083547,25.6415716 L14.5083547,31.0217458 C14.5083547,31.9820829 13.7449378,32.7446362 12.7835133,32.7446362 C11.8089263,32.7446362 10.9465056,31.9969452 10.9465056,31.0217458 L10.9465056,25.6415716 L11.6670017,24.9224621 L9.24970566,24.9224621 L9.97077409,25.6415716 L9.97077409,31.0217458 Z M19.7103485,32.5325618 L19.7103485,26.291514 L24.2055807,33.267677 L24.4745506,33.267677 L24.4745506,25.6415716 L25.1944745,24.9224621 L23.0186791,24.9224621 L23.738603,25.6415716 L23.738603,30.9371447 L19.9793184,24.9224621 L18.254477,24.9224621 L18.9612385,25.6415716 L18.9612385,32.5325618 L18.254477,33.2528146 L20.4319892,33.2528146 L19.7103485,32.5325618 Z M27.8246575,24.9224621 L28.4884983,25.585552 L28.4884983,32.5897247 L27.8246575,33.2528146 L30.0714152,33.2528146 L29.4075744,32.5897247 L29.4075744,25.585552 L30.0714152,24.9224621 L27.8246575,24.9224621 Z M34.6519166,24.9224621 L32.2912758,24.9224621 L32.9694235,25.585552 L35.3169019,33.2528146 L35.7403865,33.2528146 L38.1582549,25.585552 L38.8364026,24.9224621 L36.8288565,24.9224621 L37.4795349,25.5712612 L35.712345,31.3321404 L34.0018104,25.5712612 L34.6519166,24.9224621 Z M45.8187486,33.2528146 L45.8187486,31.7277079 L44.9288586,32.6314537 L42.3982517,32.6314537 L42.3982517,29.1296531 L44.2781802,29.1296531 L44.9425932,29.7933146 L44.9425932,27.8452022 L44.2781802,28.5088638 L42.3982517,28.5088638 L42.3982517,25.5432514 L44.9288586,25.5432514 L45.8187486,26.4327065 L45.8187486,24.9224621 L40.8296418,24.9224621 L41.4791756,25.585552 L41.4791756,32.5897247 L40.8296418,33.2528146 L45.8187486,33.2528146 Z M49.91911,32.5897247 L49.91911,29.3697374 L51.1764015,29.3697374 L53.1982545,33.2528146 L54.583736,33.2528146 L53.9330576,32.5897247 L52.0674361,29.1719537 C53.0002469,28.8895688 53.6371906,28.0144045 53.6371906,27.2238413 C53.6371906,25.8113455 52.3220992,24.9224621 50.9360454,24.9224621 L48.3493554,24.9224621 L48.9994616,25.585552 L48.9994616,32.5897247 L48.3493554,33.2528146 L50.5829508,33.2528146 L49.91911,32.5897247 Z M49.91911,25.5432514 L50.9360454,25.5432514 C51.82708,25.5432514 52.5338415,26.3058048 52.5338415,27.2095506 C52.5338415,28.0704242 51.812773,28.7483764 50.9360454,28.7483764 L49.91911,28.7483764 L49.91911,25.5432514 Z M60.9869382,30.9371447 C60.9869382,30.118 60.6052297,29.6098216 60.2092144,29.3417275 L58.5129867,28.1132963 C57.9052291,27.676 57.5944829,27.1106587 57.5944829,26.6865098 C57.5944829,25.8113455 58.3435929,25.5009508 58.7956913,25.5009508 C59.0360475,25.5009508 59.2060136,25.5998427 59.3324867,25.5998427 L60.0678621,26.3909775 L60.8455859,25.2328567 L59.192279,24.9224621 C59.0783959,24.8938806 59.0080059,24.8795899 58.7956913,24.8795899 C57.3392476,24.8795899 56.6754068,26.1223118 56.6754068,26.9271657 C56.6754068,27.5622458 57.0010321,28.2824986 57.7495698,28.8329775 L59.4595321,30.0619803 C59.9265098,30.3866657 60.0535552,30.8668343 60.0535552,31.2761208 C60.0535552,31.9820829 59.6157636,32.7446362 58.6686459,32.7446362 C58.4425967,32.7446362 58.244589,32.701764 58.0889298,32.6314537 L57.2968991,31.699698 L56.5758307,32.9984396 L58.174199,33.3088343 C58.174199,33.3088343 58.4425967,33.3659972 58.6686459,33.3659972 C59.6718467,33.3659972 60.9869382,32.5188427 60.9869382,30.9371447 L60.9869382,30.9371447 Z M63.7573289,24.9224621 L64.4211697,25.585552 L64.4211697,32.5897247 L63.7573289,33.2528146 L66.0046589,33.2528146 L65.3408181,32.5897247 L65.3408181,25.585552 L66.0046589,24.9224621 L63.7573289,24.9224621 Z M71.673058,32.5897247 L71.673058,25.5432514 L73.2565471,25.5432514 L74.1470094,26.4327065 L74.1470094,24.9224621 L68.2806027,24.9224621 L68.2806027,26.4327065 L69.1859441,25.5432514 L70.7545541,25.5432514 L70.7545541,32.5897247 L70.1038757,33.2528146 L72.337471,33.2528146 L71.673058,32.5897247 Z M76.4229532,25.585552 L78.5295031,29.3840281 L78.5295031,32.5897247 L77.8656624,33.2528146 L80.11242,33.2528146 L79.448007,32.5897247 L79.448007,29.3840281 L81.5963331,25.5998427 L82.28936,24.9224621 L80.2257308,24.9224621 L80.8758369,25.5712612 L79.1229539,28.6923567 L77.4547678,25.5712612 L78.1054462,24.9224621 L75.7442332,24.9224621 L76.4229532,25.585552 Z M89.0817102,27.9943975 C88.7772591,27.9943975 88.2965468,28.1344466 87.8164068,28.4156882 C87.00778,28.8958567 86.1293355,29.9836671 86.1293355,31.6219565 C86.1293355,32.4411011 86.5161945,33.3545646 87.6052367,33.3545646 C88.1202856,33.3545646 88.8590946,33.0150169 89.3512524,32.5702893 C90.124398,31.867757 90.5810747,30.6627626 90.5810747,29.6206826 C90.5810747,28.6494846 90.0660258,27.9943975 89.0817102,27.9943975 L89.0817102,27.9943975 Z M87.0775978,31.3407149 C87.0775978,29.6098216 87.9566145,28.6729213 88.3194378,28.5202963 C88.425309,28.4739944 88.5901247,28.4271208 88.7068691,28.4271208 C89.292308,28.4271208 89.6322402,28.8718483 89.6322402,29.7733076 C89.6557036,31.2938413 88.8590946,32.6754691 88.3669368,32.8389551 C88.2730834,32.8749677 88.1202856,32.9212697 88.0035412,32.9212697 C87.3482846,32.9212697 87.0775978,32.219309 87.0775978,31.3407149 L87.0775978,31.3407149 Z M92.3431142,28.2750674 L92.026073,28.5791742 L92.0615541,28.6963581 L93.033852,28.6963581 C92.8816264,29.7498708 92.7408464,30.6627626 92.5182308,32.1369944 C92.2023341,34.3257626 91.9322196,35.0980337 91.7101763,35.2849565 C91.6397863,35.3558385 91.5224696,35.3901362 91.4171707,35.3901362 C91.2763907,35.3901362 91.0543474,35.2849565 90.9015496,35.2146461 C90.7607696,35.1449073 90.6434529,35.2266503 90.5736351,35.296389 C90.4797818,35.4027121 90.3739106,35.566198 90.3739106,35.6948146 C90.3739106,35.928611 90.678934,36.0463666 90.8780862,36.0463666 C91.1001295,36.0463666 91.6626774,35.8583006 92.166853,35.2386545 C92.5651575,34.7464817 93.104242,33.6117978 93.5609186,30.9668694 C93.6433265,30.4746966 93.7371798,29.9836671 93.9363321,28.6963581 L95.1306732,28.5791742 L95.3887699,28.2750674 L94.0061498,28.2750674 C94.3575276,26.1103076 94.6505332,25.4546489 95.1541365,25.4546489 C95.5060866,25.4546489 95.7979476,25.594698 96.0566166,25.8410702 C96.1384522,25.9228132 96.2677867,25.9228132 96.3845311,25.829066 C96.4783844,25.747323 96.6191645,25.5598287 96.6191645,25.3963427 C96.63061,25.1619747 96.3147133,24.9041699 95.9158366,24.9041699 C95.2365443,24.9041699 94.5217709,25.3031671 94.0296131,25.8879438 C93.5723642,26.4378511 93.2679131,27.3273062 93.104242,28.2750674 L92.3431142,28.2750674 L92.3431142,28.2750674 Z" id="Fill-1"></path>
                                <path d="M4.6365845,50.6280562 L7.20095566,42.5252121 L9.68978631,50.6280562 L10.2597737,50.6280562 L13.5091599,40.3232963 L14.4207964,39.4309831 L11.7225126,39.4309831 L12.5969511,40.3044326 L10.2214312,48.0477219 L7.92259637,40.3044326 L8.79646264,39.4309831 L5.62318925,39.4309831 L6.5170852,40.3232963 L6.74485126,41.0629846 L4.59766969,48.0477219 L2.29940712,40.3044326 L3.17327339,39.4309831 L0,39.4309831 L0.912208799,40.3232963 L4.06545251,50.6280562 L4.6365845,50.6280562 Z M15.7799532,49.7551784 L16.5971641,47.3834888 L20.3020824,47.3834888 L21.0809508,49.7551784 L20.2065122,50.6280562 L23.3803579,50.6280562 L22.4864619,49.7174508 L18.9915691,39.4309831 L18.4204372,39.4309831 L14.8677444,49.7174508 L13.9561079,50.6280562 L16.6543918,50.6280562 L15.7799532,49.7551784 Z M18.4776648,41.9169986 L20.017661,46.5477669 L16.8821578,46.5477669 L18.4776648,41.9169986 Z M30.7346837,47.5161067 C30.7346837,46.4151489 30.2213516,45.732052 29.6897067,45.3707823 L27.409757,43.7199171 C26.5931184,43.1322823 26.1742119,42.3725871 26.1742119,41.803816 C26.1742119,40.6268315 27.1814186,40.2089705 27.7897486,40.2089705 C28.1125126,40.2089705 28.3402786,40.3421601 28.5113893,40.3421601 L29.4991386,41.4053904 L30.5441156,39.8488441 L28.3208212,39.4309831 C28.1697402,39.3932556 28.0753146,39.3743919 27.7897486,39.3743919 C25.8325628,39.3743919 24.9398115,41.0446924 24.9398115,42.1256433 C24.9398115,42.9796573 25.3764584,43.9479972 26.3836652,44.688257 L28.6825,46.3391222 C29.3097151,46.7752753 29.4808258,47.4212163 29.4808258,47.9716952 C29.4808258,48.9200281 28.8913809,49.9455309 27.6186379,49.9455309 C27.3141868,49.9455309 27.0492228,49.8877963 26.8391973,49.7929059 L25.7753352,48.5410379 L24.8070433,50.2867935 L26.9542249,50.7040829 C26.9542249,50.7040829 27.3141868,50.7801096 27.6186379,50.7801096 C28.9669214,50.7801096 30.7346837,49.6419958 30.7346837,47.5161067 L30.7346837,47.5161067 Z M35.5028918,45.0106559 L40.2144445,45.0106559 L40.2144445,49.7363146 L39.3222654,50.6280562 L42.3427409,50.6280562 L41.4499895,49.7363146 L41.4499895,40.3232963 L42.3427409,39.4309831 L39.3222654,39.4309831 L40.2144445,40.3232963 L40.2144445,44.1760772 L35.5028918,44.1760772 L35.5028918,40.3232963 L36.3962154,39.4309831 L33.394625,39.4309831 L34.2684913,40.3232963 L34.2684913,49.7363146 L33.394625,50.6280562 L36.3962154,50.6280562 L35.5028918,49.7363146 L35.5028918,45.0106559 Z M53.4157196,49.6602879 L53.4157196,41.2722008 L59.3776966,50.6234831 L59.8183495,50.6263413 L59.8189218,40.399323 L60.787786,39.4309831 L57.861736,39.4309831 L58.8306002,40.399323 L58.8306002,47.5161067 L53.7768261,39.4309831 L51.4585339,39.4309831 L52.4079406,40.399323 L52.4079406,49.6602879 L51.4585339,50.6280562 L54.3845838,50.6280562 L53.4157196,49.6602879 Z M69.4205775,45.5422711 L69.4205775,49.1481081 C69.1556135,49.4139157 68.622824,49.9455309 67.5784193,49.9455309 C65.0890164,49.9455309 63.8351585,47.4400801 63.8351585,45.0300913 C63.8351585,42.6006671 65.4117804,40.1146517 67.5784193,40.1146517 C68.1478345,40.1146517 68.5655964,40.2472697 68.945588,40.6456952 L70.181133,41.8598357 L70.181133,39.9248708 C69.5161477,39.5830365 68.8511624,39.2795014 67.5784193,39.2795014 C64.519029,39.2795014 62.3712751,42.0124607 62.3712751,45.0300913 C62.3712751,47.990559 64.519029,50.7801096 67.5784193,50.7801096 C69.3066945,50.7801096 70.0472203,50.3628202 70.6555503,49.963823 L70.6555503,45.5422711 L71.5294166,44.6499579 L68.5278261,44.6499579 L69.4205775,45.5422711 Z M77.5944033,49.7363146 L77.5944033,40.2661334 L79.7226997,40.2661334 L80.91933,41.4619817 L80.91933,39.4309831 L73.0339316,39.4309831 L73.0339316,41.4619817 L74.2505915,40.2661334 L76.3594305,40.2661334 L76.3594305,49.7363146 L75.484992,50.6280562 L78.4871547,50.6280562 L77.5944033,49.7363146 Z M82.047287,45.0300913 C82.047287,47.8762331 83.6622514,50.875 86.5310737,50.875 C89.4187811,50.875 91.0343177,47.8762331 91.0343177,45.0300913 C91.0343177,42.1828062 89.4187811,39.184611 86.5310737,39.184611 C83.6622514,39.184611 82.047287,42.1828062 82.047287,45.0300913 L82.047287,45.0300913 Z M86.5310737,50.020986 C84.2900388,50.020986 83.5105981,47.344618 83.5105981,45.0300913 C83.5105981,42.7144213 84.2900388,40.0380534 86.5310737,40.0380534 C88.7921383,40.0380534 89.5715789,42.7144213 89.5715789,45.0300913 C89.5715789,47.344618 88.7921383,50.020986 86.5310737,50.020986 L86.5310737,50.020986 Z M95.0654337,49.6602879 L95.0654337,41.2722008 L100.99708,50.6343441 L101.468636,50.6343441 L101.468636,40.399323 L102.4375,39.4309831 L99.5114501,39.4309831 L100.480314,40.399323 L100.480314,47.5161067 L95.4271124,39.4309831 L93.1082479,39.4309831 L94.0587992,40.399323 L94.0587992,49.6602879 L93.1082479,50.6280562 L96.0354424,50.6280562 L95.0654337,49.6602879 L95.0654337,49.6602879 Z" id="Fill-3"></path>
                                <polyline id="Fill-5" points="45.3666501 39.4309831 46.2599738 40.3232963 46.2599738 49.7363146 45.3666501 50.6280562 48.387698 50.6280562 47.4943743 49.7363146 47.4943743 40.3232963 48.387698 39.4309831 45.3666501 39.4309831"></polyline>
                                <polyline id="Fill-6" points="38.8323966 0.466449438 38.8323966 3.30801826 40.6350677 3.30801826 43.7986124 16.0044747 48.2354724 16.0044747 50.345456 8.05940028 52.3667367 16.0044747 56.8053135 16.0044747 60.1439749 3.30801826 61.8579431 3.30801826 61.8579431 0.466449438 55.7500356 0.466449438 55.7500356 3.30801826 57.7707441 3.30801826 55.5737744 11.5709185 52.8497381 0.466449438 50.0375712 0.466449438 47.0497154 11.6583778 44.8968111 3.30801826 47.0937807 3.30801826 47.0937807 0.466449438 38.8323966 0.466449438"></polyline>
                            </g>
                        </g>
                    </g>
                </g>
            </g>
        </g>
    </g>
</svg>