<?xml version="1.0" encoding="UTF-8" standalone="no"?>
<!-- Created with Inkscape (http://www.inkscape.org/) -->

<svg
   xmlns:dc="http://purl.org/dc/elements/1.1/"
   xmlns:cc="http://creativecommons.org/ns#"
   xmlns:rdf="http://www.w3.org/1999/02/22-rdf-syntax-ns#"
   xmlns:svg="http://www.w3.org/2000/svg"
   xmlns="http://www.w3.org/2000/svg"
   version="1.1"
   width="319.33005"
   height="319.32999"
   id="svg3525">
  <defs
     id="defs3527" />
  <g
     transform="translate(-251.76355,-176.9829)"
     id="layer1">
    <g
       transform="matrix(1.25,0,0,-1.25,-763.52652,883.83566)"
       id="g3541">
      <path
         d="m 860.72559,516.02529 16.70343,0 0,-139.1484 24.79177,0 0,-17.27699 -41.4952,0 0,156.42539 z"
         id="path3619"
         style="fill:#ffffff;fill-opacity:1;fill-rule:nonzero;stroke:none" />
      <path
         d="m 977.25668,516.00505 42.21702,0 0,-17.0546 -25.51359,0 0,-50.14929 23.84759,0 0,-18.24852 -23.84759,0 0,-53.66089 25.51359,0 0,-17.29259 -42.21702,0 0,156.40589 z"
         id="path3623"
         style="fill:#ffffff;fill-opacity:1;fill-rule:nonzero;stroke:none" />
      <path
         d="m 916.77826,359.65769 0,16.72683 0,0.38628 5.23225,0.0195 c 6.871,0.035 18.49823,4.82257 20.21112,15.64604 1.66214,10.48013 0.43698,18.06905 -13.04359,41.09333 l -0.17558,0.38627 c -9.38373,15.2988 -18.27973,28.65842 -14.95934,49.62256 3.60913,22.79017 21.42846,32.82549 37.64027,32.52507 l 5.23616,0.008 0,-16.72685 0,-0.38627 -5.23616,-0.0195 c -6.86709,-0.0389 -18.81819,-4.74845 -20.53495,-15.56802 -1.65826,-10.48403 -0.51503,-17.26529 12.61437,-39.98132 l 0.35117,-0.58527 c 9.75049,-15.70067 18.53335,-29.57532 15.21295,-50.53946 -3.60913,-22.79018 -21.10461,-32.89964 -37.31642,-32.60309 l -5.23225,-0.004"
         id="path3635"
         style="fill:#ffffff;fill-opacity:1;fill-rule:nonzero;stroke:none" />
    </g>
  </g>
</svg>
