<?xml version="1.0" encoding="UTF-8"?>
<svg width="101px" height="30px" viewBox="0 0 101 30" version="1.1" xmlns="http://www.w3.org/2000/svg" xmlns:xlink="http://www.w3.org/1999/xlink">
    <!-- Generator: Sketch 45.2 (43514) - http://www.bohemiancoding.com/sketch -->
    <title>logo_coop</title>
    <desc>Created with Sketch.</desc>
    <defs></defs>
    <g id="02c-Expertise-Page-Template" stroke="none" stroke-width="1" fill="none" fill-rule="evenodd">
        <g id="Community-Page-Template-v1" transform="translate(-778.000000, -6977.000000)">
            <g id="Client-Logos" transform="translate(0.000000, 6505.000000)">
                <g id="Group-7" transform="translate(120.000000, 171.000000)">
                    <g id="Group-3" transform="translate(0.000000, 88.000000)">
                        <g id="logo-ucl" transform="translate(654.000000, 173.000000)">
                            <g id="black" transform="translate(4.812500, 39.875000)">
                                <g id="Group-3" fill="#1A1919">
                                    <path d="M0.127324257,0.59753418 L0.127324257,29.9047708 L36.3422903,29.9047708 C36.063052,29.70764 35.8031506,29.499086 35.5714352,29.2781298 C33.5033674,27.286913 33.4745258,24.97389 33.4155318,22.8064304 L33.4155318,10.5069703 L40.0313824,10.5069703 L40.0313824,23.4219746 C40.0313824,24.3005774 40.0615349,25.2082276 40.7996156,25.9105876 C41.3308894,26.4673842 42.1289473,26.6720216 42.8965249,26.6720216 C43.9302311,26.6720216 44.610301,26.290815 44.9940898,25.9402878 C45.7616674,25.2082276 45.7911644,24.3005774 45.7911644,23.4219746 L45.7911644,10.5069703 L52.4368398,10.5069703 L52.4368398,21.5179 C52.4368398,23.8893442 52.4368398,26.9647804 49.9853109,29.2781298 C49.7509735,29.4968014 49.4923831,29.7053553 49.2138003,29.9047708 L59.121189,29.9047708 C56.2049184,27.8208633 54.8342909,24.3387633 54.8342909,20.9611034 C54.8342909,15.3973806 58.5859822,9.74520997 65.6446157,9.74520997 C68.805056,9.74520997 71.8173557,10.8584767 74.0034116,13.0846839 C74.8899605,13.9920077 75.303574,14.6946942 75.7460291,15.514223 L70.2235342,18.2384791 C69.6909494,17.0077172 68.6870679,14.811863 65.9104165,14.811863 C64.4630967,14.811863 63.5477063,15.485502 63.1045957,15.9248034 C61.5389602,17.4176448 61.5389602,19.7606944 61.5389602,20.5818551 C61.5389602,23.6556594 62.6919654,26.5555056 65.940569,26.5555056 C69.0125182,26.5555056 69.9279086,23.8606232 70.1645402,23.1582632 L75.7758539,25.8524928 C75.2439245,26.847938 74.7421477,27.784962 73.738594,28.7804072 C73.30761,29.2007788 72.8409018,29.5741524 72.3479741,29.9047708 L78.4158359,29.9047708 L78.4158359,10.4772702 L85.001534,10.4772702 L85.001534,25.7464207 L93.5484553,25.7464207 L93.5484553,29.9047708 L99.87146,29.9047708 L99.87146,0.59753418 L0.127324257,0.59753418 Z" id="Fill-1"></path>
                                </g>
                                <path d="M30.0321617,15.0182593 C30.0193796,15.0156483 26.4679402,14.2558461 26.4679402,14.2558461 C26.4679402,14.2558461 22.9119123,15.0166274 22.9050296,15.0182593 C22.8856927,15.0221758 22.8922476,15.0384945 22.8922476,15.0384945 L22.9414093,15.2199593 L22.9515693,15.2196329 L22.9502584,15.2199593 C22.9502584,15.2199593 23.0053194,15.2131054 23.0374384,15.2636936 L23.090533,15.5554733 C23.090533,15.5554733 23.091844,15.5757086 23.1128196,15.5757086 L23.2416232,15.5757086 L29.6945848,15.5757086 L29.8246994,15.5757086 C29.8427253,15.5757086 29.8443641,15.5610217 29.8443641,15.5610217 L29.8977864,15.269242 C29.9282667,15.2121263 29.9879162,15.2199593 29.9879162,15.2199593 L29.9866052,15.2196329 L29.9954543,15.2199593 L30.0449437,15.0384945 C30.0449437,15.0384945 30.0518263,15.0221758 30.0321617,15.0182593" id="Fill-4" fill="#FFFFFE"></path>
                                <path d="M29.7011924,15.4948192 C29.7051254,15.4948192 29.7087306,15.4918818 29.7087306,15.4869862 L29.7087306,15.3962538 C29.7087306,15.3916845 29.7051254,15.3956011 29.7011924,15.3956011 L29.1597585,15.3956011 C29.1558256,15.3956011 29.1512372,15.3916845 29.1512372,15.3962538 L29.1512372,15.4869862 C29.1512372,15.4918818 29.1558256,15.4948192 29.1597585,15.4948192 L29.1827006,15.4951456 C29.1935162,15.4951456 29.1941717,15.505916 29.1941717,15.51636 C29.1941717,15.5300678 29.2000711,15.6002385 29.2492328,15.6426673 C29.2564431,15.6485421 29.2544767,15.66584 29.2390727,15.66584 L29.2223577,15.66584 C29.2102312,15.66584 29.2095757,15.6739993 29.2135086,15.6805269 C29.2177693,15.6886862 29.2190803,15.712838 29.2190803,15.7239348 L29.2190803,15.7630998 C29.2190803,15.7702801 29.2197358,15.7761549 29.2269461,15.7761549 L29.2351397,15.7761549 C29.2351397,15.7761549 29.2403837,15.7755021 29.2403837,15.7817033 L29.2403837,15.7895363 L29.2403837,17.7725937 C29.2344843,17.7787948 29.2135086,17.8003356 29.2115421,17.8016411 C29.2102312,17.803273 29.2082647,17.805884 29.2082647,17.8088214 L29.2082647,17.842438 C29.2082647,17.8450491 29.2076092,17.8483128 29.2056427,17.8496183 C29.2043318,17.8512502 29.2013821,17.8522293 29.1981046,17.8522293 L29.173196,17.8522293 C29.1686076,17.8522293 29.1646747,17.8561458 29.1646747,17.8603887 L29.1646747,17.9175044 L29.695293,17.9175044 L29.695293,17.8603887 C29.695293,17.8561458 29.6916878,17.8522293 29.6877549,17.8522293 L29.6628463,17.8522293 C29.6595689,17.8522293 29.6569469,17.8512502 29.6549805,17.8496183 C29.6536695,17.8483128 29.6526862,17.8450491 29.6526862,17.842438 L29.6526862,17.8088214 C29.6526862,17.8065367 29.6520308,17.8042521 29.6494088,17.8019675 C29.6461314,17.7990301 29.6287609,17.7814058 29.6205673,17.7725937 L29.6205673,15.7895363 L29.6205673,15.7817033 C29.6205673,15.7755021 29.6258112,15.7761549 29.6258112,15.7761549 L29.6333493,15.7761549 C29.640232,15.7761549 29.6415429,15.7702801 29.6415429,15.7630998 L29.6415429,15.7239348 C29.6415429,15.712838 29.6435094,15.6886862 29.6474423,15.6805269 C29.6520308,15.6739993 29.6507198,15.66584 29.6379377,15.66584 L29.6218783,15.66584 C29.6064743,15.66584 29.6045078,15.6485421 29.6110627,15.6426673 C29.6608799,15.6021967 29.6661238,15.5316996 29.6661238,15.5179919 C29.6661238,15.505916 29.6654683,15.4951456 29.6789058,15.4951456 L29.7011924,15.4948192" id="Fill-5" fill="#FFFFFE"></path>
                                <path d="M28.5629998,15.4948192 C28.566605,15.4948192 28.5705379,15.4918818 28.5705379,15.4869862 L28.5705379,15.3962538 C28.5705379,15.3916845 28.566605,15.3956011 28.5629998,15.3956011 L28.0205826,15.3956011 C28.0163219,15.3956011 28.0130445,15.3916845 28.0130445,15.3962538 L28.0130445,15.4869862 C28.0130445,15.4918818 28.0163219,15.4948192 28.0205826,15.4948192 L28.0441802,15.4951456 C28.054668,15.4951456 28.0553235,15.505916 28.0553235,15.51636 C28.0553235,15.5300678 28.0615507,15.6002385 28.1103846,15.6426673 C28.1172672,15.6485421 28.1146453,15.66584 28.1005523,15.66584 L28.084165,15.66584 C28.071383,15.66584 28.070072,15.6739993 28.0736772,15.6805269 C28.0789211,15.6886862 28.0795766,15.712838 28.0795766,15.7239348 L28.0795766,15.7630998 C28.0795766,15.7702801 28.0808876,15.7761549 28.0877702,15.7761549 L28.0956361,15.7761549 C28.0956361,15.7761549 28.1012078,15.7755021 28.1012078,15.7817033 C28.1012078,15.7869253 28.1018633,15.7895363 28.1018633,15.7895363 L28.1018633,17.7725937 C28.0956361,17.7787948 28.0736772,17.8003356 28.0723662,17.8016411 C28.0707275,17.803273 28.0694165,17.805884 28.0694165,17.8088214 L28.0694165,17.842438 C28.0694165,17.8450491 28.0694165,17.8483128 28.0667946,17.8496183 C28.0654836,17.8512502 28.0628617,17.8522293 28.0595842,17.8522293 L28.0340201,17.8522293 C28.0304149,17.8522293 28.0271375,17.8561458 28.0271375,17.8603887 L28.0271375,17.9175044 L28.5564449,17.9175044 L28.5564449,17.8603887 C28.5564449,17.8561458 28.5525119,17.8522293 28.5489068,17.8522293 L28.5236704,17.8522293 C28.5207207,17.8522293 28.5174433,17.8512502 28.5161323,17.8496183 C28.5141658,17.8483128 28.5135104,17.8450491 28.5135104,17.842438 L28.5135104,17.8088214 C28.5135104,17.8065367 28.5128549,17.8042521 28.5102329,17.8019675 C28.5079387,17.7990301 28.4905682,17.7814058 28.4813914,17.7725937 L28.4813914,15.7895363 L28.4813914,15.7817033 C28.4813914,15.7755021 28.4872908,15.7761549 28.4872908,15.7761549 L28.4945012,15.7761549 C28.5013838,15.7761549 28.5020393,15.7702801 28.5020393,15.7630998 L28.5020393,15.7239348 C28.5020393,15.712838 28.5046613,15.6886862 28.5089219,15.6805269 C28.5121994,15.6739993 28.5108884,15.66584 28.4987618,15.66584 L28.4827024,15.66584 C28.4672984,15.66584 28.4656597,15.6485421 28.4725423,15.6426673 C28.5223595,15.6021967 28.5276034,15.5316996 28.5276034,15.5179919 C28.5276034,15.505916 28.5269479,15.4951456 28.5397299,15.4951456 L28.5629998,15.4948192" id="Fill-6" fill="#FFFFFE"></path>
                                <path d="M27.4248071,15.4948192 C27.4293955,15.4948192 27.4320175,15.4918818 27.4320175,15.4869862 L27.4320175,15.3962538 C27.4320175,15.3916845 27.4293955,15.3956011 27.4248071,15.3956011 L26.8827177,15.3956011 C26.8781293,15.3956011 26.8748518,15.3916845 26.8748518,15.3962538 L26.8748518,15.4869862 C26.8748518,15.4918818 26.8781293,15.4948192 26.8827177,15.4948192 L26.9063153,15.4951456 C26.9164754,15.4951456 26.9171309,15.505916 26.9171309,15.51636 C26.9171309,15.5300678 26.9236858,15.6002385 26.9728474,15.6426673 C26.9794023,15.6485421 26.9767804,15.66584 26.9626874,15.66584 L26.9459724,15.66584 C26.9331903,15.66584 26.9325349,15.6739993 26.9364678,15.6805269 C26.9407285,15.6886862 26.9420395,15.712838 26.9420395,15.7239348 L26.9420395,15.7630998 C26.9420395,15.7702801 26.9426949,15.7761549 26.9492498,15.7761549 L26.9580989,15.7761549 C26.9580989,15.7761549 26.9639983,15.7755021 26.9639983,15.7817033 L26.9639983,15.7895363 L26.9639983,17.7725937 C26.9580989,17.7787948 26.9364678,17.8003356 26.9345013,17.8016411 C26.9325349,17.803273 26.9312239,17.805884 26.9312239,17.8088214 L26.9312239,17.842438 C26.9312239,17.8450491 26.9305684,17.8483128 26.9292574,17.8496183 C26.9272909,17.8512502 26.9243412,17.8522293 26.9217193,17.8522293 L26.8968107,17.8522293 C26.8928778,17.8522293 26.8889448,17.8561458 26.8889448,17.8603887 L26.8889448,17.9175044 L27.41858,17.9175044 L27.41858,17.8603887 C27.41858,17.8561458 27.414647,17.8522293 27.4107141,17.8522293 L27.3858055,17.8522293 C27.3825281,17.8522293 27.3792506,17.8512502 27.3779396,17.8496183 C27.3769564,17.8483128 27.3756454,17.8450491 27.3756454,17.842438 L27.3756454,17.8088214 C27.3756454,17.8065367 27.3749899,17.8042521 27.3730235,17.8019675 C27.369746,17.7990301 27.3530311,17.7814058 27.3435265,17.7725937 L27.3435265,15.7895363 L27.3435265,15.7817033 C27.3435265,15.7755021 27.3494259,15.7761549 27.3494259,15.7761549 L27.355653,15.7761549 C27.3641744,15.7761549 27.3645021,15.7702801 27.3645021,15.7630998 L27.3645021,15.7239348 C27.3645021,15.712838 27.3664686,15.6886862 27.371057,15.6805269 C27.3743345,15.6739993 27.3743345,15.66584 27.3615524,15.66584 L27.3448375,15.66584 C27.3294335,15.66584 27.327467,15.6485421 27.3353329,15.6426673 C27.3844945,15.6021967 27.389083,15.5316996 27.389083,15.5179919 C27.389083,15.505916 27.389083,15.4951456 27.401865,15.4951456 L27.4248071,15.4948192" id="Fill-7" fill="#FFFFFE"></path>
                                <path d="M25.7168626,15.4948192 C25.7211233,15.4948192 25.7244008,15.4918818 25.7244008,15.4869862 L25.7244008,15.3962538 C25.7244008,15.3916845 25.7211233,15.3956011 25.7168626,15.3956011 L25.1744455,15.3956011 C25.1701848,15.3956011 25.1675628,15.3916845 25.1675628,15.3962538 L25.1675628,15.4869862 C25.1675628,15.4918818 25.1701848,15.4948192 25.1744455,15.4948192 L25.1977153,15.4951456 C25.2085309,15.4951456 25.2091864,15.505916 25.2091864,15.51636 C25.2091864,15.5300678 25.2154135,15.6002385 25.264903,15.6426673 C25.2717856,15.6485421 25.2685081,15.66584 25.2544151,15.66584 L25.2380279,15.66584 C25.2252459,15.66584 25.2245904,15.6739993 25.2281956,15.6805269 C25.232784,15.6886862 25.234095,15.712838 25.234095,15.7239348 L25.234095,15.7630998 C25.234095,15.7702801 25.2347505,15.7761549 25.2422886,15.7761549 L25.2501544,15.7761549 C25.2501544,15.7761549 25.2557261,15.7755021 25.2557261,15.7817033 L25.2557261,15.7895363 L25.2557261,17.7725937 C25.2501544,17.7787948 25.2281956,17.8003356 25.2265568,17.8016411 C25.2252459,17.803273 25.2239349,17.805884 25.2239349,17.8088214 L25.2239349,17.842438 C25.2239349,17.8450491 25.2232794,17.8483128 25.2213129,17.8496183 C25.2193465,17.8512502 25.216069,17.8522293 25.2134471,17.8522293 L25.1885385,17.8522293 C25.1842778,17.8522293 25.1810004,17.8561458 25.1810004,17.8603887 L25.1810004,17.9175044 L25.7103077,17.9175044 L25.7103077,17.8603887 C25.7103077,17.8561458 25.7070303,17.8522293 25.7027696,17.8522293 L25.6775333,17.8522293 C25.6745836,17.8522293 25.6719616,17.8512502 25.6699952,17.8496183 C25.6686842,17.8483128 25.6680287,17.8450491 25.6680287,17.842438 L25.6680287,17.8088214 C25.6680287,17.8065367 25.6673732,17.8042521 25.6647513,17.8019675 C25.6618016,17.7990301 25.6444311,17.7814058 25.6362375,17.7725937 L25.6362375,15.7895363 C25.6362375,15.7895363 25.635582,15.7869253 25.635582,15.7817033 C25.635582,15.7755021 25.6411536,15.7761549 25.6411536,15.7761549 L25.6490195,15.7761549 C25.6552467,15.7761549 25.6565576,15.7702801 25.6565576,15.7630998 L25.6565576,15.7239348 C25.6565576,15.712838 25.6585241,15.6886862 25.6631125,15.6805269 C25.6667177,15.6739993 25.6654067,15.66584 25.6532802,15.66584 L25.6372207,15.66584 C25.621489,15.66584 25.6195225,15.6485421 25.6264051,15.6426673 C25.6765501,15.6021967 25.6814662,15.5316996 25.6814662,15.5179919 C25.6814662,15.505916 25.6808107,15.4951456 25.6935928,15.4951456 L25.7168626,15.4948192" id="Fill-8" fill="#FFFFFE"></path>
                                <path d="M24.57867,15.4948192 C24.5832584,15.4948192 24.5865358,15.4918818 24.5865358,15.4869862 L24.5865358,15.3962538 C24.5865358,15.3916845 24.5832584,15.3956011 24.57867,15.3956011 L24.037236,15.3956011 C24.0326476,15.3956011 24.0293702,15.3916845 24.0293702,15.3962538 L24.0293702,15.4869862 C24.0293702,15.4918818 24.0326476,15.4948192 24.037236,15.4948192 L24.0595227,15.4951456 C24.0709937,15.4951456 24.0716492,15.505916 24.0716492,15.51636 C24.0716492,15.5300678 24.0782041,15.6002385 24.1273658,15.6426673 C24.1339207,15.6485421 24.1312987,15.66584 24.1165502,15.66584 L24.0998352,15.66584 C24.0870532,15.66584 24.0863977,15.6739993 24.0903306,15.6805269 C24.0949191,15.6886862 24.0959023,15.712838 24.0959023,15.7239348 L24.0959023,15.7630998 C24.0959023,15.7702801 24.0965578,15.7761549 24.1044237,15.7761549 L24.1119618,15.7761549 C24.1119618,15.7761549 24.1178612,15.7755021 24.1178612,15.7817033 L24.1178612,15.7895363 L24.1178612,17.7725937 C24.1119618,17.7787948 24.0903306,17.8003356 24.0890197,17.8016411 C24.0870532,17.803273 24.0857422,17.805884 24.0857422,17.8088214 L24.0857422,17.842438 C24.0857422,17.8450491 24.0850867,17.8483128 24.0831203,17.8496183 C24.082137,17.8512502 24.0788596,17.8522293 24.0755821,17.8522293 L24.0513291,17.8522293 C24.0467406,17.8522293 24.0428077,17.8561458 24.0428077,17.8603887 L24.0428077,17.9175044 L24.5724428,17.9175044 L24.5724428,17.8603887 C24.5724428,17.8561458 24.5691654,17.8522293 24.5652324,17.8522293 L24.5396684,17.8522293 C24.5370464,17.8522293 24.5344245,17.8512502 24.5327857,17.8496183 C24.5308193,17.8483128 24.5301638,17.8450491 24.5301638,17.842438 L24.5301638,17.8088214 C24.5301638,17.8065367 24.5295083,17.8042521 24.5268863,17.8019675 C24.5242644,17.7990301 24.5062384,17.7814058 24.4973893,17.7725937 L24.4973893,15.7895363 L24.4973893,15.7817033 C24.4973893,15.7755021 24.5032887,15.7761549 24.5032887,15.7761549 L24.5101714,15.7761549 C24.5180372,15.7761549 24.5186927,15.7702801 24.5186927,15.7630998 L24.5186927,15.7239348 C24.5186927,15.712838 24.5203314,15.6886862 24.5249199,15.6805269 C24.5295083,15.6739993 24.5281973,15.66584 24.5154153,15.66584 L24.4987003,15.66584 C24.4832963,15.66584 24.4813298,15.6485421 24.4885402,15.6426673 C24.5383574,15.6021967 24.5436013,15.5316996 24.5436013,15.5179919 C24.5436013,15.505916 24.5429458,15.4951456 24.5557278,15.4951456 L24.57867,15.4948192" id="Fill-9" fill="#FFFFFE"></path>
                                <path d="M23.4404773,15.4948192 C23.444738,15.4948192 23.4486709,15.4918818 23.4486709,15.4869862 L23.4486709,15.3962538 C23.4486709,15.3916845 23.444738,15.3956011 23.4404773,15.3956011 L22.8987156,15.3956011 C22.894455,15.3956011 22.8911775,15.3916845 22.8911775,15.3962538 L22.8911775,15.4869862 C22.8911775,15.4918818 22.894455,15.4948192 22.8987156,15.4948192 L22.9219855,15.4951456 C22.9328011,15.4951456 22.9334565,15.505916 22.9334565,15.51636 C22.9334565,15.5300678 22.9396837,15.6002385 22.9891731,15.6426673 C22.9954003,15.6485421 22.9927783,15.66584 22.9786853,15.66584 L22.9616426,15.66584 C22.949516,15.66584 22.9488605,15.6739993 22.9524657,15.6805269 C22.9570542,15.6886862 22.9577096,15.712838 22.9577096,15.7239348 L22.9577096,15.7630998 C22.9577096,15.7702801 22.9583651,15.7761549 22.9659033,15.7761549 L22.9737691,15.7761549 C22.9737691,15.7761549 22.9793408,15.7755021 22.9793408,15.7817033 L22.9793408,15.7895363 L22.9793408,17.7725937 C22.9737691,17.7787948 22.9524657,17.8003356 22.950827,17.8016411 C22.9488605,17.803273 22.9475496,17.805884 22.9475496,17.8088214 L22.9475496,17.842438 C22.9475496,17.8450491 22.9468941,17.8483128 22.9455831,17.8496183 C22.9436166,17.8512502 22.9403392,17.8522293 22.9377172,17.8522293 L22.9128086,17.8522293 C22.908548,17.8522293 22.904615,17.8561458 22.904615,17.8603887 L22.904615,17.9175044 L23.4345779,17.9175044 L23.4345779,17.8603887 C23.4345779,17.8561458 23.4313005,17.8522293 23.4270398,17.8522293 L23.4014757,17.8522293 C23.3988537,17.8522293 23.3955763,17.8512502 23.3942653,17.8496183 C23.3922989,17.8483128 23.3916434,17.8450491 23.3916434,17.842438 L23.3916434,17.8088214 C23.3916434,17.8065367 23.3909879,17.8042521 23.3890214,17.8019675 C23.3860717,17.7990301 23.3680458,17.7814058 23.3598522,17.7725937 L23.3598522,15.7895363 L23.3598522,15.7817033 C23.3598522,15.7755021 23.3647683,15.7761549 23.3647683,15.7761549 L23.3719787,15.7761549 C23.3795168,15.7761549 23.3808278,15.7702801 23.3808278,15.7630998 L23.3808278,15.7239348 C23.3808278,15.712838 23.3821388,15.6886862 23.3873827,15.6805269 C23.3903324,15.6739993 23.3896769,15.66584 23.3775504,15.66584 L23.3611631,15.66584 C23.3451037,15.66584 23.3437927,15.6485421 23.3506753,15.6426673 C23.4001647,15.6021967 23.4050809,15.5316996 23.4050809,15.5179919 C23.4050809,15.505916 23.4044254,15.4951456 23.4178629,15.4951456 L23.4404773,15.4948192" id="Fill-10" fill="#FFFFFE"></path>
                                <path d="M27.9250732,13.3182342 L27.8693567,13.3182342 C27.8546082,13.3182342 27.8552637,13.3061583 27.8552637,13.3061583 L27.8552637,13.2464316 C27.8552637,13.2310919 27.8401874,13.2310919 27.8401874,13.2310919 L27.7854541,13.2310919 C27.7703778,13.2310919 27.7710333,13.2173842 27.7710333,13.2173842 L27.7710333,13.1622267 C27.7710333,13.1622267 27.7710333,13.1501508 27.7569403,13.1501508 L27.7241659,13.1501508 C27.7126948,13.1501508 27.7005683,13.1406859 27.6999128,13.1250199 C27.6979463,13.0496272 27.7241659,12.5173088 27.4419778,12.1321857 C27.2197671,11.8015673 26.9136537,11.6334839 26.7448653,11.5551538 C26.7415878,11.4833512 26.6390038,11.4562621 26.5944306,11.4409224 C26.5705052,11.432763 26.550185,11.4232981 26.550185,11.4024101 C26.550185,11.401431 26.5495296,11.3792374 26.5495296,11.3779319 C26.5495296,11.3557384 26.5701775,11.3465999 26.6006577,11.347579 C26.61049,11.3479054 26.6173727,11.339746 26.6173727,11.3335449 L26.6173727,11.2689225 C26.6173727,11.259784 26.6091791,11.2496664 26.5957415,11.2496664 C26.5731272,11.2496664 26.5475631,11.24934 26.5347811,11.24934 C26.5200325,11.24934 26.5131499,11.236285 26.5131499,11.2281256 L26.5131499,11.1958144 C26.5131499,11.1765583 26.4984014,11.1661143 26.4869304,11.1605659 L26.4869304,10.7633669 C26.4869304,10.7499855 26.4970904,10.7516174 26.5059395,10.7516174 C26.5072505,10.7516174 26.509217,10.7516174 26.510528,10.751291 L26.5118389,10.751291 C26.5167551,10.751291 26.5213435,10.7467218 26.5213435,10.7414998 L26.5213435,10.7036402 C26.5213435,10.6980918 26.5167551,10.6941753 26.5118389,10.6941753 L26.493813,10.6941753 C26.4875858,10.6912379 26.4829974,10.6830785 26.4829974,10.6651279 C26.4829974,10.6468509 26.4885691,10.6383651 26.4964349,10.6367332 L26.5118389,10.6367332 C26.5167551,10.6367332 26.5213435,10.6324903 26.5213435,10.6272683 L26.5213435,10.588756 C26.5213435,10.5838604 26.5167551,10.5792911 26.5118389,10.5792911 L26.491191,10.5792911 C26.4823419,10.5779856 26.475787,10.5743955 26.4669379,10.5672152 C26.3990948,10.5136897 26.3305962,10.4366651 26.3305962,10.4252419 L26.3305962,10.4108814 C26.3305962,10.402722 26.3224026,10.3864032 26.3037212,10.3864032 C26.2856952,10.3864032 26.2883172,10.3677998 26.2978218,10.3677998 C26.3043767,10.3677998 26.3056876,10.366168 26.3056876,10.3573558 L26.3056876,10.3315721 C26.3056876,10.320149 26.2709467,10.2721718 26.2709467,10.2721718 L26.2686525,10.2721718 C26.2686525,10.2721718 26.2332561,10.320149 26.2332561,10.3315721 L26.2332561,10.3573558 C26.2332561,10.366168 26.2358781,10.3677998 26.2417775,10.3677998 C26.2512821,10.3677998 26.253904,10.3864032 26.2365335,10.3864032 C26.2178521,10.3864032 26.2096585,10.402722 26.2096585,10.4108814 C26.2096585,10.418388 26.209003,10.4190408 26.209003,10.4252419 C26.209003,10.4366651 26.1405044,10.5136897 26.0726613,10.5672152 C26.0638122,10.5743955 26.0572573,10.5779856 26.0484082,10.5792911 L26.0277603,10.5792911 C26.0228441,10.5792911 26.0182557,10.5838604 26.0182557,10.588756 L26.0182557,10.6272683 C26.0182557,10.6324903 26.0228441,10.6367332 26.0277603,10.6367332 L26.0438198,10.6367332 C26.0510302,10.6383651 26.0566018,10.6468509 26.0566018,10.6651279 C26.0566018,10.6830785 26.0520134,10.6912379 26.0457862,10.6941753 L26.0277603,10.6941753 C26.0228441,10.6941753 26.0182557,10.6980918 26.0182557,10.7036402 L26.0182557,10.7414998 C26.0182557,10.7467218 26.0228441,10.751291 26.0277603,10.751291 L26.0290713,10.751291 C26.0310377,10.7516174 26.0323487,10.7516174 26.0336597,10.7516174 C26.0425088,10.7516174 26.0533244,10.7499855 26.0533244,10.7633669 L26.0533244,11.1605659 C26.0418533,11.1661143 26.0264493,11.1765583 26.0264493,11.1958144 L26.0264493,11.2281256 C26.0264493,11.236285 26.0195667,11.24934 26.0048182,11.24934 C25.9920361,11.24934 25.9658166,11.2496664 25.9438577,11.2496664 C25.9304202,11.2496664 25.9215711,11.259784 25.9215711,11.2689225 L25.9215711,11.3335449 C25.9215711,11.339746 25.9291092,11.3479054 25.938286,11.347579 C25.969094,11.3465999 25.9900697,11.3557384 25.9900697,11.3779319 C25.9900697,11.3792374 25.9894142,11.401431 25.9894142,11.4024101 C25.9894142,11.4232981 25.9684385,11.432763 25.9451687,11.4409224 C25.9005954,11.4562621 25.7980114,11.4833512 25.7953894,11.5551538 C25.6259455,11.6334839 25.3191767,11.8015673 25.0982769,12.1321857 C24.8154334,12.5173088 24.8423084,13.0496272 24.8396865,13.1250199 C24.839031,13.1406859 24.8275599,13.1501508 24.8154334,13.1501508 L24.7826589,13.1501508 C24.7685659,13.1501508 24.7685659,13.1622267 24.7685659,13.1622267 L24.7685659,13.2173842 C24.7685659,13.2173842 24.7692214,13.2310919 24.7544729,13.2310919 L24.6990841,13.2310919 C24.6990841,13.2310919 24.6849911,13.2310919 24.6849911,13.2464316 L24.6849911,13.3061583 C24.6849911,13.3061583 24.6856465,13.3182342 24.6695871,13.3182342 L24.6138705,13.3182342 C24.6138705,13.3182342 24.5984665,13.3182342 24.5984665,13.3339002 L24.5984665,13.3985226 C24.5984665,13.4053764 24.6030549,13.4066819 24.6079711,13.4076611 C24.6246861,13.4099457 24.6584437,13.424959 24.6584437,13.461513 C24.6584437,13.5245035 24.6971176,13.5303783 24.7125216,13.5303783 L24.7125216,13.7621048 C24.7125216,13.8159568 24.6702425,13.8371712 24.6463172,13.843046 C24.641401,13.8436987 24.6348461,13.8492471 24.6348461,13.8557746 L24.6348461,14.0943551 L26.2686525,13.7353421 L26.2709467,13.7353421 L27.9047531,14.0943551 L27.9047531,13.8557746 C27.9047531,13.8492471 27.8975427,13.8436987 27.8926265,13.843046 C27.8687012,13.8371712 27.8270776,13.8159568 27.8270776,13.7621048 L27.8270776,13.5303783 C27.8424816,13.5303783 27.8811555,13.5245035 27.8811555,13.461513 C27.8811555,13.424959 27.9149132,13.4099457 27.9309727,13.4076611 C27.9365443,13.4066819 27.9411327,13.4053764 27.9411327,13.3985226 L27.9411327,13.3339002 C27.9411327,13.3182342 27.9250732,13.3182342 27.9250732,13.3182342" id="Fill-11" fill="#FFFFFE"></path>
                                <polyline id="Fill-12" fill="#FFFFFE" points="29.5331158 18.9229507 29.5331158 18.4474216 29.2538775 18.4474216 29.2538775 18.2395204 22.882852 18.2395204 22.882852 18.4470953 22.6029582 18.4470953 22.6029582 18.922298 22.3220812 18.922298 22.3220812 19.4023963 29.8139929 19.403049 29.8139929 18.9229507 29.5331158 18.9229507"></polyline>
                            </g>
                        </g>
                    </g>
                </g>
            </g>
        </g>
    </g>
</svg>