<svg width="160" height="160" viewBox="0 0 160 160" xmlns="http://www.w3.org/2000/svg"><title>5F3875EB-2CFB-421E-9344-42213E350802</title><g fill="#1A1A1A" fill-rule="evenodd"><path d="M46.927 74.124H31.664v4.502h10.863c-.53 6.312-5.77 9.004-10.714 9.004-6.327 0-11.847-4.99-11.847-11.985 0-6.813 5.262-12.061 11.86-12.061 5.092 0 8.092 3.253 8.092 3.253l3.144-3.264s-4.036-4.503-11.396-4.503c-9.372 0-16.622 7.93-16.622 16.495 0 8.393 6.82 16.577 16.861 16.577 8.831 0 15.296-6.065 15.296-15.034 0-1.892-.274-2.985-.274-2.985M59.847 70.864c-6.21 0-10.659 4.866-10.659 10.542 0 5.76 4.316 10.717 10.732 10.717 5.808 0 10.567-4.45 10.567-10.593 0-7.04-5.536-10.666-10.64-10.666zm.062 4.175c3.053 0 5.947 2.475 5.947 6.463 0 3.903-2.881 6.448-5.961 6.448-3.384 0-6.054-2.717-6.054-6.48 0-3.681 2.637-6.431 6.068-6.431zM82.898 70.864c-6.21 0-10.66 4.866-10.66 10.542 0 5.76 4.317 10.717 10.733 10.717 5.808 0 10.566-4.45 10.566-10.593 0-7.04-5.535-10.666-10.64-10.666zm.062 4.175c3.053 0 5.947 2.475 5.947 6.463 0 3.903-2.882 6.448-5.961 6.448-3.384 0-6.054-2.717-6.054-6.48 0-3.681 2.637-6.431 6.068-6.431zM105.636 70.875c-5.7 0-10.18 5.004-10.18 10.621 0 6.398 5.194 10.641 10.082 10.641 3.022 0 4.628-1.203 5.815-2.583v2.096c0 3.668-2.221 5.864-5.574 5.864-3.239 0-4.863-2.415-5.428-3.785l-4.075 1.708c1.446 3.065 4.356 6.26 9.537 6.26 5.666 0 9.985-3.578 9.985-11.082V71.25h-4.445v2.064c-1.367-1.477-3.236-2.44-5.717-2.44zm.412 4.167c2.795 0 5.664 2.392 5.664 6.477 0 4.152-2.863 6.44-5.725 6.44-3.039 0-5.866-2.473-5.866-6.401 0-4.081 2.936-6.516 5.927-6.516zM135.17 70.85c-5.375 0-9.89 4.288-9.89 10.615 0 6.695 5.032 10.666 10.407 10.666 4.486 0 7.24-2.46 8.883-4.665l-3.665-2.445c-.952 1.48-2.542 2.927-5.195 2.927-2.981 0-4.352-1.637-5.2-3.222l14.216-5.914-.738-1.733c-1.373-3.394-4.577-6.229-8.817-6.229zm.186 4.088c1.937 0 3.331 1.032 3.924 2.27l-9.495 3.979c-.41-3.08 2.502-6.25 5.571-6.25zM118.765 91.5h4.355V60.17h-4.355z"/></g></svg>