<?xml version="1.0" encoding="UTF-8"?>
<svg width="89px" height="62px" viewBox="0 0 89 62" version="1.1" xmlns="http://www.w3.org/2000/svg" xmlns:xlink="http://www.w3.org/1999/xlink">
    <!-- Generator: Sketch 45.2 (43514) - http://www.bohemiancoding.com/sketch -->
    <title>logo_google</title>
    <desc>Created with Sketch.</desc>
    <defs></defs>
    <g id="02c-Expertise-Page-Template" stroke="none" stroke-width="1" fill="none" fill-rule="evenodd">
        <g id="Community-Page-Template-v1" transform="translate(-347.000000, -6961.000000)" fill="#000000">
            <g id="Client-Logos" transform="translate(0.000000, 6505.000000)">
                <g id="Group-7" transform="translate(120.000000, 171.000000)">
                    <g id="Group-3" transform="translate(0.000000, 88.000000)">
                        <g id="logo-emirates" transform="translate(218.000000, 173.000000)">
                            <g id="Group" transform="translate(8.937500, 24.750000)">
                                <path d="M49.61,3.562625 C49.1321875,4.01775 48.478375,5.19475 48.478375,6.84475 L48.478375,17.03625 C48.478375,17.881875 48.1655625,18.687625 47.6623125,19.144125 C47.397625,19.3875 45.736625,20.8945 45.6341875,20.97425 L46.5925625,20.97425 C46.8826875,20.697875 49.90425,18.0351875 50.2184375,17.6735625 C50.6281875,17.2046875 51.607875,16.0215 51.607875,14.1618125 C51.607875,13.72525 51.61475,4.763 51.61475,4.368375 C51.61475,2.8991875 52.2946875,2.0845 52.6508125,1.6905625 C53.0124375,1.2876875 54.1585,0.297 54.4520625,0.0350625 L53.505375,0.0254375 C53.2324375,0.2784375 49.9379375,3.2525625 49.61,3.562625" id="Shape" fill-rule="nonzero"></path>
                                <path d="M42.13,40.6649375 L45.82875,43.896875 L48.3085625,43.896875 C50.8261875,43.896875 53.125875,42.8175 54.6473125,41.2974375 C56.167375,39.777375 56.728375,37.7375625 56.728375,35.827 L56.728375,30.5284375 C56.728375,28.7478125 55.611875,27.7110625 55.2990625,27.401 C55.1299375,27.23325 54.05125,26.21575 54.05125,26.21575 L54.05125,30.283 C54.05125,30.283 55.2385625,31.50675 55.471625,31.75425 C56.5723125,32.9223125 56.5599375,35.0453125 53.0853125,38.4319375 C52.4748125,39.02525 50.738875,40.6649375 48.3498125,40.6649375 L42.13,40.6649375" id="Shape" fill-rule="nonzero"></path>
                                <path d="M57.1814375,21.8838125 C57.1814375,21.8838125 58.2429375,23.10275 58.6609375,23.4293125 C60.0606875,24.531375 60.674625,23.271875 59.774,21.83225 C59.560875,21.487125 58.6905,20.9089375 57.1814375,21.8838125 L57.1814375,21.8838125 Z M52.4198125,18.92275 C52.0059375,19.3579375 51.6140625,20.42425 51.6140625,21.3640625 L51.6140625,23.3715625 L53.6449375,23.3715625 C54.437625,23.3715625 55.1533125,22.7830625 55.7088125,22.2695 C55.72325,22.243375 55.7088125,20.2778125 55.7088125,20.2778125 C55.7088125,20.2778125 56.2299375,20.876625 56.6933125,21.3585625 C57.3753125,20.7356875 59.13325,18.8973125 60.4113125,18.8973125 C63.0018125,18.8973125 62.4146875,22.143 61.3545625,23.186625 C61.012875,23.5241875 59.4845625,24.9253125 59.0115625,25.3749375 C57.7905625,26.54025 55.69575,25.983375 55.69575,22.97625 C55.69575,22.97625 53.4510625,25.1081875 53.11075,25.389375 C52.768375,25.6733125 51.6140625,26.899125 51.6140625,26.899125 L51.6140625,32.1853125 C51.6140625,34.7215 50.84475,35.6351875 50.0864375,36.33575 C49.75025,36.6458125 47.0243125,39.1194375 46.53275,39.551875 L45.566125,39.551875 C45.566125,39.551875 47.322,38.0194375 47.6540625,37.67225 C48.035625,37.280375 48.4776875,36.474625 48.4776875,35.1360625 C48.4776875,34.7978125 48.4364375,26.8296875 48.4364375,26.8296875 L35.451625,26.8296875 C30.93475,26.8296875 29.9701875,21.8185 29.942,20.4785625 C29.9344375,20.0825625 29.942,16.080625 29.942,15.45775 C29.942,14.6320625 29.415375,13.2446875 28.5725,12.815 L29.8450625,12.815 C29.992875,12.87825 30.793125,13.2020625 30.793125,16.2738125 C30.793125,16.2738125 30.7395,19.8495 30.7395,20.040625 C30.7395,21.5985 31.9776875,23.386 33.768625,23.386 C34.134375,23.386 48.4639375,23.3715625 48.4639375,23.3715625 C48.4776875,22.97625 48.87575,21.4754375 49.5818125,20.6855 C49.9791875,20.23725 53.1334375,17.3531875 53.4923125,17.0754375 L54.42525,17.0658125 C54.2898125,17.194375 52.75875,18.5618125 52.4198125,18.92275 Z" id="Shape" fill-rule="nonzero"></path>
                                <path d="M41.4865,31.4001875 C41.4865,32.107625 39.221875,33.994125 39.0891875,34.126125 C38.9255625,33.3623125 38.3535625,32.51875 36.664375,30.8281875 L39.1441875,28.347 C40.805875,30.0086875 41.4865,30.3634375 41.4865,31.4001875" id="Shape" fill-rule="nonzero"></path>
                                <path d="M37.145625,16.806625 C36.46775,17.5181875 36.348125,17.6969375 35.7121875,18.0778125 L43.473375,18.0778125 C45.5785,18.0778125 45.15775,16.773625 44.77825,16.1143125 C44.0089375,14.763375 41.56625,12.255375 41.56625,12.255375 C41.56625,12.255375 37.288625,16.6574375 37.145625,16.806625 L37.145625,16.806625 Z M45.7875,2.9645 C46.286625,3.4643125 47.35775,4.811125 46.7149375,5.454625 C46.146375,6.0225 45.26775,6.925875 45.26775,6.925875 C45.2258125,6.5993125 44.400125,5.817625 44.400125,5.817625 C44.400125,5.817625 44.4076875,8.2135625 44.400125,8.5105625 C44.374,9.5913125 43.9635625,9.9 43.9635625,9.9 C43.9635625,9.9 45.9628125,11.8820625 45.9628125,14.430625 C45.9628125,15.6674375 45.96625,16.8018125 45.96625,17.0465625 C45.96625,17.5704375 45.8349375,17.9733125 45.4705625,18.374125 C45.2904375,18.5735 43.4396875,20.436625 43.157125,20.691 C42.6215625,21.173625 42.0585,21.25475 41.6343125,21.25475 L34.744875,21.25475 C33.66,21.25475 32.54075,20.4084375 32.54075,19.5586875 C32.54075,19.3483125 32.555875,17.006 32.555875,17.006 C32.907875,17.413 33.268125,17.8921875 34.13575,17.8805 C34.8143125,17.8674375 35.5251875,17.3366875 35.7190625,17.1455625 C35.913625,16.94825 40.9303125,11.7060625 40.9303125,11.7060625 C40.9303125,11.7060625 38.5825,9.5294375 37.032875,8.4926875 C36.276625,7.9894375 35.277,8.62675 35.127125,9.293625 C34.65,11.3760625 35.127125,14.5069375 35.127125,14.5069375 C35.127125,14.5069375 33.594,12.9745 33.2248125,12.6080625 C32.4561875,11.8394375 32.4864375,10.102125 33.39875,9.1905 C33.5410625,9.0440625 34.931875,7.475875 36.6994375,7.475875 L39.450125,7.475875 C41.294,7.475875 43.2843125,9.2833125 43.2843125,9.2833125 C43.2843125,9.2833125 43.57925,8.95675 43.57925,8.6453125 C43.57925,7.7 43.572375,5.17825 43.572375,5.17825 C42.185,3.7888125 41.998,2.358125 42.6635,1.69125 C43.902375,0.4489375 44.3581875,0.0144375 44.3581875,0.0144375 C44.3581875,0.0144375 44.3430625,1.518 45.7875,2.9645 Z" id="Shape" fill-rule="nonzero"></path>
                                <path d="M28.2975,23.868625 L27.0235625,23.868625 C27.0235625,23.868625 28.3944375,24.622125 28.3944375,26.560875 L28.3944375,32.753875 C28.3944375,36.7819375 31.7185,40.5095625 35.7575625,40.5095625 L39.12975,40.5095625 C41.1544375,40.5095625 41.8653125,40.019375 43.091125,38.93175 C43.538,38.533 44.121,37.8791875 44.3375625,37.6399375 C45.0415625,36.8506875 45.791625,36.2140625 45.791625,34.1364375 L45.791625,32.107625 C45.791625,30.3565625 44.7755,29.6278125 44.2894375,29.139 C43.97525,28.8234375 43.110375,27.9998125 43.110375,27.9998125 L43.110375,32.1509375 C43.110375,32.1509375 43.9594375,33.0556875 44.336875,33.3526875 C46.0865625,34.7345625 44.697125,37.1463125 43.0656875,37.1463125 C42.741875,37.1463125 36.111625,37.1490625 35.65925,37.1490625 C32.808875,37.1490625 29.244875,34.78475 29.244875,30.6920625 L29.244875,27.3260625 C29.24625,23.868625 28.2975,23.868625 28.2975,23.868625" id="Shape" fill-rule="nonzero"></path>
                                <path d="M36.4175625,31.411875 C36.4175625,32.1193125 34.150875,34.0044375 34.0181875,34.1364375 C33.8559375,33.372625 33.2825625,32.5276875 31.592,30.837125 L34.073875,28.3559375 C35.7355625,30.0196875 36.4175625,30.375125 36.4175625,31.411875" id="Shape" fill-rule="nonzero"></path>
                                <path d="M10.4699375,58.971 C10.063625,58.971 6.9334375,58.966875 6.5016875,58.966875 C5.2600625,58.966875 5.357,57.92325 5.248375,57.0521875 L5.248375,51.34525 C5.248375,51.34525 6.11875,51.3239375 7.074375,51.3239375 C8.177125,51.3239375 9.5541875,51.1616875 10.89,51.918625 C10.89,51.918625 9.9275,49.614125 7.0668125,49.614125 L5.248375,49.614125 L5.248375,48.4914375 L5.248375,47.784 C5.248375,47.784 5.248375,46.18625 4.8558125,45.731125 C4.8558125,45.731125 7.2875,45.739375 7.459375,45.74075 C9.7343125,45.7435 11.4970625,45.7070625 13.3299375,46.9088125 C13.3299375,46.9088125 12.978625,43.910625 8.57175,43.910625 L0.0055,43.910625 C0.0055,43.910625 1.5351875,45.1873125 1.4444375,47.7764375 L1.5351875,58.1453125 C1.5351875,60.7688125 2.5554375,60.812125 2.5554375,60.812125 L5.489,60.812125 L6.821375,60.812125 L10.993125,60.812125 C12.912625,60.812125 13.5795,59.4666875 13.5795,58.7131875 L13.6076875,57.712875 C13.607,57.712875 12.9985625,58.971 10.4699375,58.971" id="Shape" fill-rule="nonzero"></path>
                                <path d="M32.9264375,58.0875625 L32.9264375,50.835125 C32.9264375,48.02325 30.613,47.2725 28.9059375,47.2725 C26.648875,47.2725 25.964125,49.174125 25.6774375,49.8128125 C25.1659375,48.0535 23.3915,47.249125 21.9360625,47.249125 C19.2163125,47.249125 18.5185,49.8554375 18.5185,49.8554375 C18.5185,49.8554375 18.4525,47.3433125 16.2449375,47.3433125 L14.092375,47.3474375 C14.092375,47.3474375 15.329875,47.8616875 15.329875,50.0341875 L15.3278125,58.086875 C15.3278125,60.770875 16.4065,60.7963125 16.4065,60.7963125 L19.97875,60.7963125 C19.8845625,60.770875 18.605125,59.8015 18.605125,58.06625 L18.605125,50.9251875 C18.6498125,50.604125 19.1888125,49.5391875 20.7295,49.5391875 C21.5744375,49.5391875 22.5218125,50.430875 22.5066875,51.451125 L22.5011875,58.084125 C22.5011875,60.78875 23.5654375,60.7949375 23.5654375,60.7949375 L27.1500625,60.7949375 C27.1500625,60.7949375 25.7778125,59.835875 25.7778125,58.059375 L25.7668125,50.9169375 C25.8995,50.5168125 26.373875,49.55775 27.7289375,49.55775 C28.7863125,49.55775 29.6731875,50.4508125 29.64775,51.4724375 C29.64775,51.4724375 29.6401875,57.53 29.6429375,58.092375 C29.6608125,60.8086875 30.7085625,60.787375 30.7085625,60.787375 C32.5765,60.787375 34.2945625,60.79425 34.2945625,60.79425 C34.2945625,60.79425 32.9264375,59.85375 32.9264375,58.0875625" id="Shape" fill-rule="nonzero"></path>
                                <path d="M39.1545,58.0834375 C39.1545,59.8709375 40.5295,60.795625 40.5295,60.795625 C40.5295,60.795625 38.82725,60.78875 36.9579375,60.78875 C36.9579375,60.78875 35.894375,60.801125 35.894375,58.106125 L35.894375,58.09375 L35.8991875,50.012875 C35.8991875,47.887125 34.6630625,47.3405625 34.6630625,47.3405625 L36.793625,47.3405625 C37.554,47.3405625 39.1441875,47.3405625 39.1441875,50.348375 L39.1386875,58.070375 L39.1545,58.0834375" id="Shape" fill-rule="nonzero"></path>
                                <path d="M50.11325,48.3608125 C50.11325,48.3608125 49.7688125,47.3900625 48.288625,47.3900625 C46.0480625,47.3900625 45.5021875,50.0383125 45.5021875,50.0383125 C45.315875,47.949 44.7555625,47.326125 43.2045625,47.326125 L41.0416875,47.328875 C41.0416875,47.328875 42.2984375,47.84725 42.2984375,50.01425 L42.29225,58.081375 C42.29225,60.76675 43.3668125,60.7921875 43.3668125,60.7921875 L46.9046875,60.7921875 C46.8139375,60.76675 45.538625,59.796 45.538625,58.056625 L45.544125,51.462125 C45.6300625,50.8578125 45.9408125,50.3999375 46.418625,50.089875 C47.5894375,49.346 49.1968125,49.528875 50.1139375,50.6309375 C50.11325,50.631625 50.11325,49.2188125 50.11325,48.3608125" id="Shape" fill-rule="nonzero"></path>
                                <path d="M66.6689375,48.851 C67.879625,48.851 68.783,49.377625 68.783,49.377625 L68.79125,47.3405625 L65.8075,47.3405625 L65.8075,44.26125 C65.8075,44.26125 65.03475,45.629375 63.419125,46.9363125 C62.4078125,47.771625 60.281375,48.797375 60.281375,48.797375 L62.547375,48.8393125 L62.5425625,58.1955 C62.5425625,60.7894375 63.630875,60.7894375 63.630875,60.7894375 C65.58475,60.7894375 67.16325,60.7963125 67.16325,60.7963125 C67.16325,60.7963125 65.8026875,59.8709375 65.8026875,58.1714375 L65.8075,48.846875 C66.72875,48.849625 66.0845625,48.851 66.6689375,48.851" id="Shape" fill-rule="nonzero"></path>
                                <path d="M75.2970625,52.056125 C75.889,50.963 76.35375,48.2013125 74.3325,48.3525625 C72.0163125,48.5258125 72.461125,54.7305 72.461125,54.7305 C73.2290625,53.88075 74.3936875,53.708875 75.2970625,52.056125 L75.2970625,52.056125 Z M77.4895,52.91825 C75.486125,54.993125 73.9138125,54.6679375 72.6928125,56.1996875 C72.6928125,56.1996875 72.8894375,58.2690625 74.4486875,59.0005625 C74.991125,59.250125 77.193875,59.9555 78.617,57.4674375 L78.6135625,59.8310625 C78.6135625,59.8310625 77.6964375,60.8114375 74.7855625,60.8114375 C71.3136875,60.8114375 68.910875,58.0683125 68.910875,54.3489375 C68.910875,50.6900625 70.8709375,47.2896875 74.53325,47.273875 C78.156375,47.2505 80.119875,50.16275 77.4895,52.91825 Z" id="Shape" fill-rule="nonzero"></path>
                                <path d="M37.4935,46.2488125 C38.41475,46.2488125 39.1634375,45.535875 39.1634375,44.6345625 C39.1634375,43.73325 38.41475,43.00175 37.4935,43.00175 C36.57225,43.00175 35.8620625,43.73325 35.8620625,44.6345625 C35.8620625,45.535875 36.57225,46.2488125 37.4935,46.2488125" id="Shape" fill-rule="nonzero"></path>
                                <path d="M85.3263125,57.13675 C85.353125,58.0903125 84.506125,59.3484375 82.69525,59.3484375 C80.91875,59.3484375 80.13775,57.440625 80.13775,57.440625 L80.1233125,59.84825 C80.1233125,59.84825 81.4391875,60.8004375 83.4961875,60.8004375 L83.494125,60.8004375 C85.9436875,60.8004375 88.358875,58.9620625 88.2853125,56.3921875 C88.259875,55.4805625 87.9484375,54.70575 87.46375,54.0381875 C86.63325,52.9491875 85.135875,52.1434375 83.9485625,51.4573125 C82.3370625,50.524375 82.5543125,48.519625 84.918625,48.7100625 C86.689625,48.852375 87.4396875,50.55875 87.4396875,50.55875 L87.4396875,48.316125 C87.4396875,48.316125 86.075,47.2395 84.0159375,47.2395 C81.877125,47.2395 79.9748125,48.6550625 80.02775,50.45425 C80.0745,52.0465 80.7235,53.084625 82.02975,54.0340625 C82.548125,54.4218125 83.1655,54.79375 83.879125,55.1931875 C84.9248125,55.76725 85.3084375,56.475375 85.3263125,57.13675" id="Shape" fill-rule="nonzero"></path>
                                <path d="M56.20725,50.3023125 C56.20725,51.6195625 55.0900625,52.20875 54.360625,52.5284375 C52.2369375,53.4565625 49.5199375,54.4795625 49.5199375,57.5650625 C49.5199375,59.6303125 51.016625,60.814875 53.119,60.814875 C54.7305,60.814875 55.5396875,59.9823125 55.9405,59.197875 C56.183875,60.7193125 56.9421875,60.78875 56.9421875,60.78875 C58.799125,60.78875 60.5006875,60.79975 60.5006875,60.79975 C60.5006875,60.79975 59.112625,59.8571875 59.112625,58.092375 L59.112625,50.5360625 C59.112625,48.72175 57.1058125,47.3171875 54.976625,47.3171875 C52.9285625,47.3171875 51.6360625,48.3058125 51.6360625,48.3058125 L51.6360625,50.6474375 C51.6360625,50.6474375 52.366875,48.789125 54.2183125,48.789125 C55.754875,48.789125 56.20725,49.542625 56.20725,50.3023125 L56.20725,50.3023125 Z M54.2795,59.263875 C53.1575,59.263875 52.3936875,58.6623125 52.3936875,57.3876875 C52.3936875,54.3558125 55.147125,53.7315625 55.8855,52.834375 L55.8806875,58.4925 C55.856625,58.5145 55.385,59.263875 54.2795,59.263875 Z" id="Shape" fill-rule="nonzero"></path>
                            </g>
                        </g>
                    </g>
                </g>
            </g>
        </g>
    </g>
</svg>