<?xml version="1.0" encoding="UTF-8"?>
<svg width="103px" height="28px" viewBox="0 0 103 28" version="1.1" xmlns="http://www.w3.org/2000/svg" xmlns:xlink="http://www.w3.org/1999/xlink">
    <!-- Generator: Sketch 45.2 (43514) - http://www.bohemiancoding.com/sketch -->
    <title>logo_google</title>
    <desc>Created with Sketch.</desc>
    <defs></defs>
    <g id="02c-Expertise-Page-Template" stroke="none" stroke-width="1" fill="none" fill-rule="evenodd">
        <g id="Community-Page-Template-v1" transform="translate(-995.000000, -6978.000000)" fill-rule="nonzero" fill="#000000">
            <g id="Client-Logos" transform="translate(0.000000, 6505.000000)">
                <g id="Group-7" transform="translate(120.000000, 171.000000)">
                    <g id="Group-3" transform="translate(0.000000, 88.000000)">
                        <g id="logo-tfl" transform="translate(872.000000, 173.000000)">
                            <path d="M17.9950219,68.3717804 C14.6956258,67.8156073 11.4863727,65.8048663 9.42402062,63.0016647 C8.63392381,61.9277455 7.69164296,60.0265311 7.38205465,58.8816475 C7.25342294,58.4059555 7.13138287,57.9590186 7.11085391,57.8884546 C7.08288336,57.7923078 6.63802987,57.7601563 5.3356878,57.7601563 L3.597845,57.7601563 L3.597845,54.937594 L3.597845,52.1150317 L5.3285523,52.1150317 L7.05925858,52.1150317 L7.16872456,51.6788175 C8.31786121,47.0996002 11.7313069,43.4057725 16.1586394,41.9504661 C18.865256,41.0607753 22.0945534,41.0829123 24.7784177,42.009555 C29.0018667,43.4677618 32.4694607,47.2178605 33.4813343,51.4214963 L33.6479291,52.1135835 L35.4080784,52.1143071 L37.1682276,52.1150317 L37.1682276,54.937594 L37.1682276,57.7601563 L35.382569,57.7601563 C33.7706355,57.7601563 33.5969103,57.7771163 33.5969103,57.9344777 C33.5969103,58.2639929 33.0702594,59.8450486 32.6707749,60.7148248 C32.0743016,62.0134918 31.2244363,63.2303734 30.0991611,64.3969938 C28.0069182,66.5661093 25.5574761,67.8796641 22.6864115,68.3722063 C21.5059972,68.5747113 19.1976304,68.5745019 17.9950219,68.3717804 Z M21.3550703,63.7069502 C24.4440598,63.3179518 27.2478847,61.2428061 28.4018507,58.4915407 L28.6870908,57.8114756 L20.4116456,57.7852083 C15.8601517,57.7707619 12.1147031,57.780566 12.0884284,57.8069964 C12.0621527,57.8334259 12.2085379,58.2106465 12.4137275,58.6452626 C13.7376985,61.449589 16.2814559,63.3039673 19.3598059,63.7088972 C20.2574127,63.8269686 20.4031459,63.826827 21.3550703,63.7069502 Z M28.6991037,52.0614584 C28.6991037,52.031994 28.5678078,51.7166132 28.4073353,51.3606131 C27.2887446,48.8790841 25.1568478,47.0649597 22.5258267,46.3557791 C21.363116,46.0423762 19.3848715,46.0412164 18.2402459,46.3532676 C15.6727392,47.0532281 13.6668925,48.6904148 12.501437,51.0373261 C12.3332381,51.3760336 12.1635791,51.7570795 12.1244181,51.8840948 L12.0532162,52.1150317 L20.37616,52.1150317 C24.9537796,52.1150317 28.6991037,52.0909239 28.6991037,52.0614584 Z M52.524892,65.5741131 C51.5435501,65.3152164 50.6666417,64.5374722 50.3227759,63.6210191 C50.0412684,62.8707625 50.0851956,61.721684 50.4204494,61.0659936 C50.7240848,60.4721429 51.3715912,59.8395523 51.948464,59.5731773 C52.6120699,59.2667528 53.8650023,59.2661626 54.5271153,59.5719621 C55.1544866,59.8617161 55.7813813,60.4451069 56.037708,60.9777254 C57.0582028,63.0982025 55.7622095,65.4537909 53.4892895,65.6097133 C53.1272334,65.6345508 52.6932541,65.618531 52.524892,65.5741131 Z M53.9346175,64.1109255 C54.878787,63.6217837 55.2285251,62.4921809 54.7184461,61.5792719 C54.2902819,60.8129699 53.2502735,60.4867771 52.492294,60.8810531 C51.6472173,61.3206328 51.3025321,62.519955 51.7824519,63.3509265 C52.1194699,63.9344651 52.5954663,64.2263899 53.2099339,64.2263899 C53.4859284,64.2263899 53.8120356,64.1744311 53.9346175,64.1109255 Z M73.4885817,65.5235389 C72.1399176,65.1576589 71.2386732,63.9669933 71.2248573,62.5328525 C71.217229,61.7410868 71.375723,61.1825223 71.759056,60.6502302 C72.919328,59.039087 75.2312437,58.857665 76.5964461,60.2706284 C77.6405533,61.3512633 77.7708687,63.0919303 76.899003,64.3119977 C76.1280739,65.3908159 74.7733396,65.8720812 73.4885817,65.5235389 Z M75.3061659,63.9534943 C76.6499015,62.9512086 76.0110439,60.7362383 74.3710287,60.7112991 C73.4072669,60.6966444 72.6537781,61.4671331 72.6537781,62.4672952 C72.6537781,63.1732765 72.987885,63.7268929 73.6466829,64.11254 C73.9610843,64.2965845 74.9766904,64.1992481 75.3061659,63.9534943 Z M87.5167579,65.4767624 C86.67989,65.1857439 86.2136087,64.7378936 85.8192618,63.8463693 C85.5270556,63.1857594 85.5083347,61.9372498 85.7788793,61.153221 C86.0442629,60.3841498 86.7538163,59.6779693 87.4787682,59.4614141 C88.3161748,59.2112663 88.7971741,59.2526195 89.7431201,59.6560898 C89.9077446,59.726306 89.921686,59.6312236 89.921686,58.4382887 L89.921686,57.1443245 L90.6359494,57.1443245 L91.3502129,57.1443245 L91.3502129,61.301189 L91.3502129,65.4580534 L90.6869683,65.4580534 C90.0844697,65.4580534 90.0237236,65.4386127 90.0237236,65.2457875 C90.0237236,65.0349965 90.0217727,65.0348877 89.7431201,65.2300879 C89.0858141,65.6905423 88.3620978,65.7707287 87.5167579,65.4767624 Z M89.5678317,64.1803082 L89.921686,64.0315869 L89.921686,62.4894066 L89.921686,60.9472253 L89.6206403,60.7906316 C89.1505845,60.5461248 88.1874074,60.5850823 87.7739927,60.8653238 C86.7090422,61.5872213 86.7625793,63.4636915 87.866498,64.1075857 C88.308176,64.3652076 89.0522233,64.3970112 89.5678317,64.1803082 Z M94.972549,65.5261819 C93.5764456,65.0600752 92.6767022,63.8695575 92.6767022,62.4883761 C92.6767022,61.5742898 92.9393246,60.9666938 93.6383345,60.2635658 C94.4129256,59.4844124 95.0723,59.2362907 96.1093983,59.333707 C97.7780657,59.4904475 98.9419457,60.7838749 98.9419457,62.4815332 C98.9419457,63.3839608 98.7211159,63.971647 98.138083,64.6207911 C97.4000234,65.4425489 95.9576806,65.8550802 94.972549,65.5261819 Z M96.7094061,63.9739122 C97.0342542,63.7824173 97.192986,63.5921725 97.3665775,63.1862716 C97.6169789,62.6007685 97.6045497,62.2280199 97.3140954,61.6123277 C96.89368,60.7211483 95.6419904,60.4220563 94.8273893,61.0181281 C94.4761553,61.2751383 94.1046965,62.0281969 94.1074698,62.4776216 C94.1117942,63.1784136 94.6060859,63.9174025 95.2276431,64.152333 C95.6175585,64.2997098 96.2951333,64.2181224 96.7094061,63.9739122 Z M46.1475397,62.9947264 L46.1475397,60.5313993 L45.6883703,60.5313993 L45.2292009,60.5313993 L45.2292009,59.9668868 L45.2292009,59.4023743 L45.6787951,59.4023743 L46.1283892,59.4023743 L46.2003044,58.8635215 C46.2878384,58.2076361 46.4920606,57.6875579 46.7854208,57.3734509 C47.1246531,57.0102282 47.981458,56.8012056 48.7789618,56.8871142 C49.7274353,56.9892848 49.718857,56.9825127 49.718857,57.6291504 C49.718857,58.1659402 49.7072002,58.1914366 49.4892723,58.1313078 C48.33029,57.811531 47.7620853,58.0838087 47.6090707,59.0322831 L47.5493654,59.4023743 L48.5830924,59.4023743 L49.6168193,59.4023743 L49.6168193,59.9668868 L49.6168193,60.5313993 L48.596443,60.5313993 L47.5760666,60.5313993 L47.5760666,62.9947264 L47.5760666,65.4580534 L46.8618031,65.4580534 L46.1475397,65.4580534 L46.1475397,62.9947264 Z M57.7798303,62.4302139 L57.7798303,59.4023743 L58.4430749,59.4023743 L59.1063196,59.4023743 L59.1063196,59.7151266 L59.1063196,60.0278798 L59.5040888,59.7063407 C59.8204361,59.4506196 60.029302,59.3731778 60.5244652,59.3280137 L61.1470723,59.2712248 L61.1470723,59.9430223 C61.1470723,60.5647414 61.1318289,60.6108097 60.9425828,60.56103 C60.657107,60.4859365 59.8405885,60.7083688 59.4961819,60.9550525 L59.2083572,61.1612094 L59.2083572,63.3096309 L59.2083572,65.4580534 L58.4940938,65.4580534 L57.7798303,65.4580534 L57.7798303,62.4302139 Z M65.3306154,61.301189 L65.3306154,57.1443245 L66.1469165,57.1443245 L66.9632176,57.1443245 L66.9632176,60.5827186 L66.9632176,64.0211126 L68.6978575,64.0211126 L70.4324973,64.0211126 L70.4324973,64.739583 L70.4324973,65.4580534 L67.8815564,65.4580534 L65.3306154,65.4580534 L65.3306154,61.301189 Z M78.9016212,62.4302139 L78.9016212,59.4023743 L79.513847,59.4023743 C80.0988624,59.4023743 80.1260728,59.4137785 80.1260728,59.6589709 C80.1260728,59.9743219 80.1328604,59.974401 80.5871625,59.6642866 C81.5490836,59.0076652 83.2469246,59.2877188 83.8485885,60.2022495 C84.2150444,60.7592632 84.3096159,61.4507612 84.3096159,63.573248 L84.3096159,65.4580534 L83.5953525,65.4580534 L82.881089,65.4580534 L82.881089,63.5559421 C82.881089,61.5096665 82.806622,61.1168007 82.3589757,60.8014097 C82.0059561,60.5526886 81.1852061,60.5862894 80.6872798,60.8698471 L80.2791293,61.1022794 L80.2515903,63.2801664 L80.2240514,65.4580534 L79.5628363,65.4580534 L78.9016212,65.4580534 L78.9016212,62.4302139 Z M100.329525,62.4302139 L100.329525,59.4023743 L100.99277,59.4023743 C101.627076,59.4023743 101.656014,59.413253 101.656014,59.6517452 L101.656014,59.901117 L102.112214,59.6446374 C103.096255,59.091408 104.481069,59.2576416 105.156915,60.0101213 C105.356532,60.2323821 105.568576,60.5907028 105.628125,60.8063907 C105.688338,61.0245204 105.736632,62.1436776 105.736948,63.3283019 L105.73752,65.4580534 L105.086367,65.4580534 L104.435224,65.4580534 L104.391776,63.4822598 C104.3444,61.3273526 104.265678,60.9927106 103.750633,60.7566592 C103.344829,60.5706709 102.689288,60.6094446 102.198416,60.8484715 L101.758052,61.0629042 L101.758052,63.2604793 L101.758052,65.4580534 L101.043788,65.4580534 L100.329525,65.4580534 L100.329525,62.4302139 Z M76.4527179,50.9860068 L76.4527179,46.777823 L77.1159625,46.777823 C77.7111817,46.777823 77.7792072,46.7988773 77.7792072,46.9831003 C77.7792072,47.2388388 77.7852407,47.2385155 78.2580535,46.9574406 C78.7995948,46.6355094 79.9922403,46.6327885 80.5916767,46.9521167 C81.1971701,47.274672 81.7339391,47.8797667 81.964539,48.4997307 C82.24206,49.2458407 82.2397957,50.4742126 81.9595086,51.2277577 C81.7144682,51.8865448 80.9850491,52.6297603 80.3754844,52.8417419 C79.7918302,53.0447129 78.6209993,53.0234667 78.2128671,52.802498 L77.8812448,52.6229533 L77.8812448,53.9085719 L77.8812448,55.1941906 L77.1669813,55.1941906 L76.4527179,55.1941906 L76.4527179,50.9860068 Z M80.0117274,51.5239081 C80.5181688,51.1435684 80.6788097,50.8127507 80.7209002,50.0634662 C80.7529237,49.4933886 80.7182136,49.2642274 80.5454771,48.905298 C80.1628421,48.1102243 79.1378669,47.7787847 78.2350991,48.1582068 L77.8812448,48.3069282 L77.8812448,49.8920863 L77.8812448,51.4772445 L78.2638859,51.6431178 C78.7497565,51.8537394 79.6547273,51.7920177 80.0117274,51.5239081 Z M58.1879808,52.9247673 C57.1529233,52.6134161 56.6822431,51.4300215 57.1811459,50.393357 C57.5603443,49.6054238 58.5873531,49.0670935 60.05454,48.8871998 C60.5992016,48.8204179 60.6406299,48.7972093 60.581992,48.5917237 C60.4830542,48.2450206 60.04903,47.907939 59.6873464,47.8969033 C58.9290567,47.8737665 58.5124167,47.9362621 57.9715968,48.1542676 L57.398081,48.3854529 L57.5343022,47.8125743 C57.6092234,47.4974922 57.6721592,47.1879649 57.6741581,47.1247375 C57.6806375,46.919801 58.6234275,46.7265037 59.6165078,46.7265037 C60.4624294,46.7265037 60.6431839,46.7591777 61.0359962,46.9831003 C61.9371253,47.4967881 62.0600867,47.9728127 62.0633591,50.9603471 L62.0654111,52.8335021 L61.4021664,52.8335021 C60.7981036,52.8335021 60.7389218,52.8144216 60.7389218,52.619672 C60.7389218,52.5020645 60.7044841,52.4235942 60.6623935,52.445293 C59.6318573,52.9765537 58.8583926,53.1264297 58.1879808,52.9247673 Z M60.1749853,51.5813858 L60.6368841,51.3556567 L60.6368841,50.5923681 L60.6368841,49.8290796 L60.1746975,49.8928027 C59.4614789,49.9911357 58.7105013,50.3563804 58.540126,50.6877913 C58.3333508,51.0900043 58.3540053,51.2649786 58.6425126,51.5551842 C58.9651597,51.8797326 59.5442345,51.8896332 60.1749853,51.5813858 Z M71.9810501,52.9353525 C71.7384005,52.8838012 71.2907104,52.7268831 70.9861831,52.5866449 L70.4324973,52.3316659 L70.4324973,51.650283 C70.4324973,51.2755226 70.466935,50.9842958 70.5090255,51.0031136 C70.5511161,51.0219303 70.9048234,51.1942739 71.2950419,51.3860983 C72.2321902,51.8467846 73.2509493,51.9485837 73.5828685,51.6147094 C74.0445674,51.1502912 73.7601171,50.8172791 72.5623422,50.4199547 C72.0924364,50.2640785 71.5415556,50.0525731 71.3381619,49.9499437 C69.8471655,49.1976067 70.0977424,47.2955887 71.7515674,46.811977 C72.4588811,46.6051438 73.4830431,46.6792294 74.1989381,46.9890133 L74.7180781,47.2136564 L74.7180781,47.869897 L74.7180781,48.5261376 L74.1843692,48.2540939 C73.1858074,47.7451038 71.8610242,47.8320069 71.8610242,48.4064999 C71.8610242,48.7094348 72.1574497,48.8877222 73.2355314,49.2332079 C74.8259982,49.7428949 75.2973325,50.2494966 75.206472,51.3516179 C75.1521727,52.0102438 74.8595104,52.438405 74.2661054,52.7273594 C73.748794,52.9792602 72.6559474,53.0787345 71.9810501,52.9353525 Z M85.5850864,52.9432854 C84.6142187,52.7070595 83.734189,51.9328276 83.3881906,51.0105025 C83.1013209,50.2457975 83.1424523,49.1028784 83.4806438,48.4414422 C83.7842792,47.8475916 84.4317856,47.2150009 85.0086584,46.948626 C85.7477038,46.607368 86.9332566,46.6364096 87.6987389,47.0145231 C89.0794775,47.6965465 89.7629226,49.3204579 89.3096673,50.8421998 C88.8621037,52.3448293 87.1334035,53.3200123 85.5850864,52.9432854 Z M87.1746614,51.3684588 C88.2895705,50.6126967 88.2696303,48.9532847 87.1379513,48.3134991 C86.4392139,47.9184738 85.6033869,48.0500565 85.0561855,48.6412263 C84.3461556,49.4083084 84.5282448,50.7612282 85.4231639,51.3678666 C85.898946,51.6903849 86.6993537,51.6906559 87.1746614,51.3684588 Z M97.0133018,52.9434578 C96.3377912,52.7794762 95.8225491,52.2844501 95.6402843,51.6243113 C95.5823198,51.4143722 95.5346376,50.4920584 95.5343254,49.5747256 L95.533756,47.9068479 L95.0235678,47.9068479 L94.5133797,47.9068479 L94.5133797,47.3423355 L94.5133797,46.777823 L95.0235678,46.777823 L95.533756,46.777823 L95.533756,46.0593526 L95.533756,45.3408822 L96.2480195,45.3408822 L96.9622829,45.3408822 L96.9622829,46.0593526 L96.9622829,46.777823 L98.0336781,46.777823 L99.1050733,46.777823 L99.1050733,47.3423355 L99.1050733,47.9068479 L98.0336781,47.9068479 L96.9622829,47.9068479 L96.9622829,49.6050502 C96.9622829,51.2712293 96.9670063,51.3080047 97.2127394,51.5551842 C97.5110934,51.8552964 98.181898,51.8976718 98.7636758,51.6531579 C98.9651491,51.568481 99.1473475,51.4991999 99.1685509,51.4991999 C99.1897646,51.4991999 99.207111,51.793042 99.207111,52.1521817 L99.207111,52.8051636 L98.6288841,52.9219715 C97.9930672,53.0504145 97.4819106,53.0572133 97.0133018,52.9434578 Z M47.7801419,49.395108 L47.7801419,45.956714 L46.5556902,45.956714 L45.3312386,45.956714 L45.3312386,45.2382436 L45.3312386,44.5197732 L48.5454241,44.5197732 L51.7596097,44.5197732 L51.7596097,45.2382436 L51.7596097,45.956714 L50.5351581,45.956714 L49.3107064,45.956714 L49.3107064,49.395108 L49.3107064,52.8335021 L48.5454241,52.8335021 L47.7801419,52.8335021 L47.7801419,49.395108 Z M52.9840614,49.8056626 L52.9840614,46.777823 L53.5962872,46.777823 C54.208513,46.777823 54.208513,46.777823 54.208513,47.0857389 C54.208513,47.4496985 54.3096986,47.4741029 54.5753393,47.1742113 C54.8493339,46.8648893 55.3486673,46.6751844 55.8888566,46.6751844 L56.3513034,46.6751844 L56.3506891,47.3166758 L56.3500748,47.9581672 L55.8033796,47.9658816 C55.4024278,47.97154 55.1305679,48.0479401 54.7836175,48.252465 L54.3105506,48.5313332 L54.3105506,50.6824171 L54.3105506,52.8335021 L53.647306,52.8335021 L52.9840614,52.8335021 L52.9840614,49.8056626 Z M63.6980132,49.8056626 L63.6980132,46.777823 L64.3612579,46.777823 C65.0036267,46.777823 65.0245025,46.7860361 65.0245025,47.0387458 L65.0245025,47.2996696 L65.5091813,47.0130861 C65.933612,46.7621275 66.0953304,46.7271288 66.8101612,46.7315278 C67.701061,46.7370118 68.0469502,46.8643679 68.5138785,47.3588315 C69.0538484,47.9306457 69.106008,48.2182207 69.106008,50.6234748 L69.106008,52.8335021 L68.4521529,52.8335021 L67.7982988,52.8335021 L67.7617275,50.8577085 C67.7217909,48.7000926 67.6446668,48.372971 67.119125,48.1321079 C66.7133152,47.9461195 66.0577775,47.9848933 65.566906,48.2239202 L65.1265402,48.4383528 L65.1265402,50.635928 L65.1265402,52.8335021 L64.4122767,52.8335021 L63.6980132,52.8335021 L63.6980132,49.8056626 Z M90.8400247,49.8056626 L90.8400247,46.777823 L91.5032694,46.777823 L92.166514,46.777823 L92.166514,47.0905752 L92.166514,47.4033285 L92.5642832,47.0817894 C92.8806305,46.8260683 93.0894965,46.7486264 93.5846596,46.7034623 L94.2072667,46.6466734 L94.2072667,47.318471 C94.2072667,47.9401901 94.1920233,47.9862584 94.0027772,47.9364787 C93.7173014,47.8613852 92.900783,48.0838174 92.5563763,48.3305012 L92.2685516,48.536658 L92.2685516,50.6850796 L92.2685516,52.8335021 L91.5542882,52.8335021 L90.8400247,52.8335021 L90.8400247,49.8056626 Z" id="path2409"></path>
                        </g>
                    </g>
                </g>
            </g>
        </g>
    </g>
</svg>