<svg id="Layer_1" data-name="Layer 1" xmlns="http://www.w3.org/2000/svg" viewBox="0 0 189.92 31.24">
  <defs>
  </defs>
  <title>logo-toyota</title>
  <g fill="#000000">
    <path class="cls-1" d="M27,114.41c-2.51-1.58-4.37-7-4.37-13.47,0-.24,0-0.47,0-0.7h0c-7-1.1-12-4.11-12.18-7.67h0l0,0h0a11.43,11.43,0,0,0-2.69,7.21c0,7.71,8.46,14,19.2,14.59h0Zm-22.48-14c0-8.63,10.74-15.62,24-15.62s24,7,24,15.62S41.78,116,28.54,116s-24-7-24-15.62h0ZM28.54,87c2.56,0,4.73,3.88,5.54,9.29h0c5-.77,8.46-2.56,8.46-4.64,0-2.79-6.27-5-14-5s-14,2.26-14,5c0,2.08,3.48,3.86,8.46,4.64h0C23.81,90.89,26,87,28.54,87h0Zm1.55,27.39c10.74-.56,19.2-6.88,19.2-14.59a11.44,11.44,0,0,0-2.69-7.21h0l0,0h0c-0.13,3.56-5.18,6.57-12.18,7.67h0c0,0.23,0,.47,0,0.7,0,6.46-1.85,11.89-4.37,13.47h0ZM28.54,96.7c1.15,0,2.26,0,3.32-.14h0c-0.53-3.47-1.82-5.92-3.32-5.92s-2.79,2.45-3.32,5.92h0c1.07,0.09,2.18.14,3.32,0.14h0Zm0,12.85c1.92,0,3.5-4,3.58-9h0c-1.16.11-2.36,0.16-3.59,0.16s-2.43-.06-3.59-0.16h0c0.08,5,1.65,9,3.58,9h0Z" transform="translate(-4.56 -84.76)"/>
    <path class="cls-1" d="M126.92,100.38a11.94,11.94,0,1,1,11.94,11.94,11.94,11.94,0,0,1-11.94-11.94h0Zm11.94,7.56c3.68,0,6.67-3.39,6.67-7.56s-3-7.56-6.67-7.56-6.67,3.39-6.67,7.56,3,7.56,6.67,7.56h0Z" transform="translate(-4.56 -84.76)"/>
    <polygon class="cls-1" points="159.79 8.66 159.79 27.02 154.76 27.02 154.76 8.66 154.78 8.66 147.74 8.66 147.74 4.5 166.81 4.5 166.81 8.66 159.81 8.66 159.79 8.66 159.79 8.66 159.79 8.66"/>
    <path class="cls-1" d="M177.45,106.71h0l-1.93,5.06h-5.88l9.29-22.51h6.26l9.29,22.51h-5.88l-1.93-5.06h-9.22Zm4.61-3.8h3.16l-3.14-8.24h0l-3.14,8.24h3.17Z" transform="translate(-4.56 -84.76)"/>
    <polygon class="cls-1" points="67.06 8.66 67.06 27.02 62.03 27.02 62.03 8.66 62.04 8.66 55.01 8.66 55.01 4.5 74.08 4.5 74.08 8.66 67.08 8.66 67.06 8.66 67.06 8.66 67.06 8.66"/>
    <path class="cls-1" d="M79.92,100.38a11.94,11.94,0,1,1,11.94,11.94,11.94,11.94,0,0,1-11.94-11.94h0Zm11.94,7.56c3.68,0,6.67-3.39,6.67-7.56s-3-7.56-6.67-7.56-6.67,3.39-6.67,7.56,3,7.56,6.67,7.56h0Z" transform="translate(-4.56 -84.76)"/>
    <polygon class="cls-1" points="110.8 27.02 113.35 27.02 113.35 18.58 113.35 18.47 122.13 4.5 116.25 4.5 110.8 13.97 105.35 4.5 99.47 4.5 108.25 18.47 108.25 18.58 108.25 27.02 110.8 27.02 110.8 27.02 110.8 27.02"/>
  </g>
</svg>
