<svg xmlns="http://www.w3.org/2000/svg" xmlns:xlink="http://www.w3.org/1999/xlink" version="1.1">
  <symbol id="menuopen" viewBox="0 0 24 32">
      <title>Open menu</title>
      <g overflow="visible" fill-rule="evenodd" clip-rule="evenodd">
        <path d="M22.6,0.2l-2.8,1c-1.3,0.5-2.4,1.6-2.7,2.9L13.7,17c-0.4,1.4,0.3,2.7,1.5,3.1l0.4,0.1L13.1,30c-0.2,0.6,0.4,1,1,0.7l1.4-0.8c0.3-0.1,0.5-0.4,0.5-0.7L23.5,1C23.7,0.4,23.2,0,22.6,0.2"/>
        <path d="M12.7,1.7c0.1-0.5-0.2-0.9-0.7-0.9s-1,0.4-1.1,0.9L9.4,7.3c-0.3,0.1-0.6,0.2-1,0.4L10,1.7c0.1-0.5-0.2-0.9-0.7-0.9c-0.5,0-1,0.4-1.1,0.9L6.4,8.4c-0.4,0.1-0.7,0.3-1,0.4l1.9-7c0.1-0.5-0.2-0.9-0.7-0.9s-1,0.4-1.1,0.9l-2.5,9.6c-0.4,1.4,0.3,2.6,1.4,3L0.2,30c-0.2,0.6,0.4,1,1,0.7l1.4-0.8c0.3-0.1,0.5-0.4,0.5-0.7l3.9-14.9c1.4-0.4,2.7-1.6,3-3l0.6-2.4h0L12.7,1.7"/>
      </g>
  </symbol>
  <symbol id="ustwologo" viewBox="0 0 83 32">
    <title>ustwo logo</title>
    <path d="M30.074 8.777c-.554-.368-1.372-.81-1.584-.89-.89-.342-1.538-.234-2.153.194-.355.23-.707.61-1.127 1.1l-9.577 10.63.984-3.72 1.757-4.98h-.014l.01-.02c.515-1.62.13-1.94-1.357-2.96L16.857 8c-.988-.673-1.468-.305-1.81.707l-.798 1.695-8.37 7.324 2.43-6.94c.24-.766.19-1.167-.53-1.67L6.11 7.97c-.62-.424-1.14-.35-1.833.04L2.23 9.19c-.634.357-.785.72-.265 1.08l1.998 1.368-3.317 9.748c-.243.77-.248 1.318.295 1.692l1.9 1.294v.002c.77.526 1.02.295 1.44-.11l7.95-7.43L11 20.057v.004c-.755 2.36-.626 2.61.973 3.71.204.14 1.1.79 1.317.85.776.22 1.263-.2 1.933-1.02l11.23-12.82-.072 10.01-1.69-.73c-.62-.27-1.36-.58-1.38.44v1.71c0 .76.41 1.66 1.25 2l1.13.48c.89.39 1.3.49 2.19 0 .06-.03 1.89-1.08 1.93-1.1.86-.48 1.06-.91 1.11-1.61l.02-.87.1-10.02c0-1.33-.33-1.87-.95-2.28zm49.733-.866c-.892 0-1.498.43-1.498.43l-1.55.93c-.64.36-.79.72-.27 1.08l2 1.37c.18.16.14 2.21-.46 4.09-.66 2.07-1.25 2.9-2.41 4.34-.96 1.19-2.72 2.46-3.95 1.82-1.2-.63-.86-2.91.51-6.18.56-1.35 1.41-2.72 2.08-4.06.45-1.36.39-1.837-.58-2.585L72.31 8.1c-.95-.626-2.24-.563-3.31.516l-8.96 9.47 1.51-4.93.408-1.034c.515-1.624-.04-1.94-1.527-2.96l-.15-.11c-.984-.67-1.47-.3-1.81.708l-8.43 7.95 2.188-6.712c.427-1.32-.66-2.036-1.903-2.89-1.242-.852-1.863-.307-2.89.9l-9.568 10.8L41.59 8.12c.377-1.186.134-1.606-.538-2.098l-1.447-.785H63.44c.544-.003.61-.327.326-.89l-.898-1.837c-.31-.616-.648-.93-1.293-.93H16.15c-.543.004-.608.336-.327.9l.9 1.838c.31.616.648.92 1.292.92h19.917l-4.71 14.807c-.752 2.36-.623 2.61.976 3.71 1.6 1.1 2.01 1.353 3.25-.174l10.845-12.63L44.84 21.3c-.33 1.12-.24 1.526.28 1.88l1.63 1.115c.69.47.99.57 1.87-.26l8.57-8.21-2.203 5.48c-.442 1.4-.253 1.58 1 2.44l.787.54c.75.49 1.25.61 1.983-.23l11.1-12.035c-.65 1.258-1.42 2.5-1.86 3.85-1.036 3.127-1.38 8.01 2.792 8.873.56.117 1.1.213 1.68.193 5.95-.21 9.18-6.26 9.86-11.06.43-3.05-.21-4.39-.9-5.2-.47-.552-.83-.746-1.62-.746z" fill-rule="evenodd"/>
  </symbol>
  <symbol id="HarveyShape1" viewBox="0 0 419 456">
    <path d="M419.4 100.602s0-.2.2-.2v-1.8s0-.2-.2-.2c0 0 0-.2-.198-.2 0 0 0-.2-.2-.2l-.2-.2-.2-.2-.2-.198-.198-.2h-.2s-.2 0-.2-.2H270l-57.8-96v-.2s0-.2-.2-.2c0 0 0-.2-.2-.2 0 0-.2 0-.2-.2l-.2-.2h-3.598s-.2 0-.2.2c0 0-.2 0-.2.2 0 0 0 .2-.198.2 0 0 0 .2-.2.2v.2l-57.6 96H1.802c-.2 0-.2 0-.2.2h-.2l-.2.2-.2.198-.2.2-.2.2-.2.2s0 .2-.198.2c0 0 0 .2-.2.2v1.798c0 .2 0 .2.2.4v.2l73.4 124.8-49.6 83.8v2.998s0 .2.2.2l.197.198s0 .2.2.2l.2.2.205.203h.2c.198 0 .398.195.398.195h99.2l82.4 141.6c0 .2.2.4.4.4l.2.2c.2.2.4.2.6.4.2 0 .4.2.6.2h2c.2 0 .4-.2.6-.2.2-.2.4-.2.604-.4l.198-.2c.202-.2.202-.2.4-.4l82-141.6h99.6c.2 0 .4-.2.4-.2h.2l.2-.2.2-.2s0-.198.2-.198l.2-.2s0-.2.2-.2V309.6L346.4 225.8l73.003-125.2c0 .2 0 0 0 0zm-102 161.8L215.202 102.2H411.6l-94.2 160.2zm-27 46.6c-.198.2-.398.398-.398.8l-80.2 138.2-103-176.8h205.6L290.4 309zM8 102.202h196.4L102.202 262.4l-94.2-160.2zM206.8 208l-96.2 52 96.2-150.6V208zm3 5.2l96 52h-192l96-52zm3-5.2v-98.6L309 260l-96.2-52zm0-195.6l50.4 83.8h-50.4V12.4zm-6 84h-50.4l50.4-84v84zM98 267.002l-63.4 35.8L77 231.2 98 267zm-60.4 40.8l63-35.6 20.602 35.6h-83.6zm281-35.6l63.4 35.8h-84l20.6-35.8zm66.4 30.6L321.6 267l21-35.8 42.4 71.6z"/>
  </symbol>
  <symbol id="HarveyShape2" viewBox="0 0 400 413">
    <path d="M400.1 217c0-.2 0-.2 0 0v-.6l-21-111.2v-.2c0-.2 0-.2-.2-.4v-.4s0-.2-.2-.2l-.2-.2-.2-.2h-.2l-86.6-77.2s-.2 0-.2-.2c-.2 0-.2-.2-.4-.2h-.4L204.5.2c-.2 0-.4 0-.6-.2h-1.2L94.5 33.2s-.2 0-.2.2h-.2s-.2 0-.2.2c0 0-.2 0-.2.2l-.2.2-.2.2-71.4 86.4-.2.2-.2.2v.2c0 .2 0 .2-.2.4L-.1 215.4v1.6l36.8 101.2c0 .2.2.2.2.4s.2.2.2.4c0 0 0 .2.2.2l74.4 74.2.2.2h.2c.2 0 .2.2.4.2h.4l89.2 19h1.2L305.5 385h.2s.2 0 .2-.2c0 0 .2 0 .2-.2 0 0 .2 0 .2-.2h.2l.2-.2.2-.2 73.6-78.4c.2-.2.2-.2.2-.4s.2-.4.2-.4v-.4l18-87.4v-.2c1.2.4 1.2.4 1.2.2zM228.7 395l-83.8-54.4 112.4-13.8 76.6 6.6L228.7 395zM162.1 28.4l85 66.2-118.2 17.6-73.8-12.8 107-71zm90.2 293l-111 13.6 53.4-110.2 124-1-66.4 97.6zM130.5 118l118.6-17.6-58 118.4-123.8-2.2 63.2-98.6zm67.2 100.8L255.9 100l96.6 20.6-30.2 97.2-124.6 1zM48.1 104.2l75.8 13.2-63.4 99-53.6-3 40.2-108.2 1-1zm16.4 118.4l123.8 2.2-53.6 110.4-85.6-22.6 15.4-90zM259.7 321l66.2-97.6 66.4-3.4-50.8 108-81.8-7zm68.8-103.4l30.4-97.2 15.2-9.6 19.6 103.6-65.2 3.2zm27.2-102.4l-97-20.6 31.6-61.2 81 72.2-15.6 9.6zM253.3 92l-85.6-67 36-19.4 81.6 24.6-32 61.8zm-92.4-70c-.2 0-.2.2 0 0l-.2.2L59.9 89l37.2-50.4 77.8-24-14 7.4zm-134 102l10.6-9.8-21.8 58.6L26.9 124zm31.6 98.4l-15.6 90.2-1.8.8-34.2-94 51.6 3zm-12.6 95.4l86.4 22.8-19.4 45.8-68.2-68 1.2-.6zm91.8 25.2l86 55.8-20.8 8.6-84.8-18 19.6-46.4zm95.4 56.4l99.2-58.4-28.8 39.2-70.4 19.2zm112.4-66l7.8-6-16.2 17.4 8.4-11.4zm30.8-30.6l-25.2 19 38-81-12.8 62z"/>
  </symbol>
  <symbol id="HarveyShape3" viewBox="0 0 324 378">
    <path d="M323.8 375.2c0-.2 0-.2 0 0l-3-228.4v-1.4s0-.2-.2-.2v-.2L233.8 18.6l-.2-.2-.2-.2-.2-.2h-.4l-.2-.2h-.4s-.2 0-.2-.2h-.6L3 0H1.4s-.2 0-.2.2c0 0-.2 0-.2.2C1 .4.8.4.8.6L.6.8.4 1v.2s0 .2-.2.2c0 0 0 .2-.2.2v1.2l3.6 202.6v1.4l88.6 150c.2.2.2.4.4.4l.2.2.4.4h.2s.2 0 .4.2h1l225.6 19.8h1.4s.2 0 .2-.2c.2 0 .2-.2.4-.2 0 0 .2 0 .2-.2 0 0 .2-.2.2-.4l.2-.2v-1c.8-.2.8-.4.8-.4zM170.4 263.6L12 204.2 142.4 74.4l28 189.2zM148.2 73l164.2 74.4-136.2 114.8-28-189.2zM315 153l2.8 216.2-139-101.4L315 153zM151.2 67.8l79-43.6 79.4 115.4-158.4-71.8zm-6.8-3L19 7.2l201.8 15.2-76.4 42.4zm-5 4.2L9.4 198.2 5.8 7.6 139.4 69zM169 269.2l-73.2 81-82.2-139.4L169 269.2zm5.4 2.8l136 99.2-209.2-18.4 73.2-80.8z"/>
  </symbol>
  <symbol id="HarveyShape4" viewBox="0 0 309 440">
    <path fill="FF0" d="M309.15 272.38L158.4 1.4s0-.2-.2-.2L158 1l-.2-.2-.2-.2-.2-.2-.2-.2s-.2 0-.2-.2h-3.4s-.2 0-.2.2c0 0-.2 0-.2.2l-.2.2-.2.2-.2.2-.2.2s0 .2-.2.2L.2 271s0 .2-.2.2v1.4l16.8 51.8c0 .2.2.4.2.6l52.2 87.4c.2.2.2.4.4.6l.2.2.2.2 26.4 19.8h.2c.2.2.4.2.6.2 0 0 .2 0 .2.2.2 0 .6.2.8.2h110.2s.6 0 .8-.2c0 0 .2 0 .2-.2.2 0 .4-.2.4-.2.4-.2.8-.4 1.2-.8l25.6-19 .2-.2.2-.2c.2-.2.2-.4.4-.6l52.8-87c.2-.2.2-.4.2-.6m-4-1L234.2 410l-16.4 12.2 38.6-79.2 41.8-54-11.8 34.8zM75 409.6L23.4 323 12 288.2l41.4 54.2 38 79.6L75 409.6zm178-72.2L158 278l.8-263.6 144 258.8-49.8 64.2zm-101-59.6l-95.4 59-49.4-64.6 145.4-258-.6 263.6zm-50.8 150.6l-41.4-86.6L155 283l94.8 59.4-42 86H101.2z"/>
  </symbol>
</svg>
