<svg xmlns="http://www.w3.org/2000/svg" xmlns:xlink="http://www.w3.org/1999/xlink" version="1.1">
  <symbol id="menuopen" viewBox="0 0 24 32">
      <title>Open menu</title>
      <g overflow="visible" fill-rule="evenodd" clip-rule="evenodd">
        <path d="M22.6,0.2l-2.8,1c-1.3,0.5-2.4,1.6-2.7,2.9L13.7,17c-0.4,1.4,0.3,2.7,1.5,3.1l0.4,0.1L13.1,30c-0.2,0.6,0.4,1,1,0.7l1.4-0.8c0.3-0.1,0.5-0.4,0.5-0.7L23.5,1C23.7,0.4,23.2,0,22.6,0.2"/>
        <path d="M12.7,1.7c0.1-0.5-0.2-0.9-0.7-0.9s-1,0.4-1.1,0.9L9.4,7.3c-0.3,0.1-0.6,0.2-1,0.4L10,1.7c0.1-0.5-0.2-0.9-0.7-0.9c-0.5,0-1,0.4-1.1,0.9L6.4,8.4c-0.4,0.1-0.7,0.3-1,0.4l1.9-7c0.1-0.5-0.2-0.9-0.7-0.9s-1,0.4-1.1,0.9l-2.5,9.6c-0.4,1.4,0.3,2.6,1.4,3L0.2,30c-0.2,0.6,0.4,1,1,0.7l1.4-0.8c0.3-0.1,0.5-0.4,0.5-0.7l3.9-14.9c1.4-0.4,2.7-1.6,3-3l0.6-2.4h0L12.7,1.7"/>
      </g>
  </symbol>
  <symbol id="ustwologo" viewBox="0 0 83 32">
    <title>ustwo logo</title>
    <path d="M30.074 8.777c-.554-.368-1.372-.81-1.584-.89-.89-.342-1.538-.234-2.153.194-.355.23-.707.61-1.127 1.1l-9.577 10.63.984-3.72 1.757-4.98h-.014l.01-.02c.515-1.62.13-1.94-1.357-2.96L16.857 8c-.988-.673-1.468-.305-1.81.707l-.798 1.695-8.37 7.324 2.43-6.94c.24-.766.19-1.167-.53-1.67L6.11 7.97c-.62-.424-1.14-.35-1.833.04L2.23 9.19c-.634.357-.785.72-.265 1.08l1.998 1.368-3.317 9.748c-.243.77-.248 1.318.295 1.692l1.9 1.294v.002c.77.526 1.02.295 1.44-.11l7.95-7.43L11 20.057v.004c-.755 2.36-.626 2.61.973 3.71.204.14 1.1.79 1.317.85.776.22 1.263-.2 1.933-1.02l11.23-12.82-.072 10.01-1.69-.73c-.62-.27-1.36-.58-1.38.44v1.71c0 .76.41 1.66 1.25 2l1.13.48c.89.39 1.3.49 2.19 0 .06-.03 1.89-1.08 1.93-1.1.86-.48 1.06-.91 1.11-1.61l.02-.87.1-10.02c0-1.33-.33-1.87-.95-2.28zm49.733-.866c-.892 0-1.498.43-1.498.43l-1.55.93c-.64.36-.79.72-.27 1.08l2 1.37c.18.16.14 2.21-.46 4.09-.66 2.07-1.25 2.9-2.41 4.34-.96 1.19-2.72 2.46-3.95 1.82-1.2-.63-.86-2.91.51-6.18.56-1.35 1.41-2.72 2.08-4.06.45-1.36.39-1.837-.58-2.585L72.31 8.1c-.95-.626-2.24-.563-3.31.516l-8.96 9.47 1.51-4.93.408-1.034c.515-1.624-.04-1.94-1.527-2.96l-.15-.11c-.984-.67-1.47-.3-1.81.708l-8.43 7.95 2.188-6.712c.427-1.32-.66-2.036-1.903-2.89-1.242-.852-1.863-.307-2.89.9l-9.568 10.8L41.59 8.12c.377-1.186.134-1.606-.538-2.098l-1.447-.785H63.44c.544-.003.61-.327.326-.89l-.898-1.837c-.31-.616-.648-.93-1.293-.93H16.15c-.543.004-.608.336-.327.9l.9 1.838c.31.616.648.92 1.292.92h19.917l-4.71 14.807c-.752 2.36-.623 2.61.976 3.71 1.6 1.1 2.01 1.353 3.25-.174l10.845-12.63L44.84 21.3c-.33 1.12-.24 1.526.28 1.88l1.63 1.115c.69.47.99.57 1.87-.26l8.57-8.21-2.203 5.48c-.442 1.4-.253 1.58 1 2.44l.787.54c.75.49 1.25.61 1.983-.23l11.1-12.035c-.65 1.258-1.42 2.5-1.86 3.85-1.036 3.127-1.38 8.01 2.792 8.873.56.117 1.1.213 1.68.193 5.95-.21 9.18-6.26 9.86-11.06.43-3.05-.21-4.39-.9-5.2-.47-.552-.83-.746-1.62-.746z" fill="#333" fill-rule="evenodd"/>
  </symbol>
</svg>
