<?xml version="1.0" encoding="utf-8"?>
<!-- Generator: Adobe Illustrator 17.1.0, SVG Export Plug-In . SVG Version: 6.00 Build 0)  -->
<!DOCTYPE svg PUBLIC "-//W3C//DTD SVG 1.1//EN" "http://www.w3.org/Graphics/SVG/1.1/DTD/svg11.dtd">
<svg version="1.1" id="Layer_1" xmlns="http://www.w3.org/2000/svg" xmlns:xlink="http://www.w3.org/1999/xlink" x="0px" y="0px"
	 viewBox="0 0 80 80" enable-background="new 0 0 80 80" xml:space="preserve">
<path fill-rule="evenodd" clip-rule="evenodd" fill="#009CF3" d="M67,14c4.4,0,8,3.6,8,8s-3.6,8-8,8s-8-3.6-8-8S62.6,14,67,14z"/>
<path fill-rule="evenodd" clip-rule="evenodd" fill="#009CF3" d="M67,68l11.4-34H55.2h0.5L67,68z"/>
<path fill-rule="evenodd" clip-rule="evenodd" fill="#96CC29" d="M15,14c4.4,0,8,3.6,8,8s-3.6,8-8,8s-8-3.6-8-8S10.6,14,15,14z"/>
<path fill-rule="evenodd" clip-rule="evenodd" fill="#96CC29" d="M15,34l11.4,34H3.2L15,34L15,34z"/>
<path fill-rule="evenodd" clip-rule="evenodd" fill="#FFBF00" d="M41,14c4.4,0,8,3.6,8,8s-3.6,8-8,8s-8-3.6-8-8S36.6,14,41,14z"/>
<path fill-rule="evenodd" clip-rule="evenodd" fill="#FFBF00" d="M49,34l0,34H33l0-34H49z"/>
</svg>
