<?xml version="1.0" encoding="UTF-8" standalone="no"?>
<svg width="21px" height="20px" viewBox="0 0 21 20" version="1.1" xmlns="http://www.w3.org/2000/svg" xmlns:xlink="http://www.w3.org/1999/xlink" xmlns:sketch="http://www.bohemiancoding.com/sketch/ns">
    <!-- Generator: Sketch 3.3.3 (12081) - http://www.bohemiancoding.com/sketch -->
    <title>path28 + path30</title>
    <desc>Created with Sketch.</desc>
    <defs></defs>
    <g id="Page-1" stroke="none" stroke-width="1" fill="none" fill-rule="evenodd" sketch:type="MSPage">
        <g id="path28-+-path30" sketch:type="MSLayerGroup" fill="#000000">
            <path d="M5.00963606,19.6636364 L5.00963606,6.51754487 L0.640118613,6.51754487 L0.640118613,19.6636364 L5.00963606,19.6636364 L5.00963606,19.6636364 L5.00963606,19.6636364 Z M2.82485789,4.72266808 C4.34859702,4.72266808 5.29699529,3.71319576 5.29699529,2.45164712 C5.26859781,1.161701 4.34859702,0.18023716 2.85376108,0.18023716 C1.35908075,0.18023716 0.381818182,1.161701 0.381818182,2.45164712 C0.381818182,3.71319576 1.33002195,4.72266808 2.7963826,4.72266808 L2.82478009,4.72266808 L2.82485789,4.72266808 L2.82485789,4.72266808 Z" id="path28" sketch:type="MSShapeGroup"></path>
            <path d="M7.63636364,19.6636364 L12.0058422,19.6636364 L12.0058422,12.3223024 C12.0058422,11.9294057 12.0342397,11.536898 12.1496191,11.2560351 C12.4654925,10.4710197 13.1844546,9.65799573 14.3915423,9.65799573 C15.9726599,9.65799573 16.6051459,10.8635274 16.6051459,12.6307847 L16.6051459,19.6636364 L20.9742743,19.6636364 L20.9742743,12.1258541 C20.9742743,8.0879648 18.8185938,6.20906257 15.9437956,6.20906257 C13.5865708,6.20906257 12.5517353,7.52662817 11.9767834,8.42406657 L12.0059589,8.42406657 L12.0059589,6.51754487 L7.63648034,6.51754487 C7.69381992,7.75108502 7.63648034,19.6636364 7.63648034,19.6636364 L7.63636364,19.6636364 L7.63636364,19.6636364 Z" id="path30" sketch:type="MSShapeGroup"></path>
        </g>
    </g>
</svg>