<?xml version="1.0" encoding="utf-8"?>
<!-- Generator: Adobe Illustrator 19.1.0, SVG Export Plug-In . SVG Version: 6.00 Build 0)  -->
<svg version="1.1" id="Layer_1" xmlns:sketch="http://www.bohemiancoding.com/sketch/ns"
	 xmlns="http://www.w3.org/2000/svg" xmlns:xlink="http://www.w3.org/1999/xlink" x="0px" y="0px" width="60px" height="60px"
	 viewBox="0 0 60 60" style="enable-background:new 0 0 60 60;" xml:space="preserve">
<style type="text/css">
	.st0{enable-background:new    ;}
	.st1{clip-path:url(#SVGID_2_);}
	.st2{clip-path:url(#SVGID_4_);}
	.st3{clip-path:url(#SVGID_6_);}
	.st4{clip-path:url(#SVGID_8_);fill:#F8F8F8;}
</style>
<g class="st0">
	<g>
		<defs>
			<rect id="SVGID_1_" x="135" y="-1842" width="19" height="16"/>
		</defs>
		<clipPath id="SVGID_2_">
			<use xlink:href="#SVGID_1_"  style="overflow:visible;"/>
		</clipPath>
		<g class="st1">
			<defs>
				<rect id="SVGID_3_" x="-1594" y="-2761" width="3300" height="5610"/>
			</defs>
			<clipPath id="SVGID_4_">
				<use xlink:href="#SVGID_3_"  style="overflow:visible;"/>
			</clipPath>
		</g>
	</g>
</g>
<g id="UI-Kit" sketch:type="MSPage">
	<g id="Blog-Post-Spec" transform="translate(-2004.000000, -1080.000000)" sketch:type="MSArtboardGroup">
		<g id="Group" transform="translate(1996.000000, 985.000000)" sketch:type="MSLayerGroup">
			<g id="Twitter-Button" transform="translate(0.000000, 86.000000)" sketch:type="MSShapeGroup">
				<path id="Twitter" d="M59.2,29c0,15.4-11,33.2-31,33.2c-6.1,0-11.9-2-16.8-5.3c0.9,0.1,1.7,0.2,2.6,0.2c5.1,0,9.8-1.9,13.5-5
					c-4.7-0.1-8.8-3.5-10.2-8.1c0.6,0.2,1.3,0.2,2,0.2c1,0,2-0.2,2.9-0.4c-5-1.1-8.7-5.8-8.7-11.4v-0.2c1.5,0.9,3.1,1.4,4.9,1.4
					c-2.9-2-4.8-5.7-4.8-9.7c0-2.1,0.5-4.1,1.5-5.9c5.3,7,13.5,11.7,22.5,12.2c-0.2-0.9-0.3-1.8-0.3-2.7c0-6.4,4.9-11.7,10.9-11.7
					c3.1,0,6,1.4,7.9,3.7c2.5-0.5,4.8-1.5,7-2.9c-0.8,2.8-2.6,5-4.8,6.4c2.2-0.3,4.3-0.9,6.2-1.9c-1.4,2.3-3.3,4.4-5.4,6.1
					C59.1,27.9,59.2,28.5,59.2,29z"/>
			</g>
		</g>
	</g>
</g>
</svg>
