<?xml version="1.0" encoding="UTF-8"?>
<svg width="208px" height="208px" viewBox="0 0 208 208" version="1.1" xmlns="http://www.w3.org/2000/svg" xmlns:xlink="http://www.w3.org/1999/xlink">
    <!-- Generator: Sketch 42 (36781) - http://www.bohemiancoding.com/sketch -->
    <title>Group 2</title>
    <desc>Created with Sketch.</desc>
    <defs></defs>
    <g id="04a-Events-Page" stroke="none" stroke-width="1" fill="none" fill-rule="evenodd">
        <g id="Events-Page" transform="translate(-967.000000, -129.000000)">
            <g id="Group-2" transform="translate(967.000000, 129.000000)">
                <circle id="Oval-6" fill="#FFFFFF" cx="104.5" cy="102.5" r="98.5"></circle>
                <path d="M88.7692806,89.2826157 L90.2061343,89.2834998 L88.7692806,89.2826157 C88.9577762,89.7338759 89.4112188,90.0782425 90.188694,90.6088014 C91.9060137,91.7808077 92.3455737,92.0501435 93.6790668,90.4243108 C93.6795068,90.4235781 105.320732,76.9767181 105.320732,76.9767181 L101.613879,87.9961857 C101.252052,89.1881211 101.350906,89.6221649 101.907359,89.9996453 C102.524826,90.4203543 102.917452,90.6867593 103.654159,91.1871846 C104.386465,91.6848257 104.711625,91.7894534 105.651318,90.904807 L114.853477,82.1569625 L112.488624,87.9882727 C112.012544,89.4779721 112.213917,89.6699361 113.559291,90.58389 C113.561491,90.5853554 114.40585,91.1589029 114.40585,91.1589029 C115.212224,91.67618 115.74741,91.8065983 116.53413,90.910815 C116.534863,90.9100823 128.451088,78.0955313 128.451088,78.0955313 C127.755008,79.4347368 126.930302,80.761047 126.452609,82.1952087 C125.343809,85.5240994 124.976262,90.7257382 129.454582,91.6442348 C130.061195,91.7686451 130.756248,91.8628686 131.264741,91.8489476 C137.657354,91.6243057 141.117953,85.1867702 141.848793,80.075838 C142.31314,76.8285687 141.626886,75.4056904 140.88886,74.5408265 C140.38594,73.951453 139.998447,73.745861 139.15218,73.745861 C138.196354,73.745861 137.543247,74.1973428 137.543247,74.1973428 L135.887821,75.1870565 C135.208167,75.566735 135.044927,75.9538869 135.603434,76.3341515 C135.603874,76.3344445 137.749607,77.7917592 137.749607,77.7917592 C137.95142,77.9542692 137.855207,80.2335123 137.12642,82.1972603 C136.370207,84.2348631 135.843234,85.1735819 134.651714,86.57023 C133.595274,87.8083247 131.901861,88.9970363 130.710341,88.3559351 C129.434928,87.6697003 129.483915,85.6567157 130.985341,82.1744004 C131.626861,80.6863129 132.696354,78.9768073 133.337874,77.8779232 C133.979541,76.7790391 133.645728,75.819512 132.599408,75.0229346 L131.124968,73.9171632 C130.104021,73.2510041 128.727115,73.3187044 127.570208,74.4666786 L117.95621,84.5594435 L119.578343,79.3107661 L120.01365,78.2068997 C120.568343,76.4736551 119.972583,76.1383775 118.37597,75.0525352 L118.208477,74.9383825 C117.14837,74.2202026 116.632397,74.6127764 116.266023,75.6888007 L107.218598,84.159836 L109.565558,77.0098355 C110.016704,75.6033693 108.851438,74.8410817 107.515598,73.9329893 C106.179758,73.0253365 105.514185,73.6059177 104.410519,74.8887063 C104.410519,74.889439 94.1287467,86.3952643 94.1287467,86.3952643 L98.1252662,73.9624433 C98.5291861,72.7010491 98.2691461,72.2527912 97.5462262,71.7296526 L95.9936131,70.8929239 C95.9936131,70.8929239 121.582396,70.8930704 121.582836,70.8929239 C122.165396,70.8899931 122.235356,70.5446044 121.932636,69.9459991 L120.967276,67.9885522 C120.634343,67.3332368 120.271636,66.9978127 119.57937,67.0000107 L70.8141769,67.0000107 C70.2304436,67.0029415 70.1604836,67.3581482 70.4632036,67.9567536 L71.4285634,69.9142005 C71.7614967,70.5695158 72.1242033,70.8949754 72.8164699,70.8929239 L94.1968001,70.8929239 L89.1429608,86.6594713 C88.9144474,87.3705494 88.7620581,87.8996511 88.6988549,88.3209051 C88.6770411,88.4662958 88.6658512,88.5988396 88.6658704,88.7214397 C88.6659035,88.9331719 88.6993687,89.115246 88.7692806,89.2826157 L86.5474075,89.2812485 C86.4096169,89.7141243 86.1123064,90.0480797 85.4608947,90.4159581 C85.421588,90.4386714 83.4486283,91.5536747 83.3886417,91.5859129 C82.4307618,92.1091981 81.9885619,91.9956315 81.0413887,91.5872318 L79.8265489,91.0818242 C78.9290957,90.710938 78.4920291,89.7575655 78.4920291,88.9502908 L78.4920291,87.1313218 C78.5191624,86.0541252 79.3096956,86.3747491 79.9798155,86.6703151 L81.7939352,87.4532645 L81.8715219,76.7976493 C81.8715219,76.7976493 69.8090703,90.4430676 69.808777,90.4438002 C69.0895238,91.3205336 68.5659238,91.7649816 67.732124,91.5341852 C67.5027373,91.4707345 66.5392841,90.7790779 66.3185508,90.6282909 C64.6016711,89.4568707 64.4649778,89.1931033 65.272671,86.6789608 L66.5956041,83.2457355 C66.5956041,83.2457355 58.0651787,91.1577306 58.0648854,91.1584633 C57.6056721,91.5876714 57.3419655,91.8344404 56.515939,91.2732021 L54.4869526,89.894578 C53.902926,89.497315 53.9076193,88.9133634 54.170006,88.0923142 L57.7313654,77.7133617 C57.7313654,77.7133617 55.5856324,76.2559005 55.5851924,76.2556074 C55.0266858,75.8753428 55.1899258,75.4881909 55.8697257,75.1085125 L58.0692854,73.8506352 C58.8150853,73.4357878 59.3754985,73.3576833 60.0403384,73.8082859 L61.8370048,75.0287961 C62.6074447,75.56483 62.6565781,75.9908143 62.3953648,76.8061485 L59.7893918,84.1967634 L68.7721372,76.3974556 L69.6304304,74.591968 C69.996657,73.5159438 70.5126302,73.1235165 71.5727367,73.8416964 L71.7403767,73.9557026 C73.3368431,75.0416914 73.7492698,75.3768225 73.1998565,77.1393746 L71.3154834,82.444762 L70.2584569,86.4147538 C70.2584569,86.4147538 80.5402287,75.0921003 80.5402287,75.0913676 C80.991082,74.5672032 81.3688953,74.1633461 81.7492019,73.9272743 C82.4106685,73.4696379 83.105575,73.3554853 84.0615482,73.7197773 C84.2882949,73.8062344 85.1675614,74.2755938 85.7620013,74.6686071 C86.4183345,75.102651 86.7823612,75.6773707 86.7798678,77.0936549 L86.6745612,87.7636308 C86.6745612,87.7636308 86.6644168,88.1416821 86.6593446,88.3307078 C86.6561057,88.4514134 86.6496278,88.6928246 86.6496278,88.6928246 C86.633305,88.91146 86.60364,89.1045917 86.5474075,89.2812485 Z M104,208 C46.562386,208 0,161.437614 0,104 C0,46.562386 46.562386,0 104,0 C161.437614,0 208,46.562386 208,104 L208,208 C208,208 120.662619,208 104,208 Z M30.575,126 L30.575,105.48 L36.695,105.75 L36.695,95.985 L13.745,95.985 L13.745,105.75 L19.865,105.48 L19.865,126 L30.575,126 Z M56.07,122.265 L57.06,126 L68.625,126 L57.915,95.985 L45.855,95.985 L35.46,126 L46.98,126 L47.79,122.265 L56.07,122.265 Z M91.51,126 L91.51,116.325 L82.33,116.325 L82.33,95.985 L71.44,95.985 L71.44,126 L91.51,126 Z M105.395,126 L105.395,116.325 C105.395,115.335 105.35,114.525 105.17,113.49 L105.395,113.49 C105.8,114.39 106.295,115.47 106.835,116.37 L112.325,126 L124.925,126 L114.575,110.7 L123.935,95.985 L112.145,95.985 L106.97,105.705 C106.43,106.695 106.025,107.37 105.395,109.08 L105.17,109.08 C105.35,107.73 105.395,106.65 105.395,105.3 L105.395,95.985 L94.955,95.985 L94.955,126 L105.395,126 Z M138.945,126 L138.945,95.985 L128.055,95.985 L128.055,126 L138.945,126 Z M165.295,126 L144.775,126 L144.775,95.985 L165.025,95.985 L165.025,104.22 L155.665,104.22 L155.665,107.01 L164.17,107.01 L164.17,114.885 L155.665,114.885 L155.665,117.765 L165.295,117.765 L165.295,126 Z M191.915,97.92 C188.27,95.715 185.165,95.31 182.78,95.31 C178.01,95.31 174.635,96.84 172.34,99.18 C170.36,101.16 169.415,103.545 169.415,106.335 C169.415,108.495 170.045,110.295 171.575,111.87 C173.24,113.58 175.085,114.12 176.795,114.435 L179.45,114.93 C180.575,115.155 181.16,115.29 181.52,115.65 C181.835,115.965 181.88,116.415 181.88,116.685 C181.88,117.135 181.79,117.63 181.295,118.035 C181.07,118.215 180.44,118.575 178.955,118.575 C176.3,118.575 174.005,117.225 172.88,116.37 L171.71,115.47 L168.425,123.93 L169.415,124.335 C171.98,125.37 175.04,126.675 179.63,126.675 C185.255,126.675 188.495,124.605 190.205,122.85 C192.23,120.735 192.905,118.35 192.905,115.785 C192.905,113.985 192.5,111.69 190.61,109.845 C189.71,108.945 188.135,107.865 185.48,107.28 L182.015,106.515 C180.35,106.155 180.26,105.57 180.26,104.94 C180.26,104.49 180.395,104.175 180.8,103.86 C181.385,103.41 182.285,103.32 182.87,103.32 C185.3,103.32 187.685,104.67 188.99,105.57 L191.915,97.92 Z M52.785,109.395 L54.18,115.155 L49.815,115.155 L51.3,109.395 C51.57,108.315 51.75,107.28 51.795,106.02 L52.2,106.02 C52.335,107.1 52.515,108.225 52.785,109.395 Z" id="Combined-Shape" fill="#1A1A1A"></path>
            </g>
        </g>
    </g>
</svg>