<?xml version="1.0" encoding="UTF-8"?>
<svg width="96px" height="72px" viewBox="0 0 96 72" version="1.1" xmlns="http://www.w3.org/2000/svg" xmlns:xlink="http://www.w3.org/1999/xlink">
    <!-- Generator: Sketch 44.1 (41455) - http://www.bohemiancoding.com/sketch -->
    <title>icon_auto</title>
    <desc>Created with Sketch.</desc>
    <defs></defs>
    <g id="02c-Expertise-Page-Template" stroke="none" stroke-width="1" fill="none" fill-rule="evenodd" stroke-linecap="round" stroke-linejoin="round">
        <g id="Community-Page-Template-v1" transform="translate(-142.000000, -1198.000000)" stroke="#000000">
            <g id="Process-Section" transform="translate(0.000000, 800.000000)">
                <g id="Group-5" transform="translate(120.000000, 360.000000)">
                    <g id="icon_connected-car" transform="translate(20.000000, 22.000000)">
                        <g id="Group-4" transform="translate(36.875000, 17.500000)">
                            <path d="M13.8630235,16.22009 C13.8630235,17.0770022 13.1665064,17.7718385 12.3075214,17.7718385 C11.4485363,17.7718385 10.7520192,17.0770022 10.7520192,16.22009 C10.7520192,15.3631778 11.4485363,14.6683415 12.3075214,14.6683415 C13.1665064,14.6683415 13.8630235,15.3631778 13.8630235,16.22009 Z" id="Stroke-1" stroke-width="2"></path>
                            <path d="M7.46562073,11.8084315 C10.0880353,9.19234524 14.3402682,9.19234524 16.9626827,11.8084315" id="Stroke-3" stroke-width="2"></path>
                            <path d="M3.98109829,8.33231771 C8.52822436,3.79616443 15.9001581,3.79616443 20.4472842,8.33231771" id="Stroke-5" stroke-width="2"></path>
                            <path d="M0.486298077,4.84595089 C6.96327457,-1.61539583 17.4647917,-1.61539583 23.9421635,4.84595089" id="Stroke-7" stroke-width="2"></path>
                        </g>
                        <g id="Group-3" transform="translate(71.875000, 31.250000)">
                            <polygon id="Stroke-9" stroke-width="2" points="19.9875748 13.9080499 12.0325748 13.9080499 5.12867521 18.4426257 5.05001068 13.9080499 0.499722222 13.9080499 0.499722222 0.497945685 19.9875748 0.497945685"></polygon>
                            <polyline id="Stroke-11" stroke-width="2" points="0.499761752 0.49790625 10.2434904 7.8678244 19.9876143 0.49790625"></polyline>
                        </g>
                        <g id="Group-5" transform="translate(4.375000, 28.750000)">
                            <path d="M7.58411325,11.453529 C7.58411325,13.0037001 5.96733974,14.2604784 3.97266026,14.2604784 C1.97798077,14.2604784 0.361207265,13.0037001 0.361207265,11.453529 C0.361207265,9.90335789 1.97798077,8.64657961 3.97266026,8.64657961 C5.96733974,8.64657961 7.58411325,9.90335789 7.58411325,11.453529 Z" id="Stroke-13" stroke-width="2"></path>
                            <path d="M19.262594,11.3699673 C19.262594,12.9201384 17.6458205,14.1769167 15.651141,14.1769167 C13.6564615,14.1769167 12.039688,12.9201384 12.039688,11.3699673 C12.039688,9.81979613 13.6564615,8.56301786 15.651141,8.56301786 C17.6458205,8.56301786 19.262594,9.81979613 19.262594,11.3699673 Z" id="Stroke-15" stroke-width="2"></path>
                            <polyline id="Stroke-17" stroke-width="2" points="7.5672735 11.0536629 7.5672735 0.0119962798 19.4262479 0.0119962798 19.4262479 11.0536629"></polyline>
                        </g>
                        <g id="Group-2" transform="translate(3.750000, 50.000000)">
                            <path d="M67.1559487,31.25 L26.8354359,31.25" id="Stroke-19" stroke-width="2"></path>
                            <path d="M84.5589936,27.8185067 C84.5589936,22.8848534 80.5494744,18.8850097 75.6038868,18.8850097 C70.6582991,18.8850097 66.6487799,22.8848534 66.6487799,27.8185067 C66.6487799,32.75216 70.6582991,36.7520037 75.6038868,36.7520037 C80.5494744,36.7520037 84.5589936,32.75216 84.5589936,27.8185067 Z" id="Stroke-21" stroke-width="2"></path>
                            <path d="M27.1602927,27.8185067 C27.1602927,22.8848534 23.1507735,18.8850097 18.2051859,18.8850097 C13.2595983,18.8850097 9.25007906,22.8848534 9.25007906,27.8185067 C9.25007906,32.75216 13.2595983,36.7520037 18.2051859,36.7520037 C23.1507735,36.7520037 27.1602927,32.75216 27.1602927,27.8185067 Z" id="Stroke-23" stroke-width="2"></path>
                            <path d="M9.58232799,30.8962924 L2.46852457,30.1288966 C2.46852457,30.1288966 0.0330865385,28.1705781 0.0330865385,24.6187106 C0.0330865385,24.6187106 -0.375257479,20.1949457 1.67476389,20.1949457 L2.33333226,12.3324903 C2.33333226,12.3324903 7.3117297,3.82685789 15.8845823,0.597959077 L49.7067724,0.166151042 C49.7067724,0.166151042 58.0159605,4.64275818 68.319828,11.692468 L85.6102126,13.3230856 C85.6102126,13.3230856 88.9686741,15.8926391 89.8320075,19.9827879 C89.8320075,19.9827879 92.2124989,19.3612999 92.3204156,25.0658981 C92.4283323,30.7704963 89.5220929,31.4404888 87.5799882,31.4404888 L83.7586314,31.4404888" id="Stroke-25" stroke-width="2"></path>
                            <path d="M67.5741357,11.7486228 L7.32975534,12.5664948" id="Stroke-27" stroke-width="2"></path>
                            <path d="M41.4020908,11.7486228 L40.1102532,0.288161458" id="Stroke-29" stroke-width="2"></path>
                            <path d="M23.0396549,1.22757068 L19.6242703,11.6047656" id="Stroke-31" stroke-width="2"></path>
                        </g>
                    </g>
                </g>
            </g>
        </g>
    </g>
</svg>