<?xml version="1.0" encoding="UTF-8"?>
<svg width="87px" height="83px" viewBox="0 0 87 83" version="1.1" xmlns="http://www.w3.org/2000/svg" xmlns:xlink="http://www.w3.org/1999/xlink">
    <!-- Generator: Sketch 44.1 (41455) - http://www.bohemiancoding.com/sketch -->
    <title>icon_auto</title>
    <desc>Created with Sketch.</desc>
    <defs></defs>
    <g id="02c-Expertise-Page-Template" stroke="none" stroke-width="1" fill="none" fill-rule="evenodd" stroke-linecap="round" stroke-linejoin="round">
        <g id="Community-Page-Template-v1" transform="translate(-448.000000, -1189.000000)" stroke="#000000">
            <g id="Process-Section" transform="translate(0.000000, 800.000000)">
                <g id="Group-4" transform="translate(425.000000, 360.000000)">
                    <g id="icon_contextual-hui" transform="translate(18.000000, 22.000000)">
                        <g id="Group-2" transform="translate(6.875000, 8.125000)">
                            <path d="M7.63188012,20.0645087 C6.76461578,18.7609249 6.25836578,17.1960694 6.25836578,15.5132948 C6.25836578,10.974104 9.92890881,7.29456647 14.4570338,7.29456647 C17.3492982,7.29456647 19.8957633,8.79699422 21.3504252,11.0726012" id="Stroke-1" stroke-width="2"></path>
                            <path d="M14.1568792,0 L14.1568792,3.04092486" id="Stroke-3" stroke-width="2"></path>
                            <path d="M2.8336168,11.0743121 L-9.22131147e-05,9.99454335" id="Stroke-5" stroke-width="2"></path>
                            <path d="M27.100835,6.5820578 L24.6244518,8.33280925" id="Stroke-7" stroke-width="2"></path>
                            <path d="M4.28823258,22.6867052 L1.8076998,24.4374566" id="Stroke-9" stroke-width="2"></path>
                            <path d="M16.691957,29.2195145 C14.9597336,26.1804393 10.8714652,26.0782428 10.8714652,26.0782428 C7.41255123,26.0782428 4.60742828,28.8935029 4.60742828,32.3644855 C4.60742828,35.8317688 7.41255123,38.6437919 10.8714652,38.6437919 L33.5821721,38.6437919 C38.3352971,38.6437919 42.1870389,34.7802081 42.1870389,30.0135029 C42.1870389,25.2463353 38.3352971,21.3832139 33.5821721,21.3832139 L32.6190061,21.3832139" id="Stroke-11" stroke-width="2"></path>
                            <path d="M12.0391598,26.2430058 C12.0391598,20.5440462 16.6465881,15.9225434 22.3310656,15.9225434 C26.5774795,15.9225434 30.2198975,18.4978035 31.7953586,22.1810405 C32.3260451,23.4277457 32.6243545,24.8011561 32.6225102,26.2448555" id="Stroke-13" stroke-width="2"></path>
                            <path d="M14.9654047,66.4622428 C14.9654047,59.6839769 20.4442469,54.1894104 27.202085,54.1894104 C33.9603842,54.1894104 39.4392264,59.6839769 39.4392264,66.4622428 C39.4392264,73.2405087 33.9603842,78.7350751 27.202085,78.7350751 C20.4442469,78.7350751 14.9654047,73.2405087 14.9654047,66.4622428 Z" id="Stroke-15" stroke-width="2"></path>
                            <path d="M4.07425205,66.5295723 C4.07425205,66.5295723 14.4288627,53.1543121 27.2022234,53.1543121 C39.975123,53.1543121 50.3297336,66.5295723 50.3297336,66.5295723 C50.3297336,66.5295723 39.975123,79.9048324 27.2022234,79.9048324 C14.4288627,79.9048324 4.07425205,66.5295723 4.07425205,66.5295723 Z" id="Stroke-17" stroke-width="2"></path>
                            <path d="M31.6028637,66.5099653 C31.6028637,68.947422 29.6327305,70.9233757 27.2024539,70.9233757 C24.7717162,70.9233757 22.801583,68.947422 22.801583,66.5099653 C22.801583,64.0725087 24.7717162,62.0965549 27.2024539,62.0965549 C29.6327305,62.0965549 31.6028637,64.0725087 31.6028637,66.5099653 Z" id="Stroke-19" stroke-width="2"></path>
                            <path d="M81.7645389,60.0992832 C81.8037295,65.4592832 72.2204816,78.2491098 72.2204816,78.2491098 C72.2204816,78.2491098 62.450502,65.6026358 62.4108504,60.2426358 C62.3716598,54.8821734 66.6720184,50.5048324 72.0162295,50.465526 C77.3609016,50.4257572 81.7253484,54.7392832 81.7645389,60.0992832 Z" id="Stroke-21" stroke-width="2"></path>
                            <path d="M74.6993545,59.9039538 C74.6993545,61.5710058 73.3521209,62.9222197 71.6899795,62.9222197 C70.0282992,62.9222197 68.6810656,61.5710058 68.6810656,59.9039538 C68.6810656,58.2369017 70.0282992,56.8856879 71.6899795,56.8856879 C73.3521209,56.8856879 74.6993545,58.2369017 74.6993545,59.9039538 Z" id="Stroke-23" stroke-width="2"></path>
                            <path d="M84.0190113,21.5736416 C84.0190113,30.143815 77.0919621,37.0917919 68.5465727,37.0917919 C60.0016445,37.0917919 53.0741342,30.143815 53.0741342,21.5736416 C53.0741342,13.0034682 60.0016445,6.05549133 68.5465727,6.05549133 C77.0919621,6.05549133 84.0190113,13.0034682 84.0190113,21.5736416 Z" id="Stroke-25" stroke-width="2"></path>
                            <polyline id="Stroke-27" stroke-width="2" points="68.5165574 12.6554913 68.5165574 22.2430058 74.0502664 27.972948"></polyline>
                            <path d="M64.8280328,78.9228723 L79.1210656,78.9228723" id="Stroke-29" stroke-width="2"></path>
                        </g>
                    </g>
                </g>
            </g>
        </g>
    </g>
</svg>