<?xml version="1.0" encoding="UTF-8"?>
<svg width="82px" height="90px" viewBox="0 0 82 90" version="1.1" xmlns="http://www.w3.org/2000/svg" xmlns:xlink="http://www.w3.org/1999/xlink">
    <!-- Generator: Sketch 44.1 (41455) - http://www.bohemiancoding.com/sketch -->
    <title>icon_auto</title>
    <desc>Created with Sketch.</desc>
    <defs></defs>
    <g id="02c-Expertise-Page-Template" stroke="none" stroke-width="1" fill="none" fill-rule="evenodd" stroke-linecap="round" stroke-linejoin="round">
        <g id="Community-Page-Template-v1" transform="translate(-1061.000000, -1186.000000)" stroke="#000000">
            <g id="Process-Section" transform="translate(0.000000, 800.000000)">
                <g id="Group" transform="translate(1034.000000, 360.000000)">
                    <g id="icon-humanising-automation" transform="translate(20.000000, 22.000000)">
                        <g id="Group-2" transform="translate(8.125000, 5.625000)">
                            <path d="M37.1289935,61.9106204 C37.1289935,61.9106204 27.7847442,56.193727 27.7847442,49.0953447 C27.7847442,46.2187546 29.8765343,43.886466 32.4570846,43.886466 C35.0372035,43.886466 37.1289935,45.4312454 37.1289935,47.7125597 C37.1289935,45.4312454 39.2207836,43.886466 41.8009025,43.886466 C44.3814528,43.886466 46.4732429,46.2187546 46.4732429,49.0953447 C46.4732429,56.193727 37.1289935,61.9106204 37.1289935,61.9106204 Z" id="Stroke-1" stroke-width="2"></path>
                            <path d="M48.4294484,82.466727 L54.4222609,82.466727 C58.3168125,82.466727 61.4741257,79.3050267 61.4741257,75.4050634 L61.4741257,68.7507619 L64.6892446,68.7507619 C66.1555251,68.7507619 67.3444246,67.5602105 67.3444246,66.0918925 L67.3444246,66.0918925 C67.3444246,65.6923061 67.2546963,65.2979035 67.0817106,64.9380597 L61.2040781,53.2528575 C61.2040781,42.1776186 52.2381542,33.1992362 41.1782833,33.1992362 C30.117981,33.1992362 21.1520571,42.1776186 21.1520571,53.2528575 C21.1520571,57.4063961 22.4125666,61.2648888 24.5720842,64.4654678 L29.6279266,73.3103667 L29.6279266,86.8984642" id="Stroke-5" stroke-width="2"></path>
                            <path d="M48.8192486,10.8009283 C48.1911508,16.0992279 43.3924144,19.8847151 38.1014667,19.2553125 C32.810519,18.6263419 29.0302846,13.8209375 29.6588139,8.52263787 C30.2869117,3.22433824 35.0852167,-0.560716912 40.3765958,0.0682536765 C45.6675435,0.697224265 49.4473465,5.50262868 48.8192486,10.8009283 Z" id="Stroke-7" stroke-width="2"></path>
                            <path d="M79.2394586,20.4596443 C78.6113607,25.7579439 73.8126243,29.5434311 68.5216766,28.9140285 C63.2307289,28.2850579 59.4504946,23.4796535 60.0790238,18.1813539 C60.7071216,12.8830542 65.5054266,9.09799908 70.7968057,9.72696967 C76.0877534,10.3559403 79.8675564,15.1613447 79.2394586,20.4596443 Z" id="Stroke-9" stroke-width="2"></path>
                            <path d="M54.3546196,36.5550708 L63.8105978,27.0859531" id="Stroke-13" stroke-width="2" stroke-dasharray="3,4"></path>
                            <path d="M0.0682452446,23.4835414 C0.696343071,28.781841 5.49507948,32.5673281 10.7860272,31.9379256 C16.0769749,31.308955 19.8572092,26.5035506 19.22868,21.2052509 C18.6005822,15.9069513 13.8022772,12.1218961 8.5108981,12.7508667 C3.21995041,13.3798373 -0.559852582,18.1852417 0.0682452446,23.4835414 Z" id="Stroke-15" stroke-width="2"></path>
                            <path d="M24.9530842,39.5789678 L15.497106,30.1098502" id="Stroke-17" stroke-width="2" stroke-dasharray="3,4"></path>
                        </g>
                    </g>
                </g>
            </g>
        </g>
    </g>
</svg>