<?xml version="1.0" encoding="UTF-8"?>
<svg width="82px" height="89px" viewBox="0 0 82 89" version="1.1" xmlns="http://www.w3.org/2000/svg" xmlns:xlink="http://www.w3.org/1999/xlink">
    <!-- Generator: Sketch 44.1 (41455) - http://www.bohemiancoding.com/sketch -->
    <title>icon_auto</title>
    <desc>Created with Sketch.</desc>
    <defs></defs>
    <g id="02c-Expertise-Page-Template" stroke="none" stroke-width="1" fill="none" fill-rule="evenodd" stroke-linecap="round" stroke-linejoin="round">
        <g id="Community-Page-Template-v1" transform="translate(-759.000000, -1186.000000)" stroke="#000000">
            <g id="Process-Section" transform="translate(0.000000, 800.000000)">
                <g id="Group-2" transform="translate(730.000000, 360.000000)">
                    <g id="icon-smart-mobility" transform="translate(20.000000, 22.000000)">
                        <g id="Group" transform="translate(10.625000, 5.625000)">
                            <path d="M52.1555594,71.7004875 L60.5396064,71.7004875 C60.5396064,71.7004875 63.6360912,71.344275 63.6360912,68.8262062 L63.6360912,66.497025 C63.6360912,66.497025 64.1203384,64.10445 60.8176243,64.10445 C57.5144751,64.10445 52.8342887,66.6432187 50.7384945,68.4061687 C50.7384945,68.4061687 46.9471823,71.7004875 52.1555594,71.7004875 Z" id="Stroke-1" stroke-width="2"></path>
                            <path d="M18.5757762,71.7004875 L10.1917293,71.7004875 C10.1917293,71.7004875 6.64014779,71.344275 6.64014779,68.8262062 L6.64014779,66.497025 C6.64014779,66.497025 6.3834489,64.10445 9.68616298,64.10445 C12.9888771,64.10445 17.7830552,66.6432187 19.8792845,68.4061687 C19.8792845,68.4061687 23.7841533,71.7004875 18.5757762,71.7004875 Z" id="Stroke-3" stroke-width="2"></path>
                            <path d="M33.988761,57.4610006 C33.988761,57.4610006 14.1041685,57.7646006 8.72436878,53.5797506 L14.4444033,39.7409381 C14.4444033,39.7409381 16.7599144,36.7691944 33.3757293,36.7691944 L37.1213577,36.7691944 C53.7371727,36.7691944 56.0526837,39.7409381 56.0526837,39.7409381 L61.7731533,53.6465944 C56.3933536,57.8314444 36.508326,57.4942069 36.508326,57.4942069 L33.988761,57.4610006 Z" id="Stroke-5" stroke-width="2"></path>
                            <path d="M8.72419475,53.5797938 L6.47612155,54.4315125 C3.14164641,54.4315125 1.80768232,55.4923875 0.473718232,57.6641625 C-0.859810773,59.8363688 1.04541713,60.9192375 1.04541713,60.9192375 L4.76102486,60.9192375 C3.7133453,62.2129875 3.15948481,64.985925 3.15948481,64.985925 L3.15948481,83.008725 C3.15948481,84.2550375 4.9328826,85.9317375 6.1902721,85.9317375 L15.146018,85.9317375 C16.4034075,85.9317375 17.5172196,84.443925 17.5172196,83.1976125 L17.5172196,79.8942375 L52.7589323,79.8942375 L52.7589323,83.1976125 C52.7589323,84.443925 54.0006588,85.9317375 55.2584834,85.9317375 L64.2142293,85.9317375 C65.4716188,85.9317375 67.1166671,84.2550375 67.1166671,83.008725 L67.1166671,64.985925 C67.1166671,64.985925 66.6911561,62.2129875 65.6430414,60.9192375 L69.3586492,60.9192375 C69.3586492,60.9192375 71.2643122,59.8644 69.9303481,57.6921938 C68.5968191,55.5204188 67.262855,54.46515 63.9283798,54.46515 L61.7729793,53.6466375" id="Stroke-7" stroke-width="2"></path>
                            <path d="M17.5171761,79.975 L8.81551865,79.975" id="Stroke-9" stroke-width="2"></path>
                            <path d="M52.7588888,79.975 L60.5903805,79.975" id="Stroke-11" stroke-width="2"></path>
                            <path d="M31.0047452,70.38 L38.8362369,70.38" id="Stroke-13" stroke-width="2"></path>
                            <path d="M51.9555953,29.7239494 C51.9555953,31.2764494 50.6860235,32.5348369 49.1197251,32.5348369 C47.5538619,32.5348369 46.2842901,31.2764494 46.2842901,29.7239494 C46.2842901,28.1714494 47.5538619,26.9130619 49.1197251,26.9130619 C50.6860235,26.9130619 51.9555953,28.1714494 51.9555953,29.7239494 Z" id="Stroke-15" stroke-width="2"></path>
                            <path d="M78.5737914,13.7745563 C78.5737914,21.3818063 72.3521064,27.5491125 64.6768094,27.5491125 C57.0019475,27.5491125 50.7802624,21.3818063 50.7802624,13.7745563 C50.7802624,6.16730625 57.0019475,0 64.6768094,0 C72.3521064,0 78.5737914,6.16730625 78.5737914,13.7745563 Z" id="Stroke-17" stroke-width="2"></path>
                            <path d="M60.5903805,19.9504875 L60.5903805,14.5245 C60.5903805,14.5245 59.4648211,9.1692375 64.9050974,9.1692375 L69.292038,9.1692375" id="Stroke-19" stroke-width="2"></path>
                            <polyline id="Stroke-21" stroke-width="2" points="65.9172742 4.29192938 70.9272535 9.25777313 65.9172742 14.2236169"></polyline>
                        </g>
                    </g>
                </g>
            </g>
        </g>
    </g>
</svg>