<svg width="220" height="220" viewBox="0 0 220 220" xmlns="http://www.w3.org/2000/svg" xmlns:xlink="http://www.w3.org/1999/xlink"><title>5793E9CE-FF4A-4B9F-A0B9-D626C2AE0354</title><defs><circle id="a" cx="110" cy="110" r="110"/></defs><g fill="none" fill-rule="evenodd"><mask id="b" fill="#fff"><use xlink:href="#a"/></mask><use fill="#1A1A1A" xlink:href="#a"/><g mask="url(#b)"><path fill="#D8D8D8" opacity=".1" d="M117 144h55v76h-55z"/><g opacity=".2" fill="#FFBF00"><path d="M125 152h7v11h-7zM140 152h7v11h-7zM155 152h7v11h-7zM155 170h7v11h-7zM140 188h7v11h-7zM140 206h7v11h-7zM155 206h7v11h-7z"/></g><path fill="#D8D8D8" opacity=".1" d="M58 67h51v153H58z"/><g opacity=".2" fill="#FFBF00"><path d="M95 78h7v11h-7zM65 96h7v11h-7zM80 96h7v11h-7zM80 114h7v11h-7zM95 114h7v11h-7zM65 132h7v11h-7zM80 132h7v11h-7z"/></g><g opacity=".2" fill="#FFBF00"><path d="M65 151h7v11h-7zM80 151h7v11h-7zM95 151h7v11h-7zM65 169h7v11h-7zM80 169h7v11h-7zM95 169h7v11h-7zM65 187h7v11h-7zM80 187h7v11h-7zM95 187h7v11h-7zM65 205h7v11h-7zM80 205h7v11h-7zM95 205h7v11h-7z"/></g><path fill="#D8D8D8" opacity=".1" d="M0 125h51v95H0z"/><g opacity=".2" fill="#FFBF00"><path d="M6 133h7v11H6zM21 133h7v11h-7zM6 151h7v11H6zM36 151h7v11h-7zM6 169h7v11H6zM36 169h7v11h-7zM6 187h7v11H6zM21 187h7v11h-7z"/></g><path fill="#D8D8D8" opacity=".1" d="M179 102h51v118h-51z"/><g opacity=".2" fill="#FFBF00"><path d="M187 111h7v11h-7zM202 111h7v11h-7zM202 129h7v11h-7zM217 129h7v11h-7zM187 147h7v11h-7zM187 165h7v11h-7zM217 165h7v11h-7z"/></g></g><g stroke="#FFF" mask="url(#b)" stroke-linecap="round" stroke-linejoin="round"><g stroke-width="3"><path d="M162.867 112.313L56.13 128.811l15.324-23.878 2.118-22.825zM161.21 112.527l-89.58-6.264M161.56 112.602L73.87 134.717l.08-6.727"/></g><path d="M69.255 108.085H-4.432" stroke-width="2" stroke-dasharray="3,5" opacity=".5"/></g><path d="M55.5 92h-7.022" stroke="#FFF" stroke-width="2" stroke-linecap="round" stroke-linejoin="round" opacity=".2" mask="url(#b)"/><path d="M55.5 118h-17" stroke="#FFF" stroke-width="2" stroke-linecap="round" stroke-linejoin="round" opacity=".3" mask="url(#b)"/><path d="M37.5 101h-17" stroke="#FFF" stroke-width="2" stroke-linecap="round" stroke-linejoin="round" opacity=".4" mask="url(#b)"/></g></svg>