<?xml version="1.0" standalone="no"?>
<!DOCTYPE svg PUBLIC "-//W3C//DTD SVG 1.1//EN" "http://www.w3.org/Graphics/SVG/1.1/DTD/svg11.dtd" >
<svg>
<metadata>
Created by FontForge 20090914 at Fri Feb 24 04:58:15 2012
 By root
2008 Vic Fieger
</metadata>
<defs>
<font id="EdoSZ" horiz-adv-x="1200" >
  <font-face 
    font-family="Edo SZ"
    font-weight="400"
    font-stretch="normal"
    units-per-em="2048"
    panose-1="2 0 0 0 0 0 0 0 0 0"
    ascent="1638"
    descent="-410"
    x-height="1311"
    cap-height="1326"
    bbox="-815 -408 2056 1857"
    underline-thickness="150"
    underline-position="-142"
    unicode-range="U+0020-U+F002"
  />
<missing-glyph horiz-adv-x="1536" 
d="M256 0v1280h1024v-1280h-1024zM288 32h960v1216h-960v-1216z" />
    <glyph glyph-name=".notdef" horiz-adv-x="1536" 
d="M256 0v1280h1024v-1280h-1024zM288 32h960v1216h-960v-1216z" />
    <glyph glyph-name=".null" horiz-adv-x="0" 
 />
    <glyph glyph-name="nonmarkingreturn" horiz-adv-x="569" 
 />
    <glyph glyph-name="space" unicode=" " horiz-adv-x="569" 
 />
    <glyph glyph-name="space" unicode="&#xa0;" horiz-adv-x="569" 
 />
    <glyph glyph-name="exclam" unicode="!" horiz-adv-x="552" 
d="M249 1495l223 -81v-20q-92 -388 -92 -629v-21q0 -121 73 -344l-18 -61q-46 0 -55 80h-19v-40h-75l-37 102l-18 -21h-19q-130 103 -130 345v40l37 407h19l18 -122h-37v-41l37 -41h19l37 244l-19 -20h-18v60l37 41v-61h19v82l-38 39zM138 1332h18l19 -80h-37v80zM138 1028
v-81h18v81h-18zM101 968v-102l18 -101h19v61l-19 142h-18zM138 684q55 -183 93 -183zM320 246v-17l-17 -17v-17l17 17h34l51 -102l17 -51l-51 -51h34l34 -34v-34l-255 -51l-17 17v34q68 0 68 34v17h-102v102l17 17v17h-17l-51 -17v17q51 119 238 119z" />
    <glyph glyph-name="quotedbl" unicode="&#x22;" horiz-adv-x="577" 
d="M64 1080l39 246v81l-27 40l41 62l163 -81v-21q-47 -270 -61 -470l-2 1q3 -22 8 -45l-10 -61q-24 0 -29 81h-10v-40h-40l-19 101l-10 -20h-10q-35 53 -52 143zM311 1300l43 11v81l-27 32l41 74l163 -32v-20q-84 -344 -61 -489h-2q3 -21 8 -42l-10 -65q-24 -7 -29 72
l-10 -3v-40l-40 -11l-28 33l-10 -24l-10 -3q-35 43 -43 190z" />
    <glyph glyph-name="numbersign" unicode="#" horiz-adv-x="1139" 
 />
    <glyph glyph-name="dollar" unicode="$" horiz-adv-x="1139" 
 />
    <glyph glyph-name="percent" unicode="%" horiz-adv-x="1103" 
d="M508 1186q22 -25 22 -45h-2l2 -2v-2l-2 -7l2 -7l-49 -79q-15 -31 -79 -75q-47 -31 -67 -31h-7l-18 9l-72 20q-49 0 -108 64q-57 44 -57 70l-3 24v20q0 41 55 110q96 75 151 89l46 18l23 -5l49 7q-8 4 5 -27l5 -16q0 -10 -7 -12l-29 2l21 -14v-2l5 -4l-31 10q10 -1 10 -4
l7 2q30 0 66 -13l-73 -61q-108 -37 -123 -56q-116 -9 -76 -92l35 -16l74 14h10l17 -2q62 36 79 68q21 24 45 68v2l49 29q14 -28 25 -54zM393 553l-151 -217l18 -14l105 155zM260 531q-125 -160 -87 -189zM520 886l-8 9l-61 -113l3 -40zM598 984l-36 -104l166 241l45 146
l67 14l-45 -63l19 -15l60 85l-10 70l101 22l96 -170l-14 -20q-379 -425 -554 -675l-16 -21q-88 -126 -328 -495l-62 -50q-22 17 -22 46q0 32 26 79l-19 14l4 26l76 130l24 63l-95 -141l-19 15q49 181 49 232q46 94 181 286l29 41l334 394l19 -14l-71 -140zM808 -46
q-10 -2 -19 -2q-28 0 -44 24l-10 17q-3 11 3 15l27 5l27 20l-1 2l-6 4l-19 -13q-9 -1 -10 2l-5 -4q-39 -10 -45 14l-6 5q-1 4 5 6l2 2l-1 5q-32 38 -56 76q-27 24 -33 46l2 1l-3 2v11l-5 8l20 102q5 39 48 105q33 47 51 52l6 2l20 -7l49 31q44 12 117 -47q86 -74 94 -104
l10 -27l6 -23q12 -47 -16 -140q-63 -109 -108 -139l-36 -31h-23zM919 359l-8 3l-78 -44l-9 -2l-16 -2q-45 -56 -50 -97q-12 -32 -20 -89l3 -12q14 -23 18 -22q123 94 132 124q38 69 28 141z" />
    <glyph glyph-name="ampersand" unicode="&#x26;" horiz-adv-x="1480" 
d="M746 1338l243 6q84 -47 83 -135l-1 -27q-2 -132 -298 -419q145 -238 249 -337h12q135 131 236 280q24 1 23 -40l-13 -42h13l73 57l12 -13h12l49 15l12 -14v-41q-81 -165 -297 -322l-1 -14l167 -202l-1 -27q-118 -98 -269 -102q1 24 -143 133h-12l95 -107v-14l-25 -28
l-119 121l-172 -73l-97 11l-97 -15v-14q73 2 72 -25l-122 -72h-25q-296 -7 -372 251l1 55q11 154 447 545q-47 99 -81 286l27 110l-12 41q211 170 331 172zM1012 1249l-1 -14l11 -68l-12 -42l24 28l1 28l-11 68h-12zM668 1049l22 -123q96 70 125 195l-22 109
q-123 -80 -125 -181zM937 1165q0 -46 -211 -293v-14h12q186 189 211 266l1 41h-13zM631 993l-1 -41l11 -55l12 1l1 13l-11 82h-12zM563 566q109 -246 236 -364h13v14q1 42 -237 351zM301 190q61 -136 229 -132l122 58l36 -13l147 58l1 28l-12 -1l-37 -28h-13
q-126 143 -236 365l-12 -1q-173 -122 -225 -334zM253 230l-1 -69q17 -54 36 -54l-22 123h-13zM1164 210v-14l71 -80l1 13z" />
    <glyph glyph-name="quotesingle" unicode="'" horiz-adv-x="472" 
d="M80 1266h19l18 -122h-37v-40l-14 9zM99 1346h18l19 -80h-37v80zM99 1042v-81h18v81h-18zM138 1080l35 225l-19 -19h-18v60l37 41v-61h19v81l-38 40l57 62l222 -81v-21q-64 -270 -84 -470l-2 1q5 -22 11 -45l-14 -61q-33 0 -40 81h-14v-40h-53l-26 101l-14 -20h-14
q-48 53 -71 143zM179 1043l-17 10q20 -59 35 -59z" />
    <glyph glyph-name="parenleft" unicode="(" horiz-adv-x="1002" 
d="M915 1460l-76 -97l-90 -94l-66 -104q-162 -448 -99 -952q91 -352 133 -401q68 -14 77 -92l-34 -67h-6q-29 0 -62 40q-226 320 -203 384l-41 257l26 -350l-14 9q-58 181 -58 442q0 46 2 94q7 200 45 442q40 175 182 363q107 203 165 203q8 0 16 -4l-75 -111l-15 -43l15 -9
q136 195 191 195h5l16 -9l-69 -89l-6 -22z" />
    <glyph glyph-name="parenright" unicode=")" horiz-adv-x="999" 
d="M565 413l-125 -391l-8 -36l32 -7l132 274l1 152zM290 1411l-1 163q52 -162 108 -142l13 32l96 -283l-1 -107l28 -68q38 -460 -193 -1124q-50 -17 -42 -66l-21 18l-16 -6l-92 -85l24 -44l4 -25l-58 -10l-39 82q454 943 209 1518l-124 277l50 28z" />
    <glyph glyph-name="asterisk" unicode="*" horiz-adv-x="797" 
 />
    <glyph glyph-name="plus" unicode="+" horiz-adv-x="1199" 
d="M261 583v13h-53v-13h53zM666 732v-2l9 1l212 27l13 -13h14l79 13l40 -27l-13 -68l13 -13q0 -68 -159 -68l-212 -8q-55 -212 -109 -396l-12 6q-24 11 -7 48l-13 5q-23 12 -80 -81l-43 35q87 274 109 377h-15l-111 -383l-36 17l5 12l18 7l22 49l-12 5l-17 -6l39 86l18 6
l-25 12l6 12l24 -11l11 24l-24 12l11 25l18 6l-25 11l6 13l51 80l-24 12l18 6l1 4l-308 -12l-40 14v27h40l-27 40q29 68 212 68l93 13l44 3l41 255l-40 176h13q30 0 53 -135l-13 -135v-14h13v27q40 0 40 27v14l-27 216v14h27l53 -41l13 14h13q53 -117 53 -203l-13 13h-13
l26 -94l-39 -14v-41l12 2l-11 -46q-15 -7 -15 -23z" />
    <glyph glyph-name="comma" unicode="," horiz-adv-x="703" 
d="M385 375h45q46 -20 46 -101v-5q0 -44 -14 -106l5 -41q-83 -285 -128 -285q0 -47 -41 -69h-18q-51 10 -51 46q7 111 55 111l5 4v5l-28 41l9 55l-50 -18q-77 12 -77 23l-5 14q0 124 55 124l4 4v5l-32 41q8 124 55 124zM316 205h5l45 9v14h-4q-23 0 -46 -23z" />
    <glyph glyph-name="hyphen" unicode="-" horiz-adv-x="999" 
d="M554 815l29 -4l61 10l3 16l-29 5l-61 -10zM568 640l29 -3l-5 53l-29 3zM207 896v11l56 14l41 -22l89 6l12 -19l2 17l12 -19l176 -5l87 -11l-18 -15l-3 -17l226 24l-6 -34q-44 6 -50 -28l15 -2l46 11l-3 -17l-17 -15l-3 -17q38 -5 38 -32q0 -3 -1 -8l-260 -53l-3 -17
l57 -7l-2 -17l-179 -12l38 47l-15 2q-132 3 -156 -50l-3 -17l-58 8l-11 19l-4 -17l12 -19l-58 8l4 17l17 14l2 17l-17 -15l-55 7l-1 12l-114 39l6 24h90l5 24q-42 11 -32 56l-112 31l5 23q11 49 145 54z" />
    <glyph glyph-name="hyphen" unicode="&#xad;" horiz-adv-x="999" 
d="M554 815l29 -4l61 10l3 16l-29 5l-61 -10zM568 640l29 -3l-5 53l-29 3zM207 896v11l56 14l41 -22l89 6l12 -19l2 17l12 -19l176 -5l87 -11l-18 -15l-3 -17l226 24l-6 -34q-44 6 -50 -28l15 -2l46 11l-3 -17l-17 -15l-3 -17q38 -5 38 -32q0 -3 -1 -8l-260 -53l-3 -17
l57 -7l-2 -17l-179 -12l38 47l-15 2q-132 3 -156 -50l-3 -17l-58 8l-11 19l-4 -17l12 -19l-58 8l4 17l17 14l2 17l-17 -15l-55 7l-1 12l-114 39l6 24h90l5 24q-42 11 -32 56l-112 31l5 23q11 49 145 54z" />
    <glyph glyph-name="period" unicode="." horiz-adv-x="627" 
d="M385 368l66 -65l-2 -19l37 -36l-1 -19h-39l-1 -19h39l-2 -17q-112 -29 -114 -65h39q-10 -148 -262 -148l-58 19v80q62 -25 78 2l-89 47l60 119l-50 48q5 76 214 76q40 0 85 -3z" />
    <glyph glyph-name="slash" unicode="/" horiz-adv-x="1002" 
d="M704 893l-35 -122l17 -5l35 122zM647 758l-56 -134l-10 -35l17 -5l56 135l10 34zM559 577l-20 -70l17 -5l20 70zM517 495l-42 -82l-5 -17l17 -5l37 64l10 35zM434 331l-20 -69l17 -5l20 69zM348 428l-50 -98l-5 -17l17 -5l44 80l11 34zM274 271l-22 -69l17 -6l22 69z
M287 86l-44 -80l-17 -52l17 -5l55 115l6 17zM1026 1392q-425 -903 -866 -1650l-17 5l-11 24l22 12l66 154l-17 7l-148 -213l-7 75q-34 11 -65 -50l-17 5l43 95l-16 7q-23 7 -23 33q0 13 5 30q48 75 111 189q187 286 323 579l22 41l22 40l109 223l55 118l38 105l88 147
l-11 22l39 121l11 -22l17 -6l22 68l-12 24l7 17l50 -17l-429 -909q33 -11 440 885h11q-2 -18 -5 -37l18 -72h18l17 18h2q-3 -58 16 -68v-41l36 22l15 54q8 2 18 -1l2 -1q0 -18 1 -33z" />
    <glyph glyph-name="zero" unicode="0" horiz-adv-x="1032" 
d="M698 1323q113 -45 187 -153l-17 -17q27 -119 85 -119l17 17l51 -204l-17 -68l17 -51q-32 -304 -357 -680q-51 0 -51 -34l-17 17h-17l-102 -34l-102 17h-17v-17l136 -34v-17h-119l-153 119v-17l34 -85h-17q-52 15 -119 204h-17v-34l34 -102q-64 0 -119 425
q139 663 238 663q0 50 68 85h17q-136 -167 -136 -221l119 153q0 51 374 187zM290 422v-85l17 -170q442 409 442 748v119l17 -17l51 17v17l-17 17v17q-74 0 -374 -204q-136 -297 -136 -459zM783 983l-17 -187v-17h17l34 136l-17 68h-17zM188 966l-102 -289l17 -51l-17 17h-17
v-17l17 -85h17v51l-17 17q44 0 85 221q34 0 34 85v51h-17zM477 48v-17h17l68 17v17h-34z" />
    <glyph glyph-name="one" unicode="1" horiz-adv-x="464" 
d="M271 1293h104q86 -4 86 -256v-15q-67 -65 -78 -630l-81 -360v-71q-68 0 -67 -37q-89 0 -155 126h-34l162 774v18q-35 31 -54 72q0 32 -85 55l-37 198h17q141 97 222 126zM210 663l1 -73h17l-1 73h-17zM194 536l-16 -90v-18h17l16 90v18h-17z" />
    <glyph glyph-name="two" unicode="2" horiz-adv-x="978" 
d="M372 1336h17l-36 -36h-17zM587 1336q-3 -36 128 -54l1 18q268 -186 253 -420l-7 -92q-65 -170 -311 -457h67l-1 -17l-101 -19l-2 -37h16l84 19l15 -19l1 19l16 -19h49l18 19q103 -24 143 -92h49q-36 -200 -145 -200q-305 0 -586 -110l2 19l-18 -19q-153 0 -258 92h-50
l2 18q87 80 92 146l157 127h-16l-175 -146h-33l2 37q197 95 333 292l-15 19h16l15 -19l136 55l-15 18l1 19q120 0 219 310h-33q-5 -73 -73 -109l1 17q92 146 97 220q2 36 -94 73q-135 -37 -222 -110h-33l-65 19l-67 -19q-83 0 -77 92q179 256 298 256zM234 1245h16
q-160 -172 -163 -219h-33l2 36zM563 734l-2 -19l-53 -55l1 18zM387 569h16l-2 -36l-207 -128h-33z" />
    <glyph glyph-name="three" unicode="3" horiz-adv-x="1074" 
d="M905 1291q68 -26 95 -96l-4 -58l-171 -269l-21 -58q249 -134 249 -310q0 -9 -1 -18l-2 -39q-21 -303 -267 -423l-10 96h-17q-50 0 -196 -134h-34l-2 -19h68l-36 -38l-50 18l-89 -58l-214 97l16 -19l-3 -38h-16q-84 30 -76 133q-58 24 -90 174l86 19l-1 -19l18 19h17
q82 -97 361 -173q4 46 196 134l19 20l3 38l-54 -38h-17l1 19q94 130 99 192l-66 39l-70 -39l-50 20q-21 -58 -106 -58h-34q-34 0 -28 77l-114 77q-34 0 -30 58q174 404 351 404l4 58l-344 -58h-17l2 19h33l2 20q-204 0 -200 58l2 19l20 58l-30 38l1 20l120 18h33v-18
q-68 0 -71 -39q307 77 735 77zM461 1002l-2 -20q-120 -133 -173 -288h-17l-15 19l1 19q61 151 206 270z" />
    <glyph glyph-name="four" unicode="4" horiz-adv-x="1179" 
d="M868 1378q77 -22 81 -68q-234 -199 -363 -357l-1 -17q192 191 376 306l13 -68q-101 -57 -216 -187l-3 -51l53 34h68l48 -51l-3 -51l-18 -17l-1 -17l15 -17h17l22 68h34l14 -51l-23 -85l-8 -136h17l85 17l17 -17l17 17l29 -85h34l3 34h51l11 -85l-38 -68l13 -51h-136
l-53 -51l-50 17l-3 -34h-17l-15 17h-17l-8 -119l4 -204q-34 0 -38 -68l-19 -17h-17l6 85h-17q-9 -136 -43 -136t-40 170h-17l-9 -153h-17q-34 0 -22 187l-49 51l23 85l8 119l-531 -51l-115 51l1 17q9 85 39 85q3 51 -48 51l22 85h-17q117 199 277 340l-1 -17l-204 -255v-17
h17q43 121 330 391l-1 -17l-110 -136h17q204 244 526 527zM695 1327l-1 -17l-109 -102l2 17zM513 1140l-1 -17l-127 -119l1 17zM367 987l-1 -17l-72 -68l1 17zM686 919q-2 -45 -201 -221l-73 -85h17q190 221 286 221l3 51zM736 902l-4 -68l49 -17l3 34zM479 596l-1 -17h51
l171 17l12 187q-199 -187 -233 -187zM728 766l-7 -102h17l7 102h-17z" />
    <glyph glyph-name="five" unicode="5" horiz-adv-x="924" 
d="M955 1331l-46 -54q0 -57 85 -85v-17l-102 -153l-102 17q-374 0 -374 -119l-34 -136q442 -68 442 -238q0 -257 -323 -577l-306 -68l-102 34v17q109 0 119 50q-125 0 -204 119l17 17v17l51 -17q128 0 408 255l17 68h17v-34h17l34 85v17h-17v-34h-17l-34 34v17
q-119 -17 -238 -85l-119 51q0 34 -68 34v51h34v-34l17 17h17l-68 119q65 306 102 306v-17l-68 -255q63 0 102 272l-51 34l34 68l-44 94v34h17q163 16 163 76l119 -17zM433 1277v-17h119v17h-119zM586 495l-51 -119h17l51 102v17h-17z" />
    <glyph glyph-name="six" unicode="6" horiz-adv-x="1028" 
d="M629 1329h102q102 0 102 -102l-17 -17h17l51 17q0 -26 -136 -85v-17l153 68v-17l-289 -187l-170 -255h17l68 17q260 -43 357 -119h17v-17h-51v-17l153 -68q0 -262 -340 -510l-272 -51q-189 0 -323 272q0 51 -51 51l17 85v204q126 431 459 663zM629 1108
q-286 -275 -323 -425v-17h17q7 60 323 442h-17zM629 496v-17h119v17h-119zM289 326q0 -89 153 -119q208 0 323 204v17l-68 -17l-85 34v-17l-17 17h-17q-146 0 -289 -119zM884 411l17 -17h17v51zM816 309l-34 -68h17l34 51v17h-17z" />
    <glyph glyph-name="seven" unicode="7" horiz-adv-x="953" 
d="M865 1304q107 -6 130 -195l-170 -264q-67 -161 -111 -198h17l-132 -232l17 -1l-131 -231l-17 1l2 17l100 250l2 17l-17 1q-164 -292 -310 -698l-70 -13q-87 122 -76 209l409 810l16 -17l17 -1l-16 18l3 17q59 62 70 149l6 51l-70 -13l-15 17l-433 -44l-30 36l3 16l86 13
l16 -18l23 50l-17 1l-73 -31q-71 25 -71 101q0 11 2 23q46 133 119 129zM362 1246l-2 -17l34 -3l172 9l15 -18l120 10l3 17l-153 8zM203 1066l-2 -17l34 -1l310 18l2 16l-119 7zM511 658l-49 -116l-2 -17l17 -1l48 117l3 17h-17zM440 509l-48 -117l-17 1l4 34l-17 1l-4 -34
l14 -18l-18 -15l17 -2l-139 -281l-2 -17l17 -1l209 431l1 17zM264 -212l17 -1l-6 -51l-39 -33l-14 18l2 17q34 -1 40 50z" />
    <glyph glyph-name="eight" unicode="8" horiz-adv-x="995" 
d="M619 1332q134 -36 133 -73l-188 -36l17 -19v-18l102 37h34q63 -74 135 -74q-1 -37 65 -91q-3 -113 79 -220l-1 -37q-113 -146 -157 -146l-1 -37l50 -73l-18 -19v-18q81 -119 80 -183l-1 -19q-7 -254 -435 -365v-18l-17 18l-68 -18q-304 0 -418 274l3 109l18 19l-31 128
l159 220v18h-34l2 37l16 -19h17l1 38l-50 17l20 147l-16 18v19q6 224 316 366h170zM292 1223l-106 -147h17l106 147h-17zM402 874l17 -18h-17q16 -92 134 -92q204 19 206 110q-60 0 -133 92h34l150 -92h17q-104 202 -216 202q-165 -88 -192 -202zM557 948h17l33 -37h-17z
M876 801l51 -37l19 92h-17zM722 728l-1 -19h17q120 19 121 55v19h-34zM140 618q-105 -124 -106 -165l-1 -18h17l107 183h-17zM285 288q20 -73 151 -73h17q119 0 208 165v18l-33 37h-170l-17 -18l-17 18h-17q-120 -37 -122 -147zM607 252h17l52 54q-68 -27 -69 -54z" />
    <glyph glyph-name="nine" unicode="9" horiz-adv-x="1020" 
d="M471 1341q204 0 332 -136l-1 -17h-34l160 -204l71 -272q-16 -287 -376 -680q-251 -203 -317 -203l1 17l-88 -51h-34l-32 34l195 153l-224 -68l-16 17l1 17l35 34l-16 17l2 33l244 119q46 0 145 170q66 39 126 136l1 17h-17l-52 -17l-320 68v-17q-153 25 -263 170l1 17
l18 17v17q-48 0 -48 31v3l78 204q180 374 428 374zM296 916l-4 -51q-10 -204 262 -204h17q75 0 139 68q-39 238 -157 238h-51zM449 270l-1 -17l-73 -85h-17l1 17zM257 185l16 -17l-1 -17l-191 -85q4 29 176 119z" />
    <glyph glyph-name="colon" unicode=":" horiz-adv-x="627" 
d="M385 1062l66 -65l-44 -19l37 -36l-1 -19h-39l-1 -19h39l-2 -17q22 -59 3 -94l-53 -17q-127 28 -72 -69q-75 -100 -211 -23l-20 89q-11 27 -11 50q0 42 35 70l57 -9l-32 57l-50 48q5 76 214 76q40 0 85 -3zM385 368l66 -65l-2 -19l37 -36l-1 -19h-39l-1 -19h39l-2 -17
q-112 -29 -114 -65h39q-10 -148 -262 -148l-58 19v80q62 -25 78 2l-89 47l60 119l-50 48q5 76 214 76q40 0 85 -3z" />
    <glyph glyph-name="semicolon" unicode=";" horiz-adv-x="702" 
d="M385 375h45q46 -20 46 -101v-5q0 -44 -14 -106l5 -41q-83 -285 -128 -285q0 -47 -41 -69h-18q-51 10 -51 46q7 111 55 111l5 4v5l-28 41l9 55l-50 -18q-77 12 -77 23l-5 14q0 124 55 124l4 4v5l-32 41q8 124 55 124zM316 205h5l45 9v14h-4q-23 0 -46 -23zM385 1062
l66 -65l-44 -19l37 -36l-1 -19h-39l-1 -19h39l-2 -17q22 -59 3 -94l-53 -17q-127 28 -72 -69q-75 -100 -211 -23l-20 89q-11 27 -11 50q0 42 35 70l57 -9l-32 57l-50 48q5 76 214 76q40 0 85 -3z" />
    <glyph glyph-name="semicolon" unicode="&#x37e;" horiz-adv-x="702" 
d="M385 375h45q46 -20 46 -101v-5q0 -44 -14 -106l5 -41q-83 -285 -128 -285q0 -47 -41 -69h-18q-51 10 -51 46q7 111 55 111l5 4v5l-28 41l9 55l-50 -18q-77 12 -77 23l-5 14q0 124 55 124l4 4v5l-32 41q8 124 55 124zM316 205h5l45 9v14h-4q-23 0 -46 -23zM385 1062
l66 -65l-44 -19l37 -36l-1 -19h-39l-1 -19h39l-2 -17q22 -59 3 -94l-53 -17q-127 28 -72 -69q-75 -100 -211 -23l-20 89q-11 27 -11 50q0 42 35 70l57 -9l-32 57l-50 48q5 76 214 76q40 0 85 -3z" />
    <glyph glyph-name="less" unicode="&#x3c;" horiz-adv-x="1196" 
 />
    <glyph glyph-name="equal" unicode="=" horiz-adv-x="1099" 
d="M425 970l315 -5l102 14l21 51l84 -38l-51 -218l-26 -3q-350 35 -553 -29l-45 23q-28 -7 -56 -17l-77 2q-4 28 45 52l-6 48l-6 56l28 37l82 12q51 4 162 40zM656 553l34 50l101 14l32 -4l100 -35l-14 -198l-26 -3q-444 40 -623 -11v2q-26 -7 -51 -17l-83 1q-6 14 -6 27
q0 12 5 23l-6 12l17 34l37 39l-32 7l-5 12q48 48 356 95z" />
    <glyph glyph-name="greater" unicode="&#x3e;" horiz-adv-x="1196" 
 />
    <glyph glyph-name="question" unicode="?" horiz-adv-x="1371" 
d="M902 1356q419 -17 419 -100v-2l-4 -51v-289q-195 -194 -545 -323l-1 -17l16 -17q-3 -51 -123 -68l-1 -17h51l18 17l16 -17l18 17l-5 -68l-137 -34l1 17l-52 -17q-135 31 -133 68q54 40 61 170l73 68h-17l-53 -34l2 51q185 170 283 170l-1 -17q-2 -28 -106 -68l-125 -85
h34q233 61 510 272h17l1 34h-17l-104 -51l1 34h34l3 34h-170l-257 -17q-4 -82 -262 -136l-126 -119h-17l3 68h17l16 -17h17l1 17l-15 17l18 17h-17q-88 -40 -91 -102q-102 0 -97 85l36 34q-48 0 -48 45v6l24 119l-16 17q41 34 120 34q13 212 713 255h17zM330 1186h17
q264 102 533 102q258 0 388 -68l2 34q-146 51 -337 51h-51q-374 0 -552 -119zM855 1135l-1 -17h102l1 17h-102zM974 1135l-1 -17h68l1 17h-68zM762 1016h17l-1 -17l-68 -17q1 34 52 34zM760 676l-1 -17h51q159 102 210 102l1 17h-34zM410 523h17l-39 -85h-51l4 51zM788 285
l15 -17l-1 -17l-103 -17v-17h136l-1 -17h-34l-1 -17h34l-2 -17q-161 -137 -162 -170h34q-9 -136 -230 -136l-50 17l4 51q51 0 52 34l-65 34l41 119l-33 34q5 84 366 136z" />
    <glyph glyph-name="at" unicode="@" horiz-adv-x="815" 
d="M1093 1044h72v-48q0 -66 -588 -120l-12 -36h60l408 36v-24q-84 -8 -84 -36h24l120 12l12 -12v-12l-408 -72l-12 12l-60 -12h-12l-120 12l-108 -12h-12v12l12 12v12l-516 -24v-12h156v-24h-12l-780 -48l-48 108l24 24l-24 36v84l24 24h36q367 0 1848 108zM-71 816v-12h108
l-12 12v12zM-515 780v-12h12l276 24v12l-96 12zM-263 732v-12h60v12h-60zM85 744h192v-24h-192v24z" />
    <glyph glyph-name="A" unicode="A" 
d="M677 1410q11 -51 136 -51l136 -595h119v-17l-102 -17v-17q51 0 51 -34h136v-17q0 -38 -170 -68l34 -102l-17 -51l17 -102l-17 -17h17l-17 -17l17 -204v-102l-17 17h-17l51 -255h-34q0 51 -34 51v-17l17 -51h-17l-17 17h-17q0 -51 -34 -51l-85 289h-17v-68h-17l-34 204
l51 -34v17q-14 153 -51 153l17 17v51h-34v-51h-17v68l17 17h-17l-17 -17v68h17l17 -17h17l-17 17v102l-374 -85v-34l119 34l68 -17l85 17v-34q-357 -64 -357 -170q-45 -187 -102 -238v-34h-51l-17 17h-17v-17l-51 34l34 102h-17q-51 0 -51 -136l-34 34l17 102l-51 51
l289 697h17q0 -51 34 -51l17 85l-17 -17h-17v68l17 85l17 -17h17l-17 17v17l34 68h17l17 -17h17v17q0 34 -51 34l85 238h68l-17 -17v-17q118 68 221 68zM575 1019l-136 -357h34q170 0 187 102l-68 255h-17zM422 917l-34 -119l-17 17h-17l17 -68h17l51 153v17h-17zM235 764
l-17 -17v-34h17l17 51h-17zM337 696l-17 -68h17l17 17v51h-17zM184 679l-17 -68h17l34 68h-34zM473 628v-17h34q153 17 153 51h-17zM711 254h34v-102h-17zM949 135v-34l17 -68h17v34l-17 68h-17zM779 84v-34l51 17v34z" />
    <glyph glyph-name="B" unicode="B" 
d="M692 1383l82 -26l-2 -17l-84 9zM367 1385l47 -40l156 17l15 -19l17 -2l52 11q286 -30 413 -284q34 -4 25 -88l-13 -119l-34 4l2 17l23 49l-15 19l18 15l-15 19l-33 3q-11 -97 -194 -201l-2 -17l17 -1q64 -8 179 65l-3 -34l-97 -92q94 -10 275 -303q-20 -186 -555 -384
q-229 -111 -353 -98l-30 39l-17 1q-5 -51 -73 -43q-6 -47 -34 -47h-6q-34 4 -20 122l-17 1l-26 -82l-17 2q18 168 -33 173l-9 70l19 15l-16 19l165 718l-15 18l17 -2l-15 18l45 252l1 17l-21 122l17 -1q95 52 149 52q6 0 11 -1zM771 1169l-2 -17l134 -32q3 34 -47 39z
M444 1000l5 -120l155 17l-3 -34l251 109l-2 -17l-129 -88q211 58 227 197l-34 4q-10 -84 -60 -79l3 34l-17 1l23 50l15 -19l17 -3l2 17q-62 59 -198 73q-236 27 -255 -142zM840 1024l-1 -17l-38 -29l-17 1zM762 622l-1 -16l166 -36l17 -1l2 17l-66 24zM380 562l-51 -302
l15 -19l17 -2q122 -14 553 213l38 30q-3 69 -128 82l-135 16zM988 496l-41 -65l73 43l-15 19zM1099 415q-6 -53 -336 -254q376 150 384 231l-17 2l-14 19z" />
    <glyph glyph-name="C" unicode="C" horiz-adv-x="1024" 
d="M611 1309h17q247 0 374 -204v-17h-34l17 -17v-17q-102 12 -102 34q-397 0 -595 -408l-34 -119l51 -323h51q212 0 476 306h17v-17q-181 -261 -408 -306v-17h17q178 0 442 306l51 -68v-51q0 -55 -255 -255l-17 -17h-17v-34q289 141 289 204h34v-17q-214 -255 -493 -255v-17
h85l68 17h17v-17l-204 -33q-129 0 -272 186v-17l85 -136v-16h-51q-158 108 -187 271l-17 221q0 426 170 544v-17l-102 -170v-17h17q0 162 425 459l-51 -17h-17v17zM424 1241h17v-17l-119 -51q0 34 102 68zM271 1122v-17l-85 -85v17zM67 306v-51l17 -68h17v17l-17 102h-17z
" />
    <glyph glyph-name="D" unicode="D" horiz-adv-x="1141" 
d="M251 1337h68l51 -34l119 17q295 0 544 -340l85 -170l-17 -17l17 -85v-85q0 -437 -714 -663l-170 -17q0 43 -68 51v-68h-51v102l-17 17l17 17v17q-102 70 -102 119q51 770 170 1122h17l17 -17zM183 1167l-85 -493v-17h17l85 476v34h-17zM455 1048q0 -34 -68 -34
q-68 -310 -102 -714q99 0 510 170v17h-34q136 139 136 289v51q0 187 -255 221h-187zM795 1048v-17l68 -34v17l-51 34h-17zM948 810l-17 -204h34v51l17 68l-17 85h-17zM1067 674l-85 -272v-17h17l85 255v34h-17zM897 555l-34 -68h17l34 68h-17zM795 249q40 6 119 102v17z
M404 147v-17h68l85 34v17h-17zM268 130l17 -51h34l34 34v17h-17l-51 -17zM81 28h17v-17l-34 -34h-17v17z" />
    <glyph glyph-name="E" unicode="E" horiz-adv-x="1028" 
d="M941 1332l82 -57q-36 -151 -130 -145l-444 -20l-2 -34l84 -6l103 10l16 -19l17 -1l120 10l34 -3l-1 -17l-395 -41l-31 -220l17 -1l462 37l15 -18l-1 -17l-34 3v-17l117 -26l-1 -17q-37 -95 -488 -154l-171 -6l16 -17l-82 -216h-17l10 153l-17 1l-33 -236q509 68 719 54
l83 -23l-1 -34l-34 2l15 -18l-3 -51q-49 -64 -208 -54l-1 -17l136 -9l-3 -34l-791 -116l-17 1q-82 18 -82 53v3l3 51l47 184l-16 18l34 -1l-6 -85l17 -2q10 85 40 82l-16 19l12 169l-34 3l-23 -84l19 16l17 -1l-7 -102l-17 2l3 50l-17 1l-2 -34l-17 1l2 34l54 287l-17 1
l39 82l-16 18l1 17l37 287l16 -18l17 -1l2 34l-11 86l27 152l3 51l17 -2l16 -18l18 16l17 -2l16 -17l18 16l51 -4zM90 589l-8 -119l17 -1l8 118zM651 567h17l-2 -17l-308 -31l-16 19l1 16l154 7l-1 -17z" />
    <glyph glyph-name="F" unicode="F" horiz-adv-x="966" 
d="M661 1385l-2 -34h-51l-1 -17h17l324 17h68l-1 -17l-35 -34l16 -17l-1 -34q-3 -88 -55 -102l16 -51l-20 -51l-16 17h-17q-238 -12 -239 -34l-17 17q-291 -46 -295 -170l-5 -136l409 34l17 -17l-1 -17h-85l-1 -17q85 0 83 -34v-17q-3 -85 -37 -85h-102l-1 -17h119l-1 -34
q-1 -29 -430 -119l-24 -187l17 -17v-17l-18 -17l-1 -17l15 -51h-17l15 -51q6 -72 -119 -264l-136 17l23 170q-65 0 -65 63v5q26 43 62 536h34l-16 17l22 136l16 -17h17l24 170l3 68q-85 0 -85 34l36 51q-68 0 -65 51q5 153 56 153q85 0 88 85h17l16 -17l36 34h51l49 -51z
M708 1300l-1 -17h51l188 17v17h-102zM548 1113v-17h17l340 34l1 17l-50 17l-18 -17h-17l-16 17zM97 433l-7 -187h17l7 187h-17zM122 -52l-3 -68h17l3 68h-17z" />
    <glyph glyph-name="G" unicode="G" horiz-adv-x="1229" 
d="M725 1304l15 -17h17l2 17q281 -72 267 -204l22 -102h-34q7 68 -27 68h-17l9 -85l-3 -17h-34q-34 0 -28 51l-19 -17h-17q-85 68 -163 68q-170 0 -395 -357l-54 -187q-25 -226 186 -323l-4 -34h-34l-2 -17h34q121 0 356 306l2 17h-17q-135 -163 -247 -238h-17l211 221h-119
q4 34 -47 34l-15 17l2 17q3 34 175 51l4 34l-19 -17h-102l-89 119l19 17l1 17l186 -17l447 51l2 17q-85 0 -81 34h17l15 -17l19 17h17q181 -52 177 -85l-1 -17l-19 -17l-2 -17h68l-4 -34h-17l-275 -34l-2 -17h17l155 17l-4 -34q-170 0 -185 -136l-81 -272l16 -17l-2 -17
l-27 -85l3 -136l-37 -34l14 -17q-70 -22 -76 -85h-51q-34 0 -18 153h-17l-13 -119h-51l9 85l-4 119h-34q-97 -68 -195 -68h-85l-29 34l1 17h34l2 17q-353 0 -382 238q-20 110 -20 220q0 68 8 137l3 34q15 130 122 340h17l-4 -34l-64 -119l-1 -17h17q17 155 331 391h17l2 17
h-17l-53 -17q50 85 316 85zM374 1202h17l-132 -119l2 17zM624 1168l-1 -17h119l1 17h-119zM259 1083l-3 -17l-75 -68l2 17zM1011 811h68l-38 -34zM506 233h17l-37 -34h-17zM589 63l144 68l4 34h-17zM465 12l-1 -17h85l1 17h-85z" />
    <glyph glyph-name="H" unicode="H" horiz-adv-x="1124" 
d="M224 1342h17v-51h17v34h68q34 0 34 -102l51 -17q0 51 34 51l17 -17v-17l-85 -459l255 17h170l17 85l-17 17h34l-17 119v17h34l-17 17v34h34v34h-34v17h34l-17 17v119l17 -17h17v68l-17 17v17h51l-85 -578q34 0 102 561l68 17q17 -136 51 -136h17q0 51 34 51h17
q-85 -588 -255 -1377h-17l-17 17l17 17v136h-17l-51 -170h-51q-34 0 -34 102h-17v-68h-17q-34 0 -34 51q0 123 102 578h-17l-221 -17l-153 17q-51 -408 -102 -544h-51q-34 0 -34 136h-17l-17 -119l-34 34v51l17 17v17l-17 17h-17l-17 -17h-17l-17 68q68 574 153 833h17
l-17 17v51l51 187h-17zM241 1274v-119h17v119h-17zM224 1138l-17 -136v-34h17l17 136v34h-17zM190 951v-68h17v68h-17zM173 866l-17 -85v-17h17l17 68v34h-17zM139 696v-68h17v68h-17zM785 526l-17 -102v-17h17l17 85v34h-17zM751 390v-68h17v68h-17zM870 203l-17 -85v-51
h17l17 119v17h-17zM37 118h17v-85h-17v85z" />
    <glyph glyph-name="I" unicode="I" horiz-adv-x="481" 
d="M385 1326q-4 -51 64 -51l31 -68l-18 -17h17q-122 -360 -149 -833l-6 -102l17 -17l-1 -17l-18 -17h17l-18 -17l10 -119l-2 -34q-91 -110 -95 -170h-68l-82 34l24 119l-65 68l31 255l17 306l37 51l4 68l-16 17l1 17h34l1 17l-16 17l69 323h-17l18 17l5 102l-16 17l1 17z
M197 1020l-6 -119h17l6 119h-17zM171 850l-6 -102h17l6 102h-17zM145 697l-5 -102h17l5 102h-17zM142 17l-5 -85l35 34l4 51h-34z" />
    <glyph glyph-name="J" unicode="J" horiz-adv-x="940" 
d="M823 1362v-85h51v51h68q-164 -1392 -344 -1392q0 -34 -170 -85l-17 17h-17l-85 -17l-17 17v-17q-170 0 -170 153l-119 51v51l17 -17h51v17q-8 221 -34 221l34 102q46 0 102 51h68l17 -102h34v34l-17 17v17l17 17h34q0 -51 51 -51l-17 -119v-51q11 -102 51 -102l51 153
l17 -17h34q76 0 191 967l17 102l17 17h85zM530 565h17v-68h-17v68zM513 480h17q0 -51 34 -51q0 -34 -51 -34l17 -17v-17l-34 -34h17l17 17v-34l-51 -17v17zM71 412v-85h17v85h-17z" />
    <glyph glyph-name="K" unicode="K" horiz-adv-x="1103" 
d="M989 1386l17 -17v-17l-17 -17l-17 17h-17l-153 -102h-17q0 45 204 136zM326 1352l17 -153q34 0 51 102h17l17 -68l-51 -272l187 136h17l-204 -187v-17l391 289l17 -17q229 187 306 187h17l17 -68l-136 -136h17q34 68 102 68l17 -17v17l-17 17l17 17h51l17 -51
q-128 -60 -595 -442q115 -251 408 -680v-34l-17 -119l-17 17h-17l-17 -68h-68v34h-17v-34h-34q0 60 -374 629l-34 102l-85 -17q-22 -409 -107 -510v-17l-170 17v51l17 119q-51 0 -51 102q28 170 56 170l-17 17q51 468 102 561l-17 51l51 136v17l-17 17v17h34v-119h17l17 51
l-17 17v17q17 51 102 51zM768 1250h17l-68 -68h-17zM190 1165l-17 -102v-68h17l17 153v17h-17zM683 1182h17l-102 -85h-17zM904 1114l-68 -51l-17 -17v-17h17l68 51l17 17v17h-17zM615 145h17l51 -51h-17zM683 94q43 0 85 -170v-17h-17z" />
    <glyph glyph-name="L" unicode="L" horiz-adv-x="1062" 
d="M262 1342q34 0 34 -102h34l51 34l17 -17l-85 -952q108 51 578 119h17v-17q-595 -97 -595 -153l187 51v-17l323 68v-17l17 17h17l17 -17l85 17h68l119 -17v-17q0 -51 -255 -85v-17l17 17h17l119 -17l17 17v-51l-561 -136l-357 -136h-51l-68 85h-17v17q0 43 68 51v51
l-51 68l68 765h17v-68l-17 -119h34l-34 -221l17 -17l-17 -68v-85h17l68 901q34 0 34 51l17 17h34z" />
    <glyph glyph-name="M" unicode="M" horiz-adv-x="1212" 
d="M901 1356h34l-3 -34l-40 -68l-15 17h-17zM271 1339h34l48 -34l1 17q91 -17 129 -85q59 0 122 -357l235 357l18 17h17l-1 -17l-241 -425h34q267 527 318 527l48 -34l1 17q73 0 173 -170l-5 -51l-18 -17l15 -17l-6 -68h-34l25 -102l-33 -187l-5 -51l16 -17l-2 -17l-36 -34
l30 -34l-36 -34l30 -34l-18 -17h-17l16 -17l-42 -476q-51 0 -55 -51q-51 0 -59 -85h-51l-96 68l26 102l-25 102l115 731q-85 -89 -186 -374q-9 -99 -80 -136h-17l1 17l19 17l2 17l-16 17l37 34l4 51h-34q-7 -93 -80 -136h-17l-77 85q-45 0 -54 153q-87 177 -80 255h-17
l-35 -204l-12 -136l-21 -51l9 -85l-32 -374q-34 0 -39 -51l-92 -85h-17l-115 51l25 85l-1 187l7 85l18 17l-15 17l2 17q23 260 100 561h17l-16 17l2 17l23 68l-12 68l2 17h17l-3 -34h17l5 51l-16 17l62 119l4 51l-19 -17h-17l-15 17l4 51h17l16 -17h17zM697 574l13 -51h17
q7 91 210 459l24 85q-127 -158 -264 -493zM1000 931l-18 -17l-38 -425h17l49 357l-16 17h17l-15 17l1 17l19 17l1 17h-17zM889 47l-12 -136h17l25 85l-13 51h-17z" />
    <glyph glyph-name="N" unicode="N" horiz-adv-x="1283" 
d="M346 1324l119 -102q0 51 34 51h17l238 -612v-34h-17l-34 102h-17v-34l119 -289h17q68 442 196 923l51 -34l51 17l102 -51v-17q-51 0 -51 -68h17l17 -17h17l17 85h34v-17l-17 -17l17 -17v-17q-128 -393 -230 -1127h-34l34 272q-34 0 -102 -323q-63 -51 -119 -51v-34h-17
q0 34 -68 34v119q0 77 -340 850h-17q-68 -303 -119 -816l-17 17q-102 -30 -102 -85h-34q-34 64 -34 221h-17v-153h-34l-17 85q0 462 204 1122zM108 899v-17l17 -17l-17 -17v-34h17l17 68l-17 17h-17zM754 627q44 0 68 -136v-17h-17z" />
    <glyph glyph-name="O" unicode="O" horiz-adv-x="1250" 
d="M762 1337q200 0 374 -119l-17 -17v-17l68 -102h-34l-17 17h-17l51 -374h17q0 85 34 85v-68q0 -96 -170 -442h17q-120 -165 -357 -306l-85 -17h-17q-404 0 -510 323l-68 102l17 17l-17 119v34q0 141 272 493v-17q-125 -168 -204 -374v-17h17q62 249 459 629l-119 -68h-17
q0 78 323 119zM677 1048l-17 17v-17l17 -17l-119 -102q-141 0 -272 -476q0 -136 153 -238h17q186 0 425 391q85 186 85 272v136q0 47 -170 68h-17l-17 -17h-17v17zM1170 997h34v-85h-34v85zM303 810l-51 -102h17l51 102h-17zM966 708l-68 -170h51l51 119l-17 51h-17z
M1085 640l-17 -51v-34h17l17 68v17h-17zM82 572v-136h17v136h-17zM881 521l-68 -85h17l68 85h-17zM337 147v-17l85 -51v17z" />
    <glyph glyph-name="P" unicode="P" horiz-adv-x="1016" 
d="M205 1401l16 -17v-17l17 17h85q34 0 32 -85h17q2 51 36 51t32 -51l120 17l182 -34l68 17q130 0 200 -136l-18 -119l16 -17v-17l-37 -102h-17l1 34h-17q-132 -320 -372 -442l-276 -119l-9 -289l14 -85q-34 0 -91 -170l-17 -17h-17l-134 68l22 136l-49 68l42 238l-17 17
l62 323l-17 17l18 17h34l-2 -68h17l3 85l-15 51h34l2 85l-33 34l-2 -68h-17q4 108 -96 170l-14 102l3 68q223 91 224 119l1 17l-33 34l-17 -17l-16 68l18 17h17zM353 738h34q219 92 384 306h-51q-341 -23 -343 -102zM786 976q-54 -96 -435 -289l-17 -17v-17h34
q251 77 435 323h-17zM95 619l-1 -17l16 -17l-17 -17l-2 -34h34l4 85h-34z" />
    <glyph glyph-name="Q" unicode="Q" horiz-adv-x="1212" 
d="M723 1346h17l17 -17l17 17h17q391 -180 391 -442v-119q0 -362 -238 -646v-34q90 -61 170 -187v-17q-112 -170 -153 -170q-105 0 -221 221l-119 -17h-102l-102 17h-17v-17l85 -17v-17l-102 -17q-357 179 -357 425q0 491 272 748v17q181 221 255 221v-17l17 -17l153 68v17z
M689 1159l51 -17l136 34v17h-68l-17 -17h-17v17l17 17v17h-34q-56 -17 -68 -68zM842 1142l-17 -17v-17l102 -17v34zM264 428v-34q0 -145 102 -221h51q98 0 204 119l-68 170l17 17h34v-34l17 17h17l119 -34q170 266 170 476v85q-43 85 -136 85q-157 0 -408 -323
q-119 -221 -119 -323zM1097 921q0 -235 -51 -442v-17h17l68 357l-17 102h-17zM961 904q0 -97 -68 -306q85 28 85 255v51h-17zM876 513q-102 -106 -102 -153q54 24 119 153h-17zM893 241v-17h17l119 170v17q-85 -68 -136 -170zM60 326l17 -102h17v85l-17 17h-17zM196 156v-17
q0 -83 187 -187v17q-154 97 -170 187h-17z" />
    <glyph glyph-name="R" unicode="R" horiz-adv-x="1016" 
d="M361 1341h204q357 -67 357 -306v-102l-170 -238h17l170 153v-34q-87 -194 -221 -255l-102 -34v-68q37 0 357 -442q68 -28 136 -136v-17l-85 68v-17q85 -90 85 -136h-17l-85 -51h-17l-34 51l-17 -17h-17q-340 278 -476 561l-85 170q-60 0 -68 -204q11 -170 -17 -207
q-50 -41 -17 -82v-34h-51q-34 0 -34 68h-17q0 -68 -64 -51l-75 100l20 155v68l102 476h17v-68h17l85 357q-34 0 -34 -68h-17v34h-102v17q0 34 102 51v17h-34l-102 -34h-17q0 34 68 34v17q-68 0 -68 51zM378 729h17q267 128 374 272v34q0 58 -204 119l-102 -34zM718 1154
q34 -77 68 -85v34zM820 1052l-17 -85h17l17 17v68h-17zM191 1001h17v-51l-17 -68h-17v51zM769 933l-85 -119h17l85 102v17h-17zM939 899h34l-17 -51h-17v51zM157 848h17v-68h-17v68zM123 627v-68h17v68h-17zM633 117v-17l68 -68q-33 77 -68 85zM718 -2v-17l68 -51v17z" />
    <glyph glyph-name="S" unicode="S" horiz-adv-x="986" 
d="M546 1357q45 -34 286 -34l-1 -17h-119l-1 -17q213 0 266 -102l-2 -34h-85l-1 -17l118 -17l-1 -17h-102l-1 -17q51 0 49 -34q-303 0 -541 -221l-1 -17q329 -88 521 -391l-1 -17q-62 -220 -347 -408l-104 -17l-1 -17h34q-2 -46 -312 -102l2 34h85l2 17q-109 0 -197 119
q-76 39 -76 149q0 10 1 21l53 34l49 -34h34q480 75 495 306q-201 102 -266 102l-1 -17l-167 68l16 -17l-1 -34q-212 156 -207 238l133 238l89 68l-2 -34zM314 898l-1 -17l300 187l138 34l2 34h-34q-269 -100 -405 -238zM408 201h17l36 34h-17zM714 201l-73 -85h17l73 85h-17
zM501 65v-17h17l71 51zM308 -54l-1 -17h68l86 17v17h-17z" />
    <glyph glyph-name="T" unicode="T" horiz-adv-x="919" 
d="M1038 1363l51 -17v-34h-51l34 -51q-37 -85 -272 -85l-119 -17l-17 -51h17q-51 -121 -204 -1088l51 -221h-17q-38 0 -68 170l17 170v17h-17v-34q-51 0 -51 -34v-17l34 -272v-17h-34l-68 51l-17 -17h-17q-68 147 -68 255l17 -17h17l-34 119l51 17v85h-34v17q51 0 51 34v17
h-34q0 136 51 136v221q27 24 68 357l-119 -17l-238 17v17l85 17v-17l17 17h255v51l-272 -34l-17 17h-17l-102 -17l-51 34l17 85l-17 17q0 85 204 85zM936 1312v-17h68v17h-68zM307 360l-34 -374h34l-17 85v34l34 51h-17l17 17v17l-17 17v17l34 68l-17 68h-17z" />
    <glyph glyph-name="U" unicode="U" horiz-adv-x="1045" 
d="M288 1330l34 -51l-17 -85l17 -17h17l17 85h34l17 -51q-136 -490 -136 -765q17 -187 68 -187l391 442l17 85v476l34 34q34 0 34 -68h17q0 68 85 68l34 -68l-17 -85q34 0 34 85h34l17 -17h17l-85 -1224l-17 -68q-68 0 -68 -68h-68l17 170h-34v-102l-51 -51v17l17 170
q-51 0 -51 68h-17l-289 -136l-136 34v-17q-176 0 -238 510q68 765 136 765v17h17v-68h-34v-34l17 -17v-17h-17l17 -51l-51 -85h17l17 17l-51 -306v-68h17q54 663 187 663zM84 650l-17 -17v-136h17l17 153h-17zM611 514l-119 -136h17l119 136h-17zM118 242v-34l17 -51h17v34
l-17 51h-17zM237 157v-17q0 -59 153 -102h34v17q-98 1 -187 102z" />
    <glyph glyph-name="V" unicode="V" horiz-adv-x="1041" 
d="M-12 1335q204 0 204 -136h17v51h34q68 -199 119 -544h-17l17 -17v-153h34l-17 -17v-85h17q67 169 272 459l17 -17l34 51h-17l-34 -34v17l187 204h34l68 -68l-85 -102h51q0 53 102 119v-51q-68 -8 -68 -51h34q0 51 51 51v-51q-87 -51 -255 -306l-357 -646h-34l-17 17
q-51 0 -51 -68h-34q-119 0 -119 119l17 51l-34 -34v-51l17 -17v-17l-17 -17h-34l-17 85l17 51h-17l17 17v102q-21 935 -119 935l17 51zM804 1131v-17l-68 -68h-17q40 74 85 85zM685 1012v-17l-153 -204v17q39 96 153 204zM821 910l-51 -85h17l51 68v17h-17zM141 825v-85h17
v85h-17zM481 740h17v-51l-17 -17h-17v17zM158 689v-187h17v187h-17zM464 672v-17l-51 -68v17zM498 332v-17l51 51v17zM413 196l17 -17h17l34 102q-35 -8 -68 -85z" />
    <glyph glyph-name="W" unicode="W" horiz-adv-x="1342" 
d="M121 1369h51l17 -85q51 0 51 51h17l34 -34l-17 -102h17l-17 -17v-17l17 -17v-17h-17l17 -17v-17l-17 -561v-17h17l51 170h34l-119 -323h34l204 578h-34l-68 -221h-34v17l119 272h17v-34l136 34q68 -25 68 -51l17 17h51l68 -408h17q0 76 268 876h17l17 -51h17v34h17
q126 0 136 -51v-34l-34 -51v-17h34l17 119h34l34 -34v-17l-387 -1335l-51 -17v34l-17 -17h-17l-17 17q0 -68 -51 -68q-136 12 -136 51h17q-17 85 -68 119l-68 374q-29 -1 -204 -476l-85 -85h-17l-17 68q260 430 272 663q-45 -45 -221 -510q-21 0 -68 -204h-153l-17 68
l-17 -17h-17q0 92 -51 136v68l68 -51l-34 289l17 17l-17 17l17 17h-17l17 17v238l17 85h-17l17 17v442l-17 17v17zM1120 1361q-251 -781 -251 -876v-17h17l268 893h-34zM1090 706l-34 -153v-17h17l34 153v17h-17zM988 298l-34 -153v-34h17l34 170v17h-17z" />
    <glyph glyph-name="X" unicode="X" horiz-adv-x="1170" 
d="M288 1359q187 -96 187 -272l102 -153l51 51h17l-68 -102l17 -17h17q380 442 493 442q62 0 102 -85q51 0 51 -34q0 -64 -289 -289l-238 -255v-34q153 -252 255 -561l-17 -51h17l-85 -119h-51v34l-51 -34l-221 527h-17q-165 -201 -340 -578h-34v34l17 17l-17 17v17
q85 207 306 561h17v51q-340 -470 -340 -595l-68 -34q-55 0 -119 119q0 96 408 714q-156 291 -187 442h17l-68 170h17l17 -17zM1019 1342h17l-255 -238h-17v17zM747 1104h17l-119 -119v17zM781 849l-34 -51h17l34 51h-17zM16 16l374 595q34 0 34 68h-17q-301 -394 -391 -663z
M798 16v-17l17 -68h17v68l-17 17h-17z" />
    <glyph glyph-name="Y" unicode="Y" horiz-adv-x="991" 
d="M822 1375h17v-34l17 17h17q119 -40 119 -68l-85 -102h34q68 35 68 85h51v-17l-17 -17l17 -17v-17q-604 -650 -590 -1036l-34 -169l17 -17v-17l-85 -153l-136 17v136l-51 67v34l17 204l17 -17h17l-17 17v17l17 17v17l-17 17l51 17l-17 -85v-68h17l20 205l-17 51h-17v-51
h-17l-17 136l17 17v17l-234 597v34h34l-34 85l17 17h34q39 0 51 -85l51 34h51q0 -105 183 -444q98 186 170 221v-17q-170 -216 -170 -255v-17h17l400 542v17l-196 -202v17zM609 1105v-17l-34 -34v17zM839 1120q-366 -469 -366 -542h34q147 283 349 542h-17zM283 -68v-68h17
v68h-17z" />
    <glyph glyph-name="Z" unicode="Z" horiz-adv-x="970" 
d="M98 1311l103 -17l341 17l426 -125v-36l17 -18l-17 -18h-17v-18h34l34 36h17v-71l-665 -807h102l103 19q211 -55 272 -162h18v-71l-35 -37h-17l-85 37l17 -19v-34l-136 34h-51q-165 0 -444 -107l-102 89l51 144l-34 36v71q126 215 154 215l17 -18l17 18v18h-17q0 54 68 54
l68 90l-17 17l51 36l17 -18q152 239 205 251v-18l-188 -251h17l290 359h-17l-68 -54l-17 18v18l17 18l-171 -18h-204q-81 40 -120 125v18l34 54q-28 90 -85 90l17 18v17zM542 631l-103 -125h17l103 125h-17zM337 577l-85 -108h17l85 108h-17zM422 487l-85 -107h17l85 107
h-17z" />
    <glyph glyph-name="bracketleft" unicode="[" horiz-adv-x="569" 
 />
    <glyph glyph-name="backslash" unicode="\" horiz-adv-x="569" 
 />
    <glyph glyph-name="bracketright" unicode="]" horiz-adv-x="569" 
 />
    <glyph glyph-name="asciicircum" unicode="^" horiz-adv-x="999" 
d="M280 780h-26l3 25l29 49l12 -12h12zM828 965l-46 -86l-3 -37l14 12h13l11 -12l-3 -37h-13l-12 12h-12l-28 -25h-25l-36 25l-1 -12q-68 12 -96 61q-44 0 -91 259l-175 -259l-13 -12h-13l1 12l179 308h-25q-199 -382 -237 -382l-36 25v-12q-48 0 -112 95l150 200l32 57
l-2 -7q64 64 139 270q6 72 59 99h13l-1 -12l-14 -13l-1 -12l12 -12l-28 -25l-3 -37h25q6 68 60 99h13l57 -62q33 0 40 -111q65 -128 60 -184l83 -206zM432 1347l-10 37h-13q-5 -66 -156 -333l-18 -62q95 115 197 358zM510 1368l9 99h-13l-18 -62l9 -37h13z" />
    <glyph glyph-name="underscore" unicode="_" horiz-adv-x="560" 
d="M262 -90l-95 -11l-12 -30l4 -26l96 13l12 8zM502 -13l16 17l-6 60h-467l-17 -15l7 -59l-29 -34l-2 -57l33 -2l179 27v-4l33 -8l168 23l15 -46l117 26l3 57l-115 15h65z" />
    <glyph glyph-name="grave" unicode="`" horiz-adv-x="589" 
d="M245 1845h13q17 0 50 -31q74 -46 137 -143l13 -39l-2 -3l-3 3h-13l3 -13l-3 -18q13 -25 13 -37l-2 -7l2 -16l-5 -8l5 -21v-13h-5l-21 45h-5v-3l5 -18h-2q13 -46 13 -63v-2q0 -4 -19 -13l-7 2l-13 -2h-8q-11 10 -68 161q-65 130 -174 174q-20 0 -39 24q0 31 42 31l23 5
l21 -5z" />
    <glyph glyph-name="a" unicode="a" 
d="M677 1410q11 -51 136 -51l136 -595h119v-17l-102 -17v-17q51 0 51 -34h136v-17q0 -38 -170 -68l34 -102l-17 -51l17 -102l-17 -17h17l-17 -17l17 -204v-102l-17 17h-17l51 -255h-34q0 51 -34 51v-17l17 -51h-17l-17 17h-17q0 -51 -34 -51l-85 289h-17v-68h-17l-34 204
l51 -34v17q-14 153 -51 153l17 17v51h-34v-51h-17v68l17 17h-17l-17 -17v68h17l17 -17h17l-17 17v102l-374 -85v-34l119 34l68 -17l85 17v-34q-357 -64 -357 -170q-45 -187 -102 -238v-34h-51l-17 17h-17v-17l-51 34l34 102h-17q-51 0 -51 -136l-34 34l17 102l-51 51
l289 697h17q0 -51 34 -51l17 85l-17 -17h-17v68l17 85l17 -17h17l-17 17v17l34 68h17l17 -17h17v17q0 34 -51 34l85 238h68l-17 -17v-17q118 68 221 68zM575 1019l-136 -357h34q170 0 187 102l-68 255h-17zM422 917l-34 -119l-17 17h-17l17 -68h17l51 153v17h-17zM235 764
l-17 -17v-34h17l17 51h-17zM337 696l-17 -68h17l17 17v51h-17zM184 679l-17 -68h17l34 68h-34zM473 628v-17h34q153 17 153 51h-17zM711 254h34v-102h-17zM949 135v-34l17 -68h17v34l-17 68h-17zM779 84v-34l51 17v34z" />
    <glyph glyph-name="b" unicode="b" 
d="M692 1383l82 -26l-2 -17l-84 9zM367 1385l47 -40l156 17l15 -19l17 -2l52 11q286 -30 413 -284q34 -4 25 -88l-13 -119l-34 4l2 17l23 49l-15 19l18 15l-15 19l-33 3q-11 -97 -194 -201l-2 -17l17 -1q64 -8 179 65l-3 -34l-97 -92q94 -10 275 -303q-20 -186 -555 -384
q-229 -111 -353 -98l-30 39l-17 1q-5 -51 -73 -43q-6 -47 -34 -47h-6q-34 4 -20 122l-17 1l-26 -82l-17 2q18 168 -33 173l-9 70l19 15l-16 19l165 718l-15 18l17 -2l-15 18l45 252l1 17l-21 122l17 -1q95 52 149 52q6 0 11 -1zM771 1169l-2 -17l134 -32q3 34 -47 39z
M444 1000l5 -120l155 17l-3 -34l251 109l-2 -17l-129 -88q211 58 227 197l-34 4q-10 -84 -60 -79l3 34l-17 1l23 50l15 -19l17 -3l2 17q-62 59 -198 73q-236 27 -255 -142zM840 1024l-1 -17l-38 -29l-17 1zM762 622l-1 -16l166 -36l17 -1l2 17l-66 24zM380 562l-51 -302
l15 -19l17 -2q122 -14 553 213l38 30q-3 69 -128 82l-135 16zM988 496l-41 -65l73 43l-15 19zM1099 415q-6 -53 -336 -254q376 150 384 231l-17 2l-14 19z" />
    <glyph glyph-name="c" unicode="c" horiz-adv-x="1024" 
d="M611 1309h17q247 0 374 -204v-17h-34l17 -17v-17q-102 12 -102 34q-397 0 -595 -408l-34 -119l51 -323h51q212 0 476 306h17v-17q-181 -261 -408 -306v-17h17q178 0 442 306l51 -68v-51q0 -55 -255 -255l-17 -17h-17v-34q289 141 289 204h34v-17q-214 -255 -493 -255v-17
h85l68 17h17v-17l-204 -33q-129 0 -272 186v-17l85 -136v-16h-51q-158 108 -187 271l-17 221q0 426 170 544v-17l-102 -170v-17h17q0 162 425 459l-51 -17h-17v17zM424 1241h17v-17l-119 -51q0 34 102 68zM271 1122v-17l-85 -85v17zM67 306v-51l17 -68h17v17l-17 102h-17z
" />
    <glyph glyph-name="d" unicode="d" horiz-adv-x="1141" 
d="M251 1337h68l51 -34l119 17q295 0 544 -340l85 -170l-17 -17l17 -85v-85q0 -437 -714 -663l-170 -17q0 43 -68 51v-68h-51v102l-17 17l17 17v17q-102 70 -102 119q51 770 170 1122h17l17 -17zM183 1167l-85 -493v-17h17l85 476v34h-17zM455 1048q0 -34 -68 -34
q-68 -310 -102 -714q99 0 510 170v17h-34q136 139 136 289v51q0 187 -255 221h-187zM795 1048v-17l68 -34v17l-51 34h-17zM948 810l-17 -204h34v51l17 68l-17 85h-17zM1067 674l-85 -272v-17h17l85 255v34h-17zM897 555l-34 -68h17l34 68h-17zM795 249q40 6 119 102v17z
M404 147v-17h68l85 34v17h-17zM268 130l17 -51h34l34 34v17h-17l-51 -17zM81 28h17v-17l-34 -34h-17v17z" />
    <glyph glyph-name="e" unicode="e" horiz-adv-x="1028" 
d="M941 1332l82 -57q-36 -151 -130 -145l-444 -20l-2 -34l84 -6l103 10l16 -19l17 -1l120 10l34 -3l-1 -17l-395 -41l-31 -220l17 -1l462 37l15 -18l-1 -17l-34 3v-17l117 -26l-1 -17q-37 -95 -488 -154l-171 -6l16 -17l-82 -216h-17l10 153l-17 1l-33 -236q509 68 719 54
l83 -23l-1 -34l-34 2l15 -18l-3 -51q-49 -64 -208 -54l-1 -17l136 -9l-3 -34l-791 -116l-17 1q-82 18 -82 53v3l3 51l47 184l-16 18l34 -1l-6 -85l17 -2q10 85 40 82l-16 19l12 169l-34 3l-23 -84l19 16l17 -1l-7 -102l-17 2l3 50l-17 1l-2 -34l-17 1l2 34l54 287l-17 1
l39 82l-16 18l1 17l37 287l16 -18l17 -1l2 34l-11 86l27 152l3 51l17 -2l16 -18l18 16l17 -2l16 -17l18 16l51 -4zM90 589l-8 -119l17 -1l8 118zM651 567h17l-2 -17l-308 -31l-16 19l1 16l154 7l-1 -17z" />
    <glyph glyph-name="f" unicode="f" horiz-adv-x="966" 
d="M661 1385l-2 -34h-51l-1 -17h17l324 17h68l-1 -17l-35 -34l16 -17l-1 -34q-3 -88 -55 -102l16 -51l-20 -51l-16 17h-17q-238 -12 -239 -34l-17 17q-291 -46 -295 -170l-5 -136l409 34l17 -17l-1 -17h-85l-1 -17q85 0 83 -34v-17q-3 -85 -37 -85h-102l-1 -17h119l-1 -34
q-1 -29 -430 -119l-24 -187l17 -17v-17l-18 -17l-1 -17l15 -51h-17l15 -51q6 -72 -119 -264l-136 17l23 170q-65 0 -65 63v5q26 43 62 536h34l-16 17l22 136l16 -17h17l24 170l3 68q-85 0 -85 34l36 51q-68 0 -65 51q5 153 56 153q85 0 88 85h17l16 -17l36 34h51l49 -51z
M708 1300l-1 -17h51l188 17v17h-102zM548 1113v-17h17l340 34l1 17l-50 17l-18 -17h-17l-16 17zM97 433l-7 -187h17l7 187h-17zM122 -52l-3 -68h17l3 68h-17z" />
    <glyph glyph-name="g" unicode="g" horiz-adv-x="1229" 
d="M725 1304l15 -17h17l2 17q281 -72 267 -204l22 -102h-34q7 68 -27 68h-17l9 -85l-3 -17h-34q-34 0 -28 51l-19 -17h-17q-85 68 -163 68q-170 0 -395 -357l-54 -187q-25 -226 186 -323l-4 -34h-34l-2 -17h34q121 0 356 306l2 17h-17q-135 -163 -247 -238h-17l211 221h-119
q4 34 -47 34l-15 17l2 17q3 34 175 51l4 34l-19 -17h-102l-89 119l19 17l1 17l186 -17l447 51l2 17q-85 0 -81 34h17l15 -17l19 17h17q181 -52 177 -85l-1 -17l-19 -17l-2 -17h68l-4 -34h-17l-275 -34l-2 -17h17l155 17l-4 -34q-170 0 -185 -136l-81 -272l16 -17l-2 -17
l-27 -85l3 -136l-37 -34l14 -17q-70 -22 -76 -85h-51q-34 0 -18 153h-17l-13 -119h-51l9 85l-4 119h-34q-97 -68 -195 -68h-85l-29 34l1 17h34l2 17q-353 0 -382 238q-20 110 -20 220q0 68 8 137l3 34q15 130 122 340h17l-4 -34l-64 -119l-1 -17h17q17 155 331 391h17l2 17
h-17l-53 -17q50 85 316 85zM374 1202h17l-132 -119l2 17zM624 1168l-1 -17h119l1 17h-119zM259 1083l-3 -17l-75 -68l2 17zM1011 811h68l-38 -34zM506 233h17l-37 -34h-17zM589 63l144 68l4 34h-17zM465 12l-1 -17h85l1 17h-85z" />
    <glyph glyph-name="h" unicode="h" horiz-adv-x="1124" 
d="M224 1342h17v-51h17v34h68q34 0 34 -102l51 -17q0 51 34 51l17 -17v-17l-85 -459l255 17h170l17 85l-17 17h34l-17 119v17h34l-17 17v34h34v34h-34v17h34l-17 17v119l17 -17h17v68l-17 17v17h51l-85 -578q34 0 102 561l68 17q17 -136 51 -136h17q0 51 34 51h17
q-85 -588 -255 -1377h-17l-17 17l17 17v136h-17l-51 -170h-51q-34 0 -34 102h-17v-68h-17q-34 0 -34 51q0 123 102 578h-17l-221 -17l-153 17q-51 -408 -102 -544h-51q-34 0 -34 136h-17l-17 -119l-34 34v51l17 17v17l-17 17h-17l-17 -17h-17l-17 68q68 574 153 833h17
l-17 17v51l51 187h-17zM241 1274v-119h17v119h-17zM224 1138l-17 -136v-34h17l17 136v34h-17zM190 951v-68h17v68h-17zM173 866l-17 -85v-17h17l17 68v34h-17zM139 696v-68h17v68h-17zM785 526l-17 -102v-17h17l17 85v34h-17zM751 390v-68h17v68h-17zM870 203l-17 -85v-51
h17l17 119v17h-17zM37 118h17v-85h-17v85z" />
    <glyph glyph-name="i" unicode="i" horiz-adv-x="481" 
d="M385 1326q-4 -51 64 -51l31 -68l-18 -17h17q-122 -360 -149 -833l-6 -102l17 -17l-1 -17l-18 -17h17l-18 -17l10 -119l-2 -34q-91 -110 -95 -170h-68l-82 34l24 119l-65 68l31 255l17 306l37 51l4 68l-16 17l1 17h34l1 17l-16 17l69 323h-17l18 17l5 102l-16 17l1 17z
M197 1020l-6 -119h17l6 119h-17zM171 850l-6 -102h17l6 102h-17zM145 697l-5 -102h17l5 102h-17zM142 17l-5 -85l35 34l4 51h-34z" />
    <glyph glyph-name="j" unicode="j" horiz-adv-x="940" 
d="M823 1362v-85h51v51h68q-164 -1392 -344 -1392q0 -34 -170 -85l-17 17h-17l-85 -17l-17 17v-17q-170 0 -170 153l-119 51v51l17 -17h51v17q-8 221 -34 221l34 102q46 0 102 51h68l17 -102h34v34l-17 17v17l17 17h34q0 -51 51 -51l-17 -119v-51q11 -102 51 -102l51 153
l17 -17h34q76 0 191 967l17 102l17 17h85zM530 565h17v-68h-17v68zM513 480h17q0 -51 34 -51q0 -34 -51 -34l17 -17v-17l-34 -34h17l17 17v-34l-51 -17v17zM71 412v-85h17v85h-17z" />
    <glyph glyph-name="k" unicode="k" horiz-adv-x="1103" 
d="M989 1386l17 -17v-17l-17 -17l-17 17h-17l-153 -102h-17q0 45 204 136zM326 1352l17 -153q34 0 51 102h17l17 -68l-51 -272l187 136h17l-204 -187v-17l391 289l17 -17q229 187 306 187h17l17 -68l-136 -136h17q34 68 102 68l17 -17v17l-17 17l17 17h51l17 -51
q-128 -60 -595 -442q115 -251 408 -680v-34l-17 -119l-17 17h-17l-17 -68h-68v34h-17v-34h-34q0 60 -374 629l-34 102l-85 -17q-22 -409 -107 -510v-17l-170 17v51l17 119q-51 0 -51 102q28 170 56 170l-17 17q51 468 102 561l-17 51l51 136v17l-17 17v17h34v-119h17l17 51
l-17 17v17q17 51 102 51zM768 1250h17l-68 -68h-17zM190 1165l-17 -102v-68h17l17 153v17h-17zM683 1182h17l-102 -85h-17zM904 1114l-68 -51l-17 -17v-17h17l68 51l17 17v17h-17zM615 145h17l51 -51h-17zM683 94q43 0 85 -170v-17h-17z" />
    <glyph glyph-name="l" unicode="l" horiz-adv-x="1062" 
d="M262 1342q34 0 34 -102h34l51 34l17 -17l-85 -952q108 51 578 119h17v-17q-595 -97 -595 -153l187 51v-17l323 68v-17l17 17h17l17 -17l85 17h68l119 -17v-17q0 -51 -255 -85v-17l17 17h17l119 -17l17 17v-51l-561 -136l-357 -136h-51l-68 85h-17v17q0 43 68 51v51
l-51 68l68 765h17v-68l-17 -119h34l-34 -221l17 -17l-17 -68v-85h17l68 901q34 0 34 51l17 17h34z" />
    <glyph glyph-name="m" unicode="m" horiz-adv-x="1212" 
d="M901 1356h34l-3 -34l-40 -68l-15 17h-17zM271 1339h34l48 -34l1 17q91 -17 129 -85q59 0 122 -357l235 357l18 17h17l-1 -17l-241 -425h34q267 527 318 527l48 -34l1 17q73 0 173 -170l-5 -51l-18 -17l15 -17l-6 -68h-34l25 -102l-33 -187l-5 -51l16 -17l-2 -17l-36 -34
l30 -34l-36 -34l30 -34l-18 -17h-17l16 -17l-42 -476q-51 0 -55 -51q-51 0 -59 -85h-51l-96 68l26 102l-25 102l115 731q-85 -89 -186 -374q-9 -99 -80 -136h-17l1 17l19 17l2 17l-16 17l37 34l4 51h-34q-7 -93 -80 -136h-17l-77 85q-45 0 -54 153q-87 177 -80 255h-17
l-35 -204l-12 -136l-21 -51l9 -85l-32 -374q-34 0 -39 -51l-92 -85h-17l-115 51l25 85l-1 187l7 85l18 17l-15 17l2 17q23 260 100 561h17l-16 17l2 17l23 68l-12 68l2 17h17l-3 -34h17l5 51l-16 17l62 119l4 51l-19 -17h-17l-15 17l4 51h17l16 -17h17zM697 574l13 -51h17
q7 91 210 459l24 85q-127 -158 -264 -493zM1000 931l-18 -17l-38 -425h17l49 357l-16 17h17l-15 17l1 17l19 17l1 17h-17zM889 47l-12 -136h17l25 85l-13 51h-17z" />
    <glyph glyph-name="n" unicode="n" horiz-adv-x="1283" 
d="M346 1324l119 -102q0 51 34 51h17l238 -612v-34h-17l-34 102h-17v-34l119 -289h17q68 442 196 923l51 -34l51 17l102 -51v-17q-51 0 -51 -68h17l17 -17h17l17 85h34v-17l-17 -17l17 -17v-17q-128 -393 -230 -1127h-34l34 272q-34 0 -102 -323q-63 -51 -119 -51v-34h-17
q0 34 -68 34v119q0 77 -340 850h-17q-68 -303 -119 -816l-17 17q-102 -30 -102 -85h-34q-34 64 -34 221h-17v-153h-34l-17 85q0 462 204 1122zM108 899v-17l17 -17l-17 -17v-34h17l17 68l-17 17h-17zM754 627q44 0 68 -136v-17h-17z" />
    <glyph glyph-name="o" unicode="o" horiz-adv-x="1250" 
d="M762 1337q200 0 374 -119l-17 -17v-17l68 -102h-34l-17 17h-17l51 -374h17q0 85 34 85v-68q0 -96 -170 -442h17q-120 -165 -357 -306l-85 -17h-17q-404 0 -510 323l-68 102l17 17l-17 119v34q0 141 272 493v-17q-125 -168 -204 -374v-17h17q62 249 459 629l-119 -68h-17
q0 78 323 119zM677 1048l-17 17v-17l17 -17l-119 -102q-141 0 -272 -476q0 -136 153 -238h17q186 0 425 391q85 186 85 272v136q0 47 -170 68h-17l-17 -17h-17v17zM1170 997h34v-85h-34v85zM303 810l-51 -102h17l51 102h-17zM966 708l-68 -170h51l51 119l-17 51h-17z
M1085 640l-17 -51v-34h17l17 68v17h-17zM82 572v-136h17v136h-17zM881 521l-68 -85h17l68 85h-17zM337 147v-17l85 -51v17z" />
    <glyph glyph-name="p" unicode="p" horiz-adv-x="1016" 
d="M205 1401l16 -17v-17l17 17h85q34 0 32 -85h17q2 51 36 51t32 -51l120 17l182 -34l68 17q130 0 200 -136l-18 -119l16 -17v-17l-37 -102h-17l1 34h-17q-132 -320 -372 -442l-276 -119l-9 -289l14 -85q-34 0 -91 -170l-17 -17h-17l-134 68l22 136l-49 68l42 238l-17 17
l62 323l-17 17l18 17h34l-2 -68h17l3 85l-15 51h34l2 85l-33 34l-2 -68h-17q4 108 -96 170l-14 102l3 68q223 91 224 119l1 17l-33 34l-17 -17l-16 68l18 17h17zM353 738h34q219 92 384 306h-51q-341 -23 -343 -102zM786 976q-54 -96 -435 -289l-17 -17v-17h34
q251 77 435 323h-17zM95 619l-1 -17l16 -17l-17 -17l-2 -34h34l4 85h-34z" />
    <glyph glyph-name="q" unicode="q" horiz-adv-x="1212" 
d="M723 1346h17l17 -17l17 17h17q391 -180 391 -442v-119q0 -362 -238 -646v-34q90 -61 170 -187v-17q-112 -170 -153 -170q-105 0 -221 221l-119 -17h-102l-102 17h-17v-17l85 -17v-17l-102 -17q-357 179 -357 425q0 491 272 748v17q181 221 255 221v-17l17 -17l153 68v17z
M689 1159l51 -17l136 34v17h-68l-17 -17h-17v17l17 17v17h-34q-56 -17 -68 -68zM842 1142l-17 -17v-17l102 -17v34zM264 428v-34q0 -145 102 -221h51q98 0 204 119l-68 170l17 17h34v-34l17 17h17l119 -34q170 266 170 476v85q-43 85 -136 85q-157 0 -408 -323
q-119 -221 -119 -323zM1097 921q0 -235 -51 -442v-17h17l68 357l-17 102h-17zM961 904q0 -97 -68 -306q85 28 85 255v51h-17zM876 513q-102 -106 -102 -153q54 24 119 153h-17zM893 241v-17h17l119 170v17q-85 -68 -136 -170zM60 326l17 -102h17v85l-17 17h-17zM196 156v-17
q0 -83 187 -187v17q-154 97 -170 187h-17z" />
    <glyph glyph-name="r" unicode="r" horiz-adv-x="1016" 
d="M361 1341h204q357 -67 357 -306v-102l-170 -238h17l170 153v-34q-87 -194 -221 -255l-102 -34v-68q37 0 357 -442q68 -28 136 -136v-17l-85 68v-17q85 -90 85 -136h-17l-85 -51h-17l-34 51l-17 -17h-17q-340 278 -476 561l-85 170q-60 0 -68 -204q11 -170 -17 -207
q-50 -41 -17 -82v-34h-51q-34 0 -34 68h-17q0 -68 -64 -51l-75 100l20 155v68l102 476h17v-68h17l85 357q-34 0 -34 -68h-17v34h-102v17q0 34 102 51v17h-34l-102 -34h-17q0 34 68 34v17q-68 0 -68 51zM378 729h17q267 128 374 272v34q0 58 -204 119l-102 -34zM718 1154
q34 -77 68 -85v34zM820 1052l-17 -85h17l17 17v68h-17zM191 1001h17v-51l-17 -68h-17v51zM769 933l-85 -119h17l85 102v17h-17zM939 899h34l-17 -51h-17v51zM157 848h17v-68h-17v68zM123 627v-68h17v68h-17zM633 117v-17l68 -68q-33 77 -68 85zM718 -2v-17l68 -51v17z" />
    <glyph glyph-name="s" unicode="s" horiz-adv-x="986" 
d="M546 1357q45 -34 286 -34l-1 -17h-119l-1 -17q213 0 266 -102l-2 -34h-85l-1 -17l118 -17l-1 -17h-102l-1 -17q51 0 49 -34q-303 0 -541 -221l-1 -17q329 -88 521 -391l-1 -17q-62 -220 -347 -408l-104 -17l-1 -17h34q-2 -46 -312 -102l2 34h85l2 17q-109 0 -197 119
q-76 39 -76 149q0 10 1 21l53 34l49 -34h34q480 75 495 306q-201 102 -266 102l-1 -17l-167 68l16 -17l-1 -34q-212 156 -207 238l133 238l89 68l-2 -34zM314 898l-1 -17l300 187l138 34l2 34h-34q-269 -100 -405 -238zM408 201h17l36 34h-17zM714 201l-73 -85h17l73 85h-17
zM501 65v-17h17l71 51zM308 -54l-1 -17h68l86 17v17h-17z" />
    <glyph glyph-name="t" unicode="t" horiz-adv-x="919" 
d="M1038 1363l51 -17v-34h-51l34 -51q-37 -85 -272 -85l-119 -17l-17 -51h17q-51 -121 -204 -1088l51 -221h-17q-38 0 -68 170l17 170v17h-17v-34q-51 0 -51 -34v-17l34 -272v-17h-34l-68 51l-17 -17h-17q-68 147 -68 255l17 -17h17l-34 119l51 17v85h-34v17q51 0 51 34v17
h-34q0 136 51 136v221q27 24 68 357l-119 -17l-238 17v17l85 17v-17l17 17h255v51l-272 -34l-17 17h-17l-102 -17l-51 34l17 85l-17 17q0 85 204 85zM936 1312v-17h68v17h-68zM307 360l-34 -374h34l-17 85v34l34 51h-17l17 17v17l-17 17v17l34 68l-17 68h-17z" />
    <glyph glyph-name="u" unicode="u" horiz-adv-x="1045" 
d="M288 1330l34 -51l-17 -85l17 -17h17l17 85h34l17 -51q-136 -490 -136 -765q17 -187 68 -187l391 442l17 85v476l34 34q34 0 34 -68h17q0 68 85 68l34 -68l-17 -85q34 0 34 85h34l17 -17h17l-85 -1224l-17 -68q-68 0 -68 -68h-68l17 170h-34v-102l-51 -51v17l17 170
q-51 0 -51 68h-17l-289 -136l-136 34v-17q-176 0 -238 510q68 765 136 765v17h17v-68h-34v-34l17 -17v-17h-17l17 -51l-51 -85h17l17 17l-51 -306v-68h17q54 663 187 663zM84 650l-17 -17v-136h17l17 153h-17zM611 514l-119 -136h17l119 136h-17zM118 242v-34l17 -51h17v34
l-17 51h-17zM237 157v-17q0 -59 153 -102h34v17q-98 1 -187 102z" />
    <glyph glyph-name="v" unicode="v" horiz-adv-x="1041" 
d="M-12 1335q204 0 204 -136h17v51h34q68 -199 119 -544h-17l17 -17v-153h34l-17 -17v-85h17q67 169 272 459l17 -17l34 51h-17l-34 -34v17l187 204h34l68 -68l-85 -102h51q0 53 102 119v-51q-68 -8 -68 -51h34q0 51 51 51v-51q-87 -51 -255 -306l-357 -646h-34l-17 17
q-51 0 -51 -68h-34q-119 0 -119 119l17 51l-34 -34v-51l17 -17v-17l-17 -17h-34l-17 85l17 51h-17l17 17v102q-21 935 -119 935l17 51zM804 1131v-17l-68 -68h-17q40 74 85 85zM685 1012v-17l-153 -204v17q39 96 153 204zM821 910l-51 -85h17l51 68v17h-17zM141 825v-85h17
v85h-17zM481 740h17v-51l-17 -17h-17v17zM158 689v-187h17v187h-17zM464 672v-17l-51 -68v17zM498 332v-17l51 51v17zM413 196l17 -17h17l34 102q-35 -8 -68 -85z" />
    <glyph glyph-name="w" unicode="w" horiz-adv-x="1342" 
d="M121 1369h51l17 -85q51 0 51 51h17l34 -34l-17 -102h17l-17 -17v-17l17 -17v-17h-17l17 -17v-17l-17 -561v-17h17l51 170h34l-119 -323h34l204 578h-34l-68 -221h-34v17l119 272h17v-34l136 34q68 -25 68 -51l17 17h51l68 -408h17q0 76 268 876h17l17 -51h17v34h17
q126 0 136 -51v-34l-34 -51v-17h34l17 119h34l34 -34v-17l-387 -1335l-51 -17v34l-17 -17h-17l-17 17q0 -68 -51 -68q-136 12 -136 51h17q-17 85 -68 119l-68 374q-29 -1 -204 -476l-85 -85h-17l-17 68q260 430 272 663q-45 -45 -221 -510q-21 0 -68 -204h-153l-17 68
l-17 -17h-17q0 92 -51 136v68l68 -51l-34 289l17 17l-17 17l17 17h-17l17 17v238l17 85h-17l17 17v442l-17 17v17zM1120 1361q-251 -781 -251 -876v-17h17l268 893h-34zM1090 706l-34 -153v-17h17l34 153v17h-17zM988 298l-34 -153v-34h17l34 170v17h-17z" />
    <glyph glyph-name="x" unicode="x" horiz-adv-x="1170" 
d="M288 1359q187 -96 187 -272l102 -153l51 51h17l-68 -102l17 -17h17q380 442 493 442q62 0 102 -85q51 0 51 -34q0 -64 -289 -289l-238 -255v-34q153 -252 255 -561l-17 -51h17l-85 -119h-51v34l-51 -34l-221 527h-17q-165 -201 -340 -578h-34v34l17 17l-17 17v17
q85 207 306 561h17v51q-340 -470 -340 -595l-68 -34q-55 0 -119 119q0 96 408 714q-156 291 -187 442h17l-68 170h17l17 -17zM1019 1342h17l-255 -238h-17v17zM747 1104h17l-119 -119v17zM781 849l-34 -51h17l34 51h-17zM16 16l374 595q34 0 34 68h-17q-301 -394 -391 -663z
M798 16v-17l17 -68h17v68l-17 17h-17z" />
    <glyph glyph-name="y" unicode="y" horiz-adv-x="991" 
d="M822 1375h17v-34l17 17h17q119 -40 119 -68l-85 -102h34q68 35 68 85h51v-17l-17 -17l17 -17v-17q-604 -650 -590 -1036l-34 -169l17 -17v-17l-85 -153l-136 17v136l-51 67v34l17 204l17 -17h17l-17 17v17l17 17v17l-17 17l51 17l-17 -85v-68h17l20 205l-17 51h-17v-51
h-17l-17 136l17 17v17l-234 597v34h34l-34 85l17 17h34q39 0 51 -85l51 34h51q0 -105 183 -444q98 186 170 221v-17q-170 -216 -170 -255v-17h17l400 542v17l-196 -202v17zM609 1105v-17l-34 -34v17zM839 1120q-366 -469 -366 -542h34q147 283 349 542h-17zM283 -68v-68h17
v68h-17z" />
    <glyph glyph-name="z" unicode="z" horiz-adv-x="970" 
d="M98 1311l103 -17l341 17l426 -125v-36l17 -18l-17 -18h-17v-18h34l34 36h17v-71l-665 -807h102l103 19q211 -55 272 -162h18v-71l-35 -37h-17l-85 37l17 -19v-34l-136 34h-51q-165 0 -444 -107l-102 89l51 144l-34 36v71q126 215 154 215l17 -18l17 18v18h-17q0 54 68 54
l68 90l-17 17l51 36l17 -18q152 239 205 251v-18l-188 -251h17l290 359h-17l-68 -54l-17 18v18l17 18l-171 -18h-204q-81 40 -120 125v18l34 54q-28 90 -85 90l17 18v17zM542 631l-103 -125h17l103 125h-17zM337 577l-85 -108h17l85 108h-17zM422 487l-85 -107h17l85 107
h-17z" />
    <glyph glyph-name="braceleft" unicode="{" horiz-adv-x="684" 
 />
    <glyph glyph-name="bar" unicode="|" horiz-adv-x="532" 
 />
    <glyph glyph-name="braceright" unicode="}" horiz-adv-x="684" 
 />
    <glyph glyph-name="asciitilde" unicode="~" horiz-adv-x="936" 
d="M843 1321l21 -33l-4 -3l4 -4h3l5 4l4 -4v-3q0 -30 -26 -72q0 -16 -28 -58h3l54 62h4v-4l-4 -17q7 0 11 -22q-34 -65 -82 -130l-16 -24l4 -4h7q0 16 26 36h3v-3q-50 -61 -50 -72l17 14h4v-3q-63 -93 -147 -182l4 -5v-3q0 -33 -86 -64l-17 -3q-67 0 -162 142l-47 53
q-51 -64 -78 -135l-14 -7h-7l-12 7h-4q-6 0 -43 -75l-2 -4h-5q-45 0 -75 72q-38 0 -68 82q0 13 47 82l78 111q50 78 112 132h7q24 0 78 -99q53 -55 82 -151l5 -3h7q72 0 225 200q37 37 101 122z" />
    <glyph glyph-name="Adieresis" unicode="&#xc4;" 
d="M677 1410q11 -51 136 -51l136 -595h119v-17l-102 -17v-17q51 0 51 -34h136v-17q0 -38 -170 -68l34 -102l-17 -51l17 -102l-17 -17h17l-17 -17l17 -204v-102l-17 17h-17l51 -255h-34q0 51 -34 51v-17l17 -51h-17l-17 17h-17q0 -51 -34 -51l-85 289h-17v-68h-17l-34 204
l51 -34v17q-14 153 -51 153l17 17v51h-34v-51h-17v68l17 17h-17l-17 -17v68h17l17 -17h17l-17 17v102l-374 -85v-34l119 34l68 -17l85 17v-34q-357 -64 -357 -170q-45 -187 -102 -238v-34h-51l-17 17h-17v-17l-51 34l34 102h-17q-51 0 -51 -136l-34 34l17 102l-51 51
l289 697h17q0 -51 34 -51l17 85l-17 -17h-17v68l17 85l17 -17h17l-17 17v17l34 68h17l17 -17h17v17q0 34 -51 34l85 238h68l-17 -17v-17q118 68 221 68zM575 1019l-136 -357h34q170 0 187 102l-68 255h-17zM422 917l-34 -119l-17 17h-17l17 -68h17l51 153v17h-17zM235 764
l-17 -17v-34h17l17 51h-17zM337 696l-17 -68h17l17 17v51h-17zM184 679l-17 -68h17l34 68h-34zM473 628v-17h34q153 17 153 51h-17zM711 254h34v-102h-17zM949 135v-34l17 -68h17v34l-17 68h-17zM779 84v-34l51 17v34zM860 1807l3 -3l16 3h4l32 -38v-10q-71 -62 -71 -70h3
q48 41 77 48l16 -32l-9 -32l3 3h6l10 -9v-4q-3 -21 -90 -108q-25 -32 -32 -61l-13 -10h-3q-14 0 -51 32q-10 0 -16 32q-16 23 -26 23q-44 48 -44 80v3q126 131 169 147zM492 1804q39 -3 39 -10l-3 -3v-3q11 0 28 -20v-9q-9 -11 -41 -23q-61 -35 -71 -51h4q73 55 124 55
l13 -26q4 0 7 -22q12 0 12 -29q-106 -67 -118 -96q-13 -2 -32 -61l-35 -10q-55 34 -55 68q-5 0 -9 16q-22 0 -55 57l-3 29q77 105 176 134z" />
    <glyph glyph-name="Aring" unicode="&#xc5;" 
d="M677 1410q11 -51 136 -51l136 -595h119v-17l-102 -17v-17q51 0 51 -34h136v-17q0 -38 -170 -68l34 -102l-17 -51l17 -102l-17 -17h17l-17 -17l17 -204v-102l-17 17h-17l51 -255h-34q0 51 -34 51v-17l17 -51h-17l-17 17h-17q0 -51 -34 -51l-85 289h-17v-68h-17l-34 204
l51 -34v17q-14 153 -51 153l17 17v51h-34v-51h-17v68l17 17h-17l-17 -17v68h17l17 -17h17l-17 17v102l-374 -85v-34l119 34l68 -17l85 17v-34q-357 -64 -357 -170q-45 -187 -102 -238v-34h-51l-17 17h-17v-17l-51 34l34 102h-17q-51 0 -51 -136l-34 34l17 102l-51 51
l289 697h17q0 -51 34 -51l17 85l-17 -17h-17v68l17 85l17 -17h17l-17 17v17l34 68h17l17 -17h17v17q0 34 -51 34l85 238h68l-17 -17v-17q118 68 221 68zM575 1019l-136 -357h34q170 0 187 102l-68 255h-17zM422 917l-34 -119l-17 17h-17l17 -68h17l51 153v17h-17zM235 764
l-17 -17v-34h17l17 51h-17zM337 696l-17 -68h17l17 17v51h-17zM184 679l-17 -68h17l34 68h-34zM473 628v-17h34q153 17 153 51h-17zM711 254h34v-102h-17zM949 135v-34l17 -68h17v34l-17 68h-17zM779 84v-34l51 17v34zM749 1849q37 0 49 -30l4 -16q0 -9 -6 -11l-24 2
l-27 -10v-2l4 -4l19 6q8 -1 8 -4l6 2q34 0 34 -20l4 -5q0 -4 -6 -4l-2 -1v-4q19 -37 31 -72q18 -24 18 -43h-2l2 -2v-2l-2 -7l2 -7l-41 -76q-12 -30 -65 -73q-38 -30 -55 -30h-6l-14 9l-49 -14q-40 0 -89 62q-57 76 -57 101l-2 23v20q0 39 45 106q79 73 124 87l38 17l19 -5z
M574 1555l6 -4l78 18h8l14 -2q51 35 65 66q16 23 37 66v10q-6 21 -10 21q-127 -48 -141 -70q-48 -46 -57 -105z" />
    <glyph glyph-name="Ccedilla" unicode="&#xc7;" horiz-adv-x="1024" 
d="M611 1309h17q247 0 374 -204v-17h-34l17 -17v-17q-102 12 -102 34q-397 0 -595 -408l-34 -119l51 -323h51q212 0 476 306h17v-17q-181 -261 -408 -306v-17h17q178 0 442 306l51 -68v-51q0 -55 -255 -255l-17 -17h-17v-34q289 141 289 204h34v-17q-214 -255 -493 -255v-17
h85l68 17h17v-17l-204 -33q-129 0 -272 186v-17l85 -136v-16h-51q-158 108 -187 271l-17 221q0 426 170 544v-17l-102 -170v-17h17q0 162 425 459l-51 -17h-17v17zM424 1241h17v-17l-119 -51q0 34 102 68zM271 1122v-17l-85 -85v17zM67 306v-51l17 -68h17v17l-17 102h-17z
M466 -62h6q6 -3 19 -28h3q6 1 14 22l14 3l3 -3v-19l-17 -35v-8l28 -6l53 6q109 0 109 -76q0 -95 -85 -132l-67 -51q-11 -9 -62 -14l-14 6l-28 -8l-31 2h-22l-20 -5q-17 3 -17 8v14q5 9 90 56q71 33 71 116v8l-5 6l-45 -9q-42 3 -42 14q-19 -8 -39 -8h-11q-20 0 -34 20
q1 17 24.5 62t40.5 45l5 5h9l8 -5q0 -22 -31 -77l-3 -8l3 -3h3q28 0 59 85zM595 -175v-3q0 -13 11 -28v-14h5v31q-6 14 -16 14zM595 -245l2 -8l-8 -3v-9l3 3h3l8 -3v3q0 11 6 11l2 -2v22l-5 6h-3q-7 0 -8 -20zM589 -295l8 8v6q-6 0 -8 -14z" />
    <glyph glyph-name="Eacute" unicode="&#xc9;" horiz-adv-x="1028" 
d="M941 1332l82 -57q-36 -151 -130 -145l-444 -20l-2 -34l84 -6l103 10l16 -19l17 -1l120 10l34 -3l-1 -17l-395 -41l-31 -220l17 -1l462 37l15 -18l-1 -17l-34 3v-17l117 -26l-1 -17q-37 -95 -488 -154l-171 -6l16 -17l-82 -216h-17l10 153l-17 1l-33 -236q509 68 719 54
l83 -23l-1 -34l-34 2l15 -18l-3 -51q-49 -64 -208 -54l-1 -17l136 -9l-3 -34l-791 -116l-17 1q-82 18 -82 53v3l3 51l47 184l-16 18l34 -1l-6 -85l17 -2q10 85 40 82l-16 19l12 169l-34 3l-23 -84l19 16l17 -1l-7 -102l-17 2l3 50l-17 1l-2 -34l-17 1l2 34l54 287l-17 1
l39 82l-16 18l1 17l37 287l16 -18l17 -1l2 34l-11 86l27 152l3 51l17 -2l16 -18l18 16l17 -2l16 -17l18 16l51 -4zM90 589l-8 -119l17 -1l8 118zM651 567h17l-2 -17l-308 -31l-16 19l1 16l154 7l-1 -17zM785 1856q5 -5 5 -15q10 0 13 -14q0 -17 -108 -114q0 -7 -36 -40
q-18 -21 -18 -30q126 130 162 149h3l-3 -10l5 -5q0 -15 -29 -40l11 -5l18 13l2 -2v-4q-6 -6 -9 -21q-89 -83 -126 -129q-74 -80 -81 -126l-4 -6q-36 5 -36 28l-7 6v4l2 7h-2q-25 0 -36 55q25 59 83 120q43 52 155 150zM731 1685v-2h3l15 17h-2zM720 1675v-2l5 4v2zM702 1656
v-3l7 7v2zM695 1651l-2 -6h5v6h-3zM619 1617l16 17h-3q-13 -6 -13 -17z" />
    <glyph glyph-name="Ntilde" unicode="&#xd1;" horiz-adv-x="1283" 
d="M346 1324l119 -102q0 51 34 51h17l238 -612v-34h-17l-34 102h-17v-34l119 -289h17q68 442 196 923l51 -34l51 17l102 -51v-17q-51 0 -51 -68h17l17 -17h17l17 85h34v-17l-17 -17l17 -17v-17q-128 -393 -230 -1127h-34l34 272q-34 0 -102 -323q-63 -51 -119 -51v-34h-17
q0 34 -68 34v119q0 77 -340 850h-17q-68 -303 -119 -816l-17 17q-102 -30 -102 -85h-34q-34 64 -34 221h-17v-153h-34l-17 85q0 462 204 1122zM108 899v-17l17 -17l-17 -17v-34h17l17 68l-17 17h-17zM754 627q44 0 68 -136v-17h-17zM1034 1851l15 -22l-2 -3l2 -2h3l2 2l3 -2
v-3q0 -21 -18 -49q0 -11 -20 -40h2l38 42h3v-2l-3 -13q5 0 8 -15q-23 -45 -58 -89l-10 -18l2 -2h5q0 11 18 25h3v-3q-36 -42 -36 -49l13 10h2v-3q-45 -64 -103 -127l2 -2v-3q0 -22 -60 -44l-13 -3q-47 0 -114 100l-32 37q-36 -46 -56 -95l-10 -5h-5l-8 5h-2q-5 0 -31 -52
l-2 -2h-3q-32 0 -53 49q-27 0 -48 58q0 8 33 57l56 77q34 54 78 92h5q18 0 56 -70q36 -37 58 -104l2 -3h5q52 0 159 140q26 26 71 84z" />
    <glyph glyph-name="Odieresis" unicode="&#xd6;" horiz-adv-x="1250" 
d="M762 1337q200 0 374 -119l-17 -17v-17l68 -102h-34l-17 17h-17l51 -374h17q0 85 34 85v-68q0 -96 -170 -442h17q-120 -165 -357 -306l-85 -17h-17q-404 0 -510 323l-68 102l17 17l-17 119v34q0 141 272 493v-17q-125 -168 -204 -374v-17h17q62 249 459 629l-119 -68h-17
q0 78 323 119zM677 1048l-17 17v-17l17 -17l-119 -102q-141 0 -272 -476q0 -136 153 -238h17q186 0 425 391q85 186 85 272v136q0 47 -170 68h-17l-17 -17h-17v17zM1170 997h34v-85h-34v85zM303 810l-51 -102h17l51 102h-17zM966 708l-68 -170h51l51 119l-17 51h-17z
M1085 640l-17 -51v-34h17l17 68v17h-17zM82 572v-136h17v136h-17zM881 521l-68 -85h17l68 85h-17zM337 147v-17l85 -51v17zM1110 1807l3 -3l16 3h3l32 -38v-10q-70 -62 -70 -70h3q48 41 77 48l16 -32l-10 -32l4 3h6l10 -9v-4q-4 -21 -90 -108q-25 -32 -32 -61l-13 -10h-3
q-14 0 -51 32q-11 0 -16 32q-16 23 -26 23q-45 48 -45 80v3q126 131 170 147zM742 1804q39 -3 39 -10l-4 -3v-3q12 0 29 -20v-9q-9 -11 -41 -23q-62 -35 -71 -51h3q74 55 125 55l13 -26q4 0 6 -22q13 0 13 -29q-106 -67 -118 -96q-13 -2 -32 -61l-35 -10q-55 34 -55 68
q-5 0 -9 16q-22 0 -55 57l-3 29q77 106 176 134z" />
    <glyph glyph-name="Udieresis" unicode="&#xdc;" horiz-adv-x="1045" 
d="M288 1330l34 -51l-17 -85l17 -17h17l17 85h34l17 -51q-136 -490 -136 -765q17 -187 68 -187l391 442l17 85v476l34 34q34 0 34 -68h17q0 68 85 68l34 -68l-17 -85q34 0 34 85h34l17 -17h17l-85 -1224l-17 -68q-68 0 -68 -68h-68l17 170h-34v-102l-51 -51v17l17 170
q-51 0 -51 68h-17l-289 -136l-136 34v-17q-176 0 -238 510q68 765 136 765v17h17v-68h-34v-34l17 -17v-17h-17l17 -51l-51 -85h17l17 17l-51 -306v-68h17q54 663 187 663zM84 650l-17 -17v-136h17l17 153h-17zM611 514l-119 -136h17l119 136h-17zM118 242v-34l17 -51h17v34
l-17 51h-17zM237 157v-17q0 -59 153 -102h34v17q-98 1 -187 102zM851 1807l3 -3l16 3h4l32 -38v-10q-71 -62 -71 -70h3q48 41 77 48l16 -32l-9 -32l3 3h6l10 -10v-3q-4 -22 -90 -109q-25 -31 -32 -60l-13 -10h-3q-14 0 -51 32q-10 0 -16 32q-16 22 -26 22q-44 49 -44 80v4
q125 131 169 147zM483 1803q39 -2 39 -9l-3 -3v-4q11 0 28 -19v-9q-9 -11 -41 -23q-61 -35 -71 -51h4q73 54 124 54l13 -25q4 0 7 -23q12 0 12 -28q-106 -67 -118 -96q-13 -2 -32 -61l-35 -10q-55 34 -55 67q-5 0 -9 16q-22 0 -55 58l-3 29q77 105 176 134z" />
    <glyph glyph-name="aacute" unicode="&#xe1;" 
d="M677 1410q11 -51 136 -51l136 -595h119v-17l-102 -17v-17q51 0 51 -34h136v-17q0 -38 -170 -68l34 -102l-17 -51l17 -102l-17 -17h17l-17 -17l17 -204v-102l-17 17h-17l51 -255h-34q0 51 -34 51v-17l17 -51h-17l-17 17h-17q0 -51 -34 -51l-85 289h-17v-68h-17l-34 204
l51 -34v17q-14 153 -51 153l17 17v51h-34v-51h-17v68l17 17h-17l-17 -17v68h17l17 -17h17l-17 17v102l-374 -85v-34l119 34l68 -17l85 17v-34q-357 -64 -357 -170q-45 -187 -102 -238v-34h-51l-17 17h-17v-17l-51 34l34 102h-17q-51 0 -51 -136l-34 34l17 102l-51 51
l289 697h17q0 -51 34 -51l17 85l-17 -17h-17v68l17 85l17 -17h17l-17 17v17l34 68h17l17 -17h17v17q0 34 -51 34l85 238h68l-17 -17v-17q118 68 221 68zM575 1019l-136 -357h34q170 0 187 102l-68 255h-17zM422 917l-34 -119l-17 17h-17l17 -68h17l51 153v17h-17zM235 764
l-17 -17v-34h17l17 51h-17zM337 696l-17 -68h17l17 17v51h-17zM184 679l-17 -68h17l34 68h-34zM473 628v-17h34q153 17 153 51h-17zM711 254h34v-102h-17zM949 135v-34l17 -68h17v34l-17 68h-17zM779 84v-34l51 17v34zM840 1857q4 -5 4 -15q11 0 14 -15q0 -17 -108 -114
q0 -6 -36 -40q-18 -21 -18 -30q125 130 162 149h2l-2 -10l4 -5q0 -15 -29 -40l11 -4l18 12l2 -2v-4q-6 -6 -9 -21q-89 -83 -126 -129q-74 -80 -81 -126l-4 -6q-36 5 -36 28l-7 6v4l2 7h-2q-25 0 -36 55q25 59 83 120q43 52 156 150zM786 1686v-3h2l16 18h-3zM774 1675v-2
l5 4v2zM756 1656v-3l7 7v2zM750 1651l-3 -6h5v6h-2zM673 1617l16 17h-2q-14 -6 -14 -17z" />
    <glyph glyph-name="agrave" unicode="&#xe0;" 
d="M680 1410q11 -51 136 -51l136 -595h119v-17l-102 -17v-17q51 0 51 -34h136v-17q0 -38 -170 -68l34 -102l-17 -51l17 -102l-17 -17h17l-17 -17l17 -204v-102l-17 17h-17l51 -255h-34q0 51 -34 51v-17l17 -51h-17l-17 17h-17q0 -51 -34 -51l-85 289h-17v-68h-17l-34 204
l51 -34v17q-14 153 -51 153l17 17v51h-34v-51h-17v68l17 17h-17l-17 -17v68h17l17 -17h17l-17 17v102l-374 -85v-34l119 34l68 -17l85 17v-34q-357 -64 -357 -170q-45 -187 -102 -238v-34h-51l-17 17h-17v-17l-51 34l34 102h-17q-51 0 -51 -136l-34 34l17 102l-51 51
l289 697h17q0 -51 34 -51l17 85l-17 -17h-17v68l17 85l17 -17h17l-17 17v17l34 68h17l17 -17h17v17q0 34 -51 34l85 238h68l-17 -17v-17q118 68 221 68zM578 1019l-136 -357h34q170 0 187 102l-68 255h-17zM425 917l-34 -119l-17 17h-17l17 -68h17l51 153v17h-17zM238 764
l-17 -17v-34h17l17 51h-17zM340 696l-17 -68h17l17 17v51h-17zM187 679l-17 -68h17l34 68h-34zM476 628v-17h34q153 17 153 51h-17zM714 254h34v-102h-17zM952 135v-34l17 -68h17v34l-17 68h-17zM782 84v-34l51 17v34zM529 1845h13q17 0 50 -31q74 -46 137 -143l13 -39
l-2 -3l-3 3h-13l3 -13l-3 -18q13 -25 13 -37l-2 -7l2 -16l-5 -8l5 -21v-13h-5l-21 45h-5v-3l5 -18h-2q13 -46 13 -63v-2q0 -4 -19 -13l-7 2l-13 -2h-8q-11 10 -68 161q-65 130 -174 174q-20 0 -39 24q0 31 42 31l23 5l21 -5z" />
    <glyph glyph-name="acircumflex" unicode="&#xe2;" 
d="M677 1410q11 -51 136 -51l136 -595h119v-17l-102 -17v-17q51 0 51 -34h136v-17q0 -38 -170 -68l34 -102l-17 -51l17 -102l-17 -17h17l-17 -17l17 -204v-102l-17 17h-17l51 -255h-34q0 51 -34 51v-17l17 -51h-17l-17 17h-17q0 -51 -34 -51l-85 289h-17v-68h-17l-34 204
l51 -34v17q-14 153 -51 153l17 17v51h-34v-51h-17v68l17 17h-17l-17 -17v68h17l17 -17h17l-17 17v102l-374 -85v-34l119 34l68 -17l85 17v-34q-357 -64 -357 -170q-45 -187 -102 -238v-34h-51l-17 17h-17v-17l-51 34l34 102h-17q-51 0 -51 -136l-34 34l17 102l-51 51
l289 697h17q0 -51 34 -51l17 85l-17 -17h-17v68l17 85l17 -17h17l-17 17v17l34 68h17l17 -17h17v17q0 34 -51 34l85 238h68l-17 -17v-17q118 68 221 68zM575 1019l-136 -357h34q170 0 187 102l-68 255h-17zM422 917l-34 -119l-17 17h-17l17 -68h17l51 153v17h-17zM235 764
l-17 -17v-34h17l17 51h-17zM337 696l-17 -68h17l17 17v51h-17zM184 679l-17 -68h17l34 68h-34zM473 628v-17h34q153 17 153 51h-17zM711 254h34v-102h-17zM949 135v-34l17 -68h17v34l-17 68h-17zM779 84v-34l51 17v34zM836 1842q49 0 61 -211v-51q0 -65 -41 -65q0 -6 -17 -6
h-24q-8 0 -10 30l-3 4h-7q0 -22 -17 -31l-10 3q-15 -23 -34 -23h-4q-7 6 -30 6q-21 5 -21 24v17l-13 102h-7q0 -26 -75 -75q-55 -95 -102 -95h-3l-24 7v-3q0 -17 -48 -21q-27 17 -27 34v4q11 48 163 224q102 95 170 95l14 -3q59 34 109 34z" />
    <glyph glyph-name="adieresis" unicode="&#xe4;" 
d="M677 1410q11 -51 136 -51l136 -595h119v-17l-102 -17v-17q51 0 51 -34h136v-17q0 -38 -170 -68l34 -102l-17 -51l17 -102l-17 -17h17l-17 -17l17 -204v-102l-17 17h-17l51 -255h-34q0 51 -34 51v-17l17 -51h-17l-17 17h-17q0 -51 -34 -51l-85 289h-17v-68h-17l-34 204
l51 -34v17q-14 153 -51 153l17 17v51h-34v-51h-17v68l17 17h-17l-17 -17v68h17l17 -17h17l-17 17v102l-374 -85v-34l119 34l68 -17l85 17v-34q-357 -64 -357 -170q-45 -187 -102 -238v-34h-51l-17 17h-17v-17l-51 34l34 102h-17q-51 0 -51 -136l-34 34l17 102l-51 51
l289 697h17q0 -51 34 -51l17 85l-17 -17h-17v68l17 85l17 -17h17l-17 17v17l34 68h17l17 -17h17v17q0 34 -51 34l85 238h68l-17 -17v-17q118 68 221 68zM575 1019l-136 -357h34q170 0 187 102l-68 255h-17zM422 917l-34 -119l-17 17h-17l17 -68h17l51 153v17h-17zM235 764
l-17 -17v-34h17l17 51h-17zM337 696l-17 -68h17l17 17v51h-17zM184 679l-17 -68h17l34 68h-34zM473 628v-17h34q153 17 153 51h-17zM711 254h34v-102h-17zM949 135v-34l17 -68h17v34l-17 68h-17zM779 84v-34l51 17v34zM860 1807l3 -3l16 3h3l32 -38v-10q-70 -62 -70 -70h3
q48 41 77 48l16 -32l-10 -32l4 3h6l10 -10v-3q-4 -22 -90 -109q-25 -32 -32 -61l-13 -9h-3q-14 0 -51 32q-11 0 -16 32q-16 22 -26 22q-45 49 -45 80v3q126 132 170 148zM492 1803q39 -2 39 -9l-4 -4v-3q12 0 29 -19v-10q-9 -10 -41 -22q-62 -35 -71 -51h3q74 54 125 54
l13 -25q4 0 6 -23q13 0 13 -29q-106 -66 -118 -96q-13 -2 -32 -60l-35 -10q-55 34 -55 67q-5 0 -9 16q-22 0 -55 58l-3 29q77 105 176 134z" />
    <glyph glyph-name="atilde" unicode="&#xe3;" 
d="M677 1410q11 -51 136 -51l136 -595h119v-17l-102 -17v-17q51 0 51 -34h136v-17q0 -38 -170 -68l34 -102l-17 -51l17 -102l-17 -17h17l-17 -17l17 -204v-102l-17 17h-17l51 -255h-34q0 51 -34 51v-17l17 -51h-17l-17 17h-17q0 -51 -34 -51l-85 289h-17v-68h-17l-34 204
l51 -34v17q-14 153 -51 153l17 17v51h-34v-51h-17v68l17 17h-17l-17 -17v68h17l17 -17h17l-17 17v102l-374 -85v-34l119 34l68 -17l85 17v-34q-357 -64 -357 -170q-45 -187 -102 -238v-34h-51l-17 17h-17v-17l-51 34l34 102h-17q-51 0 -51 -136l-34 34l17 102l-51 51
l289 697h17q0 -51 34 -51l17 85l-17 -17h-17v68l17 85l17 -17h17l-17 17v17l34 68h17l17 -17h17v17q0 34 -51 34l85 238h68l-17 -17v-17q118 68 221 68zM575 1019l-136 -357h34q170 0 187 102l-68 255h-17zM422 917l-34 -119l-17 17h-17l17 -68h17l51 153v17h-17zM235 764
l-17 -17v-34h17l17 51h-17zM337 696l-17 -68h17l17 17v51h-17zM184 679l-17 -68h17l34 68h-34zM473 628v-17h34q153 17 153 51h-17zM711 254h34v-102h-17zM949 135v-34l17 -68h17v34l-17 68h-17zM779 84v-34l51 17v34zM949 1851l15 -23l-3 -2l3 -3h2l3 3l3 -3v-2
q0 -21 -18 -50q0 -11 -20 -40h2l38 43h3v-3l-3 -12q5 0 8 -15q-24 -45 -58 -90l-11 -17l3 -3h5q0 11 18 25h2v-2q-35 -42 -35 -50l12 10h3v-2q-45 -65 -104 -127l3 -3v-2q0 -23 -61 -45l-12 -2q-47 0 -114 99l-33 37q-36 -45 -55 -94l-10 -5h-5l-8 5h-3q-4 0 -30 -52l-2 -3
h-3q-32 0 -53 50q-27 0 -48 57q0 9 33 57l55 77q35 54 79 92h5q17 0 55 -69q37 -38 58 -105l3 -2h5q51 0 159 139q26 26 71 85z" />
    <glyph glyph-name="aring" unicode="&#xe5;" 
d="M677 1410q11 -51 136 -51l136 -595h119v-17l-102 -17v-17q51 0 51 -34h136v-17q0 -38 -170 -68l34 -102l-17 -51l17 -102l-17 -17h17l-17 -17l17 -204v-102l-17 17h-17l51 -255h-34q0 51 -34 51v-17l17 -51h-17l-17 17h-17q0 -51 -34 -51l-85 289h-17v-68h-17l-34 204
l51 -34v17q-14 153 -51 153l17 17v51h-34v-51h-17v68l17 17h-17l-17 -17v68h17l17 -17h17l-17 17v102l-374 -85v-34l119 34l68 -17l85 17v-34q-357 -64 -357 -170q-45 -187 -102 -238v-34h-51l-17 17h-17v-17l-51 34l34 102h-17q-51 0 -51 -136l-34 34l17 102l-51 51
l289 697h17q0 -51 34 -51l17 85l-17 -17h-17v68l17 85l17 -17h17l-17 17v17l34 68h17l17 -17h17v17q0 34 -51 34l85 238h68l-17 -17v-17q118 68 221 68zM575 1019l-136 -357h34q170 0 187 102l-68 255h-17zM422 917l-34 -119l-17 17h-17l17 -68h17l51 153v17h-17zM235 764
l-17 -17v-34h17l17 51h-17zM337 696l-17 -68h17l17 17v51h-17zM184 679l-17 -68h17l34 68h-34zM473 628v-17h34q153 17 153 51h-17zM711 254h34v-102h-17zM949 135v-34l17 -68h17v34l-17 68h-17zM779 84v-34l51 17v34zM749 1849q38 0 49 -30l4 -16q0 -9 -6 -11l-24 2
l-27 -10v-2l4 -4l19 6q8 -1 8 -4l6 2q35 0 35 -20l4 -5q0 -4 -6 -4l-2 -1v-4q18 -37 30 -72q18 -24 18 -43h-2l2 -2v-2l-2 -7l2 -7l-40 -76q-13 -30 -65 -73q-39 -30 -55 -30h-6l-15 9l-49 -14q-40 0 -89 62q-57 76 -57 101l-2 23v20q0 39 45 106q79 73 124 87l38 17l19 -5z
M575 1555l6 -4l77 18h8l14 -2q51 35 65 66q17 23 37 66v10q-6 21 -10 21q-126 -48 -141 -70q-48 -46 -56 -105z" />
    <glyph glyph-name="ccedilla" unicode="&#xe7;" horiz-adv-x="1024" 
d="M611 1309h17q247 0 374 -204v-17h-34l17 -17v-17q-102 12 -102 34q-397 0 -595 -408l-34 -119l51 -323h51q212 0 476 306h17v-17q-181 -261 -408 -306v-17h17q178 0 442 306l51 -68v-51q0 -55 -255 -255l-17 -17h-17v-34q289 141 289 204h34v-17q-214 -255 -493 -255v-17
h85l68 17h17v-17l-204 -33q-129 0 -272 186v-17l85 -136v-16h-51q-158 108 -187 271l-17 221q0 426 170 544v-17l-102 -170v-17h17q0 162 425 459l-51 -17h-17v17zM424 1241h17v-17l-119 -51q0 34 102 68zM271 1122v-17l-85 -85v17zM67 306v-51l17 -68h17v17l-17 102h-17z
M466 -62h6q6 -3 19 -28h3q7 1 14 22l14 3l3 -3v-19l-17 -35v-8l28 -6l53 6q109 0 109 -76q0 -94 -85 -132l-67 -50q-11 -9 -62 -14l-14 5l-28 -8l-31 3h-22l-20 -6q-17 3 -17 8v14q5 9 90 56q71 33 71 116v8l-5 6l-45 -8q-42 2 -42 14q-18 -9 -39 -9h-11q-20 0 -34 20
q1 18 24.5 62.5t40.5 44.5l5 6h9l8 -6q0 -22 -31 -76l-3 -9l3 -3h3q28 0 59 85zM595 -175v-3q0 -12 11 -28v-14h5v31q-6 14 -16 14zM595 -245l2 -8l-8 -3v-8l3 2h3l8 -2v2q0 12 6 12l2 -3v22l-5 6h-3q-7 0 -8 -20zM589 -295l8 8v6q-6 0 -8 -14z" />
    <glyph glyph-name="eacute" unicode="&#xe9;" horiz-adv-x="1028" 
d="M941 1332l82 -57q-36 -151 -130 -145l-444 -20l-2 -34l84 -6l103 10l16 -19l17 -1l120 10l34 -3l-1 -17l-395 -41l-31 -220l17 -1l462 37l15 -18l-1 -17l-34 3v-17l117 -26l-1 -17q-37 -95 -488 -154l-171 -6l16 -17l-82 -216h-17l10 153l-17 1l-33 -236q509 68 719 54
l83 -23l-1 -34l-34 2l15 -18l-3 -51q-49 -64 -208 -54l-1 -17l136 -9l-3 -34l-791 -116l-17 1q-82 18 -82 53v3l3 51l47 184l-16 18l34 -1l-6 -85l17 -2q10 85 40 82l-16 19l12 169l-34 3l-23 -84l19 16l17 -1l-7 -102l-17 2l3 50l-17 1l-2 -34l-17 1l2 34l54 287l-17 1
l39 82l-16 18l1 17l37 287l16 -18l17 -1l2 34l-11 86l27 152l3 51l17 -2l16 -18l18 16l17 -2l16 -17l18 16l51 -4zM90 589l-8 -119l17 -1l8 118zM651 567h17l-2 -17l-308 -31l-16 19l1 16l154 7l-1 -17zM786 1857q4 -5 4 -15q11 0 14 -15q0 -17 -108 -114q0 -6 -36 -40
q-18 -21 -18 -30q125 130 162 149h2l-2 -10l4 -5q0 -15 -29 -40l11 -4l18 12l2 -2v-4q-6 -6 -9 -21q-89 -83 -126 -129q-74 -80 -81 -126l-4 -6q-36 5 -36 28l-7 6v4l2 7h-2q-25 0 -36 55q25 59 83 120q43 52 156 150zM732 1686v-3h2l16 18h-3zM720 1675v-2l5 4v2zM702 1656
v-3l7 7v2zM696 1651l-3 -6h5v6h-2zM619 1617l16 17h-2q-14 -6 -14 -17z" />
    <glyph glyph-name="egrave" unicode="&#xe8;" horiz-adv-x="1028" 
d="M941 1332l82 -57q-36 -151 -130 -145l-444 -20l-2 -34l84 -6l103 10l16 -19l17 -1l120 10l34 -3l-1 -17l-395 -41l-31 -220l17 -1l462 37l15 -18l-1 -17l-34 3v-17l117 -26l-1 -17q-37 -95 -488 -154l-171 -6l16 -17l-82 -216h-17l10 153l-17 1l-33 -236q509 68 719 54
l83 -23l-1 -34l-34 2l15 -18l-3 -51q-49 -64 -208 -54l-1 -17l136 -9l-3 -34l-791 -116l-17 1q-82 18 -82 53v3l3 51l47 184l-16 18l34 -1l-6 -85l17 -2q10 85 40 82l-16 19l12 169l-34 3l-23 -84l19 16l17 -1l-7 -102l-17 2l3 50l-17 1l-2 -34l-17 1l2 34l54 287l-17 1
l39 82l-16 18l1 17l37 287l16 -18l17 -1l2 34l-11 86l27 152l3 51l17 -2l16 -18l18 16l17 -2l16 -17l18 16l51 -4zM90 589l-8 -119l17 -1l8 118zM651 567h17l-2 -17l-308 -31l-16 19l1 16l154 7l-1 -17zM526 1845h13q17 0 50 -31q74 -46 137 -143l13 -39l-2 -3l-3 3h-13
l3 -13l-3 -18q13 -25 13 -37l-2 -7l2 -16l-5 -8l5 -21v-13h-5l-21 45h-5v-3l5 -18h-2q13 -46 13 -63v-2q0 -4 -19 -13l-7 2l-13 -2h-8q-11 10 -68 161q-65 130 -174 174q-20 0 -39 24q0 31 42 31l23 5l21 -5z" />
    <glyph glyph-name="ecircumflex" unicode="&#xea;" horiz-adv-x="1028" 
d="M941 1332l82 -57q-36 -151 -130 -145l-444 -20l-2 -34l84 -6l103 10l16 -19l17 -1l120 10l34 -3l-1 -17l-395 -41l-31 -220l17 -1l462 37l15 -18l-1 -17l-34 3v-17l117 -26l-1 -17q-37 -95 -488 -154l-171 -6l16 -17l-82 -216h-17l10 153l-17 1l-33 -236q509 68 719 54
l83 -23l-1 -34l-34 2l15 -18l-3 -51q-49 -64 -208 -54l-1 -17l136 -9l-3 -34l-791 -116l-17 1q-82 18 -82 53v3l3 51l47 184l-16 18l34 -1l-6 -85l17 -2q10 85 40 82l-16 19l12 169l-34 3l-23 -84l19 16l17 -1l-7 -102l-17 2l3 50l-17 1l-2 -34l-17 1l2 34l54 287l-17 1
l39 82l-16 18l1 17l37 287l16 -18l17 -1l2 34l-11 86l27 152l3 51l17 -2l16 -18l18 16l17 -2l16 -17l18 16l51 -4zM90 589l-8 -119l17 -1l8 118zM651 567h17l-2 -17l-308 -31l-16 19l1 16l154 7l-1 -17zM823 1842q49 0 61 -211v-51q0 -65 -41 -65q0 -6 -17 -6h-24
q-8 0 -10 30l-3 4h-7q0 -22 -17 -31l-10 3q-15 -23 -34 -23h-4q-7 6 -30 6q-21 5 -21 24v17l-13 102h-7q0 -26 -75 -75q-55 -95 -102 -95h-3l-24 7v-3q0 -17 -48 -21q-27 17 -27 34v4q11 48 163 224q102 95 170 95l14 -3q59 34 109 34z" />
    <glyph glyph-name="edieresis" unicode="&#xeb;" horiz-adv-x="1028" 
d="M941 1332l82 -57q-36 -151 -130 -145l-444 -20l-2 -34l84 -6l103 10l16 -19l17 -1l120 10l34 -3l-1 -17l-395 -41l-31 -220l17 -1l462 37l15 -18l-1 -17l-34 3v-17l117 -26l-1 -17q-37 -95 -488 -154l-171 -6l16 -17l-82 -216h-17l10 153l-17 1l-33 -236q509 68 719 54
l83 -23l-1 -34l-34 2l15 -18l-3 -51q-49 -64 -208 -54l-1 -17l136 -9l-3 -34l-791 -116l-17 1q-82 18 -82 53v3l3 51l47 184l-16 18l34 -1l-6 -85l17 -2q10 85 40 82l-16 19l12 169l-34 3l-23 -84l19 16l17 -1l-7 -102l-17 2l3 50l-17 1l-2 -34l-17 1l2 34l54 287l-17 1
l39 82l-16 18l1 17l37 287l16 -18l17 -1l2 34l-11 86l27 152l3 51l17 -2l16 -18l18 16l17 -2l16 -17l18 16l51 -4zM90 589l-8 -119l17 -1l8 118zM651 567h17l-2 -17l-308 -31l-16 19l1 16l154 7l-1 -17zM871 1807l3 -3l16 3h3l32 -38v-10q-70 -62 -70 -70h3q48 41 77 48
l16 -32l-10 -32l4 3h6l10 -10v-3q-4 -22 -90 -109q-25 -32 -32 -61l-13 -9h-3q-14 0 -51 32q-11 0 -16 32q-16 22 -26 22q-45 49 -45 80v3q126 132 170 148zM503 1803q39 -2 39 -9l-4 -4v-3q12 0 29 -19v-10q-9 -10 -41 -22q-62 -35 -71 -51h3q74 54 125 54l13 -25
q4 0 6 -23q13 0 13 -29q-106 -66 -118 -96q-13 -2 -32 -60l-35 -10q-55 34 -55 67q-5 0 -9 16q-22 0 -55 58l-3 29q77 105 176 134z" />
    <glyph glyph-name="iacute" unicode="&#xed;" horiz-adv-x="481" 
d="M385 1326q-4 -51 64 -51l31 -68l-18 -17h17q-122 -360 -149 -833l-6 -102l17 -17l-1 -17l-18 -17h17l-18 -17l10 -119l-2 -34q-91 -110 -95 -170h-68l-82 34l24 119l-65 68l31 255l17 306l37 51l4 68l-16 17l1 17h34l1 17l-16 17l69 323h-17l18 17l5 102l-16 17l1 17z
M197 1020l-6 -119h17l6 119h-17zM171 850l-6 -102h17l6 102h-17zM145 697l-5 -102h17l5 102h-17zM142 17l-5 -85l35 34l4 51h-34zM565 1857q4 -5 4 -15q11 0 14 -15q0 -17 -108 -114q0 -6 -36 -40q-18 -21 -18 -30q125 130 162 149h2l-2 -10l4 -5q0 -15 -29 -40l11 -4l18 12
l2 -2v-4q-6 -6 -9 -21q-89 -83 -126 -129q-74 -80 -81 -126l-4 -6q-36 5 -36 28l-7 6v4l2 7h-2q-25 0 -36 55q25 59 83 120q43 52 156 150zM511 1686v-3h2l16 18h-3zM499 1675v-2l5 4v2zM481 1656v-3l7 7v2zM475 1651l-3 -6h5v6h-2zM398 1617l16 17h-2q-14 -6 -14 -17z" />
    <glyph glyph-name="igrave" unicode="&#xec;" horiz-adv-x="481" 
d="M385 1326q-4 -51 64 -51l31 -68l-18 -17h17q-122 -360 -149 -833l-6 -102l17 -17l-1 -17l-18 -17h17l-18 -17l10 -119l-2 -34q-91 -110 -95 -170h-68l-82 34l24 119l-65 68l31 255l17 306l37 51l4 68l-16 17l1 17h34l1 17l-16 17l69 323h-17l18 17l5 102l-16 17l1 17z
M197 1020l-6 -119h17l6 119h-17zM171 850l-6 -102h17l6 102h-17zM145 697l-5 -102h17l5 102h-17zM142 17l-5 -85l35 34l4 51h-34zM192 1845h13q17 0 50 -31q74 -46 137 -143l13 -39l-2 -3l-3 3h-13l3 -13l-3 -18q13 -25 13 -37l-2 -7l2 -16l-5 -8l5 -21v-13h-5l-21 45h-5v-3
l5 -18h-2q13 -46 13 -63v-2q0 -4 -19 -13l-7 2l-13 -2h-8q-11 10 -68 161q-65 130 -174 174q-20 0 -39 24q0 31 42 31l23 5l21 -5z" />
    <glyph glyph-name="icircumflex" unicode="&#xee;" horiz-adv-x="481" 
d="M385 1326q-4 -51 64 -51l31 -68l-18 -17h17q-122 -360 -149 -833l-6 -102l17 -17l-1 -17l-18 -17h17l-18 -17l10 -119l-2 -34q-91 -110 -95 -170h-68l-82 34l24 119l-65 68l31 255l17 306l37 51l4 68l-16 17l1 17h34l1 17l-16 17l69 323h-17l18 17l5 102l-16 17l1 17z
M197 1020l-6 -119h17l6 119h-17zM171 850l-6 -102h17l6 102h-17zM145 697l-5 -102h17l5 102h-17zM142 17l-5 -85l35 34l4 51h-34zM521.793 1842q39.1992 0 48.7988 -211v-51q0 -65 -32.7998 -65q0 -6 -13.5996 -6h-19.1992q-6.40039 0 -8 30l-2.40039 4h-5.59961
q0 -22 -13.5996 -31l-8 3q-12 -23 -27.1992 -23h-3.2002q-5.59961 6 -24 6q-16.7998 5 -16.7998 24v17l-10.3994 102h-5.59961q0 -26 -60 -75q-43.999 -95 -81.5986 -95h-2.39941l-19.2002 7v-3q0 -17 -38.3994 -21q-21.5996 17 -21.5996 34v4q8.7998 48 130.398 224
q81.5986 95 135.998 95l11.1992 -3q47.1992 34 87.1992 34z" />
    <glyph glyph-name="idieresis" unicode="&#xef;" horiz-adv-x="481" 
d="M385 1326q-4 -51 64 -51l31 -68l-18 -17h17q-122 -360 -149 -833l-6 -102l17 -17l-1 -17l-18 -17h17l-18 -17l10 -119l-2 -34q-91 -110 -95 -170h-68l-82 34l24 119l-65 68l31 255l17 306l37 51l4 68l-16 17l1 17h34l1 17l-16 17l69 323h-17l18 17l5 102l-16 17l1 17z
M197 1020l-6 -119h17l6 119h-17zM171 850l-6 -102h17l6 102h-17zM145 697l-5 -102h17l5 102h-17zM142 17l-5 -85l35 34l4 51h-34zM592 1807l3 -3l16 3h3l32 -38v-10q-70 -62 -70 -70h3q48 41 77 48l16 -32l-10 -32l4 3h6l10 -10v-3q-4 -22 -90 -109q-25 -32 -32 -61l-13 -9
h-3q-14 0 -51 32q-11 0 -16 32q-16 22 -26 22q-45 49 -45 80v3q126 132 170 148zM224 1803q39 -2 39 -9l-4 -4v-3q12 0 29 -19v-10q-9 -10 -41 -22q-62 -35 -71 -51h3q74 54 125 54l13 -25q4 0 6 -23q13 0 13 -29q-106 -66 -118 -96q-13 -2 -32 -60l-35 -10q-55 34 -55 67
q-5 0 -9 16q-22 0 -55 58l-3 29q77 105 176 134z" />
    <glyph glyph-name="ntilde" unicode="&#xf1;" horiz-adv-x="1283" 
d="M346 1324l119 -102q0 51 34 51h17l238 -612v-34h-17l-34 102h-17v-34l119 -289h17q68 442 196 923l51 -34l51 17l102 -51v-17q-51 0 -51 -68h17l17 -17h17l17 85h34v-17l-17 -17l17 -17v-17q-128 -393 -230 -1127h-34l34 272q-34 0 -102 -323q-63 -51 -119 -51v-34h-17
q0 34 -68 34v119q0 77 -340 850h-17q-68 -303 -119 -816l-17 17q-102 -30 -102 -85h-34q-34 64 -34 221h-17v-153h-34l-17 85q0 462 204 1122zM108 899v-17l17 -17l-17 -17v-34h17l17 68l-17 17h-17zM754 627q44 0 68 -136v-17h-17zM1034 1851l15 -23l-3 -2l3 -3h2l3 3l3 -3
v-2q0 -21 -18 -50q0 -11 -20 -40h2l38 43h3v-3l-3 -12q5 0 8 -15q-24 -45 -58 -90l-11 -17l3 -3h5q0 11 18 25h2v-2q-35 -42 -35 -50l12 10h3v-2q-45 -65 -104 -127l3 -3v-2q0 -23 -61 -45l-12 -2q-47 0 -114 99l-33 37q-36 -45 -55 -94l-10 -5h-5l-8 5h-3q-4 0 -30 -52
l-2 -3h-3q-32 0 -53 50q-27 0 -48 57q0 9 33 57l55 77q35 54 79 92h5q17 0 55 -69q37 -38 58 -105l3 -2h5q51 0 159 139q26 26 71 85z" />
    <glyph glyph-name="oacute" unicode="&#xf3;" horiz-adv-x="1250" 
d="M762 1337q200 0 374 -119l-17 -17v-17l68 -102h-34l-17 17h-17l51 -374h17q0 85 34 85v-68q0 -96 -170 -442h17q-120 -165 -357 -306l-85 -17h-17q-404 0 -510 323l-68 102l17 17l-17 119v34q0 141 272 493v-17q-125 -168 -204 -374v-17h17q62 249 459 629l-119 -68h-17
q0 78 323 119zM677 1048l-17 17v-17l17 -17l-119 -102q-141 0 -272 -476q0 -136 153 -238h17q186 0 425 391q85 186 85 272v136q0 47 -170 68h-17l-17 -17h-17v17zM1170 997h34v-85h-34v85zM303 810l-51 -102h17l51 102h-17zM966 708l-68 -170h51l51 119l-17 51h-17z
M1085 640l-17 -51v-34h17l17 68v17h-17zM82 572v-136h17v136h-17zM881 521l-68 -85h17l68 85h-17zM337 147v-17l85 -51v17zM1070 1857q4 -5 4 -15q11 0 14 -15q0 -17 -108 -114q0 -6 -36 -40q-18 -21 -18 -30q125 130 162 149h2l-2 -10l4 -5q0 -15 -29 -40l11 -4l18 12l2 -2
v-4q-6 -6 -9 -21q-89 -83 -126 -129q-74 -80 -81 -126l-4 -6q-36 5 -36 28l-7 6v4l2 7h-2q-25 0 -36 55q25 59 83 120q43 52 156 150zM1016 1686v-3h2l16 18h-3zM1004 1675v-2l5 4v2zM986 1656v-3l7 7v2zM980 1651l-3 -6h5v6h-2zM903 1617l16 17h-2q-14 -6 -14 -17z" />
    <glyph glyph-name="ograve" unicode="&#xf2;" horiz-adv-x="1250" 
d="M762 1337q200 0 374 -119l-17 -17v-17l68 -102h-34l-17 17h-17l51 -374h17q0 85 34 85v-68q0 -96 -170 -442h17q-120 -165 -357 -306l-85 -17h-17q-404 0 -510 323l-68 102l17 17l-17 119v34q0 141 272 493v-17q-125 -168 -204 -374v-17h17q62 249 459 629l-119 -68h-17
q0 78 323 119zM677 1048l-17 17v-17l17 -17l-119 -102q-141 0 -272 -476q0 -136 153 -238h17q186 0 425 391q85 186 85 272v136q0 47 -170 68h-17l-17 -17h-17v17zM1170 997h34v-85h-34v85zM303 810l-51 -102h17l51 102h-17zM966 708l-68 -170h51l51 119l-17 51h-17z
M1085 640l-17 -51v-34h17l17 68v17h-17zM82 572v-136h17v136h-17zM881 521l-68 -85h17l68 85h-17zM337 147v-17l85 -51v17zM731 1845h13q17 0 50 -31q74 -46 137 -143l13 -39l-2 -3l-3 3h-13l3 -13l-3 -18q13 -25 13 -37l-2 -7l2 -16l-5 -8l5 -21v-13h-5l-21 45h-5v-3l5 -18
h-2q13 -46 13 -63v-2q0 -4 -19 -13l-7 2l-13 -2h-8q-11 10 -68 161q-65 130 -174 174q-20 0 -39 24q0 31 42 31l23 5l21 -5z" />
    <glyph glyph-name="ocircumflex" unicode="&#xf4;" horiz-adv-x="1250" 
d="M762 1337q200 0 374 -119l-17 -17v-17l68 -102h-34l-17 17h-17l51 -374h17q0 85 34 85v-68q0 -96 -170 -442h17q-120 -165 -357 -306l-85 -17h-17q-404 0 -510 323l-68 102l17 17l-17 119v34q0 141 272 493v-17q-125 -168 -204 -374v-17h17q62 249 459 629l-119 -68h-17
q0 78 323 119zM677 1048l-17 17v-17l17 -17l-119 -102q-141 0 -272 -476q0 -136 153 -238h17q186 0 425 391q85 186 85 272v136q0 47 -170 68h-17l-17 -17h-17v17zM1170 997h34v-85h-34v85zM303 810l-51 -102h17l51 102h-17zM966 708l-68 -170h51l51 119l-17 51h-17z
M1085 640l-17 -51v-34h17l17 68v17h-17zM82 572v-136h17v136h-17zM881 521l-68 -85h17l68 85h-17zM337 147v-17l85 -51v17zM1041 1842q49 0 61 -211v-51q0 -65 -41 -65q0 -6 -17 -6h-24q-8 0 -10 30l-3 4h-7q0 -22 -17 -31l-10 3q-15 -23 -34 -23h-4q-7 6 -30 6
q-21 5 -21 24v17l-13 102h-7q0 -26 -75 -75q-55 -95 -102 -95h-3l-24 7v-3q0 -17 -48 -21q-27 17 -27 34v4q11 48 163 224q102 95 170 95l14 -3q59 34 109 34z" />
    <glyph glyph-name="odieresis" unicode="&#xf6;" horiz-adv-x="1250" 
d="M762 1337q200 0 374 -119l-17 -17v-17l68 -102h-34l-17 17h-17l51 -374h17q0 85 34 85v-68q0 -96 -170 -442h17q-120 -165 -357 -306l-85 -17h-17q-404 0 -510 323l-68 102l17 17l-17 119v34q0 141 272 493v-17q-125 -168 -204 -374v-17h17q62 249 459 629l-119 -68h-17
q0 78 323 119zM677 1048l-17 17v-17l17 -17l-119 -102q-141 0 -272 -476q0 -136 153 -238h17q186 0 425 391q85 186 85 272v136q0 47 -170 68h-17l-17 -17h-17v17zM1170 997h34v-85h-34v85zM303 810l-51 -102h17l51 102h-17zM966 708l-68 -170h51l51 119l-17 51h-17z
M1085 640l-17 -51v-34h17l17 68v17h-17zM82 572v-136h17v136h-17zM881 521l-68 -85h17l68 85h-17zM337 147v-17l85 -51v17zM1110 1807l3 -3l16 3h3l32 -38v-10q-70 -62 -70 -70h3q48 41 77 48l16 -32l-10 -32l4 3h6l10 -10v-3q-4 -22 -90 -109q-25 -32 -32 -61l-13 -9h-3
q-14 0 -51 32q-11 0 -16 32q-16 22 -26 22q-45 49 -45 80v3q126 132 170 148zM742 1803q39 -2 39 -9l-4 -4v-3q12 0 29 -19v-10q-9 -10 -41 -22q-62 -35 -71 -51h3q74 54 125 54l13 -25q4 0 6 -23q13 0 13 -29q-106 -66 -118 -96q-13 -2 -32 -60l-35 -10q-55 34 -55 67
q-5 0 -9 16q-22 0 -55 58l-3 29q77 105 176 134z" />
    <glyph glyph-name="otilde" unicode="&#xf5;" horiz-adv-x="1250" 
d="M762 1337q200 0 374 -119l-17 -17v-17l68 -102h-34l-17 17h-17l51 -374h17q0 85 34 85v-68q0 -96 -170 -442h17q-120 -165 -357 -306l-85 -17h-17q-404 0 -510 323l-68 102l17 17l-17 119v34q0 141 272 493v-17q-125 -168 -204 -374v-17h17q62 249 459 629l-119 -68h-17
q0 78 323 119zM677 1048l-17 17v-17l17 -17l-119 -102q-141 0 -272 -476q0 -136 153 -238h17q186 0 425 391q85 186 85 272v136q0 47 -170 68h-17l-17 -17h-17v17zM1170 997h34v-85h-34v85zM303 810l-51 -102h17l51 102h-17zM966 708l-68 -170h51l51 119l-17 51h-17z
M1085 640l-17 -51v-34h17l17 68v17h-17zM82 572v-136h17v136h-17zM881 521l-68 -85h17l68 85h-17zM337 147v-17l85 -51v17zM1145 1851l15 -23l-3 -2l3 -3h2l3 3l3 -3v-2q0 -21 -18 -50q0 -11 -20 -40h2l38 43h3v-3l-3 -12q5 0 8 -15q-24 -45 -58 -90l-11 -17l3 -3h5
q0 11 18 25h2v-2q-35 -42 -35 -50l12 10h3v-2q-45 -65 -104 -127l3 -3v-2q0 -23 -61 -45l-12 -2q-47 0 -114 99l-33 37q-36 -45 -55 -94l-10 -5h-5l-8 5h-3q-4 0 -30 -52l-2 -3h-3q-32 0 -53 50q-27 0 -48 57q0 9 33 57l55 77q35 54 79 92h5q17 0 55 -69q37 -38 58 -105
l3 -2h5q51 0 159 139q26 26 71 85z" />
    <glyph glyph-name="uacute" unicode="&#xfa;" horiz-adv-x="1045" 
d="M288 1330l34 -51l-17 -85l17 -17h17l17 85h34l17 -51q-136 -490 -136 -765q17 -187 68 -187l391 442l17 85v476l34 34q34 0 34 -68h17q0 68 85 68l34 -68l-17 -85q34 0 34 85h34l17 -17h17l-85 -1224l-17 -68q-68 0 -68 -68h-68l17 170h-34v-102l-51 -51v17l17 170
q-51 0 -51 68h-17l-289 -136l-136 34v-17q-176 0 -238 510q68 765 136 765v17h17v-68h-34v-34l17 -17v-17h-17l17 -51l-51 -85h17l17 17l-51 -306v-68h17q54 663 187 663zM84 650l-17 -17v-136h17l17 153h-17zM611 514l-119 -136h17l119 136h-17zM118 242v-34l17 -51h17v34
l-17 51h-17zM237 157v-17q0 -59 153 -102h34v17q-98 1 -187 102zM829 1857q4 -5 4 -15q11 0 14 -15q0 -17 -108 -114q0 -6 -36 -40q-18 -21 -18 -30q125 130 162 149h2l-2 -10l4 -5q0 -15 -29 -40l11 -4l18 12l2 -2v-4q-6 -6 -9 -21q-89 -83 -126 -129q-74 -80 -81 -126
l-4 -6q-36 5 -36 28l-7 6v4l2 7h-2q-25 0 -36 55q25 59 83 120q43 52 156 150zM775 1686v-3h2l16 18h-3zM763 1675v-2l5 4v2zM745 1656v-3l7 7v2zM739 1651l-3 -6h5v6h-2zM662 1617l16 17h-2q-14 -6 -14 -17z" />
    <glyph glyph-name="ugrave" unicode="&#xf9;" horiz-adv-x="1045" 
d="M288 1330l34 -51l-17 -85l17 -17h17l17 85h34l17 -51q-136 -490 -136 -765q17 -187 68 -187l391 442l17 85v476l34 34q34 0 34 -68h17q0 68 85 68l34 -68l-17 -85q34 0 34 85h34l17 -17h17l-85 -1224l-17 -68q-68 0 -68 -68h-68l17 170h-34v-102l-51 -51v17l17 170
q-51 0 -51 68h-17l-289 -136l-136 34v-17q-176 0 -238 510q68 765 136 765v17h17v-68h-34v-34l17 -17v-17h-17l17 -51l-51 -85h17l17 17l-51 -306v-68h17q54 663 187 663zM84 650l-17 -17v-136h17l17 153h-17zM611 514l-119 -136h17l119 136h-17zM118 242v-34l17 -51h17v34
l-17 51h-17zM237 157v-17q0 -59 153 -102h34v17q-98 1 -187 102zM506 1845h13q17 0 50 -31q74 -46 137 -143l13 -39l-2 -3l-3 3h-13l3 -13l-3 -18q13 -25 13 -37l-2 -7l2 -16l-5 -8l5 -21v-13h-5l-21 45h-5v-3l5 -18h-2q13 -46 13 -63v-2q0 -4 -19 -13l-7 2l-13 -2h-8
q-11 10 -68 161q-65 130 -174 174q-20 0 -39 24q0 31 42 31l23 5l21 -5z" />
    <glyph glyph-name="ucircumflex" unicode="&#xfb;" horiz-adv-x="1045" 
d="M288 1330l34 -51l-17 -85l17 -17h17l17 85h34l17 -51q-136 -490 -136 -765q17 -187 68 -187l391 442l17 85v476l34 34q34 0 34 -68h17q0 68 85 68l34 -68l-17 -85q34 0 34 85h34l17 -17h17l-85 -1224l-17 -68q-68 0 -68 -68h-68l17 170h-34v-102l-51 -51v17l17 170
q-51 0 -51 68h-17l-289 -136l-136 34v-17q-176 0 -238 510q68 765 136 765v17h17v-68h-34v-34l17 -17v-17h-17l17 -51l-51 -85h17l17 17l-51 -306v-68h17q54 663 187 663zM84 650l-17 -17v-136h17l17 153h-17zM611 514l-119 -136h17l119 136h-17zM118 242v-34l17 -51h17v34
l-17 51h-17zM237 157v-17q0 -59 153 -102h34v17q-98 1 -187 102zM841 1842q49 0 61 -211v-51q0 -65 -41 -65q0 -6 -17 -6h-24q-8 0 -10 30l-3 4h-7q0 -22 -17 -31l-10 3q-15 -23 -34 -23h-4q-7 6 -30 6q-21 5 -21 24v17l-13 102h-7q0 -26 -75 -75q-55 -95 -102 -95h-3l-24 7
v-3q0 -17 -48 -21q-27 17 -27 34v4q11 48 163 224q102 95 170 95l14 -3q59 34 109 34z" />
    <glyph glyph-name="udieresis" unicode="&#xfc;" horiz-adv-x="1045" 
d="M288 1330l34 -51l-17 -85l17 -17h17l17 85h34l17 -51q-136 -490 -136 -765q17 -187 68 -187l391 442l17 85v476l34 34q34 0 34 -68h17q0 68 85 68l34 -68l-17 -85q34 0 34 85h34l17 -17h17l-85 -1224l-17 -68q-68 0 -68 -68h-68l17 170h-34v-102l-51 -51v17l17 170
q-51 0 -51 68h-17l-289 -136l-136 34v-17q-176 0 -238 510q68 765 136 765v17h17v-68h-34v-34l17 -17v-17h-17l17 -51l-51 -85h17l17 17l-51 -306v-68h17q54 663 187 663zM84 650l-17 -17v-136h17l17 153h-17zM611 514l-119 -136h17l119 136h-17zM118 242v-34l17 -51h17v34
l-17 51h-17zM237 157v-17q0 -59 153 -102h34v17q-98 1 -187 102zM851 1807l3 -3l16 3h3l32 -38v-10q-70 -62 -70 -70h3q48 41 77 48l16 -32l-10 -32l4 3h6l10 -10v-3q-4 -22 -90 -109q-25 -32 -32 -61l-13 -9h-3q-14 0 -51 32q-11 0 -16 32q-16 22 -26 22q-45 49 -45 80v3
q126 132 170 148zM483 1803q39 -2 39 -9l-4 -4v-3q12 0 29 -19v-10q-9 -10 -41 -22q-62 -35 -71 -51h3q74 54 125 54l13 -25q4 0 6 -23q13 0 13 -29q-106 -66 -118 -96q-13 -2 -32 -60l-35 -10q-55 34 -55 67q-5 0 -9 16q-22 0 -55 58l-3 29q77 105 176 134z" />
    <glyph glyph-name="dagger" unicode="&#x2020;" horiz-adv-x="1139" 
 />
    <glyph glyph-name="degree" unicode="&#xb0;" horiz-adv-x="819" 
 />
    <glyph glyph-name="cent" unicode="&#xa2;" horiz-adv-x="1139" 
 />
    <glyph glyph-name="sterling" unicode="&#xa3;" horiz-adv-x="1139" 
 />
    <glyph glyph-name="section" unicode="&#xa7;" horiz-adv-x="1139" 
 />
    <glyph glyph-name="bullet" unicode="&#x2022;" horiz-adv-x="717" 
 />
    <glyph glyph-name="paragraph" unicode="&#xb6;" horiz-adv-x="1100" 
 />
    <glyph glyph-name="germandbls" unicode="&#xdf;" horiz-adv-x="1185" 
d="M834 1416q78 -42 78 -74l-144 -34l91 -22l76 -8q39 0 60 -120l4 -13l-13 -46h4q10 -2 42 -69v-14q0 -28 -125 -198l-105 -166h4l55 14h120q108 0 147 -142q0 -53 19 -83l-5 -32l14 -56q0 -168 -313 -390q-149 -74 -184 -74h-32q-112 0 -147 161l-5 4v5l5 14
q-65 74 -65 147v18q0 37 51 46h32q19 -12 60 -69l27 -4q103 -75 335 152l17 72l-302 -100h-14l-28 23v4l5 33q-23 0 10 -23q0 32 42 55v5l-37 -10q-26 0 -60 51v9q0 17 19 42v4h-10q-70 0 -63 95v4q0 42 299 413l-42 46q-294 -208 -401 -457q-49 -172 -119 -607l4 -36
q-6 0 -13 -18l4 -28q0 -25 -18 -32h-32q-20 9 -33 46q-41 20 -41 64v27h-23q-22 0 -69 115v9q0 25 83 350q27 213 69 354q26 34 46 83q66 103 165 212q275 225 345 225q9 12 33 18l50 -4zM342 869q94 123 147 170l9 14h-5q-122 -106 -151 -184zM319 832q9 0 18 32
q-12 0 -18 -32zM682 455l5 -14h9q201 64 239 64v5h-60q-52 0 -193 -51v-4z" />
    <glyph glyph-name="registered" unicode="&#xae;" horiz-adv-x="1509" 
 />
    <glyph glyph-name="copyright" unicode="&#xa9;" horiz-adv-x="1509" 
 />
    <glyph glyph-name="trademark" unicode="&#x2122;" horiz-adv-x="2048" 
 />
    <glyph glyph-name="acute" unicode="&#xb4;" horiz-adv-x="480" 
d="M351 1857q4 -5 4 -15q11 0 14 -15q0 -17 -108 -114q0 -6 -36 -40q-18 -21 -18 -30q125 130 162 149h2l-2 -10l4 -5q0 -15 -29 -40l11 -4l18 12l2 -2v-4q-6 -6 -9 -21q-89 -83 -126 -129q-74 -80 -81 -126l-4 -6q-36 5 -36 28l-7 6v4l2 7h-2q-25 0 -36 55q25 59 83 120
q43 52 156 150zM297 1686v-3h2l16 18h-3zM285 1675v-2l5 4v2zM267 1656v-3l7 7v2zM261 1651l-3 -6h5v6h-2zM184 1617l16 17h-2q-14 -6 -14 -17z" />
    <glyph glyph-name="dieresis" unicode="&#xa8;" horiz-adv-x="866" 
d="M705 1807l3 -3l16 3h3l32 -38v-10q-70 -62 -70 -70h3q48 41 77 48l16 -32l-10 -32l4 3h6l10 -10v-3q-4 -22 -90 -109q-25 -32 -32 -61l-13 -9h-3q-14 0 -51 32q-11 0 -16 32q-16 22 -26 22q-45 49 -45 80v3q126 132 170 148zM337 1803q39 -2 39 -9l-4 -4v-3q12 0 29 -19
v-10q-9 -10 -41 -22q-62 -35 -71 -51h3q74 54 125 54l13 -25q4 0 6 -23q13 0 13 -29q-106 -66 -118 -96q-13 -2 -32 -60l-35 -10q-55 34 -55 67q-5 0 -9 16q-22 0 -55 58l-3 29q77 105 176 134z" />
    <glyph glyph-name="notequal" unicode="&#x2260;" horiz-adv-x="1124" 
 />
    <glyph glyph-name="AE" unicode="&#xc6;" horiz-adv-x="1688" 
d="M821 589l-8 -119l17 -1l8 118zM1294 559h17l-2 -17l-220 -23l-16 19l1 16l154 7l-1 -17zM751 1019l-171 -340h34q128 -17 167 85l-13 255h-17zM608 645l-3 -17l-7 -17q156 17 162 51h-17zM961 135l-6 -34l6 -68h17l5 34l-5 68h-17zM782 84l-6 -34l54 17l6 34zM793 182
l15 -2q0 53 -15 2zM800 409l-1 -2h3zM1031 1324l44 -3l509 3l82 -57q-36 -151 -130 -145l-406 -12l-2 -34l84 -6l65 2l16 -19l17 -1l120 10l34 -3l-1 -17l-357 -33l-7 -220l43 -1l374 29l15 -18l-1 -17l-34 3v-17l117 -26l-1 -17q-37 -95 -400 -146l-138 -5l14 -82l-25 -51
v-102l-20 -17h17l-20 -17l-3 -32q328 43 512 31l83 -23l-1 -34l-34 2l15 -18l-3 -51q-49 -64 -208 -54l-1 -17l136 -9l-3 -34l-557 -86l7 -65h-34q9 51 -25 51l-3 -17l8 -51h-17l-14 17h-17q-8 -51 -42 -51l-32 97q-15 3 -27 8l-6 -38h-17v47q-26 15 -26 34v3l3 51l20 358
h17l13 -15l15 82l6 35l-347 -68l-5 -34l124 34l24 -34l88 17l-5 -34q-327 -47 -345 -153q-76 -187 -142 -238l-5 -34h-51l-14 17h-17l-3 -17l-46 34l51 102h-17q-51 0 -73 -136l-29 34l34 102l-42 51l406 697h17q-9 -51 25 -51l31 85l-20 -17h-17l12 68l31 85l14 -17h17
l-14 17l3 17l45 68h17l14 -17h17l3 17q6 34 -45 34l84 221h68l-20 -17l-3 -17q129 68 232 68q2 -51 127 -51z" />
    <glyph glyph-name="Oslash" unicode="&#xd8;" horiz-adv-x="1250" 
d="M1178 997h34v-85h-34v85zM311 810l-51 -102h17l51 102h-17zM974 708l-68 -170h51l51 119l-17 51h-17zM1093 640l-17 -51v-34h17l17 68v17h-17zM90 572v-136h17v136h-17zM889 521l-73 -131h17l73 131h-17zM779 1122l-49 -116l-2 -17l17 -1l48 117l3 17h-17zM536 605
l-48 -117l-17 1l4 34l-17 1l-4 -34l14 -18l-18 -15l17 -2l-139 -281l-2 -17l17 -1l381 799l1 17zM663 1012h-68q-128 21 -330 -538q29 -85 63 -142zM959 1040l-92 -161l17 -1l-303 -599l-17 1l-61 -63l63 113l2 17l-17 1l-70 -132q184 -79 408 390q85 186 85 272v136
q0 14 -15 26zM219 112q-75 74 -112 188l-68 102l17 17l-17 119v34q0 141 272 493v-17q-125 -168 -204 -374v-17h17q62 249 459 629l-119 -68h-17q0 78 323 119q38 0 76 -4q8 18 13 38l12 -12q10 -7 16 55q59 42 98 42h7l23 -34l28 -7l-7 -2l-25 -83l13 -10l46 12l25 69
l49 -12l-51 -80l-21 -48q37 -19 72 -43l-17 -17v-17l68 -102h-34l-17 17h-17l51 -374h17q0 85 34 85v-68q0 -96 -170 -442h17q-120 -165 -357 -306l-85 -17h-17q-126 0 -223 31q-29 -73 -53 -141l-70 -13q-87 122 -76 209zM682 1051l-14 14v-17l9 -9z" />
    <glyph glyph-name="infinity" unicode="&#x221e;" horiz-adv-x="1460" 
 />
    <glyph glyph-name="plusminus" unicode="&#xb1;" horiz-adv-x="1124" 
 />
    <glyph glyph-name="lessequal" unicode="&#x2264;" horiz-adv-x="1124" 
 />
    <glyph glyph-name="greaterequal" unicode="&#x2265;" horiz-adv-x="1124" 
 />
    <glyph glyph-name="yen" unicode="&#xa5;" horiz-adv-x="1139" 
 />
    <glyph glyph-name="mu" unicode="&#xb5;" horiz-adv-x="1180" 
 />
    <glyph glyph-name="partialdiff" unicode="&#x2202;" horiz-adv-x="1012" 
 />
    <glyph glyph-name="summation" unicode="&#x2211;" horiz-adv-x="1460" 
 />
    <glyph glyph-name="product" unicode="&#x220f;" horiz-adv-x="1686" 
 />
    <glyph glyph-name="glyph155" horiz-adv-x="1124" 
 />
    <glyph glyph-name="integral" unicode="&#x222b;" horiz-adv-x="561" 
 />
    <glyph glyph-name="ordfeminine" unicode="&#xaa;" horiz-adv-x="652" 
d="M398 1410q6 -28 75 -28l75 -327h65v-10l-56 -9v-9q28 0 28 -19h75v-9q0 -22 -93 -38l18 -56l-9 -28l9 -56l-9 -9h9l-9 -10l9 -112v-56l-9 9h-9l28 -140h-19q0 28 -19 28v-9l10 -28h-10l-9 9h-9q0 -28 -19 -28l-47 159h-9v-38h-9l-19 113l28 -19v9q-8 84 -28 84l9 10v28
h-19v-28h-9v37l9 10h-9l-9 -10v38h9l9 -10h10l-10 10v56l-205 -47v-19l65 19l38 -9l46 9v-19q-196 -35 -196 -93q-25 -103 -56 -131v-19h-28l-9 10h-10v-10l-28 19l19 56h-10q-28 0 -28 -75l-18 19l9 56l-28 28l159 383h9q0 -28 19 -28l9 47l-9 -9h-9v37l9 47l9 -9h10l-10 9
v9l19 38h9l10 -10h9v10q0 18 -28 18l47 131h37l-9 -9v-9q65 37 121 37zM342 1195l-74 -196h18q94 0 103 56l-37 140h-10zM258 1139l-19 -66l-9 10h-9l9 -38h9l29 84v10h-10zM155 1055l-9 -10v-18h9l10 28h-10zM211 1017l-9 -37h9l10 9v28h-10zM127 1008l-9 -38h9l19 38h-19z
M286 980v-10h19q84 10 84 29h-9zM417 774h19v-56h-10zM548 709v-19l9 -37h10v18l-10 38h-9zM455 681v-19l28 9v19z" />
    <glyph glyph-name="ordmasculine" unicode="&#xba;" horiz-adv-x="698" 
d="M425 1337q110 0 206 -65l-10 -10v-9l38 -56h-19l-9 9h-10l28 -206h10q0 47 19 47v-37q0 -53 -94 -243h9q-66 -91 -196 -169l-47 -9h-9q-222 0 -281 178l-37 56l9 9l-9 66v18q0 78 150 271v-9q-69 -92 -113 -206v-9h10q34 137 252 346l-65 -37h-10q0 43 178 65zM378 1178
l-9 9v-9l9 -9l-65 -56q-78 0 -150 -262q0 -75 84 -131h10q102 0 234 215q46 102 46 150v74q0 26 -93 38h-10l-9 -10h-9v10zM649 1150h19v-47h-19v47zM173 1047l-28 -56h9l28 56h-9zM537 991l-37 -93h28l28 65l-9 28h-10zM603 954l-10 -28v-19h10l9 37v10h-9zM51 916v-74h9
v74h-9zM491 888l-38 -46h9l38 46h-9zM191 683v-10l47 -28v10z" />
    <glyph glyph-name="Omega" unicode="&#x2126;" horiz-adv-x="1573" 
 />
    <glyph glyph-name="ae" unicode="&#xe6;" horiz-adv-x="1688" 
d="M821 589l-8 -119l17 -1l8 118zM1294 559h17l-2 -17l-220 -23l-16 19l1 16l154 7l-1 -17zM751 1019l-171 -340h34q128 -17 167 85l-13 255h-17zM608 645l-3 -17l-7 -17q156 17 162 51h-17zM961 135l-6 -34l6 -68h17l5 34l-5 68h-17zM782 84l-6 -34l54 17l6 34zM793 182
l15 -2q0 53 -15 2zM800 409l-1 -2h3zM1031 1324l44 -3l509 3l82 -57q-36 -151 -130 -145l-406 -12l-2 -34l84 -6l65 2l16 -19l17 -1l120 10l34 -3l-1 -17l-357 -33l-7 -220l43 -1l374 29l15 -18l-1 -17l-34 3v-17l117 -26l-1 -17q-37 -95 -400 -146l-138 -5l14 -82l-25 -51
v-102l-20 -17h17l-20 -17l-3 -32q328 43 512 31l83 -23l-1 -34l-34 2l15 -18l-3 -51q-49 -64 -208 -54l-1 -17l136 -9l-3 -34l-557 -86l7 -65h-34q9 51 -25 51l-3 -17l8 -51h-17l-14 17h-17q-8 -51 -42 -51l-32 97q-15 3 -27 8l-6 -38h-17v47q-26 15 -26 34v3l3 51l20 358
h17l13 -15l15 82l6 35l-347 -68l-5 -34l124 34l24 -34l88 17l-5 -34q-327 -47 -345 -153q-76 -187 -142 -238l-5 -34h-51l-14 17h-17l-3 -17l-46 34l51 102h-17q-51 0 -73 -136l-29 34l34 102l-42 51l406 697h17q-9 -51 25 -51l31 85l-20 -17h-17l12 68l31 85l14 -17h17
l-14 17l3 17l45 68h17l14 -17h17l3 17q6 34 -45 34l84 221h68l-20 -17l-3 -17q129 68 232 68q2 -51 127 -51z" />
    <glyph glyph-name="oslash" unicode="&#xf8;" horiz-adv-x="1250" 
d="M1178 997h34v-85h-34v85zM311 810l-51 -102h17l51 102h-17zM974 708l-68 -170h51l51 119l-17 51h-17zM1093 640l-17 -51v-34h17l17 68v17h-17zM90 572v-136h17v136h-17zM889 521l-73 -131h17l73 131h-17zM779 1122l-49 -116l-2 -17l17 -1l48 117l3 17h-17zM536 605
l-48 -117l-17 1l4 34l-17 1l-4 -34l14 -18l-18 -15l17 -2l-139 -281l-2 -17l17 -1l381 799l1 17zM663 1012h-68q-128 21 -330 -538q29 -85 63 -142zM959 1040l-92 -161l17 -1l-303 -599l-17 1l-61 -63l63 113l2 17l-17 1l-70 -132q184 -79 408 390q85 186 85 272v136
q0 14 -15 26zM219 112q-75 74 -112 188l-68 102l17 17l-17 119v34q0 141 272 493v-17q-125 -168 -204 -374v-17h17q62 249 459 629l-119 -68h-17q0 78 323 119q38 0 76 -4q8 18 13 38l12 -12q10 -7 16 55q59 42 98 42h7l23 -34l28 -7l-7 -2l-25 -83l13 -10l46 12l25 69
l49 -12l-51 -80l-21 -48q37 -19 72 -43l-17 -17v-17l68 -102h-34l-17 17h-17l51 -374h17q0 85 34 85v-68q0 -96 -170 -442h17q-120 -165 -357 -306l-85 -17h-17q-126 0 -223 31q-29 -73 -53 -141l-70 -13q-87 122 -76 209zM682 1051l-14 14v-17l9 -9z" />
    <glyph glyph-name="questiondown" unicode="&#xbf;" horiz-adv-x="1417" 
d="M1216 574l-3 -51q-184 -170 -282 -170l1 17q2 28 106 68l124 85h-34l35 17zM260 221h-17l-2 -34h17l105 51l-2 -34h-34l-2 -34h170l214 8q218 7 305 145l126 119h17q48 -62 51 0q102 0 97 -85l-36 -34q48 0 69 -75l-8 -173q-67 99 -255 -2q101 -182 -599 -226h-17
q-419 17 -419 101v1q-65 73 -65 157q0 85 68 183q196 194 546 323l1 17l-16 17q3 51 123 68l1 17h-51l-18 -17l-16 17l-18 -17l4 68l138 34l-1 -17l52 17q134 -31 133 -68q-54 -40 -62 -170l-72 -68h17l-35 -17q-233 -61 -509 -272zM1030 17h-17q-263 -102 -533 -102
q-257 0 -387 68l-2 -34q145 -51 337 -51h51q374 0 551 119zM598 187h-17l1 17l69 17q-2 -34 -53 -34zM525 623l1 17h-51q-159 -102 -210 -102l-1 -17h34zM801 652l6 31h-97l-74 -51h32zM747 983l-3 16l17 20l-4 16l-17 -20l-41 -9l-84 82l-31 43l50 60l-41 -9l-48 23l-8 32
l298 111l25 -11l7 -32q-82 -17 -75 -48l4 -16l123 26l22 -95l-17 -20l4 -15l20 4l59 29l3 -16q-36 -123 -263 -171z" />
    <glyph glyph-name="exclamdown" unicode="&#xa1;" horiz-adv-x="552" 
d="M305 -182l-49 -49l-7 69l-49 -49l-6 69l-99 -75l90 266l-10 82l-86 -301l-7 69v20q93 387 93 629v20q0 122 -74 344l19 62q45 0 55 -81h19v40h74l37 -101l19 20h18q130 -103 130 -345v-40l-37 -406h-19l-36 -81l-38 -40v60h-18v-81l37 -40zM383 127h-36l18 -81h18v81z
M117 1225l35 73l-16 8l-35 -73zM437 457v102l-19 101h-19v-62l19 -141h19zM462 745q-55 183 -92 183zM92 1039l-15 17l1 17l102 17l1 17l-70 21l1 17h34l1 17h-34l2 17q94 116 96 149h-34q8 136 229 136l51 -17l-4 -51q-51 0 -52 -34l65 -34l-41 -119l32 -34
q-5 -84 -365 -136z" />
    <glyph glyph-name="logicalnot" unicode="&#xac;" horiz-adv-x="1196" 
 />
    <glyph glyph-name="radical" unicode="&#x221a;" horiz-adv-x="1124" 
 />
    <glyph glyph-name="florin" unicode="&#x192;" horiz-adv-x="1139" 
 />
    <glyph glyph-name="approxequal" unicode="&#x2248;" horiz-adv-x="1124" 
 />
    <glyph glyph-name="Delta" unicode="&#x2206;" horiz-adv-x="1253" 
 />
    <glyph glyph-name="guillemotleft" unicode="&#xab;" horiz-adv-x="1003" 
d="M349 737l177 260q11 -17 25 8h10l11 -16q10 -16 -20 -64l11 -16l58 38v-16l-347 -451l217 -219l5 -9l-5 -8l-41 15l-4 -8l9 1l6 -8v-16l30 -32l21 -31l31 -63l-5 -8q-127 171 -160 168l58 -66q47 -68 62 -103l-25 -25l-210 196l-150 101l-15 24l5 71l-5 8l5 9q13 20 2 50
l15 25l38 -3l247 333l5 -7l-20 -33l-41 -48l10 -17l-10 -36v-4zM611 605l24 35l-7 -7zM653 665l44 63l-45 -54zM807 232l-4 -6l-1 -2h2l6 -6l21 -31l30 -66l-4 -8q-5 -8 -16 -4q-16 -8 -68 49l23 -47h9l-31 -22l-5 5l-8 -5l-142 148l-90 106l-16 24l-53 73l-6 7l6 10
q7 13 19 6q9 5 20 -7l11 18l5 58l246 343l6 -9l-6 -9l13 18l4 -9l-19 -34l-41 -49l8 -13l110 157q4 -6 9 -6l3 5l3 -3q5 4 10 13h11l57 49q2 -3 2 -8l10 8q10 -16 -20 -67l10 -16l26 -7v-17l-307 -427q47 -26 210 -219l5 -8l-5 -8q-4 4 -7 8l-5 -8q-169 192 -212 211l-1 -1
l71 -64l-5 -9l118 -122l-3 -5zM722 803l-16 -20l1 -1z" />
    <glyph glyph-name="guillemotright" unicode="&#xbb;" horiz-adv-x="1003" 
d="M370 336l-177 -260q-11 17 -25 -8h-10l-11 16q-10 16 20 64l-11 16l-58 -38v16l376 385l-246 285l-5 9l5 8l40 -15l5 8l-9 -1l-6 8v16l-30 32l-21 31l-31 63l5 8q127 -171 160 -168l-59 66q-46 68 -61 103l25 25l210 -196l179 -167l15 -24l-5 -71l5 -8l-5 -9
q-13 -20 -2 -50l-15 -25l-38 3l-276 -267l-5 7l20 33l41 48l-11 17l11 36v4zM604 841l4 6l1 2h-2l-6 6l-21 31l-30 66l4 8q5 8 16 4q16 8 68 -49l-23 47h-9l31 22l5 -5l8 5l142 -148l119 -172l15 -24l27 -34l6 -7l-6 -10q-7 -13 -19 -6q-9 -5 -21 7l37 -66l-25 -49
l-275 -277l-6 9l6 9l-13 -18l-4 9l19 34l41 49l-8 13l-110 -158q-4 7 -9 7l-3 -5l-3 3q-5 -4 -10 -13h-11l-57 -49q-2 3 -2 8l-10 -8q-10 16 20 67l-10 16l-26 7v17l336 361q-47 26 -239 285l-5 8l5 8q4 -4 7 -8l5 8q198 -258 241 -277l1 1l-71 64l5 9l-147 188l3 5z
M688 270l17 20l-1 1z" />
    <glyph glyph-name="ellipsis" unicode="&#x2026;" horiz-adv-x="2048" 
 />
    <glyph glyph-name="Agrave" unicode="&#xc0;" 
d="M680 1410q11 -51 136 -51l136 -595h119v-17l-102 -17v-17q51 0 51 -34h136v-17q0 -38 -170 -68l34 -102l-17 -51l17 -102l-17 -17h17l-17 -17l17 -204v-102l-17 17h-17l51 -255h-34q0 51 -34 51v-17l17 -51h-17l-17 17h-17q0 -51 -34 -51l-85 289h-17v-68h-17l-34 204
l51 -34v17q-14 153 -51 153l17 17v51h-34v-51h-17v68l17 17h-17l-17 -17v68h17l17 -17h17l-17 17v102l-374 -85v-34l119 34l68 -17l85 17v-34q-357 -64 -357 -170q-45 -187 -102 -238v-34h-51l-17 17h-17v-17l-51 34l34 102h-17q-51 0 -51 -136l-34 34l17 102l-51 51
l289 697h17q0 -51 34 -51l17 85l-17 -17h-17v68l17 85l17 -17h17l-17 17v17l34 68h17l17 -17h17v17q0 34 -51 34l85 238h68l-17 -17v-17q118 68 221 68zM578 1019l-136 -357h34q170 0 187 102l-68 255h-17zM425 917l-34 -119l-17 17h-17l17 -68h17l51 153v17h-17zM238 764
l-17 -17v-34h17l17 51h-17zM340 696l-17 -68h17l17 17v51h-17zM187 679l-17 -68h17l34 68h-34zM476 628v-17h34q153 17 153 51h-17zM714 254h34v-102h-17zM952 135v-34l17 -68h17v34l-17 68h-17zM782 84v-34l51 17v34zM529 1845h13q17 0 50 -31q74 -46 138 -143l13 -39
l-3 -3l-3 3h-13l3 -13l-3 -18q13 -25 13 -37l-2 -7l2 -16l-5 -8l5 -21v-13h-5l-21 45h-5v-3l5 -18h-2q13 -46 13 -63v-2q0 -4 -18 -13l-8 2l-13 -2h-8q-11 10 -68 161q-65 130 -174 174q-20 0 -39 24q0 31 42 31l23 5l21 -5z" />
    <glyph glyph-name="Atilde" unicode="&#xc3;" 
d="M677 1410q11 -51 136 -51l136 -595h119v-17l-102 -17v-17q51 0 51 -34h136v-17q0 -38 -170 -68l34 -102l-17 -51l17 -102l-17 -17h17l-17 -17l17 -204v-102l-17 17h-17l51 -255h-34q0 51 -34 51v-17l17 -51h-17l-17 17h-17q0 -51 -34 -51l-85 289h-17v-68h-17l-34 204
l51 -34v17q-14 153 -51 153l17 17v51h-34v-51h-17v68l17 17h-17l-17 -17v68h17l17 -17h17l-17 17v102l-374 -85v-34l119 34l68 -17l85 17v-34q-357 -64 -357 -170q-45 -187 -102 -238v-34h-51l-17 17h-17v-17l-51 34l34 102h-17q-51 0 -51 -136l-34 34l17 102l-51 51
l289 697h17q0 -51 34 -51l17 85l-17 -17h-17v68l17 85l17 -17h17l-17 17v17l34 68h17l17 -17h17v17q0 34 -51 34l85 238h68l-17 -17v-17q118 68 221 68zM575 1019l-136 -357h34q170 0 187 102l-68 255h-17zM422 917l-34 -119l-17 17h-17l17 -68h17l51 153v17h-17zM235 764
l-17 -17v-34h17l17 51h-17zM337 696l-17 -68h17l17 17v51h-17zM184 679l-17 -68h17l34 68h-34zM473 628v-17h34q153 17 153 51h-17zM711 254h34v-102h-17zM949 135v-34l17 -68h17v34l-17 68h-17zM779 84v-34l51 17v34zM949 1851l15 -23l-3 -2l3 -3h2l3 3l2 -3v-2
q0 -21 -17 -50q0 -11 -20 -40h2l38 43h2v-3l-2 -12q5 0 8 -15q-24 -46 -59 -90l-10 -17l3 -3h5q0 11 18 25h2v-2q-35 -42 -35 -50l12 10h3v-3q-45 -64 -104 -126l3 -3v-2q0 -23 -61 -45l-12 -3q-48 0 -114 100l-33 37q-36 -45 -55 -94l-11 -5h-5l-7 5h-3q-4 -1 -30 -52
l-3 -3h-2q-32 0 -53 50q-27 0 -48 57q0 8 33 57l55 77q35 54 79 92h5q17 0 55 -69q37 -38 58 -105l3 -2h5q51 0 159 139q26 26 71 84z" />
    <glyph glyph-name="Otilde" unicode="&#xd5;" horiz-adv-x="1250" 
d="M762 1337q200 0 374 -119l-17 -17v-17l68 -102h-34l-17 17h-17l51 -374h17q0 85 34 85v-68q0 -96 -170 -442h17q-120 -165 -357 -306l-85 -17h-17q-404 0 -510 323l-68 102l17 17l-17 119v34q0 141 272 493v-17q-125 -168 -204 -374v-17h17q62 249 459 629l-119 -68h-17
q0 78 323 119zM677 1048l-17 17v-17l17 -17l-119 -102q-141 0 -272 -476q0 -136 153 -238h17q186 0 425 391q85 186 85 272v136q0 47 -170 68h-17l-17 -17h-17v17zM1170 997h34v-85h-34v85zM303 810l-51 -102h17l51 102h-17zM966 708l-68 -170h51l51 119l-17 51h-17z
M1085 640l-17 -51v-34h17l17 68v17h-17zM82 572v-136h17v136h-17zM881 521l-68 -85h17l68 85h-17zM337 147v-17l85 -51v17zM1145 1851l15 -22l-3 -3l3 -2h2l3 2l2 -2v-3q0 -21 -17 -49q0 -11 -21 -40h3l38 42h2v-2l-2 -13q5 0 7 -15q-23 -45 -58 -89l-10 -18l3 -2h5
q0 11 17 25h3v-3q-35 -42 -35 -49l12 10h3v-3q-45 -64 -104 -127l3 -2v-3q0 -22 -61 -45l-13 -2q-47 0 -113 99l-33 38q-36 -46 -56 -95l-10 -5h-5l-7 5h-3q-4 0 -30 -52l-3 -2h-2q-32 0 -53 49q-27 0 -48 57q0 9 33 58l55 77q35 54 78 92h5q18 0 56 -70q37 -37 58 -104
l3 -3h5q51 0 159 139q26 27 71 85z" />
    <glyph glyph-name="OE" unicode="&#x152;" horiz-adv-x="1644" 
d="M615 1048l-16 17v-17l16 -17l-109 -102q-130 0 -250 -476q0 -136 141 -238h15q171 0 390 391q78 186 78 272v136q0 47 -156 68h-16l-15 -17h-16v17zM272 810l-47 -102h16l47 102h-16zM867 708l-68 -170h51l51 119l-17 51h-17zM986 640l-17 -51v-34h17l17 68v17h-17z
M782 521l-68 -85h17l68 85h-17zM303 147v-17l78 -51v17zM1255 1071l14 -1l-15 2zM925 1285l4 47l17 -2l16 -18l18 16l17 -1l16 -18l18 16l51 -4l479 3l82 -57q-36 -151 -129 -145l-328 -12l-2 -34l71 -5l16 -17l17 -1l119 9l34 -3v-17l-279 -33l-31 -219l17 -1l345 28
l16 -18l-1 -17l-34 3l-1 -17l117 -26l-1 -17q-37 -95 -371 -145l-146 -5q-19 -54 -48 -123l-43 -112h-5q-9 -19 -18 -40h15q-13 -20 -28 -39q377 57 581 43l84 -23l-2 -34l-34 2l15 -17l-3 -51q-49 -65 -208 -55l-1 -17l136 -8l-3 -34l-674 -108l-17 1q-82 17 -82 53v2l4 45
q-45 -33 -95 -66l-78 -17h-15q-371 0 -468 323l-62 102l15 17l-15 119v34q0 141 249 493v-17q-115 -168 -187 -374v-17h16q56 249 420 629l-109 -68h-15q0 78 296 119q121 0 232 -52z" />
    <glyph glyph-name="oe" unicode="&#x153;" horiz-adv-x="1644" 
d="M615 1048l-16 17v-17l16 -17l-109 -102q-130 0 -250 -476q0 -136 141 -238h15q171 0 390 391q78 186 78 272v136q0 47 -156 68h-16l-15 -17h-16v17zM272 810l-47 -102h16l47 102h-16zM867 708l-68 -170h51l51 119l-17 51h-17zM986 640l-17 -51v-34h17l17 68v17h-17z
M782 521l-68 -85h17l68 85h-17zM303 147v-17l78 -51v17zM1255 1071l14 -1l-15 2zM925 1285l4 47l17 -2l16 -18l18 16l17 -1l16 -18l18 16l51 -4l479 3l82 -57q-36 -151 -129 -145l-328 -12l-2 -34l71 -5l16 -17l17 -1l119 9l34 -3v-17l-279 -33l-31 -219l17 -1l345 28
l16 -18l-1 -17l-34 3l-1 -17l117 -26l-1 -17q-37 -95 -371 -145l-146 -5q-19 -54 -48 -123l-43 -112h-5q-9 -19 -18 -40h15q-13 -20 -28 -39q377 57 581 43l84 -23l-2 -34l-34 2l15 -17l-3 -51q-49 -65 -208 -55l-1 -17l136 -8l-3 -34l-674 -108l-17 1q-82 17 -82 53v2l4 45
q-45 -33 -95 -66l-78 -17h-15q-371 0 -468 323l-62 102l15 17l-15 119v34q0 141 249 493v-17q-115 -168 -187 -374v-17h16q56 249 420 629l-109 -68h-15q0 78 296 119q121 0 232 -52z" />
    <glyph glyph-name="endash" unicode="&#x2013;" horiz-adv-x="1475" 
d="M1331 892l-1 -11l-13 -12l-1 -12q107 -6 107 -30h-12l11 -12l-2 -24q-1 -28 -194 -36l-35 14l-37 -10l-1 -12l156 -9l11 -13l12 -1l-13 -11l-1 -24l24 -2l-2 -24q-87 -30 -723 -26l-472 -43q-59 4 -52 124l26 22v12q-45 3 -45 35v4l4 72l26 22l48 -3q510 25 807 25
q145 0 240 -6zM985 729l-292 -8l-20 -17l104 -4l273 4z" />
    <glyph glyph-name="emdash" unicode="&#x2014;" horiz-adv-x="2097" 
d="M1984 929l72 -3l-2 -48q-3 -66 -593 -94l-13 -36l60 -3l409 19l-1 -24q-84 -4 -86 -33l24 -1l121 7l11 -12v-12l-411 -55l-11 13l-61 -9h-12l-119 17l-109 -7l-12 1l1 12l12 11l1 12l-517 -2v-12l156 -6l-1 -24h-12l-782 -14l-43 110l25 23l-22 37l3 84l25 23l36 -2
q367 -16 1851 28zM811 752v-12l108 -5l-12 13l1 12zM366 735v-12h12l276 12l1 11l-95 17zM616 676l-1 -12l60 -2l1 12zM964 673l192 -8l-1 -24l-192 8z" />
    <glyph glyph-name="quotedblleft" unicode="&#x201c;" horiz-adv-x="577" 
d="M64 1080l39 246v81l-27 40l41 62l163 -81v-21q-47 -270 -61 -470l-2 1q3 -22 8 -45l-10 -61q-24 0 -29 81h-10v-40h-40l-19 101l-10 -20h-10q-35 53 -52 143zM311 1300l43 11v81l-27 32l41 74l163 -32v-20q-84 -344 -61 -489h-2q3 -21 8 -42l-10 -65q-24 -7 -29 72
l-10 -3v-40l-40 -11l-28 33l-10 -24l-10 -3q-35 43 -43 190z" />
    <glyph glyph-name="quotedblright" unicode="&#x201d;" horiz-adv-x="577" 
d="M64 1080l39 246v81l-27 40l41 62l163 -81v-21q-47 -270 -61 -470l-2 1q3 -22 8 -45l-10 -61q-24 0 -29 81h-10v-40h-40l-19 101l-10 -20h-10q-35 53 -52 143zM311 1300l43 11v81l-27 32l41 74l163 -32v-20q-84 -344 -61 -489h-2q3 -21 8 -42l-10 -65q-24 -7 -29 72
l-10 -3v-40l-40 -11l-28 33l-10 -24l-10 -3q-35 43 -43 190z" />
    <glyph glyph-name="quoteleft" unicode="&#x2018;" horiz-adv-x="472" 
d="M80 1266h19l18 -122h-37v-40l-14 9zM99 1346h18l19 -80h-37v80zM99 1042v-81h18v81h-18zM138 1080l35 225l-19 -19h-18v60l37 41v-61h19v81l-38 40l57 62l222 -81v-21q-64 -270 -84 -470l-2 1q5 -22 11 -45l-14 -61q-33 0 -40 81h-14v-40h-53l-26 101l-14 -20h-14
q-48 53 -71 143zM179 1043l-17 10q20 -59 35 -59z" />
    <glyph glyph-name="quoteright" unicode="&#x2019;" horiz-adv-x="472" 
d="M80 1266h19l18 -122h-37v-40l-14 9zM99 1346h18l19 -80h-37v80zM99 1042v-81h18v81h-18zM138 1080l35 225l-19 -19h-18v60l37 41v-61h19v81l-38 40l57 62l222 -81v-21q-64 -270 -84 -470l-2 1q5 -22 11 -45l-14 -61q-33 0 -40 81h-14v-40h-53l-26 101l-14 -20h-14
q-48 53 -71 143zM179 1043l-17 10q20 -59 35 -59z" />
    <glyph glyph-name="divide" unicode="&#xf7;" horiz-adv-x="1124" 
 />
    <glyph glyph-name="lozenge" unicode="&#x25ca;" horiz-adv-x="1012" 
 />
    <glyph glyph-name="ydieresis" unicode="&#xff;" horiz-adv-x="991" 
d="M822 1375h17v-34l17 17h17q119 -40 119 -68l-85 -102h34q68 35 68 85h51v-17l-17 -17l17 -17v-17q-604 -650 -590 -1036l-34 -169l17 -17v-17l-85 -153l-136 17v136l-51 67v34l17 204l17 -17h17l-17 17v17l17 17v17l-17 17l51 17l-17 -85v-68h17l20 205l-17 51h-17v-51
h-17l-17 136l17 17v17l-234 597v34h34l-34 85l17 17h34q39 0 51 -85l51 34h51q0 -105 183 -444q98 186 170 221v-17q-170 -216 -170 -255v-17h17l400 542v17l-196 -202v17zM609 1105v-17l-34 -34v17zM839 1120q-366 -469 -366 -542h34q147 283 349 542h-17zM283 -68v-68h17
v68h-17zM753 1807l3 -3l16 3h3l32 -38v-10q-70 -62 -70 -70h3q48 41 77 48l16 -32l-10 -32l4 3h6l10 -10v-3q-4 -22 -90 -109q-25 -32 -32 -61l-13 -9h-3q-14 0 -51 32q-11 0 -16 32q-16 22 -26 22q-45 49 -45 80v3q126 132 170 148zM385 1803q39 -2 39 -9l-4 -4v-3
q12 0 29 -19v-10q-9 -10 -41 -22q-62 -35 -71 -51h3q74 54 125 54l13 -25q4 0 6 -23q13 0 13 -29q-106 -66 -118 -96q-13 -2 -32 -60l-35 -10q-55 34 -55 67q-5 0 -9 16q-22 0 -55 58l-3 29q77 105 176 134z" />
    <glyph glyph-name="Ydieresis" unicode="&#x178;" horiz-adv-x="991" 
d="M822 1375h17v-34l17 17h17q119 -40 119 -68l-85 -102h34q68 35 68 85h51v-17l-17 -17l17 -17v-17q-604 -650 -590 -1036l-34 -169l17 -17v-17l-85 -153l-136 17v136l-51 67v34l17 204l17 -17h17l-17 17v17l17 17v17l-17 17l51 17l-17 -85v-68h17l20 205l-17 51h-17v-51
h-17l-17 136l17 17v17l-234 597v34h34l-34 85l17 17h34q39 0 51 -85l51 34h51q0 -105 183 -444q98 186 170 221v-17q-170 -216 -170 -255v-17h17l400 542v17l-196 -202v17zM609 1105v-17l-34 -34v17zM839 1120q-366 -469 -366 -542h34q147 283 349 542h-17zM283 -68v-68h17
v68h-17zM753 1807l3 -3l16 3h4l32 -38v-10q-71 -62 -71 -70h3q48 41 77 48l16 -32l-9 -32l3 3h6l10 -10v-3q-3 -22 -90 -109q-25 -32 -32 -61l-13 -9h-3q-14 0 -51 32q-10 0 -16 32q-16 22 -26 22q-44 49 -44 80v3q125 132 169 148zM385 1803q39 -2 39 -9l-3 -4v-3
q11 0 28 -19v-10q-9 -10 -41 -22q-61 -35 -71 -51h4q73 54 124 54l13 -25q4 0 7 -23q12 0 12 -29q-106 -66 -118 -96q-13 -2 -32 -60l-35 -10q-55 34 -55 67q-5 0 -9 16q-22 0 -55 58l-3 29q77 105 176 134z" />
    <glyph glyph-name="fraction" unicode="&#x2044;" horiz-adv-x="342" 
 />
    <glyph glyph-name="fraction" unicode="&#x2215;" horiz-adv-x="342" 
 />
    <glyph glyph-name="Euro" unicode="&#x20ac;" horiz-adv-x="1236" 
d="M630 1194l119 51v17h-17q-102 -34 -102 -68zM287 180v-51l17 -68h17v17l-17 102h-17zM508 834q-21 -28 -40 -59q161 14 250 39v-1q26 7 52 15l87 6q18 -18 -83 -40l7 -8l52 9l29 -30l-33 -31l33 -3l8 -8q-44 -39 -232 -78l-241 -31l-10 -34q184 14 334 33l-1 -2
q28 8 56 17l83 5q8 -20 -95 -43l3 -8l52 9l14 -33l-125 -38l30 -4l4 -8q-58 -42 -169 -76l16 20l-203 -13q26 -190 183 -238q203 -63 483 285h17v-17q-13 -81 51 -17l51 -68v-51q0 -55 -67 -80l-17 -17h-17v-34q101 -34 101 29h34v-17q-243 -237 -482 -238l-137 -9
q-129 0 -213 110v-17l26 -60v-16h-51q-158 108 -187 271l-12 156l-40 -31l-93 21l48 154l26 5q31 2 61 3l4 29l-103 17l-15 143l26 5q67 1 127 3q11 38 25 73v-7l17 21l5 -39l38 98l20 24l-47 -108l16 21l5 6q63 137 115 213l5 7q26 38 90 98l6 15q76 54 169 93l-51 -17h-17
v17l153 34h17q247 0 374 -204v-17h-34l17 -17v-17q-102 12 -102 34q-86 0 -163 -19l-13 14l-35 -17l3 9l-4 3q-51 1 -123 -59l-11 -10l-113 -108l3 -3l-16 -25l-24 -31h-4z" />
    <glyph glyph-name="guilsinglleft" unicode="&#x2039;" horiz-adv-x="682" 
 />
    <glyph glyph-name="guilsinglright" unicode="&#x203a;" horiz-adv-x="682" 
 />
    <glyph glyph-name="uniF001" unicode="&#xf001;" horiz-adv-x="1024" 
 />
    <glyph glyph-name="uniF001" unicode="&#xfb01;" horiz-adv-x="1024" 
 />
    <glyph glyph-name="uniF002" unicode="&#xf002;" horiz-adv-x="1024" 
 />
    <glyph glyph-name="uniF002" unicode="&#xfb02;" horiz-adv-x="1024" 
 />
    <glyph glyph-name="daggerdbl" unicode="&#x2021;" horiz-adv-x="1139" 
 />
    <glyph glyph-name="periodcentered" unicode="&#xb7;" horiz-adv-x="999" 
d="M486 469q-10 -2 -19 -2q-28 0 -44 24l-10 17q-3 11 3 15l27 5l27 20l-1 2l-6 4l-19 -13q-9 -1 -10 2l-5 -4q-39 -10 -45 14l-6 5q-1 4 5 6l2 2l-1 5q-32 38 -56 76q-27 24 -33 46l2 1l-3 2v11l-5 8l20 102q5 39 48 105q33 47 51 52l6 2l20 -7l49 31q7 2 16 2
q40 0 101 -49q86 -74 94 -104l10 -27l6 -23q4 -14 4 -32q0 -43 -20 -108q-63 -109 -108 -139l-36 -31h-23z" />
    <glyph glyph-name="periodcentered" unicode="&#x2219;" horiz-adv-x="999" 
d="M486 469q-10 -2 -19 -2q-28 0 -44 24l-10 17q-3 11 3 15l27 5l27 20l-1 2l-6 4l-19 -13q-9 -1 -10 2l-5 -4q-39 -10 -45 14l-6 5q-1 4 5 6l2 2l-1 5q-32 38 -56 76q-27 24 -33 46l2 1l-3 2v11l-5 8l20 102q5 39 48 105q33 47 51 52l6 2l20 -7l49 31q7 2 16 2
q40 0 101 -49q86 -74 94 -104l10 -27l6 -23q4 -14 4 -32q0 -43 -20 -108q-63 -109 -108 -139l-36 -31h-23z" />
    <glyph glyph-name="quotesinglbase" unicode="&#x201a;" horiz-adv-x="703" 
d="M385 375h45q46 -20 46 -101v-5q0 -44 -14 -106l5 -41q-83 -285 -128 -285q0 -47 -41 -69h-18q-51 10 -51 46q7 111 55 111l5 4v5l-28 41l9 55l-50 -18q-77 12 -77 23l-5 14q0 124 55 124l4 4v5l-32 41q8 124 55 124zM316 205h5l45 9v14h-4q-23 0 -46 -23z" />
    <glyph glyph-name="quotedblbase" unicode="&#x201e;" horiz-adv-x="1024" 
d="M385 375h45q46 -20 46 -101v-5q0 -44 -14 -106l5 -41q-83 -285 -128 -285q0 -47 -41 -69h-18q-51 10 -51 46q7 111 55 111l5 4v5l-28 41l9 55l-50 -18q-77 12 -77 23l-5 14q0 124 55 124l4 4v5l-32 41q8 124 55 124zM316 205h5l45 9v14h-4q-23 0 -46 -23zM816 374h45
q46 -20 46 -101v-5q0 -44 -14 -106l5 -41q-83 -284 -111 -234q0 -47 -41 -69h-18q-51 10 -51 46q-10 61 38 61l5 4v5l-28 41l85 88l-126 -52q-77 12 -77 23l16 18q0 124 34 120l4 4v5l-32 41q8 124 55 124zM693 211h13l117 21v33h-10q-60 0 -120 -54z" />
    <glyph glyph-name="perthousand" unicode="&#x2030;" horiz-adv-x="2048" 
 />
    <glyph glyph-name="Acircumflex" unicode="&#xc2;" 
d="M677 1410q11 -51 136 -51l136 -595h119v-17l-102 -17v-17q51 0 51 -34h136v-17q0 -38 -170 -68l34 -102l-17 -51l17 -102l-17 -17h17l-17 -17l17 -204v-102l-17 17h-17l51 -255h-34q0 51 -34 51v-17l17 -51h-17l-17 17h-17q0 -51 -34 -51l-85 289h-17v-68h-17l-34 204
l51 -34v17q-14 153 -51 153l17 17v51h-34v-51h-17v68l17 17h-17l-17 -17v68h17l17 -17h17l-17 17v102l-374 -85v-34l119 34l68 -17l85 17v-34q-357 -64 -357 -170q-45 -187 -102 -238v-34h-51l-17 17h-17v-17l-51 34l34 102h-17q-51 0 -51 -136l-34 34l17 102l-51 51
l289 697h17q0 -51 34 -51l17 85l-17 -17h-17v68l17 85l17 -17h17l-17 17v17l34 68h17l17 -17h17v17q0 34 -51 34l85 238h68l-17 -17v-17q118 68 221 68zM575 1019l-136 -357h34q170 0 187 102l-68 255h-17zM422 917l-34 -119l-17 17h-17l17 -68h17l51 153v17h-17zM235 764
l-17 -17v-34h17l17 51h-17zM337 696l-17 -68h17l17 17v51h-17zM184 679l-17 -68h17l34 68h-34zM473 628v-17h34q153 17 153 51h-17zM711 254h34v-102h-17zM949 135v-34l17 -68h17v34l-17 68h-17zM779 84v-34l51 17v34zM836 1841q49 0 61 -210v-51q0 -65 -41 -65q0 -7 -17 -7
h-24q-8 0 -10 31l-3 3h-7q0 -22 -17 -30l-10 3q-15 -24 -34 -24h-4q-6 7 -30 7q-21 5 -21 24v17l-13 102h-7q0 -26 -75 -75q-55 -95 -102 -95h-3l-24 7v-4q0 -17 -48 -20q-27 17 -27 34v3q11 49 163 225q102 95 170 95l14 -4q59 34 109 34z" />
    <glyph glyph-name="Ecircumflex" unicode="&#xca;" horiz-adv-x="1028" 
d="M941 1332l82 -57q-36 -151 -130 -145l-444 -20l-2 -34l84 -6l103 10l16 -19l17 -1l120 10l34 -3l-1 -17l-395 -41l-31 -220l17 -1l462 37l15 -18l-1 -17l-34 3v-17l117 -26l-1 -17q-37 -95 -488 -154l-171 -6l16 -17l-82 -216h-17l10 153l-17 1l-33 -236q509 68 719 54
l83 -23l-1 -34l-34 2l15 -18l-3 -51q-49 -64 -208 -54l-1 -17l136 -9l-3 -34l-791 -116l-17 1q-82 18 -82 53v3l3 51l47 184l-16 18l34 -1l-6 -85l17 -2q10 85 40 82l-16 19l12 169l-34 3l-23 -84l19 16l17 -1l-7 -102l-17 2l3 50l-17 1l-2 -34l-17 1l2 34l54 287l-17 1
l39 82l-16 18l1 17l37 287l16 -18l17 -1l2 34l-11 86l27 152l3 51l17 -2l16 -18l18 16l17 -2l16 -17l18 16l51 -4zM90 589l-8 -119l17 -1l8 118zM651 567h17l-2 -17l-308 -31l-16 19l1 16l154 7l-1 -17zM822 1842q50 0 62 -211v-51q0 -64 -41 -64q0 -7 -17 -7h-24
q-8 0 -10 31l-4 3h-6q0 -22 -17 -31l-11 4q-15 -24 -34 -24h-3q-7 7 -31 7q-20 4 -20 24v17l-14 102h-6q0 -26 -75 -75q-55 -95 -102 -95h-4l-23 6v-3q0 -17 -48 -20q-27 17 -27 34v3q11 48 163 224q102 96 170 96l14 -4q59 34 108 34z" />
    <glyph glyph-name="Aacute" unicode="&#xc1;" 
d="M677 1410q11 -51 136 -51l136 -595h119v-17l-102 -17v-17q51 0 51 -34h136v-17q0 -38 -170 -68l34 -102l-17 -51l17 -102l-17 -17h17l-17 -17l17 -204v-102l-17 17h-17l51 -255h-34q0 51 -34 51v-17l17 -51h-17l-17 17h-17q0 -51 -34 -51l-85 289h-17v-68h-17l-34 204
l51 -34v17q-14 153 -51 153l17 17v51h-34v-51h-17v68l17 17h-17l-17 -17v68h17l17 -17h17l-17 17v102l-374 -85v-34l119 34l68 -17l85 17v-34q-357 -64 -357 -170q-45 -187 -102 -238v-34h-51l-17 17h-17v-17l-51 34l34 102h-17q-51 0 -51 -136l-34 34l17 102l-51 51
l289 697h17q0 -51 34 -51l17 85l-17 -17h-17v68l17 85l17 -17h17l-17 17v17l34 68h17l17 -17h17v17q0 34 -51 34l85 238h68l-17 -17v-17q118 68 221 68zM575 1019l-136 -357h34q170 0 187 102l-68 255h-17zM422 917l-34 -119l-17 17h-17l17 -68h17l51 153v17h-17zM235 764
l-17 -17v-34h17l17 51h-17zM337 696l-17 -68h17l17 17v51h-17zM184 679l-17 -68h17l34 68h-34zM473 628v-17h34q153 17 153 51h-17zM711 254h34v-102h-17zM949 135v-34l17 -68h17v34l-17 68h-17zM779 84v-34l51 17v34zM840 1857q4 -5 4 -15q11 0 14 -15q0 -17 -108 -113
q0 -7 -36 -41q-18 -20 -18 -30q126 130 162 150h2l-2 -11l4 -4q0 -15 -29 -41l11 -4l18 13l3 -2v-5q-7 -6 -9 -21q-89 -83 -126 -128q-75 -81 -81 -126l-5 -7q-36 5 -36 28l-7 6v5l3 6h-3q-25 0 -36 56q25 58 84 119q42 52 155 150zM786 1686v-2h2l16 17h-2zM775 1675v-2
l4 4v2zM757 1656v-2l6 6v2zM750 1652l-2 -7h4v7h-2zM673 1617l16 18h-2q-14 -6 -14 -18z" />
    <glyph glyph-name="Edieresis" unicode="&#xcb;" horiz-adv-x="1028" 
d="M941 1332l82 -57q-36 -151 -130 -145l-444 -20l-2 -34l84 -6l103 10l16 -19l17 -1l120 10l34 -3l-1 -17l-395 -41l-31 -220l17 -1l462 37l15 -18l-1 -17l-34 3v-17l117 -26l-1 -17q-37 -95 -488 -154l-171 -6l16 -17l-82 -216h-17l10 153l-17 1l-33 -236q509 68 719 54
l83 -23l-1 -34l-34 2l15 -18l-3 -51q-49 -64 -208 -54l-1 -17l136 -9l-3 -34l-791 -116l-17 1q-82 18 -82 53v3l3 51l47 184l-16 18l34 -1l-6 -85l17 -2q10 85 40 82l-16 19l12 169l-34 3l-23 -84l19 16l17 -1l-7 -102l-17 2l3 50l-17 1l-2 -34l-17 1l2 34l54 287l-17 1
l39 82l-16 18l1 17l37 287l16 -18l17 -1l2 34l-11 86l27 152l3 51l17 -2l16 -18l18 16l17 -2l16 -17l18 16l51 -4zM90 589l-8 -119l17 -1l8 118zM651 567h17l-2 -17l-308 -31l-16 19l1 16l154 7l-1 -17zM871 1807l3 -3l16 3h4l32 -38v-10q-71 -62 -71 -70h3q48 41 77 48
l16 -32l-9 -32l3 3h6l10 -10v-3q-3 -21 -90 -109q-25 -31 -32 -60l-13 -10h-3q-14 0 -51 32q-10 0 -16 32q-16 22 -26 22q-44 49 -44 80v4q126 131 169 147zM503 1803q39 -2 39 -9l-3 -3v-4q11 0 28 -19v-9q-9 -11 -41 -23q-61 -35 -71 -51h4q73 54 124 54l13 -25q4 0 7 -23
q12 0 12 -28q-106 -67 -118 -96q-13 -2 -32 -61l-35 -10q-55 34 -55 67q-5 0 -9 16q-22 0 -55 58l-3 29q77 105 176 134z" />
    <glyph glyph-name="Egrave" unicode="&#xc8;" horiz-adv-x="1028" 
d="M941 1332l82 -57q-36 -151 -130 -145l-444 -20l-2 -34l84 -6l103 10l16 -19l17 -1l120 10l34 -3l-1 -17l-395 -41l-31 -220l17 -1l462 37l15 -18l-1 -17l-34 3v-17l117 -26l-1 -17q-37 -95 -488 -154l-171 -6l16 -17l-82 -216h-17l10 153l-17 1l-33 -236q509 68 719 54
l83 -23l-1 -34l-34 2l15 -18l-3 -51q-49 -64 -208 -54l-1 -17l136 -9l-3 -34l-791 -116l-17 1q-82 18 -82 53v3l3 51l47 184l-16 18l34 -1l-6 -85l17 -2q10 85 40 82l-16 19l12 169l-34 3l-23 -84l19 16l17 -1l-7 -102l-17 2l3 50l-17 1l-2 -34l-17 1l2 34l54 287l-17 1
l39 82l-16 18l1 17l37 287l16 -18l17 -1l2 34l-11 86l27 152l3 51l17 -2l16 -18l18 16l17 -2l16 -17l18 16l51 -4zM90 589l-8 -119l17 -1l8 118zM651 567h17l-2 -17l-308 -31l-16 19l1 16l154 7l-1 -17zM527 1845h13q17 0 49 -31q74 -47 138 -143l13 -39l-3 -3l-2 3h-13
l2 -13l-2 -19q13 -25 13 -36l-3 -8l3 -15l-6 -8l6 -21v-13h-6l-20 44h-6v-2l6 -19h-3q13 -45 13 -62v-3q0 -4 -18 -13l-8 3l-13 -3h-8q-11 10 -67 162q-66 130 -175 174q-19 0 -39 23q0 31 42 31l23 6l21 -6z" />
    <glyph glyph-name="Iacute" unicode="&#xcd;" horiz-adv-x="481" 
d="M385 1326q-4 -51 64 -51l31 -68l-18 -17h17q-122 -360 -149 -833l-6 -102l17 -17l-1 -17l-18 -17h17l-18 -17l10 -119l-2 -34q-91 -110 -95 -170h-68l-82 34l24 119l-65 68l31 255l17 306l37 51l4 68l-16 17l1 17h34l1 17l-16 17l69 323h-17l18 17l5 102l-16 17l1 17z
M197 1020l-6 -119h17l6 119h-17zM171 850l-6 -102h17l6 102h-17zM145 697l-5 -102h17l5 102h-17zM142 17l-5 -85l35 34l4 51h-34zM565 1857q4 -5 4 -15q11 0 14 -15q0 -17 -108 -114q0 -6 -36 -40q-18 -21 -18 -30q126 130 162 149h2l-2 -10l4 -4q0 -15 -29 -41l11 -4l18 12
l2 -2v-4q-6 -6 -9 -21q-89 -83 -126 -129q-74 -80 -81 -126l-4 -6q-36 5 -36 28l-7 6v4l2 7h-2q-25 0 -36 55q25 59 83 120q43 52 156 150zM511 1686v-3h2l16 18h-3zM499 1675v-2l5 4v2zM481 1656v-2l7 6v2zM475 1651l-3 -6h5v6h-2zM398 1617l16 17h-2q-14 -6 -14 -17z" />
    <glyph glyph-name="Icircumflex" unicode="&#xce;" horiz-adv-x="481" 
d="M385 1326q-4 -51 64 -51l31 -68l-18 -17h17q-122 -360 -149 -833l-6 -102l17 -17l-1 -17l-18 -17h17l-18 -17l10 -119l-2 -34q-91 -110 -95 -170h-68l-82 34l24 119l-65 68l31 255l17 306l37 51l4 68l-16 17l1 17h34l1 17l-16 17l69 323h-17l18 17l5 102l-16 17l1 17z
M197 1020l-6 -119h17l6 119h-17zM171 850l-6 -102h17l6 102h-17zM145 697l-5 -102h17l5 102h-17zM142 17l-5 -85l35 34l4 51h-34zM511 1842q40 0 49 -211v-51q0 -65 -32 -65q0 -6 -14 -6h-19q-7 0 -8 30l-3 4h-5q0 -22 -14 -31l-8 3q-12 -23 -27 -23h-3q-6 6 -25 6
q-16 5 -16 24v17l-11 102h-5q0 -26 -60 -75q-44 -95 -82 -95h-2l-19 7v-3q0 -17 -39 -21q-21 17 -21 34v4q9 48 130 224q82 95 136 95l11 -3q47 34 87 34z" />
    <glyph glyph-name="Idieresis" unicode="&#xcf;" horiz-adv-x="481" 
d="M385 1326q-4 -51 64 -51l31 -68l-18 -17h17q-122 -360 -149 -833l-6 -102l17 -17l-1 -17l-18 -17h17l-18 -17l10 -119l-2 -34q-91 -110 -95 -170h-68l-82 34l24 119l-65 68l31 255l17 306l37 51l4 68l-16 17l1 17h34l1 17l-16 17l69 323h-17l18 17l5 102l-16 17l1 17z
M197 1020l-6 -119h17l6 119h-17zM171 850l-6 -102h17l6 102h-17zM145 697l-5 -102h17l5 102h-17zM142 17l-5 -85l35 34l4 51h-34zM592 1807l3 -3l16 3h3l32 -38v-10q-70 -62 -70 -70h3q48 41 77 48l16 -32l-10 -32l4 3h6l10 -9v-4q-4 -21 -90 -108q-25 -32 -32 -61l-13 -10
h-3q-14 0 -51 32q-11 0 -16 32q-16 23 -26 23q-45 48 -45 80v3q126 131 170 147zM224 1804q39 -3 39 -10l-4 -3v-3q12 0 29 -20v-9q-9 -11 -41 -23q-62 -35 -71 -51h3q74 55 125 55l13 -26q4 0 6 -22q13 0 13 -29q-106 -67 -118 -96q-13 -2 -32 -61l-35 -10q-55 34 -55 68
q-5 0 -9 16q-22 0 -55 57l-3 29q77 106 176 134z" />
    <glyph glyph-name="Igrave" unicode="&#xcc;" horiz-adv-x="481" 
d="M385 1326q-4 -51 64 -51l31 -68l-18 -17h17q-122 -360 -149 -833l-6 -102l17 -17l-1 -17l-18 -17h17l-18 -17l10 -119l-2 -34q-91 -110 -95 -170h-68l-82 34l24 119l-65 68l31 255l17 306l37 51l4 68l-16 17l1 17h34l1 17l-16 17l69 323h-17l18 17l5 102l-16 17l1 17z
M197 1020l-6 -119h17l6 119h-17zM171 850l-6 -102h17l6 102h-17zM145 697l-5 -102h17l5 102h-17zM142 17l-5 -85l35 34l4 51h-34zM192 1845h13q17 0 49 -31q74 -47 138 -143l13 -39l-3 -3l-2 3h-13l2 -13l-2 -18q13 -25 13 -37l-3 -8l3 -15l-5 -8l5 -21v-13h-5l-21 44h-5v-2
l5 -18h-3q13 -46 13 -63v-2q0 -4 -18 -13l-8 2l-13 -2h-8q-11 10 -67 161q-66 130 -174 174q-20 0 -39 23q0 32 41 32l24 5l20 -5z" />
    <glyph glyph-name="Oacute" unicode="&#xd3;" horiz-adv-x="1250" 
d="M762 1337q200 0 374 -119l-17 -17v-17l68 -102h-34l-17 17h-17l51 -374h17q0 85 34 85v-68q0 -96 -170 -442h17q-120 -165 -357 -306l-85 -17h-17q-404 0 -510 323l-68 102l17 17l-17 119v34q0 141 272 493v-17q-125 -168 -204 -374v-17h17q62 249 459 629l-119 -68h-17
q0 78 323 119zM677 1048l-17 17v-17l17 -17l-119 -102q-141 0 -272 -476q0 -136 153 -238h17q186 0 425 391q85 186 85 272v136q0 47 -170 68h-17l-17 -17h-17v17zM1170 997h34v-85h-34v85zM303 810l-51 -102h17l51 102h-17zM966 708l-68 -170h51l51 119l-17 51h-17z
M1085 640l-17 -51v-34h17l17 68v17h-17zM82 572v-136h17v136h-17zM881 521l-68 -85h17l68 85h-17zM337 147v-17l85 -51v17zM1069 1856q5 -5 5 -15q10 0 13 -15q0 -16 -108 -113q0 -7 -36 -41q-18 -20 -18 -29q126 130 162 149h3l-3 -11l5 -4q0 -15 -29 -40l11 -5l18 13l2 -2
v-4q-6 -6 -9 -22q-89 -83 -126 -128q-74 -80 -81 -126l-4 -6q-36 4 -36 27l-7 7v4l2 6h-2q-25 0 -36 56q25 59 83 120q43 51 155 149zM1015 1685v-2h3l15 17h-2zM1004 1675v-3l5 5v2zM986 1655v-2l7 7v2zM979 1651l-2 -6h5v6h-3zM903 1617l16 17h-3q-13 -6 -13 -17z" />
    <glyph glyph-name="Ocircumflex" unicode="&#xd4;" horiz-adv-x="1250" 
d="M762 1337q200 0 374 -119l-17 -17v-17l68 -102h-34l-17 17h-17l51 -374h17q0 85 34 85v-68q0 -96 -170 -442h17q-120 -165 -357 -306l-85 -17h-17q-404 0 -510 323l-68 102l17 17l-17 119v34q0 141 272 493v-17q-125 -168 -204 -374v-17h17q62 249 459 629l-119 -68h-17
q0 78 323 119zM677 1048l-17 17v-17l17 -17l-119 -102q-141 0 -272 -476q0 -136 153 -238h17q186 0 425 391q85 186 85 272v136q0 47 -170 68h-17l-17 -17h-17v17zM1170 997h34v-85h-34v85zM303 810l-51 -102h17l51 102h-17zM966 708l-68 -170h51l51 119l-17 51h-17z
M1085 640l-17 -51v-34h17l17 68v17h-17zM82 572v-136h17v136h-17zM881 521l-68 -85h17l68 85h-17zM337 147v-17l85 -51v17zM1040 1842q50 0 61 -211v-51q0 -64 -40 -64q0 -7 -17 -7h-24q-8 0 -10 30l-4 4h-7q0 -22 -17 -31l-10 4q-15 -24 -34 -24h-3q-7 7 -31 7
q-20 4 -20 23v17l-14 102h-7q0 -26 -74 -74q-56 -96 -102 -96h-4l-24 7v-3q0 -17 -47 -21q-27 17 -27 34v4q11 48 163 224q101 95 170 95l13 -3q59 34 109 34z" />
    <glyph glyph-name="Ograve" unicode="&#xd2;" horiz-adv-x="1250" 
d="M762 1337q200 0 374 -119l-17 -17v-17l68 -102h-34l-17 17h-17l51 -374h17q0 85 34 85v-68q0 -96 -170 -442h17q-120 -165 -357 -306l-85 -17h-17q-404 0 -510 323l-68 102l17 17l-17 119v34q0 141 272 493v-17q-125 -168 -204 -374v-17h17q62 249 459 629l-119 -68h-17
q0 78 323 119zM677 1048l-17 17v-17l17 -17l-119 -102q-141 0 -272 -476q0 -136 153 -238h17q186 0 425 391q85 186 85 272v136q0 47 -170 68h-17l-17 -17h-17v17zM1170 997h34v-85h-34v85zM303 810l-51 -102h17l51 102h-17zM966 708l-68 -170h51l51 119l-17 51h-17z
M1085 640l-17 -51v-34h17l17 68v17h-17zM82 572v-136h17v136h-17zM881 521l-68 -85h17l68 85h-17zM337 147v-17l85 -51v17zM731 1845h13q17 0 50 -31q74 -46 137 -143l13 -39l-2 -2l-3 2h-13l3 -13l-3 -18q13 -25 13 -36l-2 -8l2 -16l-5 -8l5 -20v-13h-5l-21 44h-5v-3l5 -18
h-2q13 -46 13 -62v-3q0 -4 -19 -13l-7 3l-13 -3h-8q-11 10 -68 161q-65 130 -174 174q-20 0 -39 24q0 31 42 31l23 5l21 -5z" />
    <glyph glyph-name="Uacute" unicode="&#xda;" horiz-adv-x="1045" 
d="M288 1330l34 -51l-17 -85l17 -17h17l17 85h34l17 -51q-136 -490 -136 -765q17 -187 68 -187l391 442l17 85v476l34 34q34 0 34 -68h17q0 68 85 68l34 -68l-17 -85q34 0 34 85h34l17 -17h17l-85 -1224l-17 -68q-68 0 -68 -68h-68l17 170h-34v-102l-51 -51v17l17 170
q-51 0 -51 68h-17l-289 -136l-136 34v-17q-176 0 -238 510q68 765 136 765v17h17v-68h-34v-34l17 -17v-17h-17l17 -51l-51 -85h17l17 17l-51 -306v-68h17q54 663 187 663zM84 650l-17 -17v-136h17l17 153h-17zM611 514l-119 -136h17l119 136h-17zM118 242v-34l17 -51h17v34
l-17 51h-17zM237 157v-17q0 -59 153 -102h34v17q-98 1 -187 102zM828 1856q5 -5 5 -15q10 0 13 -15q0 -16 -108 -113q0 -7 -36 -41q-18 -20 -18 -29q126 130 162 149h2l-2 -11l5 -4q0 -15 -30 -40l12 -5l18 13l2 -2v-4q-6 -6 -9 -22q-89 -83 -126 -128q-75 -80 -81 -126
l-5 -6q-36 4 -36 27l-6 7v4l2 6h-2q-25 0 -36 56q25 59 83 120q43 51 155 149zM774 1685v-2h2l16 17h-2zM763 1675v-3l4 5v2zM745 1655v-2l7 7v2zM738 1651l-2 -6h4v6h-2zM662 1617l15 17h-2q-13 -6 -13 -17z" />
    <glyph glyph-name="Ucircumflex" unicode="&#xdb;" horiz-adv-x="1045" 
d="M288 1330l34 -51l-17 -85l17 -17h17l17 85h34l17 -51q-136 -490 -136 -765q17 -187 68 -187l391 442l17 85v476l34 34q34 0 34 -68h17q0 68 85 68l34 -68l-17 -85q34 0 34 85h34l17 -17h17l-85 -1224l-17 -68q-68 0 -68 -68h-68l17 170h-34v-102l-51 -51v17l17 170
q-51 0 -51 68h-17l-289 -136l-136 34v-17q-176 0 -238 510q68 765 136 765v17h17v-68h-34v-34l17 -17v-17h-17l17 -51l-51 -85h17l17 17l-51 -306v-68h17q54 663 187 663zM84 650l-17 -17v-136h17l17 153h-17zM611 514l-119 -136h17l119 136h-17zM118 242v-34l17 -51h17v34
l-17 51h-17zM237 157v-17q0 -59 153 -102h34v17q-98 1 -187 102zM841 1842q49 0 61 -211v-51q0 -64 -41 -64q0 -7 -17 -7h-24q-8 0 -10 31l-3 3h-7q0 -22 -17 -31l-10 4q-15 -24 -34 -24h-4q-6 7 -30 7q-21 4 -21 24v17l-13 102h-7q0 -26 -75 -75q-55 -95 -102 -95h-3l-24 6
v-3q0 -17 -48 -20q-27 17 -27 34v3q11 48 163 224q102 96 170 96l14 -4q59 34 109 34z" />
    <glyph glyph-name="Ugrave" unicode="&#xd9;" horiz-adv-x="1045" 
d="M288 1330l34 -51l-17 -85l17 -17h17l17 85h34l17 -51q-136 -490 -136 -765q17 -187 68 -187l391 442l17 85v476l34 34q34 0 34 -68h17q0 68 85 68l34 -68l-17 -85q34 0 34 85h34l17 -17h17l-85 -1224l-17 -68q-68 0 -68 -68h-68l17 170h-34v-102l-51 -51v17l17 170
q-51 0 -51 68h-17l-289 -136l-136 34v-17q-176 0 -238 510q68 765 136 765v17h17v-68h-34v-34l17 -17v-17h-17l17 -51l-51 -85h17l17 17l-51 -306v-68h17q54 663 187 663zM84 650l-17 -17v-136h17l17 153h-17zM611 514l-119 -136h17l119 136h-17zM118 242v-34l17 -51h17v34
l-17 51h-17zM237 157v-17q0 -59 153 -102h34v17q-98 1 -187 102zM506 1845h13q17 0 49 -31q75 -47 138 -143l13 -39l-2 -3l-3 3h-13l3 -13l-3 -18q13 -25 13 -37l-3 -8l3 -15l-5 -8l5 -21v-13h-5l-21 44h-5v-2l5 -18h-3q13 -46 13 -63v-2q0 -4 -18 -13l-8 2l-13 -2h-7
q-11 10 -68 161q-66 130 -174 174q-20 0 -39 23q0 32 41 32l24 5l21 -5z" />
    <glyph glyph-name="dotlessi" unicode="&#x131;" horiz-adv-x="481" 
d="M385 1326q-4 -51 64 -51l31 -68l-18 -17h17q-122 -360 -149 -833l-6 -102l17 -17l-1 -17l-18 -17h17l-18 -17l10 -119l-2 -34q-91 -110 -95 -170h-68l-82 34l24 119l-65 68l31 255l17 306l37 51l4 68l-16 17l1 17h34l1 17l-16 17l69 323h-17l18 17l5 102l-16 17l1 17z
M197 1020l-6 -119h17l6 119h-17zM171 850l-6 -102h17l6 102h-17zM145 697l-5 -102h17l5 102h-17zM142 17l-5 -85l35 34l4 51h-34z" />
    <glyph glyph-name="circumflex" unicode="&#x2c6;" horiz-adv-x="794" 
d="M601 1842q49 0 61 -211v-51q0 -65 -41 -65q0 -6 -17 -6h-24q-8 0 -10 30l-3 4h-7q0 -22 -17 -31l-10 3q-15 -23 -34 -23h-4q-7 6 -30 6q-21 5 -21 24v17l-13 102h-7q0 -26 -75 -75q-55 -95 -102 -95h-3l-24 7v-3q0 -17 -48 -21q-27 17 -27 34v4q11 48 163 224
q102 95 170 95l14 -3q59 34 109 34z" />
    <glyph glyph-name="tilde" unicode="&#x2dc;" horiz-adv-x="840" 
d="M736 1851l15 -23l-3 -2l3 -3h2l3 3l3 -3v-2q0 -21 -18 -50q0 -11 -20 -40h2l38 43h3v-3l-3 -12q5 0 8 -15q-24 -45 -58 -90l-11 -17l3 -3h5q0 11 18 25h2v-2q-35 -42 -35 -50l12 10h3v-2q-45 -65 -104 -127l3 -3v-2q0 -23 -61 -45l-12 -2q-47 0 -114 99l-33 37
q-36 -45 -55 -94l-10 -5h-5l-8 5h-3q-4 0 -30 -52l-2 -3h-3q-32 0 -53 50q-27 0 -48 57q0 9 33 57l55 77q35 54 79 92h5q17 0 55 -69q37 -38 58 -105l3 -2h5q51 0 159 139q26 26 71 85z" />
    <glyph glyph-name="uni02C9" unicode="&#x2c9;" horiz-adv-x="682" 
d="M230 1729l241 -4l78 11l16 38l64 -29l-39 -164l-20 -2q-268 26 -423 -22l-34 17q-22 -5 -43 -12l-59 1v3q0 19 34 36l-4 36l-5 43l22 27l62 9q39 4 124 31z" />
    <glyph glyph-name="breve" unicode="&#x2d8;" horiz-adv-x="793" 
d="M570 1790q22 -20 26 -39h-2l2 -2v-9l3 -7l-25 -82q-8 -31 -51 -83q-33 -37 -48 -40l-6 -1l-17 6l-45 -23q-5 -1 -10 -1q-37 0 -89 46q-70 64 -75 89l-6 22l-4 20q-1 7 -1 15q0 36 26 97q23 31 50 36q6 1 11 1q23 0 48 -15q58 3 8 -85q-39 -54 -36 -113l7 -3l72 32l8 1
l14 1q44 44 52 77q12 26 24 72l-1 6l37 27q16 -23 28 -45z" />
    <glyph glyph-name="dotaccent" unicode="&#x2d9;" horiz-adv-x="694" 
d="M383 1808q39 -2 39 -9l-4 -4v-3q12 0 29 -19v-10q-9 -10 -41 -22q-62 -35 -71 -51h3q74 54 125 54l13 -25q4 0 6 -23q13 0 13 -29q-106 -66 -118 -96q-13 -2 -32 -60l-35 -10q-55 34 -55 67q-5 0 -9 16q-22 0 -55 58l-3 29q77 105 176 134z" />
    <glyph glyph-name="ring" unicode="&#x2da;" horiz-adv-x="793" 
d="M423 1824q38 0 49 -30l4 -16q0 -9 -6 -11l-24 2l-27 -10v-2l4 -4l19 6q8 -1 8 -4l6 2q35 0 35 -20l4 -5q0 -4 -6 -4l-2 -1v-4q18 -37 30 -72q18 -24 18 -43h-2l2 -2v-2l-2 -7l2 -7l-40 -76q-13 -30 -65 -73q-39 -30 -55 -30h-6l-15 9l-49 -14q-40 0 -89 62
q-57 76 -57 101l-2 23v20q0 39 45 106q79 73 124 87l38 17l19 -5zM249 1530l6 -4l77 18h8l14 -2q51 35 65 66q17 23 37 66v10q-6 21 -10 21q-126 -48 -141 -70q-48 -46 -56 -105z" />
    <glyph glyph-name="cedilla" unicode="&#xb8;" horiz-adv-x="811" 
d="M326 -36h6q6 -3 19 -28h3q7 1 14 22l14 3l3 -3v-19l-17 -35v-8l28 -6l53 6q109 0 109 -76q0 -94 -85 -132l-67 -50q-11 -9 -62 -14l-14 5l-28 -8l-31 3h-22l-20 -6q-17 3 -17 8v14q5 9 90 56q71 33 71 116v8l-5 6l-45 -8q-42 2 -42 14q-18 -9 -39 -9h-11q-20 0 -34 20
q1 18 24.5 62.5t40.5 44.5l5 6h9l8 -6q0 -22 -31 -76l-3 -9l3 -3h3q28 0 59 85zM455 -149v-3q0 -12 11 -28v-14h5v31q-6 14 -16 14zM455 -219l2 -8l-8 -3v-8l3 2h3l8 -2v2q0 12 6 12l2 -3v22l-5 6h-3q-7 0 -8 -20zM449 -269l8 8v6q-6 0 -8 -14z" />
    <glyph glyph-name="hungarumlaut" unicode="&#x2dd;" horiz-adv-x="694" 
d="M137 1457q-4 5 -4 15q-11 0 -14 15q0 17 108 114q0 6 36 40q18 21 18 30q-125 -130 -162 -149h-2l2 10l-4 5q0 15 29 40l-11 4l-18 -12l-2 2v4q6 6 9 21q89 83 126 129q74 80 81 126l4 6q36 -5 36 -28l7 -6v-4l-2 -7h2q25 0 36 -55q-25 -59 -83 -120q-43 -52 -156 -150z
M191 1628v3h-2l-16 -18h3zM203 1639v2l-5 -4v-2zM221 1658v3l-7 -7v-2zM227 1663l3 6h-5v-6h2zM304 1697l-16 -17h2q14 6 14 17zM393 1457q-4 5 -4 15q-11 0 -14 15q0 17 108 114q0 6 36 40q18 21 18 30q-125 -130 -162 -149h-2l2 10l-4 5q0 15 29 40l-11 4l-18 -12l-2 2v4
q6 6 9 21q89 83 126 129q74 80 81 126l4 6q36 -5 36 -28l7 -6v-4l-2 -7h2q25 0 36 -55q-25 -59 -83 -120q-43 -52 -156 -150zM447 1628v3h-2l-16 -18h3zM459 1639v2l-5 -4v-2zM477 1658v3l-7 -7v-2zM483 1663l3 6h-5v-6h2zM560 1697l-16 -17h2q14 6 14 17z" />
    <glyph glyph-name="ogonek" unicode="&#x2db;" horiz-adv-x="798" 
d="M538 -208q18 -24 18 -43h-2l2 -2v-2l-2 -7l2 -7l-23 -30q-13 -30 -65 -73q-39 -30 -55 -30h-6l-15 9l-49 -14q-40 0 -89 62q-57 76 -57 101l-2 23v20q15 87 98 168l38 16l19 -5l40 7q38 0 49 -29l4 -16q0 -9 -6 -11l-24 2l-27 -10v-2l4 -4l19 6q8 -1 8 -4l6 2
q35 0 35 -20l4 -5q0 -4 -6 -4l-2 -1v-4q1 -1 1 -2l-37 -21q-3 5 -5 5q-55 -23 -70 -45q-48 -46 -56 -105l6 -4l56 -20h8l14 -2q64 35 78 66q16 22 43 17l39 36q4 -9 7 -18z" />
    <glyph glyph-name="caron" unicode="&#x2c7;" horiz-adv-x="847" 
d="M672 1849l3 -10l-34 -44v-3l4 3h7l6 -7l-17 -20v-7l7 -10q0 -14 -50 -111q-69 -111 -133 -132l-105 -58q-15 -20 -44 -20h-7q-27 15 -27 74l-41 102q-21 0 -34 96q7 6 7 27l34 44l20 7q10 0 21 -21l3 4h3q11 0 34 -112h7l4 3h3q-20 99 -37 146q0 16 54 38q3 10 20 10h4
q15 0 44 -136l20 -65h11l108 129q54 73 105 73z" />
    <glyph glyph-name="Lslash" unicode="&#x141;" horiz-adv-x="1139" 
 />
    <glyph glyph-name="lslash" unicode="&#x142;" horiz-adv-x="455" 
 />
    <glyph glyph-name="Scaron" unicode="&#x160;" horiz-adv-x="986" 
d="M546 1357q45 -34 286 -34l-1 -17h-119l-1 -17q213 0 266 -102l-2 -34h-85l-1 -17l118 -17l-1 -17h-102l-1 -17q51 0 49 -34q-303 0 -541 -221l-1 -17q329 -88 521 -391l-1 -17q-62 -220 -347 -408l-104 -17l-1 -17h34q-2 -46 -312 -102l2 34h85l2 17q-109 0 -197 119
q-76 39 -76 149q0 10 1 21l53 34l49 -34h34q480 75 495 306q-201 102 -266 102l-1 -17l-167 68l16 -17l-1 -34q-212 156 -207 238l133 238l89 68l-2 -34zM314 898l-1 -17l300 187l138 34l2 34h-34q-269 -100 -405 -238zM408 201h17l36 34h-17zM714 201l-73 -85h17l73 85h-17
zM501 65v-17h17l71 51zM308 -54l-1 -17h68l86 17v17h-17zM830 1850l4 -10l-34 -45v-3l3 3h7l7 -6l-17 -21v-7l7 -10q0 -14 -51 -110q-68 -112 -132 -133l-106 -58q-15 -20 -44 -20h-7q-27 16 -27 75l-41 102q-21 0 -34 95q7 7 7 27l34 44l21 7q10 0 20 -20l3 3h4
q10 0 34 -112h7l3 3h3q-20 99 -37 147q0 16 54 37q4 10 21 10h3q15 0 44 -136l21 -64h10l109 129q53 73 104 73z" />
    <glyph glyph-name="scaron" unicode="&#x161;" horiz-adv-x="986" 
d="M546 1357q45 -34 286 -34l-1 -17h-119l-1 -17q213 0 266 -102l-2 -34h-85l-1 -17l118 -17l-1 -17h-102l-1 -17q51 0 49 -34q-303 0 -541 -221l-1 -17q329 -88 521 -391l-1 -17q-62 -220 -347 -408l-104 -17l-1 -17h34q-2 -46 -312 -102l2 34h85l2 17q-109 0 -197 119
q-76 39 -76 149q0 10 1 21l53 34l49 -34h34q480 75 495 306q-201 102 -266 102l-1 -17l-167 68l16 -17l-1 -34q-212 156 -207 238l133 238l89 68l-2 -34zM314 898l-1 -17l300 187l138 34l2 34h-34q-269 -100 -405 -238zM408 201h17l36 34h-17zM714 201l-73 -85h17l73 85h-17
zM501 65v-17h17l71 51zM308 -54l-1 -17h68l86 17v17h-17zM830 1849l3 -10l-34 -44v-3l4 3h7l6 -7l-17 -20v-7l7 -10q0 -14 -50 -111q-69 -111 -133 -132l-105 -58q-15 -20 -44 -20h-7q-27 15 -27 74l-41 102q-21 0 -34 96q7 6 7 27l34 44l20 7q10 0 21 -21l3 4h3
q11 0 34 -112h7l4 3h3q-20 99 -37 146q0 16 54 38q3 10 20 10h4q15 0 44 -136l20 -65h11l108 129q54 73 105 73z" />
    <glyph glyph-name="Zcaron" unicode="&#x17d;" horiz-adv-x="970" 
d="M98 1311l103 -17l341 17l426 -125v-36l17 -18l-17 -18h-17v-18h34l34 36h17v-71l-665 -807h102l103 19q211 -55 272 -162h18v-71l-35 -37h-17l-85 37l17 -19v-34l-136 34h-51q-165 0 -444 -107l-102 89l51 144l-34 36v71q126 215 154 215l17 -18l17 18v18h-17q0 54 68 54
l68 90l-17 17l51 36l17 -18q152 239 205 251v-18l-188 -251h17l290 359h-17l-68 -54l-17 18v18l17 18l-171 -18h-204q-81 40 -120 125v18l34 54q-28 90 -85 90l17 18v17zM542 631l-103 -125h17l103 125h-17zM337 577l-85 -108h17l85 108h-17zM422 487l-85 -107h17l85 107
h-17zM855 1849l4 -10l-34 -44v-4l3 4h7l7 -7l-17 -21v-6l6 -11q0 -13 -50 -110q-69 -112 -132 -133l-106 -57q-15 -21 -44 -21h-7q-27 16 -27 75l-41 102q-21 0 -34 95q7 7 7 27l34 45l20 6q11 0 21 -20l3 3h4q10 0 34 -112h6l4 4h3q-20 99 -37 146q0 16 54 37q4 10 21 10h3
q15 0 44 -136l21 -64h10l109 129q53 73 104 73z" />
    <glyph glyph-name="zcaron" unicode="&#x17e;" horiz-adv-x="970" 
d="M98 1311l103 -17l341 17l426 -125v-36l17 -18l-17 -18h-17v-18h34l34 36h17v-71l-665 -807h102l103 19q211 -55 272 -162h18v-71l-35 -37h-17l-85 37l17 -19v-34l-136 34h-51q-165 0 -444 -107l-102 89l51 144l-34 36v71q126 215 154 215l17 -18l17 18v18h-17q0 54 68 54
l68 90l-17 17l51 36l17 -18q152 239 205 251v-18l-188 -251h17l290 359h-17l-68 -54l-17 18v18l17 18l-171 -18h-204q-81 40 -120 125v18l34 54q-28 90 -85 90l17 18v17zM542 631l-103 -125h17l103 125h-17zM337 577l-85 -108h17l85 108h-17zM422 487l-85 -107h17l85 107
h-17zM855 1849l3 -10l-34 -44v-3l4 3h7l6 -7l-17 -20v-7l7 -10q0 -14 -50 -111q-69 -111 -133 -132l-105 -58q-15 -20 -44 -20h-7q-27 15 -27 74l-41 102q-21 0 -34 96q7 6 7 27l34 44l20 7q10 0 21 -21l3 4h3q11 0 34 -112h7l4 3h3q-20 99 -37 146q0 16 54 38q3 10 20 10h4
q15 0 44 -136l20 -65h11l108 129q54 73 105 73z" />
    <glyph glyph-name="brokenbar" unicode="&#xa6;" horiz-adv-x="532" 
 />
    <glyph glyph-name="Eth" unicode="&#xd0;" horiz-adv-x="1479" 
 />
    <glyph glyph-name="eth" unicode="&#xf0;" horiz-adv-x="1139" 
 />
    <glyph glyph-name="Yacute" unicode="&#xdd;" horiz-adv-x="1366" 
 />
    <glyph glyph-name="yacute" unicode="&#xfd;" horiz-adv-x="1024" 
 />
    <glyph glyph-name="Thorn" unicode="&#xde;" horiz-adv-x="1366" 
 />
    <glyph glyph-name="thorn" unicode="&#xfe;" horiz-adv-x="1139" 
 />
    <glyph glyph-name="minus" unicode="&#x2212;" horiz-adv-x="1196" 
 />
    <glyph glyph-name="multiply" unicode="&#xd7;" horiz-adv-x="1196" 
 />
    <glyph glyph-name="uni00B9" unicode="&#xb9;" horiz-adv-x="682" 
 />
    <glyph glyph-name="uni00B2" unicode="&#xb2;" horiz-adv-x="682" 
 />
    <glyph glyph-name="uni00B3" unicode="&#xb3;" horiz-adv-x="682" 
 />
    <glyph glyph-name="onehalf" unicode="&#xbd;" horiz-adv-x="1708" 
 />
    <glyph glyph-name="onequarter" unicode="&#xbc;" horiz-adv-x="1708" 
 />
    <glyph glyph-name="threequarters" unicode="&#xbe;" horiz-adv-x="1708" 
 />
  </font>
</defs>
</svg>
