<?xml version="1.0" encoding="UTF-8"?>
<svg width="32px" height="32px" viewBox="0 0 32 32" version="1.1" xmlns="http://www.w3.org/2000/svg" xmlns:xlink="http://www.w3.org/1999/xlink">
    <!-- Generator: sketchtool 41.2 (35397) - http://www.bohemiancoding.com/sketch -->
    <title>C0BBAC00-2FD6-4B51-A3B4-C3FEF73CB1B2</title>
    <desc>Created with sketchtool.</desc>
    <defs></defs>
    <g id="Symbols" stroke="none" stroke-width="1" fill="none" fill-rule="evenodd">
        <g id="Icon-Board" transform="translate(-611.000000, -54.000000)"></g>
        <g id="Icon-Shuffle---Dark" fill="#111111">
            <path d="M23.5483871,16.5000306 L23.5483871,17.6345145 C23.5483871,18.9862726 22.5364839,20.17745 21.1847258,20.17745 L14.6612903,20.17745 L14.6612903,17.1736113 L8.10659677,21.3119339 L14.6612903,25.4502565 L14.6612903,22.6290629 L21.1847258,22.6290629 C23.8882419,22.6290629 26,20.3380306 26,17.6345145 L26,16.5000306 L23.5483871,16.5000306 Z M9.4516129,14.8157419 C9.4516129,13.4639839 10.4638226,12.516129 11.8155806,12.516129 L18.3387097,12.516129 L18.3387097,15.2766452 L24.8934032,11.1383226 L18.3387097,7 L18.3387097,10.0645161 L11.8155806,10.0645161 C9.11206452,10.0645161 7,12.1122258 7,14.8157419 L7,15.8870968 L9.4516129,15.8870968 L9.4516129,14.8157419 Z" id="Combined-Shape"></path>
        </g>
    </g>
</svg>