<?xml version="1.0" encoding="UTF-8"?>
<svg width="32px" height="32px" viewBox="0 0 32 32" version="1.1" xmlns="http://www.w3.org/2000/svg" xmlns:xlink="http://www.w3.org/1999/xlink">
    <!-- Generator: sketchtool 41.2 (35397) - http://www.bohemiancoding.com/sketch -->
    <title>668CDF75-70F9-4AAB-B48F-ED217A618C6A</title>
    <desc>Created with sketchtool.</desc>
    <defs></defs>
    <g id="Symbols" stroke="none" stroke-width="1" fill="none" fill-rule="evenodd">
        <g id="Icon-Board" transform="translate(-49.000000, -107.000000)"></g>
        <g id="Icon-Question-Mark---Light" fill="#F8F8F8">
            <path d="M18,18.7769836 C22.0079774,17.8675252 25,14.2831748 25,10 C25,5.02943725 20.9705627,1 16,1 C11.0294373,1 7,5.02943725 7,10 L11,10 C11,7.23857625 13.2385763,5 16,5 C18.7614237,5 21,7.23857625 21,10 C21,12.7614237 18.7614237,15 16,15 L14,15 L14,23 L18,23 L18,18.7769836 Z M16.1047272,31 C17.7312165,31 19.0497467,29.6568542 19.0497467,28 C19.0497467,26.3431458 17.7312165,25 16.1047272,25 C14.4782378,25 13.1597076,26.3431458 13.1597076,28 C13.1597076,29.6568542 14.4782378,31 16.1047272,31 Z" id="Combined-Shape"></path>
        </g>
    </g>
</svg>