<?xml version="1.0" encoding="UTF-8"?>
<svg width="64px" height="64px" viewBox="0 0 64 64" version="1.1" xmlns="http://www.w3.org/2000/svg" xmlns:xlink="http://www.w3.org/1999/xlink">
    <!-- Generator: sketchtool 41.2 (35397) - http://www.bohemiancoding.com/sketch -->
    <title>F8D85AD2-5987-48F9-96D5-0CF25C599F07</title>
    <desc>Created with sketchtool.</desc>
    <defs>
        <polygon id="path-1" points="50.916 25.5381783 50.916 0.0438509513 0 0.0438509513 0 25.5381783 0 51.0325056 50.916 51.0325056"></polygon>
        <polygon id="path-3" points="0.01029 21.3247777 10.10649 21.3247777 10.10649 0.0313564336 0.01029 0.0313564336"></polygon>
    </defs>
    <g id="**Symbols**" stroke="none" stroke-width="1" fill="none" fill-rule="evenodd">
        <g id="Icon-Board" transform="translate(-509.000000, -180.000000)"></g>
        <g id="Icon-Juicy---Dark">
            <g id="Random-Icon" transform="translate(6.000000, 3.000000)">
                <path d="M7.57704,13.9402775 L37.30554,43.7033598 C44.68074,35.4362541 44.40564,22.6996552 36.48084,14.7656365 C28.55664,6.83251883 15.83484,6.55649812 7.57704,13.9402775 Z M37.32954,47.1252357 L4.15914,13.9162496 L5.00754,13.0668626 C14.15304,3.91102429 29.03334,3.91162499 38.17794,13.0668626 C47.32284,22.2224006 47.32284,37.1200104 38.17794,46.2755484 L37.32954,47.1252357 Z" id="Fill-1" fill="#000000"></path>
                <g id="Group-5" transform="translate(0.000000, 0.256498)">
                    <mask id="mask-2" fill="white">
                        <use xlink:href="#path-1"></use>
                    </mask>
                    <g id="Clip-4"></g>
                    <path d="M3.4125,9.51436492 L41.4699,47.6157356 C51.1341,37.0476564 50.8581,20.5753169 40.6401,10.3454306 C35.5524,5.25181218 28.788,2.4465527 21.5928,2.4465527 C14.7993,2.4465527 8.3895,4.94755866 3.4125,9.51436492 L3.4125,9.51436492 Z M41.4885,51.0325056 L0,9.49574328 L0.8484,8.64635637 C6.3894,3.09891068 13.7565,0.0437608466 21.5928,0.0437608466 C29.4291,0.0437608466 36.7962,3.09891068 42.3372,8.64635637 C53.7756,20.0980623 53.7756,38.7311124 42.3372,50.1828184 L41.4885,51.0325056 Z" id="Fill-3" fill="#000000" mask="url(#mask-2)"></path>
                </g>
                <g id="Group-8" transform="translate(12.600000, 35.397329)">
                    <mask id="mask-4" fill="white">
                        <use xlink:href="#path-3"></use>
                    </mask>
                    <g id="Clip-7"></g>
                    <path d="M5.05839,7.15383217 C3.76719,10.9111979 2.41029,15.2025842 2.41029,16.2706251 C2.41029,17.732724 3.59829,18.922106 5.05839,18.922106 C6.51849,18.922106 7.70649,17.732724 7.70649,16.2706251 C7.70649,15.2025842 6.34959,10.9111979 5.05839,7.15383217 M5.05839,21.3248978 C2.27499,21.3248978 0.01029,19.0575633 0.01029,16.2706251 C0.01029,14.0441382 3.27609,4.93935914 3.93069,3.13666455 L5.05839,0.0313564336 L6.18609,3.13666455 C6.84069,4.93935914 10.10649,14.0441382 10.10649,16.2706251 C10.10649,19.0575633 7.84179,21.3248978 5.05839,21.3248978" id="Fill-6" fill="#000000" mask="url(#mask-4)"></path>
                </g>
                <polygon id="Fill-9" fill="#000000" points="22.44141 30.5204723 20.74431 28.8216985 36.48081 13.0668927 38.17821 14.7656665"></polygon>
                <polygon id="Fill-11" fill="#000000" points="21.5928 30.8725714 43.8477 30.8725714 43.8477 28.4697796 21.5928 28.4697796"></polygon>
                <polygon id="Fill-13" fill="#000000" points="20.3928 29.6714759 22.7928 29.6714759 22.7928 7.39038703 20.3928 7.39038703"></polygon>
            </g>
        </g>
    </g>
</svg>