<svg width="17" height="41" viewBox="0 0 17 41" xmlns="http://www.w3.org/2000/svg"><title>D4546BD5-1CF3-4255-AAFB-46D31295FDFB</title><g transform="matrix(1 0 0 -1 -1 42)" fill="#FFF" fill-rule="evenodd"><rect x="8" y="4" width="3" height="20" rx="1.5"/><path d="M1.49 8.388a1.497 1.497 0 0 0 0 2.122 1.498 1.498 0 0 0 2.122 0l6.898-6.898a1.497 1.497 0 0 0 0-2.122 1.498 1.498 0 0 0-2.122 0L1.49 8.388z"/><rect opacity=".5" x="8" y="27" width="3" height="9" rx="1.5"/><rect opacity=".2" x="8" y="39" width="3" height="3" rx="1.5"/><path d="M17.51 8.388c.586.587.59 1.533 0 2.122a1.498 1.498 0 0 1-2.122 0L8.49 3.612a1.497 1.497 0 0 1 0-2.122 1.498 1.498 0 0 1 2.122 0l6.898 6.898z"/></g></svg>