<?xml version="1.0" encoding="UTF-8"?>
<svg width="109px" height="93px" viewBox="0 0 109 93" version="1.1" xmlns="http://www.w3.org/2000/svg" xmlns:xlink="http://www.w3.org/1999/xlink">
    <!-- Generator: Sketch 47.1 (45422) - http://www.bohemiancoding.com/sketch -->
    <title>Group 44</title>
    <desc>Created with Sketch.</desc>
    <defs></defs>
    <g id="**Symbols**" stroke="none" stroke-width="1" fill="none" fill-rule="evenodd" stroke-linecap="round" stroke-linejoin="round">
        <g id="icon_brain" transform="translate(-26.000000, -34.000000)" stroke="#000000" stroke-width="2">
            <g id="Group-44" transform="translate(27.000000, 35.000000)">
                <path d="M53.639839,20.9123298 L53.639839,85.1497716 C53.639839,85.1497716 56.4721006,92.8837716 63.1283702,90.4533273 C69.7839899,88.022233 70.1992757,82.9071846 68.1826378,79.3716974" id="Stroke-147"></path>
                <path d="M73.8264292,65.9268359 C73.8264292,65.9268359 80.4820489,71.4507502 77.0538296,77.8586987 C73.6249604,84.2659973 69.247238,82.9405959 69.247238,82.9405959" id="Stroke-148"></path>
                <path d="M78.0350477,70.5669109 C78.0350477,70.5669109 89.3569451,67.9460092 85.1215507,55.5571787" id="Stroke-149"></path>
                <path d="M67.0094394,35.1272112 C68.9831839,35.1272112 70.7229646,34.0319187 71.7504555,32.3659041 C71.7504555,32.3659041 77.9927392,23.6965178 69.2470431,17.3165203 C58.9155924,9.77882794 53.6241115,20.0953781 53.6241115,20.0953781" id="Stroke-150"></path>
                <path d="M85.3046924,35.7808115 C85.3046924,35.7808115 88.6412759,22.5124969 72.4984247,20.7645791" id="Stroke-151"></path>
                <path d="M61.6060459,51.3287646 C61.6060459,56.0700486 65.1148527,59.9142977 69.4431827,59.9142977 C73.7708628,59.9142977 77.2796696,56.0700486 77.2796696,51.3287646 C77.2796696,50.101517 77.0450559,48.9347218 76.6213215,47.8790808 L75.4625509,45.0189699 C75.4625509,45.0189699 73.1177139,39.1732931 79.1676274,36.308632 C85.2175408,33.4439709 88.7802893,39.4502039 89.318406,40.8256572 C89.8565227,42.2011106 92.5835006,49.2636345 85.1213557,55.5571787" id="Stroke-152"></path>
                <path d="M53.639839,20.9123298 L53.639839,85.1497716 C53.639839,85.1497716 50.8075775,92.8837716 44.1513078,90.4533273 C37.4956881,88.022233 37.0882012,82.4983187 39.104839,78.9634816 C41.1221268,75.4279945 46.7756016,77.7784856 48.187833,71.8125542" id="Stroke-153"></path>
                <path d="M33.4532489,65.9268359 C33.4532489,65.9268359 26.7976292,71.4507502 30.2258485,77.8586987 C33.6547177,84.2659973 38.03244,82.9405959 38.03244,82.9405959" id="Stroke-154"></path>
                <path d="M29.2446304,70.5669109 C29.2446304,70.5669109 17.922733,67.9460092 22.1581274,55.5571787" id="Stroke-155"></path>
                <path d="M45.9875336,28.8638282 C45.9875336,32.3232624 43.4275799,35.1274712 40.2703686,35.1274712 C38.2966241,35.1274712 36.5568435,34.0315287 35.5293525,32.3655141 C35.5293525,32.3655141 29.2864189,23.6961278 38.0321151,17.3161303 C48.3642157,9.77908795 53.6556966,20.0949881 53.6556966,20.0949881" id="Stroke-156"></path>
                <path d="M21.9749857,35.7808115 C21.9749857,35.7808115 18.6384022,22.5124969 34.7812533,20.7645791" id="Stroke-157"></path>
                <path d="M45.6736322,51.3287646 C45.6736322,56.0700486 42.1648254,59.9142977 37.8364954,59.9142977 C33.5088153,59.9142977 30.0000085,56.0700486 30.0000085,51.3287646 C30.0000085,50.101517 30.2346221,48.9347218 30.6583565,47.8790808 L31.8171272,45.0189699 C31.8171272,45.0189699 34.1619642,39.1732931 28.1120507,36.308632 C22.0621372,33.4439709 18.4993887,39.4502039 17.961272,40.8256572 C17.4231553,42.2011106 14.6961775,49.2636345 22.1583223,55.5571787" id="Stroke-158"></path>
                <polyline id="Stroke-206" points="18.1060046 18.2920132 12.3550449 6.0396879 6.83999859 11.5551518 0.787485513 0.30061528"></polyline>
                <polyline id="Stroke-207" points="89.1736734 18.2920132 94.9246332 6.0396879 100.439679 11.5551518 106.492193 0.30061528"></polyline>
            </g>
        </g>
    </g>
</svg>