<svg width="200" height="200" viewBox="0 0 200 200" xmlns="http://www.w3.org/2000/svg" xmlns:xlink="http://www.w3.org/1999/xlink"><title>D2DF4CC3-3FD4-48BB-966C-7C30F0ABCB01</title><defs><path d="M124.729 58.148c2.67-1.666 5.572-1.85 7.71-1.986 2.795-.178 3.586-.339 4.338-1.399.751-1.059.644-1.861-.101-4.57-.818-2.97-2.054-7.46 1.216-12.068 3.27-4.61 7.901-4.905 10.966-5.1 2.795-.179 3.586-.34 4.34-1.4.754-1.063.647-1.866-.099-4.577-.637-2.314-1.527-5.55-.342-9.048l8.846 6.692c.817 2.971 2.051 7.461-1.22 12.07-3.27 4.61-7.9 4.906-10.966 5.1-2.795.179-3.586.34-4.34 1.401-.751 1.06-.644 1.862.102 4.57.817 2.971 2.054 7.46-1.217 12.068-3.27 4.61-7.901 4.904-10.965 5.099l-8.268-6.852z" id="a"/><mask id="b" x="0" y="0" width="37.797" height="47" fill="#fff"><use xlink:href="#a"/></mask></defs><g fill="none" fill-rule="evenodd"><path d="M138.851 92.131c0 22.038-17.796 39.901-39.748 39.901-21.953 0-39.748-17.863-39.748-39.9 0-22.038 17.795-39.901 39.748-39.901 21.952 0 39.748 17.863 39.748 39.9" fill="#6114CC" opacity=".2"/><path fill="#6114CC" d="M98.736 112.46L76.284 89.921l22.452-22.54 22.451 22.54z"/><g transform="translate(15 9.4)"><path d="M105.7 14.907c0 8.233-6.649 14.907-14.85 14.907S76 23.14 76 14.907 82.649 0 90.85 0s14.85 6.674 14.85 14.907zM46.7 18.942c0 3.243-2.62 5.872-5.85 5.872-3.23 0-5.85-2.629-5.85-5.872 0-3.244 2.62-5.873 5.85-5.873 3.23 0 5.85 2.63 5.85 5.873zM16.7 138.942c0 3.243-2.62 5.872-5.85 5.872-3.23 0-5.85-2.629-5.85-5.872 0-3.244 2.62-5.873 5.85-5.873 3.23 0 5.85 2.63 5.85 5.873z" stroke="#FFA5BE" stroke-width="3" stroke-linecap="round"/><path d="M86.7 148.942c0 3.243-2.62 5.872-5.85 5.872-3.23 0-5.85-2.629-5.85-5.872 0-3.244 2.62-5.873 5.85-5.873 3.23 0 5.85 2.63 5.85 5.873z" stroke="#C382E6" stroke-width="3" stroke-linecap="round"/><path d="M156.7 108.942c0 3.243-2.62 5.872-5.85 5.872-3.23 0-5.85-2.629-5.85-5.872 0-3.244 2.62-5.873 5.85-5.873 3.23 0 5.85 2.63 5.85 5.873z" stroke="#FFA5BE" stroke-width="3" stroke-linecap="round"/><path stroke="#C382E6" stroke-width="3" stroke-linecap="round" d="M144.772 131l4.986 31.603L120 151.137z"/><path stroke="#FFA5BE" stroke-width="3" stroke-linecap="round" d="M27.739 85.022l3.01 19.076-17.143 8.77L0 99.208 8.735 82z"/><path stroke="#C382E6" stroke-width="3" stroke-linecap="round" d="M61.599 62.956l-7.73 7.76L31 47.76 38.73 40z"/><use stroke="#C382E6" mask="url(#b)" stroke-width="6" stroke-linecap="round" stroke-linejoin="round" xlink:href="#a"/><path d="M91.807 80.563c0 4.271-3.449 7.734-7.704 7.734s-7.704-3.463-7.704-7.734 3.449-7.735 7.704-7.735 7.704 3.464 7.704 7.735" fill="#FFF"/><path stroke="#FFA5BE" stroke-width="3" stroke-linecap="round" d="M56.729 151.84L31 163.335l3.907-21.841L60.636 130z"/></g></g></svg>