<svg width="200" height="200" viewBox="0 0 200 200" xmlns="http://www.w3.org/2000/svg"><title>90BF57F4-6315-4D7D-B8B9-8D17912E39FA</title><g fill="none" fill-rule="evenodd"><path d="M84.496 100.9c0 22.038-17.796 39.902-39.748 39.902C22.795 140.802 5 122.938 5 100.9 5 78.864 22.795 61 44.748 61c21.952 0 39.748 17.864 39.748 39.9" fill="#FFBF00" opacity=".1"/><path d="M43.482 100.156L190.12 40.174M43.482 100.715l148 60" stroke="#FFBF00" stroke-width="3" stroke-linecap="round" stroke-linejoin="round" stroke-dasharray="4,8" opacity=".5"/><path d="M55 101c0 5.522-4.477 10-10 10s-10-4.478-10-10 4.477-10 10-10 10 4.478 10 10" fill="#FFBF00"/><path d="M117 100.5c0 6.904-5.596 12.5-12.5 12.5-6.903 0-12.5-5.596-12.5-12.5S97.597 88 104.5 88c6.904 0 12.5 5.596 12.5 12.5z" stroke="#FFBF00" stroke-width="3" opacity=".5"/><path d="M196 101c0 13.807-11.193 25-25 25s-25-11.193-25-25 11.193-25 25-25 25 11.193 25 25z" stroke="#FFBF00" stroke-width="3" opacity=".1"/></g></svg>