<svg width="200" height="200" viewBox="0 0 200 200" xmlns="http://www.w3.org/2000/svg"><title>A66E1D44-CA29-4783-B645-51200629F72B</title><g fill="none" fill-rule="evenodd"><path d="M165.452 83.98c0 19.564-15.891 35.425-35.493 35.425-19.602 0-35.493-15.861-35.493-35.426s15.89-35.426 35.493-35.426c19.602 0 35.493 15.861 35.493 35.426z" stroke="#13C04D" stroke-width="3" stroke-linecap="round" stroke-linejoin="round" stroke-dasharray="4,8" opacity=".3"/><path stroke="#96CC29" stroke-width="2" opacity=".6" d="M81.708 130.615l-40.122 17.614-40.12-17.614L41.585 113z"/><path fill="#13C04D" d="M159.122 51L119 68.615l40.122 17.614 40.12-17.614z"/><path fill="#95C92F" opacity=".5" d="M100.122 82L60 99.615l40.122 17.614 40.12-17.614z"/><path d="M104.407 119.405c0 19.565-15.891 35.426-35.493 35.426-10.993 0-20.818-4.988-27.33-12.82a35.242 35.242 0 0 1-8.163-22.606c0-19.565 15.89-35.426 35.493-35.426 19.602 0 35.493 15.861 35.493 35.426z" stroke="#13C04D" stroke-width="3" stroke-linecap="round" opacity=".3" stroke-linejoin="round" stroke-dasharray="4,8"/><path d="M110 100c0 5.523-4.477 10-10 10-5.522 0-10-4.477-10-10s4.478-10 10-10c5.523 0 10 4.477 10 10" fill="#13C04D"/></g></svg>