<svg width="200" height="200" viewBox="0 0 200 200" xmlns="http://www.w3.org/2000/svg" xmlns:xlink="http://www.w3.org/1999/xlink"><title>21E33ED8-304A-475A-AD01-30B3D07B2F6D</title><defs><path id="a" d="M0 .468V14.5h14.032V.468H0z"/><path id="c" d="M.512 9h8.22V.78H.512V9z"/><path id="e" d="M8.29 9.17V.95H.07v8.22h8.22z"/></defs><g fill="none" fill-rule="evenodd"><path d="M178.996 130.41c0 7.238-5.868 13.106-13.106 13.106-7.238 0-13.105-5.868-13.105-13.106 0-7.238 5.867-13.106 13.105-13.106s13.106 5.868 13.106 13.106M161.005 49.66a8.22 8.22 0 1 1-16.44 0 8.22 8.22 0 1 1 16.44 0" fill="#ED0082"/><g transform="translate(19 143.047)"><mask id="b" fill="#fff"><use xlink:href="#a"/></mask><path d="M14.032 7.484A7.016 7.016 0 1 1 0 7.484a7.016 7.016 0 0 1 14.032 0" fill="#ED0082" mask="url(#b)"/></g><path d="M45.18 57.879a8.22 8.22 0 1 1-16.439 0 8.22 8.22 0 1 1 16.44 0M171.342 100.606a4.11 4.11 0 1 1-8.22 0 4.11 4.11 0 0 1 8.22 0" fill="#ED0082"/><g transform="translate(31 168.047)"><mask id="d" fill="#fff"><use xlink:href="#c"/></mask><path d="M8.732 4.89a4.11 4.11 0 1 1-8.22 0 4.11 4.11 0 0 1 8.22 0" fill="#FA7D78" mask="url(#d)"/></g><g transform="translate(173 45.047)"><mask id="f" fill="#fff"><use xlink:href="#e"/></mask><path d="M8.29 5.06a4.11 4.11 0 1 1-8.22 0 4.11 4.11 0 0 1 8.22 0" fill="#FA7D78" mask="url(#f)"/></g><g stroke="#FFA5BE" stroke-width="3" opacity=".32"><path d="M96.325 27.11l48.24 18.996M26.016 143.516L36.96 66.098M147.96 56.303L107.59 93.98M43.249 63.167L96.26 100"/></g><path d="M35.623 172.937l1.753-.963" stroke="#ED0082" stroke-width="3" stroke-linecap="round" stroke-linejoin="round"/><path d="M44.117 168.268l117.991-64.846" stroke="#ED0082" stroke-width="3" stroke-linecap="round" stroke-linejoin="round" stroke-dasharray="3.847,7.693" opacity=".5"/><path stroke="#ED0082" stroke-width="3" stroke-linecap="round" stroke-linejoin="round" d="M165.48 101.57l1.752-.963.386-1.963"/><path d="M169.287 90.176l6.673-33.873" stroke="#ED0082" stroke-width="3" stroke-linecap="round" stroke-linejoin="round" stroke-dasharray="4.316,8.631" opacity=".5"/><path d="M96.325 27.11a4.11 4.11 0 1 1-8.22 0 4.11 4.11 0 0 1 8.22 0" fill="#FA7D78"/><path d="M176.794 52.069l.387-1.963" stroke="#ED0082" stroke-width="3" stroke-linecap="round" stroke-linejoin="round"/><path d="M48.732 108.807L97.18 54.216" stroke="#ED0082" stroke-width="3" stroke-linecap="round" stroke-linejoin="round" stroke-dasharray="4,8" opacity=".5"/><path d="M52.842 108.807a4.11 4.11 0 1 1-8.22 0 4.11 4.11 0 0 1 8.22 0M101.29 54.216a4.11 4.11 0 1 1-8.22 0 4.11 4.11 0 0 1 8.22 0" fill="#FA7D78"/><circle fill="#ED0082" cx="100" cy="100" r="10"/></g></svg>