<svg xmlns="http://www.w3.org/2000/svg" width="701" height="97" viewBox="0 0 701 97">
    <g fill="none" fill-rule="evenodd" stroke-width="3">
        <path stroke="#C382E6" d="M613.5 71.128L597 54.564 613.5 38 630 54.564zM12.405 65.196L2.81 55.564l9.595-9.632L22 55.564z"/>
        <path stroke="#6114CC" stroke-linecap="round" d="M247.7 19.896c0 6.57-5.305 11.895-11.85 11.895S224 26.465 224 19.896C224 13.326 229.305 8 235.85 8s11.85 5.326 11.85 11.896z"/>
        <path stroke="#FFA5BE" stroke-linecap="round" d="M70.755 55.873c0 3.243-2.62 5.872-5.85 5.872-3.231 0-5.85-2.63-5.85-5.872 0-3.244 2.619-5.873 5.85-5.873 3.23 0 5.85 2.63 5.85 5.873zM178.7 37.873c0 3.243-2.62 5.872-5.85 5.872-3.23 0-5.85-2.63-5.85-5.872 0-3.244 2.62-5.873 5.85-5.873 3.23 0 5.85 2.63 5.85 5.873zM318.7 7.872c0 3.244-2.62 5.873-5.85 5.873-3.23 0-5.85-2.63-5.85-5.872C307 4.628 309.62 2 312.85 2c3.23 0 5.85 2.63 5.85 5.872zM518.7 85.873c0 3.243-2.62 5.872-5.85 5.872-3.23 0-5.85-2.63-5.85-5.873 0-3.243 2.62-5.872 5.85-5.872 3.23 0 5.85 2.63 5.85 5.873zM448.356 40.873c0 3.243-2.62 5.872-5.85 5.872-3.23 0-5.85-2.63-5.85-5.872 0-3.244 2.62-5.873 5.85-5.873 3.23 0 5.85 2.63 5.85 5.873zM213.7 55.873c0 3.243-2.62 5.872-5.85 5.872-3.23 0-5.85-2.63-5.85-5.872 0-3.244 2.62-5.873 5.85-5.873 3.23 0 5.85 2.63 5.85 5.873zM699.101 55.873c0 3.243-2.62 5.872-5.85 5.872-3.23 0-5.85-2.63-5.85-5.872 0-3.244 2.62-5.873 5.85-5.873 3.23 0 5.85 2.63 5.85 5.873z"/>
        <path stroke="#6114CC" stroke-linecap="round" d="M415.272 30l4.986 31.603L390.5 50.137zM572.34 67.022l3.01 19.076-17.143 8.77L544.6 81.208 553.336 64z"/>
        <path stroke="#C382E6" stroke-linecap="round" d="M144.599 62.956l-7.73 7.76L114 47.76 121.73 40z"/>
        <path stroke="#6114CC" stroke-linecap="round" stroke-linejoin="round" d="M275.945 71.323c2.35-1.466 4.903-1.628 6.784-1.747 2.46-.157 3.154-.298 3.816-1.231.662-.932.567-1.638-.088-4.021-.72-2.614-1.808-6.563 1.07-10.617 2.877-4.056 6.95-4.316 9.648-4.488 2.459-.157 3.155-.298 3.818-1.232.663-.935.569-1.64-.087-4.026-.56-2.037-1.344-4.884-.3-7.961l7.782 5.888c.719 2.614 1.805 6.564-1.073 10.62-2.878 4.055-6.952 4.315-9.649 4.487-2.459.156-3.155.299-3.818 1.232-.661.932-.567 1.638.09 4.021.719 2.614 1.807 6.563-1.07 10.617-2.879 4.056-6.953 4.315-9.648 4.487l-7.275-6.029z"/>
        <path stroke="#C382E6" stroke-linecap="round" d="M503.729 34.84L478 46.335l3.907-21.841L507.636 13z"/>
    </g>
</svg>
