<?xml version="1.0" encoding="UTF-8"?>
<svg width="112px" height="46px" viewBox="0 0 112 46" version="1.1" xmlns="http://www.w3.org/2000/svg" xmlns:xlink="http://www.w3.org/1999/xlink">
    <!-- Generator: sketchtool 41.2 (35397) - http://www.bohemiancoding.com/sketch -->
    <title>3716B4E5-85DC-4821-8598-715CCA8AB7CE</title>
    <desc>Created with sketchtool.</desc>
    <defs></defs>
    <g id="Symbols" stroke="none" stroke-width="1" fill="none" fill-rule="evenodd">
        <g id="Icon-Board" transform="translate(-402.000000, -268.000000)"></g>
        <g id="Logo-Dark" fill="#111111">
            <path d="M40.3812637,17.2383711 C39.3515223,16.8459683 38.6029929,16.9689296 37.8904839,17.4618797 C37.4808308,17.7161681 37.0738633,18.1511891 36.5882197,18.7158009 C36.5882197,18.7165901 25.5130495,30.9129623 25.5130495,30.9129623 L26.651642,26.6366239 L28.6814237,20.9218435 C29.2732327,19.0232831 28.828981,18.6622914 27.1093224,17.4925017 L26.9287464,17.3696982 C25.7868362,16.5960996 25.2310476,17.0188086 24.8365609,18.1778649 L23.912037,20.1226739 L14.2361333,28.5238194 L17.0431976,20.5629038 C17.3245675,19.6846539 17.2716428,19.2257983 16.4417515,18.648401 L14.5064444,17.3337095 C13.7903018,16.848336 13.1866439,16.9324674 12.383294,17.3793268 L10.0140041,18.7342688 C9.28174709,19.1432453 9.10591061,19.560272 9.70751465,19.9698799 C9.70798861,19.9701956 12.0192983,21.5401226 12.0192983,21.5401226 L8.18312458,32.7199725 C7.90049074,33.6043784 7.89543525,34.233391 8.52452855,34.6613089 L10.7100827,36.1463153 C11.5998501,36.7508619 11.8839058,36.4850508 12.3785545,36.0227226 C12.3788704,36.0219334 21.5675507,27.499405 21.5675507,27.499405 L20.1425327,31.1975569 C19.2725134,33.9057046 19.4197547,34.1898257 21.2691184,35.4516392 C21.5068847,35.6140617 22.5446833,36.3590904 22.7917707,36.4274373 C23.6899112,36.6760433 24.253915,36.1972992 25.0286697,35.2529122 C25.0289857,35.252123 38.0222428,20.5537488 38.0222428,20.5537488 L37.9386691,32.0316102 L35.9845619,31.1882441 C35.2627318,30.8698706 34.4111967,30.5245056 34.3819696,31.6848246 L34.3819696,33.6441554 C34.3819696,34.5137238 34.8527627,35.5406638 35.8194683,35.9401696 L37.1280519,36.4845772 C38.1483142,36.9244914 38.6246368,37.0468214 39.6564319,36.4831566 C39.7210475,36.4484307 41.8462517,35.2473877 41.8885915,35.2229217 C42.876625,34.6649394 43.1083879,34.179408 43.1690539,33.3668216 L43.1959112,32.3659261 L43.3093439,20.8725958 C43.3120296,19.3470233 42.9199127,18.727955 42.2129331,18.2604179 C41.572623,17.8370774 40.6255074,17.3314997 40.3812637,17.2383711 Z M101.593685,18.122777 C101.051957,17.4879242 100.634563,17.2664675 99.7229937,17.2664675 C98.6934103,17.2664675 97.9899064,17.7527882 97.9899064,17.7527882 L96.2067381,18.8188737 C95.4746391,19.2278503 95.2988026,19.6448769 95.9004066,20.0544848 C95.9008806,20.0548005 95.9008806,20.0551162 95.9015125,20.0551162 L98.2121902,21.6245697 C98.4295766,21.7996198 98.3259389,24.2547419 97.5409151,26.3700236 C96.7263483,28.5648592 96.1587109,29.5760146 94.8752468,31.0804359 C93.7372862,32.4140688 91.9132,33.6945079 90.6297359,33.0039358 C89.2559048,32.2647474 89.3086716,30.0964298 90.9259564,26.3453998 C91.6169795,24.7424832 92.7690007,22.9010627 93.4600238,21.7173826 C94.151205,20.5337025 93.7916328,19.500133 92.6645731,18.6420872 L91.0763574,17.4509884 C89.976629,16.7334248 88.4934728,16.8063492 87.247293,18.0429074 L76.8914251,28.914486 L78.6387309,23.2607916 L79.1076282,22.0717447 C79.1076282,22.0709555 79.1084181,22.0709555 79.1084181,22.0700084 C79.7051247,20.2047533 79.0633926,19.8436038 77.343576,18.6739719 L77.163158,18.5510106 C76.0212478,17.777412 75.4654592,18.2002789 75.0708145,19.3593352 L75.0486967,19.4060573 L65.3252398,28.4840425 L67.8533038,20.7823084 C67.8540937,20.7815192 67.8540937,20.7804143 67.8540937,20.7789937 C68.3392634,19.2673115 67.0840785,18.4462015 65.6451579,17.4680357 C64.2062373,16.4903434 63.4893047,17.1157255 62.3004732,18.4975012 C62.3004732,18.4982904 62.2996833,18.4982904 62.2996833,18.4990796 L51.225303,30.8919689 L55.5302159,17.4997625 C55.9653046,16.1410323 55.6851985,15.6581842 54.9064941,15.0946773 L53.2340728,14.193382 C53.2340728,14.193382 80.7974278,14.1935399 80.7979017,14.193382 C81.4254152,14.1902251 81.5007737,13.8181843 81.1746942,13.1733873 L80.1348418,11.0648929 C79.7762176,10.3590098 79.3855225,9.99770248 78.6398368,10.0000702 L26.1116518,10.0000702 C26.1110199,9.99991231 26.1108619,10.0000702 26.1103879,10.0000702 C25.4828745,10.0032271 25.407516,10.3858435 25.7335955,11.0306406 L26.7734479,13.1391349 C27.1320721,13.845018 27.5227672,14.1955919 28.2684529,14.193382 L51.2986077,14.193382 L45.8547862,31.1765635 C45.8543122,31.178142 45.8539963,31.1789312 45.8535223,31.1803518 C44.9846089,33.8847112 45.1321662,34.1688324 46.9812139,35.4306458 C48.8310516,36.6930906 49.3045304,36.9832098 50.7409232,35.2319188 C50.7413972,35.2311296 50.7417132,35.2303404 50.7425031,35.2303404 L63.2809235,20.7466354 L59.2880294,32.6164262 C58.8982823,33.9003379 59.0047637,34.367875 59.6041559,34.7744839 C60.2692696,35.227657 60.6921935,35.5146193 61.4857484,36.0536602 C62.2745638,36.5897021 62.6248149,36.7024034 63.63702,35.7494928 L73.5492682,26.3266162 L71.00193,32.6079025 C70.4891131,34.2125554 70.7060255,34.4193325 72.1552151,35.4038121 C72.1575848,35.4053906 72.1597966,35.4068112 72.1621664,35.4091788 L73.0671002,36.0231961 C73.9356976,36.5803892 74.5121822,36.7208713 75.3596097,35.7559644 C75.3603997,35.7551752 88.1961464,21.9517825 88.1961464,21.9517825 C87.4463532,23.3943285 86.5580077,24.8229841 86.043453,26.3678138 C84.849092,29.95358 84.4531835,35.5566061 89.2770747,36.545979 C89.9304976,36.6799894 90.679185,36.7814838 91.2269164,36.7664885 C98.1128181,36.524512 101.840457,29.5902207 102.627692,24.0849006 C103.12787,20.5870541 102.388662,19.0543785 101.593685,18.122777 Z" id="Logo-Black"></path>
        </g>
    </g>
</svg>