<?xml version="1.0" encoding="UTF-8"?>
<svg width="185px" height="111px" viewBox="0 0 185 111" version="1.1" xmlns="http://www.w3.org/2000/svg" xmlns:xlink="http://www.w3.org/1999/xlink">
    <!-- Generator: Sketch 46.1 (44463) - http://www.bohemiancoding.com/sketch -->
    <title>Page 1</title>
    <desc>Created with Sketch.</desc>
    <defs>
        <polygon id="path-1" points="0.243365431 0.157456311 183.655128 0.157456311 183.655128 52.5669353 0.243365431 52.5669353"></polygon>
        <polygon id="path-3" points="0 0.256884444 0 45.7861511 50.7581879 45.7861511 50.7581879 0.256884444"></polygon>
        <polygon id="path-5" points="0.201840964 47 42.9236361 47 42.9236361 0.259481319 0.201840964 0.259481319"></polygon>
        <polygon id="path-7" points="51 0 51 47 0 47 2.94224476e-14 7.26663851e-15"></polygon>
    </defs>
    <g id="02c-Expertise-Page-Template" stroke="none" stroke-width="1" fill="none" fill-rule="evenodd">
        <g id="Community-Page-Template-v1" transform="translate(-628.000000, -338.000000)">
            <g id="Page-1" transform="translate(628.000000, 338.000000)">
                <g id="Group-3" transform="translate(1.000000, 0.000000)">
                    <mask id="mask-2" fill="white">
                        <use xlink:href="#path-1"></use>
                    </mask>
                    <g id="Clip-2"></g>
                    <path d="M183.340016,27.6384194 C181.816619,38.3794097 174.604127,51.909332 161.28006,52.3811864 C160.220775,52.4105165 158.771904,52.2129243 157.507546,51.9515262 C148.173915,50.0208854 148.940239,39.0889922 151.250518,32.0924777 C152.246585,29.0786816 153.965803,26.2912932 155.416217,23.4761184 C155.416217,23.4761184 130.580328,50.4083515 130.578787,50.4098951 C128.93872,52.292167 127.823412,52.0184194 126.143256,50.9311476 L124.392172,49.7327301 C124.387546,49.7286136 124.382921,49.7255262 124.378295,49.7224388 C121.574608,47.8020893 121.154697,47.3981573 122.146653,44.2670408 L127.075591,32.0122058 L107.896418,50.3970311 C105.937692,52.2561476 105.260284,52.0364291 103.733289,50.9908369 C102.198585,49.9390699 101.379837,49.3787107 100.092865,48.4952058 C98.9328425,47.701235 98.7272559,46.7894291 99.4817587,44.2845359 L107.207189,21.1250796 L82.9464291,49.3843709 C82.9448872,49.3843709 82.9443732,49.3859146 82.9433453,49.3874583 C80.1643285,52.8041573 79.2484402,52.2381379 75.6686637,49.7749243 C72.090943,47.3127398 71.8056916,46.7585553 73.486876,41.4822252 C73.4873899,41.4791379 73.4884179,41.4781087 73.4889318,41.4750214 L84.0226749,8.33921553 L39.461267,8.33870097 C38.0180492,8.34333204 37.2625184,7.65947767 36.5681497,6.28147767 L34.5564849,2.16806019 C33.9253341,0.910467961 34.0713006,0.16332233 35.2858034,0.157662136 C35.2863173,0.157147573 35.2868313,0.157147573 35.2878592,0.157662136 L136.925759,0.157662136 C138.368463,0.153031068 139.124507,0.857467961 139.818362,2.2349534 L141.830027,6.34888544 C142.461178,7.60647767 142.315725,8.33304078 141.100708,8.33921553 L87.7674346,8.33921553 L91.0038816,10.0974777 C92.5098034,11.197099 93.052038,12.1387495 92.2101609,14.7902932 L83.8808201,40.9198078 L105.309111,16.7394583 C105.309111,16.7384291 105.310139,16.7384291 105.310139,16.7363709 C107.610139,14.0405748 108.997334,12.8205456 111.781491,14.7280311 C114.566161,16.6365456 116.994653,18.2383806 116.05615,21.1883709 C116.05615,21.1909437 116.05615,21.1935165 116.054608,21.1950602 L111.162675,36.2218466 L129.977446,18.5095553 L130.020105,18.4179631 C130.783345,16.1569728 131.859077,15.3316136 134.068619,16.8413417 L134.417088,17.0806136 C137.745021,19.3632155 138.986764,20.0676524 137.832396,23.7071573 C137.832396,23.708701 137.830854,23.708701 137.830854,23.7102447 L136.922675,26.0304097 L133.542317,37.061099 L153.580328,15.8497786 C155.991859,13.4364777 158.861334,13.2949728 160.989155,14.695099 L164.062161,17.018866 C166.242921,18.6927398 166.938831,20.7093126 165.601491,23.0186718 C164.264664,25.3285456 162.035591,28.9212252 160.697736,32.0487398 C157.568708,39.3673709 157.466943,43.5981087 160.125178,45.0399146 C162.608664,46.3875553 166.138072,43.8893515 168.33939,41.2872058 C170.822876,38.3521379 171.921222,36.3793029 173.497558,32.0971087 C175.016842,27.9697981 175.216775,23.1792155 174.796351,22.8380602 L170.32587,19.7758951 C170.324328,19.7758951 170.324328,19.7753806 170.323301,19.7743515 C169.159166,18.975235 169.499412,18.1617107 170.915904,17.3636233 L174.366161,15.2837592 C174.366161,15.2837592 175.727658,14.3349049 177.719792,14.3349049 C179.483211,14.3349049 180.291166,14.7671379 181.339144,16.0056913 C182.87796,17.8236427 184.307815,20.8132544 183.340016,27.6384194 M66.4424514,16.2742932 C65.2037922,15.4484194 63.3709877,14.4620019 62.8986525,14.2803612 C60.9060045,13.5141767 59.4576469,13.7544777 58.0791888,14.7161961 C57.2866525,15.212235 56.4987419,16.0607495 55.5597251,17.1629437 C55.5597251,17.1644874 55.5576693,17.1644874 55.5576693,17.1655165 L34.1298927,40.9604583 L36.3327531,32.617332 L40.2604849,21.4667495 C40.2604849,21.4652058 40.2635687,21.4636621 40.2615128,21.4631476 L40.2306749,21.4585165 L40.2496916,21.4055165 C40.2496916,21.4039728 40.2512335,21.4039728 40.2512335,21.4024291 C41.4056022,17.7629243 40.5457363,17.0579728 37.2183173,14.7758854 L36.8693341,14.536099 C34.6592782,13.0268854 33.5840603,13.8517301 32.8208201,16.1137495 L31.0322168,19.9076233 L12.3094458,36.2990311 L17.7410436,20.7664291 C18.2853341,19.052934 18.1830547,18.1575942 16.5774235,17.0312155 L16.5763955,17.0312155 L12.8326637,14.4661184 C11.4470101,13.5188078 10.2792782,13.683468 8.72452961,14.5551379 L4.1399486,17.1989631 C2.72345698,17.9970505 2.38321117,18.8100602 3.54734525,19.6091767 C3.54837318,19.6102058 3.54837318,19.6107204 3.54991508,19.6107204 L8.02039553,22.6734 L0.59769162,44.4862447 C0.0508312849,46.2115748 0.0410659218,47.4382932 1.25813855,48.2739437 L5.48705475,51.1714485 C5.48859665,51.1729922 5.48962458,51.1729922 5.48962458,51.1729922 C7.20884246,52.3508272 7.75827263,51.8326621 8.71527821,50.9301184 C8.71630615,50.9285748 8.71630615,50.9285748 8.71682011,50.9285748 L26.4954346,34.300468 L23.7380045,41.5161864 L23.7359486,41.5228757 C22.0547642,46.7992058 22.3400156,47.3539049 25.9177363,49.8160893 C26.3782503,50.1330602 28.3863173,51.5861864 28.8637922,51.7199728 C30.6020268,52.2046913 31.6936916,51.2712738 33.1924179,49.4281087 C33.1929318,49.4270796 33.1939598,49.4255359 33.1955017,49.4255359 L58.3341162,20.748934 L58.1722168,43.143235 L54.3909654,41.4981767 C52.9945184,40.8765845 51.3467419,40.2030214 51.2907196,42.4665845 L51.2907196,46.2892738 C51.2907196,47.9857883 52.2014682,49.9894971 54.0717922,50.7690602 L56.6035911,51.831633 C58.5777363,52.6899243 59.4992782,52.928167 61.496038,51.8285456 C61.6209318,51.7606233 65.7331777,49.4173029 65.8148983,49.3694485 C67.7268536,48.2811476 68.1750324,47.3333223 68.2927307,45.7479534 L68.3446413,43.7951864 L68.3446413,43.7936427 L68.564105,21.3710408 C68.5692447,18.3937786 67.8106302,17.1866136 66.4424514,16.2742932" id="Fill-1" fill="#FFFFFF" mask="url(#mask-2)"></path>
                </g>
                <g id="Group-6" transform="translate(0.000000, 64.000000)">
                    <mask id="mask-4" fill="white">
                        <use xlink:href="#path-3"></use>
                    </mask>
                    <g id="Clip-5"></g>
                    <path d="M28.6659152,29.3012844 L26.7181273,21.2701956 C26.2313091,19.3381956 25.9268545,17.3448622 25.6224,15.4128622 L25.0140061,15.4128622 L21.9710061,29.3012844 L28.6659152,29.3012844 Z M17.6499152,45.7861511 L-0.000206060606,45.7861511 L15.9457939,0.256884444 L34.3861576,0.256884444 L50.7581879,45.7861511 L33.1085818,45.7861511 L31.5868242,40.1102622 L18.9887939,40.1102622 L17.6499152,45.7861511 Z" id="Fill-4" fill="#FFBF00" mask="url(#mask-4)"></path>
                </g>
                <g id="Group-9" transform="translate(50.000000, 64.000000)">
                    <mask id="mask-6" fill="white">
                        <use xlink:href="#path-5"></use>
                    </mask>
                    <g id="Clip-8"></g>
                    <path d="M42.9236361,0.259481319 L42.9236361,27.4740308 C42.9236361,40.8984703 34.4769855,47.0002066 21.5624795,47.0002066 C8.64849157,47.0002066 0.201840964,40.8984703 0.201840964,27.4740308 L0.201840964,0.259481319 L16.971841,0.259481319 L16.971841,25.8879099 C16.971841,29.4878 17.0946241,32.6605582 21.5624795,32.6605582 C26.030853,32.6605582 26.1526,29.4878 26.1526,25.8879099 L26.1526,0.259481319 L42.9236361,0.259481319 Z" id="Fill-7" fill="#FFBF00" mask="url(#mask-6)"></path>
                </g>
                <polygon id="Fill-10" fill="#FFBF00" points="97 64 132 64 132 78.9465531 122.824394 78.5205267 122.824394 110 106.175606 110 106.175606 78.5205267 97 78.9465531"></polygon>
                <g id="Group-14" transform="translate(133.000000, 63.000000)">
                    <mask id="mask-8" fill="white">
                        <use xlink:href="#path-7"></use>
                    </mask>
                    <g id="Clip-13"></g>
                    <path d="M16.8780181,23.8627971 C16.8780181,29.0570092 20.4251555,32.6215743 25.4997412,32.6215743 C30.5758797,32.6215743 34.1224995,29.0570092 34.1224995,23.8627971 C34.1224995,19.0295926 30.8207062,14.9818093 25.4997412,14.9818093 C20.180329,14.9818093 16.8780181,19.0295926 16.8780181,23.8627971 M51,23.6199097 C51,38.2396888 39.5645837,47 25.4997412,47 C11.4348987,47 0,38.2396888 0,23.6199097 C0,9.30335636 11.4970111,0 25.4997412,0 C39.5035065,0 51,9.30335636 51,23.6199097" id="Fill-12" fill="#FFBF00" mask="url(#mask-8)"></path>
                </g>
            </g>
        </g>
    </g>
</svg>