<svg xmlns="http://www.w3.org/2000/svg" xmlns:xlink="http://www.w3.org/1999/xlink" version="1.1">
  <symbol id="menuopen" viewBox="0 0 31 30">
    <title>Open menu</title>
    <path d="M8.594 8.015l-6.73.013c-.47 0-.85.407-.852.908 0 .5.38.906.85.905l5.198-.01c.104.28.22.58.344.91l-5.545.01c-.47 0-.86.41-.86.91s.38.91.85.91l6.24-.01.345.9-6.596.01c-.47 0-.85.41-.85.91s.38.906.846.905l8.99-.016c1.338-.004 2.457-.95 2.837-2.243L29.313 13c.59 0 .946-.698.63-1.227l-.716-1.19c-.14-.225-.375-.362-.63-.362l-14.93.03C13.305 8.946 12.19 8 10.855 8l-2.26.005v.01M29.32 23.55c.532 0 .895-.578.69-1.1l-1.565-2.505c-.824-1.352-2.83-1.947-4.03-1.945l-9.136.022c-1.35.002-2.53.967-2.88 2.354l-.11.43-10.55.018c-.59 0-.95.696-.63 1.224l.72 1.19c.13.226.37.363.62.362l26.86-.05" fill-rule="evenodd"/>
  </symbol>
  <symbol id="ustwologo" viewBox="0 0 83 32">
    <title>ustwo logo</title>
    <path d="M30.074 8.777c-.554-.368-1.372-.81-1.584-.89-.89-.342-1.538-.234-2.153.194-.355.23-.707.61-1.127 1.1l-9.577 10.63.984-3.72 1.757-4.98h-.014l.01-.02c.515-1.62.13-1.94-1.357-2.96L16.857 8c-.988-.673-1.468-.305-1.81.707l-.798 1.695-8.37 7.324 2.43-6.94c.24-.766.19-1.167-.53-1.67L6.11 7.97c-.62-.424-1.14-.35-1.833.04L2.23 9.19c-.634.357-.785.72-.265 1.08l1.998 1.368-3.317 9.748c-.243.77-.248 1.318.295 1.692l1.9 1.294v.002c.77.526 1.02.295 1.44-.11l7.95-7.43L11 20.057v.004c-.755 2.36-.626 2.61.973 3.71.204.14 1.1.79 1.317.85.776.22 1.263-.2 1.933-1.02l11.23-12.82-.072 10.01-1.69-.73c-.62-.27-1.36-.58-1.38.44v1.71c0 .76.41 1.66 1.25 2l1.13.48c.89.39 1.3.49 2.19 0 .06-.03 1.89-1.08 1.93-1.1.86-.48 1.06-.91 1.11-1.61l.02-.87.1-10.02c0-1.33-.33-1.87-.95-2.28zm49.733-.866c-.892 0-1.498.43-1.498.43l-1.55.93c-.64.36-.79.72-.27 1.08l2 1.37c.18.16.14 2.21-.46 4.09-.66 2.07-1.25 2.9-2.41 4.34-.96 1.19-2.72 2.46-3.95 1.82-1.2-.63-.86-2.91.51-6.18.56-1.35 1.41-2.72 2.08-4.06.45-1.36.39-1.837-.58-2.585L72.31 8.1c-.95-.626-2.24-.563-3.31.516l-8.96 9.47 1.51-4.93.408-1.034c.515-1.624-.04-1.94-1.527-2.96l-.15-.11c-.984-.67-1.47-.3-1.81.708l-8.43 7.95 2.188-6.712c.427-1.32-.66-2.036-1.903-2.89-1.242-.852-1.863-.307-2.89.9l-9.568 10.8L41.59 8.12c.377-1.186.134-1.606-.538-2.098l-1.447-.785H63.44c.544-.003.61-.327.326-.89l-.898-1.837c-.31-.616-.648-.93-1.293-.93H16.15c-.543.004-.608.336-.327.9l.9 1.838c.31.616.648.92 1.292.92h19.917l-4.71 14.807c-.752 2.36-.623 2.61.976 3.71 1.6 1.1 2.01 1.353 3.25-.174l10.845-12.63L44.84 21.3c-.33 1.12-.24 1.526.28 1.88l1.63 1.115c.69.47.99.57 1.87-.26l8.57-8.21-2.203 5.48c-.442 1.4-.253 1.58 1 2.44l.787.54c.75.49 1.25.61 1.983-.23l11.1-12.035c-.65 1.258-1.42 2.5-1.86 3.85-1.036 3.127-1.38 8.01 2.792 8.873.56.117 1.1.213 1.68.193 5.95-.21 9.18-6.26 9.86-11.06.43-3.05-.21-4.39-.9-5.2-.47-.552-.83-.746-1.62-.746z" fill-rule="evenodd"/>
  </symbol>
  <symbol id="facebook" viewBox="0 0 60 60">
    <title>Facebook</title>
    <path d="M34.3 58.5v-26H43l1.3-10.1h-10v-6.5c0-2.9.8-4.9 5-4.9h5.4V1.9c-.9-.1-4.1-.4-7.8-.4-7.7 0-13 4.7-13 13.4v7.5h-8.7v10.1h8.7v26h10.4z"/>
  </symbol>
  <symbol id="twitter" viewBox="0 0 60 60">
    <title>Twitter</title>
    <path d="M51.2 20c0 15.4-11 33.2-31 33.2-6.1 0-11.9-2-16.8-5.3.9.1 1.7.2 2.6.2 5.1 0 9.8-1.9 13.5-5-4.7-.1-8.8-3.5-10.2-8.1.6.2 1.3.2 2 .2 1 0 2-.2 2.9-.4-5-1.1-8.7-5.8-8.7-11.4v-.2c1.5.9 3.1 1.4 4.9 1.4-2.9-2-4.8-5.7-4.8-9.7 0-2.1.5-4.1 1.5-5.9 5.3 7 13.5 11.7 22.5 12.2-.2-.9-.3-1.8-.3-2.7 0-6.4 4.9-11.7 10.9-11.7 3.1 0 6 1.4 7.9 3.7 2.5-.5 4.8-1.5 7-2.9-.8 2.8-2.6 5-4.8 6.4 2.2-.3 4.3-.9 6.2-1.9-1.4 2.3-3.3 4.4-5.4 6.1 0 .7.1 1.3.1 1.8z"/>
  </symbol>
  <symbol id="linkedin" viewbox="0 0 21 21">
    <title>LinkedIn</title>
    <path d="M5.01 19.664V6.518H.64v13.146h4.37zM2.825 4.724c1.524 0 2.472-1.01 2.472-2.272C5.27 1.162 4.35.18 2.854.18S.382 1.162.382 2.452c0 1.26.948 2.27 2.414 2.27h.03zm4.81 14.94h4.37v-7.342c0-.393.03-.785.145-1.066.315-.785 1.034-1.598 2.242-1.598 1.58 0 2.213 1.206 2.213 2.973v7.036h4.37v-7.538c0-4.038-2.156-5.917-5.03-5.917-2.358 0-3.393 1.318-3.968 2.215h.03V6.518h-4.37c.057 1.233 0 13.146 0 13.146z" fill-rule="evenodd"/>
  </symbol>
  <symbol id="quotemark" viewBox="0 0 194 139">
    <path fill-rule="evenodd" d="M156 66.367l36-66h-33l-37.5 66v72h72v-72H156zm-121.5 0l36-66h-33l-37.5 66v72h72v-72H34.5z" />
  </symbol>
  <symbol id="search" viewBox="0 0 300 300">
    <path d="M261.3,38.6c-49-49-128.6-49-177.6,0C60.1,62.3,47,93.9,47,127.4c0,29.6,10.1,57.5,28.8,80L1.9,281.3l16.8,16.8l73.9-73.9 c23.1,19.2,51.6,28.7,80,28.7c32.2,0,64.3-12.2,88.8-36.7c23.7-23.7,36.8-55.2,36.8-88.8S285,62.3,261.3,38.6z M244.6,199.4 c-39.7,39.7-104.3,39.7-144.1,0c-19.2-19.2-29.8-44.8-29.8-72c0-27.2,10.6-52.8,29.8-72c19.9-19.9,45.9-29.8,72-29.8 c26.1,0,52.2,9.9,72,29.8c19.2,19.2,29.8,44.8,29.8,72C274.4,154.6,263.8,180.2,244.6,199.4z" />
  </symbol>
  <symbol id="locationpin" viewBox="-195 151 208 300">
    <path d="M-91 304.5c-28.4 0-51.4-23.1-51.4-51.6s23-51.6 51.4-51.6 51.4 23.1 51.4 51.6-23 51.6-51.4 51.6zm0-150.5c-56.4 0-102 45.9-102 102.4C-193 340.7-91 448-91 448S11 340.7 11 256.4C11 199.9-34.7 154-91 154z"/>
  </symbol>
  <symbol id="subscriptionIcon" viewBox="0 0 59 47">
    <g fill-rule="evenodd">
      <path d="M51.7515839,47.1281275 L51.7074118,47.1281275 L6.61619344,46.8423842 C2.94536615,46.8189519 -0.0226058595,43.8072559 0.000129754472,40.1277407 L0.193707268,9.58639685 L10.2623363,9.65408998 L10.3227481,0 L58.662561,0.307222929 L58.4079221,40.4994023 C58.3968791,42.2815556 57.6933742,43.9517549 56.4279749,45.2040788 C55.172969,46.4459885 53.5132692,47.1281275 51.7515839,47.1281275 L51.7515839,47.1281275 L51.7515839,47.1281275 Z M12.3527136,43.6237032 L51.7281987,43.8736473 L51.7509343,43.8736473 C52.6532134,43.8736473 53.5028757,43.5241162 54.1459689,42.8881908 C54.7942587,42.2470581 55.1541309,41.3917807 55.1599772,40.4785736 L55.3938292,3.54087444 L13.5505557,3.27465796 L13.3167036,40.2123572 C13.308259,41.4607757 12.9568314,42.6278323 12.3527136,43.6237032 L12.3527136,43.6237032 L12.3527136,43.6237032 Z M3.42151487,12.8630075 L3.24807461,40.1485693 C3.23638201,42.0329134 4.7564202,43.575537 6.63698025,43.587904 C8.48700965,43.60678 10.0564166,42.0765233 10.0687588,40.1921793 L10.2408999,12.9085702 L3.42151487,12.8630075 L3.42151487,12.8630075 L3.42151487,12.8630075 Z"/>
      <path d="M49.4356454,38.1896377 L19.3388892,37.9989252 L19.3590265,34.744445 L49.4557827,34.9351575 L49.4356454,38.1896377"/>
      <path d="M49.4356454,31.634082 L19.3388892,31.4433695 L19.3590265,28.1888893 L49.4557827,28.3796019 L49.4356454,31.634082"/>
      <path d="M49.6152928,11.8443957 L39.0055562,11.7767025 L39.0256935,8.52222236 L49.6354301,8.58926465 L49.6152928,11.8443957"/>
      <path d="M49.6152928,18.3999514 L39.0055562,18.3322582 L39.0256935,15.077778 L49.6354301,15.1454712 L49.6152928,18.3999514"/>
      <path d="M49.6152928,24.955507 L39.0055562,24.8878139 L39.026343,21.6333337 L49.6360797,21.7010269 L49.6152928,24.955507"/>
      <path d="M25.1410842,8.50958413 L30.0639234,17.1584509 L30.1090726,8.53559669 L35.7705718,8.5652405 L35.6847602,24.953905 L29.9206273,24.9237238 L24.9746531,16.4751984 L24.9305532,24.8975956 L19.2960957,24.8680934 L19.3819073,8.47942887 L25.1410842,8.50958413 L25.1410842,8.50958413 L25.1410842,8.50958413 Z"/>
    </g>
  </symbol>
</svg>
