<svg xmlns="http://www.w3.org/2000/svg" xmlns:xlink="http://www.w3.org/1999/xlink" version="1.1">
  <symbol id="menuopen" viewBox="0 0 31 30">
    <title>Open menu</title>
    <path d="M8.594 8.015l-6.73.013c-.47 0-.85.407-.852.908 0 .5.38.906.85.905l5.198-.01c.104.28.22.58.344.91l-5.545.01c-.47 0-.86.41-.86.91s.38.91.85.91l6.24-.01.345.9-6.596.01c-.47 0-.85.41-.85.91s.38.906.846.905l8.99-.016c1.338-.004 2.457-.95 2.837-2.243L29.313 13c.59 0 .946-.698.63-1.227l-.716-1.19c-.14-.225-.375-.362-.63-.362l-14.93.03C13.305 8.946 12.19 8 10.855 8l-2.26.005v.01M29.32 23.55c.532 0 .895-.578.69-1.1l-1.565-2.505c-.824-1.352-2.83-1.947-4.03-1.945l-9.136.022c-1.35.002-2.53.967-2.88 2.354l-.11.43-10.55.018c-.59 0-.95.696-.63 1.224l.72 1.19c.13.226.37.363.62.362l26.86-.05" fill-rule="evenodd"/>
  </symbol>
  <symbol id="ustwologo" viewBox="0 0 83 32">
    <title>ustwo logo</title>
    <path d="M30.074 8.777c-.554-.368-1.372-.81-1.584-.89-.89-.342-1.538-.234-2.153.194-.355.23-.707.61-1.127 1.1l-9.577 10.63.984-3.72 1.757-4.98h-.014l.01-.02c.515-1.62.13-1.94-1.357-2.96L16.857 8c-.988-.673-1.468-.305-1.81.707l-.798 1.695-8.37 7.324 2.43-6.94c.24-.766.19-1.167-.53-1.67L6.11 7.97c-.62-.424-1.14-.35-1.833.04L2.23 9.19c-.634.357-.785.72-.265 1.08l1.998 1.368-3.317 9.748c-.243.77-.248 1.318.295 1.692l1.9 1.294v.002c.77.526 1.02.295 1.44-.11l7.95-7.43L11 20.057v.004c-.755 2.36-.626 2.61.973 3.71.204.14 1.1.79 1.317.85.776.22 1.263-.2 1.933-1.02l11.23-12.82-.072 10.01-1.69-.73c-.62-.27-1.36-.58-1.38.44v1.71c0 .76.41 1.66 1.25 2l1.13.48c.89.39 1.3.49 2.19 0 .06-.03 1.89-1.08 1.93-1.1.86-.48 1.06-.91 1.11-1.61l.02-.87.1-10.02c0-1.33-.33-1.87-.95-2.28zm49.733-.866c-.892 0-1.498.43-1.498.43l-1.55.93c-.64.36-.79.72-.27 1.08l2 1.37c.18.16.14 2.21-.46 4.09-.66 2.07-1.25 2.9-2.41 4.34-.96 1.19-2.72 2.46-3.95 1.82-1.2-.63-.86-2.91.51-6.18.56-1.35 1.41-2.72 2.08-4.06.45-1.36.39-1.837-.58-2.585L72.31 8.1c-.95-.626-2.24-.563-3.31.516l-8.96 9.47 1.51-4.93.408-1.034c.515-1.624-.04-1.94-1.527-2.96l-.15-.11c-.984-.67-1.47-.3-1.81.708l-8.43 7.95 2.188-6.712c.427-1.32-.66-2.036-1.903-2.89-1.242-.852-1.863-.307-2.89.9l-9.568 10.8L41.59 8.12c.377-1.186.134-1.606-.538-2.098l-1.447-.785H63.44c.544-.003.61-.327.326-.89l-.898-1.837c-.31-.616-.648-.93-1.293-.93H16.15c-.543.004-.608.336-.327.9l.9 1.838c.31.616.648.92 1.292.92h19.917l-4.71 14.807c-.752 2.36-.623 2.61.976 3.71 1.6 1.1 2.01 1.353 3.25-.174l10.845-12.63L44.84 21.3c-.33 1.12-.24 1.526.28 1.88l1.63 1.115c.69.47.99.57 1.87-.26l8.57-8.21-2.203 5.48c-.442 1.4-.253 1.58 1 2.44l.787.54c.75.49 1.25.61 1.983-.23l11.1-12.035c-.65 1.258-1.42 2.5-1.86 3.85-1.036 3.127-1.38 8.01 2.792 8.873.56.117 1.1.213 1.68.193 5.95-.21 9.18-6.26 9.86-11.06.43-3.05-.21-4.39-.9-5.2-.47-.552-.83-.746-1.62-.746z" fill-rule="evenodd"/>
  </symbol>
  <symbol id="facebook" viewBox="0 0 60 60">
    <title>Facebook</title>
    <path d="M34.3 58.5v-26H43l1.3-10.1h-10v-6.5c0-2.9.8-4.9 5-4.9h5.4V1.9c-.9-.1-4.1-.4-7.8-.4-7.7 0-13 4.7-13 13.4v7.5h-8.7v10.1h8.7v26h10.4z"/>
  </symbol>
  <symbol id="twitter" viewBox="0 0 60 60">
    <title>Twitter</title>
    <path d="M51.2 20c0 15.4-11 33.2-31 33.2-6.1 0-11.9-2-16.8-5.3.9.1 1.7.2 2.6.2 5.1 0 9.8-1.9 13.5-5-4.7-.1-8.8-3.5-10.2-8.1.6.2 1.3.2 2 .2 1 0 2-.2 2.9-.4-5-1.1-8.7-5.8-8.7-11.4v-.2c1.5.9 3.1 1.4 4.9 1.4-2.9-2-4.8-5.7-4.8-9.7 0-2.1.5-4.1 1.5-5.9 5.3 7 13.5 11.7 22.5 12.2-.2-.9-.3-1.8-.3-2.7 0-6.4 4.9-11.7 10.9-11.7 3.1 0 6 1.4 7.9 3.7 2.5-.5 4.8-1.5 7-2.9-.8 2.8-2.6 5-4.8 6.4 2.2-.3 4.3-.9 6.2-1.9-1.4 2.3-3.3 4.4-5.4 6.1 0 .7.1 1.3.1 1.8z"/>
  </symbol>
  <symbol id="linkedin" viewbox="0 0 21 21">
    <title>LinkedIn</title>
    <path d="M5.01 19.664V6.518H.64v13.146h4.37zM2.825 4.724c1.524 0 2.472-1.01 2.472-2.272C5.27 1.162 4.35.18 2.854.18S.382 1.162.382 2.452c0 1.26.948 2.27 2.414 2.27h.03zm4.81 14.94h4.37v-7.342c0-.393.03-.785.145-1.066.315-.785 1.034-1.598 2.242-1.598 1.58 0 2.213 1.206 2.213 2.973v7.036h4.37v-7.538c0-4.038-2.156-5.917-5.03-5.917-2.358 0-3.393 1.318-3.968 2.215h.03V6.518h-4.37c.057 1.233 0 13.146 0 13.146z" fill-rule="evenodd"/>
  </symbol>
  <symbol id="github" viewbox="0 0 21 21">
    <title>GitHub</title>
    <path d="M10.5 0C4.702 0 0 4.82 0 10.765c0 4.757 3.008 8.792 7.18 10.216.525.1.695-.233.695-.517V18.46c-2.92.65-3.53-1.27-3.53-1.27-.477-1.245-1.165-1.577-1.165-1.577-.953-.668.072-.654.072-.654 1.055.075 1.61 1.11 1.61 1.11.936 1.645 2.456 1.17 3.055.894.094-.696.366-1.17.667-1.44-2.332-.273-4.784-1.196-4.784-5.32 0-1.176.41-2.136 1.082-2.89-.11-.272-.468-1.367.102-2.85 0 0 .882-.288 2.888 1.104.838-.238 1.736-.358 2.628-.362.893.004 1.79.124 2.63.362 2.005-1.392 2.885-1.103 2.885-1.103.572 1.483.212 2.578.103 2.85.674.753 1.08 1.714 1.08 2.89 0 4.134-2.455 5.044-4.793 5.31.376.334.72.99.72 1.994v2.953c0 .286.168.623.7.517C17.996 19.555 21 15.52 21 10.765 21 4.82 16.3 0 10.5 0z" fill-rule="evenodd"/>
  </symbol>
  <symbol id="instagram" viewbox="0 0 21 21">
    <title>Instagram</title>
      <path d="M10.5 1.895c2.803 0 3.135.01 4.242.06 1.023.047 1.58.22 1.95.362.49.19.838.418 1.206.785.367.368.594.717.785 1.207.143.37.314.92.36 1.94.052 1.103.062 1.44.062 4.24s-.01 3.132-.06 4.24c-.048 1.022-.22 1.58-.362 1.95-.19.49-.418.84-.785 1.205-.368.367-.717.594-1.207.785-.37.143-.92.314-1.94.36-1.103.05-1.44.06-4.24.06s-3.132-.01-4.24-.06c-1.022-.046-1.58-.22-1.95-.36-.49-.19-.84-.42-1.205-.785-.367-.368-.594-.717-.785-1.207-.143-.37-.315-.926-.36-1.95-.05-1.107-.06-1.44-.06-4.242 0-2.804.01-3.136.06-4.243.045-1.02.22-1.58.36-1.95.19-.49.42-.835.785-1.203.368-.368.717-.595 1.207-.786.37-.142.926-.314 1.95-.36 1.107-.05 1.44-.06 4.242-.06m0-1.893c-2.85 0-3.207.01-4.327.065-1.12.05-1.883.23-2.55.487-.69.27-1.275.63-1.86 1.21-.582.586-.94 1.17-1.21 1.86-.26.67-.437 1.43-.49 2.55C.017 7.292.003 7.65.003 10.5s.013 3.208.064 4.328c.05 1.117.23 1.88.488 2.548.27.69.628 1.275 1.21 1.86.585.582 1.17.94 1.86 1.21.668.26 1.43.437 2.548.488 1.12.05 1.477.063 4.328.063 2.85 0 3.21-.012 4.33-.063 1.12-.05 1.88-.23 2.55-.488.69-.27 1.28-.628 1.86-1.21.58-.585.94-1.17 1.21-1.86.26-.668.44-1.43.49-2.548.05-1.12.066-1.477.066-4.328 0-2.85-.012-3.208-.063-4.328-.05-1.117-.23-1.88-.49-2.548-.27-.69-.63-1.275-1.21-1.86-.584-.582-1.17-.94-1.86-1.21-.67-.26-1.43-.437-2.55-.488-1.12-.05-1.48-.063-4.33-.063"/>
      <path d="M10.5 5.11c-2.977 0-5.39 2.413-5.39 5.39s2.413 5.39 5.39 5.39 5.39-2.413 5.39-5.39-2.413-5.39-5.39-5.39zm0 8.89C8.568 14 7 12.43 7 10.5S8.57 7 10.5 7 14 8.57 14 10.5 12.43 14 10.5 14zm6.863-9.103c0 .696-.564 1.26-1.26 1.26-.696 0-1.26-.564-1.26-1.26 0-.696.565-1.26 1.26-1.26.696 0 1.26.564 1.26 1.26"/>
  </symbol>
 <symbol id="dribbble" viewbox="0 0 21 21">
    <title>Dribbble</title>
     <path d="M10.522,20.94c-5.79,0-10.5-4.71-10.5-10.5s4.71-10.5,10.5-10.5
  s10.5,4.71,10.5,10.5S16.312,20.94,10.522,20.94z M19.378,11.877c-0.307-0.097-2.776-0.833-5.586-0.383
  c1.173,3.224,1.65,5.849,1.742,6.395C17.546,16.528,18.978,14.373,19.378,11.877z M14.026,18.71
  c-0.133-0.787-0.654-3.529-1.913-6.801c-0.02,0.007-0.039,0.013-0.059,0.02c-5.059,1.763-6.875,5.271-7.036,5.601 c1.521,1.186,3.432,1.893,5.505,1.893C11.765,19.422,12.949,19.168,14.026,18.71z M3.859,16.45c0.203-0.348,2.665-4.423,7.29-5.918 c0.117-0.038,0.235-0.073,0.353-0.107c-0.225-0.509-0.47-1.02-0.727-1.522c-4.479,1.34-8.825,1.284-9.217,1.276 c-0.003,0.091-0.005,0.182-0.005,0.274C1.554,12.757,2.427,14.86,3.859,16.45z M1.743,8.617c0.401,0.005,4.096,0.021,8.291-1.093 C8.549,4.882,6.946,2.661,6.71,2.337C4.2,3.521,2.325,5.834,1.743,8.617z M8.421,1.734c0.248,0.332,1.877,2.55,3.346,5.25
  c3.189-1.195,4.539-3.01,4.7-3.24c-1.584-1.405-3.666-2.26-5.945-2.26C9.799,1.485,9.095,1.572,8.421,1.734z M17.465,4.782 c-0.189,0.256-1.692,2.182-5.008,3.536c0.209,0.427,0.409,0.862,0.595,1.299c0.066,0.155,0.13,0.309,0.193,0.463 c2.984-0.375,5.949,0.226,6.245,0.289C19.47,8.252,18.714,6.308,17.465,4.782z" fill-rule="evenodd"/>
  </symbol>
  <symbol id="quotemark" viewBox="0 0 194 139">
    <path fill-rule="evenodd" d="M156 66.367l36-66h-33l-37.5 66v72h72v-72H156zm-121.5 0l36-66h-33l-37.5 66v72h72v-72H34.5z" />
  </symbol>
  <symbol id="search" viewBox="0 0 300 300">
    <path d="M261.3,38.6c-49-49-128.6-49-177.6,0C60.1,62.3,47,93.9,47,127.4c0,29.6,10.1,57.5,28.8,80L1.9,281.3l16.8,16.8l73.9-73.9 c23.1,19.2,51.6,28.7,80,28.7c32.2,0,64.3-12.2,88.8-36.7c23.7-23.7,36.8-55.2,36.8-88.8S285,62.3,261.3,38.6z M244.6,199.4 c-39.7,39.7-104.3,39.7-144.1,0c-19.2-19.2-29.8-44.8-29.8-72c0-27.2,10.6-52.8,29.8-72c19.9-19.9,45.9-29.8,72-29.8 c26.1,0,52.2,9.9,72,29.8c19.2,19.2,29.8,44.8,29.8,72C274.4,154.6,263.8,180.2,244.6,199.4z" />
  </symbol>
  <symbol id="locationpin" viewBox="-195 151 208 300">
    <path d="M-91 304.5c-28.4 0-51.4-23.1-51.4-51.6s23-51.6 51.4-51.6 51.4 23.1 51.4 51.6-23 51.6-51.4 51.6zm0-150.5c-56.4 0-102 45.9-102 102.4C-193 340.7-91 448-91 448S11 340.7 11 256.4C11 199.9-34.7 154-91 154z"/>
  </symbol>
  <symbol id="subscriptionIcon" viewBox="0 0 59 47">
    <g fill-rule="evenodd">
      <path d="M51.7515839,47.1281275 L51.7074118,47.1281275 L6.61619344,46.8423842 C2.94536615,46.8189519 -0.0226058595,43.8072559 0.000129754472,40.1277407 L0.193707268,9.58639685 L10.2623363,9.65408998 L10.3227481,0 L58.662561,0.307222929 L58.4079221,40.4994023 C58.3968791,42.2815556 57.6933742,43.9517549 56.4279749,45.2040788 C55.172969,46.4459885 53.5132692,47.1281275 51.7515839,47.1281275 L51.7515839,47.1281275 L51.7515839,47.1281275 Z M12.3527136,43.6237032 L51.7281987,43.8736473 L51.7509343,43.8736473 C52.6532134,43.8736473 53.5028757,43.5241162 54.1459689,42.8881908 C54.7942587,42.2470581 55.1541309,41.3917807 55.1599772,40.4785736 L55.3938292,3.54087444 L13.5505557,3.27465796 L13.3167036,40.2123572 C13.308259,41.4607757 12.9568314,42.6278323 12.3527136,43.6237032 L12.3527136,43.6237032 L12.3527136,43.6237032 Z M3.42151487,12.8630075 L3.24807461,40.1485693 C3.23638201,42.0329134 4.7564202,43.575537 6.63698025,43.587904 C8.48700965,43.60678 10.0564166,42.0765233 10.0687588,40.1921793 L10.2408999,12.9085702 L3.42151487,12.8630075 L3.42151487,12.8630075 L3.42151487,12.8630075 Z"/>
      <path d="M49.4356454,38.1896377 L19.3388892,37.9989252 L19.3590265,34.744445 L49.4557827,34.9351575 L49.4356454,38.1896377"/>
      <path d="M49.4356454,31.634082 L19.3388892,31.4433695 L19.3590265,28.1888893 L49.4557827,28.3796019 L49.4356454,31.634082"/>
      <path d="M49.6152928,11.8443957 L39.0055562,11.7767025 L39.0256935,8.52222236 L49.6354301,8.58926465 L49.6152928,11.8443957"/>
      <path d="M49.6152928,18.3999514 L39.0055562,18.3322582 L39.0256935,15.077778 L49.6354301,15.1454712 L49.6152928,18.3999514"/>
      <path d="M49.6152928,24.955507 L39.0055562,24.8878139 L39.026343,21.6333337 L49.6360797,21.7010269 L49.6152928,24.955507"/>
      <path d="M25.1410842,8.50958413 L30.0639234,17.1584509 L30.1090726,8.53559669 L35.7705718,8.5652405 L35.6847602,24.953905 L29.9206273,24.9237238 L24.9746531,16.4751984 L24.9305532,24.8975956 L19.2960957,24.8680934 L19.3819073,8.47942887 L25.1410842,8.50958413 L25.1410842,8.50958413 L25.1410842,8.50958413 Z"/>
    </g>
  </symbol>
  <symbol id="flyingCow" viewbox="0 0 20 20">
    <title>Flying Cow</title>
    <g stroke="#333" stroke-width="5" fill="none" fill-rule="evenodd">
      <path d="M120.357 2.676v43.65m-45.76-24.463c-3.693 0-6.687-2.947-6.687-6.582m105.544-.4c0 4.83-4.057 8.75-9.063 8.75m17.46-10.64c2.06 3.77.68 8.49-3.09 10.55" stroke-linecap="round"/>
      <path d="M30.508 43.28c-1.966-.405-3.887.862-4.29 2.828l-12.653 61.626c-.45 2.19-2.11 3.81-4.33 4.228-3.473.653-6.78-1.917-6.734-6.358.02-1.47 1.25-3.053 2.65-3.516l.39-.25c.57-.372.97-.956 1.11-1.623l12.83-62.512c1.208-5.857 7.99-9.43 13.92-8.21l120.368 24.71c4.806.986 9.727 1.63 14.624 1.912l39.71 2.465c.19.018.36-.11.407-.29l2.206-8.677c.522-2.543 2.023-4.725 4.224-6.14 1.318-.845 3.08-.45 3.947.854l4.655 6.978c.76 1.145 2.05 1.82 3.43 1.795l5.57-.107c5.18-.097 9.63 3.656 10.352 8.718l26.727 38.65c1.917 2.78 1.336 6.57-1.326 8.63l-7.46 5.79c-.67.52-1.535.72-2.367.55l-.526-.105c-25.066-5.146-51.366 1.837-70.35 18.68-11.934 10.586-20.433 24.285-24.58 39.616l-2.113 7.813 3.04 16.753c.11.596.077 1.22-.18 1.767-.596 1.257-1.93 1.87-3.21 1.607l-12.48-2.56c-1.34-.278-2.31-1.458-2.31-2.81l.046-52.99-39.85-14.457c-2.4 1.54-4.935 2.865-7.55 3.956l.7 2.104c.245.74.333 1.537.15 2.29-.354 1.44-1.38 2.52-2.735 2.956-2.16.696-4.494-.48-5.21-2.615l-.736-2.218c-1.48.346-2.973.62-4.466.825l.13 2.29c.13 2.244-1.61 4.164-3.88 4.28-1.424.074-2.78-.566-3.64-1.78-.457-.64-.673-1.42-.72-2.2l-.125-2.175c-1.515-.05-3.034-.172-4.54-.36l-.46 2.18c-.11.535-.3 1.062-.62 1.507-.993 1.39-2.69 2.03-4.262 1.68-2.225-.47-3.66-2.635-3.2-4.833l.473-2.242c-1.46-.44-2.897-.944-4.297-1.51L59.93 134.8c-1.025 2-3.51 2.8-5.54 1.78-2.03-1.024-2.85-3.48-1.83-5.484l1.044-2.04c-1.55-.954-3.054-2-4.493-3.12L34.46 138.57c-4.56 3.936-7.753 9.09-9.237 14.89l3.222 16.102c.166.93-.14 1.88-.824 2.532-.682.66-1.65.937-2.594.74l-13.884-2.93c-1.556-.32-2.57-1.83-2.25-3.37 8.457-39.6 15.937-79.397 24.395-118.992.416-1.94-.83-3.85-2.78-4.25zm53.67-27.97c-2.056 0-3.738-1.596-3.738-3.546V7.93c0-1.952 1.682-3.547 3.738-3.547l40.472 6.31c.984.155.923 1.516-.07 1.59L84.177 15.31z"/>
      <path d="M156.62 7.382c2.056 0 3.738 1.596 3.738 3.546v3.835c0 1.95-1.682 3.546-3.738 3.546l-40.472-6.32c-.984-.16-.923-1.52.07-1.59l40.402-3.02z"/>
    </g>
  </symbol>
  <symbol id="ticket" viewbox="0 0 20 20">
    <title>Ticket</title>
    <g fill-rule="evenodd">
      <path d="M48.2 4.6h5v4.1h-5zm0 9.3h5V18h-5zm0 9.3h5v4.1h-5z"/>
      <path d="M87.1 17c1.4 0 2.5-1.1 2.5-2.5V2.6c0-1.4-1.1-2.5-2.5-2.5H33.4c-1.4 0-2.5 1.1-2.5 2.5v11.9c0 1.4 1.1 2.5 2.5 2.5 2 0 3.7 1.7 3.7 3.7s-1.7 3.7-3.7 3.7c-1.4 0-2.5 1.1-2.5 2.5v.4h8.2c1.9-1.6 3-4 3-6.6 0-3.9-2.6-7.3-6.2-8.3V5.1h48.7v7.3c-3.6 1.1-6.2 4.4-6.2 8.3 0 3.9 2.6 7.3 6.2 8.3v7.3H62v5h25.1c1.4 0 2.5-1.1 2.5-2.5V27c0-1.4-1.1-2.5-2.5-2.5-2 0-3.7-1.7-3.7-3.7 0-2.1 1.7-3.8 3.7-3.8z"/>
      <path d="M56.6 72.2H2.9c-1.4 0-2.5-1.1-2.5-2.5V57.8c0-1.4 1.1-2.5 2.5-2.5 2 0 3.7-1.7 3.7-3.7s-1.7-3.7-3.7-3.7c-1.4 0-2.5-1.1-2.5-2.5V33.5c0-1.4 1.1-2.5 2.5-2.5h53.7c1.4 0 2.5 1.1 2.5 2.5v11.9c0 1.4-1.1 2.5-2.5 2.5-2 0-3.7 1.7-3.7 3.7s1.7 3.7 3.7 3.7c1.4 0 2.5 1.1 2.5 2.5v11.9c0 1.4-1.2 2.5-2.5 2.5zm-51.3-5H54v-7.3c-3.6-1.1-6.2-4.4-6.2-8.3 0-3.9 2.6-7.3 6.2-8.3V36H5.3v7.3c3.6 1.1 6.2 4.4 6.2 8.3 0 3.9-2.6 7.3-6.2 8.3v7.3z"/>
      <path d="M17.6 35.5h5v4.1h-5zm0 9.3h5v4.1h-5zm0 9.3h5v4.1h-5zm0 9.3h5v4.1h-5z"/>
      <ellipse cx="36.4" cy="51.2" rx="5.3" ry="5.1"/>
      <ellipse cx="66.6" cy="20.8" rx="5.3" ry="5.1"/>
    </g>
  </symbol>
  <symbol id="moon" viewBox="0 0 12 18">
    <title>Moon</title>
    <path d="M12 17.62c-.933.376-1.944.582-3 .582-4.694 0-8.5-4.07-8.5-9.093S4.306.012 9 .012c1.056 0 2.067.206 3 .583-3.214 1.297-5.5 4.618-5.5 8.51C6.5 13 8.786 16.32 12 17.62z"/>
  </symbol>
  <symbol id="arrow" viewbox="0 0 20 20">
    <title>Arrow</title>
    <g fill-rule="evenodd">
      <path d="M22.68 39.5l-1.5 1.5L.933 20.753 21.44.247 23 1.807 3.994 20.815 22.68 39.5z"/>
    </g>
  </symbol>
</svg>
