<svg xmlns="http://www.w3.org/2000/svg" xmlns:xlink="http://www.w3.org/1999/xlink" version="1.1">
  <symbol id="menuopen-dark" viewBox="0 0 46 46">
    <title>Open menu</title>
    <g id="Icon-Menu---Dark" transform="translate(7.000000, 7.000000)" fill="#111111">
        <path d="M16,31 C24.2746002,31 31,24.2946771 31,16 C31,7.70532286 24.2746002,1 16,1 C7.72539978,1 1,7.70532286 1,16 C1,24.2946771 7.72539978,31 16,31 Z M16,28.4801695 C9.05227944,28.4801695 3.43755003,22.8822014 3.43755003,16 C3.43755003,9.11779859 9.05227944,3.51983048 16,3.51983048 C22.9477206,3.51983048 28.56245,9.11779859 28.56245,16 C28.56245,22.8822014 22.9477206,28.4801695 16,28.4801695 Z" id="Oval"></path>
        <polygon id="Line" points="10 19.5 22 19.5 22 17 10 17"></polygon>
        <polygon id="Line" points="22 12 10 12 10 14.5 22 14.5"></polygon>
    </g>
  </symbol>
  <symbol id="menu-ring" viewBox="0 0 46 46">
    <title>Menu ring</title>
    <path d="M34.3531775,13.2358659 C39.0854263,11.632127 42.420778,11.4208476 43.0595914,12.4119639 C44.3577086,14.4259876 37.2980891,21.9063148 26.9172469,28.1969163 C16.5074443,34.5050674 6.44365075,37.3898518 5.11324733,35.3257362 C4.54113264,34.4381026 5.96248369,31.8711717 9.17454489,28.6755235 L8.33196632,26.0139308 C3.6067824,30.4263054 1.42828424,34.2231405 3.01191042,36.6801302 C5.52391005,40.5774877 16.5049571,37.4297727 28.212878,30.3349856 C39.9497592,23.222649 47.7052141,15.0050192 45.1609283,11.0575699 C43.5494377,8.55734872 38.8172973,8.88579695 32.3529781,11.2894457 L34.3531775,13.2358659 Z" id="Oval-5"></path>
  </symbol>
  <symbol id="ustwologo" viewBox="0 0 112 46">
    <title>ustwo logo</title>
    <path d="M40.3812637,17.2383711 C39.3515223,16.8459683 38.6029929,16.9689296 37.8904839,17.4618797 C37.4808308,17.7161681 37.0738633,18.1511891 36.5882197,18.7158009 C36.5882197,18.7165901 25.5130495,30.9129623 25.5130495,30.9129623 L26.651642,26.6366239 L28.6814237,20.9218435 C29.2732327,19.0232831 28.828981,18.6622914 27.1093224,17.4925017 L26.9287464,17.3696982 C25.7868362,16.5960996 25.2310476,17.0188086 24.8365609,18.1778649 L23.912037,20.1226739 L14.2361333,28.5238194 L17.0431976,20.5629038 C17.3245675,19.6846539 17.2716428,19.2257983 16.4417515,18.648401 L14.5064444,17.3337095 C13.7903018,16.848336 13.1866439,16.9324674 12.383294,17.3793268 L10.0140041,18.7342688 C9.28174709,19.1432453 9.10591061,19.560272 9.70751465,19.9698799 C9.70798861,19.9701956 12.0192983,21.5401226 12.0192983,21.5401226 L8.18312458,32.7199725 C7.90049074,33.6043784 7.89543525,34.233391 8.52452855,34.6613089 L10.7100827,36.1463153 C11.5998501,36.7508619 11.8839058,36.4850508 12.3785545,36.0227226 C12.3788704,36.0219334 21.5675507,27.499405 21.5675507,27.499405 L20.1425327,31.1975569 C19.2725134,33.9057046 19.4197547,34.1898257 21.2691184,35.4516392 C21.5068847,35.6140617 22.5446833,36.3590904 22.7917707,36.4274373 C23.6899112,36.6760433 24.253915,36.1972992 25.0286697,35.2529122 C25.0289857,35.252123 38.0222428,20.5537488 38.0222428,20.5537488 L37.9386691,32.0316102 L35.9845619,31.1882441 C35.2627318,30.8698706 34.4111967,30.5245056 34.3819696,31.6848246 L34.3819696,33.6441554 C34.3819696,34.5137238 34.8527627,35.5406638 35.8194683,35.9401696 L37.1280519,36.4845772 C38.1483142,36.9244914 38.6246368,37.0468214 39.6564319,36.4831566 C39.7210475,36.4484307 41.8462517,35.2473877 41.8885915,35.2229217 C42.876625,34.6649394 43.1083879,34.179408 43.1690539,33.3668216 L43.1959112,32.3659261 L43.3093439,20.8725958 C43.3120296,19.3470233 42.9199127,18.727955 42.2129331,18.2604179 C41.572623,17.8370774 40.6255074,17.3314997 40.3812637,17.2383711 Z M101.593685,18.122777 C101.051957,17.4879242 100.634563,17.2664675 99.7229937,17.2664675 C98.6934103,17.2664675 97.9899064,17.7527882 97.9899064,17.7527882 L96.2067381,18.8188737 C95.4746391,19.2278503 95.2988026,19.6448769 95.9004066,20.0544848 C95.9008806,20.0548005 95.9008806,20.0551162 95.9015125,20.0551162 L98.2121902,21.6245697 C98.4295766,21.7996198 98.3259389,24.2547419 97.5409151,26.3700236 C96.7263483,28.5648592 96.1587109,29.5760146 94.8752468,31.0804359 C93.7372862,32.4140688 91.9132,33.6945079 90.6297359,33.0039358 C89.2559048,32.2647474 89.3086716,30.0964298 90.9259564,26.3453998 C91.6169795,24.7424832 92.7690007,22.9010627 93.4600238,21.7173826 C94.151205,20.5337025 93.7916328,19.500133 92.6645731,18.6420872 L91.0763574,17.4509884 C89.976629,16.7334248 88.4934728,16.8063492 87.247293,18.0429074 L76.8914251,28.914486 L78.6387309,23.2607916 L79.1076282,22.0717447 C79.1076282,22.0709555 79.1084181,22.0709555 79.1084181,22.0700084 C79.7051247,20.2047533 79.0633926,19.8436038 77.343576,18.6739719 L77.163158,18.5510106 C76.0212478,17.777412 75.4654592,18.2002789 75.0708145,19.3593352 L75.0486967,19.4060573 L65.3252398,28.4840425 L67.8533038,20.7823084 C67.8540937,20.7815192 67.8540937,20.7804143 67.8540937,20.7789937 C68.3392634,19.2673115 67.0840785,18.4462015 65.6451579,17.4680357 C64.2062373,16.4903434 63.4893047,17.1157255 62.3004732,18.4975012 C62.3004732,18.4982904 62.2996833,18.4982904 62.2996833,18.4990796 L51.225303,30.8919689 L55.5302159,17.4997625 C55.9653046,16.1410323 55.6851985,15.6581842 54.9064941,15.0946773 L53.2340728,14.193382 C53.2340728,14.193382 80.7974278,14.1935399 80.7979017,14.193382 C81.4254152,14.1902251 81.5007737,13.8181843 81.1746942,13.1733873 L80.1348418,11.0648929 C79.7762176,10.3590098 79.3855225,9.99770248 78.6398368,10.0000702 L26.1116518,10.0000702 C26.1110199,9.99991231 26.1108619,10.0000702 26.1103879,10.0000702 C25.4828745,10.0032271 25.407516,10.3858435 25.7335955,11.0306406 L26.7734479,13.1391349 C27.1320721,13.845018 27.5227672,14.1955919 28.2684529,14.193382 L51.2986077,14.193382 L45.8547862,31.1765635 C45.8543122,31.178142 45.8539963,31.1789312 45.8535223,31.1803518 C44.9846089,33.8847112 45.1321662,34.1688324 46.9812139,35.4306458 C48.8310516,36.6930906 49.3045304,36.9832098 50.7409232,35.2319188 C50.7413972,35.2311296 50.7417132,35.2303404 50.7425031,35.2303404 L63.2809235,20.7466354 L59.2880294,32.6164262 C58.8982823,33.9003379 59.0047637,34.367875 59.6041559,34.7744839 C60.2692696,35.227657 60.6921935,35.5146193 61.4857484,36.0536602 C62.2745638,36.5897021 62.6248149,36.7024034 63.63702,35.7494928 L73.5492682,26.3266162 L71.00193,32.6079025 C70.4891131,34.2125554 70.7060255,34.4193325 72.1552151,35.4038121 C72.1575848,35.4053906 72.1597966,35.4068112 72.1621664,35.4091788 L73.0671002,36.0231961 C73.9356976,36.5803892 74.5121822,36.7208713 75.3596097,35.7559644 C75.3603997,35.7551752 88.1961464,21.9517825 88.1961464,21.9517825 C87.4463532,23.3943285 86.5580077,24.8229841 86.043453,26.3678138 C84.849092,29.95358 84.4531835,35.5566061 89.2770747,36.545979 C89.9304976,36.6799894 90.679185,36.7814838 91.2269164,36.7664885 C98.1128181,36.524512 101.840457,29.5902207 102.627692,24.0849006 C103.12787,20.5870541 102.388662,19.0543785 101.593685,18.122777 Z" id="Logo-Black"></path>
  </symbol>
  <symbol id="shuffle" viewBox="0 0 32 32">
    <title>Shuffle icon</title>
    <g id="Symbols" stroke="none" stroke-width="1" fill="none" fill-rule="evenodd">
        <g id="Icon-Board" transform="translate(-611.000000, -54.000000)"></g>
        <g id="Icon-Shuffle---Dark" fill="#111111">
            <path d="M23.5483871,16.5000306 L23.5483871,17.6345145 C23.5483871,18.9862726 22.5364839,20.17745 21.1847258,20.17745 L14.6612903,20.17745 L14.6612903,17.1736113 L8.10659677,21.3119339 L14.6612903,25.4502565 L14.6612903,22.6290629 L21.1847258,22.6290629 C23.8882419,22.6290629 26,20.3380306 26,17.6345145 L26,16.5000306 L23.5483871,16.5000306 Z M9.4516129,14.8157419 C9.4516129,13.4639839 10.4638226,12.516129 11.8155806,12.516129 L18.3387097,12.516129 L18.3387097,15.2766452 L24.8934032,11.1383226 L18.3387097,7 L18.3387097,10.0645161 L11.8155806,10.0645161 C9.11206452,10.0645161 7,12.1122258 7,14.8157419 L7,15.8870968 L9.4516129,15.8870968 L9.4516129,14.8157419 Z" id="Combined-Shape"></path>
        </g>
    </g>
  </symbol>
  <symbol id="facebook" viewBox="0 0 60 60">
    <title>Facebook</title>
    <path d="M34.3 58.5v-26H43l1.3-10.1h-10v-6.5c0-2.9.8-4.9 5-4.9h5.4V1.9c-.9-.1-4.1-.4-7.8-.4-7.7 0-13 4.7-13 13.4v7.5h-8.7v10.1h8.7v26h10.4z"/>
  </symbol>
  <symbol id="twitter" viewBox="0 0 60 60">
    <title>Twitter</title>
    <path d="M51.2 20c0 15.4-11 33.2-31 33.2-6.1 0-11.9-2-16.8-5.3.9.1 1.7.2 2.6.2 5.1 0 9.8-1.9 13.5-5-4.7-.1-8.8-3.5-10.2-8.1.6.2 1.3.2 2 .2 1 0 2-.2 2.9-.4-5-1.1-8.7-5.8-8.7-11.4v-.2c1.5.9 3.1 1.4 4.9 1.4-2.9-2-4.8-5.7-4.8-9.7 0-2.1.5-4.1 1.5-5.9 5.3 7 13.5 11.7 22.5 12.2-.2-.9-.3-1.8-.3-2.7 0-6.4 4.9-11.7 10.9-11.7 3.1 0 6 1.4 7.9 3.7 2.5-.5 4.8-1.5 7-2.9-.8 2.8-2.6 5-4.8 6.4 2.2-.3 4.3-.9 6.2-1.9-1.4 2.3-3.3 4.4-5.4 6.1 0 .7.1 1.3.1 1.8z"/>
  </symbol>
  <symbol id="linkedin" viewbox="0 0 21 21">
    <title>LinkedIn</title>
    <path d="M5.01 19.664V6.518H.64v13.146h4.37zM2.825 4.724c1.524 0 2.472-1.01 2.472-2.272C5.27 1.162 4.35.18 2.854.18S.382 1.162.382 2.452c0 1.26.948 2.27 2.414 2.27h.03zm4.81 14.94h4.37v-7.342c0-.393.03-.785.145-1.066.315-.785 1.034-1.598 2.242-1.598 1.58 0 2.213 1.206 2.213 2.973v7.036h4.37v-7.538c0-4.038-2.156-5.917-5.03-5.917-2.358 0-3.393 1.318-3.968 2.215h.03V6.518h-4.37c.057 1.233 0 13.146 0 13.146z" fill-rule="evenodd"/>
  </symbol>
  <symbol id="github" viewbox="0 0 21 21">
    <title>GitHub</title>
    <path d="M10.5 0C4.702 0 0 4.82 0 10.765c0 4.757 3.008 8.792 7.18 10.216.525.1.695-.233.695-.517V18.46c-2.92.65-3.53-1.27-3.53-1.27-.477-1.245-1.165-1.577-1.165-1.577-.953-.668.072-.654.072-.654 1.055.075 1.61 1.11 1.61 1.11.936 1.645 2.456 1.17 3.055.894.094-.696.366-1.17.667-1.44-2.332-.273-4.784-1.196-4.784-5.32 0-1.176.41-2.136 1.082-2.89-.11-.272-.468-1.367.102-2.85 0 0 .882-.288 2.888 1.104.838-.238 1.736-.358 2.628-.362.893.004 1.79.124 2.63.362 2.005-1.392 2.885-1.103 2.885-1.103.572 1.483.212 2.578.103 2.85.674.753 1.08 1.714 1.08 2.89 0 4.134-2.455 5.044-4.793 5.31.376.334.72.99.72 1.994v2.953c0 .286.168.623.7.517C17.996 19.555 21 15.52 21 10.765 21 4.82 16.3 0 10.5 0z" fill-rule="evenodd"/>
  </symbol>
  <symbol id="instagram" viewbox="0 0 21 21">
    <title>Instagram</title>
      <path d="M10.5 1.895c2.803 0 3.135.01 4.242.06 1.023.047 1.58.22 1.95.362.49.19.838.418 1.206.785.367.368.594.717.785 1.207.143.37.314.92.36 1.94.052 1.103.062 1.44.062 4.24s-.01 3.132-.06 4.24c-.048 1.022-.22 1.58-.362 1.95-.19.49-.418.84-.785 1.205-.368.367-.717.594-1.207.785-.37.143-.92.314-1.94.36-1.103.05-1.44.06-4.24.06s-3.132-.01-4.24-.06c-1.022-.046-1.58-.22-1.95-.36-.49-.19-.84-.42-1.205-.785-.367-.368-.594-.717-.785-1.207-.143-.37-.315-.926-.36-1.95-.05-1.107-.06-1.44-.06-4.242 0-2.804.01-3.136.06-4.243.045-1.02.22-1.58.36-1.95.19-.49.42-.835.785-1.203.368-.368.717-.595 1.207-.786.37-.142.926-.314 1.95-.36 1.107-.05 1.44-.06 4.242-.06m0-1.893c-2.85 0-3.207.01-4.327.065-1.12.05-1.883.23-2.55.487-.69.27-1.275.63-1.86 1.21-.582.586-.94 1.17-1.21 1.86-.26.67-.437 1.43-.49 2.55C.017 7.292.003 7.65.003 10.5s.013 3.208.064 4.328c.05 1.117.23 1.88.488 2.548.27.69.628 1.275 1.21 1.86.585.582 1.17.94 1.86 1.21.668.26 1.43.437 2.548.488 1.12.05 1.477.063 4.328.063 2.85 0 3.21-.012 4.33-.063 1.12-.05 1.88-.23 2.55-.488.69-.27 1.28-.628 1.86-1.21.58-.585.94-1.17 1.21-1.86.26-.668.44-1.43.49-2.548.05-1.12.066-1.477.066-4.328 0-2.85-.012-3.208-.063-4.328-.05-1.117-.23-1.88-.49-2.548-.27-.69-.63-1.275-1.21-1.86-.584-.582-1.17-.94-1.86-1.21-.67-.26-1.43-.437-2.55-.488-1.12-.05-1.48-.063-4.33-.063"/>
      <path d="M10.5 5.11c-2.977 0-5.39 2.413-5.39 5.39s2.413 5.39 5.39 5.39 5.39-2.413 5.39-5.39-2.413-5.39-5.39-5.39zm0 8.89C8.568 14 7 12.43 7 10.5S8.57 7 10.5 7 14 8.57 14 10.5 12.43 14 10.5 14zm6.863-9.103c0 .696-.564 1.26-1.26 1.26-.696 0-1.26-.564-1.26-1.26 0-.696.565-1.26 1.26-1.26.696 0 1.26.564 1.26 1.26"/>
  </symbol>
 <symbol id="dribbble" viewbox="0 0 21 21">
    <title>Dribbble</title>
     <path d="M10.522,20.94c-5.79,0-10.5-4.71-10.5-10.5s4.71-10.5,10.5-10.5
  s10.5,4.71,10.5,10.5S16.312,20.94,10.522,20.94z M19.378,11.877c-0.307-0.097-2.776-0.833-5.586-0.383
  c1.173,3.224,1.65,5.849,1.742,6.395C17.546,16.528,18.978,14.373,19.378,11.877z M14.026,18.71
  c-0.133-0.787-0.654-3.529-1.913-6.801c-0.02,0.007-0.039,0.013-0.059,0.02c-5.059,1.763-6.875,5.271-7.036,5.601 c1.521,1.186,3.432,1.893,5.505,1.893C11.765,19.422,12.949,19.168,14.026,18.71z M3.859,16.45c0.203-0.348,2.665-4.423,7.29-5.918 c0.117-0.038,0.235-0.073,0.353-0.107c-0.225-0.509-0.47-1.02-0.727-1.522c-4.479,1.34-8.825,1.284-9.217,1.276 c-0.003,0.091-0.005,0.182-0.005,0.274C1.554,12.757,2.427,14.86,3.859,16.45z M1.743,8.617c0.401,0.005,4.096,0.021,8.291-1.093 C8.549,4.882,6.946,2.661,6.71,2.337C4.2,3.521,2.325,5.834,1.743,8.617z M8.421,1.734c0.248,0.332,1.877,2.55,3.346,5.25
  c3.189-1.195,4.539-3.01,4.7-3.24c-1.584-1.405-3.666-2.26-5.945-2.26C9.799,1.485,9.095,1.572,8.421,1.734z M17.465,4.782 c-0.189,0.256-1.692,2.182-5.008,3.536c0.209,0.427,0.409,0.862,0.595,1.299c0.066,0.155,0.13,0.309,0.193,0.463 c2.984-0.375,5.949,0.226,6.245,0.289C19.47,8.252,18.714,6.308,17.465,4.782z" fill-rule="evenodd"/>
  </symbol>
  <symbol id="quotemark" viewBox="0 0 194 139">
    <path fill-rule="evenodd" d="M156 66.367l36-66h-33l-37.5 66v72h72v-72H156zm-121.5 0l36-66h-33l-37.5 66v72h72v-72H34.5z" />
  </symbol>
  <symbol id="search" viewBox="0 0 300 300">
    <path d="M261.3,38.6c-49-49-128.6-49-177.6,0C60.1,62.3,47,93.9,47,127.4c0,29.6,10.1,57.5,28.8,80L1.9,281.3l16.8,16.8l73.9-73.9 c23.1,19.2,51.6,28.7,80,28.7c32.2,0,64.3-12.2,88.8-36.7c23.7-23.7,36.8-55.2,36.8-88.8S285,62.3,261.3,38.6z M244.6,199.4 c-39.7,39.7-104.3,39.7-144.1,0c-19.2-19.2-29.8-44.8-29.8-72c0-27.2,10.6-52.8,29.8-72c19.9-19.9,45.9-29.8,72-29.8 c26.1,0,52.2,9.9,72,29.8c19.2,19.2,29.8,44.8,29.8,72C274.4,154.6,263.8,180.2,244.6,199.4z" />
  </symbol>
  <symbol id="locationpin" viewBox="-195 151 208 300">
    <path d="M-91 304.5c-28.4 0-51.4-23.1-51.4-51.6s23-51.6 51.4-51.6 51.4 23.1 51.4 51.6-23 51.6-51.4 51.6zm0-150.5c-56.4 0-102 45.9-102 102.4C-193 340.7-91 448-91 448S11 340.7 11 256.4C11 199.9-34.7 154-91 154z"/>
  </symbol>
  <symbol id="subscriptionIcon" viewBox="0 0 59 47">
    <g fill-rule="evenodd">
      <path d="M51.7515839,47.1281275 L51.7074118,47.1281275 L6.61619344,46.8423842 C2.94536615,46.8189519 -0.0226058595,43.8072559 0.000129754472,40.1277407 L0.193707268,9.58639685 L10.2623363,9.65408998 L10.3227481,0 L58.662561,0.307222929 L58.4079221,40.4994023 C58.3968791,42.2815556 57.6933742,43.9517549 56.4279749,45.2040788 C55.172969,46.4459885 53.5132692,47.1281275 51.7515839,47.1281275 L51.7515839,47.1281275 L51.7515839,47.1281275 Z M12.3527136,43.6237032 L51.7281987,43.8736473 L51.7509343,43.8736473 C52.6532134,43.8736473 53.5028757,43.5241162 54.1459689,42.8881908 C54.7942587,42.2470581 55.1541309,41.3917807 55.1599772,40.4785736 L55.3938292,3.54087444 L13.5505557,3.27465796 L13.3167036,40.2123572 C13.308259,41.4607757 12.9568314,42.6278323 12.3527136,43.6237032 L12.3527136,43.6237032 L12.3527136,43.6237032 Z M3.42151487,12.8630075 L3.24807461,40.1485693 C3.23638201,42.0329134 4.7564202,43.575537 6.63698025,43.587904 C8.48700965,43.60678 10.0564166,42.0765233 10.0687588,40.1921793 L10.2408999,12.9085702 L3.42151487,12.8630075 L3.42151487,12.8630075 L3.42151487,12.8630075 Z"/>
      <path d="M49.4356454,38.1896377 L19.3388892,37.9989252 L19.3590265,34.744445 L49.4557827,34.9351575 L49.4356454,38.1896377"/>
      <path d="M49.4356454,31.634082 L19.3388892,31.4433695 L19.3590265,28.1888893 L49.4557827,28.3796019 L49.4356454,31.634082"/>
      <path d="M49.6152928,11.8443957 L39.0055562,11.7767025 L39.0256935,8.52222236 L49.6354301,8.58926465 L49.6152928,11.8443957"/>
      <path d="M49.6152928,18.3999514 L39.0055562,18.3322582 L39.0256935,15.077778 L49.6354301,15.1454712 L49.6152928,18.3999514"/>
      <path d="M49.6152928,24.955507 L39.0055562,24.8878139 L39.026343,21.6333337 L49.6360797,21.7010269 L49.6152928,24.955507"/>
      <path d="M25.1410842,8.50958413 L30.0639234,17.1584509 L30.1090726,8.53559669 L35.7705718,8.5652405 L35.6847602,24.953905 L29.9206273,24.9237238 L24.9746531,16.4751984 L24.9305532,24.8975956 L19.2960957,24.8680934 L19.3819073,8.47942887 L25.1410842,8.50958413 L25.1410842,8.50958413 L25.1410842,8.50958413 Z"/>
    </g>
  </symbol>
  <symbol id="flyingCow" viewbox="0 0 20 20">
    <title>Flying Cow</title>
    <g stroke="#333" stroke-width="5" fill="none" fill-rule="evenodd">
      <path d="M120.357 2.676v43.65m-45.76-24.463c-3.693 0-6.687-2.947-6.687-6.582m105.544-.4c0 4.83-4.057 8.75-9.063 8.75m17.46-10.64c2.06 3.77.68 8.49-3.09 10.55" stroke-linecap="round"/>
      <path d="M30.508 43.28c-1.966-.405-3.887.862-4.29 2.828l-12.653 61.626c-.45 2.19-2.11 3.81-4.33 4.228-3.473.653-6.78-1.917-6.734-6.358.02-1.47 1.25-3.053 2.65-3.516l.39-.25c.57-.372.97-.956 1.11-1.623l12.83-62.512c1.208-5.857 7.99-9.43 13.92-8.21l120.368 24.71c4.806.986 9.727 1.63 14.624 1.912l39.71 2.465c.19.018.36-.11.407-.29l2.206-8.677c.522-2.543 2.023-4.725 4.224-6.14 1.318-.845 3.08-.45 3.947.854l4.655 6.978c.76 1.145 2.05 1.82 3.43 1.795l5.57-.107c5.18-.097 9.63 3.656 10.352 8.718l26.727 38.65c1.917 2.78 1.336 6.57-1.326 8.63l-7.46 5.79c-.67.52-1.535.72-2.367.55l-.526-.105c-25.066-5.146-51.366 1.837-70.35 18.68-11.934 10.586-20.433 24.285-24.58 39.616l-2.113 7.813 3.04 16.753c.11.596.077 1.22-.18 1.767-.596 1.257-1.93 1.87-3.21 1.607l-12.48-2.56c-1.34-.278-2.31-1.458-2.31-2.81l.046-52.99-39.85-14.457c-2.4 1.54-4.935 2.865-7.55 3.956l.7 2.104c.245.74.333 1.537.15 2.29-.354 1.44-1.38 2.52-2.735 2.956-2.16.696-4.494-.48-5.21-2.615l-.736-2.218c-1.48.346-2.973.62-4.466.825l.13 2.29c.13 2.244-1.61 4.164-3.88 4.28-1.424.074-2.78-.566-3.64-1.78-.457-.64-.673-1.42-.72-2.2l-.125-2.175c-1.515-.05-3.034-.172-4.54-.36l-.46 2.18c-.11.535-.3 1.062-.62 1.507-.993 1.39-2.69 2.03-4.262 1.68-2.225-.47-3.66-2.635-3.2-4.833l.473-2.242c-1.46-.44-2.897-.944-4.297-1.51L59.93 134.8c-1.025 2-3.51 2.8-5.54 1.78-2.03-1.024-2.85-3.48-1.83-5.484l1.044-2.04c-1.55-.954-3.054-2-4.493-3.12L34.46 138.57c-4.56 3.936-7.753 9.09-9.237 14.89l3.222 16.102c.166.93-.14 1.88-.824 2.532-.682.66-1.65.937-2.594.74l-13.884-2.93c-1.556-.32-2.57-1.83-2.25-3.37 8.457-39.6 15.937-79.397 24.395-118.992.416-1.94-.83-3.85-2.78-4.25zm53.67-27.97c-2.056 0-3.738-1.596-3.738-3.546V7.93c0-1.952 1.682-3.547 3.738-3.547l40.472 6.31c.984.155.923 1.516-.07 1.59L84.177 15.31z"/>
      <path d="M156.62 7.382c2.056 0 3.738 1.596 3.738 3.546v3.835c0 1.95-1.682 3.546-3.738 3.546l-40.472-6.32c-.984-.16-.923-1.52.07-1.59l40.402-3.02z"/>
    </g>
  </symbol>
  <symbol id="ticket" viewbox="0 0 20 20">
    <title>Ticket</title>
    <g fill-rule="evenodd">
      <path d="M48.2 4.6h5v4.1h-5zm0 9.3h5V18h-5zm0 9.3h5v4.1h-5z"/>
      <path d="M87.1 17c1.4 0 2.5-1.1 2.5-2.5V2.6c0-1.4-1.1-2.5-2.5-2.5H33.4c-1.4 0-2.5 1.1-2.5 2.5v11.9c0 1.4 1.1 2.5 2.5 2.5 2 0 3.7 1.7 3.7 3.7s-1.7 3.7-3.7 3.7c-1.4 0-2.5 1.1-2.5 2.5v.4h8.2c1.9-1.6 3-4 3-6.6 0-3.9-2.6-7.3-6.2-8.3V5.1h48.7v7.3c-3.6 1.1-6.2 4.4-6.2 8.3 0 3.9 2.6 7.3 6.2 8.3v7.3H62v5h25.1c1.4 0 2.5-1.1 2.5-2.5V27c0-1.4-1.1-2.5-2.5-2.5-2 0-3.7-1.7-3.7-3.7 0-2.1 1.7-3.8 3.7-3.8z"/>
      <path d="M56.6 72.2H2.9c-1.4 0-2.5-1.1-2.5-2.5V57.8c0-1.4 1.1-2.5 2.5-2.5 2 0 3.7-1.7 3.7-3.7s-1.7-3.7-3.7-3.7c-1.4 0-2.5-1.1-2.5-2.5V33.5c0-1.4 1.1-2.5 2.5-2.5h53.7c1.4 0 2.5 1.1 2.5 2.5v11.9c0 1.4-1.1 2.5-2.5 2.5-2 0-3.7 1.7-3.7 3.7s1.7 3.7 3.7 3.7c1.4 0 2.5 1.1 2.5 2.5v11.9c0 1.4-1.2 2.5-2.5 2.5zm-51.3-5H54v-7.3c-3.6-1.1-6.2-4.4-6.2-8.3 0-3.9 2.6-7.3 6.2-8.3V36H5.3v7.3c3.6 1.1 6.2 4.4 6.2 8.3 0 3.9-2.6 7.3-6.2 8.3v7.3z"/>
      <path d="M17.6 35.5h5v4.1h-5zm0 9.3h5v4.1h-5zm0 9.3h5v4.1h-5zm0 9.3h5v4.1h-5z"/>
      <ellipse cx="36.4" cy="51.2" rx="5.3" ry="5.1"/>
      <ellipse cx="66.6" cy="20.8" rx="5.3" ry="5.1"/>
    </g>
  </symbol>
  <symbol id="moon" viewBox="0 0 12 18">
    <title>Moon</title>
    <path d="M12 17.62c-.933.376-1.944.582-3 .582-4.694 0-8.5-4.07-8.5-9.093S4.306.012 9 .012c1.056 0 2.067.206 3 .583-3.214 1.297-5.5 4.618-5.5 8.51C6.5 13 8.786 16.32 12 17.62z"/>
  </symbol>
  <symbol id="arrow" viewbox="0 0 20 20">
    <title>Arrow</title>
    <g fill-rule="evenodd">
      <path d="M22.68 39.5l-1.5 1.5L.933 20.753 21.44.247 23 1.807 3.994 20.815 22.68 39.5z"/>
    </g>
  </symbol>
</svg>
